<svg fill="none" xmlns="http://www.w3.org/2000/svg" viewBox="0 0 300 200">
  <path d="M140.58 105.72c.62 18.45-5.03 35.51-11.57 52.37a8.97 8.97 0 0 1-4.24 4.73c-21.76 11.43-43.75 12.93-66.05 1.52a9.98 9.98 0 0 1-4.45-4.5c-6.75-13.04-14.21-25.74-16.73-40.58-4.56-26.84.72-51.46 19.13-71.55 14.74-16.08 31.69-17.89 51.28-6.19 18.73 11.18 28.18 29.1 31.75 50.38.78 4.63.82 9.2.88 13.82ZM157.49 99.88c.45-22.04 8.21-37.4 9.87-40.59a77.83 77.83 0 0 1 13.26-18.36c14.17-14.83 34.62-16.99 52.2-6.07 17.65 10.96 27.78 26.65 30.45 47.46 1.65 12.9-.25 25.32-2.74 37.8-.64 3.24-1.68 6.39-1.44 9.77.25 3.54-1.79 6.13-4.4 7.94-14.2 9.82-28.79 18.99-45.97 22.73-10.22 2.23-20.37 2.43-29.93-2.93-1.76-.99-3.45-1.94-4.38-3.86-8.39-17.29-15.51-32.45-16.47-42.35-.51-5.21-.5-9.34-.45-11.54Z" fill="#fff"/>
</svg>
