<svg fill="none" xmlns="http://www.w3.org/2000/svg" viewBox="0 0 300 200">
  <path d="M140.59 105.73c-.06-4.62-.1-9.19-.88-13.82-3.57-21.28-13.02-39.2-31.75-50.38-19.59-11.7-36.54-9.89-51.28 6.19-18.41 20.09-23.69 44.71-19.13 71.55 2.52 14.84 9.98 27.54 16.73 40.58a9.98 9.98 0 0 0 4.45 4.5c22.3 11.41 44.29 9.91 66.05-1.52a8.97 8.97 0 0 0 4.24-4.73c6.54-16.86 12.19-33.92 11.57-52.37Zm-12.67.26c-.09 15.69-3.44 30.51-11.71 44.04-.94 1.54-2.42 2.21-3.83 3.03-14.74 8.59-29.81 7.08-45.04 1.5-2.38-.87-2.93-3.11-4.01-4.82-15.19-23.99-19.4-49.27-8.46-76.2 1.69-4.17 4.01-8 6.54-11.68 11.93-17.35 30.33-19.45 46.02-5.26 14.62 13.22 20.63 30.03 20.5 49.38h-.01v.01ZM263.28 82.33c-2.67-20.81-12.8-36.5-30.45-47.46-17.58-10.92-38.03-8.76-52.2 6.07a77.83 77.83 0 0 0-13.26 18.36c-1.66 3.19-9.42 18.55-9.87 40.59-.05 2.2-.06 6.33.45 11.54.96 9.9 8.08 25.06 16.47 42.35.93 1.92 2.62 2.87 4.38 3.86 9.56 5.36 19.71 5.16 29.93 2.93 17.18-3.74 31.77-12.91 45.97-22.73 2.61-1.81 4.65-4.4 4.4-7.94-.24-3.38.8-6.53 1.44-9.77 2.49-12.48 4.39-24.9 2.74-37.8Zm-21.11 47.66a80.5 80.5 0 0 1-39.4 18.73c-11.43 2.05-17.27-.9-22.89-10.96-18.76-33.59-9.46-67.08 10.12-88.29 9.47-10.26 22.15-11.76 34.4-5.02 19.45 10.7 27.65 27.59 27.2 52.82.33 7.56-2.31 18.09-6.28 28.37a10.81 10.81 0 0 1-3.14 4.35h-.01Z" fill="#fff"/>
  <path d="M111 53.61c-15.57-14.3-34.55-14.94-47.85-.82-15.22 16.15-20.18 35.97-18.66 57.78 1.16 16.58 9.28 30.52 16.44 44.85.68 1.38 1.95 2.1 3.37 2.76 18.42 8.56 36.57 7.68 54.53-1.37 1.3-.65 2.49-1.37 3.14-2.96 6.2-15.3 10.69-30.97 10.62-47.66.02-20.49-6.21-38.45-21.6-52.58h.01Zm16.92 52.38c-.09 15.69-3.44 30.51-11.71 44.04-.94 1.54-2.42 2.21-3.83 3.03-14.74 8.59-29.81 7.08-45.04 1.5-2.38-.87-2.93-3.11-4.01-4.82-15.19-23.99-19.4-49.27-8.46-76.2 1.69-4.17 4.01-8 6.54-11.68 11.93-17.35 30.33-19.45 46.02-5.26 14.62 13.22 20.63 30.03 20.5 49.38h-.01v.01ZM222.87 39.19c-11.84-5.04-23.65-4.71-33.35 4.54-18.89 18-26.27 40.53-23.34 66.24 1.36 11.95 7.37 22.41 12.14 33.34 4.02 9.22 10.69 10.08 18.54 10.59 1.47.09 2.97-.19 4.45-.37 14.87-1.76 27.67-8.57 40.05-16.45 5.22-3.32 9.57-6.12 10.38-13.84 1.01-9.62 3.64-19.14 3.9-27.56h.01c1.48-26.1-10.91-47.18-32.78-56.49Zm22.44 86.45a10.81 10.81 0 0 1-3.14 4.35 80.5 80.5 0 0 1-39.4 18.73c-11.43 2.05-17.27-.9-22.89-10.96-18.76-33.59-9.46-67.08 10.12-88.29 9.47-10.26 22.15-11.76 34.4-5.02 19.45 10.7 27.65 27.59 27.2 52.82.33 7.56-2.31 18.09-6.28 28.37h-.01Z" fill="#0F0F0F"/>
</svg>
