<svg fill="none" xmlns="http://www.w3.org/2000/svg" viewBox="0 0 300 200">
  <path d="M268.6 73v-6.2c0-2.04 0-4.06.02-6.1a14.5 14.5 0 0 0-.22-3.98 14.95 14.95 0 0 0-3.21-6.68 20.63 20.63 0 0 0-4.24-3.92 47.04 47.04 0 0 0-9.85-5.23c-7.57-2.89-15.33-4.21-22.93-4.67-15.21-.93-30.11 1-44.6 5.76-7.23 2.38-14.81 5.52-21.62 10.84-.48.37-.9.74-1.2 1.01a39.35 39.35 0 0 1-.94.81 11.87 11.87 0 0 0-5.73 5.66 13.52 13.52 0 0 0-1.12 6.77c.53 7.44 1.05 14.99 1.71 22.53.6 6.81 1.31 14.26 3.25 21.65 2.96 11.28 7.56 22.87 17.47 32.2 5.21 4.89 11.32 10.11 19.41 13.19 9.1 3.47 18.81 4.5 28.89 1.16a49.3 49.3 0 0 0 20.2-12.99c13.93-14.55 20.99-32.14 23.74-51.13.1-.69.18-1.38.26-2.07l.08-.87c.6-6.9.61-9.85.61-9.85V73h.02ZM159.99 54.55l.04-.02-.04.02Z" fill="#fff"/>
  <path d="M138.21 74.78c-.39-3.83-.75-5.59-.59-7.73.2-2.54-.5-5.37-2.44-7.66-.95-1.13-3.52-4.58-7.78-6.31a71.9 71.9 0 0 0-13.22-4.17 199.04 199.04 0 0 0-43.65-3.73c-6.53.17-13.29.77-20.07 2.4-4.57 1.1-6.12 1.8-8.41 1.78-5.97-.04-8.94 4.46-9.97 7-.93 2.3-.96 4.43-.88 5.83.09 1.53-.07 2.33-.13 5.12-.07 2.89-.11 5.85.01 9.79.01 3.19.16 7.43.56 11.69 1.25 13.28 4.88 25.8 9.53 37.71a62.3 62.3 0 0 0 8.18 14.73c.25.34.4.58.91 1.33.42.61 1.05 1.51 1.87 2.42 1.83 2.01 4.81 5.67 8.68 8.3.87.59 1.67 1.2 2.82 2.06a45.8 45.8 0 0 0 3.84 2.62c9.11 5.45 19.16 7.12 29.6 4.59 7.42-1.79 13.13-6.02 17.68-10.25 8.97-8.33 14.58-18.51 18.42-29.18a95.36 95.36 0 0 0 5.4-29.21c.22-6.09.32-12.57-.35-19.15l-.01.02Z" fill="#FDFDFD"/>
</svg>
