<svg fill="none" xmlns="http://www.w3.org/2000/svg" viewBox="0 0 300 200">
  <path d="M268.4 56.73a14.95 14.95 0 0 0-3.21-6.68 20.63 20.63 0 0 0-4.24-3.92 47.04 47.04 0 0 0-9.85-5.23c-7.57-2.89-15.33-4.21-22.93-4.67-15.21-.93-30.11 1-44.6 5.76-7.23 2.38-14.81 5.52-21.62 10.84-.48.37-.9.74-1.2 1.01a39.35 39.35 0 0 1-.94.81 11.87 11.87 0 0 0-5.73 5.66 13.52 13.52 0 0 0-1.12 6.77c.53 7.44 1.05 14.99 1.71 22.53.6 6.81 1.31 14.26 3.25 21.65 2.96 11.28 7.56 22.87 17.47 32.2 5.21 4.89 11.32 10.11 19.41 13.19 9.1 3.47 18.81 4.5 28.89 1.16a49.3 49.3 0 0 0 20.2-12.99c13.93-14.55 20.99-32.14 23.74-51.13.1-.69.18-1.38.26-2.07l.08-.87c.6-6.9.61-9.85.61-9.85v-7.89h.02v-6.2c0-2.04 0-4.06.02-6.1a14.5 14.5 0 0 0-.22-3.98Zm-44.74 87.59a27.6 27.6 0 0 1-19.99 1.91 71.28 71.28 0 0 1-8.02-2.7 29.16 29.16 0 0 1-9.61-6.66c-1.27-1.28-2.48-2.61-3.73-3.9-4.44-4.59-7.15-10.21-9.48-16.04-2.62-6.55-4-13.42-4.84-20.41A151.54 151.54 0 0 1 166.77 77h-.01c-.05-3.1.29-6.99.41-10.88a3.9 3.9 0 0 1 1.45-3.04c3.56-3.25 7.84-5.23 12.27-6.9 7.51-2.84 15.18-5.13 23.13-6.33 9.31-1.4 18.66-2.2 28.05-.9 6.41.89 12.57 2.59 17.97 6.38 1.48 1.04 2.67 2.39 4.04 3.56.19.16.23.38.27.62 2.98 17.12 2.48 33.99-3.56 50.47-3.27 8.92-7.74 17.15-14.12 24.25a42.42 42.42 0 0 1-13.01 10.09Z" fill="#fff"/>
  <path d="M260.59 73.01h-.01c0-4.12-.04-8.25.01-12.38.02-1.97.13-3.91-1.76-5.2-.05-.04-.07-.11-.1-.17a6.02 6.02 0 0 0-2.34-2.53 38.37 38.37 0 0 0-8.17-4.35c-6.62-2.53-13.54-3.73-20.56-4.16-14.2-.86-28.08.93-41.61 5.38-6.86 2.25-13.44 5.05-19.19 9.54-1.15.9-2.15 2.05-3.48 2.66-2.1.96-2.6 2.54-2.45 4.71.53 7.47 1.05 14.94 1.7 22.4.6 6.83 1.27 13.66 3.02 20.31 2.81 10.66 6.89 20.57 15.22 28.4 5.05 4.75 10.22 9.04 16.78 11.54 7.76 2.96 15.55 3.69 23.52 1.05a41.3 41.3 0 0 0 16.94-10.93c12.54-13.09 19.04-29.02 21.61-46.74.94-6.47.96-13 .87-19.53Zm-9.8 36.97c-3.27 8.92-7.74 17.15-14.12 24.25a42.42 42.42 0 0 1-13.01 10.09 27.6 27.6 0 0 1-19.99 1.91 71.28 71.28 0 0 1-8.02-2.7 29.16 29.16 0 0 1-9.61-6.66c-1.27-1.28-2.48-2.61-3.73-3.9-4.44-4.59-7.15-10.21-9.48-16.04-2.62-6.55-4-13.42-4.84-20.41A151.54 151.54 0 0 1 166.77 77h-.01c-.05-3.1.29-6.99.41-10.88a3.9 3.9 0 0 1 1.45-3.04c3.56-3.25 7.84-5.23 12.27-6.9 7.51-2.84 15.18-5.13 23.13-6.33 9.31-1.4 18.66-2.2 28.05-.9 6.41.89 12.57 2.59 17.97 6.38 1.48 1.04 2.67 2.39 4.04 3.56.19.16.23.38.27.62 2.98 17.12 2.48 33.99-3.56 50.47Z" fill="#040404"/>
  <path d="M138.22 74.77v.02c-.4-3.83-.76-5.59-.6-7.73.2-2.54-.5-5.37-2.44-7.66-.95-1.13-3.52-4.58-7.78-6.31a71.9 71.9 0 0 0-13.22-4.17 199.04 199.04 0 0 0-43.65-3.73c-6.53.17-13.29.77-20.07 2.4-4.57 1.1-6.12 1.8-8.41 1.78-5.97-.04-8.94 4.46-9.97 7-.93 2.3-.96 4.43-.88 5.83.09 1.53-.07 2.33-.13 5.12-.07 2.89-.11 5.85.01 9.79.01 3.19.16 7.43.56 11.69 1.25 13.28 4.88 25.8 9.53 37.71a62.3 62.3 0 0 0 8.18 14.73c.25.34.4.58.91 1.33.42.61 1.05 1.51 1.87 2.42 1.83 2.01 4.81 5.67 8.68 8.3.87.59 1.67 1.2 2.82 2.06a45.8 45.8 0 0 0 3.84 2.62c9.11 5.45 19.16 7.12 29.6 4.59 7.42-1.79 13.13-6.02 17.68-10.25 8.97-8.33 14.58-18.51 18.42-29.18a95.36 95.36 0 0 0 5.4-29.21c.22-6.09.32-12.57-.35-19.15Zm-32.28 68.61c-3.4 3.11-7.1 5.8-11.73 6.68-7.93 1.49-15.44.33-22.31-4.06a63.68 63.68 0 0 1-5.78-4.22c-6.82-5.53-10.43-13.14-13.64-20.91a122.01 122.01 0 0 1-7.7-27.8c-.93-5.92-.82-11.88-.38-17.84.22-2.96.37-5.91.89-8.84.24-1.35 1.01-2.6.62-4.09-.13-.49.6-.62 1.01-.77 2.25-.83 4.61-1.28 6.94-1.81a91.2 91.2 0 0 1 21.53-2.01v-.02c12.42-.02 23.93 1.03 35.24 3.82 4.29 1.06 8.35 2.68 11.94 5.34.29.21.62.36.67.8.45 3.9 1.55 7.69 2.09 11.58.81 5.87.98 11.75.53 17.64a82.24 82.24 0 0 1-4.96 23.33c-3.35 8.79-7.94 16.77-14.96 23.18Z" fill="#FDFDFD"/>
  <path d="M130.25 75.61c-.31-3.04-.84-6.07-.6-9.15a2.6 2.6 0 0 0-.58-1.88c-1.34-1.59-2.62-3.22-4.68-4.06a65.2 65.2 0 0 0-11.77-3.74 190.54 190.54 0 0 0-41.89-3.58 87.7 87.7 0 0 0-18.4 2.18c-3.41.83-6.74 2.03-10.33 2.01-1.23-.01-2.05.88-2.51 2.01-.31.76-.36 1.56-.31 2.36.12 1.93-.08 3.86-.12 5.78-.06 2.86-.1 5.72.02 9.57h-.01c.02 3.02.16 7.01.53 10.99 1.16 12.31 4.54 24.07 9.02 35.55a55.02 55.02 0 0 0 7.14 12.85c.78 1.03 1.41 2.18 2.29 3.14 2.27 2.5 4.39 5.12 7.25 7.06 2.11 1.43 4.07 3.11 6.27 4.43 7.37 4.41 15.27 5.7 23.61 3.68 5.5-1.33 10.01-4.52 14.11-8.33 7.77-7.22 12.79-16.17 16.34-26.03a87.38 87.38 0 0 0 4.93-26.78c.22-6.02.3-12.05-.31-18.06Zm-4.39 21.26a82.24 82.24 0 0 1-4.96 23.33c-3.35 8.79-7.94 16.77-14.96 23.18-3.4 3.11-7.1 5.8-11.73 6.68-7.93 1.49-15.44.33-22.31-4.06a63.68 63.68 0 0 1-5.78-4.22c-6.82-5.53-10.43-13.14-13.64-20.91a122.01 122.01 0 0 1-7.7-27.8c-.93-5.92-.82-11.88-.38-17.84.22-2.96.37-5.91.89-8.84.24-1.35 1.01-2.6.62-4.09-.13-.49.6-.62 1.01-.77 2.25-.83 4.61-1.28 6.94-1.81a91.2 91.2 0 0 1 21.53-2.01v-.02c12.42-.02 23.93 1.03 35.24 3.82 4.29 1.06 8.35 2.68 11.94 5.34.29.21.62.36.67.8.45 3.9 1.55 7.69 2.09 11.58.81 5.87.98 11.75.53 17.64Z" fill="#040404"/>
</svg>
