<svg fill="none" xmlns="http://www.w3.org/2000/svg" viewBox="0 0 300 200">
  <path d="m106.05 94.67-7.1 1.06c-.33.05-.67.05-.99.12a2.86 2.86 0 0 0-2.33 2.85 2.86 2.86 0 0 0 2.52 2.79c2.87.43 5.76.68 8.65.23.69-.11.89.06.97.76.81 7.26-.1 14.27-2.88 21.03a17.6 17.6 0 0 1-3.13 5.07 10.11 10.11 0 0 1-14.76.23c-2.57-2.6-3.49-5.85-4.03-9.23-1.18-7.38-.37-14.66 1.48-21.86.6-2.35 1.03-4.75 1.92-7.01 1.2-3.06 3.18-5.31 6.6-5.87a9.12 9.12 0 0 1 6.18 1.08c3.43 1.97 5.31 5.19 6.93 8.75h-.03Z" fill="#040404"/>
</svg>
