<svg fill="none" xmlns="http://www.w3.org/2000/svg" viewBox="0 0 300 200">
  <path d="M211.17 103.87a37.52 37.52 0 0 1-3.18 16 27.8 27.8 0 0 1-3.75 5.74c-1.87 2.39-4.27 2.75-7.04 2.43-3.02-.34-5.26-1.9-7.07-4.21a24.6 24.6 0 0 1-5.46-14.41c-.42-10 1.24-19.61 5.68-28.66l.13-.27c1.52-2.96 3.89-4.08 7.21-3.86 3.85.26 6.43 2.23 8.28 5.43a32.53 32.53 0 0 1 2.58 5.82c.18.52.12.79-.5.84-2.76.21-5.39 1.17-8.14 1.47a2.75 2.75 0 0 0-2.54 3.04c.16 1.5 1.42 2.55 3.11 2.46 2.96-.17 5.91-.38 8.86-.63.79-.07 1.12.13 1.21.94.31 2.88.63 5.76.63 7.87h-.01Z" fill="#040404"/>
</svg>
