<svg fill="none" xmlns="http://www.w3.org/2000/svg" viewBox="0 0 136 101">
  <path fill-rule="evenodd" clip-rule="evenodd" d="m90.23 93.55 24.3-5.36h21.05l-6.15-40.81L117.15.86 90.48 1.95 74.56 6.42 58.6 15.65l-23.4-5.37-21.78 1.53L.58 21.43l17.73 79.43 22.89-3.8h17.7l19.6 3.43 11.73-6.94ZM56.17 22.77l-21.64-4.96-18.06 1.27-7.09 5.3 15.15 67.87 15.96-2.66h19.15l13.2 2.32L69.8 74.9l-8.4-37.04-5.23-15.09Zm70.24 57.96L121.6 48.8 110.98 8.58l-19.16.78-13.96 3.92-13.83 8 5.07 14.65 8.53 37.58 3.01 16.88 6.45-3.82 26.5-5.84h12.82Z" fill="#fff"/>
  <path d="m50.94 44.27 1.73-5.42-9.4-1.95H32.5l-10.83 1.93 1.5 5.46 10.08-1.8h9.15l8.54 1.78ZM56.2 69.4l2.17-5.32-9-2.38h-14l-9.95 2.36 1.96 5.37 8.98-2.13h11.9l7.94 2.1ZM103.71 61.01l9.64-1.8-.57-5.45-10.29 1.92-11.3 4.04-6.45 4.61 3.85 4.06 5.52-3.95 9.6-3.43ZM107.09 32.7v-5.6H98.5l-12.25 3.65-8.05 6.03 4.98 3.96 6.9-5.16 9.66-2.88h7.35Z" fill="#fff"/>
  <path fill-rule="evenodd" clip-rule="evenodd" d="m34.53 17.81 21.64 4.96 5.23 15.1 8.4 37.03 3.03 17-13.19-2.3H40.5l-15.96 2.65L9.38 24.39l7.1-5.31 18.05-1.27Zm18.14 21.04-1.73 5.42-8.54-1.78h-9.15l-10.09 1.8-1.49-5.46L32.5 36.9h10.77l9.4 1.95Zm5.7 25.23L56.2 69.4l-7.94-2.1h-11.9l-8.98 2.13-1.96-5.37 9.95-2.36h14l9 2.38ZM121.6 48.8l4.81 31.93H113.6l-26.5 5.84-6.46 3.82-3-16.88-8.54-37.58-5.07-14.65 13.83-8 13.96-3.92 19.16-.78L121.6 48.8Zm-14.51-21.7v5.6h-7.35l-9.67 2.88-6.89 5.16-4.98-3.96 8.05-6.03L98.5 27.1h8.59Zm6.26 32.1-9.64 1.81-9.6 3.43-5.52 3.95-3.85-4.06 6.44-4.61 11.31-4.04 10.3-1.92.56 5.45Z" fill="#C74FF1"/>
</svg>
