<svg fill="none" xmlns="http://www.w3.org/2000/svg" viewBox="0 0 140 100">
  <path fill-rule="evenodd" clip-rule="evenodd" d="M106.72 68.18a16 16 0 0 1-5.97 2.48L89.19 72.9v5.2l-1.38 8.43-2.71 2.75a16 16 0 0 1-9.66 4.68l-32.07 3.5-11.27-7.53-3.05-7.98a16 16 0 0 1-1.01-6.8l2.56-34.6a16 16 0 0 1 1.07-4.74l3.01-7.71 15.38-1.92 2.66.1-.53-12.58v-6L68.23 2l43.45 2.86v53.8L109 66.63l-2.28 1.55Zm-70.2 10.9 2.15 5.6 6.73 4.5L74.57 86a8 8 0 0 0 4.83-2.34l.92-.94.87-5.28v-42l-30.8-1.25-10 1.25-1.27 3.27a8 8 0 0 0-.54 2.37l-2.56 34.6a8 8 0 0 0 .5 3.4Zm65.76-17.55-.06.04a8 8 0 0 1-2.98 1.24l-10.05 1.93V27.75L60.7 26.6l.3-7.22a8 8 0 0 0-.1-1.68l-.5-2.86 9.45-4.71 33.82 2.22v45l-1.4 4.18Z" fill="#fff"/>
  <path d="m36.53 79.08 2.14 5.6 6.73 4.5L74.57 86a8 8 0 0 0 4.83-2.34l.92-.94.87-5.28v-42l-30.8-1.25-10 1.25-1.27 3.27a8 8 0 0 0-.54 2.37l-2.56 34.6a8 8 0 0 0 .5 3.4Z" fill="#0F6EFD"/>
  <path d="m102.22 61.57.06-.04 1.4-4.17v-45l-33.82-2.23-9.45 4.7.5 2.87a8 8 0 0 1 .1 1.68l-.3 7.22 28.48 1.15v37l10.05-1.94a8 8 0 0 0 2.98-1.24Z" fill="#0F6EFD"/>
  <path fill-rule="evenodd" clip-rule="evenodd" d="m102.28 61.73-.06.04A8 8 0 0 1 99.24 63l-10.05 1.93V27.95L60.7 26.8l.3-7.22a8 8 0 0 0-.1-1.68l-.5-2.86 9.45-4.71 33.82 2.22v45l-1.4 4.18Z" fill="#fff"/>
  <path d="m102.22 61.77.06-.04 1.4-4.17v-45l-33.82-2.24-9.45 4.72.5 2.86a8 8 0 0 1 .1 1.68l-.3 7.22 28.48 1.15v37L99.24 63a8 8 0 0 0 2.98-1.24Z" fill="#0F6EFD"/>
  <path d="m36.53 79.1 2.14 5.6 6.73 4.5 29.17-3.19a8 8 0 0 0 4.83-2.34l.92-.94.87-5.28v-42l-30.8-1.25-10 1.25-1.27 3.27a8 8 0 0 0-.54 2.38l-2.56 34.6a8 8 0 0 0 .5 3.4Z" fill="#0F6EFD"/>
  <path d="M81.19 51.13V35.45l-3.26-.13-.1.03c-1.31.38-2.55 1.18-3.67 1.98-5.11 3.67-4.68 9.8 1.08 12.32 1.85.8 3.9 1.15 5.95 1.48ZM37.97 49.44l.61-8.34a8 8 0 0 1 .54-2.38l1.28-3.27 10-1.25 8.8.36a620 620 0 0 1-9.85 10.84c-3.21 3.45-7.4 5.24-11.38 4.04ZM77.68 85A8 8 0 0 1 74.57 86L45.4 89.2l-6.73-4.5-2.14-5.6a8 8 0 0 1-.51-3.4l.44-5.9 1.99-1.9c2.05-2 4.18-4.08 7.26-5.9 7.54-4.44 8.94 4.91 9.1 10.08.19 6.21 2.68 8.85 8.93 9.25.66.04 1.4.06 2.19.09 4.2.12 9.78.3 11.75 3.57ZM81.19 64.2v8.53c-1.8-2.03-1.9-4.91-.04-8.47l.04-.07ZM65.59 27c2.9-3.36 5.8-6.74 8.67-10.14 1.5-1.76 2.55-3.95 1.95-6.12l-6.35-.42-9.45 4.72.5 2.86a8 8 0 0 1 .1 1.68l-.3 7.22 4.88.2ZM86.74 27.85l2.45.1v23.1a34.82 34.82 0 0 0 14.49-5.73V12.55l-13.24-.87a15.48 15.48 0 0 0-.47 3.26 35.3 35.3 0 0 1-.64 5.37 30.23 30.23 0 0 1-2.6 7.54ZM103.53 58c-1.34-2.44-4.01-3.79-7.5-3.64-2.52.11-4.8.67-6.84 1.63v8.95l10.05-1.93a8 8 0 0 0 2.98-1.24l.06-.04 1.25-3.72Z" fill="#0E65E9"/>
</svg>
