<svg fill="none" xmlns="http://www.w3.org/2000/svg" viewBox="0 0 101 115">
  <g clip-path="url(#a)">
    <path d="m33.6 74.7.3 1.6 1.5 1 11.5 7 1.3.9 1.5-.3 38.1-7.4a12 12 0 0 0 4.5-1.8l.4-.3 1.1-.8.4-1.2 1.8-5.2.2-.6V7.2l-3.8-.3-42-2.8h-1.1l-1 .4-11.8 6-3.2 1.5 1.3 3.4.3.8c.2.5.3 1.1.2 1.7l-3 47.6c-.2 1.2 0 2.3.2 3.4l1.3 5.8Z" fill="#0F6EFD"/>
    <path d="m34.9 16.2-.3-.8-1.3-3.4 3.2-1.6 11.8-5.9 1-.5 1 .1L92.6 7l3.7.2v60.5l-.2.6-1.8 5.2-.4 1.3-1.1.7-.4.3a12 12 0 0 1-4.5 1.8l-38 7.4-1.6.3-1.3-.8-11.5-7.2-1.5-.9-.3-1.6-1.3-5.8a12 12 0 0 1-.3-3.4L35.1 18a4 4 0 0 0-.2-1.7Zm0 0 3.7-1.4" stroke="#fff" stroke-width="8"/>
    <path d="m5.6 99.7.3 1.6 1.5 1 11.5 7 1.3.9 1.5-.3 38.1-7.4a12 12 0 0 0 4.5-1.8l.4-.3 1.1-.8.4-1.2 1.8-5.2.2-.6V32l-3.8-.2-42-2.8h-1.1l-1 .4-11.8 5.9L5.3 37l1.3 3.4.3.8c.2.5.3 1.1.2 1.7l-3 47.6c-.1 1.1 0 2.3.2 3.4l1.3 5.8Z" fill="#0F6EFD"/>
    <path d="m19.4 114.4-17-10.6-2-9c-.3-1.5-.5-3-.4-4.5l3.2-47.7-1.5-3.7-1.5-3.8L20.5 25l51.7 3.4v64.8l-3 9-2.7 1.8a16 16 0 0 1-6 2.5l-41 8Zm-10-15.6L21 106l38-7.4c1.1-.2 2.1-.6 3-1.2l.5-.3 1.7-5.2V36L22 33.1 10.3 39l1.8 4.5-1 .4-3 46.9V93l1.4 5.8Z" fill="#fff"/>
  </g>
  <defs>
    <clipPath id="a">
      <path fill="#fff" d="M0 0h100.2v114.4H0z"/>
    </clipPath>
  </defs>
</svg>
