<svg fill="none" xmlns="http://www.w3.org/2000/svg" viewBox="0 0 140 100">
  <path fill-rule="evenodd" clip-rule="evenodd" d="m68.96 0 42.99 2.83v53.23l-2.65 7.88-2.26 1.54a15.83 15.83 0 0 1-5.9 2.45l-11.44 2.2v11.65l-2.65 7.88-2.26 1.54a15.83 15.83 0 0 1-5.9 2.45L45.9 100l-14.62-9.07-1.69-7.63a15.83 15.83 0 0 1-.34-4.45l2.45-37.29-2.71-7 17.71-8.84 6.6.44.65-10.32V7.11l15-7.11Zm-7.1 16.36-.68 10.32L89 30.5l.7 31.57 9.94-1.91a7.91 7.91 0 0 0 2.95-1.23l.06-.04 1.38-4.12V10.24l-33.45-2.2-7.88 3.52-.84 4.8ZM38.3 85.96l-.97-4.37a7.92 7.92 0 0 1-.17-2.23l2.45-37.28c.07-1.15-.1-2.3-.52-3.37l-.11-.29 9.35-4.66 4.44.3L80.5 37l1.28 26.6v16.89l-1.38 4.13-.06.03c-.89.6-1.9 1.03-2.95 1.23l-29.94 5.76-9.15-5.67Z" fill="#fff"/>
  <path fill-rule="evenodd" clip-rule="evenodd" d="m61.86 16.36-.68 10.32L89 30.5l.7 31.57 9.94-1.91a7.91 7.91 0 0 0 2.95-1.23l.06-.04 1.38-4.12V10.24l-33.45-2.2-7.88 3.52-.84 4.8Z" fill="#fff"/>
  <path d="m102.6 58.93.05-.04 1.38-4.12V10.24l-33.45-2.2-7.88 3.52-.84 4.8-.68 10.32L89 30.5l.7 31.57 9.94-1.91a7.91 7.91 0 0 0 2.95-1.23Z" fill="#0F6EFD"/>
  <path d="M64.26 26.88c3.56-4.09 7.08-8.2 10.59-12.34 1.49-1.76 2.54-3.93 1.95-6.1l-6.22-.4-7.88 3.52-.84 4.8-.68 10.32 3.08.2ZM83.65 29.76l5.35.74.4 18.27c5.45-.89 10.6-2.82 14.63-5.61V10.24l-13-.85a15.5 15.5 0 0 0-.47 3.22c-.12 1.8-.24 3.63-.64 5.38-.87 3.89-3.97 8.98-6.27 11.77ZM103.87 55.26c-1.4-2.17-3.97-3.36-7.25-3.22-2.55.11-5.05.66-7.1 1.64l.18 8.4 9.94-1.92a7.91 7.91 0 0 0 2.95-1.23l.06-.04 1.22-3.63Z" fill="#0E65E9"/>
  <path fill-rule="evenodd" clip-rule="evenodd" d="m38.3 85.97-.97-4.38a7.92 7.92 0 0 1-.17-2.23l2.45-37.28c.07-1.15-.1-2.3-.52-3.37l-.11-.29 9.35-4.66 4.44.3L80.5 37l1.28 26.6v16.89l-1.38 4.13-.06.03c-.89.6-1.9 1.03-2.95 1.23l-29.94 5.76-9.15-5.67Z" fill="#fff"/>
  <path d="m37.33 81.59.97 4.38 9.15 5.67 29.94-5.76a7.92 7.92 0 0 0 2.95-1.23l.06-.03 1.38-4.13v-16.9L80.5 37l-27.73-2.95-4.44-.29-9.35 4.66.11.3c.41 1.06.6 2.21.52 3.36l-2.45 37.28c-.05.75 0 1.5.17 2.23Z" fill="#0F6EFD"/>
  <path d="M81.06 48.57c-2.12-.34-3.52-.46-5.42-1.3-5.52-2.4-6.57-7.32-2.14-11.01l7 .74.56 11.57ZM81.68 61.45c-1.56 2.83-2.45 6.52.1 9.12V63.6l-.1-2.15ZM78.8 85.47c0-6.05-7.3-6.27-12.48-6.43-.79-.03-1.53-.05-2.19-.09-6.25-.4-8.74-3.04-8.92-9.25-.16-5.17-1.57-14.52-9.1-10.08-3.08 1.82-5.22 3.9-7.27 5.9l-.82.8-.86 13.04c-.05.75 0 1.5.17 2.23l.97 4.38 9.15 5.67 29.94-5.76c.48-.1.96-.23 1.42-.41ZM39.27 47.28c3.7.7 7.5-1.06 10.48-4.26 2.66-2.85 5.29-5.74 7.89-8.65l-4.87-.32-4.44-.29-9.35 4.66.11.3c.41 1.06.6 2.21.52 3.36l-.34 5.2Z" fill="#0E65E9"/>
</svg>
