<svg fill="none" xmlns="http://www.w3.org/2000/svg" viewBox="0 0 140 100">
  <g clip-path="url(#a)">
    <path d="m61.3 83.7-2.3 1-2.6-.7-5.4 1.5L18 78.4l-5-3.7-10.6-41 1.2-3 24-23.8L34 2.1 49 .7l24.5 8.9 1.1 2.4h3.7l1.8 7.7 5.4-1.2 15-2.6 8 1 26.7 26.6.1 4.2 1.3 2.6-13.1 36.2-4.8 4.5-31 8.3-3.3-1.9-6.2.3-17-14Z" fill="#fff"/>
    <path d="M36 38.3a30 30 0 0 0-14.8-6.9c-2.7-.6-5.3-1-8-1.3l-2 2 1.7 1.8 23 4.4Z" fill="#AC14F8"/>
    <path fill-rule="evenodd" clip-rule="evenodd" d="m39 42.3-26.6-6-1.7.5 6 24.3a25.6 25.6 0 0 1 2.5 9l2 1.5 19.2 4.1 1-4.5c1.3-6 2.1-11.9 1.3-17.9a30 30 0 0 0-3.7-11ZM28.6 65l-1.2 1.6-1.6.7-2.6-.8-1-2 .4-2.6 2-1.3 2.5.3 1.3 1.9.2 2.2Zm11.8-12.3 1-1.6v-2l-1-2-2.9-.4-1.9 1.3-.5 2.4.9 2.2 2.8.8 1.6-.7Z" fill="#AC14F8"/>
    <path d="M82.8 26.6 76.5 28l2.7 12 3 3a71.3 71.3 0 0 0 .6-16.3ZM81.7 46.3l-1.3-1.5h-.8l1.2 5.8 1-4.3ZM80.2 53 57.9 76.6l-1.7-.9c.9-2.2 1.7-4.4 2.4-6.7A71.9 71.9 0 0 0 63 48l1 1.6 2 .3 2-1 .8-2-.5-2.7-1.4-1.3h-2.5L63 44.5a34.1 34.1 0 0 0-2.4-13.4L71 19.5h1.7l7.5 31.9V53ZM125.1 48.9l1.8-.5 1.1 2-10.8 32-3 3-9.7 2.3 4.2-6.8.4.4 2.2.4 2.7-1.6.8-1.8-.5-1.3-1.6-.8-1.4.3A219.6 219.6 0 0 0 125.1 49ZM109.4 53.2l-12.2 3.4-3.5 5.6-3.5 13.5-4.6 14 3.3 1.8.5-.1a277.9 277.9 0 0 0 14.7-26l-2 1-2.7-.7-1.2-1.7.5-2 2-1.4 2.3-.6 2 1 .4 1.6c1.5-3 2.8-6.2 4-9.4ZM110.6 49.7l-13 4.1-3.4-.4 1.6-5 2.5-.1 1.3-1.6v-1.9l-1.4-1.6-.9-.2a81.6 81.6 0 0 0 2-13l1.3.6 2.7-.2 1.3-1.5v-1.6l-1.4-1.4-2.6-.4-1 .2.1-2.2 1.1-.2 4.5.6 10 9.4c-1.2 5.5-2.8 11-4.7 16.4ZM69.3 80.8l-6.2-5.1 1-2.7 9.1-9.9v.9l1 1.8 1.7.3a153 153 0 0 1-6.6 14.7ZM78.1 60l-.7-.8H77l2-1.9L78 60Z" fill="#AC14F8"/>
    <path fill-rule="evenodd" clip-rule="evenodd" d="m49.5 39.6 9.8-11.3a20 20 0 0 0-5.8-7.3 39.4 39.4 0 0 0-11.9-5.8h-.1l-2.4-.2-.4-.5a34.8 34.8 0 0 0-9-.6L13.2 30c2.7.3 5.3.7 8 1.3a30 30 0 0 1 14.7 6.9l11 2.1 2.6-.8ZM43 24l-2.6-.3-1.1-1.7-.1-1.5 1.7-1.4 3-.4 2.2 1.3.5 1.4-1.3 1.7-2.3 1Zm-1 9.5 2.5.5L47 33l1.5-1.7-.5-1.9-2-1.1-3.5.4-1.7 1.5-.1 1.6 1.3 1.6Z" fill="#9E12E4"/>
    <path d="M59.3 28.3 69 17l-.8-1.7-20-7.3-2.4.1-10 .5-4 3-2 2.2h.8c2.7-.2 5.4 0 8.1.6l-.8-.9v-1.4l2-1.4 2.6-.4 2 1.1.4 1.4-1.3 1.5-2 .8c4.3 1.2 8.3 3.2 12 5.8a20 20 0 0 1 5.7 7.3Z" fill="#AC14F8"/>
    <path d="M60.6 31.1 52 41l-2.3 4.9L56 75.6c1-2.2 1.8-4.4 2.5-6.7A71.9 71.9 0 0 0 63 48l-.3-.4V45l.4-.5a34.1 34.1 0 0 0-2.4-13.4ZM46.5 46.9 45 43.6 39 42.3l.2.4c1.9 3.2 3 6.9 3.5 10.6.8 6 0 12-1.2 17.9l-1.1 4.5L50.8 78l3.4-1L46.5 47ZM93.2 53.3l1 .1 1.6-5-.7.1-2.1-.9-.7-1.5v-1.4l1-1.3 2.2-.8 1.8.4a81.6 81.6 0 0 0 2-13l-.6-.3-.6-1.3V27L99 26l.6-.2.1-2.2L87 25.7l-4.2 1a65.3 65.3 0 0 1-.5 16.2l10.9 10.4ZM91.5 60.9l.6-2.2-.7-2.4-9.7-10a90 90 0 0 1-.9 4.3l.7 3.5-.4 1.2-2.1 2L78 60l.5.7.4 2.7-1 2.1-2 .7a153 153 0 0 1-6.7 14.6l8.7 7.1a203.5 203.5 0 0 0 13.5-27Z" fill="#9E12E4"/>
    <path fill-rule="evenodd" clip-rule="evenodd" d="m80.4 44.8 1.3 1.5a90 90 0 0 1-.9 4.3L79.6 45h.8ZM77 59.2l2-1.9L78 60l-.7-.8H77Zm-2 9.2c-1.7 4.2-3.6 8.3-5.7 12.4l-6.2-5.1 1-2.7 9.1-9.9v.9l1 1.8 1.7.3-.9 2.3Z" fill="#AC14F8"/>
    <path d="m82.7 90.2 8.8-29.3-1.9 4.4C86.3 73 82.3 80.6 78 87.9l2.9 2.3h1.8Z" fill="#AC14F8"/>
    <path d="m123.7 45.6 3-1.6-11.4-10.7c-1.2 5.5-2.8 11-4.7 16.4l13.1-4.1Z" fill="#9E12E4"/>
    <path fill-rule="evenodd" clip-rule="evenodd" d="m89.4 91.4 15-3.7c1.5-2.2 3-4.5 4.3-6.8l-.5-.7.6-1.9 1.6-1.5 1-.3A219.6 219.6 0 0 0 125 49l-15.7 4.3c-1.2 3.2-2.5 6.4-4 9.4l-.2 2.3-1.1.5-1 2c-4.3 8.2-8.7 16.3-13.7 24Zm16.3-22.1 2-.7 2.2.8.8 1.5-1.1 2.3-2.6 1.5-2.4-.4-1.2-1.4.6-2 1.7-1.6Z" fill="#9E12E4"/>
    <path fill-rule="evenodd" clip-rule="evenodd" d="M21.2 31.4a30 30 0 0 1 14.7 6.9l-23-4.4-1.7-1.8 2-2c2.7.3 5.3.7 8 1.3ZM45.8 8.2l2.2-.1h.1l-2.3.1Zm12.1 68.3 22.3-23.4v-1.7l-7.6-32-1.7.1-10.3 11.6.7 1.9c1.3 3.7 1.7 7.6 1.7 11.5l1.3-1.6h2.5l1.4 1.3.5 2.7-.7 2-2 1-2-.3-1.1-1.6v1.6c-.4 6.7-2.2 13-4.3 19.3-.7 2.3-1.5 4.5-2.4 6.7l1.7 1ZM12.4 36.3l26.6 6 .2.4c1.9 3.2 3 6.9 3.5 10.6.8 6 0 12-1.2 17.9l-1.1 4.5L21 71.6 19.2 70a28 28 0 0 0-2.5-9l-6-24.3 1.7-.5Zm76.5 55.2.5-.1a277.9 277.9 0 0 0 14.7-26l-2 1-2.7-.7-1.2-1.7.5-2 2-1.4 2.3-.6 2 1 .4 1.6c1.5-3 2.8-6.2 4-9.4l-12.2 3.4-3.5 5.6-3.5 13.5-4.6 14 3.3 1.8Zm25.2-6.1-9.6 2.3 4.2-6.8.4.4 2.2.4 2.7-1.6.8-1.8-.5-1.3-1.6-.8-1.4.3A219.6 219.6 0 0 0 125.1 49l1.8-.5 1.1 2-10.8 32-3 3Zm-3.5-35.7-13 4.1-3.4-.4 1.6-5 2.5-.1 1.3-1.6v-1.9l-1.4-1.6-.9-.2a81.6 81.6 0 0 0 2-13l1.3.6 2.7-.2 1.3-1.5v-1.6l-1.4-1.4-2.6-.4-1 .2.1-2.2 1.1-.2 4.5.6 10 9.4c-1.2 5.5-2.8 11-4.7 16.4Zm-28.3-6.8a71.3 71.3 0 0 0 .5-16.3L76.5 28l2.7 12 3 3ZM27.4 66.6l1.2-1.6-.2-2.2-1.3-1.9-2.6-.3-1.9 1.3-.3 2.6 1 2 2.5.8 1.6-.7Zm14-15.5-1 1.6-1.6.7-2.8-.8-1-2.2.6-2.4 2-1.3 2.8.4 1 2v2Z" fill="#AC14F8"/>
    <path d="m18.8 69.7.4.4a28 28 0 0 0-2.5-9l2.1 8.6Z" fill="#9E12E4"/>
  </g>
</svg>
