<svg fill="none" xmlns="http://www.w3.org/2000/svg" viewBox="0 0 140 100">
  <path fill-rule="evenodd" clip-rule="evenodd" d="m73.08 20.13-1.22-1.22-21.34 22.57L49.3 44l4.87 29.8L56 76.24l22.85-21.96v-4.27l-5.77-29.88Zm3.52 7.93 2.25 12.72 13.75 13.5 3.66.27 27.45-7.59 2.44-1.22-20.74-20.73-2.99-1.83-20.19 3.05-5.63 1.83ZM91.78 45.3v1.42l.54 1.43 2.29 1.1 3.1-.24 1.41-1.5V45.8l-1.27-1.63-2.64-.86-2.4.68-1.03 1.32ZM104.69 30v-1.57l-1.16-1.5-2.55-.56-2.04.4-.94 1.2v1.3l.49 1.3 2.09 1.02 2.82-.23 1.3-1.37Zm29.71 19.8 3.36-3.1-27.79-27.5-6-3.67-23.43 3.54-.2.06-.5-2.6-5-5-1.02-2.58L50.66 0H35.61l-7.23 4.52L1.74 30.7l1.55 4.18 7.58 35.84 5.38 5.38 36.48 9.49.65-.66 1.73 2.31 4.4-4.23L76.1 97.6h5.33l3.8 2.28 29.32-6.43 7.33-5.24 13.25-36.25-.72-2.15Zm-7.03 2.03-.61-1.83-30.5 7.32-3.66 5.5-9.15 27.44 3.05 1.83 25-5.49 4.28-3.05 11.59-31.72Zm-30.58 13.3.92 1.35 2.5.65 3.09-1.53 1.12-2.02-.45-1.53-1.8-1.08-2.6.47-1.93 1.6-.85 2.1Zm10.13 4.5-2.5.6-1.78 1.64-.74 2.03.94 1.22 2.44.47 2.91-1.63 1-1.99-.5-1.42-1.77-.92Zm.17 9.72-.7 1.86.86 1.13 2.24.45 2.7-1.48.92-1.83-.44-1.3-1.63-.87-2.3.54-1.65 1.5ZM90.77 60.99v-4.27L79.79 45.13h-.6l1.46 9.42-.25.95-4.2 3.78.16-.02 1.45 1.62-.18 2.98-.71 1.6-2.16.68-1.46-.21-1.26-2.3v-.5l-8.72 8.23-1.83 3.66 17.36 15.25h1.8l10.12-29.28ZM50.52 77.46l1.82-1.83-6.7-30.5-1.83-3.05-31.11-7.92-1.83 1.22 6.7 31.71 2.45 2.44 30.5 7.93ZM39.95 45.92l-2.8-.5-1.93 1.28-.63 2.21.58 2.57 2.97.7 1.7-.66 1.1-1.58-.05-2.06-.94-1.96ZM21.8 60.12l-.63 2.2.58 2.57 2.97.71 1.7-.66 1.1-1.59-.04-2.05-.95-1.96-2.8-.5-1.93 1.28ZM10.87 30.5l3.66 1.83 31.1 7.32 3.67-1.22 20.12-20.74-1.22-3.05-18.9-7.32H37.7l-4.87 3.05L10.87 30.5Zm37.65.01-.36-1.6-2.07-1.52-3.44.26-1.8 1.47-.15 1.59 1.26 1.67 2.6.53 2.38-.78 1.58-1.62Zm-7.74-7.94 2.55.37 2.26-.86 1.44-1.6-.41-1.49-2.09-1.34-3.31.42-1.67 1.48-.07 1.5 1.3 1.52ZM43.31 9.4l-3.06.37-1.54 1.35-.07 1.38 1.18 1.4 2.34.36 2.1-.77 1.33-1.47-.38-1.37-1.9-1.25Zm18.8 37.56 1.26 2.31 1.46.21 2.15-.69.72-1.58.18-2.99-1.45-1.62-2.82.3-1.51 1.77v2.3Z" fill="#fff"/>
  <path d="m76.8 58.74-.6.54.16-.02.18.2.26-.72Z" fill="#9E12E4"/>
  <path fill-rule="evenodd" clip-rule="evenodd" d="m49.3 38.43 9.68-9.98c-1.37-3.13-3.27-6.21-5.81-8.15a39.24 39.24 0 0 0-11.8-6.16l-1.55-.24-.24-.28a34.94 34.94 0 0 0-9.02-1.18L13.42 28.16c2.4.32 4.78.79 7.13 1.45 5.75 1.62 10.9 3.43 14.7 7.6l10.38 2.44 3.66-1.22ZM54.32 74l-.16-.2L49.3 44l1.22-2.53 9.6-10.15.4 1.22c1.71 5.45 1.4 11.07.94 16.62-.53 6.6-2.52 12.9-4.8 19.06-.73 1.95-1.5 3.88-2.32 5.78ZM43.8 42.1l1.83 3.05 6.71 30.5-1.83 1.82-12.24-3.18a83 83 0 0 0 1.17-4.36c1.41-5.84 2.48-11.72 1.85-17.76-.09-.86-.21-1.73-.37-2.59l-.03-1.7-.73-1.52a27.83 27.83 0 0 0-2.48-5.82l6.12 1.56ZM86.5 92.1l14.96-3.28c1.7-2.48 3.39-4.96 5.03-7.47l-.1-.13.7-1.86 1.63-1.48a219.77 219.77 0 0 0 14.7-27.07l-15.82 3.8c-1.1 2.64-2.28 5.24-3.54 7.78l.35 1.2-1.12 2.03-1.2.59-1.13 2.06c-4.56 8.1-9.3 16.1-14.66 23.7l.2.13Zm38.92-46-1.72.87-14.66 4.05a150 150 0 0 0 5.4-16.98l11.29 11.29-.31.78Zm-32.87 8.14L81.09 42.98l.05-.31c.92-5.47 1.44-10.95.95-16.4l.14-.04 16.93-2.56c-.06 1.04-.14 2.08-.24 3.14L98 27.98v1.3l.5 1.3.03.02c-.12 1-.26 2.02-.4 3.05a81.21 81.21 0 0 1-2.05 9.94l-.86-.28-2.4.68-1.03 1.32v1.42l.53 1.43 2.07 1c-.57 1.7-1.18 3.4-1.83 5.08Zm-49.23-31.3-2.54-.37-1.3-1.52.07-1.5 1.66-1.47 3.32-.43 2.08 1.34.42 1.49-1.44 1.6-2.27.86Zm-1.36 9.44 2.6.53 2.38-.78 1.57-1.62-.35-1.59-2.07-1.53-3.44.26-1.8 1.47-.15 1.59 1.26 1.67Zm62.46 37.86 2.5-.6 1.77.92.5 1.42-1 2-2.92 1.62-2.43-.47-.94-1.22.74-2.03 1.78-1.64Z" fill="#9E12E4"/>
  <path d="m76.8 58.74-.6.54.16-.02.18.2.26-.72Z" fill="#AC14F8"/>
  <path fill-rule="evenodd" clip-rule="evenodd" d="m56 76.24 22.06-21.2.79-2.57v-2.45l-5.77-29.9-1.22-1.21-11.75 12.42.4 1.22c1.71 5.45 1.4 11.07.94 16.62-.53 6.6-2.52 12.9-4.8 19.06-.73 1.95-1.5 3.88-2.32 5.78L56 76.24ZM66.98 48.8l.72-1.6.18-2.98-1.46-1.61-2.82.3-1.5 1.76v2.3l1.27 2.3 1.46.21 2.15-.68Z" fill="#AC14F8"/>
  <path d="m58.98 28.45 10.44-10.76-1.22-3.05-18.9-7.32H37.7l-4.88 3.05-2.26 2.07c3.06 0 6.09.4 9.02 1.18l-.95-1.12.08-1.38 1.54-1.35 3.05-.37 1.91 1.25.38 1.37-1.34 1.47-2.1.77-.78-.12a39.24 39.24 0 0 1 11.8 6.16c2.54 1.94 4.44 5.02 5.8 8.15Z" fill="#AC14F8"/>
  <path fill-rule="evenodd" clip-rule="evenodd" d="m76.2 59.28.6-.54-.26.73-.18-.2h-.16Z" fill="#AC14F8"/>
  <path d="m78.85 40.78 2.24 2.2.05-.31c.92-5.47 1.44-10.95.95-16.4l-5.5 1.79 2.26 12.72ZM80.52 45.9l-.73-.76h-.61l.6 3.9c.27-1.05.52-2.1.74-3.13ZM72.03 63.13l-8.7 8.23-1.84 3.66L67.15 80a150.58 150.58 0 0 0 6.81-13.98l-.66-.1-1.27-2.3v-.49ZM107.6 54.61l-11.34 2.72-3.66 5.5-9.15 27.44 2.85 1.7a274.59 274.59 0 0 0 15.8-25.76l-1.9.94-2.5-.66-.91-1.34.85-2.09 1.92-1.6 2.61-.48 1.8 1.08.1.33c1.25-2.54 2.43-5.14 3.53-7.78ZM96.26 54.55l12.78-3.53a150 150 0 0 0 5.4-16.98L105.4 25l-2.99-1.83-3.26.5c-.06 1.03-.14 2.07-.24 3.13l.02-.03 2.04-.4 2.55.57 1.16 1.49V30l-1.3 1.36-2.82.23-2.05-1c-.12 1-.26 2.02-.4 3.05a81.21 81.21 0 0 1-2.05 9.94l1.77.58 1.28 1.63v1.72l-1.42 1.5-3.1.25-.22-.11c-.57 1.7-1.18 3.4-1.83 5.08l.05.04 3.66.27ZM101.46 88.82l10.05-2.2 4.27-3.06 11.58-31.72-.6-1.82-3.34.8a219.77 219.77 0 0 1-14.7 27.07l.02-.03 2.3-.54 1.63.86.44 1.32-.93 1.82-2.7 1.48-2.23-.45-.76-1c-1.64 2.5-3.32 5-5.03 7.47Z" fill="#AC14F8"/>
  <path fill-rule="evenodd" clip-rule="evenodd" d="m20.02 69.53 18.25 4.75a83 83 0 0 0 1.17-4.36c1.41-5.84 2.48-11.72 1.85-17.76-.09-.86-.21-1.73-.37-2.59v.37l-1.08 1.59-1.7.65-2.98-.7-.58-2.57.63-2.2 1.94-1.29 2.8.5.2.43a27.83 27.83 0 0 0-2.47-5.82L12.7 34.16l-1.83 1.22 6.7 31.71 2.45 2.44Zm6.4-4.59 1.1-1.59-.05-2.05-.94-1.96-2.8-.5-1.93 1.28-.63 2.21.57 2.57 2.98.7 1.7-.66Z" fill="#AC14F8"/>
  <path d="m13.42 28.16-2.55 2.34 3.66 1.83 20.73 4.88c-3.8-4.17-8.96-5.98-14.71-7.6a52.1 52.1 0 0 0-7.13-1.45Z" fill="#AC14F8"/>
  <path fill-rule="evenodd" clip-rule="evenodd" d="M90.77 58.65c-1 2.34-2.04 4.67-3.12 7A201.51 201.51 0 0 1 75.6 87.41L67.15 80a150.58 150.58 0 0 0 6.81-13.98l.8.12 2.15-.69.72-1.59.18-2.98-1.45-1.62-.16.02 4.2-3.78.25-.95-.86-5.52c.26-1.04.5-2.08.73-3.12l10.25 10.81v1.93Z" fill="#9E12E4"/>
  <path d="m80.65 90.27 10.12-29.28v-2.34c-1 2.34-2.04 4.67-3.12 7A201.51 201.51 0 0 1 75.6 87.41l3.25 2.85h1.8Z" fill="#AC14F8"/>
</svg>
