<svg fill="none" xmlns="http://www.w3.org/2000/svg" viewBox="0 0 70 62">
  <path d="m63 52 1.6-.6-.2-1.6-1.7-13.6.9-8.4v-.1l.8-19 .1-2h-5.3l-.5.3-12.4 8.3h-.2l-8-9.7-.6-.7H32l-.5.7-8 9.7h-.2L10.9 7l-.5-.4H5.2V27.8l.9 8.5-.9 13.6v1.6l1.4.4L18 55.4h.4l16.4 1h.2l16.4-1h.5L63 51.9ZM50.7 32l2 1.3-2.4 3.4-1.7-2.1 2.1-2.6Zm-15.9.2 1 1-1 2.2-1-2.2 1-1Zm-13.7 2.4-1.7 2.1-2.5-3.4 2-1.3 2.2 2.6Z" fill="#FFCB63" stroke="#fff" stroke-width="4"/>
  <path fill-rule="evenodd" clip-rule="evenodd" d="m50.4 29.3 5.1 3.5-5.1 7.3-4.4-5.6 4.4-5.2Z" fill="#5B9DF6"/>
  <path d="m19.3 29.3-5.2 3.5 5.2 7.3 4.3-5.6-4.3-5.2Z" fill="#FF122A"/>
  <path d="m34.8 29.3 3.5 3.5-3.5 7.3-3.4-7.3 3.4-3.5Z" fill="#31C568"/>
  <mask id="a" style="mask-type:alpha" maskUnits="userSpaceOnUse" x="7" y="6" width="56" height="49">
    <path fill-rule="evenodd" clip-rule="evenodd" d="m62.4 50-1.7-13.8.9-8.6.8-19h-2.6L47 17.3h-1.7L36.6 6.9H33l-8.6 10.4h-1.7l-13-8.7H7.2v19l.9 8.6L7.2 50l11.2 3.5 16.4.8 16.4-.8L62.4 50Zm-12-20.7 5.1 3.5-5.1 7.3-4.4-5.6 4.4-5.2Zm-15.6 0 3.5 3.5-3.5 7.3-3.4-7.3 3.4-3.5Zm-15.5 0-5.2 3.5 5.2 7.3 4.3-5.6-4.3-5.2Z" fill="#FFCB63"/>
  </mask>
  <g style="mix-blend-mode:soft-light" opacity=".5" fill="#000" mask="url(#a)">
    <path d="M1.2 34.5c-20 .5-5-16-2.5-30 14.2-7 45.3-20.2 56.5-17 14 4 14 22 3 33s-19.5-10.5-25.5 0S21.2 34 1.2 34.5ZM48.7 32.5c5-3 12-1.5 19 0C72 35.2 80.4 42.4 81.2 50c1 9.5-14.5 4.5-27 3.5s-10.5-18-5.5-21ZM22.2 44.5c7.5 1.5 11.5 4 13.5 23a77 77 0 0 1-33 0c-18.5-4-6.5-14 0-20.5s12-4 19.5-2.5Z"/>
  </g>
</svg>
