<svg fill="none" xmlns="http://www.w3.org/2000/svg" viewBox="0 0 140 100">
  <path fill-rule="evenodd" clip-rule="evenodd" d="m58.68 5.56 55.37 35.68 6.32 6.32 2.13 10.62-2.66 3.98a16 16 0 0 1-6.16 5.44L57.71 96.11 42.77 91.4l-4.35-5.45a14.35 14.35 0 0 1-3.12-7.46l-.22-2.43v-.03c-.04-.5-.12-1.62-.07-2.51l2.97-49.31c.06-.9.19-1.8.4-2.69l3.04-13.01 17.26-2.95ZM43 74c-.03.47.11 2.23.26 3.65a6.35 6.35 0 0 0 1.4 3.3l2.84 3.55 9.5 3 53.08-27.05a8 8 0 0 0 3.1-2.73l.82-1.22-1-5-4-4-52.04-33.53L48 15.5l-1.84 7.85a8 8 0 0 0-.2 1.34L43 74Z" fill="#fff"/>
  <path d="m44.66 80.95 2.84 3.55 9.5 3 53.08-27.05a8 8 0 0 0 3.1-2.73l.82-1.22-1-5-4-4-52.04-33.53L48 15.5l-1.84 7.85a8 8 0 0 0-.2 1.34L43 74c-.03.47.11 2.23.26 3.65a6.35 6.35 0 0 0 1.4 3.3Z" fill="#FF122A"/>
  <path d="m43.1 72.2.12-1.89 1.9.38c.8.15 1.59.3 2.38.47l-.11.57-.1.58-3.51-.1h-.67ZM62 85l-2 1-12.5-1.5-2.3-2.87c1.23-.12 2.45-.22 3.67-.31 1.37-.1 3.04.43 4.22 1.05A25.86 25.86 0 0 0 62 85ZM113.63 54.63l.37 1.87-.81 1.22-.18.25c-1.95.1-3.9.28-5.85.46-1 .1-1.99.18-2.98.26-1.33.11-2.65.28-3.96.44l-1.85.23a24.6 24.6 0 0 0-.24-.57l1.59-.51c1.14-.37 2.28-.73 3.4-1.13.96-.34 1.9-.7 2.85-1.05 1.5-.56 3-1.13 4.53-1.63a4.56 4.56 0 0 1 2.34-.04l.79.2ZM84.21 31.53c-5.6.89-11.18 1.88-16.72 2.96-1.9.37-3.74.9-5.58 1.42l-2.52.7a31.6 31.6 0 0 0 .16.76c.26.04.54.1.8.16a6.26 6.26 0 0 0 2.43.15c2.86-.2 5.61-.41 8.06 1.47.55.43 2.2.15 3.54-.1l.69-.1c1.8-.3 3.6-.67 5.5-1.05l2.43-.49c-.23 2.85-1.98 4.29-4.39 5.1-1.96.65-3.97 1.22-5.98 1.8-2.6.74-5.2 1.48-7.69 2.4-2.36.87-4.58 1.96-6.8 3.05-1.33.66-2.66 1.31-4.03 1.92a25.9 25.9 0 0 1-5.95 1.83c2.8-1.95 2.7-4.33 2.39-6.7-.32-2.48-1.92-4.06-5.1-5.18l-.5-.17 1.02-16.77a8 8 0 0 1 .2-1.34l.33-1.43c.5-.15 1.02-.34 1.53-.55 1.5-.64 3.04-1.22 4.58-1.8 2.67-1 5.36-2.01 7.88-3.32l23.72 15.28ZM82.08 73.66c-.81.47-1.63.93-2.42.9-5.02-.15-9.66-1.42-14.37-2.71-1.27-.35-2.53-.7-3.81-1.02 1.21-.2 2.4-.46 3.58-.72 2.61-.57 5.13-1.11 7.55-.93 2.43.18 4.76 1.11 7.09 2.04 1.02.4 2.04.8 3.07 1.15l.28.46.15.24c-.37.17-.74.38-1.12.6ZM86.02 48.2ZM86.2 48.38l-.18-.18 2.9-.98c2.78-.94 5.57-1.89 8.42-2.73.68-.2 1.87.27 2.63.64.78.38 1.49.84 2.4 1.44.44.3.94.62 1.52.98l-17.51 1-.18-.17Z" fill="#EB1127"/>
</svg>
