<svg fill="none" xmlns="http://www.w3.org/2000/svg" viewBox="0 0 88 92">
  <g clip-path="url(#a)">
    <path d="M25 5.8 23 4.6l-2 1-11.8 5.7L6 12.8l1.2 3.4.3.8c.2.6.3 1.1.3 1.7L4 66.3c0 1.1 0 2.3.2 3.4l1.2 5.8.4 1.6 1.4 1 11.4 7.2 2 1.2 2-1L77 59.8l.3-.1.2-.2 1.8-1.1 1.2-.8.4-1.2 1.8-5.2.5-1.5-.6-1.4-3-7-.5-1.2-1-.6L25 5.8Z" fill="#FF122A"/>
    <path d="m20.2 91-18-11.4-1.9-9.1C0 69 0 67.5 0 66l3.8-47.6L1 10.8 23.4 0l59 37.3 5.1 12.2L83.8 60l-5 3.2-58.6 27.8ZM9.4 74.8 20.8 82 75.3 56l1.8-1.2 1.9-5.1-3-7L22.8 9 11 15l.3.7a8 8 0 0 1 .5 3.4L8 66.6c0 .8 0 1.5.2 2.3l1.2 5.8Z" fill="#fff"/>
  </g>
  <defs>
    <clipPath id="a">
      <path fill="#fff" d="M0 0h87.5v91.1H0z"/>
    </clipPath>
  </defs>
</svg>
