<svg fill="none" xmlns="http://www.w3.org/2000/svg" viewBox="0 0 140 100">
  <path d="M42.88 71.63a8 8 0 0 0 .18 2.25l1.27 5.78 11.52 7.15 54.2-26.56 1.78-1.2 1.74-5.2-3.09-6.96-53.52-32.92-11.77 5.87.3.76a8 8 0 0 1 .52 3.41l-3.13 47.62Z" fill="#FF122A"/>
  <path d="m42.87 72.2.01-.57.1-1.37 2.14.43c.8.15 1.59.3 2.38.47l-.11.57-.1.58a265.03 265.03 0 0 0-4.42-.11ZM60.42 84.57l-4.57 2.24-8.64-5.36c.55-.05 1.1-.1 1.66-.13 1.37-.1 3.04.43 4.22 1.05a20.84 20.84 0 0 0 7.33 2.2ZM113.33 54.56l-1.16 3.46c-1.67.1-3.34.26-5 .41-1 .1-2 .18-2.99.26-1.33.11-2.65.28-3.96.44l-1.85.23-.24-.57 1.59-.51c1.14-.37 2.28-.73 3.4-1.13.96-.34 1.9-.7 2.85-1.05 1.5-.56 3-1.13 4.53-1.63a4.56 4.56 0 0 1 2.83.09ZM85.24 31.37a485.78 485.78 0 0 0-17.75 3.13c-1.9.36-3.74.89-5.58 1.4-.84.25-1.68.48-2.52.7l.08.39.08.38c.26.04.54.1.8.16.59.12 1.17.25 1.73.2l.7-.05c2.86-.2 5.61-.41 8.06 1.47.55.43 2.2.15 3.54-.1l.69-.1c1.8-.3 3.6-.67 5.5-1.05l2.43-.49c-.23 2.85-1.98 4.29-4.39 5.1a142.1 142.1 0 0 1-5.98 1.8c-2.6.74-5.2 1.48-7.69 2.4-2.36.87-4.58 1.96-6.8 3.05-1.33.66-2.66 1.31-4.03 1.92a25.9 25.9 0 0 1-5.95 1.83c2.8-1.95 2.7-4.33 2.39-6.7-.32-2.48-1.92-4.06-5.1-5.18l-.58-.2L46 24a8 8 0 0 0-.1-1.92 16 16 0 0 0 2.12-.72c1.5-.64 3.04-1.22 4.58-1.8a71.77 71.77 0 0 0 7.97-3.37l24.66 15.17ZM82.08 73.66c-.81.47-1.63.93-2.42.9-5.02-.15-9.66-1.42-14.37-2.71-1.27-.35-2.53-.7-3.81-1.02 1.21-.2 2.4-.46 3.58-.72 2.61-.57 5.13-1.11 7.55-.93 2.43.18 4.76 1.11 7.08 2.04 1.03.4 2.05.8 3.08 1.15l.28.46.15.24c-.37.17-.74.38-1.12.6ZM86.02 48.2ZM86.2 48.38l-.18-.18 2.9-.98c2.78-.94 5.57-1.89 8.42-2.73.68-.2 1.87.27 2.63.64.78.38 1.49.84 2.4 1.44.44.3.94.62 1.52.98l-17.51 1-.18-.17Z" fill="#EB1127"/>
  <path fill-rule="evenodd" clip-rule="evenodd" d="m57.36 4.83 59.43 36.55 5.36 12.07-3.6 10.7-4.46 3.03-58.7 28.76-18.14-11.26-2-9.07a16 16 0 0 1-.35-4.5l3.12-47.62-2.92-7.56 22.26-11.1Zm52.7 55.42-54.2 26.56-11.53-7.15-1.27-5.78a8 8 0 0 1-.18-2.25l3.13-47.62a8 8 0 0 0-.52-3.4l-.3-.77 11.77-5.87 53.52 32.92 3.1 6.96-1.75 5.2-1.77 1.2Z" fill="#fff"/>
</svg>
