<svg width="55" height="55" viewBox="0 0 55 55" fill="none" xmlns="http://www.w3.org/2000/svg">
<mask id="path-1-outside-1_447_373" maskUnits="userSpaceOnUse" x="-0.599976" y="-0.599976" width="56" height="56" fill="black">
<rect fill="white" x="-0.599976" y="-0.599976" width="56" height="56"/>
<path fill-rule="evenodd" clip-rule="evenodd" d="M6.01936 43.8796L2.40002 26.9L5.91995 12.5573L11.4484 5.56688L28.265 2.40002L41.2068 4.64003L51.5619 16.47L52.8 24.1072L52.4667 28.72L47.0377 46.1616L28.5391 52.8L10.557 46.82L6.01936 43.8796ZM40.7261 12.9181L32.9436 8.27828L17.1822 9.40002C17.1822 9.40002 13.1347 12.8295 12.289 14.2238C11.7901 15.0464 32.9436 26.2 32.9436 26.2L45.3377 33.9L46.0416 24.1V19.2L40.7261 12.9181ZM11.4135 38.895L8.7355 26.9L10.0406 21.4971L19.9977 26.2L32.9436 35.3L42.0816 40.6382L36.6761 44.6222L28.5391 45.8L15.7265 41.5769L13.1293 39.8592L12.2 39.3406L11.4135 38.895Z"/>
</mask>
<path fill-rule="evenodd" clip-rule="evenodd" d="M6.01936 43.8796L2.40002 26.9L5.91995 12.5573L11.4484 5.56688L28.265 2.40002L41.2068 4.64003L51.5619 16.47L52.8 24.1072L52.4667 28.72L47.0377 46.1616L28.5391 52.8L10.557 46.82L6.01936 43.8796ZM40.7261 12.9181L32.9436 8.27828L17.1822 9.40002C17.1822 9.40002 13.1347 12.8295 12.289 14.2238C11.7901 15.0464 32.9436 26.2 32.9436 26.2L45.3377 33.9L46.0416 24.1V19.2L40.7261 12.9181ZM11.4135 38.895L8.7355 26.9L10.0406 21.4971L19.9977 26.2L32.9436 35.3L42.0816 40.6382L36.6761 44.6222L28.5391 45.8L15.7265 41.5769L13.1293 39.8592L12.2 39.3406L11.4135 38.895Z" fill="#FF122A"/>
<path d="M40.7261 12.9181L42.2528 11.6263L42.0371 11.3713L41.7502 11.2003L40.7261 12.9181ZM32.9436 8.27828L33.9677 6.56041L33.4282 6.23873L32.8016 6.28332L32.9436 8.27828ZM17.1822 9.40002L17.0402 7.40507L16.3881 7.45148L15.8893 7.87412L17.1822 9.40002ZM8.7355 26.9L6.79142 26.4304L6.68229 26.8822L6.78356 27.3358L8.7355 26.9ZM11.4135 38.895L9.46151 39.3308L9.65499 40.1974L10.4276 40.6351L11.4135 38.895ZM12.2 39.3406L11.2141 41.0808L11.2255 41.0871L12.2 39.3406ZM13.1293 39.8592L14.2326 38.191L14.1697 38.1494L14.1038 38.1126L13.1293 39.8592ZM15.7265 41.5769L14.6232 43.2451L14.8463 43.3926L15.1004 43.4764L15.7265 41.5769ZM28.5391 45.8L27.9131 47.6995L28.36 47.8468L28.8257 47.7794L28.5391 45.8ZM36.6761 44.6222L36.9627 46.6016L37.459 46.5297L37.8627 46.2322L36.6761 44.6222ZM42.0816 40.6382L43.2682 42.2482L45.7153 40.4447L43.0905 38.9113L42.0816 40.6382ZM45.3377 33.9L44.2823 35.5989L47.0953 37.3465L47.3326 34.0433L45.3377 33.9ZM46.0416 24.1L48.0365 24.2433L48.0416 24.1718V24.1H46.0416ZM46.0416 19.2H48.0416V18.4674L47.5684 17.9081L46.0416 19.2ZM2.40002 26.9L0.457662 26.4233L0.348392 26.8686L0.443969 27.317L2.40002 26.9ZM6.01936 43.8796L4.0633 44.2966L4.23611 45.1073L4.93175 45.5581L6.01936 43.8796ZM11.4484 5.56688L11.0782 3.60142L10.3435 3.7398L9.87965 4.32625L11.4484 5.56688ZM28.265 2.40002L28.6061 0.429325L28.25 0.367693L27.8949 0.434571L28.265 2.40002ZM41.2068 4.64003L42.7117 3.32274L42.2454 2.79006L41.5479 2.66933L41.2068 4.64003ZM51.5619 16.47L53.5362 16.15L53.4444 15.5841L53.0668 15.1527L51.5619 16.47ZM52.8 24.1072L54.7948 24.2513L54.8117 24.018L54.7742 23.7872L52.8 24.1072ZM52.4667 28.72L54.3763 29.3144L54.4449 29.0942L54.4615 28.8642L52.4667 28.72ZM47.0377 46.1616L47.7132 48.0441L48.6512 47.7075L48.9473 46.756L47.0377 46.1616ZM28.5391 52.8L27.908 54.6978L28.564 54.916L29.2147 54.6825L28.5391 52.8ZM10.557 46.82L9.46942 48.4984L9.68366 48.6373L9.9259 48.7178L10.557 46.82ZM12.289 14.2238L10.5789 13.1867L10.5789 13.1867L12.289 14.2238ZM10.0406 21.4971L10.8947 19.6887L8.67333 18.6394L8.0965 21.0275L10.0406 21.4971ZM5.91995 12.5573L4.35124 11.3167L4.08131 11.658L3.97759 12.0806L5.91995 12.5573ZM32.9436 26.2L33.999 24.5012L33.9389 24.4639L33.8764 24.4309L32.9436 26.2ZM19.9977 26.2L21.1479 24.5638L21.0073 24.465L20.8519 24.3916L19.9977 26.2ZM32.9436 35.3L31.7934 36.9362L31.8622 36.9846L31.9347 37.027L32.9436 35.3ZM41.7502 11.2003L33.9677 6.56041L31.9194 9.99614L39.7019 14.636L41.7502 11.2003ZM32.8016 6.28332L17.0402 7.40507L17.3241 11.395L33.0855 10.2732L32.8016 6.28332ZM6.78356 27.3358L9.46151 39.3308L13.3654 38.4592L10.6875 26.4642L6.78356 27.3358ZM10.4276 40.6351L11.2141 41.0807L13.1859 37.6005L12.3993 37.1549L10.4276 40.6351ZM11.2255 41.0871L12.1548 41.6057L14.1038 38.1126L13.1745 37.5941L11.2255 41.0871ZM12.026 41.5273L14.6232 43.2451L16.8298 39.9088L14.2326 38.191L12.026 41.5273ZM15.1004 43.4764L27.9131 47.6995L29.1652 43.9005L16.3526 39.6774L15.1004 43.4764ZM28.8257 47.7794L36.9627 46.6016L36.3896 42.6428L28.2526 43.8207L28.8257 47.7794ZM37.8627 46.2322L43.2682 42.2482L40.8951 39.0283L35.4896 43.0122L37.8627 46.2322ZM47.3326 34.0433L48.0365 24.2433L44.0467 23.9567L43.3428 33.7567L47.3326 34.0433ZM48.0416 24.1V19.2H44.0416V24.1H48.0416ZM47.5684 17.9081L42.2528 11.6263L39.1993 14.21L44.5148 20.4919L47.5684 17.9081ZM0.443969 27.317L4.0633 44.2966L7.97541 43.4627L4.35608 26.4831L0.443969 27.317ZM27.8949 0.434571L11.0782 3.60142L11.8185 7.53233L28.6351 4.36548L27.8949 0.434571ZM41.5479 2.66933L28.6061 0.429325L27.9239 4.37072L40.8657 6.61073L41.5479 2.66933ZM53.0668 15.1527L42.7117 3.32274L39.7019 5.95732L50.057 17.7873L53.0668 15.1527ZM54.7742 23.7872L53.5362 16.15L49.5877 16.7901L50.8258 24.4273L54.7742 23.7872ZM54.4615 28.8642L54.7948 24.2513L50.8052 23.9631L50.4719 28.5759L54.4615 28.8642ZM48.9473 46.756L54.3763 29.3144L50.5571 28.1256L45.1281 45.5672L48.9473 46.756ZM29.2147 54.6825L47.7132 48.0441L46.3622 44.2792L27.8636 50.9176L29.2147 54.6825ZM9.9259 48.7178L27.908 54.6978L29.1703 50.9022L11.1882 44.9222L9.9259 48.7178ZM4.93175 45.5581L9.46942 48.4984L11.6446 45.1416L7.10697 42.2012L4.93175 45.5581ZM17.1822 9.40002C15.8893 7.87412 15.8892 7.87419 15.8891 7.87428C15.889 7.87433 15.8889 7.87443 15.8888 7.87452C15.8886 7.87471 15.8883 7.87495 15.8879 7.87524C15.8873 7.87582 15.8863 7.87661 15.8851 7.87761C15.8828 7.8796 15.8795 7.88241 15.8752 7.88602C15.8667 7.89325 15.8545 7.90368 15.8387 7.91714C15.8071 7.94407 15.7614 7.98315 15.7033 8.03305C15.5872 8.13282 15.4214 8.27605 15.2201 8.45197C14.8185 8.80311 14.272 9.28789 13.6961 9.81946C13.1231 10.3484 12.5062 10.9374 11.9696 11.4946C11.4688 12.0148 10.9166 12.6299 10.5789 13.1867L13.999 15.261C14.0842 15.1206 14.3551 14.7841 14.851 14.2691C15.3112 13.7912 15.8647 13.2613 16.4093 12.7586C16.951 12.2585 17.4692 11.7988 17.8529 11.4634C18.0444 11.296 18.2014 11.1604 18.3099 11.0672C18.3641 11.0206 18.4062 10.9846 18.4343 10.9606C18.4484 10.9486 18.459 10.9396 18.4658 10.9338C18.4693 10.9309 18.4718 10.9287 18.4733 10.9274C18.4741 10.9268 18.4746 10.9263 18.4749 10.9261C18.4751 10.9259 18.4752 10.9259 18.4752 10.9258C18.4752 10.9258 18.4752 10.9259 18.4752 10.9258C18.4751 10.9259 18.4751 10.9259 17.1822 9.40002ZM8.0965 21.0275L6.79142 26.4304L10.6796 27.3696L11.9847 21.9667L8.0965 21.0275ZM9.87965 4.32625L4.35124 11.3167L7.48866 13.7979L13.0171 6.8075L9.87965 4.32625ZM3.97759 12.0806L0.457662 26.4233L4.34239 27.3767L7.86231 13.034L3.97759 12.0806ZM10.5789 13.1867C9.9663 14.1967 10.4605 15.1318 10.5604 15.3097C10.7207 15.5953 10.9195 15.8036 11.0282 15.9117C11.2701 16.1524 11.575 16.3882 11.8614 16.5953C12.4596 17.0278 13.3011 17.5648 14.2679 18.1517C16.2166 19.3347 18.8428 20.8219 21.461 22.2704C24.0846 23.7219 26.7217 25.1464 28.7015 26.2073C29.6917 26.7379 30.5184 27.178 31.0977 27.4856C31.3874 27.6394 31.6153 27.7601 31.7709 27.8425C31.8487 27.8836 31.9085 27.9152 31.9489 27.9365C31.9691 27.9472 31.9845 27.9553 31.9948 27.9608C32 27.9635 32.0039 27.9656 32.0066 27.967C32.0079 27.9677 32.0089 27.9682 32.0096 27.9686C32.01 27.9688 32.0102 27.9689 32.0104 27.969C32.0106 27.9691 32.0107 27.9692 32.9436 26.2C33.8764 24.4309 33.8763 24.4309 33.8762 24.4308C33.8761 24.4307 33.8758 24.4306 33.8755 24.4305C33.875 24.4301 33.874 24.4297 33.8728 24.429C33.8703 24.4277 33.8666 24.4257 33.8616 24.4231C33.8516 24.4178 33.8367 24.4099 33.8169 24.3995C33.7772 24.3786 33.7183 24.3474 33.6413 24.3067C33.4873 24.2252 33.2612 24.1055 32.9735 23.9527C32.3979 23.6471 31.5759 23.2094 30.5908 22.6816C28.6198 21.6254 25.9997 20.2101 23.3974 18.7703C20.7896 17.3276 18.2209 15.8721 16.3437 14.7325C15.3975 14.1581 14.6682 13.6887 14.2051 13.3539C14.0925 13.2725 14.0053 13.2059 13.9405 13.1536C13.8723 13.0985 13.8471 13.0738 13.8493 13.076C13.8513 13.078 13.8711 13.0977 13.9006 13.1335C13.9272 13.1657 13.9857 13.2399 14.0482 13.3514C14.0973 13.4388 14.5805 14.3023 13.999 15.261L10.5789 13.1867ZM31.8881 27.8989L44.2823 35.5989L46.3931 32.2012L33.999 24.5012L31.8881 27.8989ZM20.8519 24.3916L10.8947 19.6887L9.18643 23.3055L19.1436 28.0085L20.8519 24.3916ZM43.0905 38.9113L33.9524 33.5731L31.9347 37.027L41.0728 42.3652L43.0905 38.9113ZM34.0937 33.6638L21.1479 24.5638L18.8476 27.8362L31.7934 36.9362L34.0937 33.6638Z" fill="white" mask="url(#path-1-outside-1_447_373)"/>
</svg>
