<svg width="69" height="66" viewBox="0 0 69 66" fill="none" xmlns="http://www.w3.org/2000/svg">
<path d="M7.48579 13.0042L36.8443 0.653809L58.8197 13.3413L68.139 40.9498L47.2018 63.2141L21.5778 65.5962L0.508789 44.3387L7.48579 13.0042Z" fill="white"/>
<path fill-rule="evenodd" clip-rule="evenodd" d="M37.6668 18.1335L46.0668 19.0668L47.9334 25.6001V34.9335L49.8001 35.8668V40.5335L48.8668 45.2001L44.6149 46.9323L47.4149 50.6656L45.5482 52.5323L44.6149 49.7323L20.8668 49.8668L19.0001 52.6668L18.0668 50.8001L21.8001 47.0668H19.0001L17.1334 43.3335L16.2001 37.7335L18.0668 36.8001L19.0001 26.5335V20.9335L25.5334 19.0668L30.4311 18.5181L30.0121 17.809L21.568 12.4268L25.5334 12.0722L31.5205 16.2745H33.1964L36.6191 12.4268L41.1313 12.6523L34.2764 17.5834V18.5181L37.6668 18.1335ZM44.2001 26.5335L43.2668 24.6668L26.4668 23.7335L22.7334 25.6001V33.0668L23.6668 34.9335L31.1334 34.0001H43.2668L44.2001 26.5335ZM43.6816 47.8656L42.7482 46.9323L27.4001 46.1335L23.6668 47.0668L21.8001 48.9335L43.6816 47.8656ZM42.5408 38.2218L44.6149 39.2664V41.3555L42.5408 43.4447L40.4668 42.4001L39.4297 41.0578L42.5408 38.2218ZM23.3557 38.2218L21.2816 39.2664V41.3555L23.3557 43.4447L25.4297 42.4001L26.4668 41.0578L23.3557 38.2218Z" fill="black"/>
</svg>
