<svg width="69" height="66" viewBox="0 0 69 66" fill="none" xmlns="http://www.w3.org/2000/svg">
<path d="M7.48579 13.0042L36.8443 0.653809L58.8197 13.3413L68.139 40.9498L47.2018 63.2141L21.5778 65.5962L0.508789 44.3387L7.48579 13.0042Z" fill="white"/>
<path fill-rule="evenodd" clip-rule="evenodd" d="M41.2539 32.8498L40.9117 32.8638C41.0294 32.8445 41.1438 32.8392 41.2539 32.8498ZM25.6788 33.8859C25.6514 33.8781 25.6239 33.8711 25.5964 33.8647L25.6788 33.8859Z" fill="black"/>
<path fill-rule="evenodd" clip-rule="evenodd" d="M25.6788 33.8859C25.6514 33.8781 25.6239 33.8711 25.5964 33.8647L25.6788 33.8859Z" fill="black"/>
<path fill-rule="evenodd" clip-rule="evenodd" d="M14.3652 32.359C14.4516 31.6002 19.348 30.8987 21.1039 30.8533C22.8598 30.808 24.7997 31.6686 24.7997 31.6686C24.7997 31.6686 28.1814 32.0296 28.6466 32.0296C28.8061 32.0296 29.5796 29.3711 29.5796 29.3711C29.5796 29.3711 30.5027 25.9399 30.7523 25.7726C29.8512 25.9408 29.6638 25.9638 29.005 26.0449L28.9859 26.0472C28.8725 26.0612 28.7577 26.0786 28.6454 26.0956C28.2032 26.1625 27.7993 26.2237 27.6678 26.0472C27.5233 25.8532 27.5234 25.3886 27.5234 24.7013L27.8556 23.1744C27.9178 23.1004 27.9634 23.0402 28.0005 22.9914C28.0608 22.9119 28.0985 22.8623 28.1478 22.8313C28.2296 22.78 28.3436 22.78 28.6466 22.78C29.2445 22.78 30.3748 22.8698 30.3748 22.8698C30.3748 22.8698 32.1286 23.0687 33.3107 23.2021C33.9133 23.27 34.1577 23.3397 34.4608 23.426C34.5387 23.4482 34.6205 23.4715 34.7133 23.4962C34.7133 23.4962 35.7984 24.0728 35.7991 24.519C35.7999 24.9653 35.6844 25.0988 35.4833 25.2836L32.1994 25.7647C31.8549 26.0067 31.8035 29.2463 31.8035 29.2463V32.0296L34.2607 31.8168C34.2607 31.8168 39.4627 31.2313 40.9376 31.2313C40.9376 31.2313 41.8379 29.9088 42.3297 28.9817C42.9099 27.8881 43.602 25.7726 43.602 25.7726L44.1711 20.9734L46.2605 20.6136C46.2605 20.6136 51.2719 19.8155 51.6715 20.9734C52.0712 22.1313 49.8001 24.7557 49.8001 24.7557C49.8001 24.7557 48.6053 25.7647 47.8796 25.5785C47.1539 25.3922 47.3336 24.519 47.3336 24.519L48.1056 22.8164L46.1146 22.78L45.1951 28.9738L44.4451 32.0028C44.4451 32.0028 45.5025 32.0102 46.7853 32.5796C46.8858 32.6243 46.9819 32.6664 47.0741 32.7069C48.158 33.1821 48.7127 33.4254 49.87 34.8136C51.1257 36.3199 51.6273 38.4157 51.6715 40.2012C51.7157 41.9867 51.2102 43.9099 49.87 45.9266C48.2166 48.1693 46.3595 48.8246 43.8962 48.933C41.4329 49.0415 39.3289 48.4188 37.9858 46.6363C36.5248 44.6975 35.9556 42.6499 35.9556 41.0283C35.9556 39.4066 36.3229 37.9319 36.6859 36.8846C37.0244 35.9079 39.284 33.1307 40.9117 32.8638L41.2539 32.8498C41.1438 32.8392 41.0294 32.8445 40.9117 32.8638L39.7009 32.9132C38.8447 33.4371 36.3201 36.519 36.3201 36.519L32.9842 40.2012C32.9842 40.2012 32.9657 40.8384 32.7392 41.3374C32.5126 41.8365 31.8793 42.3063 31.4577 42.2954C31.0361 42.2846 30.6094 41.9997 30.5334 41.6028C30.4574 41.2058 30.3776 40.6468 30.3776 40.6468L29.3426 40.8039C29.3426 42.5055 29.2492 43.9083 28.0395 45.6956C26.8297 47.4829 24.223 48.9352 22.4611 48.9352C20.6991 48.9352 18.2388 48.3941 16.7014 46.6363C15.1641 44.8785 14.3652 43.1757 14.3652 40.3357C14.3652 38.0819 15.4344 35.8287 16.9182 34.6112C18.402 33.3937 20.0701 32.8498 22.4611 32.8498L22.6181 32.5627C22.6181 32.5627 21.698 32.4835 19.8386 32.6666C17.9791 32.8498 15.4883 33.8647 15.4883 33.8647C15.1139 33.8647 14.2788 33.1179 14.3652 32.359ZM29.3426 39.8224L30.2334 39.6152C30.1022 38.8651 29.8209 37.862 29.7097 37.564C29.5985 37.266 29.1158 35.94 29.1158 35.94L28.6454 34.6479L25.6788 33.8859C25.6514 33.8781 25.6239 33.8711 25.5964 33.8647L25.6788 33.8859C26.9202 34.2381 28.0395 36.0473 28.0395 36.0473C28.0395 36.0473 29.3426 37.9818 29.3426 39.8224ZM47.0863 36.3199C45.8633 35.3369 43.7311 34.7411 41.5988 35.7241C39.4665 36.7071 38.26 38.6513 38.7767 41.6247C39.2933 44.5981 41.391 46.0521 44.2769 45.9266C47.1628 45.8012 48.6661 43.278 48.8143 41.1944C48.9626 39.1109 48.3092 37.3029 47.0863 36.3199ZM26.328 38.4591C25.3246 35.5807 22.4487 34.6209 19.5012 36.0473C16.5536 37.4737 15.8679 42.0582 17.9557 44.3159C20.0435 46.5736 23.0669 46.9499 24.9797 45.1312C26.8924 43.3125 27.3314 41.3374 26.328 38.4591ZM31.8793 36.8846C31.9445 37.4217 32.0155 37.813 32.1994 38.4591C32.1994 38.4591 34.2082 36.519 34.4608 36.0473C34.636 35.7201 35.3835 34.8781 35.9556 34.2337C36.2082 33.9492 36.4265 33.7032 36.5464 33.557L34.5398 34.083L31.8035 34.9438C31.5221 35.021 31.6726 35.7849 31.7907 36.3848C31.8287 36.5778 31.8634 36.7539 31.8793 36.8846Z" fill="black"/>
</svg>
