<svg width="69" height="66" viewBox="0 0 69 66" fill="none" xmlns="http://www.w3.org/2000/svg">
<path d="M7.48579 13.0042L36.8443 0.653809L58.8197 13.3413L68.139 40.9498L47.2018 63.2141L21.5778 65.5962L0.508789 44.3387L7.48579 13.0042Z" fill="white"/>
<path fill-rule="evenodd" clip-rule="evenodd" d="M37.6668 16.2668L46.0668 17.2001L47.9334 23.7334V33.0668L49.8001 34.0001V40.5334L48.8668 45.2001L46.0668 46.1334L43.9668 48.0001L46.0668 50.8001L44.2001 52.6668L43.2668 49.8668H20.8668L19.0001 52.6668L18.0668 50.8001L20.8668 48.0001L19.9334 47.0668H19.0001L17.1334 43.3334L16.2001 35.8668L18.0668 34.9334L19.0001 24.6668V19.0668L25.5334 17.2001L37.6668 16.2668ZM44.2001 24.6668L43.2668 22.8001L26.4668 21.8668L22.7334 23.7334V31.2001L23.6668 33.0668L31.1334 32.1334H43.2668L44.2001 24.6668ZM40.4668 48.0001L39.5334 47.0668L27.4001 46.1334L25.5334 47.0668L24.6001 48.0001L21.8001 48.9334L40.4668 48.0001ZM42.5409 38.2217L44.6149 39.2663V41.3555L42.5409 43.4447L40.4668 42.4001L39.4298 41.0578L42.5409 38.2217ZM23.3557 38.2217L21.2816 39.2663V41.3555L23.3557 43.4447L25.4297 42.4001L26.4668 41.0578L23.3557 38.2217Z" fill="black"/>
</svg>
