<svg width="69" height="66" viewBox="0 0 69 66" fill="none" xmlns="http://www.w3.org/2000/svg">
<path d="M7.48579 13.0042L36.8443 0.653809L58.8197 13.3413L68.139 40.9498L47.2018 63.2141L21.5778 65.5962L0.508789 44.3387L7.48579 13.0042Z" fill="white"/>
<path fill-rule="evenodd" clip-rule="evenodd" d="M40.815 31.8044L40.4729 31.8183C40.5906 31.799 40.7049 31.7938 40.815 31.8044ZM25.2399 32.8405C25.2125 32.8327 25.185 32.8256 25.1575 32.8193L25.2399 32.8405Z" fill="black"/>
<path fill-rule="evenodd" clip-rule="evenodd" d="M25.2399 32.8405C25.2125 32.8327 25.185 32.8256 25.1575 32.8193L25.2399 32.8405Z" fill="black"/>
<path fill-rule="evenodd" clip-rule="evenodd" d="M13.9263 31.3136C14.0127 30.5547 20.665 29.8079 20.665 29.8079L24.3608 30.6232C24.3608 30.6232 27.7425 30.9841 28.2077 30.9841C28.3673 30.9841 29.1407 28.3256 29.1407 28.3256C29.1407 28.3256 30.0638 24.8944 30.3134 24.7271C29.4123 24.8953 29.2249 24.9184 28.5661 24.9994L28.5471 25.0018C28.4336 25.0157 28.3188 25.0331 28.2065 25.0501C27.7644 25.1171 27.3604 25.1782 27.229 25.0018C27.0845 24.8078 27.0845 24.3432 27.0846 23.6558L27.4168 22.1289C27.4789 22.0549 27.5246 21.9948 27.5616 21.946C27.622 21.8664 27.6596 21.8168 27.709 21.7859C27.7908 21.7346 27.9048 21.7346 28.2077 21.7346C28.8056 21.7346 29.936 21.8244 29.936 21.8244C29.936 21.8244 31.6898 22.0233 32.8719 22.1566C33.4744 22.2246 33.7188 22.2942 34.0219 22.3806C34.0998 22.4028 34.1816 22.4261 34.2744 22.4508C34.2744 22.4508 35.3595 23.0273 35.3603 23.4736C35.361 23.9198 35.2455 24.0534 35.0444 24.2382L31.7605 24.7193C31.4161 24.9613 31.3646 28.2008 31.3646 28.2008V30.9841L33.8218 30.7713C33.8218 30.7713 39.0239 30.1859 40.4987 30.1859C40.4987 30.1859 41.399 28.8634 41.8909 27.9363C42.471 26.8427 43.1631 24.7271 43.1631 24.7271L43.7322 19.928L45.8216 19.5682C45.8216 19.5682 50.833 18.7701 51.2327 19.928C51.6323 21.0858 49.3612 23.7102 49.3612 23.7102L47.4408 24.533L46.8948 23.4736L47.6667 21.771L45.6757 21.7346L44.7562 27.9284L44.0062 30.9574C44.0062 30.9574 45.0637 30.9648 46.3464 31.5342C46.447 31.5788 46.543 31.621 46.6353 31.6614C47.7192 32.1367 48.2739 32.3799 49.4311 33.7681C50.6868 35.2744 51.1884 37.3703 51.2327 39.1558C51.2769 40.9413 50.7713 42.8645 49.4311 44.8812C47.7777 47.1239 45.9206 47.7791 43.4573 47.8876C40.994 47.996 38.8901 47.3733 37.5469 45.5909C36.086 43.6521 35.5167 41.6045 35.5167 39.9828C35.5167 38.3611 35.884 36.8865 36.247 35.8392C36.5856 34.8625 38.8452 32.0852 40.4729 31.8183L40.815 31.8044C40.7049 31.7938 40.5906 31.799 40.4729 31.8183L39.262 31.8678C38.4058 32.3916 35.8812 35.4735 35.8812 35.4735L32.5453 39.1558C32.5453 39.1558 32.5269 39.793 32.3003 40.292C32.0737 40.791 31.0188 41.25 31.0188 41.25C31.0188 41.25 30.2102 41.053 30.0147 40.5793C29.8193 40.1056 29.9388 39.6014 29.9388 39.6014L28.9038 39.7585C28.9038 41.4601 28.8104 42.8628 27.6006 44.6502C26.3908 46.4375 23.7842 47.8898 22.0222 47.8898C20.2602 47.8898 17.7999 47.3487 16.2626 45.5909C14.7252 43.833 13.9263 42.1302 13.9263 39.2903C13.9263 37.0365 14.9955 34.7832 16.4793 33.5658C17.9631 32.3483 19.6312 31.8043 22.0222 31.8044L22.3764 31.3136L19.5419 31.3135C18.4188 31.3135 15.0494 32.8192 15.0494 32.8192C14.6751 32.8192 13.8399 32.0725 13.9263 31.3136ZM28.9038 38.777L29.9388 38.5543C29.6861 37.8568 29.2708 36.5185 29.2708 36.5185L28.677 34.8946L28.2065 33.6025L25.2399 32.8405C25.2125 32.8327 25.185 32.8256 25.1575 32.8193L25.2399 32.8405C26.4813 33.1927 27.6006 35.0019 27.6006 35.0019C27.6006 35.0019 28.9038 36.9364 28.9038 38.777ZM46.6474 35.2744C45.4245 34.2914 43.2922 33.6956 41.1599 34.6787C39.0277 35.6617 37.8212 37.6059 38.3378 40.5793C38.8545 43.5527 40.9522 45.0066 43.838 44.8812C46.7239 44.7558 48.2272 42.2325 48.3755 40.149C48.5237 38.0654 47.8703 36.2575 46.6474 35.2744ZM25.8891 37.4136C24.8857 34.5352 22.0098 33.5754 19.0623 35.0019C16.1147 36.4283 15.4291 41.0127 17.5168 43.2704C19.6046 45.5281 22.628 45.9044 24.5408 44.0857C26.4536 42.267 26.8926 40.292 25.8891 37.4136ZM31.4404 35.8392C31.5056 36.3763 31.5766 36.7675 31.7605 37.4136C31.7605 37.4136 33.7694 35.4735 34.0219 35.0019C34.1971 34.6746 34.9446 33.8326 35.5167 33.1882C35.7693 32.9038 35.9877 32.6578 36.1075 32.5116L34.1009 33.0376L31.3646 33.8984C31.0832 33.9756 31.2337 34.7394 31.3518 35.3393C31.3899 35.5324 31.4245 35.7084 31.4404 35.8392Z" fill="black"/>
</svg>
