<svg width="69" height="66" viewBox="0 0 69 66" fill="none" xmlns="http://www.w3.org/2000/svg">
<path d="M7.48579 13.0042L36.8443 0.653809L58.8197 13.3413L68.139 40.9498L47.2018 63.2141L21.5778 65.5962L0.508789 44.3387L7.48579 13.0042Z" fill="white"/>
<path fill-rule="evenodd" clip-rule="evenodd" d="M47.9334 32.1334C48.3482 28.747 47.4771 21.9983 46.4816 17.8035C43.0594 17.5851 36.1734 17.2001 32.689 17.2001C29.2045 17.2001 21.489 18.074 18.0668 18.511C17.8594 20.5865 17.4445 24.1476 17.4445 25.7207C17.4445 27.2937 17.6519 30.8905 17.7557 32.529H15.2668C15.6816 36.5708 16.7601 44.9822 17.7557 46.293C17.956 46.3282 17.6621 46.2955 18.4751 46.293L19.9334 50.8001L24.0234 50.4724L28.3334 50.8001L28.5266 47.2845L30.8795 47.5032L35.8001 48.0001C35.9185 49.3077 36.3186 50.4724 36.3186 50.4724L41.2964 50.8001L45.9631 50.4724L46.7598 46.6089C47.2462 46.5702 47.8673 46.4132 48.2994 46.4085C49.2327 44.1145 51.0994 39.3299 51.0994 38.5434C51.0994 37.7569 50.6846 34.0646 50.4772 32.3168L47.9334 32.1334ZM44.2001 25.5568L43.5354 32.0525H32.689L22.8371 33.0668L21.8001 28.4294V23.2065L26.7779 22.423H43.5354L44.2001 25.5568ZM44.4075 37.8694L46.4816 38.914V41.0032L44.4075 43.0923L42.3334 42.0477L41.2964 40.7054L44.4075 37.8694ZM21.5927 37.8694L19.5186 38.914V41.0032L21.5927 43.0923L23.6668 42.0477L24.7038 40.7054L21.5927 37.8694Z" fill="black"/>
</svg>
