<svg width="18" height="16" viewBox="0 0 18 16" fill="none" xmlns="http://www.w3.org/2000/svg">
<path fill-rule="evenodd" clip-rule="evenodd" d="M3.876 11.1239C4.467 12.0926 5.3205 12.874 6.33752 13.3773C7.35454 13.8806 8.4934 14.0853 9.62204 13.9676C10.7507 13.85 11.8228 13.4148 12.7142 12.7125C13.6055 12.0103 14.2795 11.0697 14.658 9.99994H16.748C16.3645 11.4823 15.5638 12.8235 14.441 13.8644C13.3181 14.9054 11.9202 15.6023 10.4131 15.8727C8.90605 16.143 7.35305 15.9754 5.9384 15.3896C4.52374 14.8038 3.30682 13.8246 2.432 12.5679L0 14.9999V8.99994H6L3.876 11.1239ZM14.125 4.87494C13.5337 3.90611 12.6799 3.12472 11.6626 2.6214C10.6452 2.11807 9.50609 1.91342 8.37719 2.03118C7.24829 2.14894 6.17589 2.58428 5.28434 3.28672C4.3928 3.98916 3.71863 4.92993 3.34 5.99994H1.25C1.63336 4.51705 2.4341 3.17526 3.55719 2.13381C4.68028 1.09237 6.07858 0.394984 7.58614 0.124423C9.0937 -0.146138 10.6472 0.0214817 12.0624 0.607391C13.4775 1.1933 14.6949 2.1729 15.57 3.42994L18 0.999943V6.99994H12L14.125 4.87494Z" fill="white"/>
</svg>
