<svg xmlns="http://www.w3.org/2000/svg" width="52" height="52" viewBox="0 0 52 52" fill="none">
  <path fill-rule="evenodd" clip-rule="evenodd" d="M28.0259 6.86417V13.0955L24.4873 13.6575C17.1182 14.8279 8.63355 20.6294 4.94901 27.0179C1.74085 32.5802 1.09127 35.3629 0.90469 44.3414C0.768226 50.9095 0.851593 52.3421 1.3121 51.3469C6.33201 40.4909 6.78458 39.7123 9.85479 36.6619C14.1884 32.356 19.8182 29.5198 25.9169 28.5696L28.0259 28.2408V34.2896C28.0259 37.6161 28.147 40.3383 28.2949 40.3383C28.7663 40.3383 51.8452 21.1358 51.8452 20.7435C51.8452 20.5368 46.9886 16.3821 41.0521 11.5108C35.1156 6.64 29.7563 2.19953 29.1425 1.6436L28.0259 0.632812V6.86417Z" fill="white"/>
</svg>