<svg width="19" height="16" viewBox="0 0 19 16" fill="none" xmlns="http://www.w3.org/2000/svg">
<path fill-rule="evenodd" clip-rule="evenodd" d="M15.809 3.49855C15.9325 3.37523 16.0999 3.30596 16.2744 3.30596C16.4489 3.30596 16.6163 3.37523 16.7398 3.49855L16.7415 3.50031L16.7441 3.50206L16.7503 3.50821L16.7679 3.52577L16.8223 3.58636C16.8662 3.63641 16.9277 3.70753 16.9988 3.79797C17.8101 4.85248 18.25 6.14563 18.25 7.47611C18.25 8.8066 17.8101 10.0997 16.9988 11.1543C16.9252 11.2481 16.8479 11.3389 16.767 11.4265L16.7494 11.444L16.7441 11.4502L16.7415 11.4519L16.7406 11.4528L16.2928 11.0067L16.7406 11.4546C16.6171 11.5781 16.4495 11.6475 16.2748 11.6475C16.1001 11.6475 15.9326 11.5781 15.809 11.4546C15.6855 11.331 15.6161 11.1635 15.6161 10.9887C15.6161 10.814 15.6855 10.6465 15.809 10.5229L15.8081 10.5238L15.8064 10.5247L15.8108 10.5203L15.8398 10.4887C15.8679 10.4583 15.9085 10.4094 15.9618 10.3421C16.5173 9.61691 16.8502 8.74602 16.92 7.83523C16.9898 6.92445 16.7936 6.01299 16.3552 5.21162C16.2407 5.00072 16.1091 4.79956 15.9618 4.61016C15.9141 4.54854 15.8637 4.48907 15.8108 4.43192L15.8064 4.42753C15.684 4.30378 15.6155 4.13658 15.616 3.9625C15.6165 3.78841 15.6859 3.62161 15.809 3.49855ZM10.5996 0.360406C11.6207 -0.313058 12.9817 0.420113 12.9817 1.64324V14.187C12.9817 15.411 11.6207 16.1433 10.5996 15.4699L5.33127 11.9972C5.29563 11.9734 5.25381 11.9606 5.21098 11.9603H2.66463C2.02423 11.9603 1.41006 11.7059 0.95723 11.2531C0.504398 10.8002 0.25 10.1861 0.25 9.54567V6.2846C0.25 5.6442 0.504398 5.03003 0.95723 4.5772C1.41006 4.12437 2.02423 3.86997 2.66463 3.86997H5.21098C5.25402 3.87011 5.29616 3.85759 5.33215 3.83397L10.5996 0.360406Z" fill="white"/>
</svg>
