<svg width="19" height="15" viewBox="0 0 19 15" fill="none" xmlns="http://www.w3.org/2000/svg">
<path fill-rule="evenodd" clip-rule="evenodd" d="M13.835 5.43586C13.9528 5.31823 14.1125 5.25215 14.2789 5.25215C14.4454 5.25215 14.6051 5.31823 14.7228 5.43586L15.954 6.66706L17.1852 5.43586C17.3043 5.3249 17.4618 5.26449 17.6245 5.26737C17.7873 5.27024 17.9425 5.33616 18.0576 5.45125C18.1727 5.56634 18.2387 5.72161 18.2415 5.88435C18.2444 6.04709 18.184 6.20458 18.073 6.32366L16.8427 7.55486L18.0739 8.78605C18.1882 8.90458 18.2515 9.06329 18.25 9.22799C18.2485 9.39269 18.1823 9.55021 18.0658 9.66662C17.9493 9.78303 17.7917 9.84902 17.627 9.85038C17.4623 9.85173 17.3036 9.78834 17.1852 9.67386L15.954 8.44266L14.7228 9.67386C14.6038 9.78481 14.4463 9.84522 14.2835 9.84235C14.1208 9.83948 13.9655 9.77355 13.8504 9.65846C13.7353 9.54337 13.6694 9.3881 13.6665 9.22537C13.6637 9.06263 13.7241 8.90513 13.835 8.78605L15.0662 7.55486L13.835 6.32366C13.7174 6.20588 13.6513 6.04622 13.6513 5.87976C13.6513 5.7133 13.7174 5.55364 13.835 5.43586ZM10.1222 0.348591C11.0963 -0.293809 12.3945 0.405544 12.3945 1.57225V13.5375C12.3945 14.705 11.0963 15.4035 10.1222 14.7611L5.09689 11.4486C5.0629 11.426 5.02301 11.4137 4.98215 11.4134H2.55326C1.9424 11.4134 1.35655 11.1708 0.924609 10.7388C0.492664 10.3069 0.25 9.72105 0.25 9.11019V5.99953C0.25 5.38867 0.492664 4.80283 0.924609 4.37088C1.35655 3.93894 1.9424 3.69627 2.55326 3.69627H4.98215C5.02321 3.69641 5.0634 3.68446 5.09773 3.66193L10.1222 0.348591Z" fill="white"/>
</svg>
