<svg width="18" height="18" viewBox="0 0 18 18" fill="none" xmlns="http://www.w3.org/2000/svg">
<path fill-rule="evenodd" clip-rule="evenodd" d="M8.39839 0.244097C8.21714 0.444415 8.16923 0.78867 8.16923 1.89098V3.28462L7.71923 3.37065C5.82286 3.73277 3.73251 5.81589 3.38026 7.69467L3.2922 8.16416H1.87532C0.319985 8.16416 0 8.31004 0 9.01947C0 9.67196 0.363877 9.82656 1.89928 9.82656H3.2922L3.38026 10.296C3.53922 11.1433 4.27638 12.4034 5.03086 13.1173C5.85083 13.8932 6.57111 14.3055 7.5276 14.5464L8.16923 14.708V16.1248C8.16923 17.6799 8.31517 18 9.02409 18C9.67611 18 9.83077 17.6358 9.83077 16.1007V14.708L10.4885 14.5426C12.4006 14.0615 14.0641 12.3922 14.5482 10.4685L14.7097 9.82656H16.1258C17.68 9.82656 18 9.68054 18 8.97126C18 8.3189 17.636 8.16416 16.1017 8.16416H14.7097L14.5482 7.5222C14.0641 5.59853 12.4006 3.92921 10.4885 3.44809L9.83077 3.28268V1.8659C9.83077 0.669393 9.79145 0.413661 9.57752 0.219992C9.24314 -0.082841 8.68375 -0.0713428 8.39839 0.244097ZM10.7367 5.37411C13.161 6.52172 13.7729 9.61419 11.9928 11.7234C11.7876 11.9666 11.2384 12.3562 10.7723 12.5892C8.09031 13.9302 4.99029 12.0047 4.98614 8.99536C4.98198 6.01607 8.0334 4.09462 10.7367 5.37411ZM8.39839 8.41754C7.90159 8.96668 8.28346 9.82656 9.02409 9.82656C9.73316 9.82656 10.103 8.86916 9.57752 8.39343C9.24314 8.0906 8.68375 8.1021 8.39839 8.41754Z" fill="white"/>
</svg>
