<svg width="419" height="291" viewBox="0 0 419 291" fill="none" xmlns="http://www.w3.org/2000/svg">
<path d="M312.965 243.601L292.865 196.701L339.579 183.129L351.191 179.756L339.858 175.539L278.188 152.594V116.627V108.567L271.769 113.441L249.958 130.001L211.891 91.2365L206.343 85.5872L205.088 93.4048L197.323 141.745L145.146 148.213L131.1 149.955L143.98 155.823L200.064 181.377L176.54 243.766L171.8 256.337L182.644 248.406L241.488 205.371L307.091 248.519L318.206 255.83L312.965 243.601Z" fill="#FF4B6B" stroke="white" stroke-width="8"/>
<path d="M329.193 27.5925L323.081 53.8824L298.999 45.0763L287.643 40.9234L294.283 51.0294L314.119 81.2223L302.755 96.7004L297.985 103.197L306.043 103.067L320.054 102.842L324.229 131.841L325.357 139.678L330.996 134.12L349.851 115.534L374.748 129.46L387.101 136.369L380.192 124.017L363.916 94.9135L394.264 75.1652L405.524 67.8378L392.089 67.8125L351.933 67.7371L336.839 27.1054L332.206 14.634L329.193 27.5925Z" fill="#FF4B6B" stroke="white" stroke-width="8"/>
<path d="M90.1389 263.338L96.2513 237.048L120.333 245.854L131.689 250.007L125.049 239.901L105.213 209.708L116.577 194.23L121.347 187.734L113.289 187.863L99.2785 188.089L95.1034 159.09L93.9751 151.253L88.3362 156.811L69.4809 175.397L44.5836 161.471L32.2312 154.561L39.1398 166.914L55.4165 196.017L25.0685 215.765L13.8082 223.093L27.2427 223.118L67.3993 223.194L82.4932 263.825L87.1261 276.297L90.1389 263.338Z" fill="#FF4B6B" stroke="white" stroke-width="8"/>
</svg>
