<svg width="417" height="321" viewBox="0 0 417 321" fill="none" xmlns="http://www.w3.org/2000/svg">
<path d="M312.271 82.7358L311.868 82.2098L311.316 81.8422L305.263 77.8093C297.505 71.9599 286.303 72.993 279.66 79.8319C276.071 83.5263 272.099 89.0282 271.124 95.1032C270.409 99.5623 271.783 104.257 272.73 107.404C273.15 108.801 273.407 109.816 273.623 110.671C273.682 110.904 273.737 111.125 273.793 111.338L273.805 111.384C274.021 112.219 274.349 113.487 275.157 114.608C276.049 115.844 277.223 116.519 278.098 116.987C278.515 117.21 279.005 117.455 279.518 117.711L279.681 117.793C280.273 118.089 280.956 118.432 281.768 118.857C284.454 120.263 287.117 121.404 289.816 122.491C293.239 123.868 296.608 123.162 298.753 122.713C298.821 122.699 298.887 122.685 298.951 122.672C299.511 122.555 300.151 122.454 300.955 122.327L301.054 122.312C301.861 122.185 302.803 122.034 303.749 121.834C305.543 121.454 307.927 120.788 309.849 119.23C310.373 118.806 310.931 118.426 311.596 117.99C311.688 117.93 311.786 117.866 311.886 117.801C312.454 117.43 313.133 116.988 313.771 116.513C315.404 115.297 317.077 113.654 318.153 110.979C318.195 110.875 318.247 110.753 318.306 110.615C318.812 109.43 319.834 107.035 319.379 104.375C319.308 103.959 319.222 103.574 319.162 103.309L319.147 103.241C319.101 103.04 319.075 102.914 319.058 102.825L319.204 102.463L319.249 101.84L319.32 100.872C319.704 98.6205 318.958 96.5558 318.569 95.5436C318.481 95.3137 318.391 95.0776 318.298 94.836C316.914 91.2182 315.06 86.3697 312.271 82.7358ZM213.675 103.788L215.123 102.983L215.577 101.389C215.822 100.53 215.997 99.8518 216.159 99.2186C216.358 98.4437 216.54 97.7362 216.813 96.8461C217.235 95.4709 217.682 94.4033 218.243 93.5647C218.542 93.1184 219.066 92.6192 219.967 92.0017C220.576 91.584 221.065 91.2923 221.629 90.9556C222.058 90.7002 222.53 90.4188 223.13 90.0368C224.626 89.0858 226.061 88.3045 227.616 87.4574C228.612 86.9151 229.657 86.3457 230.799 85.6877C233.512 84.1253 236.399 82.2469 238.862 79.6247C243.617 74.5639 246.651 68.4435 249.23 62.802C252.064 56.6025 253.387 49.5006 251.22 42.3554C248.221 32.4653 239.865 30.0828 233.362 28.2287L233.263 28.2005C229.592 27.1537 226.002 27.6791 222.959 28.5635C220.462 29.2894 218.001 30.3677 215.978 31.2544C215.58 31.4292 215.198 31.5966 214.836 31.7523C200.609 37.8772 185.345 45.6787 178.49 62.5107C175.758 69.2205 173.854 76.2514 172.051 82.9268C170.414 88.986 173.259 94.1182 175.371 97.63C176.648 99.7537 178.676 101.598 180.524 103.012C182.438 104.476 184.491 105.729 186.149 106.61C189.094 108.178 191.563 109.392 195.103 110.401L195.233 110.439C195.35 110.472 195.472 110.507 195.599 110.544C198.112 111.271 202.663 112.588 206.87 110.248C208.132 109.545 209.529 108.489 210.728 107.264C211.53 106.445 212.411 105.38 213.065 104.128L213.675 103.788ZM198.528 120.428L198.33 119.624L197.829 118.965C195.828 116.33 192.774 115.214 190.693 114.551C190.131 114.372 189.569 114.207 189.057 114.057L188.984 114.035C188.486 113.889 188.036 113.758 187.602 113.621C186.672 113.329 186.027 113.08 185.567 112.829C183.135 111.502 180.404 110.223 177.617 109.318C176.92 109.091 176.168 108.785 175.216 108.397C175.12 108.357 175.021 108.317 174.921 108.276C173.896 107.859 172.673 107.369 171.403 106.992C168.915 106.251 165.47 105.701 162.13 107.559C154.701 111.691 153.273 120.57 153.301 126.494C153.339 134.446 157.438 143.198 165.522 146.969C169.899 149.01 175.345 151.491 181.773 150.282C186.579 149.379 191.055 147.193 194.027 142.354C196.069 139.03 197.49 135.364 198.495 131.836C198.558 131.616 198.636 131.37 198.72 131.101C199.292 129.284 200.191 126.424 199.207 123.185L198.528 120.428ZM341.636 90.9835C343.206 91.4012 344.756 91.3715 346.004 91.2382C347.419 91.0871 348.763 90.7634 349.748 90.5147C358.177 88.387 365.565 82.2357 371.382 77.393C371.969 76.9044 372.54 76.4291 373.094 75.9725C382.179 68.4914 389.181 58.2673 394.684 48.5573C397.033 44.413 399.045 39.6856 400.451 35.1569C401.389 32.1384 401.294 28.8266 401.225 26.4126C401.211 25.8999 401.197 25.4278 401.195 25.0075C401.168 19.9215 399.101 16.0741 396.053 13.2112C393.151 10.4867 389.423 8.70624 386.038 7.34439C377.234 3.80195 368.07 3.58038 359.378 6.54701C353.014 8.71929 344.98 14.0882 340.026 18.563C338.285 20.1359 337.094 22.1576 336.21 24.0255C335.371 25.7988 334.677 27.7299 334.072 29.4156C334.036 29.514 334.001 29.6116 333.967 29.7083C333.3 31.5607 332.739 33.0794 332.113 34.3022C331.47 35.5609 330.996 36.0147 330.777 36.1526C326.265 39.003 321.366 42.2966 317.254 46.4073C313.162 50.4996 311.151 55.3695 309.436 59.8442C309.304 60.1894 309.175 60.5231 309.051 60.8451C308.475 62.3386 307.998 63.5774 307.722 64.5164C307.376 65.6999 306.988 67.5136 307.955 69.4083C308.354 70.1904 308.877 70.7598 309.224 71.1122C309.46 71.3526 309.769 71.6415 310.027 71.8826C310.116 71.9654 310.198 72.0425 310.27 72.1101C310.919 72.7237 311.77 73.5696 312.863 74.9968C315.684 78.6827 319.897 82.9689 324.74 86.1785C329.369 89.2456 335.142 91.6989 341.065 90.9384L341.636 90.9835Z" fill="#00BDA7" stroke="white" stroke-width="8" stroke-linecap="round"/>
<path d="M178.706 243.134L178.249 242.654L177.662 242.346L172.071 239.42C164.598 234.944 154.724 236.926 149.45 243.647C146.658 247.206 143.652 252.431 143.357 257.93C143.14 261.989 144.812 266.03 145.912 268.65C146.399 269.808 146.709 270.649 146.974 271.368C147.046 271.565 147.116 271.753 147.184 271.936L147.205 271.991C147.466 272.688 147.896 273.834 148.764 274.803C149.733 275.886 150.907 276.398 151.716 276.726C152.105 276.884 152.557 277.053 153.023 277.228L153.172 277.284C153.711 277.485 154.329 277.718 155.066 278.01C157.541 278.988 159.967 279.737 162.408 280.431C165.649 281.353 168.633 280.39 170.439 279.807C170.503 279.786 170.566 279.766 170.627 279.746C171.088 279.598 171.621 279.455 172.311 279.27L172.387 279.249C173.073 279.066 173.886 278.846 174.7 278.582C176.234 278.083 178.335 277.258 179.946 275.643C180.34 275.248 180.771 274.882 181.303 274.446C181.376 274.387 181.453 274.324 181.533 274.259C181.99 273.887 182.552 273.43 183.073 272.949C184.419 271.706 185.783 270.054 186.504 267.521C186.528 267.436 186.56 267.332 186.597 267.212C186.923 266.159 187.641 263.835 186.959 261.414C186.846 261.014 186.721 260.65 186.646 260.429C186.62 260.351 186.599 260.288 186.582 260.237L186.654 259.982L186.634 259.358L186.607 258.539C186.733 256.413 185.841 254.595 185.412 253.755C185.313 253.561 185.211 253.362 185.107 253.157C183.586 250.167 181.505 246.079 178.706 243.134ZM64.7104 273.226L66.3391 272.923L67.276 271.556C67.7339 270.888 68.0657 270.375 68.3721 269.902C68.741 269.331 69.073 268.818 69.5441 268.16C70.2591 267.16 70.8875 266.45 71.5243 265.958C71.8184 265.731 72.3154 265.487 73.2014 265.234C73.8115 265.06 74.2692 264.961 74.8102 264.843C75.2312 264.752 75.7026 264.65 76.3355 264.493C77.819 264.125 79.1865 263.882 80.6864 263.617C81.6588 263.444 82.6868 263.262 83.8382 263.03C86.5233 262.487 89.482 261.724 92.3054 260.206C97.7057 257.302 101.947 253.037 105.635 249.095C109.743 244.703 112.873 239.097 113.065 232.443C113.332 223.174 106.882 218.753 102.057 215.446L101.941 215.366C99.0893 213.411 95.873 212.841 93.0704 212.728C90.7728 212.635 88.4052 212.849 86.4932 213.021C86.119 213.055 85.7623 213.087 85.4269 213.115C72.0034 214.236 57.0601 216.457 46.6085 228.618C42.4778 233.424 38.9487 238.723 35.6203 243.725C32.463 248.47 33.4516 253.694 34.2215 257.168C34.709 259.367 35.9151 261.513 37.0613 263.208C38.2538 264.972 39.6199 266.595 40.7588 267.796C42.764 269.911 44.4935 271.626 47.1786 273.467L47.2758 273.533C47.2758 273.534 47.2759 273.534 47.276 273.534C47.3664 273.596 47.462 273.662 47.5626 273.731C49.4196 275.018 52.9772 277.482 57.3144 276.673C58.6013 276.433 60.0926 275.931 61.4625 275.23C62.3363 274.783 63.3558 274.156 64.2643 273.309L64.7104 273.226ZM48.0481 282.293L48.1158 281.468L47.8504 280.684C46.8713 277.79 44.5354 275.944 42.9993 274.82C42.5792 274.512 42.1572 274.218 41.7762 273.953L41.7234 273.916C41.3516 273.657 41.0213 273.427 40.7055 273.198C40.0267 272.706 39.5968 272.345 39.3225 272.05C37.6694 270.269 35.7467 268.435 33.6652 266.894C33.1685 266.526 32.6479 266.079 31.9652 265.492C31.8979 265.434 31.8291 265.375 31.7585 265.314C31.0288 264.687 30.1388 263.931 29.173 263.252C27.285 261.926 24.4487 260.424 20.9739 261.073C13.4031 262.485 9.68659 269.676 8.0642 274.597C5.85183 281.308 6.81752 289.884 12.6215 295.397C15.6585 298.281 19.5745 301.952 25.3943 302.757C29.7058 303.353 34.163 302.778 38.0954 299.487C40.7435 297.271 42.9583 294.601 44.7802 291.944C44.8853 291.791 45.0111 291.618 45.151 291.426C46.1169 290.101 47.7541 287.855 47.8472 284.741L48.0481 282.293ZM189.186 245.791C193.502 248.036 198.835 249.688 204.047 248.469L204.445 248.459C205.912 248.679 207.301 248.5 208.388 248.266C209.636 247.997 210.798 247.583 211.63 247.277C218.844 244.621 224.754 238.535 229.326 233.827C229.791 233.348 230.242 232.884 230.679 232.439C237.916 225.07 243.065 215.519 246.945 206.595C248.612 202.76 249.93 198.452 250.738 194.372C251.291 191.58 250.889 188.61 250.608 186.535C250.55 186.105 250.496 185.712 250.458 185.368C249.952 180.815 247.727 177.553 244.727 175.28C241.889 173.129 238.423 171.909 235.357 171.038C227.3 168.747 219.227 169.404 211.867 172.819C206.478 175.319 199.967 180.751 196.064 185.107C194.636 186.701 193.763 188.633 193.16 190.357C192.588 191.992 192.16 193.749 191.791 195.257C191.769 195.347 191.748 195.437 191.726 195.525C191.318 197.194 190.979 198.526 190.564 199.604C190.135 200.72 189.808 201.052 189.741 201.105C186.096 203.986 182.122 207.313 178.904 211.293C175.664 215.3 174.349 219.794 173.276 223.822C173.194 224.128 173.115 224.425 173.037 224.713C172.676 226.057 172.368 227.2 172.212 228.061C172.015 229.149 171.814 230.924 172.938 232.648C173.398 233.354 173.951 233.839 174.296 234.123C174.532 234.317 174.843 234.551 175.089 234.737C175.171 234.798 175.245 234.855 175.308 234.902C175.91 235.362 176.701 235.997 177.752 237.105C180.562 240.069 184.643 243.428 189.186 245.791Z" fill="#00BDA7" stroke="white" stroke-width="8" stroke-linecap="round"/>
</svg>
