<svg width="82" height="21" viewBox="0 0 82 21" fill="none" xmlns="http://www.w3.org/2000/svg">
<path d="M0.21875 21H13.7357C13.2217 18.928 11.8299 17.2167 9.99149 16.3095C11.4103 15.3171 12.3421 13.6436 12.3421 11.7464C12.3421 8.70029 9.94016 6.23096 6.9772 6.23096C4.01427 6.23096 1.61232 8.70029 1.61232 11.7464C1.61232 13.6436 2.54413 15.3171 3.96292 16.3095C2.1245 17.2167 0.732712 18.928 0.21875 21Z" fill="black"/>
<path fill-rule="evenodd" clip-rule="evenodd" d="M17.4169 21H41.9228C41.6591 18.4846 40.13 16.359 38.0032 15.3095C39.422 14.3171 40.3538 12.6436 40.3538 10.7464C40.3538 7.70029 37.9519 5.23096 34.9889 5.23096C32.3996 5.23096 30.2387 7.11682 29.7349 9.62543C29.749 9.46259 29.7562 9.29773 29.7562 9.13113C29.7562 6.08505 27.3542 3.61572 24.3913 3.61572C21.4283 3.61572 19.0264 6.08505 19.0264 9.13113C19.0264 11.0284 19.9582 12.7018 21.377 13.6943C19.0343 14.8503 17.4169 17.312 17.4169 20.1619V21ZM29.6453 10.252C29.3589 11.678 28.5371 12.9027 27.4055 13.6943C28.6234 14.2953 29.6453 15.2491 30.3458 16.4269C30.8323 15.9804 31.3801 15.6029 31.9746 15.3095C30.5558 14.3171 29.624 12.6436 29.624 10.7464C29.624 10.5797 29.6312 10.4149 29.6453 10.252Z" fill="black"/>
<path d="M45.3242 21H81.8632C81.9213 20.6273 81.9516 20.245 81.9516 19.8554V16.5462C81.9516 13.6962 80.3341 11.2346 77.9915 10.0786C79.4103 9.08612 80.3421 7.41263 80.3421 5.51541C80.3421 2.46933 77.9402 0 74.9772 0C72.0143 0 69.6123 2.46933 69.6123 5.51541C69.6123 7.41263 70.5441 9.08612 71.9629 10.0786C69.894 11.0995 68.3908 13.1387 68.0677 15.5645C67.4898 14.9436 66.8044 14.4293 66.0423 14.0532C67.4611 13.0607 68.3929 11.3872 68.3929 9.49002C68.3929 6.44394 65.9909 3.97461 63.028 3.97461C60.065 3.97461 57.6631 6.44394 57.6631 9.49002C57.6631 11.3872 58.5949 13.0607 60.0137 14.0532C59.5813 14.2666 59.1736 14.5244 58.7962 14.821C58.1531 13.121 56.8975 11.7355 55.3079 10.9511C56.7267 9.95868 57.6585 8.28519 57.6585 6.38797C57.6585 3.34189 55.2566 0.872559 52.2936 0.872559C49.3307 0.872559 46.9287 3.34189 46.9287 6.38797C46.9287 8.28519 47.8605 9.95868 49.2793 10.9511C46.9367 12.1071 45.3193 14.5688 45.3193 17.4188V20.728C45.3193 20.8191 45.3209 20.9098 45.3242 21Z" fill="black"/>
</svg>
