<svg width="78" height="30" viewBox="0 0 78 30" fill="none" xmlns="http://www.w3.org/2000/svg">
<path d="M11 20C18.1797 20 24 14.1797 24 7C24 4.42273 23.25 2.0206 21.9564 0H15.4988C17.7977 1.48047 19.32 4.06247 19.32 7C19.32 11.595 15.595 15.32 11 15.32C6.405 15.32 2.67999 11.595 2.67999 7C2.67999 4.06247 4.20236 1.48047 6.50119 0H0.0436401C0.0290222 0.0228271 0.0144653 0.0457153 0 0.068634V13.9314C2.30264 17.5779 6.36847 20 11 20Z" fill="black"/>
<path d="M77.6522 30C77.8796 29.037 78 28.0325 78 27C78 19.8203 72.1797 14 65 14C57.8203 14 52 19.8203 52 27C52 28.0325 52.1204 29.037 52.3478 30H57.2373C56.8774 29.0693 56.68 28.0577 56.68 27C56.68 22.405 60.405 18.68 65 18.68C69.595 18.68 73.32 22.405 73.32 27C73.32 28.0577 73.1226 29.0693 72.7627 30H77.6522Z" fill="black"/>
<path fill-rule="evenodd" clip-rule="evenodd" d="M6.50119 0H0V13.9314C2.30264 17.5779 6.36847 20 11 20C18.1797 20 24 14.1797 24 7C24 4.42273 23.25 2.0206 21.9564 0H15.4988C17.7977 1.48047 19.32 4.06247 19.32 7C19.32 11.595 15.595 15.32 11 15.32C6.405 15.32 2.67999 11.595 2.67999 7C2.67999 4.06247 4.20236 1.48047 6.50119 0ZM57.2373 30H52.3478C52.1204 29.037 52 28.0325 52 27C52 19.8203 57.8203 14 65 14C72.1797 14 78 19.8203 78 27C78 28.0325 77.8796 29.037 77.6522 30H72.7627C73.1226 29.0693 73.32 28.0577 73.32 27C73.32 22.405 69.595 18.68 65 18.68C60.405 18.68 56.68 22.405 56.68 27C56.68 28.0577 56.8774 29.0693 57.2373 30Z" fill="black"/>
</svg>
