<svg width="40" height="23" viewBox="0 0 40 23" fill="none" xmlns="http://www.w3.org/2000/svg">
<path d="M38.6065 22.9995C38.7488 22.5566 38.8428 22.3117 38.8765 22.3021C39.0489 22.2527 39.089 21.9589 38.9529 21.7417C38.8575 21.5893 38.3095 21.3353 36.6417 20.6697C35.4392 20.1899 34.4389 19.7615 34.4189 19.7177C34.1564 19.1416 34.1281 18.3217 34.1011 17.5397C34.0855 17.0904 34.0704 16.6536 34.0116 16.2826L36.0778 14.769C37.2143 13.9366 38.1669 13.1747 38.1948 13.0759C38.2226 12.9771 38.2252 12.7462 38.2004 12.5628C38.1435 12.1417 35.7314 7.85153 35.4259 7.62805C35.291 7.52923 35.1056 7.47024 34.9686 7.48239C34.8418 7.49365 33.7557 7.90743 32.5548 8.40188C31.3541 8.89636 30.3118 9.30645 30.2387 9.31313C29.8529 9.34842 27.6119 7.5446 27.4333 7.2268C27.2837 6.96061 27.5309 5.46258 27.7497 4.13665C27.9267 3.06441 28.0851 2.10471 28 2C27.8344 1.79613 27.7377 1.67253 27.6168 1.58079C27.3242 1.35862 26.8896 1.32331 24.9904 0.787225C22.307 0.029779 22.2712 0.0223937 21.9755 0.160547C21.6851 0.296289 21.6492 0.368402 20.7523 2.62261L19.8282 4.94485C18.6589 5.00244 17.5129 5.13764 16.358 5.32827L14.7422 3.32726C13.0733 1.26067 12.9324 1.13735 12.3757 1.25625C11.9809 1.34063 7.57958 3.84799 7.43841 4.06902C7.37548 4.16741 7.33568 4.35806 7.34978 4.49264C7.364 4.62722 7.78991 5.74175 8.29626 6.96942C8.8026 8.19695 9.21074 9.22323 9.20318 9.24999C9.12342 9.53368 7.09274 12.0844 7.01916 12.0637C6.97668 12.0517 5.92467 11.8669 4.68145 11.653C3.43804 11.4391 2.38921 11.2552 2.35045 11.2443C2.3117 11.2333 2.09691 11.312 1.87316 11.419L1.4663 11.6135L0.70159 14.3226C-0.0539646 16.9992 -0.0614719 17.0353 0.0764065 17.3311C0.211843 17.6218 0.283865 17.6576 2.53527 18.5542L4.85467 19.4777C4.87136 19.8214 4.95057 20.2418 5.03351 20.682C5.18987 21.5119 5.35945 22.4119 5.14806 22.9995H13.9807C13.8184 22.7276 13.6791 22.4459 13.5663 22.1576C12.4658 19.3437 13.3314 16.2773 15.7408 14.4541C17.6695 12.9947 20.4926 12.7852 22.6461 13.9415C23.9506 14.6421 25.1114 15.9287 25.626 17.2444C26.3945 19.2094 26.2043 21.2976 25.199 22.9995H38.6065Z" fill="black"/>
<path fill-rule="evenodd" clip-rule="evenodd" d="M38.6065 22.9995C38.7488 22.5566 38.8428 22.3117 38.8765 22.3021C39.0489 22.2527 39.089 21.9589 38.9529 21.7417C38.8575 21.5893 38.3095 21.3353 36.6417 20.6697C35.4392 20.1899 34.4389 19.7615 34.4189 19.7177C34.1564 19.1416 34.1281 18.3217 34.1011 17.5397C34.0855 17.0904 34.0704 16.6536 34.0116 16.2826L36.0778 14.769C37.2143 13.9366 38.1669 13.1747 38.1948 13.0759C38.2226 12.9771 38.2252 12.7462 38.2004 12.5628C38.1435 12.1417 35.7314 7.85153 35.4259 7.62805C35.291 7.52923 35.1056 7.47024 34.9686 7.48239C34.8418 7.49365 33.7557 7.90743 32.5548 8.40188C31.3541 8.89636 30.3118 9.30645 30.2387 9.31313C29.8529 9.34842 27.6119 7.5446 27.4333 7.2268C27.2837 6.96061 27.5309 5.46258 27.7497 4.13665C27.9267 3.06441 28.0851 2.10471 28 2C27.8344 1.79613 27.7377 1.67253 27.6168 1.58079C27.3242 1.35862 26.8896 1.32331 24.9904 0.787225C22.307 0.029779 22.2712 0.0223937 21.9755 0.160547C21.6851 0.296289 21.6492 0.368402 20.7523 2.62261L19.8282 4.94485C18.6589 5.00244 17.5129 5.13764 16.358 5.32827L14.7422 3.32726C13.0733 1.26067 12.9324 1.13735 12.3757 1.25625C11.9809 1.34063 7.57958 3.84799 7.43841 4.06902C7.37548 4.16741 7.33568 4.35806 7.34978 4.49264C7.364 4.62722 7.78991 5.74175 8.29626 6.96942C8.8026 8.19695 9.21074 9.22323 9.20318 9.24999C9.12342 9.53368 7.09274 12.0844 7.01916 12.0637C6.97668 12.0517 5.92467 11.8669 4.68145 11.653C3.43804 11.4391 2.38921 11.2552 2.35045 11.2443C2.3117 11.2333 2.09691 11.312 1.87316 11.419L1.4663 11.6135L0.70159 14.3226C-0.0539646 16.9992 -0.0614719 17.0353 0.0764065 17.3311C0.211843 17.6218 0.283865 17.6576 2.53527 18.5542L4.85467 19.4777C4.87136 19.8214 4.95057 20.2418 5.03351 20.682C5.18987 21.5119 5.35945 22.4119 5.14806 22.9995H13.9807C13.8184 22.7276 13.6791 22.4459 13.5663 22.1576C12.4658 19.3437 13.3314 16.2773 15.7408 14.4541C17.6695 12.9947 20.4926 12.7852 22.6461 13.9415C23.9506 14.6421 25.1114 15.9287 25.626 17.2444C26.3945 19.2094 26.2043 21.2976 25.199 22.9995H38.6065Z" fill="black"/>
</svg>
