<svg width="56" height="25" viewBox="0 0 56 25" fill="none" xmlns="http://www.w3.org/2000/svg">
<path d="M56 0.822266V5.07812L52.1094 6.49512L50.7422 2.73633L56 0.822266Z" fill="black"/>
<path d="M35.1953 12.6514L42.7109 9.91504L41.3438 6.15625L33.8281 8.89258L35.1953 12.6514Z" fill="black"/>
<path d="M25.7969 16.0713L18.2812 18.8076L16.9141 15.0488L24.4297 12.3125L25.7969 16.0713Z" fill="black"/>
<path d="M8.88281 22.2275L1.36719 24.9639L0 21.2051L7.51562 18.4688L8.88281 22.2275Z" fill="black"/>
<path fill-rule="evenodd" clip-rule="evenodd" d="M56 5.07812V0.822266L50.7422 2.73633L52.1094 6.49512L56 5.07812ZM42.7109 9.91504L35.1953 12.6514L33.8281 8.89258L41.3438 6.15625L42.7109 9.91504ZM18.2812 18.8076L25.7969 16.0713L24.4297 12.3125L16.9141 15.0488L18.2812 18.8076ZM1.36719 24.9639L8.88281 22.2275L7.51562 18.4688L0 21.2051L1.36719 24.9639Z" fill="black"/>
</svg>
