<svg width="200" height="240" viewBox="0 0 200 240" fill="none" xmlns="http://www.w3.org/2000/svg">
<g clip-path="url(#clip0_1752_47615)">
<path d="M0 104.77C4.31 106.15 8.26 105.18 11.805 102.635C13.485 101.425 15.24 100.555 17.04 101.565C18.175 102.2 19.275 103.65 19.515 104.905C19.735 106.06 19.15 107.815 18.28 108.64C16.645 110.2 14.71 111.91 12.62 112.425C8.515 113.445 4.22 113.685 0 114.25C0 111.09 0 107.93 0 104.77Z" fill="black"/>
<path d="M138.2 240C138.75 237.02 140.67 235.35 143.555 235.34C146.205 235.335 147.97 236.94 148.68 240H138.205H138.2Z" fill="black"/>
<path d="M0 133.71C1.865 136.005 1.865 137.205 0 139.7V133.71Z" fill="black"/>
<path d="M103.305 141.065C103.52 150.805 107.64 156.105 114.805 156.885C116.775 157.1 119.19 155.29 121.035 153.92C122.51 152.82 123.525 151.04 124.585 149.455C126.29 146.895 125.935 144.23 123.755 142.035C121.515 139.775 121.255 137.38 123.035 135.445C124.815 133.505 127.615 133.52 129.965 135.48C135.11 139.77 136.31 147.735 132.565 153.825C129.515 158.78 125.77 163.08 120.09 165.165C118.855 165.62 117.52 166.25 116.28 166.15C109.74 165.635 103.59 163.925 99.4801 158.32C96.2051 153.855 94.0701 149.04 94.1101 143.14C94.1351 139.605 91.9901 136.26 88.9951 133.875C88.3501 133.36 87.3251 132.985 87.1101 132.335C86.6251 130.86 85.8901 128.93 86.4651 127.795C87.1001 126.54 89.0451 125.34 90.4851 125.265C92.0251 125.185 93.9251 126.1 95.1601 127.17C100.115 131.47 102.7 137.07 103.31 141.065H103.305Z" fill="black"/>
<path d="M129.085 213.535C128.255 210.125 129.28 206.975 130.825 203.82C133.32 198.73 130.39 190.465 125.24 188.195C124 187.645 122.15 187.65 120.88 188.155C117.925 189.33 114.925 190.65 112.39 192.52C110.76 193.725 110.505 196.025 111.44 198.23C112.605 200.98 111.735 203.35 109.46 204.34C107.085 205.37 104.595 204.305 103.28 201.685C100.34 195.83 102.485 188.09 108.365 184.12C113.18 180.865 118.375 178.425 124.415 179.02C126.19 179.195 128.125 179.51 129.63 180.375C138.12 185.245 142.195 194.58 140.235 204.21C140.085 204.94 139.975 205.745 139.58 206.34C137.805 208.995 137.505 211.91 138.055 214.925C138.375 216.67 138.83 218.46 139.61 220.035C140.89 222.61 140.66 225.09 138.64 226.475C136.62 227.855 133.98 227.33 132.23 225.175C129.5 221.81 128.87 217.85 129.07 213.555L129.085 213.535Z" fill="black"/>
<path d="M48.9352 179.34C47.6102 182.195 49.1202 185.08 50.5152 187.895C51.2252 189.32 52.2852 190.675 53.4752 191.74C55.7052 193.745 56.3902 196 55.0402 198.07C53.6302 200.23 50.9302 200.755 48.4602 199.08C46.9752 198.075 45.3752 196.895 44.4902 195.405C41.5752 190.495 38.8302 185.585 39.7652 179.345C40.5752 173.955 34.2052 166.865 28.8902 166.78C27.5852 166.76 25.9752 167.355 25.0152 168.23C22.6602 170.37 20.3002 172.63 18.5252 175.24C17.3402 176.99 17.9802 179.195 19.5802 180.925C21.5952 183.105 21.6402 185.645 19.8702 187.345C17.9852 189.155 15.3602 189.025 13.1602 187.015C8.42519 182.685 7.62519 174.685 11.6402 169.005C14.9902 164.27 19.0002 160.165 24.8602 158.565C26.5102 158.115 28.3202 157.655 29.9652 157.875C39.6752 159.2 47.5302 167.32 48.8202 177.115C48.8952 177.69 48.8802 178.275 48.9302 179.335L48.9352 179.34Z" fill="black"/>
<path d="M87.8751 54.9199C86.6951 57.7949 87.7801 60.6799 89.2651 63.4049C90.1151 64.9549 91.1901 66.4749 92.4701 67.6749C94.5801 69.6599 95.2501 72.0649 93.8451 74.0449C92.3551 76.1499 89.6701 76.5899 87.2201 74.8699C85.7501 73.8349 84.1651 72.6499 83.2901 71.1499C80.4751 66.2949 77.7051 61.4649 78.6401 55.3199C79.4701 49.8749 73.4551 43.0149 67.9051 42.6249C66.7051 42.5399 65.1651 43.1199 64.2601 43.9299C61.8251 46.0949 59.3251 48.3249 57.4701 50.9649C56.2051 52.7649 56.8651 55.0549 58.5451 56.8699C60.5201 58.9999 60.4751 61.6049 58.6651 63.2899C56.8701 64.9649 54.2101 64.8249 52.1551 62.9549C47.1901 58.4399 46.4901 50.4649 50.7551 44.5649C54.1051 39.9299 58.0951 35.9499 63.8601 34.3799C65.2051 34.0149 66.6901 33.4499 67.9801 33.6899C74.4101 34.8849 80.3801 37.0549 83.8851 43.1699C85.9151 46.7099 87.5651 50.4149 87.8701 54.9199H87.8751Z" fill="black"/>
<path d="M38.1398 5.99006C42.5898 15.0201 41.0698 23.3801 34.9048 31.0751C34.2898 31.8451 33.5598 32.6001 32.7298 33.1051C27.9248 36.0051 25.6798 40.2751 25.4848 45.8251C25.4048 48.0801 23.9898 49.4801 21.7498 49.8501C19.6098 50.2001 17.6398 48.9201 16.9748 46.7301C15.9598 43.3601 16.5698 40.0751 18.1448 37.0701C20.3998 32.7601 22.6448 28.5801 27.2098 25.8401C31.7648 23.1101 33.0248 14.6001 30.0798 10.0901C29.3848 9.03006 27.8998 8.08506 26.6448 7.86506C23.4398 7.31006 20.1248 6.80006 16.9148 7.05006C14.7748 7.21506 13.3098 9.10506 12.9698 11.5751C12.5798 14.4301 10.4548 16.1001 8.05978 15.7151C5.44478 15.2951 3.99978 13.1001 4.18478 10.2251C4.42978 6.35506 6.38978 3.49506 9.25978 1.17006C15.149 -3.60105 34.9521 -0.47804 38.1398 5.99006Z" fill="black"/>
<path d="M137.69 58.72C131.95 57.99 126.85 54.75 123.305 49.815C117.01 41.055 119.755 29.99 129.055 24.425C132.655 22.27 136.375 20.945 140.74 20.72C144.12 20.545 147.35 18.61 149.42 15.575C151.285 12.835 153.625 11.925 155.84 13.315C157.995 14.665 158.515 17.205 156.755 19.895C153.035 25.575 147.56 28.86 140.9 29.29C135.19 29.66 129.24 33.155 128.335 40.095C128.235 40.855 128.445 41.73 128.745 42.455C130.22 45.975 133.26 47.91 136.41 49.62C138.595 50.805 140.945 50.13 142.9 48.15C144.835 46.185 147.065 45.885 148.89 47.345C150.8 48.875 150.99 51.305 149.4 53.585C146.69 57.465 142.67 58.455 137.695 58.725L137.69 58.72Z" fill="black"/>
<path d="M199.56 122.58C199.56 125.37 199.63 128.275 199.505 131.175C199.48 131.82 198.9 132.79 198.35 132.995C196.67 133.62 194.805 134.5 193.135 134.295C186.63 133.49 180.635 131.405 176.97 125.395C174.445 121.26 172.765 116.98 172.86 111.84C172.925 108.105 171.01 104.52 167.665 102.175C166.045 101.04 164.765 99.4898 165.425 97.6098C165.9 96.2498 167.25 94.8748 168.565 94.2398C169.515 93.7798 171.38 94.1198 172.25 94.8298C174.395 96.5698 176.68 98.4448 178.045 100.77C180.41 104.8 182.325 108.965 181.825 114.12C181.325 119.305 187.835 125.725 192.995 125.5C195.165 125.405 197.26 123.66 199.555 122.585L199.56 122.58Z" fill="black"/>
<path d="M199.56 164.185C198.38 163.69 197.48 163.315 196.58 162.94C192.34 161.17 189.575 161.76 186.41 165.125C185.67 165.91 184.945 166.715 184.225 167.52C181.54 170.525 181.475 173.03 184 176.12C185.63 178.115 185.64 180.585 184.02 182.19C182.195 183.995 179.695 183.975 177.51 182.135C173.29 178.575 171.79 171.435 174.545 166.14C177.985 159.535 183.17 154.62 190.59 153.04C193.115 152.5 196.035 153.72 198.75 154.255C199.09 154.32 199.51 155.11 199.52 155.575C199.59 158.365 199.555 161.16 199.555 164.185H199.56Z" fill="black"/>
<path d="M70.8252 116.37C70.8652 113.335 73.4052 110.995 76.5602 111.095C79.4802 111.185 81.6152 113.375 81.5502 116.2C81.4852 119.06 78.8452 121.655 76.0702 121.585C73.1152 121.505 70.7852 119.195 70.8202 116.37H70.8252Z" fill="black"/>
<path d="M36.9248 95.8C36.9448 98.76 34.6298 101.2 31.8548 101.14C29.0448 101.08 26.5298 98.42 26.5648 95.56C26.5998 93 29.1948 90.465 31.7698 90.48C34.5848 90.495 36.9048 92.89 36.9248 95.8Z" fill="black"/>
<path d="M12.9249 64.1799C12.9099 61.3949 15.1349 59.2399 18.0099 59.2599C21.1799 59.2799 23.3999 61.3899 23.4649 64.4449C23.5299 67.3599 21.2949 69.5649 18.2799 69.5599C15.3949 69.5599 12.9349 67.0849 12.9249 64.1749V64.1799Z" fill="black"/>
<path d="M108.38 85.3752C108.4 88.3502 106.02 90.7152 103.005 90.7252C100.155 90.7302 97.8102 88.5052 97.8052 85.7952C97.8002 82.9652 100.415 80.3502 103.225 80.3752C106.02 80.4002 108.36 82.6702 108.38 85.3752Z" fill="black"/>
<path d="M63.73 214.825C60.835 214.635 58.715 212.3 58.93 209.545C59.155 206.685 61.905 204.32 64.73 204.56C67.59 204.805 69.685 207.145 69.515 209.905C69.335 212.84 66.76 215.03 63.73 214.83V214.825Z" fill="black"/>
<path d="M151.03 85.3252C150.995 82.3402 153.365 80.0352 156.435 80.0652C159.23 80.0952 161.4 82.1902 161.415 84.8802C161.43 87.6052 158.93 90.1952 156.23 90.2402C153.43 90.2902 151.06 88.0502 151.03 85.3202V85.3252Z" fill="black"/>
<path d="M199.565 63.0351C199.565 63.8601 199.565 64.6901 199.565 65.5151C199.55 67.8851 198.755 68.5601 196.44 68.1901C193.71 67.7551 191.805 65.3651 191.93 62.5351C192.05 59.8201 194 57.8751 196.66 57.7701C198.61 57.6951 199.92 58.2001 199.58 60.5551C199.465 61.3651 199.56 62.2051 199.56 63.0351H199.565Z" fill="black"/>
<path d="M165.58 0.47998C166.16 0.47998 166.735 0.47998 167.315 0.47998C170.085 0.48498 171.21 2.00998 170.445 4.69498C169.79 6.99498 167.77 8.37998 165.38 8.15998C163.03 7.94498 160.97 6.00498 160.69 3.74998C160.4 1.40998 161.21 0.49498 163.6 0.47998C164.26 0.47998 164.92 0.47998 165.58 0.47998Z" fill="black"/>
</g>
<defs>
<clipPath id="clip0_1752_47615">
<rect width="200" height="240" fill="white"/>
</clipPath>
</defs>
</svg>
