<svg fill="none" xmlns="http://www.w3.org/2000/svg" viewBox="0 0 300 200">
  <path d="M128.53 78.98c-7.23 1.82-14.23 1.77-21.56.91-21.9-2.58-42.68-8.51-62.06-19.16-3.48-1.91-7.29-2.61-10.67.1-3.56 2.86-6.09 6.07-4.98 11.45C31.12 81.3 32 90.53 33.7 99.59c2.82 15.01 6.49 29.91 15.78 42.38 9.22 12.38 21.33 20.54 36.27 21.71 3.58-.32 6.09-.33 8.5-.81 15.09-3 24.3-13.41 31.64-25.83 8.21-13.88 11.07-29.69 15.07-45 2.15-8.23-4.52-15.05-12.44-13.06h.01ZM266.17 37.98c-2.98-2.08-6.2-2.71-9.81-.98-5.48 2.63-9.43 7.21-14.26 10.63-22.94 16.26-47.72 27.57-76.5 28.18-6.81.14-10.11 4.6-10.63 11.23-.31 3.98 2.87 6.11 3.38 9.59.69 4.7 2.08 9.32 3.71 13.86 4.7 13.04 12.58 24.19 21.98 33.92 7.65 7.92 16.74 14.77 29.02 14 13.72.81 26.12-7.27 33.85-18.39 14.05-20.21 20.59-42.86 22.04-67.4.49-8.37-.29-16.85 1.49-25.2.81-3.81-1.07-7.22-4.27-9.45v.01Z" fill="#FEFEFE"/>
</svg>
