<svg fill="none" xmlns="http://www.w3.org/2000/svg" viewBox="0 0 300 200">
  <path d="M238.26 130.05c-3.88 5.83-8.86 10.15-15.57 12.52-11.3 3.99-19.66-1.68-27.42-8.47-13.24-11.58-20.11-26.85-24.11-43.63-.44-1.84-.4-3.17 1.95-3.58 30.34-5.3 58.1-16.65 83.18-36.17 1.46 28.81-2.18 55.47-18.03 79.33ZM128.25 92.9c-2.78 16.14-6.95 31.71-17.76 44.64-9.76 11.68-23.78 14.25-37.02 6.78a43.27 43.27 0 0 1-19-20.94c-6.28-14.44-11.67-40.86-10.39-52.79 11.45 4.34 22.53 9.45 34.44 12.39 15.32 3.78 30.62 7.26 46.53 6.73 2.41-.08 3.7.27 3.2 3.19Z" fill="#FEFEFE"/>
</svg>
