<svg fill="none" xmlns="http://www.w3.org/2000/svg" viewBox="0 0 300 200">
  <path d="M132.51 66.94h-.01c-.68-.24-1.49-.51-2.38-.73-5.39-1.35-11.04-1.54-15.16-1.86-7.77-.6-15.73-.42-26.38-.5-4.17-.07-11.78.18-19.23.67-6.24.41-12.37 1.19-18.33 2.06-3.84.56-7.67 1.58-10.69 2.3a43.37 43.37 0 0 1-8.51 1.38c-6.39.21-11.45 6.54-9.3 13.11 0 .06 0 .13-.02.24-.21 2.02-.12 4.21.53 6.48.39 1.37.74 2.74 1.14 4.26 3.22 12.23 8.94 23.44 18.31 32.84a40.3 40.3 0 0 0 13.82 9.05 164.3 164.3 0 0 0 14.26 4.88c9.6 2.83 19.76 3.95 30.32 1.7 5.98-1.27 12.63-3.43 18.36-8.4a52.23 52.23 0 0 0 8.25-8.97c6.12-8.48 8.82-17.96 10.64-26.69 1.21-5.78 2.04-11.9 2.91-17.16a13.07 13.07 0 0 0-8.52-14.65l-.01-.01ZM277.92 73.88c-.07-1.96 0-6.75-2.9-11.1-.52-.79-2.48-3.98-6.62-5.12h-.02a39.73 39.73 0 0 0-3.87-.9c-4.73-.81-9.68-.67-13.11-.73-10.45-.18-20.8.41-30.94 1.23-9.67.78-19.63 1.49-29.53 2.57a107.7 107.7 0 0 0-22.98 5.11c-4.34 1.47-8.81 6.19-7.8 12.44.48 2.97.52 6.08.51 9.84 0 7.13 1.53 13.89 4.34 20.25.72 1.64 2.25 5.99 4.61 9.27 2.48 3.46 5.12 6.75 7.81 9.9a14 14 0 0 0 2.65 2.47c11.67 8.21 24.89 13.02 39.91 12.52 4.36.08 8.91-.25 13.49-1.35 5.94-1.43 11.12-4.09 15.62-6.91 13.08-8.19 21.3-20.02 25.94-33.88 2.94-8.78 3.18-17.6 2.91-25.61h-.02Z" fill="#fff"/>
</svg>
