<svg fill="none" xmlns="http://www.w3.org/2000/svg" viewBox="0 0 300 200">
  <path d="M260.04 103.25c-6.06 11.82-15.09 20.41-27.79 25.02-3.54 1.29-7.24 1.68-10.96 1.8-9.5.3-18.66-1.14-27.33-5.22a46.55 46.55 0 0 1-9.18-5.64 18.66 18.66 0 0 1-4.63-5.41c-5.31-9.4-8.47-19.36-7.76-30.28.16-2.4.27-4.8.37-7.2.03-.64.37-.91.91-1.14 2.75-1.19 5.69-1.65 8.58-2.27 7.22-1.55 14.56-2.24 21.91-2.8 6.56-.5 13.13-1.03 19.69-1.59 5.92-.51 11.86-.72 17.8-.74 4.05 0 8.1-.08 12.14.23 2.92.22 5.84.48 8.65 1.43.53.18.73.47.9 1 1.25 3.85 1.61 7.82 1.82 11.82.39 7.5-1.75 14.4-5.13 20.99h.01ZM128.2 81.84a67.5 67.5 0 0 1-6.05 29.9 40.01 40.01 0 0 1-9.44 12.9c-4.05 3.79-9.02 5.59-14.33 6.78-5.98 1.34-11.97 1.09-17.93.13a87.59 87.59 0 0 1-22-6.52 17.84 17.84 0 0 1-5.82-4.07c-4.86-5.19-9.2-10.75-12.45-17.09-2.58-5.02-3.79-10.42-4.29-15.99-.17-1.92-.46-3.86 0-5.81.15-.65.43-.97 1.06-1.09 2.95-.55 5.9-1.1 8.84-1.69 14.44-2.92 29.06-3.88 43.29-3.82l.02-.02c8.08-.1 15.67.03 23.24.65 4.21.35 8.4.84 12.54 1.69 1.05.21 2.17.42 3 1.07.98.78.29 1.98.32 2.98Z" fill="#fff"/>
</svg>
