<svg fill="none" xmlns="http://www.w3.org/2000/svg" viewBox="0 0 300 200">
  <path d="M128.53 78.98c-7.23 1.82-14.23 1.77-21.56.91-21.9-2.58-42.68-8.51-62.06-19.16-3.48-1.91-7.29-2.61-10.67.1-3.56 2.86-6.09 6.07-4.98 11.45C31.12 81.3 32 90.53 33.7 99.59c2.82 15.01 6.49 29.91 15.78 42.38 9.22 12.38 21.33 20.54 36.27 21.71 3.58-.32 6.09-.33 8.5-.81 15.09-3 24.3-13.41 31.64-25.83 8.21-13.88 11.07-29.69 15.07-45 2.15-8.23-4.51-15.04-12.43-13.06Zm-56.06 68.34a43.27 43.27 0 0 1-19-20.94c-6.28-14.44-11.67-40.86-10.39-52.79 11.45 4.34 22.53 9.45 34.44 12.39 15.32 3.78 30.62 7.26 46.53 6.73 2.41-.08 3.7.27 3.2 3.19-2.78 16.14-6.95 31.71-17.76 44.64-9.76 11.68-23.78 14.25-37.02 6.78Z" fill="#FEFEFE"/>
  <path d="M129.44 87c-7.47 2.5-15.08 1.91-22.66 1.06C83.85 85.49 62 79.24 41.63 68.22c-1.09-.59-2.18-1.07-3.26-.42-1.43.86-.94 2.33-.75 3.6.65 4.26 1.45 8.5 2.01 12.77 2.14 16.49 4.81 32.94 12.96 47.68 7.45 13.48 18.9 21.85 34.5 23.69 4.88 0 9.3-1.25 13.48-3.42 7.45-3.88 12.63-10.05 17.04-17 8.7-13.73 10.98-29.68 15.54-44.84.84-2.78-.96-4.2-3.72-3.28h.01Zm-2.19 8.9c-2.78 16.14-6.95 31.71-17.76 44.64-9.76 11.68-23.78 14.25-37.02 6.78a43.27 43.27 0 0 1-19-20.94c-6.28-14.44-11.67-40.86-10.39-52.79 11.45 4.34 22.53 9.45 34.44 12.39 15.32 3.78 30.62 7.26 46.53 6.73 2.41-.08 3.7.27 3.2 3.19Z" fill="#0C0C0C"/>
  <path d="M266.17 37.97c-2.98-2.07-6.2-2.7-9.81-.97-5.48 2.63-9.43 7.21-14.26 10.63-22.94 16.26-47.72 27.57-76.5 28.18-6.81.14-10.11 4.6-10.63 11.23-.31 3.98 2.87 6.11 3.38 9.59.69 4.7 2.08 9.32 3.71 13.86 4.7 13.04 12.58 24.19 21.98 33.92 7.65 7.92 16.74 14.77 29.02 14 13.72.81 26.12-7.27 33.85-18.39 14.05-20.21 20.59-42.86 22.04-67.4.49-8.37-.29-16.85 1.49-25.2.81-3.81-1.07-7.22-4.27-9.45Zm-44.48 107.6c-11.3 3.99-19.66-1.68-27.42-8.47-13.24-11.58-20.11-26.85-24.11-43.63-.44-1.84-.4-3.17 1.95-3.58 30.34-5.3 58.1-16.65 83.18-36.17 1.46 28.81-2.18 55.47-18.03 79.33-3.88 5.83-8.86 10.15-15.57 12.52Z" fill="#FEFEFE"/>
  <path d="M258.83 44.87a19.01 19.01 0 0 0-4.88 3.35 133.3 133.3 0 0 1-29.18 19.63c-16.83 8.48-34.35 14.59-53.3 15.92h.01c-1.16.01-2.32.05-3.48.01-1.86-.07-3.86-.18-4.79 1.76-.83 1.75.43 3.09 1.53 4.39 1.47 1.75 1.45 4.04 1.84 6.12 3.31 17.6 12.5 32.03 24.95 44.33 14.95 14.76 36.1 12.93 48.15-4.04a112.12 112.12 0 0 0 18.23-41.54c3.41-15.67 2.56-31.67 4.29-47.46.29-2.64-1.27-3.4-3.37-2.47Zm-21.57 88.18c-3.88 5.83-8.86 10.15-15.57 12.52-11.3 3.99-19.66-1.68-27.42-8.47-13.24-11.58-20.11-26.85-24.11-43.63-.44-1.84-.4-3.17 1.95-3.58 30.34-5.3 58.1-16.65 83.18-36.17 1.46 28.81-2.18 55.47-18.03 79.33Z" fill="#0C0C0C"/>
</svg>
