<svg fill="none" xmlns="http://www.w3.org/2000/svg" viewBox="0 0 300 200">
  <path d="M132.5 66.95h-.01l-.01-.01c-.68-.24-1.49-.51-2.38-.73-5.39-1.35-11.04-1.54-15.16-1.86-7.77-.6-15.73-.42-26.38-.5-4.17-.07-11.78.18-19.23.67-6.24.41-12.37 1.19-18.33 2.06-3.84.56-7.67 1.58-10.69 2.3a43.37 43.37 0 0 1-8.51 1.38c-6.39.21-11.45 6.54-9.3 13.11 0 .06 0 .13-.02.24-.21 2.02-.12 4.21.53 6.48.39 1.37.74 2.74 1.14 4.26 3.22 12.23 8.94 23.44 18.31 32.84a40.3 40.3 0 0 0 13.82 9.05 164.3 164.3 0 0 0 14.26 4.88c9.6 2.83 19.76 3.95 30.32 1.7 5.98-1.27 12.63-3.43 18.36-8.4a52.23 52.23 0 0 0 8.25-8.97c6.12-8.48 8.82-17.96 10.64-26.69 1.21-5.78 2.04-11.9 2.91-17.16a13.07 13.07 0 0 0-8.52-14.65Zm-52.05 64.6a87.59 87.59 0 0 1-22-6.52 17.84 17.84 0 0 1-5.82-4.07c-4.86-5.19-9.2-10.75-12.45-17.09-2.58-5.02-3.79-10.42-4.29-15.99-.17-1.92-.46-3.86 0-5.81.15-.65.43-.97 1.06-1.09 2.95-.55 5.9-1.1 8.84-1.69 14.44-2.92 29.06-3.88 43.29-3.82l.02-.02c8.08-.1 15.67.03 23.24.65 4.21.35 8.4.84 12.54 1.69 1.05.21 2.17.42 3 1.07.98.78.29 1.98.32 2.98a67.5 67.5 0 0 1-6.05 29.9 40.01 40.01 0 0 1-9.44 12.9c-4.05 3.79-9.02 5.59-14.33 6.78-5.98 1.34-11.97 1.09-17.93.13Z" fill="#fff"/>
  <path d="M129.79 74.48a19.4 19.4 0 0 0-1.64-.51c-4.54-1.13-9.21-1.28-13.84-1.64-7.4-.58-14.82-.39-25.82-.48h-.01c-3.84-.06-11.25.17-18.65.66-5.93.39-11.82 1.13-17.7 1.99-6.75.98-13.2 3.53-20.1 3.75-1.44.05-2.41 1.49-1.94 2.73.44 1.14.44 2.28.32 3.44a9.22 9.22 0 0 0 .27 3.47c.41 1.47.79 2.94 1.18 4.41 2.92 11.1 8.03 20.99 16.24 29.24a32.36 32.36 0 0 0 11.11 7.26c4.43 1.76 8.97 3.29 13.56 4.64 8.67 2.55 17.45 3.45 26.39 1.55 5.41-1.15 10.53-2.93 14.79-6.62a44.3 44.3 0 0 0 7.01-7.6c5.12-7.1 7.54-15.25 9.29-23.64 1.17-5.58 1.92-11.23 2.86-16.85a5.06 5.06 0 0 0-3.32-5.8Zm-7.64 37.26a40.01 40.01 0 0 1-9.44 12.9c-4.05 3.79-9.02 5.59-14.33 6.78-5.98 1.34-11.97 1.09-17.93.13a87.59 87.59 0 0 1-22-6.52 17.84 17.84 0 0 1-5.82-4.07c-4.86-5.19-9.2-10.75-12.45-17.09-2.58-5.02-3.79-10.42-4.29-15.99-.17-1.92-.46-3.86 0-5.81.15-.65.43-.97 1.06-1.09 2.95-.55 5.9-1.1 8.84-1.69 14.44-2.92 29.06-3.88 43.29-3.82l.02-.02c8.08-.1 15.67.03 23.24.65 4.21.35 8.4.84 12.54 1.69 1.05.21 2.17.42 3 1.07.98.78.29 1.98.32 2.98a67.5 67.5 0 0 1-6.05 29.9Z" fill="#050505"/>
  <path d="M277.92 73.88h-.02c-.07-1.96 0-6.75-2.9-11.1-.52-.79-2.48-3.98-6.62-5.12h-.02a39.73 39.73 0 0 0-3.87-.9c-4.73-.81-9.68-.67-13.11-.73-10.45-.18-20.8.41-30.94 1.23-9.67.78-19.63 1.49-29.53 2.57a107.7 107.7 0 0 0-22.98 5.11c-4.34 1.47-8.81 6.19-7.8 12.44.48 2.97.52 6.08.51 9.84 0 7.13 1.53 13.89 4.34 20.25.72 1.64 2.25 5.99 4.61 9.27 2.48 3.46 5.12 6.75 7.81 9.9a14 14 0 0 0 2.65 2.47c11.67 8.21 24.89 13.02 39.91 12.52 4.36.08 8.91-.25 13.49-1.35 5.94-1.43 11.12-4.09 15.62-6.91 13.08-8.19 21.3-20.02 25.94-33.88 2.94-8.78 3.18-17.6 2.91-25.61Zm-92.14 45.33a18.66 18.66 0 0 1-4.63-5.41c-5.31-9.4-8.47-19.36-7.76-30.28.16-2.4.27-4.8.37-7.2.03-.64.37-.91.91-1.14 2.75-1.19 5.69-1.65 8.58-2.27 7.22-1.55 14.56-2.24 21.91-2.8 6.56-.5 13.13-1.03 19.69-1.59 5.92-.51 11.86-.72 17.8-.74 4.05 0 8.1-.08 12.14.23 2.92.22 5.84.48 8.65 1.43.53.18.73.47.9 1 1.25 3.85 1.61 7.82 1.82 11.82.39 7.5-1.75 14.4-5.13 20.99-6.06 11.82-15.09 20.41-27.79 25.02-3.54 1.29-7.24 1.68-10.96 1.8-9.5.3-18.66-1.14-27.33-5.22a46.55 46.55 0 0 1-9.18-5.64h.01Z" fill="#fff"/>
  <path d="M269.92 74.15c-.08-2.39-.14-4.8-1.57-6.95-.57-.85-1.1-1.56-2.08-1.83a33.8 33.8 0 0 0-3.13-.73c-3.94-.67-7.93-.54-11.9-.61-10.07-.17-20.12.4-30.16 1.21-9.78.79-19.56 1.49-29.32 2.55a99.8 99.8 0 0 0-21.29 4.73c-1.56.53-2.7 2.1-2.46 3.59.59 3.69.61 7.41.61 11.13a41.5 41.5 0 0 0 3.65 17.01c1.17 2.65 2.08 5.45 3.79 7.83 2.32 3.23 4.82 6.34 7.4 9.38.34.4.72.8 1.15 1.1 10.54 7.42 22.15 11.56 35.25 11.07h.02c3.93.07 7.85-.22 11.7-1.14 4.78-1.15 9.13-3.33 13.24-5.91 11.27-7.06 18.45-17.25 22.6-29.64 2.48-7.4 2.76-15.08 2.5-22.79Zm-8.88 29.1c-6.06 11.82-15.09 20.41-27.79 25.02-3.54 1.29-7.24 1.68-10.96 1.8-9.5.3-18.66-1.14-27.33-5.22a46.55 46.55 0 0 1-9.18-5.64 18.66 18.66 0 0 1-4.63-5.41c-5.31-9.4-8.47-19.36-7.76-30.28.16-2.4.27-4.8.37-7.2.03-.64.37-.91.91-1.14 2.75-1.19 5.69-1.65 8.58-2.27 7.22-1.55 14.56-2.24 21.91-2.8 6.56-.5 13.13-1.03 19.69-1.59 5.92-.51 11.86-.72 17.8-.74 4.05 0 8.1-.08 12.14.23 2.92.22 5.84.48 8.65 1.43.53.18.73.47.9 1 1.25 3.85 1.61 7.82 1.82 11.82.39 7.5-1.75 14.4-5.13 20.99h.01Z" fill="#050505"/>
</svg>
