<svg fill="none" xmlns="http://www.w3.org/2000/svg" viewBox="0 0 300 200">
  <path d="M107.31 102.45c.03 3.99-.22 7.51-1.32 10.93a16.76 16.76 0 0 1-5.93 8.28c-3.46 2.66-7.23 2.73-11.1.84a6.2 6.2 0 0 1-2.03-1.71 21.73 21.73 0 0 1-4.89-10.66c-.65-3.87-1.17-7.68-.95-11.59a45.56 45.56 0 0 1 3.56-15.01c1.19-2.85 3.32-4.71 6.08-5.97a7.84 7.84 0 0 1 2.25-.57c2.27-.03 3.97-.19 6.22.58 1 .34 1.6 1.03 2.14 1.8 1.77 2.5 2.62 5.4 3.67 8.22.16.44.02.56-.39.61-3.49.4-6.42 2.07-9.23 4.01-.89.62-1.45 1.39-1.28 2.5.13.88.66 1.49 1.53 1.75 1.1.33 1.9-.16 2.69-.89 2.03-1.87 4.48-2.52 7.21-2.29.73.06 1 .43 1.12 1.15.45 2.81.71 5.62.65 8.03v-.01Z" fill="#010101"/>
</svg>
