<svg fill="none" xmlns="http://www.w3.org/2000/svg" viewBox="0 0 300 200">
  <path d="M247.73 93.46c-.04 4.91-.55 9.75-2.44 14.36-1.4 3.42-3.38 6.4-6.78 8.21a11.74 11.74 0 0 1-8.53 1.12c-3.67-.88-5.62-3.49-7.01-6.74-4.09-9.56-3.83-19.28-1.27-29.11a30.7 30.7 0 0 1 3.04-7.66 8.6 8.6 0 0 1 3.16-3.18c1.4-.83 3.69-1.28 5.13-1.35 2.46-.12 3.97-.03 6.52.48 2.08.31 3.65 1.64 4.74 3.42 1.85 3.01 2.43 6.39 2.93 9.8.07.49-.19.61-.57.7-2.93.76-5.6 2.12-8.29 3.44-.38.19-.76.4-1.08.68-.85.72-1.05 1.8-.53 2.68.51.88 1.57 1.26 2.61.88.46-.17.9-.43 1.33-.68a13.78 13.78 0 0 1 6.24-1.73c.62-.04.81.14.8.74-.03 1.31 0 2.62 0 3.93v.01Z" fill="#010101"/>
</svg>
