<svg fill="none" xmlns="http://www.w3.org/2000/svg" viewBox="0 0 1440 900">
  <g fill="#000">
    <path d="M389.3 426c-1.1-1.4-2.2-2.5-3-3.7-2.2-2.9-2.2-6.1-1-9.2 1.2-3 3.8-4.1 6.9-4.2 3.2-.1 6.3.6 9 2.7 1.9-7 7.8-7.7 13.4-4.3 3.4 2 4.6 5.5 4.6 9.3 0 .7-.4 1.5-1 2-6.3 6.5-12.8 12.9-19.2 19.3l-3.8 4c-.5.4-1.3 1-1.8.8-3-1-6.3-1.8-9-3.2-4.8-2.5-3.4-7.2-1.4-10.1 1-1.6 2.5-2.9 4.7-3 .5 0 1-.2 1.6-.4ZM391.6 82.6c2.5-.8 5-2.2 7.5-2.2 5.3 0 9.8 3.4 8.3 9.7a13 13 0 0 1-4.3 7.6c1.3 1.6 2.9 3 3.6 4.6a7 7 0 0 1 0 4.8c-2.2 6.1-6.8 8.7-13.4 7.2-.7-.1-1.3-.9-1.7-1.5l-14-23.3-3-4.7c-.2-.5-.5-1.5-.2-2 1.5-3.1 3.1-6.3 6-8.6 2-1.6 4-1.6 6.2-.6 3.6 1.7 4.6 3.7 5 9ZM258 319.6c.6-2.1.9-4.8 2.2-6.9 3.2-4.9 8.8-6 13-1.3 2 2.4 3.4 5 3.5 8.3 4.6-1.7 7.7-1.3 9.8 1.7 3.7 5.4 3.3 10.7-1.8 15.4-.4.4-1.4.5-2.2.5l-24.7-1.7-7.9-.5c-.6-.1-1.6-.5-1.8-1-1.3-3-2.8-6-3.4-9.1-.9-4.2 2.8-7.7 7.4-7.3 2 .2 4 1.2 5.8 1.9ZM595.5 315.4c.3-2.6.2-5.3 1.2-7.5 2.3-5.3 7.8-7.5 12.7-3.3 2.3 2 4 4.4 4.6 7 2.1-.4 4.2-1.2 6.3-1 4.6.1 9.3 8 6.4 14-1.2 2.3-2.4 4.2-5.6 4.3-8.5.5-17.1 1.3-25.7 2-1.8.2-3.6.5-5.5.6-.6 0-1.6-.2-1.9-.6-1.6-2.7-3.6-5.3-4.7-8.2-1.6-4.2 1.4-8.3 6.2-8.7 1.5-.1 3.1.5 4.7.9.5 0 1 .4 1.3.5ZM446.8 206.3c4.8 2.3 6 6.3 3.7 10.9a10.6 10.6 0 0 1-11.9 5.7 4 4 0 0 1-2.3-1.5L423.2 201c-1.5-2.3-3-4.5-4.4-6.9-.4-.6-.8-1.7-.5-2.3 1.4-2.5 2.7-5.2 4.5-7.4 3.2-3.7 8.1-3.4 10.9.7 1.2 1.8 1.5 4.1 2.2 6 2-.6 4.4-2 6.9-2.2 5.7-.4 10 3.5 8.6 9.7-.6 3-2 5.7-4.6 7.8ZM270 42.9c.7-2.1 1.2-4.8 2.6-6.8 3.5-4.8 9.2-5.7 13-.6 1.6 2.3 2.6 5.2 3.8 7.8 1.6 0 3.6-.4 5.5 0 4.5 1 6.8 8.5 5.1 12.5l-1.4 2.8c-1.5 2.2-3.2 3.5-6.3 3-8.3-1.2-16.7-2-25.1-3l-6-.6c-.6-.1-1.6-.6-1.8-1.2-1-2.6-2.3-5.2-2.8-8-1-5 2.7-8.8 7.8-8 2 .2 3.8 1.4 5.6 2.1ZM105.9 251.8c6 2.5 6 8.3 1.9 13.5-2.5 3.1-6 3.9-9.9 3.5-.6 0-1.4-.7-1.8-1.2L80.9 248c-1.6-2.1-3.4-4.1-4.9-6.3-.4-.6-.8-1.7-.6-2.3 1.2-2.6 2.2-5.4 3.9-7.7 2.7-3.8 7.1-4 10.5-.6 1.4 1.3 2.6 2.8 2.4 5l.2 1.4c2.3-1 4.5-2.6 6.8-3 6.8-1 11 3.2 9.7 9.3-.6 2.7-2 5.2-3 8ZM655.5 53.6l.2-4c.5-3.8 2.6-6.3 6-7.9 2.5-1.2 6.1-.4 8.2 2.2 1.7 2.3 3.1 5 4.6 7.3 1.6-.2 3.8-.7 5.8-.4 4.4.5 8.5 8.6 5.3 14.2-1.5 2.5-3 4.4-6.4 4.2-8.5-.3-17-.3-25.4-.3l-5.6.1c-.6 0-1.6-.3-1.8-.7-1.5-3-3.2-5.9-4-9-1.1-3.9 1.5-7 5.8-7.8 2-.3 4-.3 5.8 1.3.3.3.8.5 1.5.8ZM36.8 72.6c2.6-1 4.9-2.7 7.4-3 5.3-.6 10 2.3 9.3 8.7a13 13 0 0 1-4 8.4c3.4 1.4 5.7 3.5 5.4 7.2a10.6 10.6 0 0 1-7.9 9.8c-3 .6-5.6 1-7.8-2.2-5-7-10.2-13.7-15.4-20.5l-3.5-4.3c-.3-.5-.7-1.4-.5-2 1.2-3.3 2.4-6.6 5.1-9.2 1.8-1.8 3.7-2 5.8-1.3 3.7 1 5.7 3.6 6 7.4l.1 1ZM182.3 24.4c3.3 1.2 5.7 3 5.7 6.6a10.6 10.6 0 0 1-8.2 10.8c-2.7.6-5 .5-7-2-5.4-6.6-11-13-16.6-19.4-1-1.3-2.2-2.5-3.4-3.7-1.1-1-1.3-2.2-.7-3.5 1-2.4 1.8-4.9 3.2-7 2.6-4.1 7-4.4 10.8-1 2 1.7 2.4 3.9 2.5 6 2.3-1.2 4.5-2.9 6.8-3.4 5.9-1.3 10.7 1.9 10.2 8.2a13 13 0 0 1-3.3 8.4ZM171.1 399.5c.5-7.2 6-9.1 12.3-6.9 3.8 1.4 5.6 4.7 6.4 8.5.2.5-.1 1.4-.5 2l-13.9 20.5c-1.4 2.2-2.8 4.4-4.4 6.6-.4.6-1.2 1.3-1.7 1.3-3.2-.4-6.4-.5-9.4-1.5-4-1.3-5.4-5.4-3.4-9.5.9-1.8 2-3.4 4-3.8.6-.2 1-.6 1.3-.7-1.7-2-4-3.6-5.1-5.9-2.4-5-1-10.3 5.1-11.6 3.1-.7 6.2-.6 9.3 1ZM266.4 207c2.4-1 4.6-2.6 7-3 6-.7 10.6 2.8 9.5 9.3a13 13 0 0 1-4 7.8c3.6 1.6 6 4.2 5.2 8-1.4 6.8-6 10.1-13 9.2-.7 0-1.3-.7-1.7-1.3l-14.7-19.7c-1.6-2.2-3.3-4.3-4.8-6.5-.4-.6-.8-1.6-.5-2.1 1.2-2.7 2.3-5.4 4-7.7 2.8-3.9 6.9-4 10.4-.7 1.5 1.4 2.7 3 2.4 5.3l.2 1.3ZM-16.8 236.6c-.8-4.5.2-7.4 3.5-8.9 4.4-2 8.4-2 12.2 1.3 2.1 2 3.6 3.9 2.5 7.2-2.6 8.2-4.7 16.4-7 24.6l-1.4 5.4c-.2.6-.7 1.4-1.3 1.6-3.3 1-6.6 2-10.3 1.6-2.4-.4-3.9-1.8-4.7-4a7.8 7.8 0 0 1 2.4-9.2l1.5-1-3.1-1a9.9 9.9 0 0 1-7.1-7.5c-.8-3 1-6.5 4.2-8 1.3-.7 2.7-1.4 4-1.7 1.5-.3 3-.3 4.6-.4ZM678.3 452.4c2.8 1 5 3.2 4.8 6.8a10.5 10.5 0 0 1-8.6 10.2c-2.6.6-4.8.4-6.8-2-5.2-6.9-10.7-13.5-16.2-20.1l-3.5-4c-.4-.6-.8-1.6-.6-2.2 1.1-3.4 2.2-6.8 4.8-9.4 1.6-1.6 3.4-2 5.5-1.5 3.9 1 5.9 3.3 6.4 7.4 0 .4.2.8.3 1 2.2-1.2 4.3-2.8 6.6-3.2 6.6-1.4 11.2 2.7 10 9-.5 2.7-1.7 5.2-2.7 8ZM427.1 27.2c-1.5-2-3.5-3.9-4.4-6.2-2.2-5.7.4-10.8 6.6-11.3 3.4-.2 4 0 8.8 1.8 1.2-6.8 6.8-8.1 12.8-5.3 3.7 1.7 5.2 5.2 5.6 9.1.1.6-.3 1.4-.7 2l-16 18.9-4.9 6c-.8 1-1.7 1.5-3 1.1-2.6-.6-5.2-1-7.6-2-5.5-2.2-4.7-6.9-3-10.2 1-1.8 2.4-3.2 4.6-3.4.5 0 1-.4 1.2-.5ZM523.4 472.8c.7-9.2 4.3-16.7 13-20.9 3.8-1.7 8-1.3 12-.3a27 27 0 0 1 14.4 9.3 17 17 0 0 1 2.7 16.5c-3 10-10.2 15.5-20.3 17.1-4.5.7-8.4-1-12-3.6-5.2-3.5-8.9-8-9.5-14.3l-.3-3.8Zm5.7 8.6c3.1 6.2 15.2 9.5 21.4 6.6 7.7-3.6 13.2-15.7 9.2-22.2l-30.6 15.6Zm-1.2-3.5 29.7-16a32.4 32.4 0 0 0-14-6.2c-3.6-.5-7 0-9.7 2.5-1.6 1.7-3 3.8-4 5.8-2.3 4.3-3.8 8.8-2 13.9ZM485.1 73.5c9.2.7 16.6 4.3 20.8 13 1.6 3.2 1.4 6.7.7 10.1a26.3 26.3 0 0 1-11.3 17.4c-4.2 2.8-8.9 3-13.6 2a24.3 24.3 0 0 1-18.4-22.2c0-3.5 1.1-6.6 3-9.5 4.3-6.9 10.2-11.1 18.8-10.8Zm7 36.6-2.8-5.6c-4-7.6-7.7-15.2-11.6-22.8-1.5-2.7-2.5-2.8-4.5-.3a31 31 0 0 0-4.4 11.3c-.8 4.8 1 8.4 3.8 11.9 2.5 3.2 6.2 4.2 9.6 5.9 3.5 1.7 6.5.4 10-.4ZM480 78l15.8 29.4c.5-.5 1-.8 1.2-1.3 1.6-3.4 3.5-6.7 4.7-10.3 1.3-4.2 1.1-8.6-2.1-12-2.8-3-6.6-4.6-10.5-5.9-3-1-6-1-9.1 0ZM68.1 30.5c-6.5.3-11-3.2-14.9-8.1-5.4-6.7-5.8-14-2.6-21.5 3.2-7.6 9-13.2 17.7-14a24.8 24.8 0 0 1 22.6 16c3 7.3.7 14-4.3 19.6-4.8 5.3-11 8-18.5 8ZM86.7 6.2l-5.9 1.4L55.3 13c-2.7.6-3 1.1-1.5 3.5.6 1 1.3 1.7 2 2.5 2.5 2.3 5.3 4 8.5 5.4 4 1.8 7.7 1.1 11.5-.4 3.8-1.6 6-4.7 8.5-7.7 2.6-3 2.4-6.4 2.4-10.2ZM85.5 2c-4.6-5-9-9.4-15.5-10.6-3.1-.6-6.2 0-8.5 2.2a62 62 0 0 0-6 6.6 13 13 0 0 0-2.8 9.6L85.4 2ZM481.9 387.7c.5-8 3.7-14.8 10.9-19.4 4.5-3 9.4-2.6 14.2-1.4a25.8 25.8 0 0 1 14.5 9.5c4.7 6.2 4.5 13.2 1.2 19.9-3 6.3-8.2 10.5-15 12.6a17 17 0 0 1-15.3-2.2c-5.1-3.5-9.2-7.7-10.1-14l-.4-5Zm5.8 8.8c2.4 6 14.6 9.6 20.8 7 8.1-3.5 13.8-15.8 9.8-22.4l-30.6 15.4Zm28.5-19.2a33.1 33.1 0 0 0-13.7-6.3c-4.2-.7-8.3-.1-11 3.4a46.3 46.3 0 0 0-5.3 10.3c-1 2.7-1 5.6.3 8.3l29.7-15.7ZM583.8 112.4c-5 .2-9.3-1.8-12.8-5.7-4.4-4.9-7.5-10.4-6.4-17.3a23.6 23.6 0 0 1 16.5-20.1 15 15 0 0 1 10.7.8 26 26 0 0 1 14.8 14.7c3 7.3.8 14-4.2 19.6-4.8 5.3-11 8.1-18.6 8Zm18.7-24-6 1.3-25.2 5.1c-3 .7-3.3 1.6-1.5 4.1l1.7 2c2.5 2.2 5.2 4 8.2 5.4 4.2 2 8 1.2 12-.4s6.1-5 8.7-8c2.5-2.8 2-6 2.1-9.6Zm-1.3-4.3A31 31 0 0 0 588 73.8c-3.4-1.2-7-1.3-9.7 1a54 54 0 0 0-8 9 10 10 0 0 0-1.8 7.8l32.7-7.5ZM344.7 294.7c.2-7.6 1.7-13.2 6.1-17.7 3.2-3.3 7.3-4.4 11.7-4.8 6.3-.5 12.3 1 17.5 4.6 6 4.1 8 10.4 7.3 17.2a23.8 23.8 0 0 1-10.6 17.9c-5 3.6-10.3 4.1-16.2 2.3-6.6-2-11.7-5.7-14-12.5-1-2.7-1.5-5.5-1.8-7Zm9.1 11.6c4.5 5.1 17.4 4.5 22.6-.4 6.2-5.8 7.5-19.1 1.8-23.6l-24.4 24Zm21.1-26.9-1.4-.7a28.8 28.8 0 0 0-16-.6c-2.9.8-5.4 2.5-6.5 5.2a23.6 23.6 0 0 0-1.4 16.2c.4 1.4 1.2 2.6 1.9 4l23.4-24ZM169.8 102c.3-5.7 1.8-10.7 5.3-15 3.5-4.2 8.1-5.7 13.2-5.9a26 26 0 0 1 17.6 5.6c6 4.7 7.6 11.3 6.2 18.4a24 24 0 0 1-14.3 18c-4.8 2.2-9.5 1.3-14.3-.4-8.5-3.1-12.2-9.7-13.7-18-.2-1 0-2 0-2.7ZM204 92l-25.8 22.7c3.6 4.7 16.2 5.6 21.2 2 7.4-5.1 10.3-18.4 4.6-24.8Zm-3-3.2c-5.7-2-11-3.3-16.7-2.3-3.5.6-6.6 2.3-7.9 5.6a52.1 52.1 0 0 0-2.6 12c-.3 2.6.5 5.3 2.4 7.4l24.7-22.7ZM50 499c.2 11.7-9 22.5-19.5 23.6a18 18 0 0 1-10.8-2.8 27.3 27.3 0 0 1-12-13.6C5.2 500 7.7 491 13 486a25 25 0 0 1 20-7c4.4.4 8 2.5 10.9 5.9 3.5 4.2 6.6 8.6 6.3 14Zm-38 3.7 6-1.2 25.5-4.8c2.8-.5 3-1.1 1.7-3.5-.5-1-1.3-1.7-2-2.5-2.4-2.3-5-4.1-8.1-5.6-4.1-2-8-1.4-12 .2-3.7 1.5-5.9 4.6-8.4 7.3-2.7 3-2.6 6.3-2.7 10.1ZM46 500 13.6 507l.1.6c3.8 4.8 8.2 9 14.3 10.4 3.1.8 6.4.4 9-2 2-1.9 4-3.8 5.9-6 2.2-2.8 3.6-6 3.2-9.9ZM111.3 343c-.2-7.2 3.7-11.8 9.3-15.8 6.8-4.9 13.8-4.5 20.9-1.5 6.7 2.9 13.3 9.8 13.4 18.4a25 25 0 0 1-17 21.9c-7.2 2.6-13.7.1-19.1-4.9a24 24 0 0 1-7.5-18.1Zm23.5 18.7-1.1-6-4.5-25.7c-.4-2.6-1-3-3.4-1.7-1 .6-1.8 1.3-2.6 2.1a30 30 0 0 0-5.6 7.9c-2.1 4.2-1.6 8.1 0 12.2 1.5 3.7 4.6 5.9 7.3 8.4 2.9 2.8 6.2 2.6 10 2.8Zm-2.2-34.2 6.4 32.8c.7-.4 1.3-.6 1.6-1 2.6-2.7 5.4-5.3 7.5-8.4 2.7-4 4-8.7.9-13a45.6 45.6 0 0 0-8.6-8.3 10.6 10.6 0 0 0-7.8-2.1ZM583.4 369.5c-.5-11 3.4-16.5 11-20.7 7.3-4 14.3-3.1 20.9.7a21.5 21.5 0 0 1 11.5 19.3c0 3.7-1.7 7-4 10a26.5 26.5 0 0 1-17 10.7c-3.9.7-7.6-.4-11-2.4a22.6 22.6 0 0 1-11.4-17.6Zm21.7 15.1-.6-6.4-2-26.4c-.1-1.6-1-2.3-2.3-1.5-2.3 1.4-4.9 2.8-6.6 4.8-5.2 6-7 9.8-4.2 17.7 1.2 3.4 3.8 5.4 6 8 2.5 3 6 3.3 9.7 3.8Zm4.4-1c.6-.3 1.2-.4 1.5-.7 3-2.7 6-5.2 8.6-8.2 2.9-3.4 4.2-7.7 2.2-12a23.7 23.7 0 0 0-10.3-11c-1.6-.8-3.5-1-5.4-1.6l3.4 33.4ZM98.1 162.7a27 27 0 0 1-4 13.5 16.8 16.8 0 0 1-9.2 6.6 24.1 24.1 0 0 1-27.7-11c-2.5-4.3-2.1-8.9-1.2-13.6 1.6-8.7 7.2-13.7 15-16 8-2.2 16-1.3 22 4.9 4 4 5.1 9.3 5.1 15.6Zm-8.4 11-1-.7-16-12.9-8.5-6.8c-1.7-1.3-2.3-1.4-3 .8-.7 2.5-1.1 5.3-.9 8 .5 5 1.5 10 6.5 13 4 2.7 8.4 3.3 13.1 3.2 4.1-.1 6.8-2 9.8-4.6Zm2.4-3.6c1-6 1.4-11.5-.5-16.9-1.2-3.1-3.2-5.7-6.4-6.6-5-1.5-10.2-1.8-15.2 0-1.7.6-3.1 1.8-4.8 2.7l27 20.8ZM275.5 469.3c-.2 7-2.7 13.1-7.4 18.2-4.7 5.2-13.8 6.6-20.6 3.8a24 24 0 0 1-14.5-15.1c-.8-2.5-1.2-5.5-.6-8 1.7-7.2 5-13.4 12.4-16.5 10-4.2 23-.8 28.5 8.2 1.8 2.8 2.1 6 2.2 9.4ZM243.1 457c-6.5 4.4-7.3 17.4-1.9 24 4.8 5.7 17 8.7 21.8 3.9l-20-28Zm3.3-1.7 20.2 27a30.6 30.6 0 0 0 3.9-16.8c-.5-3.7-2.1-7-5.7-8.5-3-1.2-6-2.2-9.2-3a13 13 0 0 0-9.2 1.3ZM596.3 162c5 .3 10.8 1.7 15 6.7a22 22 0 0 1 3.7 7c1.6 5 2 10-.2 15.1-4.6 10-16.6 16.5-26.8 13.5a17.6 17.6 0 0 1-9.2-7c-4.1-5.7-6.2-12-5.3-19.2.5-4 2.8-7.3 5.7-10.1 4.4-4.3 9.9-6 17-6Zm-18 16.9 32.7 6.8c1.2.2 1.8-.3 1.7-1.5 0-.9 0-1.8-.3-2.7a27.2 27.2 0 0 0-6-10.1c-3-3.4-6.9-4.3-11.2-4.4-3.8 0-6.9 2-10.2 3.4-3.7 1.6-5 4.8-6.6 8.5Zm-.1 4.3c0 .7 0 1.3.2 1.7 1.7 3.5 3 7.2 5.2 10.4 2.7 4 6.7 6.8 11.6 5.5 3.9-1 7.5-3 11-4.9 2.3-1.3 4-3.6 4.7-6.4l-32.7-6.3ZM316.5 141.7l-8-18.7-7 9.7c-1.6-15.9-3.6-31.2-3.5-46.7 4.9 7.5 7.4 16 10.7 24l.8.1 4.7-10c2.3 3.6 4.4 37.5 2.3 41.6ZM172.7 207.6l-1.8-20.2-9 6.5c2.8-15.2 5.7-30.3 10.7-45 2.3 8.7 2 17.5 2.6 26.1l.8.4 7.6-7.9c1 4.3-7.8 37.2-11 40.1ZM537.1 249a159 159 0 0 1-36.3 20l-.5-.7 13.4-14.9-11.6-2.3c13.7-8.1 26.8-16.2 41-22.5-4.9 7.4-11.3 13.3-17.5 19.6l.4.8h11.1ZM698.6 228.8a159 159 0 0 1-36.4 20l-.5-.7 13.5-14.9-11.6-2.3c13.7-8 26.8-16.1 41-22.5-5 7.4-11.4 13.4-17.5 19.6l.4.8h11ZM189 308.3c-4-5.2-8.2-10.3-12.5-15.6l-3.9 10.5c-6-14.3-12-28.5-16-43.5 6.7 6 11.4 13.4 16.7 20.4l.9-.2 2-11.3a182.1 182.1 0 0 1 13.6 39.3l-.8.4ZM358.8 371.3c-3.3 8.8-8.1 16-12.5 24 4.3.2 7.9-1 11.5-2.3-9 10.8-19 20.3-30.2 28.5l-.6-.5 9.2-17.8-11.2.7c.8-2.5 28-29 33.8-32.6ZM417 502.7c-3.2 8.7-8 16-12.4 24 4.3.2 7.9-1 11.5-2.3-9 10.8-19 20.3-30.2 28.5l-.6-.5 9.2-17.9-11.2.7c.8-2.4 28-28.8 33.8-32.5ZM361.6 184.6c1.3 8.8.8 17.5.3 26.8 4-2 6.6-4.7 9-7.7.9 4.2-10.5 36.7-14 39.4v-20.4l-10.3 6.3c4.6-15.2 9-30 15-44.4ZM391.6 701.7c2.5-.8 5-2.2 7.5-2.2 5.3-.1 9.8 3.4 8.3 9.6a13 13 0 0 1-4.3 7.6c1.3 1.6 2.9 3 3.6 4.7a7 7 0 0 1 0 4.8c-2.2 6-6.8 8.7-13.4 7.2-.7-.2-1.3-.9-1.7-1.5l-14-23.3-3-4.7c-.2-.6-.5-1.5-.2-2 1.5-3.2 3.1-6.4 6-8.7 2-1.5 4-1.5 6.2-.5 3.6 1.6 4.6 3.6 5 9ZM446.8 825.4c4.8 2.2 6 6.3 3.7 10.8a10.6 10.6 0 0 1-11.9 5.8 4 4 0 0 1-2.3-1.5l-13.1-20.6-4.4-6.8c-.4-.7-.8-1.8-.5-2.3 1.4-2.6 2.7-5.2 4.5-7.4 3.2-3.8 8.1-3.5 10.9.7 1.2 1.7 1.5 4.1 2.2 6 2-.7 4.4-2 6.9-2.2 5.7-.4 10 3.4 8.6 9.6-.6 3-2 5.8-4.6 7.9ZM270 662c.7-2.2 1.2-4.9 2.6-6.8 3.5-4.8 9.2-5.7 13-.7 1.6 2.3 2.6 5.2 3.8 7.8 1.6 0 3.6-.3 5.5.1 4.5 1 6.8 8.5 5.1 12.4l-1.4 2.8c-1.5 2.2-3.2 3.6-6.3 3.1-8.3-1.2-16.7-2-25.1-3l-6-.7c-.6 0-1.6-.6-1.8-1.1-1-2.6-2.3-5.2-2.8-8-1-5 2.7-8.9 7.8-8.1 2 .3 3.8 1.5 5.6 2.2ZM105.9 870.8c6 2.6 6 8.4 1.9 13.6-2.5 3.1-6 3.8-9.9 3.4-.6 0-1.4-.6-1.8-1.2L80.9 867c-1.6-2-3.4-4-4.9-6.2-.4-.6-.8-1.7-.6-2.3 1.2-2.6 2.2-5.4 3.9-7.7 2.7-3.9 7.1-4 10.5-.7 1.4 1.4 2.6 2.9 2.4 5l.2 1.5c2.3-1 4.5-2.7 6.8-3 6.8-1 11 3.2 9.7 9.2-.6 2.7-2 5.2-3 8ZM655.5 672.7l.2-4c.5-3.8 2.6-6.3 6-8 2.5-1.1 6.1-.3 8.2 2.3 1.7 2.3 3.1 4.9 4.6 7.2 1.6-.1 3.8-.6 5.8-.4 4.4.6 8.5 8.7 5.3 14.3-1.5 2.5-3 4.3-6.4 4.2-8.5-.4-17-.3-25.4-.4l-5.6.2c-.6 0-1.6-.3-1.8-.8-1.5-3-3.2-5.8-4-9-1.1-3.8 1.5-7 5.8-7.7 2-.4 4-.3 5.8 1.3.3.3.8.5 1.5.8ZM36.8 691.7c2.6-1.1 4.9-2.7 7.4-3 5.3-.7 10 2.3 9.3 8.7a13 13 0 0 1-4 8.4c3.4 1.3 5.7 3.5 5.4 7.1a10.6 10.6 0 0 1-7.9 9.9c-3 .6-5.6.9-7.8-2.2-5-7-10.2-13.7-15.4-20.5l-3.5-4.4c-.3-.5-.7-1.4-.5-1.9 1.2-3.3 2.4-6.7 5.1-9.3 1.8-1.7 3.7-2 5.8-1.3 3.7 1.1 5.7 3.7 6 7.5l.1 1ZM182.3 643.4c3.3 1.2 5.7 3.1 5.7 6.7a10.6 10.6 0 0 1-8.2 10.7c-2.7.7-5 .6-7-2-5.4-6.5-11-13-16.6-19.4-1-1.2-2.2-2.5-3.4-3.6-1.1-1-1.3-2.2-.7-3.6 1-2.3 1.8-4.8 3.2-7 2.6-4 7-4.3 10.8-1 2 1.7 2.4 4 2.5 6.1 2.3-1.2 4.5-3 6.8-3.5 5.9-1.3 10.7 2 10.2 8.3a13 13 0 0 1-3.3 8.3ZM266.4 826c2.4-1 4.6-2.6 7-2.9 6-.8 10.6 2.8 9.5 9.3a13 13 0 0 1-4 7.8c3.6 1.6 6 4.1 5.2 8-1.4 6.7-6 10-13 9.2-.7-.1-1.3-.8-1.7-1.3l-14.7-19.8c-1.6-2.1-3.3-4.2-4.8-6.5-.4-.5-.8-1.5-.5-2 1.2-2.7 2.3-5.5 4-7.8 2.8-3.8 6.9-4 10.4-.7 1.5 1.5 2.7 3 2.4 5.4l.2 1.3ZM-16.8 855.7c-.8-4.5.2-7.4 3.5-9 4.4-1.9 8.4-2 12.2 1.4 2.1 1.9 3.6 3.9 2.5 7.2-2.6 8.1-4.7 16.4-7 24.6l-1.4 5.4c-.2.6-.7 1.4-1.3 1.6-3.3 1-6.6 2-10.3 1.5-2.4-.3-3.9-1.7-4.7-3.9a7.8 7.8 0 0 1 2.4-9.2l1.5-1-3.1-1a9.9 9.9 0 0 1-7.1-7.5c-.8-3 1-6.5 4.2-8.1a19 19 0 0 1 4-1.6c1.5-.4 3-.3 4.6-.4ZM427.1 646.3c-1.5-2.1-3.5-4-4.4-6.2-2.2-5.8.4-10.8 6.6-11.3 3.4-.3 4 0 8.8 1.8 1.2-6.9 6.8-8.1 12.8-5.4 3.7 1.8 5.2 5.2 5.6 9.2.1.6-.3 1.4-.7 1.9l-16 19-4.9 6c-.8 1-1.7 1.4-3 1.1-2.6-.7-5.2-1.1-7.6-2-5.5-2.2-4.7-6.9-3-10.2 1-1.8 2.4-3.2 4.6-3.5.5 0 1-.3 1.2-.4ZM485.1 692.6c9.2.7 16.6 4.2 20.8 13 1.6 3.1 1.4 6.7.7 10a26.3 26.3 0 0 1-11.3 17.5c-4.2 2.8-8.9 2.9-13.6 2a24.3 24.3 0 0 1-18.4-22.2c0-3.5 1.1-6.6 3-9.5 4.3-7 10.2-11.2 18.8-10.8Zm7 36.5-2.8-5.6c-4-7.6-7.7-15.2-11.6-22.7-1.5-2.8-2.5-2.8-4.5-.3a31 31 0 0 0-4.4 11.3c-.8 4.7 1 8.3 3.8 11.8 2.5 3.3 6.2 4.3 9.6 6 3.5 1.6 6.5.4 10-.5Zm-12.1-32 15.8 29.5c.5-.5 1-.9 1.2-1.4 1.6-3.4 3.5-6.7 4.7-10.2 1.3-4.2 1.1-8.6-2.1-12.1-2.8-3-6.6-4.5-10.5-5.8-3-1-6-1.1-9.1 0ZM68.1 649.6c-6.5.2-11-3.3-14.9-8.2-5.4-6.6-5.8-14-2.6-21.4 3.2-7.7 9-13.2 17.7-14a24.8 24.8 0 0 1 22.6 16c3 7.2.7 14-4.3 19.5-4.8 5.4-11 8.1-18.5 8Zm18.6-24.3c-2.1.5-4 1-5.9 1.3l-25.5 5.5c-2.7.6-3 1.2-1.5 3.6.6.9 1.3 1.7 2 2.4 2.5 2.3 5.3 4 8.5 5.5 4 1.7 7.7 1 11.5-.5s6-4.7 8.5-7.7c2.6-3 2.4-6.3 2.4-10Zm-1.2-4.2c-4.6-5-9-9.4-15.5-10.7-3.1-.6-6.2 0-8.5 2.3a62 62 0 0 0-6 6.6 13 13 0 0 0-2.8 9.6l32.7-7.8ZM583.8 731.5c-5 .2-9.3-1.9-12.8-5.7-4.4-5-7.5-10.4-6.4-17.4a23.6 23.6 0 0 1 16.5-20 15 15 0 0 1 10.7.8c7 2.8 12 7.8 14.8 14.6 3 7.3.8 14-4.2 19.7-4.8 5.3-11 8-18.6 8Zm18.7-24-6 1.2-25.2 5.2c-3 .6-3.3 1.6-1.5 4.1l1.7 2c2.5 2.2 5.2 4 8.2 5.4 4.2 2 8 1.2 12-.4s6.1-5 8.7-8c2.5-2.8 2-6 2.1-9.6Zm-1.3-4.3a31 31 0 0 0-13.2-10.3c-3.4-1.2-7-1.3-9.7 1a54 54 0 0 0-8 9 10 10 0 0 0-1.8 7.7c10.9-2.5 21.6-5 32.7-7.4ZM344.7 913.8c.2-7.6 1.7-13.2 6.1-17.8 3.2-3.2 7.3-4.4 11.7-4.7 6.3-.6 12.3 1 17.5 4.6 6 4 8 10.3 7.3 17.2a23.8 23.8 0 0 1-10.6 17.8c-5 3.6-10.3 4.2-16.2 2.4-6.6-2-11.7-5.7-14-12.5-1-2.7-1.5-5.6-1.8-7Zm9.1 11.5c4.5 5.2 17.4 4.6 22.6-.3 6.2-5.9 7.5-19.2 1.8-23.7l-24.4 24Zm21.1-26.8-1.4-.7a28.8 28.8 0 0 0-16-.7c-2.9.9-5.4 2.5-6.5 5.3a23.6 23.6 0 0 0-1.4 16.2c.4 1.3 1.2 2.5 1.9 3.9l23.4-24ZM388.3 587.8a25 25 0 0 1-16.2 22.5c-4.8 1.7-9.3.5-13.8-1.3a19.8 19.8 0 0 1-12.7-18.1c-.6-8.3 1.9-16 9.3-20.6 2.6-1.7 6.1-2.3 9.3-2.4a25 25 0 0 1 19.4 7.5c3.6 3.6 4.5 8.3 4.7 12.4Zm-8.3-8.7-26.5 22c3.9 5 16.3 6 21.6 2.3 7-5 10.4-18 4.9-24.3Zm-3-3.2a30.9 30.9 0 0 0-16.6-2.9c-3.5.5-6.7 2.2-8 5.5a53.4 53.4 0 0 0-3 11.6c-.3 2.7.5 5.4 2.2 7.7l25.4-22ZM169.8 721c.3-5.6 1.8-10.7 5.3-15 3.5-4.2 8.1-5.6 13.2-5.8a26 26 0 0 1 17.6 5.6c6 4.7 7.6 11.3 6.2 18.4a24 24 0 0 1-14.3 18c-4.8 2.2-9.5 1.2-14.3-.5-8.5-3-12.2-9.6-13.7-17.9-.2-1 0-2 0-2.7Zm34.2-10-25.8 22.7c3.6 4.8 16.2 5.6 21.2 2.1 7.4-5.2 10.3-18.4 4.6-24.8Zm-3-3.1c-5.7-2.1-11-3.3-16.7-2.3-3.5.6-6.6 2.3-7.9 5.6a52.1 52.1 0 0 0-2.6 12c-.3 2.5.5 5.3 2.4 7.4l24.7-22.7ZM98.1 781.8a27 27 0 0 1-4 13.5 16.8 16.8 0 0 1-9.2 6.5A24.1 24.1 0 0 1 57.2 791c-2.5-4.4-2.1-9-1.2-13.7 1.6-8.6 7.2-13.6 15-15.9 8-2.2 16-1.3 22 4.8 4 4 5.1 9.4 5.1 15.7Zm-8.4 11-1-.7-16-12.9-8.5-6.8c-1.7-1.4-2.3-1.4-3 .7-.7 2.6-1.1 5.4-.9 8 .5 5 1.5 10 6.5 13.1 4 2.7 8.4 3.2 13.1 3.1 4.1 0 6.8-2 9.8-4.6Zm2.4-3.7c1-6 1.4-11.4-.5-16.8-1.2-3.1-3.2-5.7-6.4-6.6-5-1.5-10.2-1.8-15.2 0-1.7.6-3.1 1.7-4.8 2.7l27 20.7ZM596.3 781c5 .3 10.8 1.8 15 6.7a22 22 0 0 1 3.7 7.2c1.6 5 2 10-.2 15-4.6 10-16.6 16.4-26.8 13.4a17.6 17.6 0 0 1-9.2-7c-4.1-5.6-6.2-12-5.3-19 .5-4.2 2.8-7.5 5.7-10.3 4.4-4.2 9.9-5.8 17-6Zm-18 17 32.7 6.7c1.2.3 1.8-.2 1.7-1.4 0-1 0-1.9-.3-2.7a27.2 27.2 0 0 0-6-10.1c-3-3.5-6.9-4.3-11.2-4.4-3.8 0-6.9 1.9-10.2 3.4-3.7 1.6-5 4.8-6.6 8.4Zm-.1 4.3c0 .7 0 1.3.2 1.7 1.7 3.5 3 7.2 5.2 10.4 2.7 4 6.7 6.7 11.6 5.5 3.9-1 7.5-3 11-5 2.3-1.2 4-3.5 4.7-6.3l-32.7-6.3ZM316.5 760.8l-8-18.7-7 9.6c-1.6-15.8-3.6-31.1-3.5-46.6 4.9 7.5 7.4 15.9 10.7 24h.8l4.7-9.9c2.3 3.6 4.4 37.4 2.3 41.6ZM172.7 826.7l-1.8-20.3-9 6.6c2.8-15.2 5.7-30.3 10.7-45 2.3 8.6 2 17.4 2.6 26.1l.8.4 7.6-8c1 4.3-7.8 37.3-11 40.2ZM537.1 868a159 159 0 0 1-36.3 20l-.5-.6 13.4-15-11.6-2.3c13.7-8 26.8-16.1 41-22.4-4.9 7.4-11.3 13.3-17.5 19.5l.4.8h11.1ZM698.6 847.8a159 159 0 0 1-36.4 20l-.5-.6 13.5-14.9-11.6-2.3c13.7-8.1 26.8-16.2 41-22.5-5 7.4-11.4 13.3-17.5 19.6l.4.7h11ZM189 927.4c-4-5.2-8.2-10.3-12.5-15.7l-3.9 10.5c-6-14.2-12-28.4-16-43.4 6.7 6 11.4 13.4 16.7 20.3l.9-.1 2-11.3a182.1 182.1 0 0 1 13.6 39.3l-.8.4ZM554.2 615l-1.5-20.3-9.2 6.5c-.4-3.5 9.3-41 11.8-45.2 1.7 9 1.5 17.7 1.8 26.4l.7.3c1.4-1.3 2.9-2.4 4.2-3.7 1.3-1.3 2.3-2.8 3.5-4.3 1.2 4-8 37.4-11.3 40.2ZM147.4 553c7.5 4.7 13.6 11 20.1 16.8l.7-.4v-11.3a178.4 178.4 0 0 1 21 35.9l-.7.5-15.3-13-1.8 11.1-.5.2c-8.1-13-16.8-25.8-23.5-39.7ZM361.6 803.7c1.3 8.7.8 17.5.3 26.7 4-2 6.6-4.7 9-7.7.9 4.2-10.5 36.8-14 39.5v-20.4l-10.3 6.3c4.6-15.3 9-30 15-44.4ZM1310.8 426l-3.1-3.7c-2.2-2.9-2.2-6.1-1-9.2 1.3-3 3.9-4.1 7-4.2 3.2-.1 6.2.6 8.9 2.7 2-7 7.8-7.7 13.5-4.3 3.4 2 4.5 5.5 4.6 9.3 0 .7-.5 1.5-1 2l-19.2 19.3-3.9 4c-.4.4-1.3 1-1.8.8-3-1-6.2-1.8-9-3.2-4.7-2.5-3.4-7.2-1.4-10.1 1.1-1.6 2.6-2.9 4.7-3 .5 0 1-.2 1.7-.4ZM1313 82.6c2.6-.8 5-2.2 7.5-2.2 5.3 0 9.8 3.4 8.4 9.7a13 13 0 0 1-4.4 7.6c1.3 1.6 2.9 3 3.6 4.6a7 7 0 0 1 .1 4.8c-2.3 6.1-6.8 8.7-13.5 7.2-.6-.1-1.3-.9-1.7-1.5l-14-23.3c-.9-1.6-2-3-2.9-4.7-.3-.5-.5-1.5-.3-2 1.6-3.1 3.1-6.3 6-8.6 2-1.6 4.1-1.6 6.2-.6 3.6 1.7 4.7 3.7 5 9ZM1179.4 319.6c.6-2.1 1-4.8 2.3-6.9 3.2-4.9 8.8-6 12.9-1.3 2 2.4 3.5 5 3.5 8.3 4.6-1.7 7.7-1.3 9.8 1.7 3.8 5.4 3.4 10.7-1.7 15.4-.5.4-1.5.5-2.2.5l-24.8-1.7-7.9-.5c-.6-.1-1.6-.5-1.8-1-1.3-3-2.8-6-3.4-9.1-.8-4.2 2.8-7.7 7.4-7.3 2 .2 4 1.2 5.9 1.9ZM1368.3 206.3c4.8 2.3 5.9 6.3 3.7 10.9a10.6 10.6 0 0 1-12 5.7 4 4 0 0 1-2.2-1.5c-4.5-6.8-8.8-13.7-13.2-20.5-1.4-2.3-3-4.5-4.4-6.9-.4-.6-.7-1.7-.4-2.3 1.3-2.5 2.6-5.2 4.5-7.4 3.2-3.7 8-3.4 10.9.7 1.1 1.8 1.5 4.1 2.1 6 2-.6 4.4-2 6.9-2.2 5.8-.4 10.1 3.5 8.7 9.7-.7 3-2 5.7-4.6 7.8ZM1191.4 42.9c.8-2.1 1.2-4.8 2.7-6.8 3.4-4.8 9.2-5.7 12.9-.6 1.7 2.3 2.6 5.2 3.9 7.8 1.5 0 3.5-.4 5.4 0 4.6 1 6.9 8.5 5.2 12.5-.4 1-1 2-1.5 2.8-1.5 2.2-3.2 3.5-6.2 3-8.4-1.2-16.8-2-25.2-3l-6-.6c-.6-.1-1.5-.6-1.8-1.2-1-2.6-2.2-5.2-2.8-8-1-5 2.8-8.8 7.9-8 2 .2 3.8 1.4 5.5 2.1ZM1027.3 251.8c6 2.5 6 8.3 2 13.5-2.5 3.1-6.1 3.9-10 3.5-.6 0-1.4-.7-1.8-1.2l-15.2-19.6-4.9-6.3c-.4-.6-.8-1.7-.5-2.3 1.1-2.6 2.2-5.4 3.8-7.7 2.8-3.8 7.2-4 10.6-.6 1.4 1.3 2.5 2.8 2.3 5l.2 1.4c2.3-1 4.5-2.6 6.9-3 6.8-1 10.9 3.2 9.6 9.3-.6 2.7-2 5.2-3 8ZM889.6 418.4c2.4-1.2 4.6-2.8 7-3.3 4.9-1 9.9 1.4 9.9 7.3 0 3.4-1 6.6-3 9 1.5 1.5 3.3 2.7 4.4 4.3 2.5 3.7-.9 10.7-4.8 12.5l-1.8.8c-3 .7-5.6 1.1-8-1.9-5.3-6.7-10.9-13.1-16.3-19.6-1.2-1.5-2.6-2.8-3.7-4.2-.4-.5-.8-1.4-.6-2 1-3.3 2-6.7 4.6-9.5a5.4 5.4 0 0 1 5.6-1.6c3.8 1 6 3.5 6.5 7.3l.2 1ZM826.1 156.8c-1.8-1-4.4-1.7-6.2-3.4-4.6-4.3-4.4-10 1-13 2.6-1.3 5.6-1.9 8.5-2.8-.7-2.7-.5-5.8 2.3-7.7 5.7-4 12.3-2.8 16.2 3.6.3.5.2 1.4 0 2l-5.8 23.7-2 8.1c-.2.7-.7 1.6-1.3 1.8-2.9.7-5.8 1.7-8.8 1.8-4.6.2-7.7-3.5-6.7-8 .4-2.2 1.9-4.2 2.8-6v-.1ZM958.3 72.6c2.5-1 4.8-2.7 7.3-3 5.4-.6 10 2.3 9.3 8.7a13 13 0 0 1-3.9 8.4c3.4 1.4 5.6 3.5 5.3 7.2a10.6 10.6 0 0 1-7.8 9.8c-3 .6-5.7 1-7.9-2.2-5-7-10.2-13.7-15.4-20.5l-3.4-4.3c-.4-.5-.7-1.4-.6-2 1.3-3.3 2.5-6.6 5.1-9.2 1.8-1.8 3.8-2 5.9-1.3 3.7 1 5.6 3.6 6 7.4v1ZM1103.8 24.4c3.3 1.2 5.7 3 5.7 6.6a10.6 10.6 0 0 1-8.2 10.8c-2.7.6-5 .5-7-2-5.4-6.6-11.1-13-16.7-19.4-1-1.3-2.1-2.5-3.3-3.7-1.2-1-1.4-2.2-.8-3.5 1-2.4 1.8-4.9 3.2-7 2.7-4.1 7.1-4.4 10.8-1 2 1.7 2.5 3.9 2.6 6 2.3-1.2 4.4-2.9 6.8-3.4 5.8-1.3 10.6 1.9 10.2 8.2-.3 3.1-1.1 6-3.3 8.4ZM776.8 352.3c.4-2.3.2-5 1.2-7.3 2.2-5 7.1-7.3 12-3.7 2.4 1.7 4.3 3.8 5.1 6.8l.4 1c3-2 6.2-2.9 9.1-.5 5.3 4.4 6 10.5 1.6 16-.5.6-1.5.8-2.4 1l-27.4 2.7c-1.3.1-2.7.2-4 .5-1.7.4-2.7 0-3.6-1.4-1.2-2.2-2.8-4.2-3.8-6.5-2-4.7.8-9.2 6-9.6 2-.1 4 .6 5.8 1ZM1092.5 399.5c.6-7.2 6-9.1 12.3-6.9 3.8 1.4 5.6 4.7 6.5 8.5.1.5-.2 1.4-.6 2l-13.8 20.5-4.4 6.6c-.4.6-1.3 1.3-1.8 1.3-3.1-.4-6.4-.5-9.3-1.5-4.1-1.3-5.4-5.4-3.4-9.5.8-1.8 1.8-3.4 4-3.8l1.3-.7c-1.8-2-4.1-3.6-5.2-5.9-2.4-5-1-10.3 5.2-11.6 3-.7 6.2-.6 9.2 1ZM789.7-22.4c2.4-1 4.7-2.6 7-2.9 6-.8 10.6 2.8 9.5 9.3a13 13 0 0 1-4 7.8c3.7 1.6 6 4.1 5.2 8-1.3 6.7-6 10-13 9.2-.6-.1-1.2-.8-1.6-1.3L778-12l-4.9-6.6c-.4-.5-.7-1.5-.5-2 1.2-2.7 2.3-5.4 4-7.8 2.8-3.8 7-4 10.4-.7 1.5 1.5 2.8 3 2.5 5.4l.1 1.3ZM1187.8 207c2.4-1 4.7-2.6 7-3 6-.7 10.6 2.8 9.5 9.3a13 13 0 0 1-4 7.8c3.7 1.6 6 4.2 5.2 8-1.3 6.8-6 10.1-13 9.2-.6 0-1.2-.7-1.7-1.3l-14.6-19.7-4.9-6.5c-.4-.6-.7-1.6-.5-2.1 1.2-2.7 2.3-5.4 4-7.7 2.8-3.9 7-4 10.4-.7 1.5 1.4 2.8 3 2.5 5.3l.1 1.3ZM904.6 236.6c-.7-4.5.2-7.4 3.5-8.9 4.4-2 8.4-2 12.2 1.3 2.2 2 3.6 3.9 2.5 7.2-2.5 8.2-4.7 16.4-7 24.6-.5 1.8-.8 3.6-1.4 5.4-.2.6-.7 1.4-1.2 1.6-3.4 1-6.7 2-10.3 1.6-2.5-.4-4-1.8-4.8-4a7.8 7.8 0 0 1 2.5-9.2l1.4-1-3.1-1a9.9 9.9 0 0 1-7.1-7.5c-.8-3 1-6.5 4.3-8 1.3-.7 2.6-1.4 4-1.7 1.4-.3 2.9-.3 4.5-.4ZM1348.6 27.2c-1.6-2-3.6-3.9-4.5-6.2-2.1-5.7.4-10.8 6.7-11.3 3.3-.2 4 0 8.8 1.8 1.2-6.8 6.8-8.1 12.7-5.3 3.8 1.7 5.3 5.2 5.7 9.1 0 .6-.4 1.4-.8 2l-16 18.9-4.8 6c-.9 1-1.8 1.5-3 1.1-2.6-.6-5.3-1-7.7-2-5.5-2.2-4.7-6.9-2.9-10.2 1-1.8 2.3-3.2 4.6-3.4.4 0 1-.4 1.2-.5ZM1406.5 73.5c9.2.7 16.7 4.3 20.9 13 1.5 3.2 1.3 6.7.7 10.1a26.3 26.3 0 0 1-11.4 17.4c-4.1 2.8-8.8 3-13.5 2a24.3 24.3 0 0 1-18.5-22.2c0-3.5 1.2-6.6 3-9.5 4.4-6.9 10.2-11.1 18.8-10.8Zm7.1 36.6-2.9-5.6-11.6-22.8c-1.4-2.7-2.4-2.8-4.5-.3-.4.6-.9 1.3-1.2 2a31 31 0 0 0-3.1 9.4c-.8 4.7 1 8.3 3.7 11.8 2.6 3.2 6.3 4.2 9.7 5.9 3.4 1.7 6.5.4 10-.4Zm-12.2-32 15.9 29.4c.4-.5 1-.8 1.2-1.3 1.6-3.4 3.5-6.7 4.6-10.3 1.4-4.2 1.2-8.6-2-12-2.9-3-6.7-4.6-10.5-5.9-3-1-6-1-9.2 0ZM989.6 30.5c-6.5.3-11-3.2-15-8.1-5.4-6.7-5.7-14-2.6-21.5 3.3-7.6 9-13.2 17.7-14a24.8 24.8 0 0 1 22.6 16c3 7.3.7 14-4.3 19.6-4.8 5.3-11 8-18.4 8ZM1008 6.2l-5.8 1.4-25.6 5.5c-2.7.6-3 1.1-1.4 3.5.5 1 1.2 1.7 2 2.5 2.5 2.3 5.3 4 8.4 5.4 4 1.8 7.7 1.1 11.5-.4 3.8-1.6 6-4.7 8.5-7.7 2.6-3 2.5-6.4 2.4-10.2ZM1007 2c-4.5-5-9-9.4-15.5-10.6-3-.6-6.1 0-8.5 2.2a62 62 0 0 0-6 6.6 13 13 0 0 0-2.8 9.6l32.8-7.8ZM1403.3 387.7c.5-8 3.8-14.8 11-19.4 4.4-3 9.3-2.6 14.1-1.4a25.8 25.8 0 0 1 14.5 9.5c4.8 6.2 4.5 13.2 1.2 19.9-3 6.3-8.1 10.5-15 12.6a17 17 0 0 1-15.3-2.2c-5.1-3.5-9.1-7.7-10-14-.3-1.6-.3-3-.5-5Zm5.8 8.8c2.5 6 14.7 9.6 20.8 7 8.2-3.5 13.9-15.8 9.8-22.4l-30.6 15.4Zm28.5-19.2a33 33 0 0 0-13.6-6.3c-4.3-.7-8.4-.1-11 3.4a46 46 0 0 0-5.3 10.3c-1 2.7-1 5.6.2 8.3l29.7-15.7ZM1266.1 294.7c.3-7.6 1.7-13.2 6.1-17.7 3.2-3.3 7.4-4.4 11.7-4.8 6.4-.5 12.3 1 17.5 4.6 6 4.1 8 10.4 7.3 17.2a23.8 23.8 0 0 1-10.5 17.9c-5.1 3.6-10.4 4.1-16.2 2.3-6.6-2-11.8-5.7-14-12.5-1-2.7-1.5-5.5-1.9-7Zm9.2 11.6c4.5 5.1 17.3 4.5 22.5-.4 6.3-5.8 7.6-19.1 1.9-23.6l-24.5 24Zm21-26.9-1.4-.7a28.8 28.8 0 0 0-16-.6c-2.8.8-5.3 2.5-6.4 5.2a23.7 23.7 0 0 0-1.4 16.2c.4 1.4 1.2 2.6 1.8 4l23.4-24ZM791.7 510.6a24.6 24.6 0 0 1-23.7-17.4c-1.3-4.9.1-9.2 2.1-13.6 3.8-8 10.6-11.6 18.8-11.8 8.2-.2 15.6 2.8 20 10.3 2.3 3.8 2.5 8.3 1.8 12.7-1 6.1-3.5 11.6-8.3 15.8-3.3 3-7.4 3.8-10.8 4Zm7.2-7.9-20.6-27.4c-5.6 3.6-6.9 16.3-3 22 5.1 7.4 18.1 10.4 23.6 5.4Zm-17.4-29.2 20.8 26.5a32 32 0 0 0 3.7-15c-.1-5-2.2-8.9-6.9-10.6-3.2-1.2-6.5-2-9.9-2.6-2.6-.5-5.2.2-7.7 1.7ZM769.6 213.9c-6.3.2-10.9-4-14.9-9.7-4.8-7-4.3-14-1-20.9a21.4 21.4 0 0 1 18.3-13.1c3.8-.3 7.5 1.3 10.8 3.4a27 27 0 0 1 10.9 13.3c2.6 7.1.5 13.6-4.3 19a24.1 24.1 0 0 1-19.8 8Zm19.9-23.2-1.5.1-19.5 3.2-11.1 1.9c-2.2.4-2.7.9-1.5 2.7 1.5 2.3 3.3 4.5 5.5 6.1 3.6 2.8 7.6 5 12.6 4.2 5.2-1 9-4 12.3-8 2.6-3 3-6.3 3.2-10.2Zm-34.2 1.7 32.8-6.1a30.5 30.5 0 0 0-11-10c-5.5-2.8-9.7-2.2-14.2 2a47.3 47.3 0 0 0-3.9 4c-2.4 3-3.9 6.1-3.7 10.1ZM885 59.2c-.7 8.7-4.3 15.6-11.9 20a15.5 15.5 0 0 1-11.3 1.4c-7.8-1.6-14-5.8-18-12.8-2.6-4.6-2.3-9.5-.7-14.4 2.8-8.8 12-15.7 21.1-16.2 4-.2 7.4 1 10.6 3.3 4.7 3.3 8.7 7.1 9.7 13.2.3 1.8.4 3.8.6 5.5Zm-5.4-8.1c-2.9-7-15.2-10.5-22.7-6.7-6.6 3.3-12.3 14.8-8.4 20.8l31.1-14.1Zm1 3.6-30 14.3c2.4 2.9 9 6.3 13.6 7.1 4 .7 7.7.2 10.5-2.8 2.9-3 4.8-6.8 6-10.8.8-2.6 1-5.2 0-7.8ZM1091.2 102c.3-5.7 1.8-10.7 5.4-15 3.4-4.2 8-5.7 13.2-5.9a26 26 0 0 1 17.6 5.6c6 4.7 7.5 11.3 6.2 18.4a24 24 0 0 1-14.4 18c-4.8 2.2-9.5 1.3-14.3-.4-8.4-3.1-12.1-9.7-13.7-18V102Zm34.2-10-25.7 22.7c3.6 4.7 16.1 5.6 21 2 7.5-5.1 10.5-18.4 4.7-24.8Zm-3-3.2c-5.7-2-11-3.3-16.6-2.3-3.5.6-6.7 2.3-8 5.6a52 52 0 0 0-2.5 12c-.3 2.6.5 5.3 2.3 7.4l24.8-22.7ZM971.5 499c.1 11.7-9 22.5-19.6 23.6a18 18 0 0 1-10.7-2.8 27.3 27.3 0 0 1-12-13.6c-2.6-6.3-.2-15.2 5.2-20.2a25 25 0 0 1 20-7c4.4.4 8 2.5 10.8 5.9 3.6 4.2 6.7 8.6 6.3 14Zm-38 3.7 6-1.2 25.5-4.8c2.7-.5 3-1.1 1.6-3.5-.5-1-1.2-1.7-2-2.5-2.3-2.3-5-4.1-8-5.6-4.2-2-8-1.4-12.1.2-3.7 1.5-5.8 4.6-8.4 7.3-2.6 3-2.6 6.3-2.7 10.1Zm34-2.7L935 507c0 .3 0 .5.2.6 3.8 4.8 8.1 9 14.2 10.4 3.2.8 6.4.4 9-2 2-1.9 4.1-3.8 6-6 2.2-2.8 3.5-6 3.1-9.9ZM1032.8 343c-.3-7.2 3.7-11.8 9.2-15.8 6.9-4.9 13.9-4.5 21-1.5 6.6 2.9 13.2 9.8 13.3 18.4.1 3-1 6.3-2.4 9a25 25 0 0 1-14.5 12.9c-7.3 2.6-13.7.1-19.2-4.9a24 24 0 0 1-7.5-18.1Zm23.5 18.7-1.2-6-4.4-25.7c-.5-2.6-1-3-3.4-1.7-1 .6-1.9 1.3-2.7 2.1a30 30 0 0 0-5.6 7.9c-2 4.2-1.5 8.1 0 12.2 1.5 3.7 4.6 5.9 7.3 8.4 3 2.8 6.2 2.6 10 2.8Zm-2.2-34.2 6.4 32.8c.6-.4 1.2-.6 1.6-1 2.5-2.7 5.3-5.3 7.4-8.4 2.7-4 4-8.7 1-13a46 46 0 0 0-8.7-8.3 10.6 10.6 0 0 0-7.7-2.1ZM1019.6 162.7a27 27 0 0 1-4 13.5 16.8 16.8 0 0 1-9.3 6.6 24.1 24.1 0 0 1-27.7-11c-2.4-4.3-2.1-8.9-1.2-13.6 1.7-8.7 7.3-13.7 15.1-16 8-2.2 15.9-1.3 22 4.9 4 4 5 9.3 5 15.6Zm-8.4 11-1-.7-16-12.9-8.5-6.8c-1.8-1.3-2.4-1.4-3 .8-.7 2.5-1.2 5.3-1 8 .5 5 1.6 10 6.5 13 4.1 2.7 8.4 3.3 13.2 3.2 4-.1 6.8-2 9.8-4.6Zm2.4-3.6c1-6 1.4-11.5-.6-16.9-1.1-3.1-3.2-5.7-6.3-6.6-5-1.5-10.2-1.8-15.3 0-1.6.6-3 1.8-4.7 2.7l26.9 20.8ZM913.4 154.1c-.5 9-2.8 16-8.7 21.1a16.9 16.9 0 0 1-13.4 3.8 23.8 23.8 0 0 1-20.5-16c-2-5-.6-9.7 1.5-14.5 3.5-8 10-11.7 18.2-12.1 8.3-.5 15.8 2.3 20.5 9.7 1.6 2.6 1.9 6.1 2.4 8Zm-33-10c-5.3 3.4-6.6 16.2-2.9 21.6 5 7.4 18.3 10.6 24 5.2l-21.2-26.8Zm3.1-2 21.4 26c2.2-5 3.6-9.8 3.3-15-.1-3.7-1.3-7-4.5-9-2-1.4-4.5-2.2-6.9-2.9-4.4-1.3-9-1.7-13.3 1ZM1197 469.3c-.2 7-2.7 13.1-7.5 18.2-4.7 5.2-13.7 6.6-20.6 3.8a24 24 0 0 1-14.5-15.1c-.8-2.5-1.2-5.5-.6-8 1.7-7.2 5-13.4 12.5-16.5 9.9-4.2 23-.8 28.5 8.2 1.8 2.8 2 6 2.2 9.4Zm-32.5-12.3c-6.4 4.4-7.3 17.4-1.8 24 4.8 5.7 16.9 8.7 21.7 3.9l-19.9-28Zm3.3-1.7 20.2 27a30.6 30.6 0 0 0 4-16.8c-.5-3.7-2.2-7-5.8-8.5-3-1.2-6-2.2-9.2-3-3-.8-6.1-.2-9.2 1.3ZM1238 141.7l-8.1-18.7-7 9.7c-1.6-15.9-3.6-31.2-3.4-46.7 4.8 7.5 7.3 16 10.6 24l.9.1 4.7-10c2.2 3.6 4.4 37.5 2.3 41.6ZM771.6 74 770 53.8l-9.1 6.5c3-15.2 5.8-30.3 10.8-45 2.3 8.6 2 17.4 2.6 26.1l.8.4 7.5-8c1 4.4-7.7 37.3-10.9 40.2ZM1094.1 207.6l-1.8-20.2-9 6.5c2.9-15.2 5.8-30.3 10.8-45 2.2 8.7 1.9 17.5 2.6 26.1l.7.4 7.6-7.9c1 4.3-7.7 37.2-10.9 40.1ZM894.1 304.3l.6 26.2.6.4 8-7.6c.8 3.5-9.9 37.6-13 39.5l-.8-20.3-10 6.5c4.3-15.3 8-30.3 13.5-44.8h1.1ZM718 122.2l-11-2.3c2.1-2.5 35.7-20.6 41.1-21.7l-5.6 6.5-6 6.3-6.4 6.1.3.9h11l.2.5a174.4 174.4 0 0 1-36.7 19l-.4-.6 13.6-14.7ZM1458.5 249a159 159 0 0 1-36.3 20l-.5-.7 13.5-14.9-11.7-2.3c13.8-8.1 26.9-16.2 41-22.5-4.8 7.4-11.3 13.3-17.4 19.6l.4.8h11ZM1110.5 308.3l-12.5-15.6-4 10.5c-6-14.3-12-28.5-15.9-43.5 6.6 6 11.3 13.4 16.6 20.4l.9-.2 2-11.3a182.6 182.6 0 0 1 13.7 39.3l-.8.4ZM1280.2 371.3c-3.2 8.8-8 16-12.5 24 4.4.2 8-1 11.5-2.3-8.9 10.8-18.9 20.3-30.1 28.5l-.6-.5 9.2-17.8-11.2.7c.7-2.5 28-29 33.7-32.6ZM1338.5 502.7c-3.2 8.7-8 16-12.5 24 4.4.2 8-1 11.5-2.3a167 167 0 0 1-30.1 28.5l-.7-.5 9.3-17.9-11.2.7c.7-2.4 28-28.8 33.7-32.5ZM1283 184.6c1.4 8.8.8 17.5.3 26.8 4-2 6.6-4.7 9-7.7 1 4.2-10.5 36.7-14 39.4v-20.4L1268 229c4.6-15.2 9-30 15-44.4ZM1313 701.7c2.6-.8 5-2.2 7.5-2.2 5.3-.1 9.8 3.4 8.4 9.6a13 13 0 0 1-4.4 7.6c1.3 1.6 2.9 3 3.6 4.7a7 7 0 0 1 .1 4.8c-2.3 6-6.8 8.7-13.5 7.2-.6-.2-1.3-.9-1.7-1.5l-14-23.3-2.9-4.7c-.3-.6-.5-1.5-.3-2 1.6-3.2 3.1-6.4 6-8.7 2-1.5 4.1-1.5 6.2-.5 3.6 1.6 4.7 3.6 5 9ZM1368.3 825.4c4.8 2.2 5.9 6.3 3.7 10.8a10.6 10.6 0 0 1-12 5.8 4 4 0 0 1-2.2-1.5c-4.5-6.8-8.8-13.7-13.2-20.6l-4.4-6.8c-.4-.7-.7-1.8-.4-2.3 1.3-2.6 2.6-5.2 4.5-7.4 3.2-3.8 8-3.5 10.9.7 1.1 1.7 1.5 4.1 2.1 6 2-.7 4.4-2 6.9-2.2 5.8-.4 10.1 3.4 8.7 9.6-.7 3-2 5.8-4.6 7.9ZM1191.4 662c.8-2.2 1.2-4.9 2.7-6.8 3.4-4.8 9.2-5.7 12.9-.7 1.7 2.3 2.6 5.2 3.9 7.8 1.5 0 3.5-.3 5.4.1 4.6 1 6.9 8.5 5.2 12.4-.4 1-1 2-1.5 2.8-1.5 2.2-3.2 3.6-6.2 3.1-8.4-1.2-16.8-2-25.2-3l-6-.7c-.6 0-1.5-.6-1.8-1.1-1-2.6-2.2-5.2-2.8-8-1-5 2.8-8.9 7.9-8.1 2 .3 3.8 1.5 5.5 2.2ZM1027.3 870.8c6 2.6 6 8.4 2 13.6-2.5 3.1-6.1 3.8-10 3.4-.6 0-1.4-.6-1.8-1.2l-15.2-19.6c-1.6-2-3.3-4-4.9-6.2-.4-.6-.8-1.7-.5-2.3 1.1-2.6 2.2-5.4 3.8-7.7 2.8-3.9 7.2-4 10.6-.7 1.4 1.4 2.5 2.9 2.3 5l.2 1.5c2.3-1 4.5-2.7 6.9-3 6.8-1 10.9 3.2 9.6 9.2-.6 2.7-2 5.2-3 8ZM826.1 775.9c-1.8-1-4.4-1.8-6.2-3.4-4.6-4.3-4.4-10 1-13 2.6-1.4 5.6-2 8.5-2.9-.7-2.6-.5-5.7 2.3-7.7 5.7-3.9 12.3-2.7 16.2 3.7.3.5.2 1.4 0 2l-5.8 23.7-2 8c-.2.8-.7 1.7-1.3 1.8-2.9.8-5.8 1.7-8.8 1.9-4.6.2-7.7-3.5-6.7-8.1.4-2.2 1.9-4.1 2.8-6ZM958.3 691.7c2.5-1.1 4.8-2.7 7.3-3 5.4-.7 10 2.3 9.3 8.7a13 13 0 0 1-3.9 8.4c3.4 1.3 5.6 3.5 5.3 7.1a10.6 10.6 0 0 1-7.8 9.9c-3 .6-5.7.9-7.9-2.2-5-7-10.2-13.7-15.4-20.5-1-1.5-2.3-2.9-3.4-4.4-.4-.5-.7-1.4-.6-1.9 1.3-3.3 2.5-6.7 5.1-9.3 1.8-1.7 3.8-2 5.9-1.3 3.7 1.1 5.6 3.7 6 7.5v1ZM1103.8 643.4c3.3 1.2 5.7 3.1 5.7 6.7a10.6 10.6 0 0 1-8.2 10.7c-2.7.7-5 .6-7-2-5.4-6.5-11.1-13-16.7-19.4-1-1.2-2.1-2.5-3.3-3.6-1.2-1-1.4-2.2-.8-3.6 1-2.3 1.8-4.8 3.2-7 2.7-4 7.1-4.3 10.8-1 2 1.7 2.5 4 2.6 6.1 2.3-1.2 4.4-3 6.8-3.5 5.8-1.3 10.6 2 10.2 8.3-.3 3-1.1 6-3.3 8.3ZM789.7 596.7c2.4-1 4.7-2.6 7-3 6-.7 10.6 2.8 9.5 9.4a13 13 0 0 1-4 7.8c3.7 1.6 6 4.1 5.2 8-1.3 6.7-6 10-13 9.1-.6 0-1.2-.7-1.6-1.3-5-6.5-9.8-13.1-14.7-19.7l-4.9-6.5c-.4-.6-.7-1.6-.5-2.1 1.2-2.6 2.3-5.4 4-7.7 2.8-3.8 7-4 10.4-.7 1.5 1.4 2.8 3 2.5 5.4l.1 1.3ZM1187.8 826c2.4-1 4.7-2.6 7-2.9 6-.8 10.6 2.8 9.5 9.3a13 13 0 0 1-4 7.8c3.7 1.6 6 4.1 5.2 8-1.3 6.7-6 10-13 9.2-.6-.1-1.2-.8-1.7-1.3l-14.6-19.8c-1.6-2.1-3.3-4.2-4.9-6.5-.4-.5-.7-1.5-.5-2 1.2-2.7 2.3-5.5 4-7.8 2.8-3.8 7-4 10.4-.7 1.5 1.5 2.8 3 2.5 5.4l.1 1.3ZM904.6 855.7c-.7-4.5.2-7.4 3.5-9 4.4-1.9 8.4-2 12.2 1.4 2.2 1.9 3.6 3.9 2.5 7.2-2.5 8.1-4.7 16.4-7 24.6-.5 1.8-.8 3.6-1.4 5.4-.2.6-.7 1.4-1.2 1.6-3.4 1-6.7 2-10.3 1.5-2.5-.3-4-1.7-4.8-3.9a7.8 7.8 0 0 1 2.5-9.2l1.4-1-3.1-1a9.9 9.9 0 0 1-7.1-7.5c-.8-3 1-6.5 4.3-8.1a19 19 0 0 1 4-1.6c1.4-.4 2.9-.3 4.5-.4ZM1348.6 646.3c-1.6-2.1-3.6-4-4.5-6.2-2.1-5.8.4-10.8 6.7-11.3 3.3-.3 4 0 8.8 1.8 1.2-6.9 6.8-8.1 12.7-5.4 3.8 1.8 5.3 5.2 5.7 9.2 0 .6-.4 1.4-.8 1.9l-16 19c-1.6 2-3.3 3.9-4.8 6-.9 1-1.8 1.4-3 1.1-2.6-.7-5.3-1.1-7.7-2-5.5-2.2-4.7-6.9-2.9-10.2 1-1.8 2.3-3.2 4.6-3.5.4 0 1-.3 1.2-.4ZM1406.5 692.6c9.2.7 16.7 4.2 20.9 13 1.5 3.1 1.3 6.7.7 10a26.3 26.3 0 0 1-11.4 17.5c-4.1 2.8-8.8 2.9-13.5 2a24.3 24.3 0 0 1-18.5-22.2c0-3.5 1.2-6.6 3-9.5 4.4-7 10.2-11.2 18.8-10.8Zm7.1 36.5-2.9-5.6-11.6-22.7c-1.4-2.8-2.4-2.8-4.5-.3-.4.6-.9 1.3-1.2 2a31 31 0 0 0-3.1 9.3c-.8 4.7 1 8.3 3.7 11.8 2.6 3.3 6.3 4.3 9.7 6 3.4 1.6 6.5.4 10-.5Zm-12.2-32 15.9 29.5c.4-.5 1-.9 1.2-1.4 1.6-3.4 3.5-6.7 4.6-10.2 1.4-4.2 1.2-8.6-2-12.1-2.9-3-6.7-4.5-10.5-5.8-3-1-6-1.1-9.2 0ZM989.6 649.6c-6.5.2-11-3.3-15-8.2-5.4-6.6-5.7-14-2.6-21.4 3.3-7.7 9-13.2 17.7-14a24.8 24.8 0 0 1 22.6 16c3 7.2.7 14-4.3 19.5-4.8 5.4-11 8.1-18.4 8Zm18.5-24.3c-2.1.5-4 1-5.8 1.3l-25.6 5.5c-2.7.6-3 1.2-1.4 3.6.5.9 1.2 1.7 2 2.4 2.5 2.3 5.3 4 8.4 5.5 4 1.7 7.7 1 11.5-.5s6-4.7 8.5-7.7c2.6-3 2.5-6.3 2.4-10Zm-1.2-4.2c-4.5-5-9-9.4-15.5-10.7-3-.6-6.1 0-8.5 2.3a62 62 0 0 0-6 6.6 13 13 0 0 0-2.8 9.6l32.8-7.8ZM1266.1 913.8c.3-7.6 1.7-13.2 6.1-17.8 3.2-3.2 7.4-4.4 11.7-4.7 6.4-.6 12.3 1 17.5 4.6 6 4 8 10.3 7.3 17.2a23.8 23.8 0 0 1-10.5 17.8c-5.1 3.6-10.4 4.2-16.2 2.4-6.6-2-11.8-5.7-14-12.5-1-2.7-1.5-5.6-1.9-7Zm9.2 11.5c4.5 5.2 17.3 4.6 22.5-.3 6.3-5.9 7.6-19.2 1.9-23.7l-24.5 24Zm21-26.8-1.4-.7a28.8 28.8 0 0 0-16-.7c-2.8.9-5.3 2.5-6.4 5.3a23.7 23.7 0 0 0-1.4 16.2c.4 1.3 1.2 2.5 1.8 3.9l23.4-24ZM1309.7 587.8a25 25 0 0 1-16.1 22.5c-4.8 1.7-9.3.5-13.9-1.3a19.8 19.8 0 0 1-12.7-18.1c-.6-8.3 2-16 9.4-20.6 2.5-1.7 6-2.3 9.2-2.4a25 25 0 0 1 19.4 7.5c3.7 3.6 4.5 8.3 4.7 12.4Zm-8.3-8.7-26.5 22c4 5 16.4 6 21.6 2.3 7.1-5 10.5-18 4.9-24.3Zm-3-3.2a30.9 30.9 0 0 0-16.5-2.9c-3.5.5-6.7 2.2-8 5.5a53.4 53.4 0 0 0-3 11.6c-.4 2.7.4 5.4 2.1 7.7l25.5-22ZM769.6 833c-6.3.1-10.9-4-14.9-9.7-4.8-7-4.3-14-1-21a21.4 21.4 0 0 1 18.3-13c3.8-.3 7.5 1.3 10.8 3.4a27 27 0 0 1 10.9 13.3c2.6 7.1.5 13.5-4.3 18.9a24.1 24.1 0 0 1-19.8 8Zm19.9-23.2H788l-19.5 3.3-11.1 1.9c-2.2.3-2.7.8-1.5 2.7 1.5 2.3 3.3 4.5 5.5 6.1 3.6 2.7 7.6 5 12.6 4.1 5.2-1 9-3.9 12.3-7.9 2.6-3 3-6.4 3.2-10.2Zm-34.2 1.7 32.8-6.1a30.5 30.5 0 0 0-11-10.1c-5.5-2.7-9.7-2.1-14.2 2.1a47.6 47.6 0 0 0-3.9 4c-2.4 2.9-3.9 6-3.7 10ZM885 678.2c-.7 8.8-4.3 15.6-11.9 20a15.5 15.5 0 0 1-11.3 1.4c-7.8-1.6-14-5.7-18-12.7-2.6-4.6-2.3-9.6-.7-14.5 2.8-8.7 12-15.6 21.1-16.1 4-.2 7.4 1 10.6 3.2 4.7 3.4 8.7 7.2 9.7 13.2l.6 5.5Zm-5.4-8c-2.9-7.1-15.2-10.5-22.7-6.7-6.6 3.3-12.3 14.7-8.4 20.8l31.1-14.1Zm1 3.5-30 14.4c2.4 2.8 9 6.2 13.6 7 4 .8 7.7.2 10.5-2.7 2.9-3 4.8-6.8 6-10.9.8-2.5 1-5.1 0-7.8ZM1091.2 721c.3-5.6 1.8-10.7 5.4-15 3.4-4.2 8-5.6 13.2-5.8a26 26 0 0 1 17.6 5.6c6 4.7 7.5 11.3 6.2 18.4a24 24 0 0 1-14.4 18c-4.8 2.2-9.5 1.2-14.3-.5-8.4-3-12.1-9.6-13.7-17.9v-2.7Zm34.2-10-25.7 22.7c3.6 4.8 16.1 5.6 21 2.1 7.5-5.2 10.5-18.4 4.7-24.8Zm-3-3.1c-5.7-2.1-11-3.3-16.6-2.3-3.5.6-6.7 2.3-8 5.6a51.9 51.9 0 0 0-2.5 12c-.3 2.5.5 5.3 2.3 7.4l24.8-22.7ZM1019.6 781.8a27 27 0 0 1-4 13.5 16.8 16.8 0 0 1-9.3 6.5 24.1 24.1 0 0 1-27.7-10.9c-2.4-4.4-2.1-9-1.2-13.7 1.7-8.6 7.3-13.6 15.1-15.9 8-2.2 15.9-1.3 22 4.8 4 4 5 9.4 5 15.7Zm-8.4 11-1-.7-16-12.9-8.5-6.8c-1.8-1.4-2.4-1.4-3 .7-.7 2.6-1.2 5.4-1 8 .5 5 1.6 10 6.5 13.1 4.1 2.7 8.4 3.2 13.2 3.1 4 0 6.8-2 9.8-4.6Zm2.4-3.7c1-6 1.4-11.4-.6-16.8-1.1-3.1-3.2-5.7-6.3-6.6-5-1.5-10.2-1.8-15.3 0-1.6.6-3 1.7-4.7 2.7l26.9 20.7ZM913.4 773.2c-.5 9-2.8 15.9-8.7 21a16.9 16.9 0 0 1-13.4 3.8 23.8 23.8 0 0 1-20.5-15.9c-2-5-.6-9.7 1.5-14.5 3.5-8 10-11.7 18.2-12.2 8.3-.4 15.8 2.3 20.5 9.8 1.6 2.6 1.9 6 2.4 8Zm-33-10c-5.3 3.4-6.6 16.1-2.9 21.5 5 7.4 18.3 10.7 24 5.3l-21.2-26.9Zm3.1-2 21.4 26c2.2-5 3.6-9.8 3.3-15-.1-3.8-1.3-7-4.5-9.1-2-1.4-4.5-2.1-6.9-2.8-4.4-1.3-9-1.8-13.3 1ZM1238 760.8l-8.1-18.7-7 9.6c-1.6-15.8-3.6-31.1-3.4-46.6 4.8 7.5 7.3 15.9 10.6 24h.9l4.7-9.9c2.2 3.6 4.4 37.4 2.3 41.6ZM771.6 693l-1.7-20.2-9.1 6.6c3-15.2 5.8-30.3 10.8-45 2.3 8.6 2 17.4 2.6 26.1l.8.4 7.5-8c1 4.3-7.7 37.3-10.9 40.1ZM1094.1 826.7l-1.8-20.3-9 6.6c2.9-15.2 5.8-30.3 10.8-45 2.2 8.6 1.9 17.4 2.6 26.1l.7.4 7.6-8c1 4.3-7.7 37.3-10.9 40.2ZM718 741.3l-11-2.4c2.1-2.4 35.7-20.5 41.1-21.6l-5.6 6.5-6 6.3-6.4 6 .3 1h11l.2.5a174.3 174.3 0 0 1-36.7 19l-.4-.6 13.6-14.7ZM1458.5 868a159 159 0 0 1-36.3 20l-.5-.6 13.5-15-11.7-2.3c13.8-8 26.9-16.1 41-22.4-4.8 7.4-11.3 13.3-17.4 19.5l.4.8h11ZM1110.5 927.4l-12.5-15.7-4 10.5c-6-14.2-12-28.4-15.9-43.4 6.6 6 11.3 13.4 16.6 20.3l.9-.1 2-11.3a182.6 182.6 0 0 1 13.7 39.3l-.8.4ZM1068.8 553c7.6 4.7 13.7 11 20.2 16.8l.6-.4v-11.3a178.3 178.3 0 0 1 21 35.9l-.6.5-15.4-13-1.8 11.1-.4.2c-8.2-13-16.9-25.8-23.6-39.7ZM1283 803.7c1.4 8.7.8 17.5.3 26.7 4-2 6.6-4.7 9-7.7 1 4.2-10.5 36.8-14 39.5v-20.4L1268 848c4.6-15.3 9-30 15-44.4Z"/>
  </g>
</svg>
