<svg fill="none" xmlns="http://www.w3.org/2000/svg" viewBox="0 0 126 147">
  <g clip-path="url(#a)">
    <path d="m18.6 95 28.8 4.4L19.2 134l-6 7.3 9.5-.7 16-1.3H40l1-.9 71.5-60.8L118 73l-6.7-2.4-22.6-7.8L113.3 24l.6-1V8.5l-6.6 5.4-90.6 73.9-7 5.8 9 1.3Z" fill="#FFAD0D"/>
    <path d="m4.1 146 35.7-43.7L.1 96.2 118 0v24L94.8 60.8 126 71.5l-84.4 71.7-37.5 2.9Zm15.2-55L55 96.4l-32.6 40 16-1.2 71.5-60.8L82.5 65l27.4-43.3v-4.6L19.3 90.9Z" fill="#fff"/>
    <path d="m102 75.8-19.7-8h-6.2l1.9 5.6 6.8 2.4H102Z" fill="#FFE9C8"/>
  </g>
</svg>
