<svg fill="none" xmlns="http://www.w3.org/2000/svg" viewBox="0 0 300 200">
  <path d="M72 65c-.6-1.4-1.7-2.5-2.4-3.8-.9-1.5-2.2-2.6-2.6-4.3 0-.4-.4-.5-.6-.7-1.1-.6-2-1.3-2.8-2.2-.2-.2-.5-.5-.2-.8.3-.3.6-.1.8 0 .9.6 1.6 1.3 2.6 1.8 0-.3.1-.5.3-.8.6-1 .3-1.7-.9-2-2.2-.7-4-2.1-5.2-4.1-.1-.3-.6-.6-.2-1 .4-.3.7.2 1 .5a13 13 0 0 0 2.7 2.5l1.6.7c-.1-1.2-.8-2.1-1-3.2v-1.3c0-.8.6-1.3 1.4-1.2 1.3.3 2.7.4 4 .3a7.4 7.4 0 0 0-1-3.1c-.4-.7-1.2-1.4-.3-2.3.2-.3-.4-1-1-1.3l-2-1.1c-.3-.2-.6-.2-.7-.5.3-.4.7-.2 1.2-.4l-3.5-2.5c-1-.8-1.5-1.8-1.2-3 .1-.7.3-1 1-.7l5.3 2.2c.3.1.6.3.9-.3.1-.3.5-.3.9-.3l1.2.2c.2-.2 0-.4 0-.6-.3-.8 0-1.2.7-1.4 1.4-.3 2.7-.4 4-.5.5 0 1 0 1.3-.3-.6-1.6-.1-2.2 1.7-2l2.1.1-1.5-2c-.2-.3-.5-.7-.1-1 .4-.4.7 0 1 .3.7.9 1.5 1.8 2.4 2.5.3.2.6.4 1 .4s.9 0 1-.3c.2-.3-.2-.5-.4-.8-1-1.2-1.9-2.5-2.5-4-.2-.2-.4-.6 0-.9.4-.2.6.2.8.5.8 1.1 1.6 2.3 2.6 3.4 0-.8 0-1.5-.2-2.2 0-.8.3-1 1-1 1.7 0 3.3.4 5 .6.8 0 1.1 0 1-1-.2-2 .8-3.4 2.9-3.8.5-.2.4-.4.3-.7-.2-.5-.3-1-.1-1.6.6.3.8.8 1 1.3l1 1.4c.5 1.3 1.7 1.3 2.7 1.6.5.1.6 0 .6-.5 0-.3.2-.6.1-.9-.2-1.4.7-2.3 1.7-3-1-1.1-2.6-1.7-2.9-3.5.6.1 1 .4 1.3.7l3.4 2.6c.4.3.9.4 1.2.3.5-.2.4-.7.4-1.1 0-1.4.2-1.5 1.6-1.2l1 .1h.6c-1.3-1-2.3-1.9-3.2-3l-.5-.5c-.2-.3-.2-.7 0-.8.3-.3.5 0 .7.2 1.3 1.4 2.7 2.7 4.4 3.6.8.4 1.1.3 1.2-.6 0-1-.1-2-.6-3-.4-.7-1-1.6.3-2 .5-.2.1-.5 0-.7l-.8-3c0-.3-.2-.7.2-.8.4-.1.5.3.6.6l1 2.5c0 .3.1.6.6.6 4-.5 8 .5 11.8 1.6 6.6 1.8 13 4 19.6 6.1 2.7 1 5.2 2.2 7.8 3.3 1.4.6 2.8 1 4.2 1 6.6-.1 13 1.3 19.2 2.8 9.8 2.5 19.3 5.7 28.6 9.4 2.6 1.1 5 2.5 7.5 4 .7.4 1.2.9 1.8 1.4 4.3 4.2 7 9.3 8.4 15.1 1.4 5.5 2.4 11.1 3 16.8.6 7 .6 14.2.6 21.4v1.9c-.1 1-.3 2 1 2.9 1.5.8 1.6 2.7 1.7 4.2.4 6.8-.6 13.3-2 19.9-1 5.2-2.2 10.3-3.8 15.3-.4 1.1-1 2.1-1.9 3a78 78 0 0 1-13.3 10.7c-.6.3-1 1-1.4 1.5-2.3 3-5.2 5.3-8.8 6.8a17.7 17.7 0 0 1-10.4.7h-1.1a52.5 52.5 0 0 1-11.8 3.1c-2.5.4-4.8 1.2-7.3 1.7a96 96 0 0 1-20.8 2c-.3 0-.5 0-.7.3-3 3.3-7 5.1-11 6.7a48 48 0 0 1-10.4 2.9 21 21 0 0 1-15.3-2.7 20.4 20.4 0 0 1-6-5.7 32 32 0 0 1-5.6-21.7c0-1.8-.4-2.8-2-3.4-1-.4-2-1.2-3-1.8-1-.7-1.4-.6-2.2.3-1.3 1.6-3 2.4-4.8 3.2-1.9.8-3.8 1.5-5.9 2-6 1.7-12-3-13.7-7.3a31 31 0 0 1-2.3-14.3c.1-1 .3-2.2.1-3.3-.2-1.2-1-2.2-2-3-2-1.5-4.1-3-5.6-5.2-.5-.7-.5-1 .4-1.3 1.6-.5 3.1-1.4 5-1l.3-.2c.3-.7 1-1 1.7-1.4l-2.4-2c-.2-.2-.5-.4-.4-.7.2-.3.6-.1.8 0l2.3 1.4.3.3.3.2c.1-.1 0-.3-.1-.4l-.2-.2c-.5-.7-1.2-1-1.7-1.5-.3-.3-.8-.5-.5-.9.2-.3.7-.1 1 0 1 .4 1.7 1.1 2.4 1.8.2.2.3.7.7.3l1-1.1-.4-.3-2-1.4c1-.1 1.9.2 2.7.6.3.1.6.3 1-.1.3-.5-.2-.5-.4-.8 0-.2-.3-.5-.5-.7-.2-.2-.6-.4.1-.4.3 0 .2-.4.2-.5-.3-1.3 0-2.5.2-3.7 0-.7-.2-1-.7-1.4l-.8-.6c.3-.2.7 0 1 0 1.2.6 2.3 0 3.4-.5-.6-1-1-2.1-1.2-3.3 0-.5-.4-.6-.7-.7-1.2-.4-2.4-.8-3.5-1.4-1-.5-1.7-1.3-2-2.4 0-.3 0-.6.3-.7.3-.1.4.2.5.3 1 1.8 2.8 2.3 4.6 2.8.8.3.5-.4.4-.7-.2-1.7.6-3 2-3.9.6-.3.7-.7 1-1.2.1-.5 0-.8-.4-1.1-1-1-2.2-1.5-3.5-1.8a10 10 0 0 1-4.7-2.6c-.2-.2-.6-.3-.3-.6.2-.2.4 0 .6 0 2.2 1.4 4.8 1.9 7 2.9.2.1.3.1.4 0 .2 0 0-.1-.1-.2l-1.4-1.8c-1.3-1.4-.9-2.6.8-3.4.7-.3.7-.5.3-1-1.2-1.9-2.8-3.5-4.3-5.2-1-1.2-1.9-2.4-1.7-4.1.1-1 .6-1.4 1.5-1.4 2 .1 3.9.5 5.4 1.9l1 .8.2.1V65Zm31-43-.3.2-.4.4c-.1 0-.3 0-.3.2-2.2.9-4 .2-5.5-1.4-.3-.3-.6-.8-1.1-.6-.6.1-.7.8-.8 1.3v.6c0 2-1 2.7-3 2.5l-3-.4c-.5 0-.8 0-.8.6l-.2 2c-.1 1.8-.7 2.4-2.5 2.4-1.6 0-3.2.2-4.8-.3H80v.1c.3 1.1-.4 1.6-1.3 1.8l-3.4.4c-.5 0-1.2 0-1.4.5-.2.6.5.8 1 1.1.4.3.7.6.6 1.1-.3.6-.8.6-1.2.5l-2-.4c0-.1-.2-.2-.3-.1l.2.2c2.7 2 6 3.2 8.9 4.7a129.2 129.2 0 0 1 15.2-6.9 179 179 0 0 1 17-5.9c8.4-2.4 17-4 25.4-6 2.2-.5 4.2-1.4 6.6-1.8a214 214 0 0 0-32-9.4c.4.7.8 1.2 1 1.8.5 1 .7 2.1 0 3-1.1 1.2-2.7 1.6-4.3 2h-2.6c1 .7 1 1.5.6 2.2-.3.7-1 .6-1.7.6h-.6c-.6-.3-1.3-.3-2-.4-.4-.1-.5 0-.5.5.1.8 0 1.7-.1 2.5-.2 0-.3.2-.3.4Zm8.8 127.3c0-.2 0-.4-.2-.5-.6-1.4-1.1-2.8-3-3.3 1 1.2 1.8 2.4 3 3.4l.1.4ZM108 165l-.2-.2h-.1l.3.2ZM76.6 38c0-.2-.2-.2-.4-.3-3.2-1.9-6.9-2.7-10.3-4 1.7 1.2 3.4 2.5 4.9 3.9a5 5 0 0 1 1.2 3.2 2 2 0 0 0 .4 2.2c.3.6.4 1.3.4 2 0 .8-.2 1.4-.8 2a3.5 3.5 0 0 1-3.7.7c-.8-.3-.7 0-.6.7.3 1.2 1.2 2 1.8 2.9 1 1.6 1.7 3.2.7 5.2-.4.9-.1 1.8.5 2.6.9 1 1.8 2.1 2.5 3.3 1.1 1.7 2 3.5 1.5 5.6-.1.7-.4 1.2-1.1 1.4-.7.1-1-.2-1.5-.7-1.6-1.7-3.6-2.6-5.6-3.6-.1-.1-.3-.2-.4 0l.2.2c1.3 1 2.4 2.3 3.4 3.6 1.1 1.6 2.4 3.1 2.8 5.1.2.9.4 1.7-.7 2.2-.4.2 0 .4.1.5a13 13 0 0 1 2.4 5c.7 2-.8 3.2-1.6 4.7l-.3.2c-.4.4-1.3 0-1.4.8v1.8l.5 1.6c.5 1.1.8 2.2.8 3.3 0 1-.1 1.7-1.1 2-.9.4-1.8.8-2.4 1.5-.5.6-.7 1.3 0 1.8 1.8 1.3 3.2 3.2 4.7 5 1 1 1.6 2.3.6 3.8v.6c.6 1.7.5 3.4.5 5-.1 1.5-.8 2.2-2.1 2-2-.1-4 .1-5.8-.6a6.9 6.9 0 0 0-3.7-.7v-.1.1l.4.4 7.3 5.2c3.8 2.8 7.6 5.8 11.6 8.5.2.1.4.4.7.3v.1-.1l-.6-2.4c-1.7-7.2-2.2-14.7-3.4-22-.5-3.1-.6-6.4-.9-9.6l-.9-12.1c-.2-2.1-.2-4.3-.5-6.5a145.4 145.4 0 0 1-.1-30.1l.6-2.2a7.3 7.3 0 0 1 3.5-4c-1.5-.6-2.6-1.5-3.9-1.8 0-.2 0-.2-.2-.2Zm-4.4 84.9c.2 1.3 1.1 2.2 1.5 3.4-.2-1.3-.4-2.5-1.5-3.4Zm2.2 15.1c.7-.1 1.3-.6 1.8-1 .6-.3.4-.6 0-1l-1.3-1.7-1 3.3c0 .4.3.4.5.4Zm.6.9c-2.2.3-3.7-.7-5-2.2-1-1-1.6-2.2-2.3-3.3v.6c.7 1.8 1.9 3.3 3.3 4.5.9.8 1.8 1.3 3 1.4.8.5 1.7.8 2.7.6 3.2-.6 6.3-1.5 9.2-3.2a4 4 0 0 0 2.1-3.2c.7-1.2-.2-1.8-.9-2.5-.3-.4-.7 0-1.1 0-.6.1-1.3.5-1.8 0-1.2-1.3-2.8-2.2-4.1-3.3-.3-.2-.6-.5-1.1-.4l-.1-.1a11 11 0 0 1-.5 8 7 7 0 0 1-3.2 3H75Zm39.2 17.2h-.1c.1 3.3 1.2 6.5 1.6 9.7.1.5.5.4.8.3.4 0 .5-.2.4-.6a43 43 0 0 1-1.8-8.7c0-.6-.5-.7-1-.8Zm3.2 7.2.2 2.4c2.7-1.2 4-3.4 5-5.9.2-.7-.4-.6-.8-.7-1.6-1.2-3.6-1.5-5.3-2.3-.3 0-.5 0-.4.4.4 2 .6 4.1 1.3 6Zm-11.9-3.4c1 1.7 2.2 3.2 3.6 4.7l1.3.8c.3.1.6.1.6-.4-.3-1.4 0-2.8-.5-4.1l-.2-5c0-.5-.3-.5-.7-.5h-5.3c-.8 0-.8.3-.6 1 .5 1.1 1 2.4 1.8 3.5Zm34.6 1.3h-.9c-5.5-1.2-10.2-4-15.2-6.7.3 1.6.1 3 0 4.4l-.2.4c-1 4.3-3.4 7.2-7.8 8.1-2.5.2-4.8-.6-7.1-1.5.9.8 1.2 2.2 2.4 2.6 1.4.4 2.8.9 4.3 1 1.7.3 3.4.5 5.2.2a134 134 0 0 0 9.2-2.2c2.8-.8 5.6-1.6 8.3-3 1.3-.6 2.5-1.6 2.8-3.3l-.2-.1h-.8Zm-14-133.8-1 .1c-9 2.3-17.9 5-26.6 8.2-4.3 1.6-8.6 3-12.8 5-.5.2-1 .4-1.4.9-1 1.3-2 2.8-2.5 4.4a8 8 0 0 0-1 3c-.4 1.2-.7 2.4-.6 3.7l.8 16 .4 7.8c.3 4.8.8 9.7.8 14.6l.1 1.5c.8 3.3.9 6.6 1.3 10 .2 2 .2 4 .6 6 .6 2.9.7 5.8 1.2 8.7.6 4 1.1 7.8 2.3 11.5a9.9 9.9 0 0 0 5 5.9l7.2 4 6.8 3.8.1.1c.1 0 .1-.1 0-.2l-.2-5-.7-12.5c-.3-5.7-.8-11.4-1-17 0-2.8 0-5.6-.2-8.4l-1-19c-.1-1.7 1.2-3.1 3-2.4 1.8.8 3.6 1.6 5.4 2.2 3.9 1.5 7.7 3 11.4 4.7 1.2.5 2 1.2 1.7 2.7V89l.8 9.3c.7 6.6 1 13.2 1.3 19.8.3 7.4.3 14.8.8 22.1.3 5 1 10 1.3 15 0 .4 0 .7.5 1 2.3 1 4.6 2.4 7.2 2.9.6 0 1 .1.9-.8l-1-9.9a390.4 390.4 0 0 1-1.4-18.7c-.2-2.2-1.5-3.8-3-5.3-.5-.5-.8-1-.9-1.7 0-1.3-.2-2.6-.4-3.8-1.2-6.2-1.6-12.5-1.7-18.8-.1-4 0-8 .2-12 .1-3.5.4-7 .9-10.5.3-2 .8-4 1-6l.7-2c.7-2.4 2-4.1 4.4-5l1.6-.6 1.1-.3a612 612 0 0 1 27.7-9c7.2-2.2 14.5-4 21.6-6.5a237.2 237.2 0 0 1 25-7.2c-1.3-1.2-2.6-2.1-4.1-2.8A140 140 0 0 0 196 32a184 184 0 0 0-34.9-9.4 37 37 0 0 0-11.7 0c-4.4.6-8.8 1.5-13.2 2.4-3.1.7-6.3 1.2-9.5 2.2l-.6.1ZM184 153.3l9.3-3c4.4-1.4 8.5-3.4 12.3-5.9 1.3-.8 2.3-1.8 2.5-3.4.7-3.7.9-7.5.8-11.2l-.2-2.2a48 48 0 0 1-6.1 3c-9.8 4.3-20 7.3-30.2 10-2.2.6-4.4 1-6.5 1.8-.7.1-1.4.4-2.1.4-.8 0-1 .4-1 1.2 0 4.4.2 8.8.4 13.2 0 .9.4 1 1 .8 5-.9 10-1.9 14.9-3.2 1.2-.4 2.6-.5 3.8-1.3h.3c0 .1.2.1.2 0l.2-.1.4-.1Zm38-68.8c0-6.5-.3-13.1-1-19.7a98.2 98.2 0 0 0-2.9-15.2c-.6-2.3-1.1-4.7-2.6-6.7-.3-.5-.6-.6-1.2-.5-3.5.7-7 1.5-10.6 2.5-6.4 1.8-12.7 4.1-19.1 6-9.2 2.9-18.5 5.3-27.7 8.2-6.4 2.1-12.8 4.5-19.3 6.4a4.9 4.9 0 0 0-3 2.5c-.5.7-.8 1.5-1 2.2A78 78 0 0 0 131 90l-.2 5.6c-.2 5.4.2 10.8.6 16.2.3 3 1.2 6 1.4 9 0 1 0 2 .7 2.9l2.2 2.3c.6 1.5 1 3 1.2 4.7.3 4.5.5 9 1 13.6.4 4.8 1 9.5 1.2 14.3 0 .6.3 1 1 1.2 1.2.4 2.2.1 3.3.2 6 .5 12-.6 18-1.4.3 0 .4-.1.4-.6 0-4.5-.4-9-.5-13.5 0-2.3 0-2.3 2.3-2.9 8-1.8 15.8-4 23.5-6.5 7.3-2.4 14.6-4.8 21.4-8.7.8-.5 1.5 0 1.5 1.2 0 4 0 8-.5 12l-.5 3c1.9-1.4 3.5-2.7 5.3-3.9 2.2-1.5 3.6-3.7 4.5-6.2a90 90 0 0 0 5.2-33.2c0-.9-.1-1.7-1-2-.8-.3-1-.7-1-1.5v-.6l-.1-1.5v-9ZM128 155.1c-.6-6.3-1.2-12.4-1.5-18.5l-.7-20.3c-.1-3.8-.3-7.7-.6-11.5-.3-5.1-.8-10.2-1-15.3-.3-3-.2-3-3-4.2h-.1c-4.8-1.9-9.7-3.5-14.3-6-1.2-.5-2 0-2 1.1l.1 3.4.7 11.2c.3 4 .4 8.1.4 12.2 0 3.7.6 7.3.8 11l.9 18.3.3 6.3c0 .4.2.7.6 1 6 3.4 11.8 7.2 17.9 10.6l1.5.7Zm22.2-134c-1.6-.7-2.7-1.8-4.5-1.2-2.6.9-5.2 1.5-7.9 2.1-6.8 1.6-13.8 2.9-20.6 4.7-12.4 3.4-24.4 8-35.8 14-1.1.5-2.1 1.2-2.6 2.4-1.1 3-1.8 6-1.9 9.2a196.3 196.3 0 0 0 1 28c.5 4.7 1 9.4 1.3 14 .3 4.8.9 9.6 1.5 14.3.8 5.5 1.5 11 2.6 16.4.4 1.8.6 3.6 1.8 5 .4.5.8.6 1.2.3.5-.3.1-.6 0-.9a65 65 0 0 1-2.4-11.8c-.3-2.6-.4-5.1-.9-7.7-1-5.4-1.5-10.9-1.9-16.4l-.9-11.4c-.1-4.1-.5-8.2-.7-12.3L79 58l-.2-5.9c0-2.3.6-4.7 1.3-7 .7-2 1.6-4 3.6-5a279.5 279.5 0 0 1 48.9-15.8l17.5-3.4Zm-34 129c-.7-.8-1.2-.8-1.8-.2-.4.5-1 .8-1.5 1.1-.5.3-.9.3-1.3-.1-1.8-1.7-3.2-3.6-4.7-5.4-1-1.3-2-2.5-3.6-3.2-.2 0-.6-.5-.8 0-.3.6-.5 1.2.2 1.7.5.3 1 .8 1.3 1.2 2.2 2 4 4.2 6 6.4.3.3.6.7.4 1.2-.3.4-.7.3-1.1.3h-1c-1.7-.6-3.2-.4-4.8-.3-.6 0-.7.3-.6.8 0 .6.3 1 1 .9 2-.3 4-.1 6 0 .9 0 1.2.3 1.2 1.2 0 1.4.3 2.8.5 4.2.1 1.9.5 3.7.4 5.6 0 .3-.1.4.2.5.7.2 1.5.5 2 .1.5-.3 0-1 0-1.5-.6-2.7-1.3-5.3-1.3-8 0-1.2.1-1.4 1.3-1.3a22.7 22.7 0 0 1 8.6 3c0-1.3-.4-2-1.4-2.3l-1.3-.4-6.5-1.8c-.8-.2-1-.5-.4-1.2a8 8 0 0 1 3-2.6Zm-58.8-39.6 3.9 2.6.3.1c2.1 0 4 .8 6 1.5.5.1 1 .4 1.6.1l-.4-.2a26 26 0 0 0-3.4-2.2c-.2-.1-.6-.4-.4-.8.2-.3.5-.1.8 0 .9.1 1.8.4 2.4 1.1 1.2 1.4 3 1.7 4.5 2.2.5.1.8-.2.8-.6 0-.4.5-1-.1-1.2-1.7-.9-3.2-1.9-4.7-3-.2-.2-.8-.1-.7-.5.2-.4.7-.3 1.1-.2l.7.3c1.2.8 2.5 1.2 3.6 2.2.2-.3 0-.6 0-.8-.2-1.3-.5-2.6-.3-4 .2-1.1 0-2.2-.9-3-.4-.4-.9-.5-1.3-.3-.4.3.2.6.3.9.1.4.2.8-.2 1-.4.3-.6 0-.9-.3l-.7-.8c-.2-.1-.3-.3-.5-.2-.3.1 0 .3 0 .5 0 .4.2 1-.6.7-.4-.1-.5.2-.6.4-.8 1.7-2 3-4 3.3-.2 0-.6 0-.6.4 0 1-.7 1-1.4 1-1.4 0-2.7-.4-4.3-.2Zm19.9 25.1c.3-.6 1-1.3.5-1.8-1-1-1.9-2.4-3.2-3.4-.5-.3-.6-.8-.2-1.5.6-.9 1.3-1.6 2.1-2.3.2-.1.5-.3.3-.5-.4-.3-.8-.7-1.3-.8-.4-.1-.3.5-.5.8l-.6 1.2c-.5.7-.8.8-1.3 0l-1-1.6-2.3-4.2c-.2-.3-.4-.7-.8-.5-.5.2-.4.6-.3 1l.4 1.1 2.7 4.5c.3.6.5.8-.4 1l-2.7.3c-.2 0-.5 0-.5.3s.2.3.5.3H71c1 0 1.2.6.8 1.4-.4 1-.8 2-1.4 2.8-.6.8-.3 1.3.2 1.9.3.3.5.3.7-.2.4-1.2.8-2.3 1.4-3.5.6-1.3 1-1.4 2-.2.9 1.2 1.5 2.7 2.7 4Zm29.5 28.6c.2-.3 0-.5-.2-.7-1.5-1.8-2.7-4-3.7-6.2-1.2-3-2.2-6-2.3-9.2l.3-6.4c0-.8-.5-1.3-1-1.3s-.4.7-.4 1.1c0 2.8 0 5.5.3 8.3.6 4.5 2 8.7 4.6 12.4.6.9 1.4 1.5 2.3 2Zm-5-19.1v3.2c0 .4.2.7.6.7 1.5.1 2.9.6 4.4.9l-5-4.8Zm-35-14.2h.2l-.4-3.3c-.2-2.4 0-4.8 1-7.1.3-.4-.4-1.7-.9-1.7-.3 0-.3.3-.3.4-.3.6 0 1.3-.1 1.7-.7 2.1-.3 4.2-.1 6.3 0 1.3.3 2.5.5 3.7Zm122.4 22.2.1.3c3.7-.5 7-2 10.2-4l-.1-.2-10.2 4Zm-81-1.5c0-.5-.4-.7-.8-.8l-4.3-.6c-.3 0-.7-.3-1 0-.2.4 0 .8.2 1.2.2.4.5.1.8.1h1c1.3 0 2.7-.1 4.2.1Zm-34.7-19.5-1.5 4.3c-.2.6.2.8.6 1 .4.1.3-.4.4-.7.3-.9.5-1.9.9-2.8.2-.7.2-1.2-.4-1.8Zm-4-1.6c-.4 0-.8-.2-1.1.1-.3.2.3 2.5.6 2.5.7.1.6-.6.9-1 .2-.1.3-.4.4-.7.5-1 .5-1-.5-1h-.3Zm.4-3.6-1.7-3.6c-.3.6-.4 1.2-.4 1.8-.3 1.3-.1 1.5 1.2 1.6l.9.2Zm52.9 28.3c0-.6-.2-.9-.8-1l-5-1.2c-.4 0-.7-.2-1 .2 2.3.7 4.6 1 6.8 2Zm-4.6-4c-1.1-.8-3 0-3.9 1.9 1.1-1 2.5-1.2 4-1.8Zm-6.1-3.7-.2.1.8 1.5c0 .2.2.4.4.2.3-.1.6-.3.7-.6.1-.2-.1-.3-.3-.4l-1.4-.8Zm8.5 5.3c-1.1-1.2-1.5-1.3-2.6-.4.9 0 1.6.6 2.6.4Zm-45.2-23.6.1.1 2-1.2c.3-.1.3-.4.1-.6-.2-.3-.3 0-.5 0l-1.7 1.7Zm2.6-.3-1.3.9 1.5.8c.2-.6-.1-1-.2-1.7Zm.2 3.6c.3-1.1-.4-1.2-1.1-1.2l1.1 1.2Zm-8.5-4.5c-.5-.2-1-.6-1.8-.3.8.2 1.3.4 1.8.3Zm-2.3 4.8c0 .2 0 .2 0 0ZM121 153Z" fill="#000"/>
  <path d="M56 105.1c0 1-1 1.9-2.2 1.8-.6 0-1.1-.3-1.1-1 0-1.3.8-2.2 1.7-2.2 1 0 1.6.6 1.6 1.4Zm-2.3.4c-.1.3 0 .6.4.5.5 0 1-.2 1-.7 0-.5-.2-.9-.7-1-.7 0-.6.6-.7 1.2ZM84.8 19c-.4-.1-.6-.8-.4-1.3.4-1 1.4-1.4 2.3-1l.6.3c.4 0 .7.3.8.7 0 .4-.2.7-.6 1-.4.2-.7.4-1 .8-.5.4-1.3.2-1.7-.4h1c.2-.3.4-.6.7-.7.3 0 .5-.2.5-.5s-.3-.4-.5-.5c-1-.3-1.8.6-1.7 1.7ZM109.5 9.2c0 .2-.1.6-.6.6-1.6 0-2.6-.5-2.6-1.4 0-1 .7-2 1.4-2 1.2.1 1.8 1 1.8 2.8Zm-.7-.9c0-.8-.2-1.3-1-1.3-.7 0-.9.6-.9 1.2 0 1 .9.6 1.4.7.6.2.4-.4.5-.6ZM58.5 61.1c-.9 0-1.2-.3-1-1.1.3-1.3.7-1.8 1.9-1.8.7 0 1.2.5 1 1.2 0 .7-1.1 1.7-2 1.7Zm.5-.5c.6 0 .1-.8.4-1.1.2-.2 0-.3-.3-.3-.7 0-.8.4-.9 1 0 .4.3.3.8.4ZM67.8 27.5a5 5 0 0 1-1.6 2.5c-.7.3-1.1 0-1.2-.7 0-.8.7-2.2 1.5-2.6.7-.4 1.2 0 1.3.8ZM66 29.4c.5-.7 1-1 1.2-1.7l-.1-.5c-.1-.1-.4 0-.4 0-.4.7-1 1.2-.7 2.2ZM61.5 83.2c0 1-1 2-1.7 2-.6 0-1-.5-1-1.2.2-1.3.7-2.1 1.5-2 .8 0 1.2.4 1.2 1.2Zm-.4 0c0-.2-.1-.6-.6-.6-.7 0-1.1.5-1.1 1.3 0 .3 0 .7.5.6.6 0 1.2-.2 1.2-1.2ZM65.4 94.6l-.1-.1Z" fill="#000"/>
  <path d="M126.8 27.2c3-1 6.3-1.5 9.5-2.1 4.3-1 8.7-1.9 13.1-2.5 4-.6 7.8-.6 11.7 0 12 2 23.6 5.1 35 9.4 4.6 1.8 9.2 4 13.6 6.2 1.5.7 2.8 1.7 4.2 2.8l-6.3 1.5c-6.3 1.6-12.6 3.7-18.8 5.8-7.1 2.4-14.4 4.2-21.6 6.4a612 612 0 0 0-27.7 9l-1.1.3c-.5-.5-1.3-.6-1.9-1-5-2.7-10.3-5.3-15.2-8.6-2-1.5-4.3-2.7-6.6-3.7a17 17 0 0 1-5-3.2l-4-3.7c-1.2-1.1-1.7-2.5-1.2-4 1.1-3.6 3.5-5.8 6.9-7.2 3.7-1.4 7.4-2.5 11.2-3.8 1.2-.4 2.5-.6 3.5-1.4.3 0 .5 0 .7-.2Z" fill="#C70DFF"/>
  <path d="m106.7 142.5-6.8-3.8c-2.4-1.4-4.8-2.8-7.2-4a9.9 9.9 0 0 1-5-5.9c-1.2-3.7-1.7-7.6-2.3-11.5-.4-2.9-.6-5.8-1.2-8.7-.4-2-.4-4-.6-6-.4-3.4-.5-6.8-1.3-10l-.1-1.5c0-5-.5-9.8-.8-14.6a8164.4 8164.4 0 0 1-1.3-23.8c0-1.3.3-2.5.7-3.7.2 0 .5 0 .7.2.8.5 2 .4 2.5 1.5-.2.4 0 .6.4.7 2.2.5 4.3 1.7 6.4 2.6 8.1 3.4 16.3 6.7 24.2 10.8 2.7 1.4 5.6 2.6 8.5 3.6.5.1 1 .4 1.3-.3 2.1 1.5 4.6 2.5 7 3.5l-1.1 6a211.5 211.5 0 0 0-1.1 22.5c0 6.3.5 12.6 1.7 18.8l.4 3.8c.1.7.4 1.2.9 1.7 1.5 1.4 2.8 3 3 5.3 0 2 .2 4 .3 5.9.3 4.3.8 8.5 1.2 12.8l.9 10c0 .8-.3.8-1 .7-2.5-.5-4.8-1.8-7.1-3-.4-.2-.5-.5-.5-.9-.4-5-1-10-1.3-15-.5-7.3-.5-14.7-.8-22.1-.3-6.6-.6-13.2-1.3-19.8l-.8-9.3v-1.3c.3-1.5-.5-2.2-1.7-2.7a153 153 0 0 0-11.4-4.7c-1.8-.6-3.6-1.4-5.4-2.2-1.8-.7-3.1.6-3 2.5l1 18.9.3 8.3c.1 5.7.6 11.4 1 17l.6 12.5.2 5.1ZM101.4 81v-1c.1-2-.8-3.3-2.7-4.2-2.3-1-4.6-1.8-7-2.6l-4.1-1.5c-1.7-.5-2.5.1-2.7 1.8a149.5 149.5 0 0 0 0 18.7l.7 7.2c0 .8.3 1.5 1.2 2 3.2 1.7 6.4 3.4 9.9 4.6l3.6 1.3c1 .3 1.2 0 1.2-1l-.1-2.6V81Zm-.2-7.7h-.2V68c0-.5 0-.9-.5-1.2-4-2.9-8.7-4.5-13.2-6.3-1.5-.6-2.1 0-2.1 1.6 0 2 0 4 .2 6 0 1.4.5 2.3 1.8 2.7 4.4 1.6 8.8 3 12.9 5.2.6.3 1 .2 1.1-.6v-2Z" fill="#9735B5"/>
  <path d="M222 95v.2c-.2.2-.1.4 0 .6 0 .7.2 1.1 1 1.4.9.3 1 1.2 1 2a87.3 87.3 0 0 1-5.2 33.2c-.9 2.5-2.3 4.7-4.5 6.2-1.8 1.2-3.4 2.5-5.3 3.9l.5-3c.6-4 .5-8 .5-12 0-1.2-.7-1.6-1.5-1.2-6.8 3.9-14 6.4-21.4 8.8a281 281 0 0 1-23.5 6.5c-2.3.5-2.4.5-2.3 2.8l.5 13.6c0 .4-.1.4-.5.5-6 .9-11.8 1.9-17.9 1.4-1 0-2.1.2-3.3-.1-.7-.3-1-.7-1-1.3-.1-4.8-.7-9.5-1.2-14.3-.5-4.5-.7-9-1-13.6-.1-1.6-.6-3.2-1.2-4.7 1.2.3 2.3-.4 3.4-.8 1.7-.6 3.5-.5 5.3-.8.9 0 1.4 0 1.6 1 .1 1 .7 1.8 1.3 2.5.2.3.6.5.7 1l-1.2.2c-1 .4-1 1-.3 1.7.2 1 .9 1.4 1.9 1.4 1.3 0 2.6-.3 4-.3 5.1.1 10.3 0 15.5.5.6 0 1.2 0 1.2-.9.8-.9.7-1.3-.6-1.8l.7-1.2c1.6-3 1.9-6.4 1.6-9.7-.1-.8.1-1 .8-1.2 7.6-2.5 15.3-5 22.7-8.2 1.9-.8 1.8-.8 2 1.2.3 2.9 1.6 5.2 4.4 6.4 0 2 .5 2.4 2.4 1.6 1.8-.9 3.6-1.7 5.2-2.7l9-5.5 1.6-1.2c.5-.4.9-1 .6-1.7-.3-.6-.8-1-1.6-.8h-.3c.2-.4.3-.7 0-1-.3-.4-.5 0-.8 0 .4-2.4.6-4.7.2-7 .4-.4 1.1-.4 1.3-1a6.4 6.4 0 0 0 3.6-2.5ZM131 90c.2-6.7.6-13.3 2.5-19.8.2-.7.6-1.5 1-2.2.6-1.3 1.7-2 3-2.4 6.5-2 12.9-4.3 19.4-6.4 9.1-3 18.4-5.4 27.6-8.2 6.4-2 12.7-4.3 19.1-6.1 3.5-1 7-1.8 10.6-2.5.6-.1.9 0 1.2.5 1.5 2 2 4.4 2.7 6.7 1.2 5 2.4 10 3 15.2.5 6.6.9 13.2.7 19.8l-1.4 3.6c-.6 1.4-.8 2.9-2 4-.2-6.3-.4-12.5-1.1-18.7l-1-7c-.3-1.1-.6-1.2-1.6-.7-.8.4-1.4.9-2.2 1.2-14 6.7-28.8 11.5-44.1 14.4-8 1.4-15.8 4-23.6 6-.6.2-.9.4-.9 1l-.2 2.7c0 5.7 0 11.4.7 17 0 .8-.1 1.1-.9 1.1-.4 0-.6.3-.7.7-.2.5.3.6.6.7l.8.3c.3 0 .5 0 .6.4.1 1.5.6 3 .5 4.5-.2 2 0 3.8.2 5.7-1.2-.1-2.4-.6-3.6-1-1.8-.8-3.6-1.7-4.8-3.3a13 13 0 0 1-3-6l-.9-6.6-.8-7.5-.7-6.2c0-.4-.2-.9-.7-1Zm12.3-15c-.2 2.4.6 4.5 1.6 6.6a4.4 4.4 0 0 0 4.6 2.3l3.4-.7c5-1.1 9.8-2.8 14.9-3.8 4.9-1 9.7-2.5 14.6-3.9A125.8 125.8 0 0 0 209 65.3c1.6-.2 2.5-1.3 3-2.8.6-2 .4-4 0-6-.3-2.3-1.7-4.1-2.9-6-.6-.9-1.4-2-2.8-1.8-.8 0-1.5 0-2.2.2-3 .7-5.8 1.6-8.7 2.6-9.7 3.4-19.2 7.2-29 10.3-3.9 1.3-7.7 2.7-11.7 3.5-2.8.5-5.4 1.5-7.9 2.7-2.5 1.2-3.6 3.1-3.5 5.8V75Z" fill="#C70DFF"/>
  <path d="M128.1 155c-.6 0-1-.4-1.5-.6-6-3.4-11.9-7.2-18-10.7-.3-.2-.4-.5-.5-1l-.3-6.2-.9-18.3c-.2-3.7-.7-7.3-.8-11l-.3-12.2-.8-11.2-.1-3.4c0-1 .8-1.6 2-1 4.6 2.4 9.5 4 14.3 5.9h.1c2.8 1.2 2.8 1.2 3 4.2.2 5 .7 10.2 1 15.3l.7 11.5.6 20.3c.3 6.1 1 12.3 1.6 18.5Zm-6.6-47h-.2V99c-.1-2.4-.2-4.9-.6-7.3 0-.6 0-1.2-.8-1.5-3.3-1.5-6.7-3-10.3-3.9h-1c-.2 0-.4 0-.4.3.1.6-.2 1.2-.3 1.8 0 4.3.5 8.6.8 12.8.1 1.8.3 3.6.2 5.3 0 1 0 1.5 1 2 3.3 1.5 6.7 3 10.3 3.9 1 .2 1.3 0 1.3-1V108Zm-.2 14.9c.2 2-.2 4.6.2 7.2.2 1 .8 1.4 1.8 1.4.7 0 1.2-.8 1.2-1.7v-11.5c0-.9-.1-1.7-.4-2.5-.3-1.1-1.2-1-2-1-.9.1-.8.8-.8 1.3v6.8ZM76.6 46.2a145.5 145.5 0 0 0 .1 30.1c.3 2.2.3 4.3.5 6.5l1 12.1c.2 3.2.3 6.4.8 9.6 1.2 7.3 1.7 14.8 3.4 22l.6 2.4c-.3.1-.5-.2-.7-.3-4-2.7-7.8-5.7-11.7-8.5-2.3-1.8-4.8-3.5-7.2-5.2l-.4-.4a7 7 0 0 1 3.7.7c1.9.7 3.8.5 5.8.7 1.3.1 2-.6 2-2 .1-1.7.2-3.4-.3-5-.1-.3-.2-.5 0-.7.9-1.5.2-2.8-.7-3.9-1.5-1.7-2.9-3.6-4.8-5-.6-.4-.4-1.1 0-1.7.7-.7 1.6-1.1 2.4-1.4 1-.4 1.3-1.2 1.2-2a10 10 0 0 0-.8-3.4l-.5-1.6v-1.8c0-.8 1-.4 1.4-.8 0-.1.3 0 .3-.2.8-1.5 2.3-2.7 1.6-4.7a13 13 0 0 0-2.4-5c-.1-.1-.6-.3-.1-.5 1-.5.9-1.3.7-2.2-.4-2-1.7-3.5-2.9-5-1-1.4-2-2.7-3.3-3.7l.2-.2c2 1 4 2 5.6 3.6.4.5.8.8 1.5.7.7-.2 1-.7 1.1-1.4.4-2.1-.4-4-1.5-5.6-.7-1.2-1.6-2.3-2.5-3.3-.6-.8-1-1.7-.5-2.6 1-2 .3-3.6-.7-5.2-.6-1-1.5-1.7-1.8-2.9-.1-.6-.2-1 .6-.7 1.4.5 2.6.2 3.7-.7.6-.6.8-1.2.8-2 1.3.3 2.5 1 3.8 1.2Z" fill="#9735B5"/>
  <path d="M165.8 142.4c2.1-.8 4.3-1.2 6.5-1.7 10.2-2.8 20.4-5.8 30.2-10 2-.9 4.1-1.8 6.1-3l.2 2a61 61 0 0 1-.8 11.3c-.2 1.6-1.2 2.6-2.5 3.4-3.8 2.5-8 4.5-12.3 5.9l-9.3 3s-.1.2-.4.1h-.2s0 .3-.2.1h-.3c-3.6.7-7.2 1-10.9.6-1.8-.3-3.6-.4-4.8-2.1a9.2 9.2 0 0 1-2-6.9c.1-1 .7-1.7.8-2.7Zm37.7-6.9c.4 0 .7-.2 1-.4.7-.3 1-.8.7-1.4-.3-.7-1-.5-1.5-.3l-3.4 1.4c-5.4 2-11 3.8-16.5 5.7l-11.8 3.8c-.8.3-1.7.6-1.5 1.8-.1.8.2 1.1 1 .9l1.8-.4c10-2.7 19.5-6.6 29-10.3.5-.2 1-.4 1.2-.8Zm-2.2 4.4-.3.1h-.1l-1 .2c-8.8 2.6-17.5 5.4-26.5 7.3-1.6.3-1.8.7-1 2l-.3.1c-.4.1-.8.2-.8.7 0 .6.6.7 1 .5 1.1-.4 2.2 0 3.3-.3a194.7 194.7 0 0 0 28-10.2c.2-.2.3-.5.2-.7-.1-.4-.5-.2-.7-.2l-1.8.5Z" fill="#73709A"/>
  <path d="m102.3 22.6.4-.4c.1 0 .2 0 .2-.2.3 0 .3-.2.3-.4 1.1-.6 2-1.5 2.6-2.6h.6c.6 0 1.4.1 1.7-.6.4-.8.5-1.5-.6-2.2h2.6c1.6-.4 3.2-.8 4.2-2 .8-.9.5-2 .1-3l-1-1.8a214 214 0 0 1 32 9.4c-2.4.4-4.4 1.3-6.6 1.8-8.5 2-17 3.6-25.4 6a179 179 0 0 0-17 6 5 5 0 0 1 .7-4c1-1.6 2.5-2.8 3.8-4.3.4-.4 1-.8 1-1.5.3 0 .4 0 .4-.3ZM131.8 71.6c-2.4-1-4.9-2-7-3.4-.1-.3-.5-.4-.7-.6.3-.3.6-.2 1-.2.5 0 1 0 1.2-.6.1-.6-.4-.9-.9-1-1.1-.7-2.3-1.2-3.5-1.7l-13.8-6.8-7.8-3.6-10.8-4.6c-2.5-1.1-5-2.2-7.7-3.1.6-1.6 1.4-3.1 2.5-4.4.4-.5.9-.7 1.4-.9 1.5.7 3.1 1.2 4.5 2-.3.6 0 .7.5.9l2.2.8c9.9 4.5 19.8 8.6 29.6 13.3 2.5 1.2 5 2.3 7.6 3.2 1.3 1.2 2.8 2.1 4.5 2.9.7.3 1.5.3 2.2.8a7.3 7.3 0 0 0-4.4 5l-.6 2Z" fill="#C70DFF"/>
  <path d="M150.2 21c-6 1.2-11.8 2.2-17.6 3.5a279.5 279.5 0 0 0-48.8 15.8c-2 1-3 3-3.6 5-.7 2.2-1.2 4.6-1.3 7 0 2 0 3.9.2 5.8l.5 11.7c.2 4.1.6 8.2.7 12.3.2 3.8.7 7.6 1 11.4.3 5.5.8 11 1.8 16.5.5 2.5.6 5 .9 7.6.5 4 1.2 8 2.4 11.9.1.2.5.6 0 .8-.4.3-.8.2-1.2-.2-1.2-1.5-1.4-3.3-1.8-5-1.1-5.5-1.8-11-2.6-16.5-.6-4.7-1.2-9.4-1.5-14.2-.2-4.7-.8-9.4-1.3-14.1a193.5 193.5 0 0 1-1-28c.1-3.1.8-6.2 1.9-9.1.5-1.3 1.5-2 2.6-2.6 11.4-5.9 23.4-10.5 35.8-13.8 6.8-1.9 13.8-3.1 20.6-4.8 2.6-.6 5.3-1.2 7.9-2 1.8-.7 2.9.4 4.4 1.1Z" fill="#9334B1"/>
  <path d="M136.8 64.6c-.7-.5-1.5-.5-2.2-.8a16 16 0 0 1-4.5-3c.5-.6-.1-.8-.5-1l-6.3-2.8c-10-4.7-20-9-30-13.3-1-.5-2-1-3.1-1-1.4-.8-3-1.3-4.5-2 4.2-2 8.5-3.4 12.8-5a279 279 0 0 1 26.6-8.2l1-.1c-1 .8-2.3 1-3.5 1.4-3.8 1.2-7.5 2.4-11.2 3.8a10.9 10.9 0 0 0-6.9 7.1c-.5 1.6 0 3 1.2 4l4 3.8c1.5 1.4 3.1 2.4 5 3.2 2.3 1 4.6 2.2 6.6 3.6 4.9 3.4 10.1 6 15.2 8.8.6.3 1.4.4 1.9 1l-1.6.5ZM102 22.8c-.1.7-.7 1-1 1.5-1.4 1.5-2.9 2.7-4 4.4a5 5 0 0 0-.6 3.8c-5 2-10 4-14.6 6.7-.2.1-.4.3-.6.2-3-1.5-6.2-2.7-8.9-4.7l.1-.1 2 .4c.4 0 1 .1 1.1-.5.2-.5 0-.8-.5-1-.5-.4-1.2-.7-1-1.2.2-.6.9-.4 1.4-.5 1.1-.1 2.3-.2 3.4-.5 1-.1 1.6-.6 1.4-1.7 1.7.4 3.3.3 5 .2 1.7 0 2.3-.6 2.4-2.3l.2-2.1c0-.6.2-.6.7-.6l3.2.4c2 .2 2.8-.6 2.9-2.5V22c.1-.5.2-1.2.7-1.3.5-.2.8.3 1.2.6 1.5 1.6 3.3 2.3 5.5 1.4ZM131 90c.5 0 .7.4.7.9l.6 6.2.9 7.5 1 6.5a13 13 0 0 0 2.8 6.1c1.3 1.6 3 2.5 4.9 3.2 1.1.5 2.3 1 3.6 1 .5 2.9 2 5 3.9 7.3H148c-.1-.4-.5-.6-.7-1a5 5 0 0 1-1.4-2.3c-.1-1-.6-1.2-1.5-1-1.8.2-3.6 0-5.3.7-1.1.4-2.2 1-3.4.8l-2.2-2.3c-.7-.8-.6-2-.7-3-.2-3-1.1-5.9-1.4-8.9-.5-5.4-.8-10.8-.6-16.2l.2-5.6Z" fill="#9735B5"/>
  <path d="M81.8 46c2.6.8 5.2 2 7.7 3l10.8 4.7 7.8 3.6L122 64l3.5 1.6c.5.2 1 .5.9 1-.2.7-.7.7-1.3.7-.3 0-.6-.1-.9.2l-7.4-3.1c-9.6-5-19.7-8.9-29.6-13.1-1-.5-2-.8-3-.7-.5-1.1-1.8-1-2.6-1.5l-.7-.2c.1-1 .5-2 1-3Z" fill="#AC1DDD"/>
  <path d="M139.2 161.1h1.7l.2.2c-.3 1.6-1.5 2.6-2.9 3.3a45.5 45.5 0 0 1-8.2 2.9c-3 .8-6.2 1.6-9.3 2.2-1.7.3-3.5 0-5.2-.2l.5-2c4.4-1 6.8-3.9 7.8-8.2l.2-.4c.4 0 .8 0 1 .3 1.5 1.1 3 1.9 5 2 2.1.2 4.2.6 6.3.4 1 0 2 .1 2.9-.4Z" fill="#73709A"/>
  <path d="M165.8 142.4c0 1-.6 1.8-.8 2.7-.3 2.7.6 4.8 2 6.9 1.3 1.7 3 1.8 4.9 2 3.6.5 7.2.2 10.8-.4-1.1.8-2.5.9-3.8 1.2-4.8 1.3-9.8 2.3-14.8 3.2-.6.1-1 .1-1-.8-.3-4.4-.4-8.8-.4-13.2 0-.8.1-1.1 1-1.2.7 0 1.4-.2 2.1-.4ZM116.3 150a7.8 7.8 0 0 0-3 2.6c-.5.7-.4 1 .4 1.3l6.6 1.7 1.2.4c1 .3 1.5 1 1.4 2.2a22.7 22.7 0 0 0-8.6-3c-1.1 0-1.4.2-1.3 1.4 0 2.7.7 5.3 1.2 8 .1.5.6 1.2.2 1.5-.6.4-1.4.1-2 0-.4-.1-.3-.3-.3-.6.1-1.9-.3-3.7-.4-5.6-.1-1.4-.6-2.8-.5-4.2 0-1-.3-1.2-1.2-1.2-2-.1-4-.3-6 0-.7 0-1-.3-1-.9 0-.5 0-.7.6-.8 1.6 0 3.2-.3 4.7.2h1.1c.4 0 .9.2 1-.2.3-.5 0-.9-.3-1.2-2-2.2-3.8-4.4-6-6.4l-1.3-1.2c-.7-.5-.5-1.1-.2-1.7.2-.5.6 0 .8 0 1.5.7 2.5 2 3.6 3.2 1.5 1.8 3 3.7 4.7 5.4.4.4.8.5 1.3.2l1.5-1.2c.6-.6 1.1-.6 1.8.1Z" fill="#35325E"/>
  <path d="M57.5 110.5c1.6-.2 3 .2 4.3.2.7 0 1.4 0 1.4-1 0-.4.4-.4.7-.4 2-.3 3.1-1.5 3.9-3.3.1-.2.2-.5.6-.4.8.3.6-.2.5-.7 0-.2-.2-.4 0-.5.3-.1.4 0 .5.2l.8.8c.2.3.5.7 1 .4.3-.3.2-.7 0-1.1 0-.3-.7-.5-.2-.9.4-.2.9 0 1.3.3 1 .8 1 2 .9 3-.2 1.4.1 2.7.3 4 0 .3.2.5 0 .8-1-1-2.5-1.4-3.7-2.2l-.6-.3c-.4-.1-1-.2-1 .2-.3.4.3.4.6.5 1.5 1.1 3 2.1 4.7 3 .5.3.1.8 0 1.2 0 .5-.2.7-.7.6-1.6-.5-3.4-.8-4.6-2.2-.6-.7-1.4-1-2.3-1.2-.3 0-.7-.2-.8.2-.2.3.1.6.4.7a26 26 0 0 1 3.4 2.2l.3.2c-.6.3-1 0-1.4-.1-2-.7-4-1.4-6.1-1.5h-.4c-1.2-1-2.4-1.7-3.8-2.7Z" fill="#D7C5B0"/>
  <path d="M88 134a4 4 0 0 1-2.1 3.3c-2.9 1.7-6 2.6-9.2 3.2-1 .2-2 0-2.7-.6.4-.3.8-.6 1-1l.2-.2a7 7 0 0 0 3.2-2.8c3.2-1 6.3-1.8 9.6-1.8Z" fill="#73709A"/>
  <path d="M139.2 161.1c-.9.6-2 .4-2.9.5-2 .2-4.2-.2-6.3-.4-2-.1-3.5-.9-4.9-2-.3-.3-.7-.4-1.1-.3.1-1.4.3-2.8 0-4.4 5 2.7 9.7 5.5 15.2 6.6ZM77.4 135.6c-1.2-1.2-1.9-2.7-2.8-4-.9-1-1.3-1-2 .3-.5 1.2-1 2.3-1.3 3.5-.2.5-.4.5-.7.2-.5-.6-.8-1.1-.2-1.9.6-.8 1-1.8 1.4-2.8.4-.8.1-1.3-.8-1.4h-2.2c-.3 0-.6 0-.5-.3 0-.4.2-.3.5-.3 1 0 1.8-.2 2.7-.4 1-.1.7-.3.3-.9l-2.6-4.5-.4-1.2c-.1-.3-.2-.7.3-.9.4-.2.6.2.8.5l2.3 4.2 1 1.6c.5.8.8.7 1.2 0l.7-1.2c.2-.3 0-1 .5-.8.5 0 .9.5 1.3.8.2.2-.1.4-.3.5-.8.7-1.6 1.4-2.1 2.3-.4.7-.3 1.2.2 1.5 1.3 1 2.1 2.3 3.2 3.4.5.5-.2 1.2-.5 1.8ZM88 134c-3.3.1-6.4 1-9.6 1.9a11 11 0 0 0 .6-8c.5-.1.8.2 1 .4 1.4 1.2 3 2 4.2 3.2.6.6 1.2.2 1.8.1.4 0 .8-.4 1.2 0 .6.7 1.5 1.3.8 2.5Z" fill="#35325E"/>
  <path d="M76.8 38.2c1.3.3 2.4 1.2 4 1.7a7.3 7.3 0 0 0-3.6 4l-1.2-.5a33 33 0 0 0-4-2.6 5 5 0 0 0-1.2-3.2c.2-.2.4-.2.6-.1 1.6.6 3.3 1 5 1.2.2 0 .5.2.6 0l-.2-.5Z" fill="#C70DFF"/>
  <path d="M105.5 159.9c-.8-1.1-1.3-2.3-1.8-3.6-.2-.6-.2-.9.6-.9h5.4c.3 0 .6 0 .7.5l.1 5-1.1-.6c-1.2-.7-2.5-1-3.9-.4Z" fill="#3E4654"/>
  <path d="M218.4 92.2c1.2-1.1 1.4-2.7 2-4l1.4-3.7v9.1l.1 1.5c-1 1.2-2 2.1-3.6 2.4l.2-5.3Z" fill="#9735B5"/>
  <path d="M106.8 164.2a7.6 7.6 0 0 1-2.3-2c-2.7-3.7-4-7.9-4.6-12.4-.3-2.8-.3-5.5-.3-8.3 0-.4 0-1.1.4-1 .5 0 1 .4 1 1.2l-.3 6.4c.1 3.3 1 6.3 2.3 9.2 1 2.3 2.2 4.4 3.7 6.2.2.2.4.4.2.7Z" fill="#35325E"/>
  <path d="M105.5 159.9c1.4-.6 2.6-.3 3.9.4l1.1.6c.5 1.3.2 2.7.5 4.1 0 .5-.2.5-.6.4-.5-.2-1-.4-1.3-.8-1.3-1.4-2.6-3-3.6-4.7Z" fill="#73709A"/>
  <path d="M117.4 163.3c-.7-2-1-4-1.4-6 0-.4.2-.5.4-.4 1.8.7 3.8 1 5.4 2.3l-.3.2a6 6 0 0 0-3.2 2.7c-.3.4-.3 1-.9 1.2Z" fill="#3E4654"/>
  <path d="M117.4 163.3c.6-.3.6-.8 1-1.3a6 6 0 0 1 3.1-2.6l.3-.3c.4.1 1 0 .7.7-.9 2.5-2.2 4.7-4.9 5.9l-.2-2.4Z" fill="#73709A"/>
  <path d="M76.8 38.2c.1.1.3.4.2.5-.1.2-.4 0-.6 0a28 28 0 0 1-5-1.2h-.6c-1.5-1.3-3.2-2.6-4.9-3.8 3.5 1.3 7.1 2 10.3 4 0 .3.2.3.4.3l.2.2Z" fill="#9334B1"/>
  <path d="m116 167.4-.5 2c-1.4 0-2.8-.5-4.2-1-1.3-.4-1.5-1.7-2.4-2.5 2.3 1 4.6 1.7 7 1.5Z" fill="#35325E"/>
  <path d="m102 145.1 4.9 4.8c-1.5-.3-3-.8-4.4-.9-.5 0-.5-.3-.5-.7v-3.2Z" fill="#3E4654"/>
  <path d="M114.2 156c.4.2.9.2 1 .8.2 3 .9 5.8 1.7 8.7.1.4 0 .6-.4.7-.4 0-.7.1-.8-.4-.4-3.2-1.5-6.4-1.5-9.8Z" fill="#35325E"/>
  <path d="m76 43.4 1.2.6-.6 2.2c-1.3-.2-2.5-1-3.8-1.2 0-.7-.1-1.4-.4-2l3.6.4Z" fill="#AC1DDD"/>
  <path d="M66.8 130.9c-.2-1.2-.5-2.4-.6-3.7 0-2-.5-4.2.1-6.3.2-.5-.1-1.1.2-1.7 0-.1 0-.4.3-.4.5 0 1.1 1.3 1 1.7-1.1 2.3-1.3 4.7-1.1 7.1l.3 3.3h-.2ZM189.3 153.1l10.2-3.9v.3c-3 1.9-6.4 3.4-10 4l-.2-.4ZM108.4 151.6c-1.5-.2-2.8-.2-4.2-.1h-1c-.3 0-.6.3-.8 0-.1-.4-.4-.9-.1-1.3.2-.3.6 0 .9 0l4.3.7c.4 0 .7.2.9.7ZM75 138.9c-.2.4-.6.8-1 1a5.3 5.3 0 0 1-3-1.4 12 12 0 0 1-3.3-4.5v-.6c.7 1.1 1.3 2.3 2.2 3.3 1.4 1.5 3 2.5 5 2.2h.1Z" fill="#35325E"/>
  <path d="M73.6 132c.6.7.6 1.3.4 2l-.9 2.7c0 .3 0 .8-.4.6-.3 0-.8-.3-.6-1l1.5-4.2Z" fill="#35325E"/>
  <path d="m76 43.4-3.6-.4a2 2 0 0 1-.4-2.2 36 36 0 0 1 4 2.6Z" fill="#9735B5"/>
  <path d="M105.8 19c-.7 1-1.5 2-2.6 2.6.1-.8.2-1.7.1-2.5 0-.5.1-.6.6-.5.6 0 1.3.1 1.9.4Z" fill="#9334B1"/>
  <path d="M69.5 130.5h.4c1 0 1 0 .5 1l-.5.7c-.2.3-.1 1-.8 1-.3-.1-.9-2.3-.7-2.5.4-.4.8-.1 1.1-.2ZM70 126.9l-.9-.2c-1.3 0-1.5-.3-1.3-1.6.1-.6.2-1.2.5-1.8L70 127Z" fill="#3E4654"/>
  <path d="M122.9 155.2c-2.2-1-4.5-1.3-6.8-2 .3-.4.6-.2 1-.2l5 1.2c.6.1.8.4.8 1ZM118.3 151.3c-1.4.6-2.8.9-3.9 1.8.8-1.8 2.8-2.8 4-1.8Z" fill="#35325E"/>
  <path d="M74.4 138c-.2 0-.6 0-.5-.4l1-3.3 1.3 1.8c-1.2.2-1.7.8-1.8 2Z" fill="#3E4654"/>
  <path d="M111.5 148.9c-1.1-1-1.9-2.2-3-3.4 2 .4 2.5 2 3 3.3Z" fill="#35325E"/>
  <path d="M74.4 138c0-1.1.7-1.7 1.8-2 .4.4.5.7 0 1-.6.4-1 .9-1.8 1Z" fill="#73709A"/>
  <path d="m112.1 147.5 1.5.8c.2 0 .4.2.3.4 0 .4-.4.5-.7.6-.3.1-.3 0-.4-.2l-.8-1.5.1-.1ZM120.7 152.8c-1 .2-1.7-.3-2.6-.4 1.1-.9 1.5-.8 2.6.4Z" fill="#3E4654"/>
  <path d="M72.2 122.9c1 .9 1.3 2.1 1.5 3.4-.4-1.2-1.3-2.1-1.5-3.4ZM75.5 129.2l1.7-1.6c.1-.1.3-.3.5-.1.2.2.2.5 0 .6l-2.1 1.3-.1-.2Z" fill="#35325E"/>
  <path d="M78.1 129c.1.5.4 1 .2 1.6l-1.5-.8 1.3-.9Z" fill="#3E4654"/>
  <path d="m78.3 132.5-1.1-1.2c.7 0 1.4.1 1.1 1.2ZM69.8 128c-.5.1-1 0-1.8-.3.9-.3 1.3.1 1.8.3Z" fill="#35325E"/>
  <path d="M126.8 27.2c-.2.3-.4.2-.7.2.2-.2.4-.2.7-.2Z" fill="#9735B5"/>
  <path d="M76.6 38c-.2 0-.3 0-.4-.3.2.1.4 0 .4.3Z" fill="#C70DFF"/>
  <path d="M72.3 34.7s-.3 0-.2-.2h.3v.2Z" fill="#9735B5"/>
  <path d="M108 165h-.3v-.1l.3.1Z" fill="#35325E"/>
  <path d="M66.3 65.3 66 65h.4l-.2.3Z" fill="#9735B5"/>
  <path d="M67.5 132.8v.1c0 .1 0 0 0 0Z" fill="#35325E"/>
  <path d="M222 95.8c-.2-.2-.2-.4 0-.6v.6Z" fill="#9735B5"/>
  <path d="M111.6 148.8c.2.1.2.3.2.4-.2 0-.2-.1-.3-.3h.1Z" fill="#35325E"/>
  <path d="M103.2 21.6c0 .2 0 .3-.3.4 0-.2 0-.4.3-.4Z" fill="#9334B1"/>
  <path d="M102.3 22.5c0 .3-.1.3-.3.3 0-.2.2-.2.3-.3Z" fill="#9735B5"/>
  <path d="M121 153Z" fill="#3E4654"/>
  <path d="M63 114.5v-.1.1Z" fill="#9735B5"/>
  <path d="M103 22c0 .1-.1.2-.3.2l.2-.2Z" fill="#9334B1"/>
  <path d="M111.8 149.3ZM114.2 156h-.1Z" fill="#35325E"/>
  <path d="M106.8 142.4c.1 0 .1.1 0 .2v-.1Z" fill="#9735B5"/>
  <path d="m76.8 38.2-.2-.2c.1 0 .3 0 .2.2Z" fill="#C70DFF"/>
  <path d="M83 128.9v.1-.1Z" fill="#9735B5"/>
  <path d="M79 127.9v-.1Z" fill="#35325E"/>
  <path d="M80.2 29.6H80c0-.2.1-.1.2 0h-.1Z" fill="#9735B5"/>
  <path d="m141.1 161.3-.2-.2c.1 0 .2 0 .2.2ZM75.2 138.7ZM108 165v.1ZM72.2 122.9Z" fill="#35325E"/>
  <path d="M53.7 105.5c0-.6 0-1.2.7-1.1.5 0 .8.4.7.9 0 .5-.5.7-1 .7-.4 0-.5-.2-.4-.5Z" fill="#D7C5B0"/>
  <path d="M85.6 19h-.8c-.1-1 .8-1.9 1.7-1.6.2.1.5.2.5.5s-.2.5-.5.5c-.4 0-.5.4-.7.6h-.2Z" fill="#C70DFF"/>
  <path d="M85.6 19h.2c0 .1-.1.1-.2 0Z" fill="#35325E"/>
  <path d="M108.7 8.3c0 .2.2.8-.5.6-.4-.1-1.3.3-1.3-.7 0-.6.2-1.2 1-1.2.7 0 1 .5.8 1.3Z" fill="#C70DFF"/>
  <path d="M59 60.6c-.5 0-.8 0-.8-.5.1-.5.2-1 .9-1 .2 0 .5.2.3.4-.3.3.2 1-.4 1ZM66 29.3c-.3-1 .3-1.4.7-2 0-.1.3-.2.4 0 0 0 .1.2 0 .4 0 .6-.6 1-1 1.6ZM61 83.3c0 1-.5 1.2-1.1 1.2-.4 0-.5-.3-.5-.6 0-.8.4-1.2 1-1.3.6 0 .7.4.7.7Z" fill="#D7C5B0"/>
  <path d="M101.4 81v22.7l.1 2.6c0 1-.2 1.3-1.1 1l-3.7-1.3c-3.5-1.2-6.7-3-10-4.6-.8-.4-1-1.2-1.1-2l-.6-7.2a146 146 0 0 1 0-18.7c.1-1.7 1-2.3 2.6-1.8 1.4.4 2.7 1 4.1 1.5l7 2.6c1.9.9 2.8 2.1 2.6 4.2v1Zm-9.2 3c0 .4.2.8.4 1.1.1 2.7.4 5.3.4 7.9 0 2.8.2 5.7.4 8.5 0 1.2.4 2.3 1.9 2.6l3.9 1.5c.5.2.7 0 .9-.4v-1c-.3-7.6 0-15.2 0-22.8 0-3.7 0-3.7-3.5-5.1-3-1.2-6-2-9-3.4-.3-.2-.6-.1-1-.1-.3 0-.4.1-.4.5l-.2 2.3c-.4 7.5 0 15 .6 22.5a3 3 0 0 0 1.4 2.4c1 .7 2.3 1 3.4 1.7.6.3.7.2.7-.5a372.9 372.9 0 0 1-.5-16.8c0-.4-.1-.9.5-.9ZM101.2 73.3v2.1c0 .8-.5 1-1.1.6-4.1-2.1-8.5-3.6-12.9-5.2-1.2-.4-1.7-1.3-1.8-2.6-.2-2-.2-4-.2-6 0-1.8.6-2.3 2.1-1.7 4.6 1.8 9.2 3.4 13.2 6.3.5.3.5.7.5 1.2v5.3h.2ZM100 75c0-2.5-.3-4.7-.2-7 0-.4-.3-.6-.7-.8-3.8-2-8-3.6-11.9-5.4-.7-.4-.8-.3-.8.5 0 2 0 3.9.2 5.8 0 1 .4 1.5 1.2 1.8 4.1 1.5 8.4 2.6 12.2 5.1ZM84 50.7c1.1-.1 2.1.2 3 .6 10 4.3 20.1 8.2 29.7 13.1 2.4 1.3 5 2.2 7.4 3.2.2.2.6.2.7.5-.3.7-.9.4-1.3.3-3-1-5.8-2.2-8.5-3.6-7.9-4-16-7.4-24.2-10.8-2.1-1-4.2-2.1-6.5-2.6-.4-.1-.5-.3-.3-.7ZM218.4 92.1l-.1 5.4c-.1.7-.9.7-1.2 1-.5.2-.7.4-.7 1v2.4c-.1 1.4-.5 2.8-.7 4.3l1.2-.7c.2 0 .5-.3.7 0 .3.4.2.7 0 1l-1.3 1.5c-4 3.3-8.2 6.4-12.6 9.1-1.4.9-1.5.9-2.7-.2h-.3c-2.8-1.3-4-3.6-4.4-6.4-.2-2-.1-2-2-1.2-7.4 3.2-15 5.6-22.7 8.2-.7.2-.9.4-.8 1.2.3 3.3 0 6.6-1.5 9.7l-.8 1.1c1.3.5 1.5 1 .6 2-3-.1-6-1-9.1-1-3.7 0-7.3-.3-11 .1-.8.1-1.6.3-2.4 0-.8-.7-.7-1.2.3-1.6l1-.3h1.5a15.1 15.1 0 0 1-3.9-7.2c-.2-2-.4-3.8-.2-5.7.1-1.5-.3-3-.5-4.5 0-.4-.2-.4-.5-.5-.3 0-.6 0-.9-.2-.3-.1-.7-.2-.6-.7 0-.4.3-.7.7-.7.8 0 1-.3.9-1.1-.6-5.7-.8-11.4-.6-17l.1-2.7c0-.6.3-.8.9-1 7.8-2 15.6-4.6 23.6-6 15.3-2.9 30-7.7 44.1-14.4l2.2-1.2c1-.5 1.3-.4 1.6.7l1 7c.7 6.1.9 12.4 1.2 18.6ZM205 72c-.3 0-.5 0-.6.3-.4 0-.7 0-.8.3-.5 0-.8.1-1.1.4-.3 0-.5 0-.6.3-.3 0-.5 0-.6.2-7.2 2.5-14.4 5.1-21.9 6.8-6.2 1.5-12.5 2.7-18.7 4.2-4.5 1-9 2.4-13.5 3.6-1.8.4-2.4 1.1-2.4 3l.3 7.8c.1 3.2.2 6.4.7 9.6 0 .4.1.5.6.6 6 .5 12.1.7 18.2.7h4.7c.6 0 1.2 0 1.2.8s-.6 1-1.3 1c-.5 0-1-.2-1.6.2a9.7 9.7 0 0 1 2.7 4.2c.1.5.3.6.8.4l11.7-3.9c.5-.2.9-.5 1-1l.2-2.3-.7-10.4-.5-10.5.2-2.5c.5.4.5 1 .5 1.3l.7 8.2c.4 5.2.6 10.4 1.4 15.6 0 .6.2.5.6.4l9.7-4c.3 0 .5-.2.5-.6-.1-.9.2-1.7.3-2.5 0-.5.1-.7-.4-1-.6-.1-.6-.6-.3-1.2.7-1.1 1.6-2.1 2.4-3.2l2-1.7.4-.4c1.6-1.7 3.5-3.1 5.2-4.7l6.5-5.7c.3-.4.6-.7 1.2-.2.3.4.6.8.1 1.2-1.1.8-.5 1.6 0 2.4 1 1.2 1.5 2.6 1.8 4.1l.8 3.9c.8-1 .8-2 .8-3.1a197.2 197.2 0 0 0-1.9-27c0-.6-.3-.6-.8-.4-3 1.7-6 3.2-9 4.6-.2 0-.5 0-.5.2ZM169 120.7c0-3.2-.8-6.3-3.5-8.5-.6-.5-1.2-.7-2-.7-3.4 0-6.9 0-10.3-.2-1.6-.2-3.3-.3-5-.2-.4 0-.7.1-.8.7-.3 2-.4 4-.5 6 0 3.4 1 6.4 3 9.1 1 1.1 2.1 1.7 3.6 1.8 4 .1 8 0 12 .7.3 0 .6 0 .8-.3.6-.6 1.2-1.3 1.5-2 .9-2 1.2-4.1 1.2-6.3Zm28.8-12.4v1.5c.2 2.3 1.1 4.1 3 5.5.7.5 1.5.7 2.4.1 2.8-1.8 5.5-3.9 8.2-5.8a5.7 5.7 0 0 0 2.2-3.2c1-3.6 1-7.2.3-10.9-.4-2-.8-4-1.8-5.9-.4-.6-.5-.5-1 0a40 40 0 0 1-2.2 2.2c-3.1 2.9-6.4 5.5-9.4 8.6a3 3 0 0 0-.8 1.4c-.4 2.1-1 4.3-.9 6.6Z" fill="#000"/>
  <path d="M200.7 116.9h.3c1.2 1.1 1.3 1.1 2.7.3 4.4-2.8 8.6-6 12.6-9.2l1.4-1.5.2.2c.8-.3 1.4 0 1.6.7.3.7 0 1.3-.5 1.7l-1.7 1.2-9 5.5c-1.6 1-3.4 1.8-5.1 2.7-2 .9-2.5.5-2.5-1.6ZM146.5 130.7c.9.2 1.7 0 2.5 0 3.7-.5 7.3-.1 11-.1 3 0 6 .8 9 .8.2 1-.5 1-1 .9-5.2-.5-10.5-.4-15.7-.5-1.3 0-2.6.3-4 .3-1 0-1.6-.4-1.8-1.4ZM216.8 105.5l-1.1.7c.2-1.5.6-3 .6-4.3 0-.8.2-1.6.1-2.4 0-.5.2-.8.7-1 .3 2.4.2 4.7-.3 7Z" fill="#9334B1"/>
  <path d="M143.3 75v-1.2c0-2.7 1-4.6 3.6-5.8 2.5-1.2 5.1-2.2 7.9-2.7 4-.8 7.8-2.2 11.7-3.5 9.8-3.1 19.3-7 29-10.3 2.9-1 5.7-1.9 8.7-2.6.7-.2 1.4-.2 2.1-.2 1.5-.1 2.3.9 2.9 1.8 1.2 1.9 2.6 3.7 3 6 .3 2 .4 4-.2 6-.4 1.5-1.3 2.6-3 2.8l-.6.2c-8.3 4.5-17 7.5-26 10-4.9 1.4-9.7 2.9-14.7 3.9s-9.8 2.7-14.9 3.8l-3.3.7c-1.7.4-3.9-.7-4.6-2.3-1-2.1-1.8-4.2-1.6-6.6Zm7.2-7c-1.5.2-2.8 1-4.2 1.6-.3 0-.4.4-.6.6-1 1-1 2.5-1 3.8-.3 2.6 0 5 1.4 7.3.8 1.2 2 1.5 3.2 1.3 1.9-.2 3.8-.6 5.6-1.2 5.7-1.9 11.7-3 17.5-4.5 1-.2 1.9-.2 2.7-.8l1-.2 1.2-.4c1.5-.1 3-.7 4.4-1.1a128 128 0 0 0 20.2-7c2-1 4-2 6.1-2.6a3.9 3.9 0 0 0 3-3.2c.8-4.3-.7-7.9-3.4-11.1-.3-.4-.7-.6-1.3-.6a28 28 0 0 0-7.7 1.6c-7.1 2.8-14.3 5.4-21.5 8-6.4 2.3-12.8 4.7-19.5 6.2-2.3.5-4.7 1-6.9 2l-.2.2ZM121.5 108v3.3c0 1-.4 1.2-1.3 1-3.6-1-7-2.3-10.4-4-.9-.4-1-1-1-1.9.2-1.8 0-3.5-.1-5.3-.3-4.2-.9-8.5-.8-12.8 0-.6.4-1.2.3-1.8 0-.2.2-.3.4-.3h1c3.6.8 7 2.4 10.3 3.9.7.3.7 1 .8 1.5.4 2.5.5 4.9.5 7.3v9.2h.3Zm-12.4-20.6c0 6.5 1 12.8 1.1 19.2 0 .4.3.7.7.9 2.8 1.2 5.6 2.5 8.7 3.4.5.1.8 0 .8-.6l-.1-3.4-.5-14.2c0-1.6 0-1.6-1.5-2a39.6 39.6 0 0 0-9.2-3.3ZM121.3 122.9V116c0-.5 0-1.2.8-1.2s1.7-.2 2 .9c.3.8.4 1.6.4 2.5v11.5c0 1-.5 1.6-1.2 1.7-1 0-1.6-.4-1.8-1.4-.4-2.6 0-5.1-.2-7.2Zm1.3-.2v5c0 .7 0 1.4.2 2.2 0 .2 0 .4.3.3.2 0 .2-.1.2-.3v-11.6l-.1-1.8c0-.2-.1-.5-.4-.5-.4 0-.2.4-.2.6v6.1ZM200.9 140h.4l1.8-.6c.3 0 .6-.2.7.2 0 .2 0 .5-.2.7l-.8.4c-8.8 3.9-17.8 7.2-27.1 9.8-1.1.3-2.3 0-3.4.3-.3.1-.9.1-1-.5 0-.5.4-.6.8-.7h.3l2.8-.7c6.5-1.5 12.8-3.6 19-6 2.2-.8 4.6-1.6 6.7-2.8Z" fill="#000"/>
  <path d="M170.5 146c-.2-1.1.7-1.4 1.5-1.7l11.8-3.8c5.5-1.9 11-3.6 16.5-5.7l3.5-1.4c.5-.2 1.1-.4 1.4.3.3.6 0 1.2-.7 1.4-.3.2-.6.4-1 .4-.2-.5-.6-.4-1-.3-3.4 1-6.6 2.3-9.8 3.5-5.4 2-10.8 4.1-16.4 5.7-1.9.5-3.9.9-5.8 1.7Z" fill="#35325E"/>
  <path d="M170.5 146c1.9-.7 3.9-1 5.8-1.6 5.6-1.6 11-3.7 16.4-5.7 3.2-1.2 6.4-2.6 9.7-3.5.4-.1.8-.2 1.1.3-.2.4-.7.6-1.1.8-9.6 3.7-19.1 7.6-29 10.3l-1.8.4c-.9.2-1.2 0-1-1Z" fill="#000"/>
  <path d="M200.9 140c-2.2 1.3-4.5 2.1-6.7 3-6.2 2.3-12.5 4.4-19 6l-2.8.5c-.8-1.3-.6-1.7 1-2 9-1.9 17.7-4.7 26.5-7.3.3 0 .7-.2 1-.1Z" fill="#35325E"/>
  <path d="M90.2 42.8c1.1-.1 2 .4 3 .8 10 4.5 20.2 8.7 30 13.4l6.4 2.8c.4.2 1 .4.5 1-2.6-.8-5.1-2-7.6-3.1-9.8-4.7-19.7-8.8-29.6-13.3l-2.2-.8c-.4-.2-.8-.3-.5-.8Z" fill="#000"/>
  <path d="M92.1 84c-.6 0-.5.5-.5.9 0 3.7.2 7.4.3 11l.2 5.9c0 .6-.1.7-.7.4-1.1-.6-2.4-1-3.4-1.7a3 3 0 0 1-1.4-2.4c-.7-7.5-1-15-.6-22.5l.2-2.3c0-.3.1-.5.5-.5l1 .1c2.8 1.4 6 2.2 8.9 3.4 3.5 1.5 3.4 1.4 3.4 5.2 0 7.6-.2 15.1.2 22.7l-.1 1c-.2.4-.4.6-1 .4l-3.8-1.4c-1.5-.4-1.9-1.5-2-2.7L93 93c0-2.6-.3-5.2-.4-7.8.4 0 .4.3.6.6l2.5 5.4c.5 1 1.2 1.7 2 2.4.8.6 1.2.5 1.5-.5.4-1 .1-2-.2-3-1-3.7-2.8-7.2-4.6-10.6-.4-.7-.8-1.3-1.4-1.8-.5-.5-1-.5-1.6-.2-.5.3-1 .8-.8 1.5l.8 2.7c.3.7.8 1.5.7 2.4Zm-2 9.2c.7-3.1 0-6-1-8.7-.1-.6-.8-1-1.5-.7-.7.2-1 .8-.8 1.5.2 1 .3 1.9.6 2.8.6 1.8 1 3.6 2.7 5.1Z" fill="#DFEBFD"/>
  <path d="M92.1 84c.1-.8-.4-1.6-.7-2.4-.4-.8-.6-1.7-.8-2.6-.1-.7.3-1.2.8-1.5.5-.3 1-.3 1.6.2a6 6 0 0 1 1.4 1.8c1.8 3.4 3.5 6.9 4.6 10.6.3 1 .6 2 .2 3-.3 1-.7 1.1-1.5.5a7.6 7.6 0 0 1-2-2.4 446 446 0 0 1-2.5-5.4c-.2-.3-.2-.6-.6-.6l-.4-1.1Z" fill="#D7E2F2"/>
  <path d="M100 75c-3.9-2.6-8-3.7-12.2-5.2-.8-.4-1.2-.8-1.2-1.8-.1-2-.3-3.9-.2-5.8 0-.8.1-.9.8-.6 4 1.8 8 3.4 12 5.5.3.2.6.4.6.8-.1 2.3.2 4.5.2 7Zm-5.6-5.3c0-2-.8-3.3-1.7-4.6-.3-.6-1-1-1.6-.7-.7.4-1.2 1-.9 1.8a7.5 7.5 0 0 0 3.3 4.3c.6.3 1 .3.9-.5v-.3ZM200.7 96.6l-.4.4c0-1.3-.5-2.3-1.4-3.1l-3.7-3.6-3.9-3.8c-.9-.8-1.8-1.7-3-2.2-.6-.3-1.3-.2-1.8.3s-.6 1.1-.3 1.8l.4.8c1 1.7 2.2 3.3 3.6 4.7 2.4 2.6 4.5 5.6 8 6.8-.8 1-1.6 2-2.3 3.2-.3.6-.3 1 .2 1.3.6.2.6.4.5.9-.1.8-.4 1.6-.3 2.5 0 .4-.2.6-.6.7l-9.6 3.9c-.4.1-.6.2-.7-.4-.7-5.2-1-10.4-1.3-15.6l-.7-8.2c0-.4 0-.9-.5-1.3l-.2 2.5.5 10.5.7 10.4-.3 2.4c0 .5-.4.7-.9 1l-11.7 3.8c-.5.2-.7.1-.8-.4-.6-1.6-1.4-3-2.7-4.3.6-.3 1.1 0 1.6-.1.7 0 1.3-.2 1.3-1 0-.7-.6-.8-1.2-.8h-4.7c-6 0-12.1-.2-18.2-.7-.5 0-.6-.2-.6-.6-.5-3.2-.6-6.4-.7-9.6l-.3-7.8c0-1.9.6-2.6 2.4-3 4.5-1.2 9-2.6 13.5-3.6 6.2-1.5 12.5-2.8 18.7-4.2 7.5-1.7 14.7-4.3 21.9-6.8.2 0 .4 0 .6-.3.2 0 .4 0 .6-.2.4 0 .7 0 1-.4.4 0 .7 0 .9-.4.2.1.4 0 .6-.2.2 0 .3 0 .5-.2 3-1.4 6-3 9-4.6.5-.3.7-.2.8.4a186.7 186.7 0 0 1 2 27c0 1 0 2-1 3l-.7-3.8c-.3-1.5-.9-2.9-1.8-4.2-.5-.7-1.1-1.5 0-2.4.5-.3.2-.7-.2-1.1-.5-.5-.8-.2-1.1.1-2.2 2-4.3 4-6.5 5.8-.2-.1-.2-.3-.2-.6.6-3.8.6-7.6.6-11.5 0-1-.7-1.8-1.5-1.9-.9 0-1.5.4-1.7 1.5-.7 3-1.2 6-1.6 9-.4 2.7-1 5.4-.8 8.2Zm-35.2 12.1c1.2 0 2.1-.6 2-1.5a5 5 0 0 0-1.7-3l-4-3.5-5.2-4.7a6 6 0 0 0-3-1.6c-.9-.2-1.7.1-2.2.8-.5.6-.4 1.3 0 2a138.3 138.3 0 0 0 10.2 9.7 7 7 0 0 0 3.9 1.8Zm-4.8-13.6c0 .6.2 1.1.5 1.6.8 1.3 2 2.2 3 3.1a7.5 7.5 0 0 0 4.6 2.1c.6 0 1 0 .8-.9-.5-2.6-2.2-4.2-4-5.8-.8-.7-1.4-1.4-2.4-1.8-1.4-.4-2.5.3-2.5 1.7Zm26.6-2.2c-1 0-1.2.2-.9 1.2l.3.6c1 1.4 2.6 2 3.8 3 .2.4.6.2 1 0 .3-.4.4-.7.3-1.2-.4-1.8-2.7-3.6-4.5-3.6Z" fill="#DFEBFD"/>
  <path d="M169.1 120.7a17 17 0 0 1-1.2 6.3c-.3.8-.9 1.5-1.5 2.1-.2.3-.5.3-.8.3-4-.7-8-.6-12-.8-1.5 0-2.6-.6-3.5-1.7a13.4 13.4 0 0 1-3-9.1c0-2 .1-4 .4-6 0-.6.4-.6.8-.7 1.7-.1 3.4 0 5 .1 3.4.3 6.9.3 10.3.3.8 0 1.4.2 2 .7 2.7 2.2 3.5 5.2 3.5 8.5Zm-7.3-.1a8 8 0 0 0-.5-3.6c-.5-1.5-1.3-2-2.6-1.8-1 .3-1.3 1.2-1.6 2-.3.8.4 1 .8 1.2.4.3.8.6.7 1.1 0 .6-.6.5-1 .5-.9 0-1 .5-.9 1.2l.6 2.3c.3 1 1 1.7 2 1.6 1 0 2-.7 2.2-1.7.3-1 .4-1.8.3-2.8ZM198 108.3c-.2-2.2.4-4.4.8-6.5.1-.6.4-1 .8-1.4 3-3 6.3-5.8 9.4-8.7l2.3-2.2c.4-.4.5-.5.9 0 1 2 1.4 4 1.8 6 .8 3.6.7 7.3-.3 10.9-.4 1.3-1 2.3-2.2 3.2-2.7 2-5.4 4-8.2 5.8-1 .6-1.7.4-2.5-.1a7.3 7.3 0 0 1-2.9-5.5v-1.5Zm11-5c0-1 .2-2-.2-3-.2-.5-.5-1-1-1-.7 0-1.5-.2-2 .5-.5.6-.9 1.4-1.1 2.1 0 .3-.2.6.2.6.6 0 .8.2.9.8 0 .7-.5.8-1 .9-.5.2-.8.5-.7 1.1l-.2 1.1c0 1.2 0 2.4.7 3.4.6.8 1.5 1 2.2.2.8-.8 1.6-1.6 1.9-2.8.2-1.3.4-2.6.4-4Z" fill="#FBFBFB"/>
  <path d="M198.3 98.8c-3.6-1.3-5.7-4.3-8.1-6.8-1.4-1.5-2.5-3.1-3.6-4.8l-.4-.8c-.3-.7-.2-1.3.3-1.8s1.2-.6 1.9-.3c1.1.5 2 1.4 3 2.3l3.8 3.8 3.8 3.5c.9.9 1.4 1.8 1.3 3l-2 1.9ZM200.7 96.6c-.2-2.8.4-5.5.8-8.3.4-3 .9-6 1.6-8.8.2-1.1.8-1.6 1.7-1.5.8 0 1.5 1 1.5 1.8 0 3.9 0 7.7-.6 11.6 0 .2 0 .4.2.6-1.7 1.5-3.6 3-5.2 4.6Z" fill="#D7E2F2"/>
  <path d="M203.5 72.5c-.3.4-.7.5-1.1.4.3-.2.6-.4 1-.4ZM204.3 72.2c-.2.3-.5.4-.8.3.1-.3.5-.3.8-.3ZM204.9 72c-.2.2-.4.2-.6.2.1-.3.3-.3.6-.3ZM201.8 73.1c-.2.3-.4.3-.6.3.1-.2.3-.3.6-.3ZM205.4 71.7c-.2.2-.3.3-.5.2 0-.2.2-.2.5-.2ZM202.4 73c-.2.2-.4.2-.6.1.1-.2.3-.2.6-.2Z" fill="#AC1DDD"/>
  <path d="m176 75.9-1 .2c0-.1-.2-.1-.4 0-2.6.5-5.2.6-7.9.8-3.9.4-7.8.3-11.6.2l-3-.3c-.5-.1-.8-.3-1-.7-1-1.5-1.6-3-2.2-4.7-.3-1-.2-1.8.8-2.5.3-.2.7-.5.8-1l.2-.1a32 32 0 0 1 7-2.2c6.6-1.5 13-3.8 19.4-6.1 7.2-2.6 14.4-5.2 21.5-8 2.4-1 5-1.4 7.7-1.6.6 0 1 .2 1.3.6 2.7 3.2 4.2 6.8 3.4 11.1a3.9 3.9 0 0 1-3 3.2c-2.1.6-4.1 1.6-6.1 2.5-6.5 3-13.3 5.2-20.2 7-1.5.5-2.9 1.1-4.4 1.2l-1.3.4Zm-14.3-2.4 1.4.2c3.1.2 6.3 0 9.4-.6a101 101 0 0 0 16.7-4.9c3.3-1.2 6.6-2.6 10-3.7.4-.2 1-.4.8-1 0-.7-.7-.5-1.1-.6-1.7 0-3.4.2-5 .8-9 2.8-18 5.3-27 7.6-1.8.4-3.5 1-5.2 2.2Zm-2-3.2 3-.7c8.5-2.1 17.1-3.9 25.3-7 4-1.5 7.8-3.3 11.6-5.2.4-.2.8-.4.6-1-.2-.4-.7-.4-1.2-.2l-2.3.8c-5.5 2.2-11 4-16.8 5.4-5.2 1.4-10.4 2.3-15.5 4.1-1.8.7-3.6 1.5-5.2 2.6-.2.2-.6.5-.4.9.2.2.5.3.8.3Z" fill="#73709A"/>
  <path d="M150.5 68c-.1.4-.5.7-.8.9-1 .7-1.1 1.5-.7 2.5.6 1.6 1.2 3.2 2.1 4.7.2.4.5.6 1 .7l3 .4c3.9 0 7.8 0 11.7-.3 2.6-.2 5.2-.3 7.8-.9h.5c-.8.7-1.8.7-2.7 1-5.8 1.4-11.7 2.5-17.5 4.4-1.8.6-3.7 1-5.6 1.2-1.2.2-2.4 0-3.1-1.3a12.2 12.2 0 0 1-1.6-7.3c.1-1.3.2-2.7 1.1-3.8l.6-.6c1.4-.5 2.7-1.4 4.2-1.7ZM150.7 67.8Z" fill="#35325E"/>
  <path d="M109.1 87.4c2.6.7 5.1 1.4 7.5 2.5l1.7.7c1.5.5 1.4.5 1.5 2.1l.5 14.2v3.3c0 .7-.2.8-.7.6-3-.8-5.9-2.1-8.7-3.3a1 1 0 0 1-.7-1c-.1-6.3-1-12.7-1-19.2Zm2.7 3.7c-1.5 0-2.3 1.5-1.5 2.9 1.5 2.2 2.4 4.8 3.5 7.2.7 1.4 1.2 3 2.4 4 .4.4.8.7 1.3.4.5-.3.7-.7.7-1.3 0-.4-.2-.8-.4-1.1-1.2-2.2-2-4.6-2.7-7l-1.2-3.6c-.4-.8-.9-1.6-2-1.5Z" fill="#DFEBFD"/>
  <path d="M122.6 122.7v-6c0-.3-.2-.7.2-.7.3 0 .3.3.4.5l.2 1.8v11.6c0 .1-.1.3-.3.3-.3 0-.3-.1-.3-.3-.2-.8-.3-1.5-.2-2.2v-5Z" fill="#35325E"/>
  <path d="M90.1 93.2c-1.6-1.5-2.1-3.3-2.7-5.1l-.6-2.8c-.1-.7.1-1.3.8-1.5.7-.3 1.4.1 1.6.7 1 2.7 1.6 5.6 1 8.7ZM94.4 69.7v.4c0 .7-.3.8-.9.4a7.5 7.5 0 0 1-3.3-4.3c-.3-.8.2-1.4 1-1.7.6-.3 1.2 0 1.6.6a7.5 7.5 0 0 1 1.6 4.6ZM165.5 108.7a7 7 0 0 1-4-1.8 143.6 143.6 0 0 1-10.1-9.7c-.3-.7-.5-1.4 0-2 .5-.7 1.3-1 2.2-.8 1.2.2 2.2.8 3 1.6l5.2 4.7 4 3.5c1 .8 1.5 1.8 1.7 3 .1.9-.7 1.5-2 1.5ZM160.7 95.1c0-1.4 1.2-2.1 2.5-1.6 1 .3 1.7 1 2.4 1.7 1.8 1.6 3.6 3.3 4 5.8.2 1-.2 1-.8 1a7.6 7.6 0 0 1-4.6-2.1c-1-1-2.1-2-3-3.1-.3-.5-.6-1-.5-1.6ZM187.3 93c1.8 0 4.1 1.7 4.6 3.5 0 .5 0 .8-.4 1.2-.3.2-.7.4-1 0-1.2-1-2.8-1.6-3.7-3l-.3-.6c-.4-1-.3-1.2.8-1.2Z" fill="#D7E2F2"/>
  <path d="M161.8 120.6c.2 1 0 1.9-.3 2.8-.3 1-1.1 1.7-2.2 1.7-1 0-1.7-.5-2-1.6l-.6-2.3c-.1-.7 0-1.2.9-1.2.4 0 1 0 1-.5.1-.5-.3-.8-.7-1-.4-.3-1-.5-.8-1.2.3-.9.6-1.8 1.7-2 1.2-.3 2 .3 2.5 1.7a8 8 0 0 1 .6 3.6ZM209 103.2c.1 1.4 0 2.7-.3 4-.3 1.2-1 2-1.9 2.8-.7.7-1.6.6-2.1-.2-.8-1-.9-2.2-.8-3.4l.2-1c-.1-.7.2-1 .8-1.2.4-.1.9-.2.9-.9 0-.6-.3-.8-.9-.8-.4 0-.3-.3-.2-.6.2-.7.6-1.5 1-2.1.6-.7 1.4-.5 2-.5.7 0 1 .5 1.1 1 .4 1 .3 2 .3 3Z" fill="#000"/>
  <path d="M161.7 73.5c1.7-1.2 3.4-1.8 5.2-2.2 9-2.3 18-4.8 27-7.6 1.6-.6 3.3-.9 5-.8.4 0 1 0 1.1.6.2.6-.4.8-.9 1-3.3 1-6.6 2.5-10 3.7-5.4 2-11 3.8-16.6 4.9-3.1.5-6.3.8-9.4.6l-1.4-.2ZM159.7 70.3c-.4 0-.7 0-.9-.4-.2-.4.2-.6.5-.8 1.5-1.1 3.3-2 5.1-2.6 5-1.8 10.4-2.8 15.6-4.1 5.7-1.5 11.2-3.3 16.7-5.4l2.4-.9c.4-.1.9-.1 1 .4.3.5-.1.7-.5 1-3.8 1.8-7.6 3.6-11.6 5-8.2 3.2-16.8 5-25.3 7l-3 .8Z" fill="#35325E"/>
  <path d="M111.8 91.1c1.2 0 1.7.7 2 1.5a30 30 0 0 1 1.3 3.6c.7 2.4 1.5 4.8 2.7 7l.4 1c0 .7-.2 1.1-.7 1.4-.5.3-1 0-1.3-.3-1.2-1.2-1.7-2.7-2.4-4-1.1-2.5-2-5-3.5-7.3-.8-1.4 0-2.9 1.5-2.9Z" fill="#D7E2F2"/>
</svg>
