<svg fill="none" xmlns="http://www.w3.org/2000/svg" viewBox="0 0 300 200">
  <path d="M56.8 135.8c.1-.3-.2-.3-.2-.5-.4-.5-.3-.9.4-1l1.6.1c.8.1 1.5-.3 2.2-.5.6-.2.4-.7.2-1-.7-1-1.6-1.6-2.8-1.6-.6-.5-1.3-.7-2-1.1-.4-.3-1-.5-1.1-1.1 1-.1 1.6.4 2.3.8.5.3 1 .5 1.7.5 1.3 0 1.9.4 2.3 1.7.3.5.7.4 1.1.5h.7c.4 0 .8.2 1-.2.3-.3-.3-.5-.4-.8-.3-.7-1-1-1.5-1.5-.3-.2-.7-.4-.5-.8.3-.5.7-.2 1 0h.3c.3.1.4 0 .2-.2-1-1.3-1.9-2.7-3.6-3.2-.3 0-.6-.4-.5-.8.1-.5.5-.5 1-.5.8.1 1.6.3 2.2 1 1 1.3 2.4 2.5 3.6 4 1-1.4 2.3-2 4.2-1.2-.6-1-.3-1.4.7-1.7 1-.4 1.1-1.3.4-2.1-.6-.7-1.2-1.1-2.1-1.2a5 5 0 0 1-2.4-1l-2-1.4c.3-.4.7-.5 1.2-.2l1.5.7c1 .6 2 1 3 1.2l.4.2c.1 0 .2.2.3 0l-.2-.1-.2-.3c-.5-.7-1.2-1-2-1.4-.2-.1-.6-.2-.5-.6.2-.5.6-.3.9-.3 1.3.3 2.3 1.1 3 2.3l.3.4c.2-1.2.1-2.3-.2-3.3-.6-2-.3-1.7 1.1-2.7-1.7-1.7-2.6-3.9-3.4-6-.5-1.1-.5-2 .1-3.1 1.4-2.4 2.3-5 2.5-7.8 0-.5.1-.9.5-1.2.7-.5.6-1 0-1.6-.4-.4-.6-.8-.4-1.4.2-.8.2-1.7 0-2.5h-.2c-.5.3-.9 1-1.5.7-.6-.3-.2-1-.2-1.5v-1.7c0-.5.1-1 .5-1.1.4-.2.7 0 1 .2.1.2.3.4.5.2.2-.1 0-.3 0-.5-.3-1-.3-2.1 0-3.1.2-.6.5-.9 1-.5.9.7 1-.3 1.3-.6.6-.5-.3-.4-.5-.6-.3-.4-.6-.7-.6-1.2.1-1.1.1-2.3.6-3.3.6-1.1.6-2.2-.3-3.1l-.8-1c-.4-.7-.7-1.3 0-1.9.4-.2.4-.4.1-.7l-.2-.2c-.5-.5-1.3-1-1-1.8.1-.5 1-.4 1.6-.5 3-.6 3-.9 2.4-3.8-.5-2.4-1.8-4.6-3.2-6.6-1-1.3-2.5-1.6-4-2-.9-.4-2-.5-2.7-1.2-.2-.1-.6-.2-.4-.6.3-.5.6-.1.8 0 1.4.7 3 .8 4.5 1.6a14.8 14.8 0 0 0-7.7-7.1c.8-.5 1.4-.4 2 0 1 .5 1.9 1.5 2.7 1.5.8 0 1.8-.8 2.7-1.2l5-2c1-.3.5-1 .7-1.6.1-.4-.1-.7-.5-.8-.9-.4-1.4-1.1-2-1.8-.8-.7-1.3-1.6-2.4-1.8-.2 0-.5-.3-.5-.6a2 2 0 0 1 1.8.4c.8.7 1.6 1.3 2.2 2 1.7 2 4 2.2 6.1.9 1.5-1 3.2-1.6 4.7-2.4.8-.4 1.4-1.5 1.2-2.4l-.3-.3c-.3-.2-.3 0-.3.3-.1.3-.4.3-.5.1-.9-1-2-1.3-3.2-1.7-.6-.1-1-.3-1.5-.8.7-.4 1.5-.2 2.4-.2l-1.5-1-.2-.4c0-.2.3-.3.5-.3.3 0 .7.3 1 .5 3.3 2 3.3 1.9 6.8.3a8.2 8.2 0 0 0 3.3-2.4 1 1 0 0 1 1-.5l2.8.1c1.3 0 2.7-.2 4-.7-.1-.3-.4-.4-.6-.5a183 183 0 0 1-12.6-8.5c-.5-.4-.9-.5-1.5-.2-1.2.5-2.6 1-4 1.3-1.6.5-3.2.3-5-.6-1.1-.6-1-1.3-1-2.2 0-1.7.3-3.5.6-5.3.3-1.3 1.3-2.1 2.5-2.5 2.8-1 5.6-1.8 8.5-2.7l15.3-4.3c8-2.4 16.3-4.2 24.4-6.7 2.5-.7 5-1.6 7.6-1.8 2-.2 4-.3 5.9.5 1.3.5 2.8.5 4 1.3 2.6 1.7 4 4.1 4.8 7 .2.8-.2 1.3-1 1.4-1.3.1-2.5 1-3.8 1-1.2 0-1 .5-1 1.3l3 17.2.4 2.8c.1.5.3.8.9 1a12 12 0 0 1 5 3l.5.2c.8-.1 1.5 0 1.9.8 0 .1.2.2.4.1 1.7-.1 3.1.5 4.7 1.2l7.4 2.8c8.9 3.5 18 6.7 26.8 10.4l3 1.7c.6.4 1 1.1 1.2 1.8 4.8 12.8 8.8 26 12.6 39l7.1 24.7c2.2 7.5 4.4 15 6.1 22.6a52.5 52.5 0 0 1 1.6 15.6l-.6 7.5c0 .7-.6 1.3-1.1 1.8a21 21 0 0 1-5.5 3.3c-8 3.7-16.6 6.5-25 9.3-10.1 3.4-20.3 6.7-30.3 10.4a28 28 0 0 1-8.9 1.8c-2 0-3.8-.6-5.6-1.2a117 117 0 0 1-17.7-8.4l-13.8-7.8a282 282 0 0 1-23-14.3l-4.8-3.3c-.4-.3-1 0-1.4-.5-3.5-3.4-8-5.3-12-8l-12-7.8c-2.5-1.5-5-3-7.6-4.2-.5-.2-.7-.8-1.3-.8ZM120.6 38l.4.2 6.8 3.7h.6c1.1-.3 2.3-.4 3.4-.9h.5a93 93 0 0 1 9.4-1.8c.7 0 .5-.5.4-1-.4-1.6-1-3.3-1.3-5 0-.8-.4-1-1-1.2-7.7-2.8-15.4-5.4-23.2-7.9l-4.6-1.6 1.5 2c.5.7.5 1.5-.3 2l-1 1c-.6.6-1.4.9-1.7 1.7.1 1.4-.6 2.2-2.2 2.3l8.5 4.6c1.1.6 2.3 1.3 3.6 1.8l.2.1ZM148 48.8c-.2-.1-.3 0-.5.2l-3.7 2c-1 .3-2 .7-2.8 1.2l-2.4.8c-1 0-1.6.6-1.4 1.4l1.4-.6c.8-.3 1.7-.3 2.4-.8 1 0 1.9-.6 2.8-1 1.6-.5 3.2-1.1 4-2.9l.2-.3.1-.1-.1.1Zm-41.9-18.5s.2.1.2 0c.1 0 0 0 0-.1l-.3-.3c-.5-.8-1.2-1.6-1.5-2.7 0-.3-.3-.7.1-1 .6-.2.7.4.9.7A8.7 8.7 0 0 0 108 30c.7.5 1.2.2 1.2-.6 0-.6.2-1 .6-1.5.4-.4 1-.7 1.3-1.2-.7-.3-.8-.9-.9-1.5a3.4 3.4 0 0 0-1.9-2.8c-.9-.5-1.7-1-2.4-1.9-.1-.2-.3-.4-.2-.6.3-.4.5 0 .7.1 1.1.7 2.1 1.7 3.5 2 0-.8.4-1 1.1-.9l1.4.4 18.7 6 9.2 3.3c-1.4-7.5-3-14.8-3.8-22.2-15.1 3.3-30 7.8-45 12.4l11.5 7.4c.2 0 0-.2 0-.3.5-.2.7.2 1 .5-.2 0-.5 0-.4.2 0 .3.3.3.5.2a37.1 37.1 0 0 0 2 1.3ZM73.2 90.6c0-.2 0-.3-.2-.2v.3c.2 0 .2.4.4.2 0 0 0-.3-.2-.3Zm62.2-37c0 .2.2.4.4.3l.1-.1c0-.3-.3-.2-.5-.2 0-.6-.4-.7-.8-.9l-.1.2c0 .4.4.5.7.7h.2Zm-59.4 48h-.4c-.4-.2-.5-.5-.3-1L76 99c-1.7-.5-1.7-.5-2.4 1-.4.6-.8 1.4-.4 2.1.4 1 1 1.8 1.6 2.7 1 1.3.9 2.3-.2 3.3-.2.2-.5.3-.8 0-.2-.2-.2-.4 0-.7l.6-.6c.6-.5.1-1-.3-1.2a2 2 0 0 0-1.9.2c-.3.3-.5.9-.3 1.5l.6 2.4c0 .3.4.8 0 1-.4 0-.5-.6-.6-.9l-.6-1.9c-.2 1-1.4 1.3-.9 2.3.7 1.2 1.2 2.5 1.7 3.7.3.6.7 1.5 1.7 1.2v.4c.2.8.6 1.5 1.4 1.9.4.1 1 .2 1 1l-1.2-.6c-.4-.2-2 .6-1.9.9.3.8 0 1.8 1 2.5 1.7 1.1 1.7 1.6 1 3.4-.1.2-.2.4-.4.4s-.3-.2-.3-.4c.2-1-.5-1-1.1-1.3-.3.8.4 1.8-.8 2.4 1.6.4 2.6 1.6 4.2 2.3-.4-6.7.3-13.2.6-19.7.3-7.2.8-14.4 1.3-21.6.4-5.9.8-11.8 2.3-17.6.1-.3.3-.7 0-.9-1.4-.8-2.7-1.8-4.1-2.9.2 1 .6 1.7.4 2.5-.2 1 .3 1.2 1.1 1.4.7.2 1.5.2 2.1.9-1.3 0-2.1.6-2.6 2v.4c-.4 0-2.2 1.1-2.3 1.5v.1c.4.6 1 .8 1.7 1 .5 0 .4-.5.5-.8.2-.4.3-.9.7-1.2l.3.3c-.5 1.3-1.2 2.6-.2 4 .4.6.1 1-.7.7h-1l.5 1.2.5 1.1c0 .4.6 1 0 1.2-.5.2-.5-.6-.6-1-.3-.7-1-1-1.5-.3a5 5 0 0 0-.7 3c0 .7.6.8 1 1 .8.6.8 1.2 0 1.7-.2.2-.6.4-.4 1v-.1c-.5.2-1 .8-1.7.4-.4-.2-.5.3-.5.6 0 .9 0 1.7.6 2.4l1.1 1.6c.1.6-.2 1-.7 1.3-.5.2-1 .4-.8 1 0 .7.1 1.3 1 1.5.9.3 1.7.7 2.2 1.6v.6c0 1-.4 2-1 2.9-.1.4 0 .6.2.9Zm65.8-47.8-4 1c-.8 0-1.3.5-1.4 1.5l5.8-2.1c.7 0 1.4-.3 2.1-.4.5 0 .7-.6.6-.9-.1-.4-.6-.3-1-.1-.6.3-1.5.4-2.1 1Zm-.6-6-2.2.7c-.5.2-1 .3-1.7 0-1.2-.8-2.5-1.4-3.8-2.1-4.6-2.7-9.5-5-14-7.8-1.4-.9-3-1.6-4.5-2.2l-6.2-3.5-7.5-4.5-4.5-2.3c0-.3-.4-.4-.6-.6-1.8-1.2-3.6-2.3-5.3-3.6-.6-.4-1.2-.2-1.7-.3-.6 0-.7.3-.9.8-.2.5 0 .7.5.9l1.8 1c1.6.8 3 2 4.7 2.7 2 1.5 4 2.8 6.2 4L110 36c2 1.4 4.3 2.5 6.6 3.5l9.6 4.9c2.3 1 4.5 2.2 6.5 3.8 1.1.8 2.3 1.5 3 2.7.4.5.2 1.5 1 1.6.6 0 1.3-.4 1.9-.7l.9-.4c.7-.1 1.3-.3 2-.7.8-.2 1.7-.5 2.5-1 1.7-.5 3.2-1.4 4.7-2.1.2 0 .3-.2.3-.4 0-1 .3-2 0-3-1.3-4.8-1.7-9.8-2.6-14.7L144.6 19l-1-6c0-1.2-.4-2.3-.6-3.5-.3-1.7-1.3-2.3-2.9-1.8-.5 0-.6.3-.5.7l.8 3.6.8 4 1.6 8.5c1.2 6.3 2.2 12.7 3.8 19 .2 1-.1 1.8-1 2.3-.8.2-1.5.4-2 1-.8 0-1.5.5-2.2.8-.1 0-.2 0-.2.2Zm-2.5-5.9c1-.2 2.2-.4 3.2-.8.3 0 .7-.3.6-.7-.1-.3-.5-.2-.8-.1-2.8.4-5.5.9-8.3 1.5-1.1.4-2.4.5-3.6 1 1.2 1 2.4 1.5 4 .8.9-.5 1.9-.7 2.9-1 .4 0 .8 0 1-.5h.4c.3.1.5 0 .6-.2Zm-49 10v.3l-1.6-.4a42.7 42.7 0 0 0-7.3-3c0-.2-.2-.2-.4-.2l-.7-.3c-1.6-.8-2.3-.4-2.1 1.4 0 .6-.2 1-.8 1.1-2.3.9-4.5 2-7 2.6-.5.1-.8.2-.2.8a19 19 0 0 1 1.8 2c1.6 2.2 2.9 4.6 4.4 6.9.2.2.2.5.5.7 1.9 1 3.5 2.4 5.4 3.4.7.3.8.9.5 1.6l-.2.6c-1.5 6.6-1.9 13.3-2.4 20L79 99.7 78 111a214.2 214.2 0 0 0-.3 17.7c0 .5-.3.6-.8.4-1-.6-2-1.1-2.9-1.8-.7-.6-1.4-1.2-2.2 0l-.5.2c-.4 0-.4.2-.3.6.8 2.4.2 4.6-1 6.7-.3.3-.6.5-.9.5-.5 0-.6.2-.6.6 0 1.5-.5 2-2 2.2-.8.2-1.7.1-2.6.5 8 4.8 16 9.7 24.1 14.8-1.5-5-2.2-9.8-2.8-14.7-.5-3.7-1.1-7.3-1.3-11-.3-7.3-.3-14.5 0-21.7.2-2.6.2-5.2.6-7.7.3-2.7.3-5.5.5-8.2l.4-6c.3-2.8.8-5.6 1.4-8.4.8-3.3 1.5-6.6 2.6-9.8 1.2-3.4 2.6-6.7 4.3-10l1.2-1.6 1-1.1c.7-.5 1.5-.8 2.2-1.2 4.3-2.4 9-4.2 13.8-5.5l7.6-2.2-4.6-2.6-11.5-6.5c-.4-.2-.8 0-1.2 0-1.9.4-3.7 1.2-5.8.8-.5-.2-1.3-.4-1.7.1-.5.6-1 1-1.6 1.4-1 .8-2 1.5-3.1 1.8l-1.7.7c-.2.1-.5.3-.3.7.6 1 .5 2 .2 3-.9 1.1-2.2 1.5-3.5 2-1.3.5-2.6 1-3.8 2 2 .5 3.7 1.6 5.5 2.3l.3.1.4.2c.8.6 1.7 1 2.6 1.4Zm48.3-6.1c1.8-.5 3.3-1.3 5-2 .8-.5.2-1 .2-1.5 0-.6-.5-.4-.8-.3l-6.6 1.7-3 .9c1.9.9 3.2 2.5 5.2 1.2Zm-9.4-40.2c4.9-1.5 10-2 15.3-2.9-2.2-.3-4-.5-6-1.2a2 2 0 0 0-1 0l-8.2 2a17 17 0 0 0-4.7 1.4c-.8 0-1.5.3-2.3.5l-7.2 2c-1 0-1.9.3-2.8.6-3 .7-6 1.7-9 2.3-1.8.4-3.6 1-5.3 2-.7 0-1.3.2-2 .4l-8 2.3-.2.1-.4.1c-2 .6-3.9 1.3-5.9 1.8-1.3.4-2 1.2-2.1 2.5l-.5 3.7c-.2 1.9-.3 1.9 1.4 2.4.6.2.7 0 .7-.6 0-1.3 0-2.6.2-3.9.1-1 .5-1.8 1.5-2.1l3.4-1.4 6.1-2.2h.5l8-2.6c1.4-.5 2.8-.4 4.1-.8l10.5-3c1.8-.5 3.6-.7 5.4-1.5l1.6-.2c2.4-.4 4.6-1.2 6.9-1.7Zm8.9 1.4h1c1.6-.2 3-1 4.7-1 1 0 1.7.4 2 1.3.2.9.5 1.7.5 2.6 0 .7.4.6.9.4.8-.3 2-.3 2.4-1 .3-.6-.5-1.5-.8-2.3a7.2 7.2 0 0 0-2.2-3.3c-.4-.4-1-.6-1.5-.3-.8.5-1.7.5-2.5.6-2.9.6-5.8 1-8.6 2-2.6.3-5 1.2-7.6 1.9h-.4c-4.6 1.2-9.2 2.1-13.7 3.5-3 .8-6 1.3-9 2.3l-8.4 2.2c-1.3.4-2.6.7-3.8 1.2-2.7.9-5.1 2.4-8 3-.4 0-.4.3-.5.7-.5 1.7 0 3.4 0 5.2 1.3-.8 2.6-1.2 4-1.5.9-.3 1-.8.7-1.6l-.2-.6c-.2-.9 0-1.4.9-1.7 2.1-.6 4.2-1.3 6.4-1.8s4.5-1 6.6-2c2-.3 3.8-1.1 5.8-1.6l1.9-.5 12.6-3.6 9.2-2.3 7.6-1.8ZM94.3 57.6c-.9.9-1.2 2-1.7 3.2a76.4 76.4 0 0 0-6.8 30.5l-.3 4.4-.6 7.7c-.3 8.7-.2 17.3.1 26 0 1 0 2 .3 3 .6 3 .9 6 1.3 9 .5 4.2 1.3 8.4 2.2 12.6.2.6.4 1.3 1.2 1.6v.1c.2 0 .1-.1 0-.2l-.6-2.2c-.9-3.1-.7-6.4-1-9.6l-.7-7.7c-.3-3.7-.8-7.4-1.3-11.1-.6-5.2-.4-10.3-.5-15.5A111.4 111.4 0 0 1 87.5 89c1-7.3 2.9-14.4 5.5-21.3 1.2-3 2.3-6 4.1-8.6 1-1.5 2.1-3 3.7-4 4.6-2.4 9.5-4.6 14.5-6.2l7.4-2.5c-1.3-.8-2.6-1-4-.5l-.9.2c-.7.4-1.6.4-2.2 1h-1.3c-5.6 1.4-11 3.2-16 5.8-2.1 1-3.2 2.7-4 4.8Zm45.9 57-.4-2-2.5-15.8-2-13.8c-.1-1.2.1-2.5-.3-3.7-1.6-3.8-4-7-7.8-9-7-3.5-14.2-6.5-21.2-10-.2-.2-.5-.2-.6-.5.4 0 .8 0 1.2.2l3.7 1.5a170 170 0 0 1 18.6 8.9c2.9 1.6 5 4 6.3 7 .5 1 1.1 2.2 1.2 3.4.1 5.4 1.3 10.7 2 16l3.2 18.7 3.1 18.5c.8 4.8 1.5 9.5 2 14.3.5 3.1.6 6.3 1 9.4a15 15 0 0 0 3.5 8 16 16 0 0 1 4.2 9l2 15.5c0 .7.1.8.7.6l2.5-.5c4.5-1.2 8.8-3 13.2-4.5 12.8-4.1 25.4-8.5 38-13 4-1.5 8-3.1 11.8-5.5 1.3-.8 1.9-2 2-3.5l.2-4c.5-5.2.2-10.5-.9-15.7-1.8-8.4-4.3-16.7-6.5-25l-3.8-12.7c-4.8-15.8-9.2-31.7-14.8-47.2-1-3-3-4.9-5.9-6-11.2-4.5-22.6-8.5-33.7-13.2-1-.4-1.9-.7-2.9-.6-2.2.2-4.4.5-6.5.9-1.4.2-1.4.2-1.1 1.6l.7 4.4c.1.6.2 1.3-.3 1.7-1 1.1-1.9 2.4-2.8 3.6a12 12 0 0 1-4.6 3.7A40 40 0 0 1 134 58c-.6-.5-1.7-.5-1.9-1.3-.2-.7.4-1.5.7-2.2.8-2.2 1-1.4-.8-3l-.8-.6c-1.7-1.2-3.7-1.9-5.5-3-1.3-.8-2.5-.8-3.8-.1h-.5c-6.6 2-13.1 4.3-19.3 7.5a9 9 0 0 0-3 2.5c-1.4 1.8-3 3.5-3.8 5.7a127.3 127.3 0 0 0-7.5 31.2 117.5 117.5 0 0 0-.5 29l1.4 11.3c.5 4.6 1.2 9.2 1 13.8 0 1.9.5 3.6 1 5.3.3 1.5 1.4 2.2 2.7 2.9l-.1-2.3-.8-22.2c-.3-8.5-.1-17.1-.4-25.7a208.7 208.7 0 0 1 .8-26.1c.3-3.9 1-7.6 2-11.4.3-1.5 1.8-2.4 3.2-1.7l4.7 2.4c3.1 1.7 6.4 3.3 9.5 5.1 1.2.6 1.6 1.3 1.5 2.5-.2 5 .1 9.8.4 14.8.4 5.5.8 11 1 16.6l.5 7.2.9 12.4.7 10.2c.3 3.8.8 7.5.9 11.3.1 3.6.6 7.1.8 10.6.3 4.2 1 8.4 1 12.6 0 .5.3.8.7 1 8.5 5.2 17.2 10 26.4 14a33 33 0 0 0 9 2.6v-.2c-.1-2.3-.2-4.6-.5-7-.4-3.5-.3-7.2-1.5-10.7-.7-2-1.7-4-3.2-5.6l-1.5-1.9c-2.3-3.5-2.6-7.5-3.2-11.4-.4-3.1-.5-6.3-1-9.4l-3.2-19.5c-.3-1.8-.5-3.6-1-5.4 0-.3 0-.7-.2-1a14 14 0 0 0-.6-3.3v-.9Zm-21 58.9c-.5-3.5-.8-6.8-1-10-.3-3.5-.5-6.9-.9-10.3-.5-5-1-10-1.3-15l-.7-10-.9-12.2-.7-11.8L113 91c-.2-4.4-.4-8.8 0-13.2 0-.6 0-1.1-.7-1.4-4-2-8-4.4-11.8-6.7-.9-.5-1.7-.8-2.6-1-1.2-.3-1.6-.1-1.8 1-.6 2.4-1 4.9-1.5 7.3-.4 2.5-.4 5-.6 7.5-.6 8.3-1 16.5-1 24.8.2 9.4.2 18.7.5 28 .3 6.7 1 13.3.9 20 0 .4.2.6.5.8l4.7 3.3c1.2 1 2.6 1.8 4 2.7v-1.2c0-10.4-.6-20.8-.8-31.2-.1-12.3-.4-24.7 0-37l.4-14.7c0-1.8.3-3.6.4-5.5.8.1 1 .5 1 1.3l-.2 5.4-.7 34c-.2 9.8 0 19.7.4 29.6.4 6.3.5 12.6.4 19 0 .6.2 1 .8 1.4l7.2 4.4 6.7 3.9Zm16.3-121.7c-.4-.7-.8-1.4-1.6-1.9-2.8-1.7-5.9-3.2-8.7-5-3.2-1.9-6.6-3.3-9.9-5l-15.1-8.6c-3.7-2-7.2-4.5-10.8-6.8-.2 0-.5-.5-.8 0-.1.2.2.4.4.5 4.2 2.7 8.2 5.5 12.5 8 7.9 4.3 15.7 9 23.7 13l5 3c1.7 1 3.4 2.2 5.3 2.8ZM58 135.2v.3c2.6 1.8 5.2 3 8.5 1.5-.9-.6-1.8-1.4-3-1.3-.5 0-.9 0-1.1-.4-.2-.2-.3-.5 0-.5.7 0 1.3-.3 2 0 1 .3 2 .7 2.7 1.6.2-.5 0-.8-.3-1l-1.5-.9c-.2 0-.5 0-.5-.4s.4-.4.6-.4c.6 0 1.1.2 1.5.7.1.1.3.4.4.3.4-.8 1.7-.2 2-1.3 0-.2.3-.4.5-.5.8-.6 1.2-2.5.7-3.5-.4-.9-1.4-.6-2.1-.7-.5 0-.8.3-1.2.6-.8.6-1.2 1.5-1.6 2.4-.7 1.6-1.1 1.8-2.9 1.5-.3 0-.5-.2-.7.3-.5 1.2-1.6 1.6-2.7 1.7H58ZM145.4 44c-1.5-5.7-2.4-11.5-3.5-17.2l-3.3-18.2c0-.4 0-.7-.5-.5-.4 0-.7 0-.6.6l1.4 8.4 2 11.4c1 5 2.2 9.8 3.5 14.7.1.5.4.8 1 .8Zm8-6.3c-1.4-1.5-3.1-1.7-4.8-2.5l.4 2.3c0 .3 0 .6.5.5l3.9-.3Zm-8.7 7.2c-.7-.2-1-.5-1.5-.3-1.7.9-3.5 1.3-5.2 2-.2.1-.6.2-.4.5.1.3.4 0 .7 0 2-.5 4-1.5 6.4-2.2Zm-8.9 9.8c-.6-.2-1-.6-1.5-.5-.6.1-.4.9-.7 1.3l-.2.3c-.4.4-.3.7.2 1 .6.4.9.2 1.1-.3l1.1-1.8Zm20.2-16c-.7-.6-1.3-.2-2-.2l-4.3.5c-.1 0-.4 0-.4.3s.3.2.5.2c2-.3 4-.6 6.3-.7ZM76.1 98.2c.1-1.1-.5-1.7-2.6-2.3.6 1.2 1 2.3 2.6 2.3Zm-.8-23.4c.4 1 .7 1.7 1.2 2.4.2.4 1 .3 1 0 0-.5-.3-1.2-.6-1.7-.3-.3-1-.4-1.6-.7Zm-.6.4c-.6.4-.5.7 0 1 .7.8 1.3 1.7 1.2 2.9 0 .7.4.3.8.4-.6-1.5-1.2-3-2-4.3Zm-.7-2.9c.3.5.7 1 1.2 1 .6 0 1-.7 1.5-1.2.2-.3-.1-.4-.3-.4-.8.4-1.6.3-2.4.6Zm4.7-2.5c-.7-.1-1.5-.8-1.3.6l-.2.6c0 .2-.2.4 0 .5.2.1.3 0 .4-.2l1.1-1.5Zm-7 23c1.4-.9 1.4-1 0-2.2v2.2ZM144 6.9h-.3l.7 3.6h.2c.1-1.3-.2-2.4-.6-3.6Zm-70.3 97.7-1-1.9c-.2.8-.5 1.4-.3 2 0 .3.7-.2 1.3 0Zm1.1 18.4c-.3-1-1-1.2-1.5-1.7 0 .7.4 1.2 1.5 1.7Zm36.9-97c1-.7 1-1.3-.1-1.8.2.6.1 1.2 0 1.9Z" fill="#07080A"/>
  <path d="M72 67.9v-1.3c0-.6.2-1 .7-1.2.5-.1 1.1-.1 1.5.2l1 1.3c.4 1 .3 1.4-.8 1.8a4 4 0 0 0-1.3.8c-.2.3-.5.5-.9.3-.3-.1-.2-.4-.2-.8V68Zm1 .3c.5-.4 1.3-.2 1.3-.9 0-.3-.4-1-.8-.9-1 .3-.3 1-.5 1.7ZM56.8 135.8c-.3.4.3.4.3.7.1.3.3.6 0 .8-.3.5-.4 0-.6-.2-.8-.4-1.7-.5-2.5-.7-1.5-.4-2.9-.8-4-2.2l1.6.2 1.7.5c1 .3 2.2.5 3.2 1 .1.1.3.1.3-.1ZM62.2 73.6c0-1.5.9-2.5 2-2.4.8.1 1.2.7.8 1.5-.2.3-.3.7-.3 1.1 0 .5.1 1.2-.8 1.2-.8 0-1.6-.7-1.7-1.4Zm2-1.5c-.9.4-1.2 1.3-1 2 .1.2.3.3.5.3s.1-.3.1-.5c0-.6 0-1.2.3-1.8ZM65.2 100.7v.6c-.2.6-.1 1.5-1.2 1.4-.8-.1-1.4-1-1.3-1.8l.1-.6c.3-.7.6-1.3 1.4-1.3.8 0 1 .5 1 1.7Zm-1-.7c-.5.7-.5 1.2 0 1.5.2-.4 0-1 0-1.5ZM68.9 44.8c1 0 1.5.7 1 1.5l-.8 1.5c-.3.6-.9 1-1.5.7-.6-.3-1.1-.8-.7-1.7.4-1 .6-2 2-2Zm-1.3 2.5c0 .3 0 .6.2.6.3 0 .5 0 .6-.3L69 46c.1-.1.3-.3.1-.4 0-.2-.3-.1-.5 0-.9.2-.7 1-1 1.6ZM62.2 116c0-1.3.4-2.3 1-2 .9.3 1.1 1.2 1 2l-.1 1c-.2.5-.3 1-.9 1-.6-.1-1-.5-1-1.2v-.8Zm1.3 0c-.1-.3.2-1-.4-1-.4 0-.3.7-.3 1v.3c0 .3 0 .8.3.8.5 0 .3-.5.3-.8v-.4ZM58.2 131.3c.6.7.7 1.4 0 2.2-.4.6-1.1.5-1.8.5-.3 0-.5-.2-.6-.5-.3-.9.5-2 1.4-2 .3 0 .7.3 1-.1Zm-.1 1.2c0-.2-.3-.2-.5-.2-.5 0-.8.3-.9.7 0 .4.2.4.5.4.5 0 .7-.4.9-.9ZM92.2 32c0 .7-.2 1.3-.8 1.6-.5.3-1 .3-1.4 0-.5-.2-.5-.6-.4-1l.2-1c.3-.7.7-1.3 1.5-1.1.8.1.8.9.9 1.5Zm-2 .3c0 .5 0 .8.4.8 1 0 .8-.9 1-1.4 0-.3-.1-.7-.5-.7-.7.2-1 .7-1 1.3Z" fill="#07080A"/>
  <path d="M99.2 57.8a9 9 0 0 1 3-2.5c6-3.2 12.6-5.5 19.2-7.5h.5c2.6.3 4.5 1.9 6.5 3.3a3 3 0 0 1 1.4 2.8c0 3.3 0 3.3 3.2 4.3l.4.2c.3 0 .5-.1.6-.4 3-.6 6-1.4 8.7-2.7a12 12 0 0 0 4.6-3.7c1-1.2 1.8-2.5 2.8-3.6.5-.4.4-1.1.3-1.7l-.7-4.4c-.3-1.4-.3-1.4 1-1.6a83 83 0 0 1 6.6-.9c1 0 2 .2 2.9.6 11.1 4.7 22.5 8.7 33.7 13.2 3 1.1 4.9 3 6 6 5.5 15.5 10 31.4 14.7 47.2l3.8 12.6c2.2 8.4 4.7 16.7 6.5 25.1 1.1 5.2 1.4 10.5 1 15.8l-.3 3.9a4.2 4.2 0 0 1-2 3.5c-3.7 2.3-7.8 4-11.9 5.5-12.5 4.5-25.1 8.9-37.9 13-4.4 1.4-8.7 3.3-13.2 4.4-.8.3-1.7.4-2.5.6-.6.2-.7 0-.8-.6a1095 1095 0 0 0-1.9-15.5 16 16 0 0 0-4.2-9c-2-2.1-3-5-3.4-8-.5-3.1-.6-6.3-1-9.4a436 436 0 0 0-2.1-14.3l-3.1-18.5c-1-6.2-2.2-12.4-3.1-18.6-.8-5.4-2-10.7-2.1-16.1 0-1.2-.7-2.3-1.2-3.4-1.3-3-3.4-5.4-6.3-7-6-3.4-12.3-6.3-18.6-9l-3.7-1.4c-.4-.2-.8-.2-1.2-.2-1-.6-2-1.2-3.2-1.2-1 0-2.1 0-3-.8Zm96 2.8c-.2-1.2-1.2-1.9-1.8-2.8-.5-.8-1.2-1-2-.7l-8.2 2.9c-5.4 1.9-10.7 3.9-16.3 5-3 .5-5.8 1.7-8.7 2.4-4.8 1-9.6 2.2-14.4 3.4-.9.2-2 .4-2.3 1.1a9 9 0 0 0-1 4.5l-.1 1.4c-.2 0-.2.1 0 .2 0 1.2.2 2.3.3 3.5l1.7 11.8c.6 4.8 1.3 9.5 2.1 14.2.6 3.7 1.4 7.3 1.7 11 .3 3.8.8 7.6 1.3 11.3l1.5 11.5c.4 4.6.8 9.3 1.8 13.8.7 3 1.5 6 3 8.8a18 18 0 0 0 10 8.3 9 9 0 0 0 4 .7c2.3-.2 4.5-.3 6.7-.7 6-1 12-1.6 17.7-3.4 5-1.5 10.2-2.7 15-4.8 5.4-2.3 9-6.1 10.6-11.9 2-6.8 1-13.6 0-20.5-.4-3-1.6-5.7-2.3-8.6l-3.7-13.6c-1.5-6.1-3.8-12-5.4-18.1-2-7.8-4.3-15.5-7.4-23-1.1-2.6-2-5.4-3.8-7.7Zm-50 6.3c.5.2.9.1 1.3 0 9.6-2.7 19.2-5.2 28.7-8.4 3.5-1.2 7-2.8 10.6-3.6l2-.3a9.6 9.6 0 0 0-4.7.4c-9.3 3-18.8 5.9-28.2 8.6-3.3.9-6.5 1.9-9.7 3.3Z" fill="#61A0FF"/>
  <path d="M99.2 57.8c.9.8 2 .8 3 .8 1.3 0 2.2.6 3.2 1.2 0 .3.4.3.6.4 7 3.6 14.2 6.6 21.2 10.1 3.8 2 6.2 5.2 7.8 9 .4 1.2.2 2.5.4 3.7l1.9 13.8 2.5 15.8.4 2c-.3.3-.2.6 0 .8 0 1.2 0 2.4.6 3.4 0 .4-.1.7.2 1 .5 1.8.7 3.6 1 5.4l3.1 19.5c.6 3.1.7 6.3 1.1 9.4.6 4 1 8 3.2 11.4.4.7 1 1.3 1.5 1.9 1.4 1.6 2.4 3.5 3.2 5.6 1.2 3.5 1.1 7.2 1.5 10.8.3 2.3.4 4.6.5 7h-.2c-3-.4-6-1.3-8.8-2.6-9.2-4-17.9-8.7-26.4-13.8-.5-.3-.7-.6-.7-1.1 0-4.2-.7-8.4-1-12.6-.2-3.5-.7-7-.8-10.6-.2-3.8-.6-7.5-.9-11.3l-.7-10.2-1-12.4-.4-7.2c-.2-5.5-.6-11.1-1-16.6-.3-5-.6-9.9-.4-14.8 0-1.2-.4-1.9-1.5-2.5-3.1-1.8-6.4-3.4-9.6-5.1a142 142 0 0 0-4.6-2.4c-1.4-.7-2.9.2-3.3 1.7A68.4 68.4 0 0 0 92.4 87c-.4 6.6-.6 13.3-.3 20 .3 8.5.1 17 .4 25.6l.8 22.2.1 2.3c-1.3-.7-2.4-1.4-2.8-2.9-.4-1.7-.8-3.4-.8-5.3 0-4.6-.6-9.2-1.1-13.8l-1.4-11.4a117.5 117.5 0 0 1 .5-29 139.4 139.4 0 0 1 7.5-31c.8-2.3 2.4-4 3.9-5.8Zm20 57.1v1.8l1 17.4c.2 5.7.7 11.4 1 17.1 0 .4 0 .6.4.8l1.4 1.1c4.8 3.5 10 6.3 15.1 9.3l3.8 1.9c1.2.4 1.9-.2 1.7-1.4-.4-3.5-1.4-6.9-2-10.3-.7-5.1-1.8-10.2-2.6-15.2-1-6-2-12-2.5-18.1-.5-5.9-1.4-11.7-2-17.5-.8-5.7-1.7-11.4-3.3-17-.2-.6-.5-1.2-1-1.5l-4.3-2.4c-2.3-1.2-4.5-2.7-7-3.6-1-.3-1 .1-1 .8v4.6c0 4.8.7 9.5.7 14.3 0 3.2.3 6.4.4 9.5 0 2.8.3 5.6.2 8.4Z" fill="#0173D8"/>
  <path d="m119.2 173.5-6.7-4-7.2-4.3c-.6-.4-.8-.8-.7-1.4 0-6.4-.1-12.7-.5-19-.5-9.9-.6-19.8-.4-29.7l.7-33.9.2-5.4c0-.8-.2-1.2-1-1.3l-.4 5.5-.4 14.7c-.4 12.3 0 24.6 0 37 .2 10.4.9 20.8.8 31.2v1.2c-1.4-1-2.7-1.7-4-2.7-1.5-1.2-3.1-2.1-4.7-3.3-.3-.2-.5-.4-.5-.8 0-6.7-.6-13.3-.8-20-.4-9.3-.4-18.6-.5-28-.2-8.3.3-16.5.9-24.8.2-2.5.2-5 .6-7.5l1.5-7.3c.2-1.1.6-1.3 1.8-1 .9.2 1.7.5 2.6 1 3.9 2.3 7.8 4.6 11.8 6.7.7.3.8.8.7 1.4-.4 4.4-.1 8.8 0 13.2l.8 13.2.6 11.8 1 12.2c.2 3.3.3 6.7.6 10 .4 5 .8 10 1.4 15l.8 10.2c.2 3.3.5 6.6 1 10ZM95 96.8l.5 2.9a72.2 72.2 0 0 0 4.8 14c.2.3.4.6.7.6.3 0 .3-.5.4-.8.3-1.2.1-2.5-.1-3.7-.9-4.6-2.6-9-3.1-13.7-.1-.9-1-1.6-1.9-1.5-.8 0-1.3.7-1.3 2.2Zm18.4 15.9c.1-1.6-.4-3.1-.7-4.7-.8-3.6-1.8-7.2-2.1-10.9l-.2-2c-.1-.7-.5-1.2-1.4-1-.7 0-1 .5-1 1.2.5 1.5.4 3.1.6 4.7.4 3.7 1.1 7.4 2 11.1.4 1.3.8 2.6 1.6 3.7.2.2.3.5.6.5s.3-.4.4-.6c.3-.7.2-1.3.2-2Zm-7.2-2 .1.5c.7 1.5 1.2 3 1.8 4.6.3.7.8 1.4 1.6 1.7.7.4 1.1.1 1.4-.4.3-.5.4-1 .3-1.6-.6-2-1.5-4-2.6-5.7-.4-.6-1-1-1.6-.7-.6.2-1 .6-1 1.7Zm-6.8 4c0-1.5-1-2.6-1.5-3.7-.3-.6-1-.8-1.5-.6-.6.3-.9.8-.8 1.5.2 1.4.8 2.7 2 3.6.4.3.7.7 1.2.3.5-.3.7-.7.6-1Zm8.6 11.6v-1.1c0-.6-.2-1.2-.8-1.4-.6-.2-1.1 0-1.6.4-1 .7-1 2.8-.1 3.7.5.4 1 .8 1.8.5.8-.2.7-1 .7-1.5v-.6Zm-9.2-2 .1.8c.3 1 1 1.5 2 1.3.7-.1 1.1-.8 1-1.8 0-.4 0-.9-.2-1.3-.4-1.3-1.5-1.5-2.4-.5a2 2 0 0 0-.5 1.4Z" fill="#DEEAFE"/>
  <path d="M93.6 56a71.7 71.7 0 0 0-4.3 10c-1.1 3.2-1.8 6.5-2.6 9.8-.6 2.8-1.1 5.6-1.4 8.5l-.4 6c-.2 2.6-.2 5.4-.5 8-.3 2.6-.4 5.2-.5 7.8-.4 7.2-.4 14.4 0 21.6.1 3.8.7 7.4 1.2 11.1.6 4.9 1.3 9.7 2.8 14.6-8.1-5-16-10-24.1-14.7 1-.4 1.8-.3 2.7-.5 1.4-.3 1.8-.7 1.9-2.2 0-.4 0-.7.6-.6.4 0 .6-.2.8-.5 1.3-2 2-4.3 1.1-6.7-.1-.4 0-.6.4-.6l.4-.2c.8-1.2 1.5-.6 2.2 0a22 22 0 0 0 3 1.8c.4.2.6 0 .8-.4l.1-1.5c-.1-5.4-.1-10.8.2-16.2.2-3.8.6-7.6 1-11.4l.6-10.3c.5-6.7.9-13.4 2.4-20l.2-.7c.4-.6.2-1.2-.5-1.5-1.9-1-3.5-2.4-5.4-3.4-.3-.2-.3-.5-.5-.7-1.5-2.3-2.7-4.7-4.4-6.9l-1.8-2c-.6-.6-.3-.7.3-.9 2.4-.6 4.6-1.6 6.9-2.5.6-.2.8-.5.8-1.1-.2-1.8.5-2.2 2.1-1.5l.7.4c.1.2.3.2.4.2 0 .3.3.4.5.5 1.3 1 2.8 1.5 4.3 2 2 .8 3.8 2.2 5.9 2.8a3 3 0 0 1 2.1 2Z" fill="#0173D8"/>
  <path d="M115.6 47c.6-.6 1.5-.6 2.2-1l1-.2c1.3-.4 2.6-.3 3.9.5l-7.4 2.5c-5 1.6-9.9 3.8-14.5 6.3-1.6.8-2.7 2.4-3.7 3.9a100 100 0 0 0-9.7 30 157.8 157.8 0 0 0-1.5 20.4c0 5.2 0 10.3.5 15.5.5 3.7 1 7.4 1.3 11.1l.7 7.7c.3 3.2.1 6.5 1 9.6l.6 2.2v.1c-.8-.3-1-1-1.2-1.6-1-4.2-1.7-8.4-2.2-12.7-.4-3-.7-5.9-1.3-8.8-.2-1-.2-2.1-.3-3.2-.3-8.6-.4-17.2 0-25.9 0-2.5.3-5.2.5-7.7l.3-4.4c0-10.7 2.6-20.8 6.8-30.5.5-1.1.8-2.3 1.7-3.2.8 1.2 2 1.4 2.8.2 1.1-2 2.9-3.3 5-4.3 5.2-2.2 10.3-4.5 15.7-6.1.2 0 .2-.2.2-.3l-2.4-.2Z" fill="#354660"/>
  <path d="M116.6 24.1c7.8 2.5 15.5 5 23.2 7.9.6.2 1 .4 1 1.2l1.3 5c.1.5.3 1-.4 1-3.2.4-6.3 1-9.4 1.8h-.5c0-.2-.1-.4-.3-.5-2.5-2.4-5.3-4.4-7.5-7.1-1.7-2.2-3.8-4-5.3-6.2-.7-1-1.6-1.9-2.1-3.1Z" fill="#61A0FF"/>
  <path d="M73.8 115c-1 .3-1.4-.6-1.7-1.2l-1.6-3.7c-.6-1 .6-1.3.8-2.3l.6 2c.1.2.2.9.6.7.4 0 0-.6 0-1l-.6-2.3c-.2-.6 0-1.2.3-1.5a2 2 0 0 1 2-.2c.3.1.8.7.2 1.2l-.6.6c-.1.3-.2.5 0 .8.3.2.6 0 .8-.1 1.1-1 1.2-2 .2-3.3-.7-.9-1.2-1.8-1.6-2.7-.4-.7 0-1.5.4-2.1.7-1.5.8-1.5 2.4-1l-.7 1.7c-.2.5-.1.8.3 1 .3 1 .4 2 1.4 2.8 0-1.1-.7-1.8-.8-2.6.4 0 .7-.2.8-.6l.4-2.7c0-.4-.2-.7-.6-.7v-.6c.3-.1.5-.4.4-.7l-.5-3.5c-.2-.7-.7-1.2-1.6-1.2l-1-1.6c-.7-.7-.7-1.5-.7-2.4 0-.3.1-.8.5-.6.7.4 1.2-.2 1.7-.4-.6 1.2-1.1 2.3-.4 3.7 0 .2 0 .5.4.6.3 0 .5-.2.6-.5.5-.7 1-1.3 1.3-2 .4-.8 0-1.4-.5-1.9-.6-.5-1-.3-1.4.1-.2-.5.2-.7.5-.9.7-.5.7-1.1 0-1.6-.5-.3-1.1-.4-1.1-1.2 0-1 .1-2 .7-3 .4-.5 1.2-.3 1.5.4.1.4.1 1.2.6 1 .6-.2 0-.8 0-1.2l-.5-1.1-.5-1.1c.4-.2.7-.2 1 0 .8.2 1-.2.7-.7-1-1.5-.3-2.8.2-4.2.6-1-.5-.9-.9-1.2.5-1.4 1.3-2 2.6-2-.6-.7-1.4-.7-2-.9-.9-.2-1.4-.4-1.2-1.4.2-.8-.2-1.5-.4-2.5l4 2.9c.4.2.2.6.1 1-1.5 5.7-1.9 11.6-2.3 17.5-.5 7.2-1 14.4-1.3 21.6-.3 6.5-1 13-.6 19.7-1.6-.7-2.6-1.9-4.2-2.3 1.2-.6.5-1.6.8-2.4.6.2 1.3.3 1.1 1.3 0 .2 0 .4.3.4.2 0 .3-.2.3-.4.8-1.8.8-2.3-.9-3.4-1-.7-.7-1.7-1-2.5 0-.3 1.5-1 1.9-1l1.2.6c0-.7-.5-.8-1-1-.8-.3-1.2-1-1.4-1.8.7 0 1.2-.5 1.9-.6.1 0 .3 0 .3-.3 0-.2-.3-.2-.5-.2l-1.7.7Z" fill="#D2E2F9"/>
  <path d="m114.8 41.8 4.6 2.6-7.6 2.2-.3-.2-10.2-1.2-10.2-1c-1-.2-2 0-3-.5.3-1 .4-2-.2-3-.2-.3 0-.5.3-.6l1.7-.7a10 10 0 0 0 3.1-1.8c0 .4.3.4.6.4l3 .8c4.9 1.4 9.8 2.1 14.8 2.8 1.1.1 2.2.5 3.4.2Z" fill="#0173D8"/>
  <path d="M88.1 43.7c1 .6 2 .3 3 .5l10.2 1 10.2 1.2.3.2c-4.8 1.3-9.5 3-13.8 5.5-.7.4-1.5.7-2.2 1.2.1-.8-.6-1-1-1l-6.1-1.7c-.6-.1-1-.7-1.7-.2l-.4-.2c0-.1-.1-.2-.3-.1-1.8-.7-3.5-1.8-5.5-2.3 1.2-1 2.5-1.5 3.8-2 1.3-.5 2.6-.9 3.5-2Z" fill="#61A0FF"/>
  <path d="M116.6 24.1c.5 1.2 1.4 2 2.1 3.1 1.5 2.3 3.6 4 5.3 6.2 2.2 2.7 5 4.7 7.5 7.1.2.1.3.3.3.5-1 .5-2.3.6-3.4 1l-.6-.1-6.8-3.7c0-.2-.2-.2-.4-.2l-.2-.2c0-.4-.3-.6-.6-.8l-6-5.4c-1-.9-2-1.9-3.3-2.4.3-.8 1.1-1 1.6-1.6l1.1-1c.8-.6.8-1.4.3-2.1l-1.5-2 4.6 1.6Z" fill="#0173D8"/>
  <path d="M145.6 45.8c.9-.5 1.2-1.2 1-2.3-1.6-6.3-2.6-12.7-3.8-19l-1.6-8.5c.7.2 1 .8 1.4 1.2.7.6 1.2 1.4 2 1.8l1.8 10.4c.9 5 1.3 10 2.7 14.8.2.9 0 2-.1 3l-.3.3c-1.5.7-3 1.6-4.7 2.1.1-1 1-1.5 1.3-2.4.1-.5.6-.9.3-1.4Z" fill="#6C88AF"/>
  <path d="M114.8 41.8c-1.2.3-2.3 0-3.4-.2-5-.7-10-1.4-14.7-2.8l-3.1-.8c-.3 0-.6 0-.6-.4.5-.4 1.1-.8 1.6-1.4.4-.5 1.2-.3 1.7-.1 2 .4 4-.4 5.9-.8.3 0 .7-.2 1 0l11.6 6.5Z" fill="#61A0FF"/>
  <path d="M115 36.4c1.6.6 3 1.3 4.5 2.2 4.5 2.8 9.4 5 14 7.8l3.8 2c.6.4 1.2.3 1.7.1l2.2-.7c0 .4-.2.7-.4 1.1-.3.9-1 1.5-1.3 2.4l-1 .4c-.5.3-1.2.7-1.8.7-.8 0-.6-1-1-1.6-.7-1.2-1.9-1.9-3-2.7-2-1.6-4.2-2.7-6.5-3.8l-9.6-4.9c-.3-1.1-1.3-1.8-1.6-3Z" fill="#6C88AF"/>
  <path d="M100.4 16.9c-2.1 1-4.4 1.4-6.6 1.9-2.2.5-4.3 1.2-6.4 1.8-.8.3-1.1.8-1 1.7l.3.6c.3.8.2 1.3-.8 1.6-1.3.3-2.6.7-3.9 1.5 0-1.8-.5-3.5 0-5.2 0-.4.1-.7.6-.8 2.8-.5 5.2-2 7.9-3l3.8-1.1c1 .3 2 0 3 .1 1 .2 2.2 0 3.1.9ZM129.9 8.8l-9.2 2.3-12.6 3.6-2 .5c-.3-.3-.8-.3-1.3-.4-.8-.2-1.6-.3-2-1.1 2.9-1 6-1.5 8.9-2.3 4.5-1.4 9.1-2.3 13.7-3.5h.5c.6.2 1.4 0 2 .1.7.2 1.6-.1 2 .8Z" fill="#354660"/>
  <path d="M115.6 47h2.4c0 .2 0 .3-.2.4-5.4 1.6-10.5 3.9-15.7 6.1a10 10 0 0 0-5 4.3c-.7 1.2-2 1-2.8-.2.8-2 1.9-3.7 4-4.8a68.7 68.7 0 0 1 16-5.7l1.3-.2Z" fill="#6C88AF"/>
  <path d="M135.5 51.8c-2-.6-3.6-1.7-5.3-2.8l-5-3c-8-4-15.8-8.7-23.7-13-4.3-2.5-8.3-5.3-12.5-8-.2-.1-.5-.3-.4-.6.3-.4.6 0 .8.1 3.6 2.3 7.1 4.7 10.8 6.8 5 2.9 10 5.8 15.1 8.5 3.3 1.8 6.7 3.2 9.9 5.2 2.8 1.7 5.9 3.2 8.7 5 .8.4 1.2 1.1 1.6 1.8Z" fill="#354660"/>
  <path d="M58 135.2h1.3c1.1-.1 2.2-.5 2.7-1.7.2-.5.4-.3.7-.3 1.8.3 2.2 0 2.9-1.5.4-.9.8-1.8 1.6-2.4.4-.3.7-.6 1.2-.6.7.1 1.6-.2 2 .7.6 1 .2 2.9-.6 3.5l-.6.5c-.2 1.1-1.5.5-1.9 1.3 0 .2-.3-.2-.4-.3-.4-.5-.9-.7-1.5-.7-.3 0-.6 0-.6.4 0 .3.3.4.5.4.6.2 1 .6 1.5 1 .3.1.5.4.3.9a5.7 5.7 0 0 0-2.8-1.7c-.6-.2-1.2.2-1.8.1-.4 0-.3.3-.1.5.2.3.6.5 1 .4 1.3-.1 2.2.7 3 1.3-3.2 1.6-5.8.3-8.4-1.5v-.3Z" fill="#E5C490"/>
  <path d="M145.4 44c-.6.1-.9-.2-1-.7-1.3-4.9-2.5-9.7-3.4-14.7l-2-11.3-1.5-8.5c-.1-.6.2-.5.6-.6.5-.2.5.1.5.5l3.3 18.2c1 5.8 2 11.5 3.5 17.2ZM133.4 6c2.8-1 5.7-1.4 8.6-2 .8-.1 1.7-.1 2.5-.6.6-.3 1-.1 1.5.3 1 1 1.8 2 2.2 3.3.3.8 1.1 1.7.8 2.3-.4.7-1.6.7-2.4 1-.5.2-.8.3-.9-.4 0-.9-.3-1.7-.5-2.6-.3-.9-1-1.3-2-1.3-1.6 0-3.1.8-4.7 1h-1c-.5-.2-1-.1-1.6-.2-.9-.1-1.8 0-2.5-.9ZM87.2 15.1h.2c.3.3.7 0 1 0 1.1-.1 2.2-.3 3.2.3l-6 2.2L82 19c-1 .3-1.4 1.2-1.5 2.1a21 21 0 0 0-.2 4c0 .5 0 .7-.7.5-1.7-.5-1.6-.5-1.4-2.4l.5-3.7c.2-1.3.8-2.1 2.1-2.5l6-1.8c.1.3.2.2.3 0ZM120 7.5c-1.7.8-3.5 1-5.3 1.5l-10.5 3c-1.3.4-2.7.3-4 .8-.5-.4-1.1-.1-1.7-.2-.3 0-.8.2-1-.3 1.6-1 3.4-1.6 5.2-2 3-.6 6-1.6 9-2.3 1-.3 1.8-.6 2.8-.6 1 .3 1.9 0 2.8 0 1-.2 1.9-.5 2.8.1ZM124 4.9a17 17 0 0 1 4.7-1.5c2.8-.5 5.5-1.3 8.2-1.9h1c2 .7 3.8.9 6 1.2-5.3 1-10.4 1.4-15.3 2.9-.4-.3-.9 0-1.3 0-1.1-.1-2.3 0-3.3-.7Z" fill="#354660"/>
  <path d="m96.8 26.1 4.5 2.3 7.5 4.5c0 .4.3.6.4.9.3.7.9 1.2.8 2l-8.5-4.7a52.6 52.6 0 0 1-6.2-4c.4-.5 1-.6 1.5-1Z" fill="#6C88AF"/>
  <path d="M134 58c-.1.3-.3.4-.6.4l-.4-.2c-3.1-1-3.2-1-3.2-4.3a3 3 0 0 0-1.4-2.8c-2-1.4-4-3-6.5-3.3 1.3-.7 2.5-.7 3.8.1 1.8 1.1 3.8 1.8 5.5 3l.8.5c1.8 1.7 1.6 1 .8 3.1-.3.7-.9 1.5-.7 2.2.2.8 1.3.8 1.9 1.3Z" fill="#0173D8"/>
  <path d="M110.6 29.2c1.2.5 2.2 1.5 3.2 2.4l6 5.4c.3.2.7.4.6.8-1.3-.4-2.5-1-3.6-1.7l-8.5-4.6c1.6-.1 2.3-.9 2.3-2.3Z" fill="#61A0FF"/>
  <path d="M96.8 26.1c-.4.4-1 .5-1.5 1-1.7-.8-3.1-2-4.7-2.8l-1.8-1c-.4-.2-.7-.4-.5-1 .2-.4.3-.7.9-.7.5 0 1.1-.1 1.7.3 1.7 1.3 3.5 2.4 5.3 3.6.2.2.6.3.6.6Z" fill="#354660"/>
  <path d="M102.8 13.7c.4.8 1.2 1 2 1.1.5.1 1 .1 1.4.4-2 .5-3.8 1.3-5.8 1.7-.9-.8-2-.7-3-.9-1-.1-2.1.2-3.1-.1l8.5-2.2Z" fill="#6C88AF"/>
  <path d="m140.4 12-.8-3.6c-.1-.4 0-.6.4-.7h.1c1.6-.5 2.6.1 3 1.8.1 1.2.4 2.4.4 3.6-1-.4-2-.9-3.1-1Z" fill="#354660"/>
  <path d="m135.8 43.7 6.6-1.7c.3 0 .7-.3.8.3 0 .5.6 1-.2 1.5-1.7.7-3.2 1.5-5 2 0-.6-.6-.6-.9-.9-.4-.4-1-.6-1.3-1.2Z" fill="#61A0FF"/>
  <path d="M110 35.9c0-.9-.5-1.4-.8-2.1-.1-.3-.4-.5-.4-.9l6.2 3.5c.3 1.2 1.3 1.9 1.6 3-2.3-1-4.5-2.1-6.6-3.5Z" fill="#98B3D9"/>
  <path d="M124 4.9c1 .8 2.2.6 3.3.6.4 0 .9-.2 1.3 0-2.3.6-4.5 1.4-6.9 1.8l-1.6.2c-1-.6-1.9-.3-2.8-.2-1 0-1.9.3-2.8.1l7.2-2c.8-.2 1.5-.5 2.3-.5Z" fill="#6C88AF"/>
  <path d="M140.4 12c1 .2 2.1.7 3.1 1 .5 2 .8 4 1 6-.7-.4-1.2-1.2-1.9-1.8-.4-.4-.7-1-1.4-1.2l-.8-4Z" fill="#98B3D9"/>
  <path d="M133.4 6c.7.7 1.6.7 2.5.8.5 0 1 0 1.6.2-2.5.7-5 1.2-7.7 1.8-.3-.9-1.2-.6-1.8-.8-.7-.1-1.5.1-2.1-.1 2.5-.7 5-1.6 7.5-2ZM97.4 12.3c.3.5.8.3 1.1.3.6 0 1.2-.2 1.7.2L92 15.4h-.5c-1-.6-2-.4-3.2-.3-.3 0-.7.3-1 0l8-2.4c.7-.2 1.3-.4 2-.4Z" fill="#6C88AF"/>
  <path d="M93.6 56a3 3 0 0 0-2.1-1.9c-2.1-.6-3.8-2-5.9-2.8-1.5-.5-3-1-4.3-2-.2-.1-.5-.2-.5-.5 2.5.8 5 1.7 7.3 3l1.5.4c.4.3.8.4 1.2.4.1.3.4.3.6.2 0 .2.2.2.4.2l.6.3c.7.6 1.7.6 2.4 1.1l-1.2 1.7Z" fill="#61A0FF"/>
  <path d="M94.8 54.4c-.7-.5-1.7-.5-2.4-1.1-.1-.3-.4-.3-.6-.3 0-.2-.2-.2-.4-.2-.1-.3-.4-.2-.6-.2-.2-.5-.8-.6-1.2-.8-.9-.4-1.8-.8-2.6-1.4.6-.5 1.1 0 1.7.2l6 1.6c.5.2 1.2.3 1.1 1-.3.5-.6.9-1 1.2Z" fill="#0173D8"/>
  <path d="M75.1 91.8c.9 0 1.4.5 1.6 1.2l.5 3.5c0 .3 0 .6-.4.7a3.3 3.3 0 0 0-2.2-1.6c-.9-.2-1-.8-1-1.4-.1-.7.3-.9.8-1.1.5-.3.8-.7.7-1.3Z" fill="#D2E2F9"/>
  <path d="m133.4 41.8 8.3-1.5c.3 0 .7-.2.8.1 0 .4-.3.6-.6.7-1 .4-2.1.6-3.2.8-.3-.1-.5 0-.6.2h-.3c-.3-.2-.6 0-1 0-.7.4-1.6.3-2.4.3-.4 0-.9 0-1-.6Z" fill="#6C88AF"/>
  <path d="M133.4 41.8c.1.6.6.6 1 .6.8 0 1.7 0 2.5-.2.3-.2.6-.3.9 0-.3.4-.7.3-1.1.4-1 .3-2 .5-3 1-1.5.7-2.7.2-3.9-.8 1.2-.5 2.4-.6 3.6-1Z" fill="#354660"/>
  <path d="M145.6 45.8c.3.5-.2 1-.3 1.4-.3.9-1.2 1.4-1.3 2.4-.8.5-1.7.8-2.6 1l.8-1.3c.4-.8 1.2-1.5 1.4-2.5.5-.6 1.2-.8 2-1Z" fill="#98B3D9"/>
  <path d="m153.4 37.8-4 .3c-.3 0-.4-.2-.4-.5l-.4-2.3c1.7.8 3.5 1 4.8 2.5Z" fill="#61A0FF"/>
  <path d="M135.8 43.7c.2.6 1 .8 1.3 1.2.3.3.9.3 1 .9-2.1 1.3-3.4-.3-5.3-1.2l3-1Z" fill="#0173D8"/>
  <path d="M143.6 46.8c-.2 1-1 1.7-1.4 2.5l-.8 1.3c-.6.4-1.2.6-2 .7.4-1 1.1-1.5 1.5-2.4.1-.4.4-.7.3-1.1l.2-.2c.7-.3 1.4-.8 2.2-.8Z" fill="#354660"/>
  <path d="m142.2 54.2-5.8 2.1c.1-1 .6-1.4 1.5-1.6l3.9-.9c.2 0 .3.2.4.4Z" fill="#6C88AF"/>
  <path d="M144.7 45c-2.3.7-4.3 1.7-6.4 2.2-.3 0-.6.3-.7 0-.2-.3.2-.4.4-.5 1.7-.7 3.5-1.1 5.2-2 .5-.2.8.1 1.5.3Z" fill="#354660"/>
  <path d="M78.4 73c-.4.3-.5.8-.7 1.2-.1.3 0 .9-.6.7-.5-.1-1.2-.3-1.6-.9V74c0-.4 1.9-1.5 2.3-1.5 0 .3.6.1.6.6Z" fill="#D2E2F9"/>
  <path d="m135.8 54.8-1 1.8c-.3.5-.6.7-1.2.3-.5-.3-.6-.6-.2-1l.2-.3c.3-.4.1-1.2.7-1.3.4 0 1 .3 1.5.5Z" fill="#354660"/>
  <path d="m143.8 51 3.7-2 .2.1c-.7 1.8-2.3 2.4-4 2.9v-1Z" fill="#6C88AF"/>
  <path d="M76.8 97.8c.4 0 .6.3.6.7l-.5 2.7c0 .4-.3.6-.7.6l-.2-.2c-.1-.3-.3-.5-.1-.9.5-.9.9-1.9 1-2.9Z" fill="#D2E2F9"/>
  <path d="M156 38.9c-2.1.1-4.2.4-6.2.7-.2 0-.4 0-.5-.2 0-.3.3-.3.5-.3l4.3-.5c.6 0 1.2-.4 2 .3Z" fill="#6C88AF"/>
  <path d="M76.1 98.1c-1.5 0-2-1-2.6-2.3 2 .6 2.8 1.2 2.6 2.3ZM75.3 74.7c.6.3 1.3.4 1.6.7.4.5.6 1.2.7 1.8 0 .2-.8.3-1.1 0l-1.2-2.5Z" fill="#D2E2F9"/>
  <path d="M143.8 51v1c-.9.4-1.8 1-2.8 1v-.8c.9-.5 1.8-1 2.8-1.1ZM142.2 54.2c0-.2-.2-.3-.4-.4.6-.6 1.5-.7 2.2-1 .3-.2.8-.3.9.1 0 .3 0 .8-.6.9-.7.1-1.3.5-2 .4Z" fill="#98B3D9"/>
  <path d="M74.7 75c.8 1.4 1.4 2.9 2 4.4-.4 0-.9.3-.8-.4 0-1.2-.5-2-1.3-2.8-.4-.4-.5-.7.1-1.1ZM74 72.2c.8-.3 1.6-.2 2.4-.6.2 0 .5.1.3.4-.4.5-.9 1.1-1.5 1.2-.5 0-1-.5-1.2-1Z" fill="#D2E2F9"/>
  <path d="M141 52.2v.8c-.7.5-1.6.5-2.4.8V53l2.4-.8Z" fill="#354660"/>
  <path d="M138.6 53v.8l-1.5.6c0-.8.4-1.3 1.5-1.4Z" fill="#6C88AF"/>
  <path d="m78.7 69.7-1 1.5c-.2.1-.3.3-.5.2-.2-.1 0-.3 0-.5l.2-.6c-.2-1.4.6-.7 1.3-.6ZM71.6 92.7v-2.2c1.5 1.2 1.5 1.3 0 2.2Z" fill="#D2E2F9"/>
  <path d="M144.1 7c.4 1 .7 2.2.6 3.4h-.2l-.7-3.5h.3ZM76 101.6l.2.2c.1.8.9 1.5.8 2.6-1-.9-1-1.9-1.4-2.8h.4Z" fill="#354660"/>
  <path d="M73.8 104.6c-.6 0-1.2.4-1.3 0-.2-.5.1-1.1.3-1.9l1 2ZM75 123c-1.2-.5-1.7-1-1.6-1.7.6.5 1.2.8 1.5 1.7Z" fill="#D2E2F9"/>
  <path d="m73.8 115 1.7-.7c.2 0 .4 0 .5.2 0 .2-.2.3-.3.3-.7 0-1.2.6-1.9.6v-.4Z" fill="#354660"/>
  <path d="m111.8 26-.1-1.8c1 .5 1.1 1.1.1 1.9Z" fill="#D2E2F9"/>
  <path d="M140.8 118.8c-.6-1-.6-2.2-.6-3.3.4 1 .5 2.2.6 3.3Z" fill="#61A0FF"/>
  <path d="M78.4 73c0-.5-.5-.3-.6-.6V72c.4.3 1.5.2.8 1.3l-.2-.3ZM135.4 53.6h-.2c-.3-.2-.7-.3-.7-.7l.2-.2c.3.2.8.3.7 1ZM89.6 51.8c.4.3 1 .3 1.2.8a2 2 0 0 1-1.2-.4v-.4ZM104 28.6l.1.4c-.2.1-.5 0-.5-.2s.2-.2.3-.2Z" fill="#354660"/>
  <path d="M135.4 53.6c.2 0 .4 0 .5.2v.1c-.3 0-.4 0-.5-.3ZM138.1 42.1c.1-.2.3-.3.6-.2-.1.2-.3.3-.6.2Z" fill="#354660"/>
  <path d="M140.2 115.4c-.2-.2-.3-.5 0-.8v.8ZM141 119.8c-.3-.3-.1-.6-.2-1 .3.3.2.7.2 1Z" fill="#61A0FF"/>
  <path d="m70.8 122.5.2.3v.1l-.5-.2.3-.2Z" fill="#fff"/>
  <path d="M103 28.4c0-.1-.2-.2 0-.3 0 0 .2.2 0 .3Z" fill="#354660"/>
  <path d="M73.2 90.6c.2 0 .3.2.2.3-.2.2-.2-.1-.3-.2l.2-.1Z" fill="#fff"/>
  <path d="M87.2 15.1c0 .3-.2.4-.4.1h.4Z" fill="#6C88AF"/>
  <path d="m106.1 30.3-.4-.2.3-.2.3.3-.2.1Z" fill="#fff"/>
  <path d="m148 48.8-.3.3-.2-.1c.2-.2.3-.3.5-.2Z" fill="#6C88AF"/>
  <path d="M120.6 38c.2 0 .4 0 .4.2l-.4-.2ZM80.8 48.8c-.1 0-.3 0-.4-.2.2 0 .4 0 .4.2Z" fill="#61A0FF"/>
  <path d="m141.4 47.6-.2.2c0-.1 0-.2.2-.2ZM148 48.8v-.1h.1l-.1.1Z" fill="#6C88AF"/>
  <path d="m120.4 37.8.2.2c-.1 0-.2 0-.2-.2Z" fill="#61A0FF"/>
  <path d="M106.3 30.2s.1 0 0 .2h-.2l.2-.2ZM63.3 129.1c.2.3 0 .3-.2.3l.2-.3Z" fill="#fff"/>
  <path d="M90 155.5c.1.1.2.2 0 .2v-.2Z" fill="#354660"/>
  <path d="M86.3 50c.2 0 .3 0 .3.2l-.3-.1Z" fill="#0173D8"/>
  <path d="M73 90.7v-.3c.2-.1.2 0 .3.2l-.2.1ZM71 122.8l.2.1c-.1.2-.2 0-.3 0l.1-.1Z" fill="#fff"/>
  <path d="m156 190.7.1.2h-.2l.2-.2Z" fill="#0173D8"/>
  <path d="M73 68.1c.2-.6-.4-1.4.5-1.7.4 0 .9.6.8 1 0 .6-.8.4-1.3.8ZM64.1 72.1c-.3.6-.3 1.2-.3 1.9l-.1.4c-.2 0-.4-.1-.5-.3-.2-.7.1-1.6 1-2ZM64.2 100v1.5c-.5-.3-.5-.8 0-1.5Z" fill="#D2E2F9"/>
  <path d="M67.6 47.3c.3-.5.1-1.4 1-1.7h.6c0 .2 0 .4-.2.5-.3.4-.4 1-.6 1.5 0 .2-.3.4-.6.3-.3 0-.1-.3-.2-.6Z" fill="#0173D8"/>
  <path d="M63.5 116v.3c0 .3 0 .8-.4.8-.3 0-.3-.5-.3-.8v-.2c0-.4-.1-1 .3-1 .6 0 .3.6.4.8Z" fill="#D2E2F9"/>
  <path d="M58.1 132.5c-.2.5-.4 1-.9.9-.3 0-.6 0-.5-.4.1-.4.4-.8 1-.7.1 0 .3 0 .4.2Z" fill="#98B3D9"/>
  <path d="M90.1 32.3c0-.6.3-1.1 1-1.3.4 0 .5.4.4.7 0 .5 0 1.3-.9 1.4-.5 0-.5-.3-.5-.8Z" fill="#61A0FF"/>
  <path d="m140.4 77.8.2-1.4c.6-1 1.5-1.3 2.5-1.6 10.7-3 21.3-6.7 32.2-9.4 5.4-1.3 10.4-3.6 15.9-4.9 1.3-.3 2.7-.7 4 .1 1.8 2.3 2.7 5.1 3.8 7.8 3 7.4 5.4 15 7.4 22.9 1.6 6 3.9 12 5.4 18l3.7 13.7c.7 2.9 2 5.7 2.4 8.6 1 6.9 1.8 13.7 0 20.5a17.5 17.5 0 0 1-10.6 12c-5 2-10 3.2-15 4.7-5.9 1.8-11.9 2.4-17.8 3.4-2.2.4-4.4.5-6.6.7a9 9 0 0 1-4.1-.7 18 18 0 0 1-10-8.3 34 34 0 0 1-3-8.8 115 115 0 0 1-1.8-13.8l-1.5-11.5c-.5-3.7-1-7.5-1.3-11.4-.3-3.6-1-7.2-1.7-10.9-.8-4.7-1.5-9.4-2-14.2l-1.8-11.8-.3-3.5v-.2Zm16.2 88-.1-.1v.1l1.4 1.4c.3.4.8.7 1.2 1 2.1 1.6 4.3 3 7 3.3 2.5.3 5 .2 7.5 0 3-.2 6-1 8.9-1.5 5.4-1 10.8-2.5 16.1-3.9 1.2-.2 2.3-.6 3.4-1 2.2-.7 4.3-1.7 6.3-2.8 4.1-2.3 7-5.5 8.1-10a6 6 0 0 0 .5-2.1c-1 .2-1.9.5-2.6 1.1l-3 2.3c-3.2 2-6.7 3.4-9.4 6.1-.5.4-.8.2-1 0-.5-.6-.8-.4-1.3-.2-1.9.6-3.8 1.2-5.7 2-.4.1-1 0-1.4.5-2 .3-3.9.8-5.7 1.4-1 0-2-.2-2.2 1.2 0 .4-.5.4-.8.2-1.2-.6-2.4-.3-3.6 0-3.5.6-7 1.3-10.5 1.6-1.4.1-3-.1-4 1.3l-1 1c-.5.2-.7.2-.9-.3l-.2-.7c-.1-.5 0-1.2-1-1.1-2 .2-4-.2-6-.9ZM193.3 69c-1-.3-2.1.1-3.2.4-11 3.2-22.2 5.6-33.2 8.8-2.6.7-5.3.9-7.8 2-2 .5-3.8 1.4-4.7 3.6-1.7 4-.7 7.9 3.2 9.9.8.4 1.6.6 2.4.4 5-1.3 10.1-2.3 15.2-3.4 5.5-1.2 11-2.5 16.4-4 5-1.4 10-3 14.9-4.7 2.3-.7 3.7-3.7 3.2-6.3-.4-2.1-1.8-3.6-3.2-5.1-.8-.9-1.8-1.7-3.2-1.6Zm-30.2 96.5a14 14 0 0 1 .2-5c1-4.8 4.3-7.3 8.4-9a7 7 0 0 1 4.2-.1 12 12 0 0 1 8.9 10.5c0 .6.1.7.6.5l4.1-1.1c1.1-.2 1.5-.9 1.5-1.9 0-2-.2-4-.6-6l-2.3-13.9c-1-5.2-1.8-10.5-2.7-15.8-.8-4.7-1.4-9.5-2.3-14.2L182 104c0-.2-.2-.5.1-.6.3-.1.4.2.5.4.7 3.3 1.6 6.5 2.2 9.8l2.7 15.8 2.5 14.1c.8 5 1.4 10 2.4 15 .2 1 1 1.6 2 1.3 1.7-.5 3.5-1.2 5.1-2 .5-.2.6-.4.4-.8-.5-1.2-.5-2.6-.7-3.8a10.8 10.8 0 0 1 7.8-11.7c3.3-1 6.4-.8 9 1.8.4.3.7.7 1 1.2.2-.6.4-1 .4-1.4 0-3.9-.1-7.7-.7-11.5-.6-3.6-1.8-7.1-2.8-10.7-3.3-12.5-7-25-10.8-37.5-.5-1.9-1.2-3.7-1.8-5.6h-.2l-.1.5c-.6 2-1.6 3.8-3.6 4.5-4.2 1.4-8.3 3-12.5 4.3-8.5 2.5-17.2 4.1-25.7 6.2a138 138 0 0 1-8.6 1.8c-1.9.3-3.8.2-5.3-1.4l-2-2.2c0 .7 0 1.2.2 1.7l2 14c1 5.7 1.7 11.5 2.6 17.3l2.3 18.6a124 124 0 0 0 2.7 16.2 7.9 7.9 0 0 0 5 5.9c1.7.6 3.3.2 5 .3ZM199 71.4c-.9-3.2-2-6-4-8.7-1.2-1.7-1.2-1.6-3.2-1.2-4.6 1-9.1 2.6-13.6 4-5.8 2-11.7 3.3-17.5 5.1-5.8 1.8-11.4 3.8-17.4 5-1.2.3-1.7 1-1.6 2.3 0 1.3.3 2.6.4 3.8l.5 3.6c.3-.2.3-.4.4-.5a6.7 6.7 0 0 1 4.7-5l2-.8c3.3-1.1 6.8-1.8 10.1-2.7 10.4-3 20.9-5.5 31.4-8 2.7-.7 5.1-.3 6.9 2.2l.9.9Zm-15.3 90.8c-.3-3.8-2.4-6.5-5.4-8.4a7.4 7.4 0 0 0-8-.2 12.6 12.6 0 0 0-5.5 6.2 9 9 0 0 0-.5 6.5c.1.5.3.7.9.4 1.4-.8 2.7-1.6 4.2-2.2a20 20 0 0 1 13.8-1.2c.4.1.5 0 .5-.4v-.7Zm17.6-3.3 3.4-2.6c3.5-3 7.4-5.2 11.5-7.1.3-.2.5-.2.5-.6-.1-2-1-4.5-3-5.6-3.1-1.5-8-.4-10.2 2.2-2 2.3-3 5-3 8.1 0 1.9.1 3.7.8 5.6Zm-21.4 5c-3.2-.3-6 .4-8.6 1.3 2.8-.5 5.6-.6 8.6-1.4Z" fill="#07080A"/>
  <path d="M195.2 60.6c-1.3-.8-2.7-.4-4 0-5.5 1.2-10.5 3.5-16 4.8-10.8 2.7-21.4 6.3-32.1 9.4-1 .3-2 .7-2.5 1.6-.1-1.6.2-3 .9-4.5.4-.7 1.4-.9 2.3-1 4.8-1.3 9.6-2.4 14.4-3.5 3-.7 5.7-1.9 8.7-2.5 5.6-1 11-3 16.3-5l8.1-2.8c1-.3 1.6 0 2.1.7.6 1 1.6 1.6 1.8 2.8Z" fill="#0173D8"/>
  <path d="M145.2 67c3.2-1.5 6.4-2.5 9.7-3.4 9.4-2.7 18.9-5.5 28.2-8.6 1.6-.5 3.1-.7 4.8-.4-.7 0-1.4.2-2 .3-3.7.8-7.2 2.4-10.7 3.6-9.5 3.2-19.1 5.7-28.7 8.4-.4.1-.8.2-1.3 0Z" fill="#07080A"/>
  <path d="M140.4 77.8v.2c-.2 0-.2-.1 0-.2Z" fill="#0173D8"/>
  <path d="M119.2 115c.1-2.9-.2-5.7-.2-8.5-.1-3.1-.4-6.3-.4-9.5 0-4.8-.7-9.5-.7-14.3V78c0-.7 0-1.1 1-.8 2.5 1 4.7 2.4 7 3.6l4.2 2.4c.6.3 1 .9 1.1 1.6 1.7 5.5 2.5 11.2 3.2 16.9.7 5.8 1.6 11.6 2.1 17.5.6 6 1.6 12 2.5 18l2.7 15.3c.5 3.5 1.5 6.8 2 10.3 0 1.2-.6 1.8-1.8 1.4a26 26 0 0 1-3.8-1.9c-5-3-10.3-5.8-15-9.3l-1.5-1c-.4-.3-.4-.5-.4-.9-.3-5.7-.8-11.4-1-17.1l-1-17.4V115Zm23.3 48.4v-.3c-.1-2-1-4-1.3-6l-3-17.7c-1-5.2-1.5-10.5-2.2-15.8l-1.5-12.4-1.7-13.4c-.5-4.3-1.3-8.5-2.6-12.7 0-.4-.2-.6-.5-.8-3-1.5-6-3.4-8.8-5.2-.5-.4-1-.7-1.7-.7v1.4c0 5.5.2 11 .5 16.5.4 8 .6 16 .7 23.9.1 3.5.5 7 .7 10.4l.6 8.4.5 10.5c0 1.6.6 2.6 2 3.4 5.9 3.3 11.6 6.8 17.4 10.2.3.1.5.3.9.2Z" fill="#07080A"/>
  <path d="M95 96.8c0-1.5.5-2.1 1.3-2.2.8 0 1.8.6 1.9 1.5.5 4.7 2.2 9.1 3.1 13.7.2 1.2.4 2.5 0 3.7 0 .3 0 .7-.3.8-.3 0-.5-.3-.7-.5-.7-.9-1-2-1.4-3a72.3 72.3 0 0 1-3.4-11.1l-.5-3ZM113.4 112.7c0 .7.1 1.3-.2 2 0 .2 0 .5-.4.6-.3 0-.4-.3-.6-.5-.8-1-1.2-2.4-1.6-3.7-.9-3.7-1.6-7.4-2-11.1-.2-1.6 0-3.2-.5-4.7-.2-.7.2-1.2 1-1.3.8-.1 1.2.4 1.3 1.1l.2 2c.3 3.7 1.3 7.3 2.1 11 .3 1.5.8 3 .7 4.6ZM106.2 110.8c0-1 .4-1.5 1-1.7.6-.2 1.2.1 1.6.7 1 1.8 2 3.7 2.5 5.7.2.6 0 1.1-.2 1.6-.3.5-.7.8-1.4.4-.8-.3-1.3-1-1.6-1.7-.6-1.5-1-3.1-1.8-4.6v-.5ZM99.4 114.8c.1.3-.1.7-.6 1-.5.4-.8 0-1.2-.3a5.4 5.4 0 0 1-2-3.6c-.1-.7.2-1.2.8-1.5.6-.2 1.2 0 1.5.6.6 1.1 1.5 2.2 1.5 3.8Z" fill="#D2E2F9"/>
  <path d="M108 126.3v.6c0 .6 0 1.3-.7 1.5-.7.3-1.3 0-1.8-.5-1-1-.9-3 0-3.7.6-.4 1-.6 1.7-.4.6.2.8.8.8 1.4v1Zm-.8 0v-.9c0-.3 0-.7-.4-.8a1 1 0 0 0-1 .4c-.4.6-.5 1.2-.1 1.7.2.4.6 1 1.2.9.6-.2.2-.8.3-1.2v-.1ZM98.8 124.2c0-.5.1-1 .5-1.4.9-1 2-.8 2.4.5l.2 1.3c.1 1-.3 1.7-1 1.8-1 .2-1.7-.3-2-1.3l-.1-.9Zm2.4.5c-.3-.4 0-1.4-.9-1.5-.5-.1-.7.5-.7 1 0 .6 0 1.3.9 1.5.6 0 .7-.4.7-1ZM106 22.6c0 1.5-.2 1.8-1 1.8-1 0-1.5-.5-1.5-1.6 0-1.3.5-2 1.3-2 .9 0 1.2.5 1.2 1.8Zm-.7 0c-.2-.4.2-1-.3-1-.7 0-.5.8-.6 1.3 0 .3-.2.7.4.7.8 0 .3-.7.5-1ZM75.6 86.8c.4-.4.8-.6 1.4 0 .5.4 1 1 .5 1.7-.4.8-.8 1.5-1.3 2.1-.1.3-.3.5-.6.5-.4 0-.3-.4-.4-.6-.7-1.4-.2-2.5.4-3.7Zm.4 3c0-1 1.7-1.4.5-2.7 0 1-1.3 1.3-.5 2.6Z" fill="#07080A"/>
  <path d="M91.8 53c.2 0 .5 0 .6.3l-.6-.3ZM90.8 52.6c.2 0 .5 0 .6.2-.2 0-.5 0-.6-.2ZM91.4 52.8c.2 0 .3 0 .4.2-.2 0-.3 0-.4-.2Z" fill="#354660"/>
  <path d="M163.1 165.6c-1.7-.1-3.3.3-5-.3-2.7-1-4.3-3-5-5.9a124 124 0 0 1-2.7-16.2l-2.3-18.6-2.5-17.3-2.1-14-.2-1.7c.7 1 1.4 1.5 2 2.2 1.5 1.6 3.4 1.7 5.3 1.4 2.9-.6 5.8-1.1 8.6-1.8 8.5-2 17.2-3.7 25.7-6.2 4.2-1.2 8.3-3 12.4-4.3 2.1-.7 3-2.5 3.7-4.5l.1-.4.2-.1c.6 1.9 1.3 3.7 1.8 5.6 3.7 12.5 7.5 25 10.8 37.5 1 3.6 2.1 7 2.8 10.7.6 3.8.7 7.6.7 11.5l-.3 1.4-1-1.2c-2.7-2.6-5.8-2.7-9.1-1.8a10.8 10.8 0 0 0-7.8 11.7c.2 1.2.2 2.6.7 3.8.2.4 0 .6-.4.8-1.7.8-3.4 1.5-5.2 2-.9.3-1.7-.2-2-1.2-1-5-1.5-10-2.3-15l-2.5-14.2-2.7-15.8c-.6-3.3-1.5-6.5-2.2-9.8 0-.2-.2-.5-.5-.4-.3 0-.1.4-.1.6l1 5.5c1 4.7 1.6 9.5 2.4 14.2l2.7 15.8 2.3 13.9c.4 2 .7 4 .6 6 0 1-.4 1.7-1.5 1.9l-4 1.1c-.6.2-.7 0-.7-.5a12 12 0 0 0-9-10.5 7 7 0 0 0-4 .1c-4.2 1.7-7.6 4.2-8.5 9a14 14 0 0 0-.2 5Zm13.9-29.1a4 4 0 0 0-.7-2.5l-1.7-2.3c-6-7.7-11.3-15.9-16.6-24-.3-.6-.7-1.3-1.2-1.8-1-1-2-.9-2.8.2-.6.7-.5 1.5-.1 2.3 1.7 3.2 3.8 6.3 5.8 9.4 3.7 5.8 7.7 11.5 12 17 1 1.1 2 2.3 3.5 2.7 1 .3 1.8-.3 1.8-1Zm25-28.8v-6.6c0-.4 0-.7-.2-1-.4-.9-1.1-1-1.6-.1l-.6 1.5c-1 4.5-1.3 9.1-1.8 13.7-.3 2.6-.2 5.3-.2 8 0 1 .2 2 .7 3 .3.5.4 1.2 1.2 1.2.7 0 1-.6 1.4-1.2.6-1.2.8-2.6.9-4 0-3.2 0-6.5.2-9.8v-4.7Zm-26.6 16.5v-.6c-.5-2.7-1.5-5.2-2.3-7.7a10 10 0 0 0-1.5-3.2c-.4-.5-1-.6-1.5-.5-.5.1-.5.6-.7 1-.3.6 0 1.2 0 1.8a30 30 0 0 0 3 9.8c.3.5.8 1 1.3 1.3 1 .5 1.7-.3 1.7-2Zm19-11.7c0-1-.2-2.1-.5-3.2-.1-.8-.7-1.3-1.4-1.5-.9-.2-1.5.3-1.9 1-.3.4-.5 1-.4 1.6.2 2.5.8 4.8 2.1 6.9.5.7.7.5 1 0 .7-1.6 1-3.2 1.1-4.8Z" fill="#DEEAFE"/>
  <path d="M149.1 80.3c2.5-1.1 5.2-1.3 7.8-2 11-3.2 22.2-5.6 33.2-8.8 1-.3 2.1-.7 3.2-.4.1.1.2.3.4.3 2.3 1.1 3.6 3 4.3 5.3.3 1.4.2 2.5-.5 3.7-1 1.5-2.5 2.2-4 2.8-3 1.1-6.2 2-9.2 2.9-3.4 1-6.8 2.3-10.2 3.1-7.4 1.8-14.7 3.3-22.1 4.8-2.6.5-5-1-5.7-3.4-.8-2.4 0-4.4 1.3-6.3.5-.7 1.2-1.2 1.5-2Zm41.1-2.7c-.2 0-.5 0-.7.2-4.3 1-8.5 2.5-12.8 3.7-5.8 1.7-11.7 3.1-17.7 4.1-1.8.3-3.6.5-5.2 1.2-.6.3-1.1.6-.9 1.4.2.8 1 .7 1.5.6l11.9-3c6.2-1.3 12.4-3 18.5-4.9 1.7-.5 3.5-.9 5.4-1 .8 0 1.5-.6 1.4-1.3-.1-.7-.6-1-1.4-1Zm-2-3.7-3.2 1c-6.8 2.4-13.7 4.5-20.7 6-3.4.7-6.7 1.3-10 2.3-.6.2-1.3.5-1 1.3.2.8.9.8 1.6.5l2.4-.8 12.4-3c5.5-1.2 10.9-3.1 16.4-4.3l2.4-.6c.6-.2 1.1-.6 1-1.3 0-.7-.5-1-1.3-1Zm6.4 1.5c.7 0 1.2-.6.9-1.4l-1-2.6c-.6-1.4-2-2-3.5-1.5-.7.2-1.3.5-1.2 1.4.2.7.7 1.2 1.5 1 .8 0 1.3.3 1.6 1l.6 1.4c.2.4.5.8 1 .7Zm-.6 2c0 .7.3 1.2 1 1.2.8 0 1.2-.5 1.2-1.2 0-.8-.5-1.1-1.1-1.1-.7 0-1 .4-1.1 1.1Z" fill="#6C88AF"/>
  <path d="m198.9 71.4-1-1c-1.7-2.4-4-2.8-6.8-2.1-10.5 2.5-21 5-31.4 8-3.3 1-6.8 1.6-10 2.7l-2.1.8c-2.5.7-4 2.5-4.7 5 0 .1-.1.3-.4.5l-.5-3.6-.4-3.8c0-1.3.4-2 1.6-2.2 6-1.3 11.6-3.3 17.4-5.1 5.8-1.8 11.7-3.1 17.5-5 4.5-1.5 9-3 13.6-4 2-.5 2-.6 3.2 1.1 2 2.6 3.1 5.5 4 8.7Z" fill="#DEEAFE"/>
  <path d="M183.6 162.2v.7c0 .4 0 .5-.5.4a20 20 0 0 0-13.8 1.2c-1.5.6-2.8 1.4-4.2 2.2-.6.3-.8.1-1-.4a9 9 0 0 1 .6-6.5c1.1-2.6 3-4.8 5.5-6.2a7.4 7.4 0 0 1 8 .2c3 2 5.1 4.6 5.4 8.4Zm-7.8-4c0-.6-.1-1.1-.3-1.7-.6-1.4-1.6-1.7-2.7-.5-.3.4-.8.8.2 1 .2.2.5.4.4.7-.1.2-.4.3-.6.3-1-.2-1 .4-1.1 1.1v1.6c.2.7.4 1.3 1.1 1.5.8.2 1.4-.1 1.9-.6a5 5 0 0 0 1-3.4Z" fill="#fff"/>
  <path d="M149.1 80.3c-.3.8-1 1.3-1.5 2-1.3 1.9-2 4-1.3 6.3.8 2.5 3 3.9 5.7 3.4 7.4-1.5 14.7-3 22-4.8 3.5-.8 6.9-2 10.3-3.1 3-1 6.2-1.8 9.2-3 1.5-.5 3-1.2 4-2.7.7-1.2.8-2.3.5-3.7-.7-2.4-2-4.2-4.3-5.3-.2 0-.3-.2-.4-.3 1.4-.1 2.4.7 3.2 1.6 1.4 1.5 2.8 3 3.2 5.1.5 2.6-1 5.6-3.3 6.3-4.9 1.6-9.8 3.3-14.8 4.7-5.4 1.5-10.9 2.8-16.4 4-5 1.1-10.2 2-15.2 3.4-.8.2-1.6 0-2.4-.4-4-2-4.9-6-3.2-9.9.9-2.2 2.6-3 4.7-3.6Z" fill="#354660"/>
  <path d="M201.2 159c-.7-2-.8-3.8-.8-5.7 0-3 1-5.8 3-8.1a9.5 9.5 0 0 1 10.1-2.2c2.2 1 3 3.5 3 5.6.1.4-.1.4-.4.6-4.1 1.9-8 4.2-11.5 7l-3.4 2.7Zm4.3-11.6h.6c.3 0 .6.1.6.5.1.4 0 .6-.5.7l-.8.2c-.3 0-.4.1-.4.3v3c.3.6.7 1.1 1.4 1.2.8 0 1.1-.5 1.4-1 .6-1.5.8-3 .8-4.5 0-1.3-.5-2.1-1.3-2.2-.7-.1-1.4.5-1.8 1.8Z" fill="#fff"/>
  <path d="M198.6 166.1c-5.3 1.4-10.7 3-16.1 3.9-3 .5-5.9 1.3-8.9 1.5-2.5.2-5 .3-7.5 0-2.7-.3-4.9-1.7-7-3.3-.4-.3-.9-.6-1.2-1 1.9.3 3.8.5 5.7.5l.2.7c.2.5.4.5.8.2l1.2-.8c1.3.1 2.7-.2 4-.2 3.1-.1 6.2-.5 9.2-1 2.5-.3 5-.8 7.4-1.2.6.9 1.5 1.3 2.6 1.2.8 0 1.5-.1 2.2-.3 1.9-.5 3.8-1 5.7-1.2.7 0 1.6-.1 1.7 1ZM216.4 152.2c-1.1 4.6-4 7.8-8.1 10-2 1.2-4.1 2.2-6.3 3 0-.9-.3-1.4-1-1.6-.8-.3-1.5-.5-2.3-.4l-5.6.9c-.9.1-1.7.7-2.7.3.1-.3.4-.3.7-.3 3.2-1 6.3-2.2 9.4-3.3 5.5-2 10.7-4.6 15.2-8.4.2-.2.4-.5.7-.2Z" fill="#6C88AF"/>
  <path d="M216.4 152.2c-.3-.3-.5 0-.7.2a49.5 49.5 0 0 1-15.2 8.4c-3.1 1.1-6.2 2.3-9.4 3.3-.3 0-.5 0-.7.3l-.6.1h-.1c.7-1.1 1.8-1.7 2.8-2.5.3-.6 1-.4 1.4-.6l5.7-2c.5-.1.8-.3 1.3.3.2.2.5.4 1 0 2.7-2.7 6.2-4 9.4-6.1l3-2.3c.7-.6 1.6-.9 2.6-1.1a6 6 0 0 1-.5 2Z" fill="#354660"/>
  <path d="m189.8 164.5.6-.1c1 .4 1.8-.2 2.8-.3l5.5-.9c.8-.1 1.5.1 2.2.4.8.2 1.2.7 1 1.5-1 .4-2.1.8-3.3 1-.1-1.1-1-1-1.7-1-2 .2-3.8.7-5.7 1.2-.7.2-1.4.2-2.2.3-1.1.1-2-.3-2.6-1.2 0-.7 0-1.4.4-2 1.8-.6 3.8-1 5.7-1.4-1 .8-2 1.4-2.8 2.4v.1Z" fill="#98B3D9"/>
  <path d="M186.8 163.4c-.4.6-.5 1.3-.4 2l-7.4 1.3c-3 .4-6 .8-9.2.9-1.3 0-2.7.3-4 .2 1-1.5 2.5-1.2 3.8-1.4 3.6-.3 7.1-1 10.6-1.7 1.2-.2 2.4-.5 3.6.1.3.2.7.2.8-.2.2-1.4 1.2-1.2 2.2-1.2ZM163.6 167.7c-1.9 0-3.8-.2-5.7-.5-.5-.4-1-.9-1.3-1.4 2 .6 4 1 6 .8 1-.1.9.6 1 1.1Z" fill="#354660"/>
  <path d="M179.8 163.8c-3 .8-5.8 1-8.6 1.4 2.7-1 5.4-1.6 8.6-1.4Z" fill="#D2E2F9"/>
  <path d="m156.6 165.8-.1-.1h.1v.1Z" fill="#354660"/>
  <path d="M142.5 163.4c-.4 0-.6-.2-.9-.3-5.8-3.4-11.5-6.9-17.3-10.2-1.5-.8-2-1.8-2.1-3.4l-.5-10.5-.6-8.4c-.2-3.4-.6-7-.7-10.4 0-8-.3-16-.7-23.9-.3-5.5-.5-11-.5-16.5v-1.4c.7 0 1.2.3 1.7.7 2.8 1.8 5.7 3.7 8.8 5.2.3.2.4.4.5.8 1.3 4.2 2 8.4 2.6 12.7l1.7 13.4 1.5 12.4c.7 5.3 1.2 10.6 2.1 15.8l3.1 17.8c.4 2 1.2 3.9 1.3 5.9v.3Zm-8.9-35.3c0-1.2-.3-2.4-.5-3.5-.8-3.7-2.1-7.2-3.4-10.7-1-3-2-6-3.3-9-.2-.6-.7-1-1.3-1-.6-.1-1 .2-1.3.6-.4.5-.2 1.1-.1 1.6 1.4 5.7 3.3 11.2 5.2 16.8.7 2 1.5 4 3 5.7.3.5.7 1.3 1.3 1 .6-.1.3-1 .4-1.5Zm-3 4.7c0-.5 0-1-.2-1.4-.9-2.3-2.3-4.5-3.4-6.7a8 8 0 0 0-1.3-2c-.6-.6-1.3-.8-2-.3s-.8 1.3-.4 2.2l2.5 4.7a11 11 0 0 0 3.4 4.2c.4.3.7.6 1.1.4.5-.2.3-.7.3-1Z" fill="#DEEAFE"/>
  <path d="M107.2 126.3c-.1.5.3 1.1-.3 1.3-.6.1-1-.5-1.2-.9-.4-.5-.3-1.1 0-1.7a1 1 0 0 1 1-.4c.4.1.5.5.5.8v.9ZM101.2 124.7c0 .6-.1 1-.7 1-.9-.2-.9-.9-.9-1.5 0-.5.2-1.1.8-1 .9 0 .5 1 .8 1.5Z" fill="#0173D8"/>
  <path d="M105.3 22.6c-.2.3.3 1-.5 1-.6 0-.4-.4-.4-.7 0-.5-.1-1.2.6-1.3.5 0 .1.6.3 1Z" fill="#61A0FF"/>
  <path d="M76 89.7c-.8-1.3.5-1.7.5-2.6 1.2 1.3-.4 1.6-.5 2.6ZM177 136.5c0 .7-.7 1.3-1.7 1-1.6-.4-2.7-1.6-3.6-2.8-4.3-5.4-8.3-11-12-17-2-3-4-6-5.8-9.3-.4-.8-.5-1.6 0-2.3 1-1 2-1.1 3-.2.5.5.8 1.2 1.1 1.8a329.8 329.8 0 0 0 18.3 26.3c.4.7.7 1.4.7 2.5ZM202 107.7v4.7c-.2 3.3-.2 6.6-.2 9.9 0 1.3-.3 2.7-1 4-.2.5-.6 1-1.3 1-.8.1-1-.6-1.2-1-.5-1-.7-2-.7-3.1 0-2.7 0-5.4.2-8 .4-4.6.8-9.2 1.8-13.7l.6-1.5c.5-.8 1.2-.8 1.6 0 .2.4.2.7.2 1.1v6.6ZM175.4 124.2c0 1.6-.7 2.4-1.7 2-.5-.4-1-.9-1.3-1.4a30 30 0 0 1-3-9.8c0-.6-.3-1.2 0-1.8.2-.4.2-.9.7-1 .6 0 1.1 0 1.5.5.8 1 1.1 2 1.5 3.2.8 2.5 1.8 5 2.3 7.7v.6ZM194.4 112.5c-.1 1.7-.4 3.2-1.1 4.7-.3.6-.5.8-1 .1a15.3 15.3 0 0 1-2.1-6.9c0-.6 0-1.2.4-1.7.4-.6 1-1 1.9-.9.7.2 1.3.7 1.4 1.5.3 1 .4 2.1.5 3.2Z" fill="#D2E2F9"/>
  <path d="M190.2 77.6c.8 0 1.3.3 1.4 1 0 .7-.6 1.4-1.4 1.4-1.9 0-3.7.4-5.4 1-6.1 1.8-12.3 3.5-18.5 4.8-4 1-8 1.9-11.9 3-.6.1-1.3.2-1.5-.6-.2-.8.3-1.1.9-1.4 1.6-.7 3.4-.9 5.2-1.2 6-1 11.9-2.4 17.7-4 4.3-1.3 8.5-2.8 12.8-3.8l.7-.2ZM188.2 74c.8 0 1.2.3 1.3 1 .1.7-.4 1.1-1 1.3l-2.4.6c-5.5 1.2-11 3-16.4 4.4a1741.2 1741.2 0 0 0-14.8 3.7c-.7.3-1.4.3-1.6-.5-.3-.8.4-1.1 1-1.3 3.3-1 6.6-1.6 10-2.3 7-1.5 13.9-3.6 20.7-6l3.2-1Z" fill="#354660"/>
  <path d="M194.6 75.4c-.6 0-.9-.3-1-.7l-.7-1.4c-.3-.7-.8-1-1.6-1-.8.2-1.3-.3-1.5-1-.1-.9.5-1.2 1.2-1.4 1.4-.6 2.9 0 3.5 1.5l1 2.6c.3.8-.2 1.4-1 1.4ZM194 77.4c0-.7.4-1.2 1-1.1.7 0 1.2.3 1.2 1 0 .8-.4 1.3-1.2 1.3-.7 0-1-.5-1-1.2Z" fill="#98B3D9"/>
  <path d="M175.8 158.2a5 5 0 0 1-1.1 3.4c-.5.5-1.1.8-1.9.6-.7-.2-1-.8-1-1.5 0-.5-.2-1-.1-1.6 0-.7.1-1.3 1-1.1.3 0 .6-.1.7-.3 0-.3-.2-.6-.4-.6-1-.3-.5-.7-.2-1.1 1-1.2 2.1-1 2.7.5.2.6.3 1.1.3 1.7ZM205.5 147.4c.5-1.3 1-2 1.8-1.8.8.1 1.3.9 1.3 2.2 0 1.5-.2 3-.8 4.4-.3.6-.6 1.2-1.4 1.1-.7 0-1.1-.6-1.3-1.3-.2-1-.2-1.9-.1-2.9 0-.2.1-.3.4-.3l.8-.2c.4 0 .6-.3.5-.7 0-.4-.3-.5-.6-.5h-.6Z" fill="#07080A"/>
  <path d="M189.8 164.5h-.1Z" fill="#6C88AF"/>
  <path d="M133.6 128.1c0 .5.2 1.4-.4 1.5-.6.2-1-.5-1.4-1a18.6 18.6 0 0 1-3-5.7c-1.8-5.6-3.7-11-5.1-16.8-.1-.5-.3-1 .1-1.6.3-.4.7-.8 1.3-.7.6.1 1 .5 1.3 1.2 1.2 3 2.3 5.9 3.3 8.9 1.3 3.5 2.6 7 3.4 10.7.2 1.1.5 2.3.5 3.5ZM130.6 132.8c0 .4.2.9-.3 1.1-.4.2-.7-.1-1-.4a11 11 0 0 1-3.5-4.2l-2.5-4.7c-.4-.9-.3-1.7.4-2.2.7-.5 1.4-.3 2 .4a8 8 0 0 1 1.3 1.9c1.1 2.2 2.5 4.4 3.4 6.7.2.5.3 1 .2 1.4Z" fill="#D2E2F9"/>
</svg>
