<svg fill="none" xmlns="http://www.w3.org/2000/svg" viewBox="0 0 300 200">
  <path d="M114.8 30.3c-3-4.3-6.4-8.2-10.4-11.5-.7-.6-1.4-1.4-2.2-1.8-.2-.2-.3-.3-.3-.5 0-.3.2-.4.5-.4.6-.2 1.1 0 1.7.3a15 15 0 0 1 3.2 2.6c3.1 3 6 6.4 8.6 10 .4.6.8.7 1.4.5 4-1.4 8.3-2.3 12.4-3.5 1.6-.5 3.1-.2 4.6.2 14.3 3.8 28.3 8.4 42.4 12.5 5 1.4 10 2.6 15 3.7 2.5.5 4.8 1.4 7 2.5 2.6 1.3 3.9 3.5 4.8 6v.8c0 3.6-.5 7.1-.8 10.7l-.7 11.3c-.3 4.8-.5 9.7-1.1 14.4-.1 1 0 1.9.2 2.8.2 1 .7 1.6 1.8 1.8 5 1.1 10 1.7 15.1 2.6l14 2.3c2.4.4 4.8.6 7.2.7 3.4 0 5.5 1.7 6.3 5l.1 1.2c-.6 5.5-1.4 11-2.5 16.4l-2.3 12.7-1.4 5.8c0 .5-.4.8-.8 1-3.8 1.8-7.7 3.8-11.7 5.4-1 .4-1.2 1.6-1.5 2.5-1.5 4-3.6 7.7-6.8 10.7-1.4 1.4-3.2 2.1-5 2.8a35 35 0 0 1-9.3 1.8c-3.6.4-6.7-1-9.6-2.8-1.2-.7-2-.8-3.3-.4l-21.6 8.5a28 28 0 0 1-5.9 1.5c-2.8.4-5.6 0-8-1.3-1.6-.8-2.6-.4-3.6.7a19.6 19.6 0 0 1-6 4.3 54 54 0 0 1-7.4 2.6c-4 1.1-8 2-12.2 2-3.5 0-6.6-1.3-9.4-3.5a25 25 0 0 1-8.7-15.3 55 55 0 0 1-1-7.3c-.2-2.5.2-5 .8-7.3.2-.6.3-1-.5-1-.4 0-.7-.2-1-.3-4.2-1.6-8-3.6-12-5.8-.4-.2-.7-.3-1.1.2-2.2 3-5 5.2-8.6 6.3-2.6.8-5.3 1.1-8 .8h-3c-1.2-.1-2.3-.5-3.3-1.2-3.7-2.3-5.5-5.9-6.9-9.7a32.4 32.4 0 0 1-1.9-15c.1-.4 0-.5-.5-.7-2.8-1-5.4-2.4-6.3-5.6-.3-1.2-.3-2.5-.3-3.7l.1-10.8v-5.4c-.2-3 1-5.2 3.7-6.6L69 81.3a8.5 8.5 0 0 0 4.6-6.5c1-5.8 1.6-11.5 3-17.2 1-3.8 2.1-7.5 3.4-11.2a8.5 8.5 0 0 1 4.2-4.6c3.4-2 7-3.3 10.7-4.7 6.3-2.4 13-4.2 19.3-6.6l.6-.2Zm-5.4 111.3.5-.8c1.8-3.9 4.7-6.8 8.5-8.9.8-.4 1.8-.7 2.5-1.3h.1l-1 .2c-2.3.7-4.3 2-6.2 3.4-2.6 1.8-3.5 4.6-4.5 7.4-.1 0-.2.2-.1.3l.2-.3Zm32.1 6.2a35 35 0 0 1-.8 20.6l-1.8 4.1c-1.2 1.2-2 2.7-3.5 3.8.5.2.8 0 1.1 0 2.5-.7 5-1.4 7.3-2.3 3-1 5.5-2.7 7.8-5 1-1 1-1.3-.4-1.8l-.9-.2c-1.5-1-3.1-1.4-4.7-2-1.8-.7-2.2-1.7-2.1-3.5a44 44 0 0 0-3.8-21.3c-2.3-4.5-6-7.4-10.7-9-3.2-1.1-6-.3-8.9 1.2 1.5-.3 3-.2 4.5-.1 2.4 0 4.7.6 6.7 1.8a24.2 24.2 0 0 1 10.2 13.7Zm-58.3-17-.2.7a23 23 0 0 1-2.3 10.1c-1 1-1.8 2.2-3.2 3.2 2 0 3.8-.3 5.5-.6 3.5-.6 6.6-1.9 8.7-4.9.2-.3.4-.5.4-.9.9-.8.8-1.1-.2-1.7l-1.8-1-5-2.7c-.7-.3-1.5-.6-1.3-1.5l.2-.7a26.7 26.7 0 0 0-7.8-23.2c-1.3-1.3-1.8-1.4-3.6-.8a19 19 0 0 1 7.3 8.7c2.4 4.9 3.5 10 3.3 15.3Zm125.2 31.3 2.4-.5c2.1-.7 4.4-1 6.2-2.5 2.5-2 4.5-4.5 5.8-7.5a24 24 0 0 0 1.6-3.6c0-.3.3-.6 0-.9-.2-.2-.5 0-.7.2-4.6 2-9 4.1-13.6 6-.6.1-.6.5-.7 1 0 2.1-.3 4.3-1.4 6.2-.4.7-1.1 1.1-1.5 2l2-.4Zm-145-43.5c-.7 2.6-.4 5.2-.3 7.7.1 3.4.9 6.7 2.3 9.8 1.3 2.8 3 5.3 5.5 7.1 1.5 1.1 3.3 1.9 5.1 1a8 8 0 0 0 4.6-5 29.6 29.6 0 0 0-4.8-28 8.9 8.9 0 0 0-4.7-3.7h-.8c-1.6.5-3 1.3-4 2.7a16.6 16.6 0 0 0-3 8.4Zm81.3 44.4c-.1.6.4.6.7.7 3.6 1.2 7 2.8 10.5 4.2 3.6 1.6 7.2 1.7 11 .7 3.7-1 7.3-2.6 11-4 10.7-4.3 21.7-8 32.4-12.6 9-3.8 18.1-7.7 26.9-12.3 1-.5 1.4-1.1 1.6-2.1l.4-2.5c1.5-6.8 2.8-13.7 4-20.7.5-3.6 1.3-7.3 1-11a4 4 0 0 0-3.5-3.7c-6-.6-12-1.6-18-2.6l-17-2.9c-1.5-.2-2.9-.3-4.2-.7-1.6-.5-2-.8-1.8-2.5 0-1.7.3-3.4.4-5.1.6-5.5.9-11 1.1-16.5.3-4.7.4-9.5 1-14.3.5-3.1-.2-5.8-2.5-8-2.2-2-4.9-3-7.7-3.6-7.2-1.6-14.2-3.4-21.2-5.5-11.2-3.3-22.3-6.8-33.6-10-2.8-.9-5.8-1.3-9-.3-3.2 1.1-6.7 1.8-10 2.6-1 .2-1 .5-.5 1.2l2.5 5c.1.4.3.8 0 1-.5.4-.7-.1-.8-.4l-3.5-5.2c-.3-.5-.6-.6-1.2-.4l-8.5 2.9c-6.9 2-13.5 4.6-20.1 7.5a10 10 0 0 0-5.6 6.2c-1.8 5-3 10.1-4.1 15.3-1 4.3-1.4 8.7-2 13a6 6 0 0 1-3.2 4.8L58.6 88c-1.6.8-2.2 2.1-2.4 3.7-.3 1.8-.2 3.7-.2 5.5v11.9c0 1-.3 2 .1 3 .3 3.2 2.6 4.5 5 6v-.5c0-3.5 1.4-6.6 3.6-9.2a9 9 0 0 1 8.6-3.5c2 .3 3.3 1.6 4.6 3 6 6.4 7.9 14.1 7.2 22.6v.4c-.2.5 0 .8.4 1.1 1 .8 2.2 1.2 3.3 1.8 5.8 3.2 11.8 6.2 17.9 9 .8.3 1 .3 1.3-.6 1.6-6.6 7.7-13.3 16.5-12.8 4.8.3 9 2 12.4 5.2 3.3 3 5 7 6.2 11.2 1.1 4.3 1.7 8.7 1.5 13.3-.1 1.2-.5 2.5-.1 3.7 0 .1 0 .3.2.2ZM127 177.7c1 .2 1.7 0 2.5 0 2.2-.2 4-1 5.6-2.6 2.6-2.4 4.2-5.4 5.2-8.7 1.3-4 1.6-8.1 1-12.4-.6-5.4-2-10.5-5.6-14.8-2-2.2-4-4.3-7-5l-5.5-.9c-1.7-.1-3.4 0-4.9.7a15 15 0 0 0-7.8 8 30.3 30.3 0 0 0-2 10.5c0 2 .5 4 .9 6a24.8 24.8 0 0 0 7.8 15.3c2.9 2.4 6 4.4 9.8 4Zm81.3-23.6-.7.1-12.3 4.9c-.2 0-.7 0-.7.5 0 .3.5.4.7.6 2 1 3.9 1.7 6 2.2 2 .5 5-1 6-2.7.8-1.8 1-3.6 1-5.6ZM62.2 118c1-6 3.5-10.7 10-12.2l-.2-.2h-.3c-2.1.2-4.1.8-5.6 2.5-.9 1-1.7 2-2.4 3.2-1.2 2-1.8 4.3-1.5 6.7Z" fill="#0A080B"/>
  <path d="M56.1 112.1c-.4-1-.1-2-.1-3V97.2c0-1.8-.1-3.7.2-5.5.2-1.6.8-2.9 2.4-3.7l12.6-6.8c2-1 2.9-2.7 3.2-4.8.6-4.3 1-8.7 2-13 1-5.2 2.3-10.3 4.1-15.3 1-3 2.8-5 5.6-6.2a166 166 0 0 1 20.1-7.5c2.9-.9 5.7-2 8.5-3 .6-.1.9 0 1.2.5l3.5 5.2c.1.3.3.8.8.5.3-.3.1-.7 0-1l-2.5-5.1c-.4-.7-.4-1 .5-1.2 3.3-.8 6.8-1.5 10-2.6 3.2-1 6.2-.6 9 .3 11.3 3.2 22.4 6.7 33.6 10 7 2.1 14 4 21.2 5.5a16 16 0 0 1 7.7 3.6c2.3 2.2 3 4.9 2.6 8-.7 4.8-.8 9.6-1 14.3-.3 5.5-.6 11-1.2 16.5l-.4 5.1c-.1 1.7.2 2 1.8 2.5 1.3.4 2.7.5 4.1.7l17.1 3c6 1 12 2 18 2.5a4 4 0 0 1 3.6 3.7c.2 3.7-.5 7.4-1.2 11a547 547 0 0 1-4.3 23.2c-.2 1-.7 1.6-1.6 2.1a382 382 0 0 1-27 12.3c-10.6 4.5-21.6 8.3-32.4 12.6-3.6 1.4-7.2 3-11 4-3.7 1-7.3.9-11-.7-3.4-1.5-6.8-3-10.4-4.2-.3 0-.8 0-.7-.7l1 .3c2.7 1.3 5.6 2.1 8.5 3.3 1.4.6 2.3-.1 2.3-1.7l-.1-2V154c-.4-4.3-.5-8.6-.7-13-.1-3-.8-6-2.5-8.8-.1-.2-.3-.4-.3-.7l.5.2c2.1 1.7 2.8 4.2 2.9 6.7l.8 21.3.2 2.9c0 .2 0 .6.4.6.3 0 .6-.2.6-.6v-.6c-.2-5.1-.2-10.2-.5-15.4-.1-3.6 0-7.2-.4-10.8-.1-1-.3-1.7-1-2.4l-3.5-3.8c-3-3.2-6.3-6-9.2-9.3l-1-1.2c-.2-.2-.4-.4-.7-.1-.2.1-.2.4 0 .6l.8 1.1 5 5.4c-.6.2-.9-.3-1.2-.6-2.7-2.4-5.3-4.8-8-7a6.5 6.5 0 0 1-2.5-3.8l-2.3-13c-.4-2.7-1-5.5-1.3-8.2a178.6 178.6 0 0 1-1.4-13.3c-.2-2.1-.2-4.3-1-6.4-.6-1.5-1.4-2.9-2.7-4-.2-.2-.5-.3-.5-.6h.7a63.8 63.8 0 0 1-6-3.7c-1-.7-2-1.2-3-1.7-7-3.5-14.1-6.7-21-10.5-3.2-1.9-6.6-3.7-9.9-5.5-.5-.3-1-.6-1.5-.6-.1.5.3.7.6.9l3 2.1c.4.3 1 .3 1 .8-.5 0-1-.2-1.4-.4-1.3-.6-2.4-1.6-3.6-2.3-2.5-1.4-3.5-1.3-4.4 1.5-1.5 4.2-2.7 8.5-3.6 12.9-.6 2.6-1.4 5.3-1.6 8-.2 2.8-.6 5.7-1.8 8.3-.6 1.2-1 2.5-2.2 3.2-3.8 2.3-7.5 4.7-11.4 6.7-1.7.9-3 2.3-3.1 4.1-.4 2.6-.5 5.2-.5 7.8L57 110c0 .8 0 1.7-.9 2.1Zm154.5 28.3c1.2-.2 2.2-.7 3.1-1.3.6-.3.9-.9.9-1.5s.3-.8.8-1c1-.3 1.7-.7 2.3-1.5.4-.7.5-1.4 0-2-.3-.4-.6-1.2-1.5-.8h-.4c-.7-.6-1.5 0-2.2.2-5.3 1.4-10.4 3.5-15.6 5.3-.2 0-.5 0-.5.4-1.8.4-3.6.8-5.4 1.8h1.6v1c0 1 .5 2 1.6 2.1a6 6 0 0 1 3.2 1c.6.5 1.3.4 2 .1 1.2-.4 2.5-.5 3.6-1.3a237.4 237.4 0 0 1 1.2-.4l.3-.1.3-.1 4.5-1.7.2-.1Zm-14.3-81.7v-4c0-.5-.1-.9-.9-1-2.2-.4-4.5 0-6.7.3-5 .9-9.8 2.5-14.8 3.4-5 1-10 2.6-14.8 4.3-4.7 1.5-9.4 2.7-14 4.6a88 88 0 0 0-9.3 4.6c-.8.4-1.2 1-1.3 2-.3 2.2-.3 4.3 0 6.5l2 16.5c.7 5.3 1.3 10.7 3 15.9.6 1.4.7 1.6 2.2 1.4.4 0 .7 0 1-.2 8.3-2.7 16.7-5.3 25-8.1 8-2.8 16.1-5.8 23.9-9.6.8-.4 1.7-.8 2-2 .6-3.8.7-7.8 1-11.7l.7-8.8c.5-4.7 1-9.4 1-14.1ZM99.7 53a4.5 4.5 0 0 1-.5-3.4 34 34 0 0 1 6.8-14c-1.5.2-2.9.5-4.3 1-3.3 1-6.4 2.7-9.8 3.9-1.7.6-3.3 1.4-5 2.3-.7.3-1.3.9-1 1.8.2 1 .6 2 1.7 2.6 3.5 1.6 6.9 3.4 10 5.5.6.3 1.3.6 2.1.3Zm77.8 91.6c3 .1 4.7-1.6 6-4.1 1.8-4 2.3-8.2 2-12.5 0-.9 0-1.5.9-1.8.3 0 .6-.4.5-.8-.1-.3-.4-.4-.7-.3-1.2 0-2.3-.4-3.4-.5a44.5 44.5 0 0 1-15.2-5.9c-.5-.3-1-.7-1.5-.4-.5.3-.5 1-.4 1.6l1.1 9.8c0 .5 0 .7-.6.8l-1.9.8c-.3.1-.5.3-.4.6.1.3.4.3.7.3h.6c.6-.2 1.4-1 1.9-.6s.6 1.3.8 2l.3.8c1 3.3 2.8 6 5.1 8.5a5.8 5.8 0 0 0 4.2 1.7Zm40.1-29.7v1c0 2.4 0 4.8.8 7 .5 1.3 1 2.4 1.8 3.4 2 2 4.4 2.2 6.6.4 1.6-1.3 2.8-3 3.6-4.9 1.7-4 2.6-8.4 3-12.8 0-1 .2-1.4 1.3-1.3.4.1.9 0 1-.5.2-.3 0-.7-.2-.9-.3-.4-.7 0-1 .1-.8.4-1 .2-1-.6a11 11 0 0 0-.5-4.7c-.3-.7-.7-1.4-1.4-1.6-.8-.1-1 .6-1.4 1-.3.5-.6 1-1 1.3-3 3.7-6.6 6.8-9.8 10.3a10.9 10.9 0 0 1-4.1 2.8l-2.4 1c-.3 0-.7.2-.5.7.2.4.5.6 1 .4l1.8-1 2.4-1Zm-86.4-47c.7.4 1.1 0 1.6-.1a187 187 0 0 1 25.4-9c7.8-2.1 15.8-3.7 23.6-5.9l4.8-1.3c.2 0 .6 0 .5-.5 0-.4-.4-.5-.7-.5l-.5.1c-2.6.4-5 1.3-7.5 2-6.2 1.7-12.5 3.1-18.8 4.6a173 173 0 0 0-21 6.7c-2.6 1-5 2.3-7.4 4ZM187 99.8c2.5.4 24-2.2 25.2-2.6l-4.7-1.3c-2.5-.7-5-1.5-7.6-1.6-.8 0-1.6 0-2.3.4l-3.5 1.6c-2.4 1-4.7 2-7 3.5ZM159.2 110c-1.1-.3-2 0-2.7.2-4.9 1.4-9.5 3.7-14.4 4.9-.8.1-.8.6 0 1.2 1 1 2.2 1.8 3.3 2.7.4.4.8 1.2 1.3 1.3.5 0 .7-.9 1.2-1.3a60 60 0 0 1 11.3-9Zm31 14.7 1.2-.4 3-1.2c3.9-1.4 7.6-3.2 11.5-4.4.4-.1 1-.1.8-.7-.2-.6-.7-.3-1.1-.2-5.3 1.7-10.4 4.1-15.7 5.7-.4 0-.7.2-.6.7 0 .4.4.5 1 .5Z" fill="#61A0FF"/>
  <path d="M56.1 112.1c.9-.4.8-1.3.9-2l.2-9.2c0-2.6.1-5.2.5-7.8.2-1.8 1.4-3.2 3-4 4-2.1 7.7-4.5 11.5-6.8 1.2-.7 1.6-2 2.1-3.2 1.3-2.6 1.7-5.5 2-8.3.1-2.8 1-5.4 1.5-8 .9-4.4 2.1-8.7 3.6-13 1-2.7 2-2.8 4.4-1.4 1.2.7 2.3 1.7 3.6 2.3.5.2.9.4 1.4.4.1.3.3.2.6.2 0 .2.2.2.4.2 0 .2.2.2.4.2l.3.2 9 4.8c.1.2.3.2.5.2 0 .2.2.2.4.2h.2l.2.2h.1l.3.2h.1l.3.2h.1l.3.2c0 .2.2.2.4.2 0 .2.2.2.4.2 0 .2.2.2.4.2 0 .2.2.2.4.2 0 .2.2.2.4.2 0 .2.2.2.4.2 0 .2.2.2.4.2 0 .3.1.4.4.5 4.4 2.2 8.6 4.7 13 6.9 1.1.6 2.2 1.4 3.7 1.4 0 .1.1.2.2 0l2.4 1c.1.2.3.2.5.2-.1.3.2.4.4.6 1.3 1.1 2 2.5 2.7 4 .8 2.1.8 4.3 1 6.4a254.7 254.7 0 0 1 1.4 13.2l1.3 8.4 2.3 13a6.5 6.5 0 0 0 2.5 3.6l8 7.1c.3.3.6.8 1.2.6 0 .2.2.3.3.4 0 .2 0 .4.2.4l.2.2.2.2a58.9 58.9 0 0 1 4.2 4.2c0 .3.2.5.3.7 1.7 2.7 2.4 5.7 2.5 8.9l.6 12.9c.2 3 .2 5.8.1 8.8l.1 2c0 1.6-1 2.3-2.3 1.7-2.8-1.2-5.8-2-8.6-3.3l-1-.3h.1l-.2-.2c-.4-1.2 0-2.5 0-3.7.3-4.6-.3-9-1.4-13.3a23 23 0 0 0-6.2-11.2 19 19 0 0 0-12.4-5.2c-8.8-.5-15 6.2-16.5 12.8-.3 1-.5.9-1.3.5-6.1-2.7-12-5.7-18-9l-3.2-1.6c-.4-.4-.6-.7-.5-1.2l.1-.4c.7-8.5-1.2-16.2-7.2-22.6-1.3-1.4-2.6-2.7-4.6-3a9 9 0 0 0-8.6 3.5 14.4 14.4 0 0 0-3.5 9.2l-.1.5c-2.4-1.5-4.7-2.8-5-6Zm44.5-25.7c0 2.4-.1 5.7.4 9 .1.8 0 1.8.8 2.4.8.7 1.6 1.3 2.5 1.8 4.6 2.4 8.9 5.1 13.3 7.6 3.9 2.2 7.7 4.5 12 6 1 .3 1.2.1 1.1-.9 0-.5-.3-.9-.4-1.3-1-5.5-1.5-11-2-16.4-.3-3.7-.6-7.3-.7-11 0-2.7-.7-5.4-.3-8.1.2-1-.2-1.5-1-2l-3-1.6c-6-3.1-12.2-5.5-18-9-1.1-.8-2-.4-2.5 1-.8 2.3-1.3 4.7-1.6 7.1-.6 4.8-.7 9.7-.6 15.4Zm-23.3-4.1c0 .2 0 .8.5 1.1 1.3.9 2.5 1.8 3.8 2.5L98 95.2c.8.4 1 .3 1-.6l-.1-4c-.4-7.4-.2-14.9.2-22.3a20 20 0 0 1 1.1-6.5c.2-.4 0-.8-.3-1.1l-1.2-.8a103 103 0 0 1-7.5-4.5 47 47 0 0 0-6-3.4c-1.4-.6-2-.4-2.7 1-1.2 2.2-1.8 4.6-2.4 7a95.3 95.3 0 0 0-2.7 22.3Zm23.4 53.4c.5-1 .6-1 .4-2-1-5.2-1.5-10.4-1.5-15.7 0-5.5 0-11 .5-16.5 0-.3.2-.7-.3-.7-.3 0-.6.1-.7.5l-.1.5-.4 7.7c-.1 7-.1 14 1 20.8.3 1.8.4 3.6 1 5.4ZM76 99.4c0 .7-.2 1.6 0 2.4.3 1 1 1.4 1.9 1.5.3.1.6 0 .7-.3.2-.3 0-.6-.3-.7-.6-.3-.8-.8-.8-1.4 0-1.3-.2-2.5-.4-3.7 0-.2 0-.7-.3-.7-.4 0-.7.3-.7.8l-.1 2Zm28.4 18c.4 0 .8 0 1-.5.1-.5-.3-.6-.7-.7-.8-.3-1.1-1-1.3-1.7l-.2-2.7c0-.3 0-.8-.3-.8-.5 0-.6.4-.6.8v3.3c.1 1.3 1 2.3 2 2.3Z" fill="#0173D8"/>
  <path d="M127 177.7c-3.9.5-7-1.5-9.8-4-4.7-4-6.7-9.3-7.8-15.1-.4-2-1-4-.8-6.1.2-3.6.5-7.2 2-10.4a15 15 0 0 1 7.7-8.1c1.5-.7 3.2-.8 4.9-.7 1.8.2 3.6.6 5.5 1 3 .6 5 2.7 7 4.9a27 27 0 0 1 5.7 14.8c.5 4.3.2 8.4-1 12.4-1.1 3.3-2.7 6.3-5.3 8.7a8.5 8.5 0 0 1-5.6 2.5c-.8 0-1.5.3-2.5.1Zm-3.4-42.5-.7.2c-2 .3-3.8 1.1-5.4 2.3a17.6 17.6 0 0 0-6 6.1c-.3.5-.4 1-.3 1.6 0 .7.8 1 1.4.6.3-.2.6-.5.8-1 1.4-3 4-4.6 7-6 1.3-.6 2.7-.4 3.8.8.5.5 1.1.6 1.6.3.7-.3 1.4-.9 1.3-1.7-.2-2-1.4-3.1-3.5-3.2Zm5.3 22.3c.2-.9-.1-1.7-.2-2.5-.2-2.1-.7-4.2-2-6-.7-1-1.5-1.9-2.8-2-2.1-.1-3.5.9-4.1 3.1-.7 2.3-.8 4.6-.4 6.8.4 2.1 1 4.1 2.6 5.7a3.8 3.8 0 0 0 5.2 0c1.6-1.4 1.5-3.3 1.7-5.1ZM75.8 111.3a29.6 29.6 0 0 1 4.8 28 8 8 0 0 1-4.6 5c-1.8.8-3.6 0-5.1-1a17.2 17.2 0 0 1-5.5-7.2 26.3 26.3 0 0 1-2.3-9.8c-.1-2.5-.4-5.1.3-7.7.2 0 .3 0 .4-.3.1-.9.6-1.7 1-2.5 1-1.9 2.4-3.4 4.3-4.2 2-.8 4.2-1.7 6.4-.3h.3Zm-7.2 14c0 2.7.3 4.7 1.6 6.5 1.2 1.6 3 1.8 4.4.3.5-.6 1-1.3 1.2-2 .3-1.5.4-2.9.2-4.3-.3-2.3-1.1-4.3-2.6-6-1.2-1.4-2.8-1.2-3.7.3a14 14 0 0 0-1.1 5.2ZM208.4 162.1l-2 .4c.5-.9 1.2-1.3 1.6-2 1-2 1.3-4 1.4-6.2 0-.5.1-.9.7-1 4.6-1.9 9-4 13.6-6 .2-.1.5-.4.8-.2.2.3 0 .6-.1.9-.4 1.2-1 2.4-1.6 3.6-2 .3-3.7 1.1-5.4 2.1-3.5 2.2-6.6 5-9 8.4Z" fill="#354660"/>
  <path d="M208.3 154c0 2-.2 4-1 5.7-1 1.8-4 3.2-6 2.7-2.1-.5-4-1.2-6-2.2-.2-.2-.7-.3-.7-.6 0-.5.5-.4.7-.5l12.3-4.9.7-.1Z" fill="#1A222F"/>
  <path d="m150.3 167 .9.2c1.4.5 1.4.8.4 1.9-2.2 2.2-4.8 4-7.8 5a90 90 0 0 1-7.3 2.2c-.3 0-.6.2-1 0 1.3-1 2.2-2.6 3.4-3.8.2.1.4 0 .6-.1l4.8-3c1.8-1.2 4-1.8 6-2.4Z" fill="#6C88AF"/>
  <path d="M80.8 141.6a23 23 0 0 0 2.2-10l.2-.8c.2.2.1.7.6.7-.2.9.6 1.2 1.2 1.5l5.1 2.7 1.8 1c1 .6 1 .9.2 1.7-2.8-.2-5.3.6-7.7 2-1.1.7-2.3 1.1-3.7 1.2ZM150.3 167c-2 .6-4.2 1.2-6 2.3l-4.8 3c-.2.2-.4.3-.6.2l1.8-4.1a35 35 0 0 0 .8-20.5c.6.2.6 1 1.2 1.1 1 4.2 1 8.3.8 12.5-.1 1.8.3 2.8 2 3.5 1.7.6 3.3 1 4.8 2Z" fill="#354660"/>
  <path d="M208.4 162.1c2.4-3.4 5.5-6.2 9-8.4 1.7-1 3.5-1.8 5.4-2-1.3 2.9-3.3 5.3-5.8 7.4-1.8 1.5-4.1 1.8-6.2 2.5l-2.4.5Z" fill="#6C88AF"/>
  <path d="M142.7 149c-.6-.1-.6-1-1.2-1.2 0-.1 0-.3-.2-.4-2-5.4-4.9-10.2-10-13.3a14 14 0 0 0-6.7-1.8c-1.5-.1-3-.2-4.5 0 2.8-1.4 5.7-2.2 9-1.1 4.7 1.6 8.3 4.5 10.6 9 1.5 2.8 2.5 5.7 3 8.8ZM83.8 131.5c-.5 0-.4-.5-.6-.7a31 31 0 0 0-3.3-15.3 19 19 0 0 0-7.3-8.6c1.8-.7 2.3-.6 3.6.7a26.7 26.7 0 0 1 7.8 23.2l-.2.7Z" fill="#1A222F"/>
  <path d="M80.8 141.6c1.3-.1 2.5-.5 3.6-1.2 2.4-1.4 4.9-2.2 7.7-2 0 .4-.2.6-.4.9-2.1 3-5.2 4.3-8.7 5-1.7.3-3.5.4-5.5.5 1.4-1 2.3-2.1 3.3-3.2Z" fill="#6C88AF"/>
  <path d="M75.8 111.3h-.3c-2.2-1.4-4.3-.5-6.4.3-2 .8-3.3 2.3-4.3 4.2-.4.8-.9 1.6-1 2.5 0 .2-.2.3-.4.3.3-3 1-5.9 2.9-8.4 1-1.4 2.4-2.2 4-2.7h.8c2 .7 3.6 2 4.7 3.8Z" fill="#1A222F"/>
  <path d="M62.2 118c-.3-2.4.3-4.7 1.5-6.7.7-1.1 1.6-2.2 2.4-3.2 1.5-1.7 3.5-2.3 5.6-2.5h.3l.2.2c-6.5 1.5-9 6.2-10 12.2ZM121 130.6c-.8.6-1.8.9-2.6 1.3-3.8 2-6.7 5-8.5 9l-.5.7c.9-2.8 1.8-5.6 4.4-7.4 1.9-1.5 3.9-2.7 6.2-3.4.3 0 .6-.2 1-.1ZM109.4 141.6l-.2.4.1-.4Z" fill="#0173D8"/>
  <path d="M141.3 147.5c.2 0 .2.2.2.3l-.2-.3Z" fill="#354660"/>
  <path d="M121 130.7v-.1Z" fill="#0173D8"/>
  <path d="m144.5 162.8.2.2c-.2.1-.2 0-.2-.2Z" fill="#61A0FF"/>
  <path d="M196.3 58.7c0 4.7-.5 9.4-1 14.1l-.6 8.8c-.4 3.9-.5 7.9-1.2 11.8-.2 1.1-1.1 1.5-2 1.9-7.7 3.8-15.7 6.8-23.9 9.6s-16.6 5.4-24.8 8.1l-1.1.2c-1.5.2-1.6 0-2.1-1.4-1.8-5.2-2.4-10.5-3-15.9a916 916 0 0 1-2.1-16.5c-.3-2.2-.3-4.3 0-6.5 0-1 .5-1.6 1.3-2 3-1.7 6.2-3.3 9.4-4.6 4.5-1.9 9.2-3 13.9-4.6 4.9-1.7 9.7-3.3 14.8-4.3 5-1 9.8-2.5 14.8-3.4 2.2-.3 4.5-.7 6.7-.3.8.1.9.5.9 1v4Zm-4.3-4h-1.7c-4.7 1-9.3 2.3-13.9 3.4-7.8 1.8-15.3 4.5-23 6.8-4.8 1.4-9.3 3.6-14 5.4-3 1.2-4 2.6-3.7 5.8.3 5.8 1.2 11.5 1.9 17.2l2.3 16c.3 2.2 1.3 2.9 3.4 2.2l.8-.2c2-.5 4-1 6-1.7 6.1-2 12.1-4.6 18.3-6.6 4.1-1.4 8-3 12.2-4.4 3.1-1.1 6.3-2.2 9.3-3.7 1.6-.8 2.7-2 2.7-4l.1-3.5 1-13.1 1-17c.1-2.4.2-2.5-2.2-2.6h-.5Z" fill="#0A080B"/>
  <path d="M99.7 53c-.8.3-1.5 0-2-.3a76.7 76.7 0 0 0-10-5.5c-1.2-.5-1.6-1.5-1.9-2.6-.2-.9.4-1.4 1.2-1.8 1.6-1 3.2-1.7 5-2.3 3.3-1.2 6.4-2.9 9.7-4l4.3-1c-1 1.4-2 2.8-2.8 4.3a34 34 0 0 0-4 9.8c-.2 1.2-.2 2.3.5 3.4Z" fill="#0173D8"/>
  <path d="M177.5 144.6c-1.6 0-3-.5-4.2-1.7a21.8 21.8 0 0 1-5.4-9.3c-.2-.7-.3-1.6-.8-2-.5-.3-1.3.4-2 .5l-.5.1c-.3 0-.6 0-.7-.3 0-.3.1-.5.4-.6l2-.8c.5-.1.6-.3.5-.8l-1.1-9.8c0-.6-.1-1.3.4-1.6.5-.3 1 .1 1.5.4 4.8 2.7 9.7 5 15.2 5.9 1.1.1 2.2.6 3.4.5.3 0 .6 0 .7.3 0 .4-.2.7-.5.8-1 .3-1 1-.9 1.8.3 4.3-.2 8.5-2 12.5-1.3 2.5-3 4.2-6 4.1Zm-9.6-24v.5c0 4.9.3 9.8 2.2 14.4 1 2.4 2.3 4.4 4.2 6.1a5 5 0 0 0 4 1.3c2-.3 3.2-1.6 4-3.3 2-4 2.3-8.1 1.6-12.4 0-.4-.2-.7-.7-.7-2.9-.2-5.5-1.3-8.2-2.4-2.5-1-4.8-2.1-7.1-3.5ZM217.6 115l-2.4 1-1.9 1c-.4.2-.7 0-1-.5-.1-.4.3-.5.6-.6l2.4-1c1.5-.6 3-1.5 4.1-2.8 3.2-3.5 6.8-6.6 9.9-10.3l1-1.3c.3-.4.5-1.1 1.2-1 .8.2 1.2.9 1.5 1.6.5 1.5.7 3 .6 4.7-.1.8 0 1 .8.6.4-.2.8-.5 1.1 0 .2.1.4.5.2.8-.2.5-.6.6-1 .5-1 0-1.3.4-1.4 1.3-.3 4.4-1.2 8.7-2.9 12.8-.8 2-2 3.6-3.6 5-2.2 1.7-4.6 1.6-6.6-.5-.8-1-1.3-2.1-1.8-3.3-.8-2.3-.8-4.7-.8-7v-1Zm14.4-7.8c0-.8 0-2.3-.3-3.7 0-.3 0-.8-.5-1-.4 0-.6.3-.8.5l-10.3 10.7-.5.7c0 1-.2 1.8-.3 2.7-.3 3 .1 6 2.5 8.1 1.3 1.2 2.8 1.3 4.2.2 1.4-1.2 2.5-2.5 3.3-4.2 1.9-4.2 2.5-8.7 2.7-14Z" fill="#0A080B"/>
  <path d="M204 142.9c-1 .8-2.3 1-3.5 1.3-.7.2-1.4.4-2 0-1-.8-2-1-3.2-1.1-1-.1-1.6-1-1.6-2.1v-1a81.6 81.6 0 0 0 22-6.8c.5-.1 1.1-.3.5-.9.9-.4 1.2.4 1.5.8.5.6.4 1.3 0 2-.6.7-1.4 1.2-2.3 1.5-.5.2-.8.4-.8 1s-.3 1.2-.9 1.5c-1 .6-2 1.1-3 1.3 0-.2.3-.5 0-.7-.3-.2-.6 0-1 0-2.8 1-5.7 2-8.6 2.8a3 3 0 0 0-1.3.7c.6.2 1.2.3 1.7.2l2.6-.5Zm-8.5-1c3.8.2 17.1-3.7 18.2-5.3-6 1.8-12.2 3.2-18.2 5.3Z" fill="#0173D8"/>
  <path d="M131.2 68c2.4-1.7 4.8-3 7.3-4a173 173 0 0 1 21-6.7c6.4-1.5 12.7-2.9 19-4.6 2.4-.7 4.8-1.6 7.4-2l.5-.1c.3 0 .7 0 .7.5.1.4-.3.4-.5.5l-4.8 1.3c-7.8 2.2-15.8 3.8-23.6 6-8.6 2.4-17.1 5.2-25.4 8.9-.4.2-1 .5-1.6.1Z" fill="#0A080B"/>
  <path d="M187 99.8c2.4-1.4 4.7-2.5 7-3.5l3.6-1.6c.7-.4 1.5-.4 2.3-.4 2.6.1 5 1 7.6 1.6l4.7 1.3c-1.2.4-22.7 3-25.2 2.6Z" fill="#0173D8"/>
  <path d="m148.1 126.6-.3-.4-5-5.4-.9-1c-.1-.3-.1-.6.1-.7.3-.3.5-.1.7.1l1 1.2c3 3.3 6.3 6.1 9.2 9.3l3.5 3.8c.7.7.9 1.5 1 2.4.4 3.6.3 7.2.4 10.8.3 5.2.3 10.3.5 15.4v.6c0 .4-.3.6-.6.6-.4 0-.4-.4-.4-.6l-.2-3-.8-21.2c-.1-2.5-.8-5-3-6.7l-.3-.2v-.2a59.3 59.3 0 0 0-4-4h-.3c0-.1 0-.2-.2-.2 0-.2 0-.2-.2-.2.2-.2 0-.3-.2-.4Z" fill="#0A080B"/>
  <path d="M159.2 110a69.2 69.2 0 0 0-11.3 9c-.5.4-.7 1.3-1.2 1.3s-.9-.9-1.3-1.3l-3.3-2.7c-.8-.6-.8-1 0-1.2 5-1.2 9.5-3.5 14.4-5 .8-.2 1.6-.4 2.7-.1Z" fill="#0173D8"/>
  <path d="m101.6 56.7-9.1-4.8-.3-.2-.4-.2c0-.2-.3-.2-.4-.2-.2-.2-.3-.4-.6-.2 0-.5-.6-.5-1-.8l-3-2.1c-.3-.2-.7-.4-.6-1 .6.1 1 .4 1.5.7l10 5.5c6.8 3.8 14 7 21 10.5 1 .5 2 1 2.8 1.7l6 3.7h-.6c0-.2-.2-.2-.4-.2a3072 3072 0 0 0-2.6-1l-9.4-5c-2.6-1.3-5-2.7-7.7-3.8-.1-.2-.3-.2-.5-.2 0-.2-.2-.2-.4-.2 0-.2-.2-.2-.4-.2 0-.2-.2-.2-.4-.2 0-.2-.2-.2-.4-.2 0-.2-.2-.2-.4-.2 0-.2-.2-.2-.4-.2l-.1-.1h-.2l-.2-.2h-.2l-.2-.2h-.2l-.2-.2h-.2c-.1-.3-.3-.3-.5-.3 0-.2-.2-.2-.3-.2ZM216.2 132.3c.6.6 0 .8-.4 1a75.5 75.5 0 0 1-22.1 6.7H192c1.8-1 3.6-1.4 5.4-1.8 6.3-1.3 12.4-3.5 18.4-6l.3.1ZM190.3 124.7c-.6 0-1 0-1-.5-.1-.5.2-.6.6-.7 5.4-1.6 10.4-4 15.7-5.7.4-.1 1-.4 1 .2.3.6-.3.6-.7.7-4 1.2-7.6 3-11.4 4.4l-3 1.2-1.2.4Z" fill="#0A080B"/>
  <path d="M215.8 132.3c-6 2.4-12 4.6-18.3 6 0-.4.3-.5.5-.5 5.2-1.8 10.3-3.9 15.6-5.3.7-.2 1.5-.8 2.2-.2Z" fill="#0173D8"/>
  <path d="m204 142.9-2.5.5c-.5 0-1 0-1.7-.2a3 3 0 0 1 1.3-.7c3-.7 5.8-1.7 8.6-2.8.4 0 .8-.2 1 0 .3.3 0 .5 0 .7l-.3.2-4.5 1.7h-.3l-.3.2h-.3l-1 .4Z" fill="#0A080B"/>
  <path d="M205.6 142.4c0-.1.1-.2.3-.1h-.3ZM205 142.6c0-.1.1-.2.3-.1h-.3Z" fill="#0173D8"/>
  <path d="M100.6 86.4c0-5.7 0-10.6.6-15.4.3-2.4.8-4.8 1.6-7.1.5-1.4 1.4-1.8 2.6-1 5.7 3.5 12 5.9 17.9 9 1 .6 2 1 3 1.7.8.4 1.2 1 1 1.9-.4 2.7.3 5.4.3 8.1.1 3.7.4 7.3.7 11 .6 5.4 1 11 2 16.4.1.4.4.8.4 1.3.1 1-.2 1.2-1.1.9-4.3-1.5-8-3.8-12-6-4.4-2.5-8.7-5.2-13.2-7.6-1-.5-1.8-1.1-2.6-1.8-.7-.6-.7-1.6-.8-2.5-.5-3.2-.5-6.5-.4-9Zm28.9 25.6c-1.8-6-2.2-12-2.8-18-.5-6-.7-12.1-.3-18.2 0-1-.4-1.5-1.2-1.8l-3-1.2c-5.3-2.3-10.5-5.1-15.7-7.7a5 5 0 0 1-1.9-1.3c-.3-.4-.7-.5-.9.2-.4 1.6-.8 3.2-1 4.9l-.8 11.7c-.3 5-.5 10.1 0 15.2.1.6.4 1 1 1.5 2.1 1.6 4.7 2.6 7 3.9 6 3.3 11.9 6.8 18 10l1.6.8ZM77.3 82.3c0-7.7.9-15 2.7-22.3.6-2.4 1.2-4.8 2.4-7 .7-1.4 1.3-1.6 2.7-1 2 1 4 2.2 6 3.4 2.4 1.6 5 3.1 7.5 4.5l1.2.8c.4.3.5.7.3 1.1a20 20 0 0 0-1 6.5c-.5 7.4-.7 14.9-.3 22.3l.2 4c0 .9-.3 1-1 .5-5.5-3-11-6-16.4-9.2-1.3-.7-2.5-1.7-3.8-2.5-.6-.3-.4-.9-.5-1.1Zm20.6 11.6-.5-5.8c-.4-4.2-.2-8.5.2-12.8.3-4.5.2-9 1.6-13.3.1-.5 0-.7-.5-1l-2.8-1.3c-4-2.2-8-4.2-11.8-6.6-.7-.4-.8-.1-1 .4l-.7 2.5c-1.2 3.3-1.8 6.7-2.4 10.1-.9 5-1 10-1.4 15-.1.7 0 1.2.6 1.5l3.4 2.2L95.3 92l2.6 1.8ZM100.7 135.7c-.7-1.8-.8-3.6-1.1-5.4-1.1-6.9-1.1-13.9-1-20.8 0-2.6.3-5.2.4-7.7v-.5c.2-.4.5-.6.8-.5.5 0 .3.4.3.7-.5 5.5-.5 11-.5 16.5 0 5.3.5 10.5 1.5 15.7.2 1 .1 1-.4 2ZM76 99.4l.2-2c0-.6.3-.9.7-.9.3 0 .2.5.3.7.2 1.2.4 2.4.4 3.7 0 .6.2 1 .8 1.4.3.1.5.4.3.7-.1.3-.4.4-.7.3-1-.1-1.6-.6-1.8-1.5-.3-.8-.1-1.7-.1-2.4ZM104.5 117.4c-1 0-2-1-2.1-2.3v-3.3c0-.4.1-.9.6-.8.4 0 .3.5.3.8 0 .9 0 1.8.2 2.7.2.8.5 1.4 1.3 1.7.4 0 .8.2.6.7-.1.4-.5.5-1 .5Z" fill="#0A080B"/>
  <path d="M106.8 59.3c2.6 1.1 5.1 2.5 7.7 3.8l9.4 5c-1.5 0-2.6-.8-3.7-1.4-4.4-2.2-8.6-4.7-13-6.9-.3-.1-.5-.2-.4-.5ZM90.8 51.1c.3-.2.4 0 .6.2-.3 0-.5 0-.6-.2ZM126.5 69.1c.2 0 .4 0 .4.2-.1 0-.3 0-.4-.2ZM91.4 51.3c.1 0 .3 0 .4.2-.2 0-.4 0-.4-.2ZM106 59c.1 0 .3-.1.4.1-.2 0-.4 0-.4-.2ZM148.1 126.6c.1.1.4.2.2.4-.2 0-.2-.2-.2-.4Z" fill="#61A0FF"/>
  <path d="M106.4 59.1c.1 0 .3 0 .4.2-.2 0-.4 0-.4-.2ZM104 58l.4.1c-.2 0-.4 0-.4-.2ZM105.6 58.7c.1 0 .3 0 .4.2-.2 0-.4 0-.4-.2ZM104.4 58.1c.1 0 .3 0 .4.2-.2 0-.4 0-.4-.2ZM102 57l.4.1c-.2 0-.4 0-.4-.2Z" fill="#61A0FF"/>
  <path d="M104.8 58.3c.1 0 .3 0 .4.2-.2 0-.4 0-.5-.2ZM105.2 58.5c.1 0 .3 0 .4.2-.2 0-.4 0-.4-.2ZM91.8 51.5c.1 0 .3 0 .4.2-.2 0-.4 0-.4-.2ZM101.6 56.7c.1 0 .3 0 .4.2-.2 0-.4 0-.4-.2ZM153 131.4v.2c-.3 0-.2-.1 0-.2ZM148.7 127.4h.2c0 .2-.1.2-.2 0ZM148.5 127.2c.2 0 .3 0 .2.2l-.2-.2ZM148.3 127c.2 0 .3 0 .2.2l-.2-.2ZM124 68.1h.1c0 .2-.1.1-.2 0ZM103.8 57.8l.2.1-.2-.1Z" fill="#61A0FF"/>
  <path d="M123.6 135.2c2 0 3.3 1.2 3.5 3.2 0 .8-.6 1.4-1.3 1.7-.5.3-1.1.2-1.6-.3-1.1-1.2-2.5-1.4-3.9-.7-2.9 1.3-5.5 3-6.9 6l-.8 1a1 1 0 0 1-1.4-.7c-.1-.5 0-1 .3-1.6 1.4-2.6 3.6-4.5 6-6.1 1.6-1.2 3.4-2 5.4-2.3l.7-.2Z" fill="#1A222F"/>
  <path d="M129 157.5c-.3 1.8-.2 3.7-1.8 5.1a3.8 3.8 0 0 1-5.2 0 9.9 9.9 0 0 1-2.6-5.7c-.5-2.2-.3-4.5.4-6.8.6-2.2 2-3.2 4-3 1.4 0 2.2 1 2.9 2 1.3 1.7 1.8 3.8 2 5.9 0 .8.4 1.6.2 2.5Zm-8.7-3.2v1.7c.3 2.4 1 4.6 2.8 6.3 1 1 2.5 1 3.4-.2.5-.6.8-1.3 1-2.1.4-1.5.3-3 .2-4.5-.2-2.3-.7-4.5-2.2-6.3-.6-.9-1.5-1.5-2.6-1.3-1.2.1-1.7 1-2 2-.5 1.5-.6 3-.6 4.4ZM68.6 125.4a14 14 0 0 1 1-5.3c1-1.5 2.6-1.7 3.8-.3 1.5 1.7 2.3 3.7 2.6 6a11 11 0 0 1-.2 4.2c-.3.8-.7 1.5-1.2 2-1.3 1.6-3.2 1.4-4.4-.2-1.3-1.8-1.6-3.8-1.6-6.4Zm1 1.5v1.3c.2 1.5.5 2.8 1.8 3.7.5.4 1.1.6 1.7.1.8-.6 1.5-1.4 1.7-2.4.7-2.8-.3-5.2-1-7.7-.4-1.3-1.2-2-2-2-.9.1-1.5 1-1.8 2.3-.3 1.6-.3 3.2-.4 4.7Z" fill="#0A080B"/>
  <path d="M192 54.7h.5c2.4.1 2.3.2 2.2 2.5l-1 17-1 13.2c0 1.1-.2 2.3-.1 3.5 0 2-1 3.2-2.7 4-3 1.5-6.2 2.6-9.4 3.7-4 1.3-8 3-12 4.4-6.3 2-12.3 4.5-18.4 6.6-2 .7-4 1.2-6 1.7l-.8.2c-2.1.7-3 0-3.4-2.1l-2.3-16c-.7-5.8-1.6-11.5-2-17.3-.1-3.2.8-4.6 3.8-5.8 4.7-1.8 9.2-4 14-5.4 7.7-2.3 15.2-5 23-6.8 4.6-1.1 9.2-2.3 13.9-3.3l1.7-.1ZM164 67.5l-.2.2c.9 1.6 1.7 3.4 2.8 4.8 1.7 2.3 3.7 4.4 5.6 6.5 2.7 3 6 5.6 8.9 8.5.7.7 1.7.8 2.5.4 1-.5 1.4-1.5 1.2-2.5l-.9-5c-.1-.6 0-1.3-.8-1.7l-3.8-2.1-9.6-5.4c-2-1.1-3.9-2.3-5.7-3.7Zm-23.4 9.2c-.5 0-1 .1-1.3.4-1.2 1-1.2 2.5 0 3.8l8.3 8.7 7.1 7.3a8 8 0 0 0 2 1.5c.8.3 1.5.5 2 0 .6-.5.8-1.2.6-2-.3-1.1-1-2-1.6-2.9-2-2.8-4.7-5.2-7-7.8-2.4-2.6-5-5-7.5-7.5-.7-.7-1.5-1.4-2.6-1.5Zm19.8 13.5-.1-1.5-1.1-5.2c-.3-1.3-1-2-2.4-1.8-.9.1-1.7 1.2-1.4 2.4a18 18 0 0 0 3.6 7.4c.2.4.6.7 1 .5.5-.2.4-.7.4-1v-.8Z" fill="#DEEAFE"/>
  <path d="M167.9 120.6c2.3 1.4 4.6 2.6 7 3.5 2.8 1 5.4 2.2 8.3 2.4.5 0 .6.3.7.7.7 4.3.3 8.5-1.6 12.4-.8 1.7-2 3-4 3.3a5 5 0 0 1-4-1.3c-2-1.7-3.2-3.7-4.2-6a38.5 38.5 0 0 1-2.3-14.5v-.5Zm14.8 12.1c0-1.2.1-2.4-.4-3.5-.5-1-1.3-1.4-2.4-1.3-.8 0-1.2.5-1.5 1.3-.2.5 0 .8.5.8.6 0 1.1.3 1.1 1s-.6.8-1.2.9c-.3 0-.7 0-.8.4-.3 1.4.6 3.8 1.7 4.6.9.6 1.5.4 2.2-.4 1-1.2.8-2.5.8-3.8ZM232 107.2c-.2 5.3-.8 9.8-2.7 14-.8 1.7-2 3-3.3 4.2-1.4 1.1-2.9 1-4.2-.2-2.3-2.2-2.8-5-2.5-8.1l.3-2.7c0-.3.3-.5.5-.7l10.3-10.7c.2-.2.4-.5.8-.4.5.1.5.6.6.9.2 1.4.2 3 .2 3.7Zm-10.1 7.8h.2c.6.1 1.3 0 1.4.9 0 .8-.7.8-1.3.8-.6 0-.7.2-.8.8 0 .9.2 1.7.4 2.6.3 1.3 1.2 2.2 2.2 2.2 1 0 1.5-.9 1.8-2.4v-.2c.2-1.7.2-3.5.2-5.2 0-.5-.1-1-.4-1.5-.6-1-1.7-1.2-2.5-.2-.6.6-1 1.3-1.2 2.2Z" fill="#fff"/>
  <path d="M195.5 141.9c6-2.1 12.2-3.5 18.2-5.3a46.6 46.6 0 0 1-18.2 5.3Z" fill="#0A080B"/>
  <path d="m129.5 112-1.6-.8c-6.1-3.2-12-6.7-18-10-2.3-1.3-4.9-2.3-7-4a2 2 0 0 1-1-1.4c-.5-5.1-.3-10.2 0-15.2.2-4 .5-7.8.9-11.7a26 26 0 0 1 1-4.9c.1-.7.5-.6.8-.2a5 5 0 0 0 1.9 1.3c5.2 2.6 10.4 5.4 15.8 7.7l3 1.2c.7.3 1.1.8 1 1.8-.3 6-.1 12.1.4 18.2.6 6 1 12 2.8 18Zm-5.5-9.4c0-.7-.2-1.6-.6-2.4L117 86.7A360 360 0 0 0 113 77c-1-2.2-2-4.5-3.4-6.6-.6-1-1.5-1.2-2.4-.7-.8.5-1.2 1.5-.6 2.5 1.5 2.6 2.6 5.4 3.9 8.1l4.7 10.7c1.8 4.1 3.8 8.1 5.8 12.1l.4.6c.5.4 1 .9 1.7.6.7-.4 1-1 1-1.8ZM107.1 88c.2.9.7 1.7 1.3 2.4 1.3 1.9 3 3.6 4.5 5.3 1 1.2 2.2 2.2 3.5 3.1.3.3.7.5 1 .1.3-.3 0-.6-.2-.9-1.4-2.5-3.2-4.8-5-7.1-1-1.4-2-2.7-3.4-3.7-.4-.2-.8-.5-1.2-.2-.4.2-.5.6-.5 1ZM97.9 94 95.3 92l-12.7-7.3-3.4-2.2c-.5-.3-.7-.8-.6-1.4.5-5 .5-10.1 1.4-15 .6-3.5 1.2-7 2.4-10.2l.7-2.5c.2-.5.3-.8 1-.4 3.8 2.4 7.8 4.4 11.8 6.6 1 .5 1.8 1 2.8 1.3.5.3.6.5.5 1-1.4 4.3-1.3 8.8-1.6 13.3-.4 4.3-.6 8.6-.2 12.8l.5 5.8Zm-4.5-9.3L93 83c-1.3-5-2.3-10.1-3.3-15.3-.3-1.8-.5-3.7-1.5-5.3-.3-.5-.7-1-1.3-.8-.7.2-1 .7-1.1 1.4-.4 1.3-.2 2.7 0 4 .7 4.2 1.4 8.4 2.4 12.6.6 2 1 4.2 2.1 6 .5.8 1.2 1.3 2 1 1-.2 1-1.2 1-2ZM82.8 73.3c-1 0-1.7 1.1-1.3 2 .7 1.7 1.8 3 3 4.1.3.2.4.4.7.2.2-.2.4-.3.3-.6-.3-1.6-.6-3.3-1.4-4.7-.2-.5-.6-1-1.3-1Z" fill="#DEEAFE"/>
  <path d="M120.3 154.3c0-1.5.1-3 .6-4.3.3-1 .8-2 2-2.1 1.1-.2 2 .4 2.6 1.3 1.5 1.8 2 4 2.2 6.3.1 1.5.2 3-.2 4.5-.2.8-.5 1.5-1 2.1-.9 1.1-2.4 1.2-3.4.2a9.7 9.7 0 0 1-2.8-6.3v-1.7Zm1.7.7c.8 0 1-.6 1.1-1.2.1-.7.1-1.3.5-1.8.5-.7.4-1.3-.2-1.7-.8-.6-1.4 0-1.7.6-.6 1-.9 2.1-.8 3.3.1.6.5.8 1 .8ZM69.6 127c0-1.6 0-3.2.4-4.8.3-1.3 1-2.2 1.7-2.2.9 0 1.7.6 2 1.9.8 2.5 1.8 5 1.1 7.7-.3 1-.9 1.8-1.7 2.4-.6.5-1.2.3-1.7-.1-1.3-1-1.6-2.2-1.8-3.7V127Zm.8-2.8v.7c0 .6.1 1 .7 1.2.7 0 1.2-.2 1.3-.8l.4-2.4c0-.6-.5-1-1-1-.7-.1-1 .2-1.2.8-.1.5-.3 1-.2 1.5Z" fill="#6C88AF"/>
  <path d="M163.9 67.5c1.8 1.4 3.7 2.6 5.7 3.7l9.6 5.4 3.8 2c.9.5.7 1.2.8 1.9l1 5c.1.9-.4 1.9-1.3 2.4-.8.4-1.8.3-2.5-.4-3-2.9-6.2-5.5-9-8.5-1.8-2.1-3.8-4.2-5.5-6.5-1.1-1.4-1.9-3.2-2.8-4.8l.2-.2ZM140.5 76.7c1 0 1.9.8 2.6 1.5l7.5 7.5c2.3 2.6 5 5 7 7.8a9 9 0 0 1 1.6 2.9c.2.8 0 1.5-.6 2-.5.5-1.2.3-2 0a8 8 0 0 1-2-1.5l-7.1-7.3-8.3-8.7c-1.2-1.3-1.2-2.8 0-3.8.4-.3.8-.4 1.3-.4ZM160.3 90.2v.7c0 .4.1 1-.3 1.1-.5.2-.9-.1-1.1-.5a18 18 0 0 1-3.6-7.4c-.3-1.2.5-2.3 1.4-2.4 1.3-.2 2.1.5 2.4 1.8l1 5.2c.2.5.2 1 .2 1.5Z" fill="#D2E2F9"/>
  <path d="M182.7 132.7c0 1.3.1 2.7-.8 3.8-.7.8-1.3 1-2.2.4-1.1-.8-2-3.2-1.7-4.6.1-.5.5-.4.8-.4.6-.1 1.2-.2 1.2-1 0-.6-.5-.8-1-.9-.7 0-.8-.3-.6-.8.3-.7.7-1.3 1.5-1.3 1.1-.1 2 .4 2.4 1.3.5 1.1.3 2.3.4 3.5ZM221.9 115c.2-1 .6-1.6 1.2-2.2.8-1 1.9-.9 2.5.2.3.5.4 1 .4 1.5 0 1.7 0 3.5-.2 5.2v.2c-.3 1.5-.9 2.3-1.8 2.4-1 0-1.9-.9-2.2-2.2-.2-.9-.5-1.7-.4-2.6 0-.6.2-.8.8-.8.6 0 1.3 0 1.3-.8 0-.9-.8-.8-1.4-.8l-.2-.1Z" fill="#0A080B"/>
  <path d="M124 102.6c0 .9-.3 1.4-1 1.8-.8.3-1.2-.2-1.7-.6l-.4-.6c-2-4-4-8-5.8-12.1l-4.7-10.7c-1.3-2.7-2.4-5.5-4-8.1-.5-1-.1-2 .7-2.5 1-.5 1.8-.3 2.4.7 1.3 2.1 2.4 4.4 3.4 6.6a360 360 0 0 1 4.2 9.6l6.3 13.5c.4.8.6 1.6.7 2.4ZM107.1 88c0-.4.1-.8.5-1 .4-.3.8 0 1.2.2 1.4 1 2.4 2.3 3.4 3.7 1.8 2.3 3.6 4.6 5 7.1.2.3.5.6.2 1-.3.3-.7 0-1-.2-1.3-.9-2.5-2-3.5-3.1-1.5-1.7-3.2-3.4-4.5-5.3-.6-.7-1-1.5-1.3-2.4ZM93.4 84.7c-.2.7-.1 1.7-1 2-1 .2-1.6-.3-2-1-1.3-1.9-1.6-4-2.2-6.1-1-4.2-1.7-8.4-2.4-12.7-.2-1.2-.4-2.6 0-3.9.1-.7.4-1.2 1-1.4.7-.2 1 .3 1.4.8 1 1.6 1.2 3.5 1.5 5.3 1 5.2 2 10.3 3.3 15.3l.4 1.7ZM82.8 73.3c.7 0 1 .5 1.3 1 .8 1.4 1.1 3 1.4 4.7 0 .3-.1.4-.3.6-.3.2-.5 0-.6-.2a12.2 12.2 0 0 1-3-4c-.5-1 .2-2 1.2-2Z" fill="#D2E2F9"/>
  <path d="M122 155c-.6 0-1-.2-1-.8-.2-1.2 0-2.3.7-3.3.3-.6.9-1.2 1.7-.6.6.4.7 1 .2 1.7-.4.5-.4 1.1-.5 1.8-.1.6-.3 1.2-1.1 1.2ZM70.4 124.2c0-.4 0-1 .2-1.5.1-.6.5-1 1.1-.9.6.1 1 .5 1 1 0 .9 0 1.7-.3 2.5-.1.6-.6.9-1.3.8-.6-.2-.7-.6-.7-1.2v-.7Z" fill="#98B3D9"/>
</svg>
