<svg fill="none" xmlns="http://www.w3.org/2000/svg" viewBox="0 0 425 285" {...props}>
      <g clipPath="url(#a)">
        <path
          d="m86.7 83.8-.3-.1-1-.4-3.2-1.3a544.7 544.7 0 0 1-19.8-8.5 57.3 57.3 0 0 1 6.7-3.6l24.4-2.4 12 9.8 6 13-1.2 8-3 6.3-19.5-20-.4-.6-.7-.2M28 90.4l-.2.7v.7l2.3 33.4v1.3l1 .9 8 6.8.2.3.4.2L72.4 151l1 .5 1-.2 37.2-7.6 1.5-.3.7-1.4L129 110l.1-.3v-.4l2-8.7v-.7l-.2-15v-.8l-.5-.8L113.8 58l-.6-1-1-.3L88 48.9l-.5-.2H87l-33 1.5h-1.2l-.9.8L39.4 63l-.4.4-.3.7L28 90.4Zm57 27.9.1.2h.2l10.8 7-5.8 6.2H76.5l-22-10.9-1.8-2.5-1.5-3.8-2.3-8v-11l2.4-5.7L62 97.4l23 20.9Z"
          fill="#E63643"
        />
        <path
          d="M73 154.8 37.6 137 27.2 128l-2.6-37.4 11.7-29L51.5 47 88 45.5l27.2 8.9L134 83.2l.3 17.4-2.2 10.2-16.8 35.3-42.3 8.7Zm-32-23 32.8 16.4 37.2-7.6 15.2-31.9 1.9-8.7-.3-15-16.6-25.4-24.1-7.8-33 1.4-12.5 11.9-10.7 26.4 2.3 33.5 7.9 6.9Zm34.7 3-23.3-11.5-2.5-3.5-1.7-4.5-2.5-8.4v-12l4.2-9.8L64 95 87 116l13.9 9-9.3 9.8H75.7Zm-19.2-16.4 20.7 10.2h11.7l2.4-2.4-8.5-5.6-22.7-20.8-7.5-5.2-.6 1.6v9.8l2.1 7.5 1.3 3.4 1.1 1.5Zm51.8-8.4L85.6 86.7l-1.3-.5-3.3-1.4a645.5 645.5 0 0 1-20-8.5l-5-2.5 4.8-3a54.2 54.2 0 0 1 6-3.2l.9-.5.5-.2 26.2-2.6 13.6 11 6.6 14.5-1.3 9.4-5 10.8ZM87.9 81l1.2.5 17.3 17.8.8-1.8 1-6.7-5.2-11.5-10.5-8.5L69.9 73l-.3.2h-.3l4 1.8c3.7 1.6 7.5 3 10 4l3.3 1.4 1.3.5Z"
          fill="#fff"
        />
      </g>
    </svg>
