<svg fill="none" xmlns="http://www.w3.org/2000/svg" viewBox="0 0 301 201">
  <path d="m120 26.5-.7-1.6c-.2-.6 0-1 .8-1s1.6 0 2.3.2c.4.1.8 0 1-.4a13.7 13.7 0 0 1-5.1-4.2c-.3-.3-.6-.7-.2-1 .3-.3.6.2.8.5a22 22 0 0 0 5.5 4c.5.4 1.3 0 1.3-.6.1-.7.1-1.4-.3-2-1.2-1.6-1.2-3.6-2-5.4l-.3-1.5c0-.3-.4-.8 0-1 .6 0 .6.5.7.8.5 1.2 1 2.3 1.3 3.5.2.5.5.7 1 .7 3.8.4 7.4 1.4 11 2.4 6.8 1.8 13.4 4 20 6.4 1 .3 2 .8 3 1.3.7.2 1.3.7 1.4 1.4.1.5.4.5.7.4 3.2-.3 6.5-.3 9.6.3 2.8.4 5.5 1.1 8.3 1.7a139.1 139.1 0 0 1 36.6 12.4c1.9 1 3.6 2.2 5.5 3.3 1 .7 1.7 2 2.3 3.1 1.6 3.6 2.7 7.4 3.4 11.3.7 3.7 1.5 7.5 1.9 11.3.5 6 .7 11.9.5 17.8-.1 3-.3 5.9 0 8.8.2.6.3 1.2 1 1.5 1.3.6 1.5 1.8 1.4 3.1 0 3 0 5.9-.2 8.8a64.6 64.6 0 0 1-4.6 21.6l-1 2.4a12 12 0 0 1-5 6 5 5 0 0 0-2.1 3c-.9 2.5-2.3 4.8-4.6 6.4-3.7 2.5-8 3-12.3 2.3l-.3-.1c-1-.9-2-.3-3 0-3.8 1.3-7.4 2.6-11.2 3.5-4.9 1.3-9.7 2.5-14.7 3.3-4.6.7-9.1 1.7-13.8 1.6-1 0-1.7.2-2.1 1.3-1 2.4-3 3.7-5.2 4.8a31.4 31.4 0 0 1-10.3 2.8c-1.4.2-2.7.3-4.1.3-2.3 0-4.5-.4-6.5-1.4-5.4-2.4-8.2-7-10-12.3-.4-1.4-.7-3-.8-4.4 0-1-.5-1.5-1.3-2-3.2-1.7-6.5-3.6-9.9-5.1-2.9-1.3-5.6-3.2-8.4-4.7-.5-.3-.9-.3-1.4-.2-2 .7-4.2 1-6.3 1.1-1.6.1-3-.4-4.3-1.2-6.3-3.6-8.7-9.3-8.8-16.3 0-1 0-2 .5-3 .2-.4 0-.6-.3-.8-1.7-1.2-3.3-2.6-4.9-4-.9-.8-2-1.4-3-2-.8-.4-1-1-.8-1.6.2-.6.8-.5 1.2-.5l3.3.2c.3 0 .7.2.6-.5-.1-.2.2-.2.5-.3l1.6-.4c-.4-.7-1-1-1.5-1.5l-2.7-2.2c-.1-.1-.4-.3-.2-.6.1-.3.4-.1.6 0l2.2 1.3c0-.7-.5-.9-.9-1.2-.3-.3-1-.6-.8-1 .3-.7 1 0 1.4.2.5.2 1 .6 1.3 1 .5.4 1 .8 1.3 1.3.4.3.9.7 1.2.5.4-.3.6-.8.8-1.3.1-.3-.2-.3-.4-.4l-3-2.1c1.9 0 3.2.9 4.5 1.9l.6.9c0 .2 0 .7-.3.6-.8-.3-.9.3-1.1.7-.7 1.4-1.6 2.4-3.2 2.6-.5 0-1 .1-1 1 0 .3-.5.4-.8.4h-1.7c-1-.1-2-.5-3-.2 1.3 1 2.7 1.5 3.8 2.6l.3.1c2.1 0 4.1.8 6 1.4.4 0 .8.2 1.2 0a24.3 24.3 0 0 0-3.5-2.2c-.2-.1-.6-.4-.4-.8.1-.3.6-.1.8 0 .8.1 1.6.3 2.1 1 1.2 1.4 2.9 1.6 4.4 2.1.4.1.7 0 .7-.4.1-.4.5-1 0-1.3a35 35 0 0 1-4.5-2.8c-.2-.2-.8-.1-.6-.5.1-.4.6-.3 1-.2l.7.4c1.2.6 2.4 1 3.4 2.1v-.4c-.3-1.7-.6-3.5-.3-5.2.2-1-.3-1.5-1-2-.4-.3-.8-.5-1.1-.2-.4.3.2.5.2.8.2.4.3.7 0 1-.5.3-.7 0-1-.2l-1.3-1.5c-.8-1-1.9-1.8-2.6-3 .6-.2 1 .2 1.4.5.4.3 1 .6 1.3 1 .5.6 1 1 1.8.2-.6-.8-1.3-1.4-2.1-2-1.2-.8-1.4-2.2-.6-3.3.3-.4.2-.5-.2-.7-.8-.4-1.5-1-2.3-1.6 1.1-.2 2 .3 3 .7 1 .5 2.5-.4 2.4-1.5-.1-1.6-.7-2.7-2.3-3.3-1.3-.4-2.7-.8-4-1.5-1-.5-1.6-1.2-1.8-2.3 0-.3-.2-.6.1-.7.4-.1.4.2.6.4.7 1.2 2 1.8 3.2 2.3 1 .3 2.1.6 3.2 1.2 0-.5 0-1-.2-1.4-.7-1 0-1.6.7-1.9 1-.4 1.9-.7 2.2-2-.4-.3-.9-.9-1.3-1.5-.9-1.2-2-1.8-3.4-2.2-1.9-.6-3.7-1.1-5-2.6-.2-.2-.6-.3-.4-.6.2-.3.5 0 .8.1 1.4.8 2.9 1.4 4.4 1.8a8 8 0 0 1 5 3.3c0 .2.1.5.5.5a9.5 9.5 0 0 0-1.8-4.8l-1.8-2c-.2-.3-.4-.5-.2-.8.2-.3.5-.2.8 0 .4 0 .8.6 1.2.3.3-.4 0-1-.1-1.4-.7-2-2-3.3-3.3-4.8l-2.4-2.4-.4-.6c-.3-.6-.5-1.2-.1-1.7s1-.2 1.4 0c2 .8 3.8 2 5.3 3.6.2.2.4.6.8.4.4-.1.3-.5.4-.9 0-1.6-.3-3-1.2-4.5-.9-1.5-2.2-2.8-2.8-4.5-.1-.3-.4-.2-.6-.3-1.7-.6-3.2-1.5-4.5-2.9-.2-.2-.6-.4-.2-.8.3-.4.6-.1.9.1 1.4 1.2 3 2.1 4.7 2.8.7-2.1.3-3-1.9-3.6-2.4-.7-4.6-1.8-6-4.1-.1-.3-.7-.7-.2-1 .4-.3.7.2 1 .5 1.5 2 3.4 3 6 3.5-.8-.7-1.1-1.5-1.7-2.2-.7-.7-.7-1.6-.7-2.5 0-.5.3-.7.7-.7.5 0 1-.1 1.5.2.6.3 1.2.4 1.8.4.7 0 1.4.2 1.8-.4.5-.8.3-1.7-.2-2.4l-.7-.8c-.3-.4-.8-.7-.1-1.3.4-.4.2-1-.4-1.3L80 44.8c.5-.4 1-.4 1.5-.2l2.3 1.1.3.2h.3l-.2-.1-.2-.3c-1.4-1.4-3.1-2.5-4.7-3.8-.5-.4-1-.8-1.3-1.3-.2-.2-.4-.4-.2-.7.2-.3.5-.2.8-.1l2.7 1.2 1.6.7c.4.2 1 .8 1-.4 0-.4.4-.3.8-.3 1 0 1.8.5 2.7.7h.2-.1l-.5-.6c-.4-.4-.8-.7-.7-1.3.2-.6.8-.7 1.3-.8l3.9-.2h.6c.4-.1 1 0 1.2-.5.2-.4-.4-.6-.7-.9-.2-.2-.6-.4-.4-.8.1-.4.6-.2.9-.2 1.1 0 2.1.8 3.4.7-1-.7-1.7-1.4-2.4-2.2l-.7-1.2c-.2-.2-.2-.5 0-.7.3-.2.5 0 .7.2l1.4 1.5c1 1 2.2 1.6 3.3 2.4.4.2.6 0 1-.1a22.4 22.4 0 0 1-4.1-5.9c-.1-.2-.2-.5.1-.7.3-.1.5 0 .7.3l1.3 1.9c.7 1 1.5 2.2 2.6 3.3l.2-2.3c0-1 .4-1.3 1.3-1.2l3 .4c1 .2 1.5-.1 1.6-1.2l.1-1.3c.1-1.4.8-2 2.2-1.6h.4c-.2-1.3-1-2.4-.8-3.7.5 0 .7.5.8.8.6 1 1 2 1 3.2.1.5.3.8.7 1 1 1 2.3.5 3.3.3 1-.3.6-1.4.7-2.1.2-1.6.2-1.6 1.7-1.6h1.3c.7.4 1.3.7 2 .1Zm-.7 120 .1.2a22.5 22.5 0 0 1 3.4 6.6c.3 1 .7 1.6 1.6 2 2.2 1 4.3 2.2 6.5 3.3.4.2.5 0 .7-.3.5-1 1-1.8 1.8-2.5.6-.5.5-.7-.1-1-2.8-1.6-5.4-3.4-8.2-4.9-1.9-1-3.7-2.2-5.6-3.3l-.2-.2h-.2.2ZM78 109.7c0-.1-.2-.4-.4-.2s.2.3.3.4l.2.2c.1-.1 0-.3 0-.4Zm8.7-59.3c.3.5.4 1.2.4 1.8-.1 1.8-.6 2.1-2.3 2.2-.8 0-1.6-.2-2.3-.4-.5-.1-1-.4-1.5-.4 0 .8.4 1.4.9 2a40 40 0 0 1 2.2 2.8c1.1 1.6 1.5 3.4.5 5-.7 1-.1 1.3.2 1.8l.4.5c1.3 1.6 2.6 3.1 3.3 5 .5 1 .7 2.1.3 3.2-.5 1.7-1.3 1.9-2.5.7-1.4-1.4-3-2.6-4.8-3.4-.3-.2-.6-.5-1-.3 0 .4.3.6.5.8l2.3 2.5c1.5 1.7 3 3.4 3.5 5.7.2.9.3 1.7-1 2 1.4 1.5 2.3 3.2 2.7 5.1.3 1.3.4 2.5-.8 3.4l-.2.3c-.1.8-.5 1-1.2 1.1-1.3.2-1.5.6-1 1.9.2 1 .5 1.9.9 2.8.3 1 .4 1.8.4 2.7 0 .6 0 1.3-.7 1.5-.7.2-1.4.6-2 1-1 .5-1.4 1.7-.7 2.2 1.9 1.3 3.1 3.1 4.6 4.8.9 1 1.5 2.2.6 3.6-.2.3 0 .5 0 .7.5 1.6.5 3.2.4 4.8-.1 1.3-.7 2-2 1.8-1.8-.2-3.6 0-5.4-.6a7.2 7.2 0 0 0-3.6-.7c.4.5.9.8 1.4 1.2 2.6 1.8 5.3 3.5 7.8 5.5 3 2.4 6 4.6 9.2 6.8.2.1.3.3.6.2v.1l-1.1-4.9c-.8-3.7-1.2-7.5-1.7-11.3-.5-3-1-6.1-1.3-9.2l-.5-7-1-11.4c0-2.1 0-4.2-.4-6.3a137.2 137.2 0 0 1 0-28.7l.6-2.2a6.7 6.7 0 0 1 3.2-3.7c-1.4-.5-2.5-1.1-3.6-1.7-3.4-2-7.2-3-10.8-4.5 1.7 1.4 3.5 2.5 5 4 .7.9 1.2 1.9 1.2 3-.3.8-.8 1.6.3 2.1ZM217 147.6c.2 0 .2 0 .2-.2.3-.5.4-1 .6-1.7-4.5 3.1-9.4 5-14.4 7.3 1.4.5 2.6.5 3.8.4 2.3 0 4.6-.6 6.7-2 1.4-1 2.6-2.1 3.1-3.8Zm-86.9 12h-.2v.2c.7 1.1 1.7 2 2.8 2.6 1.4.9 3 0 3.3-1.6.2-1.5-.4-2.8-.7-4.2-.2-.6-.6-.6-1-.2-1 .8-1.7 1.8-1.8 3.1-.1.7-.5.9-1 .6l-1.4-.5Zm-12.8-13.1s0 .1.1 0c-.1-.4-.4-.6-.6-.8-1.3-1.2-2.5-2.4-4.1-3.2-2.6-1.3-5-2.9-7.5-4.2-1.5-.8-3-1.6-4-3.1-.5-.8-1-.8-1.7-.6-.7.2-1 .8-1.2 1.3-.2.3.5.5.8.7l.2.1c4 2.4 8.2 4.5 12.4 6.8 1.9 1 3.6 2.1 5.6 3Zm39.3 16.9c-.5-.5-1-.2-1.5-.2-2.2-.3-4.5 0-6.7-1-.7-.3-1.6-.4-2.4-.6l-.5 3.8c-.6 1.8-1.5 3.3-3 4.8 1.5 0 2.7-.3 3.9-.6 4-1 8-2.1 10.2-6.2ZM120.4 151h.1a3 3 0 0 0-1.3-2c-2.1-1.3-4.2-2.6-6.4-3.7-5-2.6-10-5.2-14.7-8-.2-.2-.5-.5-.7-.2-.6.8-1.1 1.6-1.2 2.6.3-.2.5-.3.6-.6.3-.3.7-.3 1-.1l4 2c5.5 3.3 11 6.5 17 9.3.5.2 1 .6 1.6.7Zm-36-26.6-.6-.4c-.4-.4-1-1-1.4-1-.4.2-.5 1-.5 1.7-.2 2.9.2 5.7 1.3 8.5 1.7 4 4.5 6.8 8.6 8.3.7.3 1.4.3 2.2.1.5 0 1.2-.3 1.3-.8 0-.5-.7-.8-1.3-1l-4.9-3.6c-.5-.4-1-.8-.6-1.6l-.2-.5c-2.3-2.2-2.6-4.8-2-7.8.2-.3.1-.5-.2-.7l-1.8-1.2Zm51 46c2.4.5 4.7.4 6.6-1.4 1-1 1.7-2.2 2.2-3.5a9 9 0 0 0 .4-2.5c0-1.4-.4-2.5-2-3-1.1-.4-2.2-1-3.3-1.8L137 157c.2 1 .4 1.7.4 2.5.2 1.5 0 3-1.5 4-1.4.9-3 .8-4.4-.3a10.5 10.5 0 0 1-3.4-4.3l-.6-.7-4.2-2.5c-.2-.1-.4-.5-.7-.2-.2.2 0 .5 0 .8l1 3.3c2 5.2 5.4 8.7 10.6 10.6.4 0 .8.3 1.2.2ZM94.1 37.2H94v.1c.5 1.2.3 1.6-.9 2-.9.2-1.9.2-2.9.3-.8 0-1.7 0-2.6.4l1.7 1.2c.4.3.8.5.6 1-.2.7-.7.6-1.2.5-.6 0-1.2-.2-1.8-.4 0 0-.2-.1-.2 0-.1.1 0 0 .2.1 2.5 2 5.5 3 8.4 4.5.2.1.3 0 .5-.1 3.4-2 7-3.4 10.5-5 3.6-1.4 7-2.9 10.7-4.2a167 167 0 0 1 22.8-6.2c5.7-1.2 11.3-2.5 16.7-4.1-10-3.4-20-6.9-30.6-8.9l1 1.8c.7 1.8.2 3-1.6 3.7-1.2.5-2.5 1.3-4 .8h-1.1c1.2 2.7 1 2.9-1.6 2.8l-1.2-.3c-.7-.2-1.3-.1-1 .9l-.2 1.7c-.5 1-1.4 1.4-2.3 1.7-.9 0-1.7 0-2.5-.5-.7-.3-1.3-.9-2-1.5-.2-.2-.4-.4-.8-.2s-.7.4-.6 1v.5c0 2.2-.8 2.9-3 2.6l-2.9-.5c-.5-.1-.8 0-.8.7v1.8c.3 2-.9 2.3-2.3 2.4-1.7.2-3.2-.2-4.8-.6Zm1.6 16c-.5 1-.8 2-1 3-.2 1-.6 2-.5 3.2l.6 11.7 1 16.8c.1 2.9.4 5.8.3 8.8l.1.5c.8 3.2.9 6.5 1.2 9.7.3 2 .2 4 .6 6 .6 2.6.8 5.2 1.1 7.9.6 4 1.2 8 2.6 12a8 8 0 0 0 3.7 4.2c2.5 1.6 5 3 7.6 4.3 2.2 1.2 4.3 2.6 6.5 3.6v.1-.1l-.2-4.8-.6-11.8c-.3-5.4-.8-10.8-1-16.3 0-2.6 0-5.2-.2-7.7l-1-18.2c0-1.6 1-2.7 2.3-2.5l1.5.4c2.8 1.4 5.9 2.4 8.8 3.6l6.6 2.8c.7.3 1.5.8 1.3 1.7-.2 1.5 0 3 .2 4.5.4 4.8 1 9.6 1.2 14.4.4 5.2.6 10.5.8 15.7.2 6.3.2 12.6.8 18.8l1 11.5c0 .4 0 .7.4.9 2.5 1.2 4.9 2.6 7.7 3v-.8l-.8-9.4a280 280 0 0 1-1.4-16.4 9 9 0 0 0-3-6.7c-.4-.4-.6-.9-.7-1.5l-.4-3.6c-1-5.5-1.5-11-1.6-16.6-.1-4.9 0-9.8.3-14.6.2-4.8.8-9.5 1.9-14.2l.4-1.1a7 7 0 0 1 4.3-5.2c.4 0 .7 0 1-.3l1-.3 18.4-6.2c10-3.3 20.3-5.7 30.3-9 7-2.5 14.3-4.7 21.6-6.4.3 0 .8 0 .9-.4 0-.4-.4-.6-.7-.7a193 193 0 0 0-16.2-7.6c-10.2-4.3-21-6.4-31.8-8.8-4-1-8-.9-12-.3-5.8.9-11.3 2.1-17 3.3l-7 1.7h-.4c-9 2.3-18 5.2-26.7 8.4-3.4 1.2-6.8 2.4-10 4-.5.2-1 .4-1.4.8-1 1.3-1.8 2.7-2.4 4.2Zm97.1 102 1.7-.5 8.2-2.8c1.6-.5 3.3-1 4.7-1.9l.4-.1.6-.4c2-.8 3.7-2 5.6-3 .6-.3 1-.8 1.2-1.5.6-1.4.7-2.8.9-4.3.4-3.2.6-6.5.2-9.8-1 .4-1.7 1-2.6 1.3-6.8 3.3-13.9 5.8-21.1 8-5.6 1.7-11.2 3.2-16.9 4.6l-2.4.5c-.6 0-.7.4-.7.9 0 4.2.2 8.4.4 12.7 0 1 .4 1 1.1.8 3.4-.6 6.8-1.2 10.1-2 2.5-.7 5-1.2 7.5-2.1h.3l.3-.2h.1c.2 0 .3 0 .5-.2Zm-50-41 .3 3.2c.2 1.9.9 3.6 1 5.4 0 2.5.6 4.7 2.7 6.3l.2.3c.7 1.3 1 2.7 1.2 4.2.2 4.3.4 8.6.9 12.9.5 4.5 1 9 1.2 13.7 0 .6.3 1 1 1.2 1 .2 2 0 3 .1 5.8.4 11.4-.5 17-1.4.4 0 .5 0 .5-.4 0-4.3-.3-8.6-.5-13 0-2.2 0-2.1 2.2-2.7 7.5-1.7 15-3.7 22.4-6.1a111 111 0 0 0 20.2-8.3c.9-.5 1.5 0 1.5 1 0 3.2 0 6.5-.2 9.7-.1 1.5-.4 3-.7 4.6l3.3-2.4c3.3-1.8 5.3-4.7 6.4-8.2 3.2-9.7 5-19.6 4.6-29.8 0-1.5-.4-2.6-2-3l-.2-5.6V92c.2-6.3 0-12.6-.5-19a88.5 88.5 0 0 0-5.3-22.8c-.1-.3-.2-.7-.8-.6-3.3.8-6.7 1.4-10 2.4-5.9 1.6-11.6 3.7-17.5 5.5-9 2.8-18.1 5.1-27 8-6.1 2-12.1 4.1-18.2 6a6 6 0 0 0-4.4 4.1c-1.3 4.1-1.9 8.3-2.2 12.6-.4 4.6-.4 9.1-.5 13.7-.1 4.1 0 8.2.5 12.2Zm-3 42.8v-.4c-.6-5.7-1.2-11.4-1.5-17.1l-.6-19-.6-11.2c-.4-5.4-1-10.9-1-16.4 0-.7-.4-1.2-1-1.5l-2.8-1.2c-4.3-1.6-8.6-3.1-12.7-5.2-1-.6-2-.1-2 1l.6 8.8c.4 4.6.6 9.2.6 13.9 0 3 .2 5.8.5 8.8.5 5.3.6 10.6 1 16l.5 11.7c0 .5.2.8.6 1 5.7 3.2 11 6.9 16.8 10l1.5.8Zm20.8-127.4c-.6-1.1-2-1.7-3.2-1.3-3.6.9-7.2 1.9-10.9 2.7-6.3 1.4-12.8 2.6-19.1 4.5-11 3.2-21.7 7.3-32 12.6a5 5 0 0 0-2.7 3.1 35 35 0 0 0-1.5 8.9c-.1 6 0 12 .4 18l.8 9.5 1 12.1c.3 2.5.3 5 .7 7.6 1 7 1.8 14.1 3.2 21.1.3 1.7.6 3.4 1.7 4.8.4.4.7.4 1.1.2.5-.3.1-.6 0-.8a60.6 60.6 0 0 1-2.3-11.2c-.3-2.5-.4-5-.8-7.4-1-5.1-1.5-10.3-1.8-15.6-.2-3.6-.7-7.1-.8-10.7l-.7-11.9-.5-10.8-.2-5.8c0-2.3.5-4.6 1.3-6.8.6-2 1.5-3.8 3.4-4.7a261.5 261.5 0 0 1 62.9-18Zm-71 98.5c.6 2.2.9 4.4.3 6.6-.1.3 0 .6.3.9l4.3 3c.3.3.6.3.8 0a12 12 0 0 1 2.7-4c.2-.2.3-.4 0-.5-1-.3-1.6-1-2.3-1.5-2.1-1.4-4-3-6.2-4.5Zm-2-.7c-.6 1.6 0 4.2 1.2 5.2.3-2.3 0-4-1.2-5.2Zm9.2 14 2.1-.5c-.8-.6-1.5-.5-2 .5Z" fill="#000"/>
  <path d="m83.4 108.3 1.4 1.4c.2.3.4.6.8.3s.3-.7.1-1c0-.3-.6-.5-.2-.8.3-.3.7-.1 1.1.2.7.5 1.2 1 1 2-.3 1.7 0 3.5.4 5.2v.4c-1.1-1-2.3-1.5-3.5-2l-.7-.5c-.4-.1-.9-.2-1 .2-.2.4.4.3.6.5 1.4 1 2.9 2 4.5 2.8.5.3.1.9 0 1.3 0 .4-.3.5-.7.4-1.5-.5-3.2-.7-4.4-2.1-.5-.7-1.3-.9-2-1-.3-.1-.8-.3-1 0-.1.4.3.7.6.8l3 2 .4.3c-.4.1-.8 0-1.1-.1-2-.7-4-1.4-6-1.4l-.4-.1c-1.1-1-2.5-1.7-3.9-2.7 1.2-.2 2.1.2 3.1.2l1.7.1c.3 0 .8-.1.8-.5 0-.8.5-.8 1-.9 1.6-.2 2.5-1.2 3.2-2.6.2-.4.3-1 1-.7.4 0 .5-.4.4-.7l-.6-.8.4-.2Z" fill="#E5C490"/>
  <path d="M120 26.5c-.7.6-1.3.3-2 0a27 27 0 0 1-5-3.9c-.3-.3-.5-.7-.3-1.2.3 0 .5.1.8.3l5.5 4.4c.3.2.6.5 1 .4ZM71.2 109.4c-.1 1-.5 1.6-2 1.7-.6 0-1-.2-1.1-.9 0-1 .7-2.1 1.6-2.1.9 0 1.5.5 1.5 1.3Zm-2.2.4c-.1.3 0 .5.5.5.4 0 .9-.2.9-.8 0-.4-.2-.8-.7-.8-.7 0-.6.5-.7 1ZM98.6 27.6c-.4-.2-.5-.8-.4-1.3.3-.9 1.3-1.4 2.2-1l.5.3c.4 0 .7.2.8.7 0 .4-.2.7-.6 1l-.9.6c-.4.5-1.2.3-1.6-.3.8.2 1.3-.4 1.9-.7.4-.2.2-.6-.1-.8-.4-.2-.8-.2-1.2 0-.5.4-.8.8-.6 1.5ZM122 18.2c0 .3 0 .6-.6.6-1.7 0-2.4-.5-2.3-1.4 0-1 .6-1.8 1.3-1.8 1 0 1.7 1 1.7 2.6Zm-1.5-.3c.5.2.9.2.9-.5 0-.6 0-1.2-.7-1.3-.8-.1-1 .5-1 1-.2.8.3.8.8.8ZM73.5 67.6c-.6 0-.9-.2-.9-.8 0-1.2.7-2 1.8-2 .7 0 1 .4 1 1 0 .8-1 1.8-2 1.8Zm-.2-.8c0 .1 0 .4.4.4.9 0 .5-.7.7-1 .2-.2.1-.5-.2-.5-.6 0-.8.4-.9 1ZM79.8 36.9c0-1 .7-1.5 1.5-2 .2-.2.5-.2.8 0 .3.2.3.5.3.9-.2.9-.9 1.5-1.4 2.1-.2.3-.6.3-.9.1-.4-.2-.3-.6-.3-1.1Zm1 .5c.4-.7 1-1 1-1.7 0-.1.1-.3 0-.4l-.5.1c-.3.6-.7 1-.5 2ZM76.4 88.5c0 1-.9 2-1.6 2-.6-.1-1-.6-.9-1.2 0-1.2.7-2 1.5-2 .7.1 1 .5 1 1.2Zm-.4.2c0-.3 0-.7-.5-.7-.7.1-1 .5-1 1.2 0 .4 0 .7.5.7.5-.1 1-.3 1-1.2ZM80.1 99.4v-.1.1Z" fill="#000"/>
  <path d="m136.6 35.8 7-1.7c5.7-1.2 11.2-2.4 17-3.3 4-.6 8-.6 12 .3 10.7 2.4 21.6 4.5 31.8 8.8 5.5 2.3 11 4.7 16.2 7.6.3.1.8.3.7.7 0 .4-.6.4-.9.4-7.3 1.7-14.5 3.9-21.6 6.3-10 3.4-20.3 5.8-30.3 9.1-6.2 2-12.3 4-18.4 6.2l-1 .2c0-.3-.3-.3-.5-.5-4.8-2.5-9.5-5.2-14.4-7.5a43.2 43.2 0 0 1-12.4-8.3l-3-2.8a3.7 3.7 0 0 1-1.4-4.2c1-3.3 3.3-5.4 6.5-6.6 3.9-1.6 7.9-2.9 11.8-4.2.3-.1.8 0 .9-.5ZM229 101.4c1.6.5 2 1.6 2 3a84.2 84.2 0 0 1-4.6 30 13.8 13.8 0 0 1-6.4 8.1l-3.3 2.4c.3-1.7.6-3.1.7-4.6.2-3.2.3-6.5.2-9.7 0-1-.6-1.5-1.5-1-6.4 3.6-13.3 6-20.2 8.3a263 263 0 0 1-22.4 6.1c-2.2.6-2.2.5-2.2 2.8l.5 12.9c0 .4-.1.4-.4.4-5.7.9-11.3 1.8-17 1.4l-3.1-.1c-.8-.2-1-.6-1-1.2-.2-4.6-.7-9.2-1.2-13.7-.5-4.3-.7-8.6-1-12.9 0-1.5-.4-2.9-1-4.2 2.6 0 5.3-.1 8-.6.6-.2 1-.2 1.6.3.5.4 1.2.3 1.8.2l1.3-.1c.5 0 .7 0 .7.6.1 1.4 1.1 2 2.5 1.7l1.8-.5c.7-.2 1.5 0 2-.6 3.6-.1 7.2-.1 10.8.4l2.9.3c.3 0 .6-.1.7-.4.2-.3.1-.6 0-.7-1.1-.4-.4-.9-.2-1.3l.5-1.3c.7-1.7.8-3.5.8-5.3.6 0 1.1-.2 1.7-.4 7.5-2.7 15-5.5 22.5-8.5v3.1c.3 1.9 1 3.4 2.5 4.6.4.3 1.1.3 1.4.7.6.8 1.1.6 1.7.2 1.7-1 3.3-2.1 4.9-3.3 2.3-1.7 4.8-3.3 6.7-5.5 1.9-.5 2.7-1.7 2.5-3.4 0-.5 0-1-.2-1.5-.6-1.8-.5-3.4.5-5.1.5-1 1-1.4 1.8-1.5h.8Z" fill="#C74FF1"/>
  <path d="M143.4 77.1a78 78 0 0 0-2 14.2c-.2 4.8-.3 9.7-.2 14.6a96 96 0 0 0 1.6 16.6l.4 3.6c0 .6.3 1.1.7 1.5a9 9 0 0 1 3 6.7c.3 5.5.8 11 1.4 16.4l.8 9.4v.7c-2.9-.3-5.2-1.7-7.7-2.9-.4-.2-.4-.5-.4-.9l-1-11.5c-.6-6.2-.6-12.5-.8-18.8-.2-5.2-.4-10.5-.8-15.7l-1.2-14.4c-.1-1.5-.4-3-.2-4.5.2-1-.6-1.4-1.4-1.7-2.1-1-4.3-2-6.5-2.8-3-1.2-6-2.2-8.8-3.6l-1.5-.4c-1.3-.2-2.3 1-2.3 2.5l1 18.2c.2 2.5.2 5.1.3 7.7.1 5.5.6 10.9.9 16.3l.6 11.8c0 1.6.3 3.2.2 4.8-2.3-1-4.3-2.4-6.5-3.6-2.5-1.4-5.1-2.7-7.6-4.3a8 8 0 0 1-3.7-4.2c-1.4-4-2-8-2.6-12-.3-2.7-.5-5.3-1-8-.5-2-.4-4-.7-6-.3-3.1-.4-6.4-1.2-9.6v-.5c0-3-.3-5.9-.5-8.8L94.8 71l-.6-11.7c0-1.1.3-2.1.5-3.2 1-.1 1.9.6 2.8.9.3 0 .3.3.3.6-.2.4 0 .6.4.6 2.2.5 4 1.7 6.1 2.5 7.2 3 14.4 6 21.3 9.5 3 1.6 6.2 3 9.4 4 .5.3 1 .6 1.6.2.2 0 .4 0 .6.2a16 16 0 0 0 6.2 2.4Zm-45 9.8c-.2 3.6.2 7 .4 10.5l.6 6.6c0 .8.3 1.5 1.1 1.9 3 1.6 6 3.2 9.3 4.3l3.3 1.2c1.3.3 1.5.2 1.4-1.1l-.1-2.3-.1-14.4v-9.2c-.1-1.1-.6-1.7-1.5-2.2-1.2-.8-2.5-1.3-3.8-1.8-2.6-.9-5.1-1.9-7.7-2.7-1.6-.6-2.3 0-2.6 1.7-.3 2.5-.3 5-.2 7.5Zm.6-16.5c-.2 1.5.1 3 .2 4.4a2 2 0 0 0 1.1 1.8l1.4.5c3.8 1.3 7.5 2.7 11 4.4.4.2.7.5 1.1.3.5-.2.4-.7.4-1.2L114 74c0-.4 0-.8-.4-1-.5-.2-.8-.6-1.3-.9-3.4-2.1-7.3-3.4-11-5l-1.5-.3c-.3 0-.5.2-.6.5-.5 1-.1 2-.2 3Z" fill="#9529B8"/>
  <path d="M142.9 114.1c-.6-4-.6-8-.5-12.2 0-4.6 0-9.1.5-13.7.3-4.3.9-8.5 2.2-12.6a6 6 0 0 1 4.4-4l18.1-6c9-3 18.1-5.3 27.1-8 5.9-1.9 11.6-4 17.6-5.6 3.2-1 6.6-1.6 9.9-2.4.6-.1.7.3.8.6a88.6 88.6 0 0 1 5.2 22.8c.5 6.4.8 12.7.7 19l-.1 4c-.4 0-.5.4-.7.6-.7.7-1.4 1.3-2.5 1.4-.2-6.8-.4-13.6-1.3-20.3l-.8-5c-.2-1-.4-1.2-1.5-.6l-2 1.1a168 168 0 0 1-42 13.6c-7.6 1.4-15 3.9-22.4 5.8-.5.2-.8.4-.8.9l-.2 2.4c-.3 9.2.6 18.3 2.2 27.4-.4 0-.8 0-1.3.2a27 27 0 0 1-5.7 1c-1.8 0-3.1-.7-3.9-2.4-.8-1.9-1.6-3.7-2.2-5.6-.2-.8-.2-1.7-.8-2.4Zm11.4-33.3c0 2.8.2 3.8 1.5 6.3a4.3 4.3 0 0 0 4.3 2.2l3.2-.7c4.7-1 9.3-2.7 14.1-3.7 4.5-.9 9-2.2 13.4-3.5a119.5 119.5 0 0 0 25.9-9.8c1.6-.2 2.4-1.3 2.9-2.8a12 12 0 0 0 0-5.7c-.3-2.1-1.6-3.8-2.7-5.5-.6-1-1.4-2-2.8-1.8-.7 0-1.4 0-2 .2-2.8.8-5.5 1.5-8.2 2.5-9 3-18 6.6-27 9.6-4.1 1.3-8.2 2.7-12.4 3.6-2.4.5-4.7 1.4-7 2.5a5.4 5.4 0 0 0-3.2 5v1.6Z" fill="#C74FF1"/>
  <path d="m139.7 157-1.5-.8c-5.7-3.1-11.1-6.8-16.8-10-.4-.3-.6-.5-.6-1l-.6-11.7c-.2-5.4-.4-10.7-1-16l-.3-8.8c-.1-4.7-.3-9.3-.7-14l-.5-8.8c0-1 .8-1.5 1.9-1 4.1 2.2 8.4 3.7 12.7 5.3l2.7 1.2c.7.3 1 .8 1 1.5.2 5.5.7 11 1.1 16.4.3 3.8.5 7.5.6 11.3l.7 18.9c.2 5.7.8 11.4 1.4 17.1v.4Zm-6.2-44.9h-.2v-8.3c0-2.5-.2-5-.5-7.4-.1-.5-.2-1-.9-1.3-3.1-1.4-6.2-2.9-9.6-3.6l-1-.1c-.2 0-.5 0-.4.3 0 .6-.3 1.1-.3 1.7 0 4 .5 8.1.7 12.2 0 1.8.5 3.7.1 5.6 0 .4.1.8.5 1a51 51 0 0 0 10.3 4c1 .2 1.3 0 1.3-1v-3Zm2.9 15.2v-5.4a8 8 0 0 0-.4-2.4c-.4-1-1.3-.8-2-.8-.8 0-.7.7-.7 1.2V131c0 .7 0 1.3.2 2 .2 1 .7 1.4 1.7 1.4.6 0 1.1-.7 1.1-1.6v-5.6ZM77.9 118.4c1.2-.2 2.4.2 3.6.6 1.7.7 3.6.4 5.4.6 1.3.2 1.9-.5 2-1.8 0-1.6 0-3.2-.4-4.8 0-.2-.2-.4 0-.7.8-1.4.3-2.5-.6-3.6-1.5-1.7-2.8-3.5-4.6-4.8-.7-.5-.3-1.7.7-2.2.6-.4 1.2-.8 2-1 .7-.2.7-.9.7-1.5a8 8 0 0 0-.5-2.7l-.9-2.8c-.4-1.3-.2-1.7 1-1.9.8-.1 1.2-.3 1.2-1 0-.2.2-.3.3-.4 1.2-.9 1-2.1.8-3.4-.4-1.9-1.3-3.5-2.7-5 1.3-.4 1.2-1.2 1-2.1-.5-2.3-2-4-3.5-5.7l-2.3-2.5c-.2-.2-.5-.4-.5-.8.4-.2.7.1 1 .3 1.8.8 3.4 2 4.8 3.4 1.2 1.2 2 1 2.5-.7.4-1 .1-2.2-.3-3.2-.8-1.9-2-3.4-3.3-5l-.4-.5c-.3-.5-.9-.8-.3-1.8 1.1-1.6.7-3.4-.4-5L82 55.7c-.5-.6-.9-1.2-1-2 .6 0 1 .3 1.6.4.7.2 1.5.4 2.3.4 1.7 0 2.2-.4 2.3-2.2 1.3.3 2.4 1 3.6 1.2a137.2 137.2 0 0 0 .1 28.7c.3 2 .3 4.1.5 6.2l.9 11.4.5 7 1.3 9.2c.5 3.8.9 7.6 1.6 11.3L97 132a161.6 161.6 0 0 1-9.8-7c-2.5-2-5.2-3.7-7.8-5.5-.5-.4-1-.7-1.4-1.2Z" fill="#9529B8"/>
  <path d="M118.5 27.5c2.6 0 2.8-.1 1.6-2.8h1.1c1.5.5 2.8-.3 4-.8 1.8-.7 2.3-2 1.6-3.7l-1-1.8c10.6 2 20.7 5.5 30.6 8.9a185 185 0 0 1-16.7 4C132 33 124.3 35 117 37.7c-3.6 1.3-7.1 2.8-10.7 4.2-.1-1 .3-2 .8-2.8 1.3-2.5 3.4-4.3 5.4-6.1.5-.4 1.2-.7 1.4-1.4 1-.3 1.8-.7 2.3-1.7 1-.5 2-1.2 2.4-2.3Z" fill="#C74FF1"/>
  <path d="m208.4 149.5-.6.4-.4.1c-1.5 1-3.1 1.4-4.7 2-2.7 1-5.4 1.8-8.2 2.7-.5.2-1 .4-1.7.5-.1 0-.3 0-.4.2h-.1l-.3.1h-.4c0-.1-.3 0-.4 0-1.8.4-3.6.7-5.5.6-1.5 0-3 .1-4.6-.2-1-.2-2.3 0-3.1-.8a8.4 8.4 0 0 1-3.1-7.8c.1-1 .7-1.6.8-2.5a372 372 0 0 0 16.9-4.6c7.2-2.2 14.3-4.7 21.1-8l2.6-1.3c.4 3.3.2 6.6-.2 9.8-.3 0-.4.3-.5.5-1.7 2.7-4 5-6.3 7.2-.3.4-1 .5-1 1.1Zm1.1-7-.4.1h-.1a2 2 0 0 0-1 .2c-8.3 2.5-16.6 5.1-25.2 6.9-1.5.3-1.6.6-1 1.9-.4.3-1.1.2-1 .8.2.8.9.5 1.4.4.6 0 1.2-.2 1.8-.4a144.8 144.8 0 0 0 27.4-9.5c.2 0 .4-.3.3-.6-.1-.3-.4-.3-.6-.2-.6 0-1 .2-1.6.4Zm2-4.2c.4 0 .8-.3 1.2-.5.5-.3.5-.8.4-1.2-.2-.5-.7-.5-1-.4l-1.4.6c-6 2.4-12 4.2-18 6.2l-11.4 3.8c-1 .3-1.3.8-1.2 1.6-.2.6 0 1 .8.9l2.4-.7c9.2-2.4 18-6 26.9-9.5.5-.2 1-.3 1.2-.8Z" fill="#817BAF"/>
  <path d="M143.4 77.1c-2.2-.3-4.3-1.2-6.2-2.4-.2-.2-.3-.3-.6-.2-.1-.8-1-.7-1.4-1 .4-.2.7-.2 1 0 .6.1 1.2 0 1.4-.5.2-.6-.2-1-.7-1.2l-2.5-1.2c-5.2-2.6-10.4-5.2-15.6-7.6l-9.8-4.4c-1.5-.6-3-1-4.5-1.8a89.5 89.5 0 0 0-8.8-3.6c.6-1.5 1.4-3 2.4-4.2.4-.4.9-.7 1.4-.8 1.4.7 3 1 4.2 2-.2.4 0 .6.4.7.6.2 1.1.3 1.6.6 9.6 4.2 19.2 8.3 28.7 12.8 2.4 1.1 4.8 2.2 7.3 3 0 .3.3.4.5.5l6 3a7 7 0 0 0-4.4 5.2l-.4 1.1Z" fill="#C74FF1"/>
  <path d="M160.6 29.6c-15.2 2.5-30.2 6-44.7 11-6.2 2.2-12.3 4.3-18.2 7.1-2 1-2.8 2.8-3.4 4.7a22 22 0 0 0-1.3 6.8c0 2 0 3.9.2 5.8l.5 10.8.7 11.9c.1 3.6.6 7.1.8 10.7.3 5.2.9 10.5 1.8 15.6.4 2.4.5 5 .8 7.4.5 3.7 1.2 7.5 2.3 11.2.1.2.5.5 0 .8-.4.2-.7.2-1-.2-1.2-1.4-1.5-3.1-1.8-4.8-1.4-7-2.1-14-3.2-21.1-.4-2.5-.4-5-.6-7.6l-1.1-12-.8-9.5c-.4-6-.5-12-.4-18.1 0-3 .7-6 1.5-8.9a5 5 0 0 1 2.8-3.1c10.2-5.3 20.9-9.4 31.9-12.6 6.3-1.9 12.8-3 19.1-4.5 3.7-.8 7.3-1.8 10.9-2.7 1.3-.4 2.6.2 3.2 1.3Z" fill="#9529B8"/>
  <path d="m148.1 70.8-5.9-3c-.2-.1-.4-.2-.5-.5.4-.6-.2-.8-.6-1l-5.8-2.6c-9.5-4.5-19.2-8.5-28.8-12.8-.9-.3-1.7-.9-2.8-.7-1.3-1-2.8-1.3-4.2-2a278.5 278.5 0 0 1 36.7-12.4h.4c-.1.4-.5.4-.8.5-4 1.3-8 2.6-12 4.2a10.4 10.4 0 0 0-6.4 6.6c-.5 1.6 0 3.2 1.3 4.2l3 2.8c3.7 3.6 8 6.2 12.5 8.3 5 2.3 9.6 5 14.4 7.6.2 0 .5.1.5.5-.2.2-.6.3-1 .3ZM113.8 31.5c-.3.7-.9 1-1.4 1.4-2 1.8-4 3.6-5.4 6.1-.5.9-1 1.7-.8 2.8-3.5 1.6-7.1 3-10.5 5-.2 0-.3.2-.5.1-2.9-1.4-5.9-2.5-8.4-4.5l1.8.3c.5 0 1 .2 1.2-.4.2-.6-.2-.8-.6-1L87.5 40c1-.5 1.8-.4 2.6-.4 1-.1 2 0 3-.3 1.1-.4 1.3-.8.9-2l.1-.1c1.6.4 3.1.7 4.8.6 1.4-.1 2.6-.4 2.4-2.5v-1.8c-.1-.6.2-.7.7-.7l3 .6c2 .3 3-.5 2.9-2.6v-.6c0-.5.2-.7.6-.9.4-.2.6 0 .9.2.6.6 1.2 1.1 1.9 1.5.8.4 1.6.6 2.5.5Z" fill="#9529B8"/>
  <path d="m135.4 170.4-1.2-.2a16.7 16.7 0 0 1-10.5-10.6l-1.1-3.3c0-.3-.2-.6 0-.8.3-.3.5 0 .7.2l4.2 2.5.6.7c.7 1.8 2 3.1 3.4 4.3 1.5 1.1 3 1.2 4.4.3 1.5-1 1.7-2.5 1.5-4 0-.8-.2-1.6-.4-2.5l2.3 1.2c1.1.7 2.2 1.4 3.4 1.8 1.5.5 1.9 1.6 1.9 3 0 .9-.2 1.7-.4 2.5-.8 0-1.6-.6-2.3.2-1.9 2-4 3.5-6.5 4.7Z" fill="#474173"/>
  <path d="M95.7 53.2c3 1 6 2.2 8.7 3.6l4.6 1.9c3.3 1.3 6.5 2.8 9.7 4.3 5.3 2.4 10.5 5 15.7 7.6l2.5 1.2c.5.2.9.7.7 1.2-.2.6-.8.6-1.3.4h-1c-4.1-1.4-8-3.4-11.8-5.3-7.5-3.7-15.4-6.5-23.1-10-.8-.3-1.6-.5-2.5-.4 0-.3-.1-.6-.4-.6-1-.3-1.7-1-2.8-.9.2-1 .5-2 1-3Z" fill="#C74FF1"/>
  <path d="M142.9 114.1c.6.7.6 1.6.8 2.4.6 1.9 1.4 3.7 2.2 5.6.8 1.7 2.1 2.4 3.9 2.3 2-.1 3.9-.4 5.7-.9.5-.1.9-.3 1.3-.2l.8 3.9c.1.7.5 1 1.3.8 1.1-.3 2.3-.4 3.3-.8 1.2-.5 1.8 0 2.4.8.9 1.2 1 1.1-.3 1.8.7.4 1.7.2 2.5.6-.5.6-1.3.4-2 .6l-1.8.5c-1.4.4-2.4-.3-2.5-1.7 0-.5-.2-.7-.7-.6h-1.3c-.6.2-1.3.3-1.8-.1-.5-.5-1-.5-1.7-.3-2.6.5-5.3.6-8 .6l-.2-.3c-2.1-1.6-2.7-3.8-2.8-6.3 0-1.8-.7-3.5-.9-5.4 0-1-.3-2.1-.2-3.3Z" fill="#9529B8"/>
  <path d="M175.7 144.8c0 .9-.7 1.6-.8 2.5-.5 3.2.8 5.7 3 7.8 1 .7 2.2.6 3.2.8 1.5.3 3.1.2 4.6.2 1.9 0 3.7-.2 5.5-.6h.5c-2.5 1-5 1.5-7.5 2.2a178 178 0 0 1-10 2c-.8.1-1.2.2-1.2-.8l-.4-12.7c0-.5.1-.8.7-.9l2.4-.5ZM91.8 141.5c-4.1-1.5-6.9-4.4-8.6-8.3a18.8 18.8 0 0 1-1.3-8.5c0-.7 0-1.5.5-1.6.5-.2 1 .5 1.4 1-.6 0-1 .2-1.1.9-.1 1-.4 2.2-.2 3.3 0 .6.2 1 .8 1 .7 0 .8-.4.8-1l.2-3.9 1.8 1.2c.3.2.4.4.3.7-.7 3-.4 5.6 1.9 7.8.1.2.3.3.2.5-.4.8 0 1.2.6 1.6l5 3.6c-.6 1-1.6 1-2.3 1.7ZM119.5 146.6c1.9 1.1 3.7 2.3 5.6 3.3 2.8 1.5 5.4 3.3 8.2 4.8.6.4.7.6.1 1-.8.8-1.3 1.6-1.8 2.6-.2.4-.3.5-.7.3l-6.5-3.3c-.9-.4-1.3-1-1.6-2-.7-2-1.7-4-3-5.8-.1-.2-.4-.4-.4-.8l.1-.1Z" fill="#474173"/>
  <path d="M225.6 98c1 0 1.8-.7 2.5-1.4.2-.2.3-.6.7-.7l.3 5.5h-.8c-.9.2-1.4.7-1.8 1.6-1 1.7-1 3.3-.5 5l.2 1.6c.2 1.7-.6 2.9-2.5 3.4.1-.7.1-1.2-.8-.6l-1 .5c.7-2.8.8-5.5.3-8.2 0-.4.2-.6.5-.7l2.1-1.1c.5-.2.6-.5.7-1l.1-3.9Z" fill="#9529B8"/>
  <path d="M89.5 128.1c2.1 1.5 4 3.1 6.2 4.5.7.5 1.4 1.2 2.2 1.5.4.1.3.3.1.5a12 12 0 0 0-2.7 4c-.2.3-.5.3-.8 0l-4.3-3c-.3-.3-.4-.6-.3-1 .6-2.1.3-4.3-.4-6.5ZM120.4 151c-.6 0-1.1-.5-1.7-.7-5.9-2.8-11.4-6-17-9.3l-4-2c-.3-.2-.6-.2-.9.1a2 2 0 0 1-.6.6c0-1 .6-1.8 1.2-2.6.2-.3.5 0 .7.1 4.8 2.9 9.7 5.5 14.7 8l6.4 3.8a3 3 0 0 1 1.2 2Z" fill="#474173"/>
  <path d="M156.7 163.4c-2.2 4-6.2 5.1-10.2 6.2-1.2.3-2.4.6-3.9.6 1.5-1.4 2.4-3 3-4.8 1.8 0 3.5-.2 5.3-.4 2-.3 3.9-1 5.8-1.6Z" fill="#817BAF"/>
  <path d="M117.4 146.5c-2-.9-3.7-2-5.6-3-4.2-2.3-8.3-4.4-12.4-6.8h-.2c-.3-.3-1-.5-.8-.8.2-.5.5-1 1.2-1.3.7-.2 1.2-.2 1.7.6 1 1.5 2.5 2.3 4 3.1 2.5 1.3 5 3 7.5 4.2 1.6.8 2.8 2 4 3.2.3.2.6.4.6.7Z" fill="#474173"/>
  <path d="M91.1 45.7c1.1.6 2.2 1.2 3.6 1.7-1.6 1-2.7 2-3.2 3.8-.5 0-.9-.3-1.3-.5-1.2-.9-2.4-1.7-3.7-2.4 0-1.2-.5-2.2-1.2-3 .2-.4.4-.2.7-.1 1.5.4 3 1 4.6 1 .6.2.7 0 .5-.5Z" fill="#C74FF1"/>
  <path d="M156.7 163.4a33.3 33.3 0 0 1-11 2c0-1.3.2-2.5.4-3.8.8.2 1.7.3 2.4.6 2.2 1 4.5.7 6.7 1 .5 0 1-.3 1.5.2Z" fill="#474173"/>
  <path d="m130.2 159.6 1.3.5c.6.3 1 .1 1-.6.2-1.3 1-2.3 2-3.1.3-.4.7-.4.9.2.3 1.4 1 2.7.7 4.2-.3 1.7-1.9 2.5-3.3 1.6-1.1-.7-2-1.5-2.7-2.6l.1-.2ZM135.4 170.4c2.5-1.2 4.6-2.7 6.5-4.7.7-.8 1.5-.2 2.2-.2a7.8 7.8 0 0 1-2 3.5c-2 1.8-4.3 2-6.7 1.4ZM217.1 147.6a7.4 7.4 0 0 1-3.1 3.8c-2 1.4-4.3 2-6.7 2 0-.4.3-.5.5-.6l3.4-2.2c1.9-1.1 3.8-2.2 6-3Z" fill="#817BAF"/>
  <path d="M217.1 147.6c-2 .8-4 1.9-6 3l-3.3 2.2c-.2.1-.6.2-.6.6-1.1.1-2.3 0-3.7-.4 5-2.2 9.9-4.2 14.4-7.3a5 5 0 0 1-.6 1.7l-.2.2ZM208.4 149.5c0-.6.6-.7 1-1 2.2-2.3 4.5-4.6 6.2-7.3.1-.2.2-.4.5-.5-.2 1.5-.3 3-.9 4.3-.2.7-.6 1.2-1.2 1.5-1.9 1-3.7 2.2-5.6 3Z" fill="#474173"/>
  <path d="M91.1 45.7c.2.5.1.7-.5.6-1.6-.2-3.1-.7-4.6-1.1-.3-.1-.5-.3-.7 0-1.5-1.5-3.4-2.6-5-4 3.6 1.6 7.4 2.5 10.8 4.5Z" fill="#9529B8"/>
  <path d="M90.3 50.7c.4.2.7.5 1.2.5l-.7 2.2c-1.2-.2-2.3-.9-3.6-1.2 0-.6-.1-1.3-.4-1.8l3.5.3Z" fill="#C74FF1"/>
  <path d="M84.3 124.4c0 1.3 0 2.7-.2 4 0 .5-.1 1-.8 1-.6 0-.8-.5-.8-1-.2-1.2 0-2.3.2-3.4 0-.7.5-1 1.1-1l.5.4ZM87.6 127.4c1.1 1.3 1.5 3 1.2 5.2-1.2-1-1.8-3.6-1.2-5.2Z" fill="#817BAF"/>
  <path d="m90.3 50.7-3.5-.3c-1-.6-.6-1.4-.3-2.1 1.3.7 2.5 1.5 3.8 2.4ZM118.5 27.5c-.5 1.1-1.4 1.8-2.4 2.3 0-.5.2-1.1.1-1.7-.2-1 .4-1 1-1l1.3.4Z" fill="#9529B8"/>
  <path d="M91.8 141.5c.7-.6 1.7-.8 2.2-1.7.6.2 1.3.5 1.3 1s-.8.7-1.3.8c-.8.2-1.5.2-2.2 0ZM96.8 141.4c.6-1 1.3-1.1 2-.5l-2 .5Z" fill="#817BAF"/>
  <path d="M78.1 109.7c.2.1.2.3.1.4l-.2-.2.1-.2Z" fill="#fff"/>
  <path d="M78 110c-.1-.2-.5-.3-.3-.5s.3 0 .4.2l-.1.2ZM84.1 45.5l.3.3-.1.1-.4-.2.2-.2Z" fill="#fff"/>
  <path d="M192.4 155.4c.1-.2.3-.2.4-.2 0 .2-.2.2-.4.2ZM119.3 146.5l-.3-.1h.3ZM207.4 150l.4-.1c0 .1-.2.2-.4.1Z" fill="#474173"/>
  <path d="M86.8 42.4c-.1 0-.3 0-.2-.1 0-.1.2 0 .2 0v.1Z" fill="#9529B8"/>
  <path d="M217 147.6c.2 0 .2-.1.3-.2 0 .1 0 .2-.2.2Z" fill="#817BAF"/>
  <path d="m119.4 146.7-.1-.2.2.1v.1ZM117.4 146.4l.1.1c0 .1 0 0-.1 0ZM120.4 151h.1Z" fill="#474173"/>
  <path d="M119.5 144.9v.1-.1Z" fill="#9529B8"/>
  <path d="M87.6 41.4s.2 0 .1.2h-.2v-.2Z" fill="#fff"/>
  <path d="M192 155.5h.3-.3Z" fill="#474173"/>
  <path d="M96.9 132v.1Z" fill="#9529B8"/>
  <path d="M130 159.8v-.2h.2l-.1.2Z" fill="#817BAF"/>
  <path d="M84.4 45.8s.1 0 0 .1h-.2l.2-.1Z" fill="#fff"/>
  <path d="M77.9 118.3ZM94 37.3l-.1-.2h.2l-.1.2Z" fill="#9529B8"/>
  <path d="M69 109.8c.1-.6 0-1.1.7-1.1.5 0 .8.4.7.8 0 .6-.5.7-1 .8-.3 0-.5-.2-.3-.5Z" fill="#E5C490"/>
  <path d="M98.6 27.6c-.2-.7 0-1 .6-1.4.4-.2.8-.3 1.2-.1.3.2.5.6 0 .8-.5.3-1 .9-1.8.7ZM120.6 17.9c-.6 0-1 0-1-.7.1-.6.3-1.2 1-1 .9 0 .8.6.8 1.2 0 .7-.4.7-.8.5Z" fill="#C74FF1"/>
  <path d="M73.3 66.8c.1-.7.3-1 .9-1 .3 0 .4.2.3.4-.3.3.1 1-.8 1-.4 0-.4-.3-.4-.4ZM80.7 37.4c-.1-1 .3-1.4.6-2 .1 0 .3-.2.5 0v.3c0 .7-.6 1-1 1.7ZM76 88.7c0 .9-.5 1-1 1.2-.4 0-.6-.3-.6-.7 0-.7.4-1.1 1-1.2.5 0 .7.4.6.7Z" fill="#E5C490"/>
  <path d="m225.6 98-.1 3.9c0 .5-.2.8-.7 1l-2.1 1c-.3.2-.6.4-.5.8.5 2.7.4 5.4-.3 8.2l1-.5c1-.6 1 0 .8.6-2 2.2-4.4 3.8-6.7 5.5a47.5 47.5 0 0 1-4.9 3.3c-.6.4-1.2.6-1.7-.2-.3-.4-1-.4-1.4-.7a6.4 6.4 0 0 1-2.4-4.6v-4.6l-.6.2c-7.3 3.3-14.9 6-22.5 8.5-1 .3-1.4.7-1.2 1.7a17 17 0 0 1-.8 5.3l-.5 1.3c-.2.4-1 .9.1 1.3.2 0 .3.4.1.7-.1.3-.4.4-.7.4l-3-.3a66 66 0 0 0-10.7-.4c-.8-.4-1.8-.2-2.6-.6 1.3-.7 1.3-.6.4-1.8-.6-.8-1.2-1.3-2.4-.8-1 .4-2.2.5-3.3.8-.8.3-1.2 0-1.3-.8l-.8-4c-1.6-9-2.5-18-2.2-27.2l.2-2.5c0-.5.3-.7.8-.9 7.4-2 14.7-4.4 22.3-5.8a168 168 0 0 0 42-13.6c.8-.3 1.4-.8 2.1-1.1 1-.6 1.3-.5 1.5.6l.8 5c.9 6.7 1 13.5 1.3 20.3Zm-3.7 5.2c1.1-.2 1.9-.8 2.3-2l.2-1.8c0-8.5-.6-17-1.8-25.6-.1-.8-.4-.7-1-.4-10 5.6-21 9.1-32 12-5.8 1.6-11.6 2.6-17.4 3.9-4.8 1.1-9.6 2.7-14.5 3.9-1.6.4-2.2 1-2.1 2.7a151.7 151.7 0 0 0 2.7 28.6c.4 2.6.1 2.9 3 1.9h.2c1.4-.6 1.4-.6 1-2-.8-2.6-.7-5.3-.3-8 .2-1.2 0-1.5-1.2-1.7a2 2 0 0 1-1.4-1c1.2-.5 2.5-.6 3.8-.4a130.6 130.6 0 0 0 17.5.5c.5 0 1 0 1 .7 0 .6-.5.7-1 .7l-1.3.1c1.1 1.1 1.9 2.3 2.2 3.8.1.5.4.4.9.3l9-3c.5-.2.8-.5.9-1l.2-2.5c-.6-6-.8-12-1-18V91c.5.5.5 1 .6 1.4.6 7.4.8 14.8 1.9 22.2 0 .8.2.8.8.5l9.8-4c.6-.2 1.5-.3 1.3-1.3l.2-.5c.7-1 1.4-2 2.3-2.7l10.7-9.7c.3-.2.5-.3.9 0 .3.3.4.7 0 1-.7.5-.4 1 0 1.6a9.7 9.7 0 0 1 1.6 3.7Zm-51.3 12c-2-.1-4-.3-6.1-.2-.4 0-.7 0-.8.5a35 35 0 0 0-.3 5.5c0 2.1.7 4 1.8 5.8 1 1.4 2.1 2 3.9 2.1 3 0 6 0 9 .5.4.1.6-.1 1-.4a8 8 0 0 0 1.7-4.8c.3-3.2-.1-6.2-2.8-8.5a2 2 0 0 0-1.4-.5h-6Zm37.3-.4a6 6 0 0 0 2.1 5.2c.7.6 1.4.8 2.2.2l6.2-4.4a5 5 0 0 0 2-3c.6-2.3.8-4.6.5-7-.4-2-.7-4-1.7-6-.2-.4-.4-.6-.8 0a63.6 63.6 0 0 1-7 6.3c-1 1-2.3 1.8-2.8 3.3-.5 1.7-.8 3.4-.7 5.5Z" fill="#000"/>
  <path d="M182.3 122.1c-.3-1 .2-1.4 1.2-1.7 7.6-2.5 15.2-5.2 22.5-8.5.2 0 .4 0 .6-.2l-.1 1.5c-7.4 3-15 5.8-22.5 8.5-.6.2-1 .4-1.7.4Z" fill="#9529B8"/>
  <path d="M98.5 86.9c0-2.4-.1-5 .2-7.5.3-1.7 1-2.3 2.6-1.7 2.6.8 5.1 1.8 7.7 2.7 1.3.5 2.6 1 3.8 1.8.9.5 1.4 1 1.4 2.2.2 3 0 6.1 0 9.2l.2 14.4.1 2.3c0 1.3-.1 1.4-1.3 1l-3.4-1.1c-3.3-1.1-6.3-2.7-9.3-4.3-.8-.4-1-1.1-1.1-2l-.6-6.5c-.2-3.4-.5-6.9-.3-10.5Zm6.8 20v-6.1l-.2-10.7c0-.2-.1-.6.3-.7.3 0 .4.3.4.6l.4 3.1.6 13c0 1 .3 2 1.7 2.4 1.2.3 2.2.8 3.4 1.2 1 .4 1.3.2 1.3-1l-.2-4.7V85c0-1-.3-1.5-1-2-3.5-1.8-7.4-2.6-11-4.3-.7-.4-1 0-1.1 1l-.2 1.4c-.3 7.3 0 14.5.6 21.7.1.8.4 1.5 1 2 1.2 1 2.7 1.4 4 2ZM99 70.4c.1-1-.3-2 .2-3.1.1-.3.3-.5.6-.5.5 0 1 0 1.5.3 3.7 1.6 7.6 2.9 11 5l1.3 1c.4.1.3.5.4.9l.2 6.6c0 .5.1 1-.4 1.2a95.3 95.3 0 0 0-13.5-5.3 2 2 0 0 1-1.1-1.7c0-1.5-.4-3-.2-4.4Zm14 10.3c0-2.4-.3-4.5-.2-6.7 0-.4-.2-.5-.6-.7-3.6-2-7.5-3.5-11.3-5.2-.8-.4-.8-.1-.8.5 0 1.8 0 3.5.2 5.2.1 1.6.1 1.6 1.6 2.2 3.7 1.3 7.6 2.4 11.2 4.7ZM97.9 57.7c.9-.1 1.7.1 2.5.5 7.7 3.4 15.6 6.2 23.1 10 3.8 1.8 7.7 3.8 11.7 5.2.5.4 1.3.3 1.4 1-.5.5-1 .2-1.6 0a74.2 74.2 0 0 1-9.3-4.1c-7-3.6-14.2-6.4-21.4-9.5-2-.8-4-2-6.1-2.5-.4 0-.6-.2-.3-.6ZM154.3 80.8V79c0-2.3 1.2-3.9 3.3-5 2.2-1 4.5-2 6.9-2.4 4.2-.9 8.3-2.3 12.3-3.6 9.1-3 18-6.5 27.1-9.6 2.7-1 5.4-1.7 8.1-2.5.7-.2 1.4-.2 2-.2 1.5-.2 2.3.8 2.9 1.8 1.1 1.7 2.4 3.4 2.8 5.5.3 2 .4 3.8-.1 5.7-.5 1.5-1.3 2.6-3 2.8l-.5.1c-8 4.4-16.5 7.3-25.3 9.7-4.4 1.3-8.9 2.6-13.4 3.5-4.8 1-9.4 2.7-14.1 3.7l-3.2.7c-1.6.3-3.6-.7-4.3-2.2a11.2 11.2 0 0 1-1.5-6.3Zm6.6-6.7c-1.2.2-2.2 1-3.3 1.3-.5.1-.8.4-1.1.8-.9 1-1 2.4-1 3.6-.2 2.4 0 4.8 1.4 7 .7 1.1 1.8 1.4 3 1.2 2-.3 4.1-.7 6.2-1.3 3.2-1 6.4-2 9.7-2.6 2.4-.5 4.8-1.2 7.1-1.8h.4c.1 0 .3 0 .4-.2h.3l.3-.2a58.4 58.4 0 0 0 .8-.2 233 233 0 0 0 15-4.4c4.6-1.5 9-3.4 13.4-5.5l2.2-.8a3.7 3.7 0 0 0 2.9-3 11 11 0 0 0-.4-5.6c-.1-.5-.3-1.1-.8-1.5a7.7 7.7 0 0 0-2.4-3.7 1 1 0 0 0-.9-.3c-2.5.2-5 .6-7.3 1.5l-18.8 7c-6.4 2.3-12.7 4.7-19.3 6.3-2.5.6-5 1.1-7.4 2.2-.2 0-.3 0-.4.2ZM133.5 112.1v3c0 1-.3 1.4-1.3 1.1a51 51 0 0 1-10.3-4c-.4-.2-.6-.6-.5-1 .4-1.9 0-3.7-.1-5.6-.2-4-.8-8.1-.7-12.2 0-.6.4-1.1.3-1.7 0-.2.2-.3.4-.3h1c3.4.8 6.5 2.3 9.6 3.7.7.2.8.8.9 1.3.3 2.5.4 5 .5 7.4v8.3h.2Zm-11.8-19.6c0 6.2 1 12.2 1 18.2 0 .5.3.8.7 1 2.6 1 5 2.3 7.8 3 1.2.4 1.2.4 1.2-1l-.5-16.9c0-.7-.2-1-.9-1-1-.1-1.8-.6-2.6-1-2.1-1-4.4-1.6-6.7-2.3ZM136.4 127.3v5.6c0 .9-.5 1.6-1.2 1.6-1 0-1.5-.4-1.7-1.4l-.2-2v-11.2c0-.5 0-1.2.7-1.2s1.6-.3 2 .8c.2.7.4 1.5.4 2.4v5.4Zm-1.1-.6c-.2-1.9.2-4-.2-6.2 0-.3 0-.8-.4-.7-.4 0-.2.4-.2.7a1705.4 1705.4 0 0 0 .2 12c0 .3-.2.9.3.8.4 0 .3-.5.3-.8v-5.8Z" fill="#000"/>
  <path d="M180 148.4c0-.8.3-1.3 1.4-1.6l11.3-3.8c6-2 12.1-3.8 18-6.2l1.3-.6c.4 0 .9-.1 1 .4.2.4.2.9-.3 1.2-.4.2-.8.5-1.3.5-.2-.5-.6-.4-1-.3-2.6.7-5 1.8-7.6 2.7-6.1 2.3-12.2 4.7-18.6 6.4-1.3.4-2.8.6-4.1 1.3Z" fill="#474173"/>
  <path d="M209 142.7h.1c.2 0 .3 0 .4-.2l1.6-.4c.2 0 .5-.1.6.2 0 .3-.1.5-.3.6l-.9.5a145 145 0 0 1-26.5 9l-1.8.4c-.5.1-1.2.4-1.4-.4-.1-.6.6-.5 1-.8h.9a132 132 0 0 0 17-5.1c3-1.2 6.2-2.3 9.3-3.8ZM180 148.4c1.4-.7 2.9-.9 4.2-1.3 6.4-1.7 12.5-4.1 18.6-6.4 2.5-1 5-2 7.6-2.7.4 0 .8-.2 1 .3-.2.5-.7.6-1.2.8-8.9 3.4-17.6 7-26.9 9.5l-2.4.7c-.7.1-1-.3-.8-1Z" fill="#000"/>
  <path d="M209 142.7c-3 1.5-6.2 2.6-9.4 3.8-5.5 2-11.2 3.7-17 5l-.8.1c-.6-1.3-.5-1.6 1-2 8.6-1.7 16.9-4.3 25.2-6.8a2 2 0 0 1 1-.1ZM209.5 142.5c0 .1-.2.2-.4.1l.4-.1Z" fill="#474173"/>
  <path d="M103.7 50.2c1-.2 2 .4 2.8.7 9.6 4.3 19.3 8.3 28.8 12.8l5.8 2.6c.4.2 1 .4.6 1-2.5-.8-5-1.9-7.3-3-9.5-4.5-19.1-8.6-28.7-12.8-.5-.3-1-.4-1.6-.6-.4-.1-.7-.3-.4-.7Z" fill="#000"/>
  <path d="M221.9 103.2a9.7 9.7 0 0 0-1.6-3.7c-.4-.5-.7-1.1 0-1.7.4-.2.3-.6 0-1-.4-.2-.6-.1-1 .1l-10.6 9.7c-1 .8-1.6 1.7-2.3 2.7 0 .1-.3.3-.2.5.2 1-.7 1-1.3 1.3l-9.8 4c-.6.3-.7.3-.8-.5-1-7.4-1.3-14.8-2-22.2 0-.5 0-1-.4-1.4-.2 1.4-.2 2.7-.2 4 .3 6 .5 12 1 18 .1.8 0 1.6-.1 2.4-.1.5-.4.8-1 1l-9 3c-.4.1-.7.2-.8-.4-.3-1.4-1-2.6-2.2-3.7.5-.2.9 0 1.3 0 .5-.1 1-.2 1-.8 0-.7-.5-.7-1-.7h-4.3c-4.4 0-8.8-.1-13.2-.5-1.3-.2-2.6-.1-3.8.5.3.6.9.8 1.4 1 1.3.1 1.4.4 1.2 1.6-.4 2.7-.5 5.4.3 8 .4 1.4.4 1.4-1 2h-.2c-2.9 1-2.6.7-3-1.8-1-5.7-2-11.4-2.3-17.2l-.4-11.5c0-1.7.5-2.3 2.1-2.7 4.9-1.3 9.6-2.8 14.5-4 5.8-1.2 11.6-2.2 17.4-3.7 11-3 22-6.5 32-12.1.6-.3.9-.4 1 .4a185 185 0 0 1 1.6 27.5c-.4 1.1-1.2 1.7-2.3 1.9Zm-17.4-2.3c0 1.4.7 2 2 1.9.8-.1 1.2-.7 1.5-1.4l2-5 5-12.4c.3-.6.4-1.4-.1-2-1-1.2-2.6-.8-3.3 1l-6 14.8c-.4 1-1 2-1 3.1Zm-37.8-5.4c-.7 0-1.2.5-1.5 1.1-.3.8-.1 1.5.5 2.1l4 4 7.2 8c.8.8 1.7.8 2.4.2.7-.7.8-1.8.1-2.6-2.4-2.7-4.7-5.5-7.3-8-1.2-1.3-2.6-2.5-3.7-4-.4-.5-1-.7-1.7-.8Zm12 7v1.3c.2 1.4 1.6 2 2.8 1.3.7-.4.8-1.2.8-2 0-1.7.2-3.5.4-5.3.1-1-.8-2.1-1.6-2.2-1-.1-1.9.5-2 1.6l-.4 5.4Zm19.4-9.4.9 6c.1 1 1 1.6 2 1.4 1-.2 1.6-1.3 1.4-2.2l-.3-2.5c-.2-1.1-.2-2.3-.6-3.4-.3-.9-1.3-1.5-2-1.4-.8.1-1.4 1-1.4 2Z" fill="#DEEAFE"/>
  <path d="M170.6 115.2h6c.5 0 1 .2 1.4.5 2.7 2.3 3.1 5.3 2.8 8.5a8 8 0 0 1-1.8 4.8c-.3.3-.5.5-1 .4-3-.5-6-.4-9-.5-1.7 0-2.8-.7-3.7-2.1a10.6 10.6 0 0 1-2-5.8c0-1.8.2-3.6.4-5.5.1-.5.4-.5.8-.5 2-.1 4 0 6.1.2Zm4.5 7.3c.1-1.2-.2-2.2-.6-3.3-.3-.7-.8-1-1.6-1-1 0-1.2.7-1.5 1.4-.3.8.3 1 .8 1.3.2.1.4.4.4.8 0 .2-.3.3-.5.3-1.2 0-1.1.7-1 1.5l.4 1.1c.2.8.6 1.4 1.5 1.5 1 0 1.6-.5 2-1.5a6 6 0 0 0 .1-2.1ZM207.9 114.8c0-2 .2-3.7.7-5.4.5-1.5 1.7-2.4 2.8-3.3 2.5-2 4.9-4 7-6.4.4-.5.6-.3.8.1 1 2 1.3 4 1.7 6 .3 2.3.1 4.7-.4 7a5 5 0 0 1-2.1 3c-2 1.4-4 3-6.2 4.4-.8.6-1.5.4-2.2-.2a6 6 0 0 1-2.1-5.2Zm8.8-4.1c0-.8 0-1.5-.2-2.3-.2-.7-.6-1-1.3-1-1 .1-2 1.3-2 2.3 0 .3.1.3.3.3.4 0 .6.2.6.6 0 .5-.3.6-.6.7-.3.1-.7.1-.7.5-.1 1.2-.4 2.3 0 3.5.5 1.2 1.5 1.3 2.4.4 1.5-1.4 1.5-3.3 1.5-5Z" fill="#fff"/>
  <path d="M105.3 106.8c-1.3-.6-2.8-1-4-2-.6-.5-.9-1.2-1-2-.6-7.2-1-14.4-.6-21.7l.2-1.5c0-1 .4-1.3 1.2-.9 3.5 1.7 7.4 2.5 10.9 4.3.7.5 1 1 1 2v19l.2 4.7c0 1.2-.2 1.4-1.3 1-1.2-.4-2.2-1-3.4-1.2-1.4-.4-1.7-1.4-1.7-2.5l-.6-12.9c0-1-.3-2-.4-3 0-.4 0-.7-.4-.7s-.3.5-.3.7l.2 10.7v6Zm6.1-10.7-1-4c-.8-3-1.4-6-2.5-9-.4-1-1-1.4-1.9-1.2-.6.2-1 1-.7 1.8 1.3 3.7 2 7.5 3 11.2.3.7.3 1.5 1 2 .3.5.8.7 1.3.5.5-.2.8-.7.8-1.3Zm-9.3.2c1 0 1.6-.5 1.4-1.3l-1-6.1c0-.6-.5-1.2-1.3-1.1-.7 0-1.4.7-1.2 1.5.3 2 .4 4 .9 6 .2.6.5 1 1.2 1ZM113 80.7c-3.5-2.3-7.4-3.4-11-4.7-1.6-.6-1.6-.6-1.7-2.2-.2-1.8-.2-3.5-.2-5.2 0-.6 0-.9.8-.5 3.8 1.7 7.7 3.2 11.3 5.2.4.2.6.3.6.7l.3 6.7Zm-3.4-4.6c0-.4-.2-.6-.4-.8l-2.4-2.2-2.2-2c-.7-.3-1.3-.5-1.8.2s-.4 1.4.2 2a66 66 0 0 0 4.5 3.9c.4.3 1 .5 1.4.2.4-.3.8-.7.7-1.3Z" fill="#DEEAFE"/>
  <path d="M184 82h-.3c-.3-.2-.4 0-.4.2h-.4s-.2-.1-.4 0a89 89 0 0 1-10.3 1.9c-3 .4-6.2.8-9.3.6a3 3 0 0 1-1.2-.4c-3.7-1.9-4.2-8.1-1-9.7l.2-.5c.1 0 .3 0 .4-.2 2.3-1 4.8-1.6 7.4-2.2 6.6-1.6 12.9-4 19.3-6.3l18.8-7a26 26 0 0 1 7.3-1.5c.4 0 .6 0 .9.3 1.1 1 2 2.2 2.4 3.7l-.1 2c-.1 2.4-.7 4.7-2.1 6.7-.6.7-1.3 1.3-1.7 2.2-4.3 2.1-8.8 4-13.3 5.5a235.8 235.8 0 0 1-15.6 4.5l-.3.1-.3.1Zm-14 .6c.1 0 .5 0 .8-.2l5.1-1.7 18.4-4.4 12.4-3c.7-.3 1.5-.3 2.2-.7 1-.7 1.4-1.6 1-2.6-.5-.8-1.7-1.1-2.7-.7-2.3 1.2-4.8 2-7.3 2.9-5.4 1.8-11 3-16.6 4.4a80 80 0 0 1-8.7 1.7c-1.8.2-3.6.5-5.4 1.1-.9.4-1.3 1.2-1 2.1.1.9.8 1.1 1.7 1.1Zm5.9-6.2c.5 0 1-.4 1.6-.6 8.5-2.7 16.7-6.7 25.5-8.4.9-.2 1.4-1 1.4-1.8-.1-.9-.9-1.5-1.8-1.6-.7 0-1.4.1-2 .4l-6 2.5c-5.5 2.3-11 4.3-16.9 6l-2.3.6c-.8.3-1.2 1-1 1.7.1.8.6 1.2 1.5 1.2Z" fill="#817BAF"/>
  <path d="M160.9 74.1c0 .2 0 .4-.3.5-3 1.6-2.6 7.8 1 9.7.4.2.9.4 1.3.4 3.2.2 6.2-.2 9.3-.6 3.5-.5 7-1.1 10.3-2 .2 0 .3 0 .4.2l-7 1.8c-3.4.6-6.6 1.6-9.8 2.6-2 .6-4.1 1-6.2 1.3-1.2.2-2.3 0-3-1.3a11.5 11.5 0 0 1-1.4-6.9c0-1.2.1-2.5 1-3.6.3-.4.6-.7 1-.8 1.2-.3 2.2-1.1 3.4-1.3ZM213.5 71.8c.4-.9 1.1-1.5 1.7-2.2 1.4-2 2-4.3 2-6.7l.2-2c.5.4.7 1 .8 1.5.6 1.8.7 3.7.4 5.6a3.7 3.7 0 0 1-2.9 3l-2.2.8ZM183.3 82.2c0-.2.1-.4.4-.1-.1.1-.3.2-.4.1ZM161.3 74l-.4.1c0-.2.2-.2.4-.2ZM184.6 81.8h.5-.5ZM184 82h.3-.3Z" fill="#474173"/>
  <path d="M121.7 92.5c2.3.7 4.6 1.3 6.7 2.3.8.4 1.7.8 2.6 1 .7 0 .9.3.9 1l.5 17c0 1.3 0 1.3-1.2 1-2.7-.8-5.2-2-7.8-3.1-.4-.2-.6-.5-.6-1-.2-6-1-12-1-18.2Zm6 11.1c-.8-1.7-1.7-3.4-2-5.3 0-.7-.5-1-1.2-1-.6 0-1.1.2-1.2.9l.1 1.8c1.2 3.8 3 7.5 4.5 11.2.2.5.7 1 1.4.8.6 0 1-.4 1.2-1 0-.5-.2-1-.4-1.5l-1.7-3.7c-.1-.3-.3-.6.3-.5 1.2.2 1.7-.3 1.8-1.5 0-1 0-2-.2-3-.2-.6-.6-1-1.3-1.2-.5-.2-1 0-1.2.5-.3.5-.2 1 0 1.5.1.7 0 1.3-.1 2Z" fill="#DEEAFE"/>
  <path d="M135.3 126.7v5.8c0 .3 0 .7-.3.8-.5 0-.3-.5-.3-.7l-.2-1v-11.1c0-.3-.2-.7.2-.7s.3.4.4.7c.3 2.1 0 4.3.2 6.2Z" fill="#474173"/>
  <path d="M204.5 100.9c0-1.1.7-2 1.1-3l6-15c.7-1.7 2.2-2 3.3-.9.5.6.4 1.4.2 2l-5 12.3-2.1 5.1c-.3.7-.7 1.3-1.4 1.4-1.4.1-2-.5-2-1.9ZM166.7 95.5c.7 0 1.3.3 1.7.8 1.1 1.5 2.5 2.7 3.7 4 2.6 2.5 5 5.3 7.3 8 .7.8.6 1.9-.1 2.6-.7.6-1.6.6-2.4-.2l-7.2-8-4-4c-.6-.6-.8-1.3-.5-2 .3-.7.8-1.1 1.5-1.2ZM178.7 102.6l.4-5.4c.1-1 1-1.7 2-1.6.8 0 1.7 1.2 1.6 2.2l-.4 5.4c0 .7-.1 1.5-.8 2-1.2.7-2.6 0-2.8-1.4v-1.2ZM198.1 93c0-1 .6-1.9 1.4-2 .7-.1 1.7.5 2 1.4.4 1.1.4 2.3.6 3.4l.3 2.5c.2 1-.5 2-1.3 2.2-1 .2-2-.3-2.1-1.4l-.9-6Z" fill="#D2E2F9"/>
  <path d="M175.1 122.5a6 6 0 0 1-.2 2c-.3 1-1 1.6-1.9 1.6-1 0-1.3-.7-1.5-1.5l-.3-1.1c-.2-.8-.3-1.6.9-1.5.2 0 .4 0 .5-.3 0-.4-.2-.7-.4-.9-.5-.3-1.1-.4-.8-1.2.3-.7.6-1.4 1.5-1.4.8 0 1.3.3 1.6 1 .4 1 .7 2.1.6 3.3ZM216.7 110.7c0 1.7 0 3.6-1.5 5-1 .9-1.9.8-2.3-.4-.5-1.2-.2-2.3-.1-3.5 0-.4.4-.4.7-.5.3-.1.6-.2.6-.7 0-.4-.2-.6-.6-.6-.2 0-.3 0-.3-.3 0-1 1-2.2 2-2.2.7-.1 1.1.2 1.3 1 .3.7.2 1.4.2 2.2Z" fill="#000"/>
  <path d="M111.4 96.1c0 .6-.3 1-.8 1.3-.5.2-1 0-1.4-.4-.6-.6-.6-1.4-.8-2-1-3.8-1.8-7.6-3-11.3-.4-.9 0-1.6.6-1.8.9-.2 1.5.2 1.9 1.2 1 3 1.7 6 2.5 9l1 4ZM102 96.3c-.6 0-1-.4-1.1-1-.5-2-.6-4-1-6 0-.8.6-1.5 1.3-1.5.8 0 1.2.5 1.3 1.1l1 6.1c.2.8-.5 1.3-1.4 1.3ZM109.6 76.1c0 .6-.4 1-.7 1.3-.5.3-1 .1-1.4-.2a80.7 80.7 0 0 1-4.5-4c-.6-.5-.7-1.2-.2-1.9.5-.7 1.1-.5 1.8-.1.8.5 1.4 1.3 2.2 2 .8.5 1.6 1.3 2.3 2 .3.3.6.5.5 1Z" fill="#D2E2F9"/>
  <path d="M170 82.6c-1 0-1.7-.2-1.9-1-.2-1 .2-1.8 1.2-2.2 1.7-.6 3.5-.9 5.3-1.1 3-.4 5.8-1 8.7-1.7 5.6-1.4 11.2-2.6 16.6-4.4 2.5-.9 5-1.7 7.3-2.9 1-.4 2.2-.1 2.6.7.5 1 .2 2-.9 2.6-.7.4-1.5.4-2.2.6l-12.4 3c-6.1 1.6-12.3 3-18.4 4.5l-5 1.7c-.4.1-.7.3-1 .2ZM175.9 76.4c-.9 0-1.4-.4-1.5-1.2-.2-.8.2-1.4 1-1.7l2.4-.6c5.7-1.7 11.4-3.7 16.9-6l5.8-2.5c.7-.3 1.4-.4 2.1-.4 1 0 1.7.7 1.8 1.6 0 .8-.5 1.6-1.3 1.8-9 1.7-17 5.7-25.6 8.4-.6.2-1 .6-1.6.6Z" fill="#474173"/>
  <path d="M127.7 103.6c.2-.7.2-1.3 0-2 0-.5-.2-1 0-1.5.4-.4.8-.7 1.3-.5.6.1 1.1.6 1.3 1.2.2 1 .3 2 .2 3-.1 1.2-.6 1.7-1.8 1.5-.6 0-.4.2-.3.5l1.7 3.7c.2.5.5 1 .4 1.5-.2.6-.6 1-1.2 1-.7.1-1.2-.3-1.4-.8-1.6-3.7-3.3-7.4-4.5-11.2-.2-.6-.2-1.2 0-1.8 0-.7.5-1 1.1-1 .7 0 1.2.4 1.3 1 .2 2 1 3.7 1.9 5.4Z" fill="#D2E2F9"/>
</svg>
