<svg width="300" height="200" viewBox="0 0 300 200" fill="none" xmlns="http://www.w3.org/2000/svg">
<g clip-path="url(#clip0_2624_68333)">
<path d="M226.734 73.135C226.406 82.585 226.648 92.041 226.426 101.495C226.234 109.619 225.72 117.719 225.112 125.817C224.818 129.733 224.64 133.661 224.648 137.589C224.66 143.949 224.502 150.303 224.214 156.655C224.174 157.543 223.842 158.417 224.09 159.325C224.17 159.621 223.928 159.827 223.66 159.915C222.816 160.195 222.166 160.777 221.498 161.317C219.814 162.685 218.03 163.893 216.112 164.913C215.416 165.283 214.784 165.761 214.168 166.283C213.504 166.845 212.564 166.979 211.67 166.983C209.006 166.993 206.342 167.021 203.678 166.981C194.884 166.845 186.102 167.135 177.326 167.677C172.6 167.969 167.876 167.789 163.15 167.567C158.328 167.341 153.504 167.097 148.68 167.011C138.328 166.829 127.974 166.661 117.619 166.785C111.421 166.859 105.251 166.387 99.0767 165.957C98.6447 165.927 98.2127 165.915 97.7807 165.915C90.8208 165.913 83.8628 165.911 76.9029 165.917C76.2109 165.917 75.5209 165.863 74.8269 166.091C74.2549 166.279 73.7889 165.945 73.8069 165.349C73.8869 162.717 73.4709 160.125 73.1669 157.533C72.6949 153.491 72.6249 149.433 72.4109 145.379C72.3849 144.881 72.4649 144.351 72.3209 143.889C71.9409 142.663 72.5369 142.015 73.4809 141.387C75.4749 140.063 77.6649 139.069 79.6069 137.661C80.0389 137.349 80.5969 137.305 81.1428 137.311C82.2748 137.323 83.4088 137.277 84.5388 137.329C85.1528 137.357 85.3728 137.187 85.3128 136.563C85.1628 135.007 85.1888 133.435 85.0568 131.885C84.4128 124.313 84.4548 116.729 84.4148 109.141C84.3908 104.513 83.8528 99.909 83.4808 95.299C83.4428 94.835 83.4008 94.369 83.4028 93.903C83.4408 86.811 83.1928 79.727 82.8168 72.645C82.7908 72.147 82.7808 71.647 82.7888 71.147C82.9208 61.255 82.6388 51.379 81.7828 41.521C81.6728 40.265 81.7508 38.993 81.7168 37.729C81.7048 37.309 81.8428 37.049 82.2328 36.869C86.2188 35.039 90.1848 33.165 94.3527 31.767C94.6787 31.657 94.9887 31.627 95.3227 31.623C99.3507 31.561 103.377 31.761 107.397 31.899C116.685 32.217 125.972 31.959 135.258 32.051C137.12 32.069 138.984 31.819 140.844 31.869C153.726 32.209 166.612 31.945 179.494 32.099C184.582 32.159 189.66 32.691 194.738 33.055C200.38 33.461 206.032 33.675 211.69 33.805C215.95 33.903 220.206 34.135 224.468 34.087C224.732 34.085 225 34.125 225.262 34.173C226.642 34.427 226.728 34.599 226.78 35.989C227.048 43.243 226.974 50.501 226.978 57.759C226.982 62.885 226.978 68.011 226.978 73.137H226.73L226.734 73.135ZM197.258 166.027C202.716 166.027 206.978 166.029 211.24 166.023C211.636 166.023 212.034 165.943 212.43 165.949C213.132 165.959 213.338 165.683 213.382 164.949C213.57 161.893 213.586 158.825 213.85 155.781C214.47 148.643 214.342 141.483 214.604 134.337C214.826 128.287 214.522 122.227 214.806 116.169C215.07 110.523 214.742 104.869 215.184 99.209C215.536 94.711 215.384 90.165 215.41 85.645C215.458 76.863 215.604 68.079 215.294 59.293C215.094 53.641 215.254 47.975 215.256 42.317C215.256 41.853 215.348 41.437 214.584 41.457C211.32 41.545 208.064 41.317 204.806 41.175C197.988 40.879 191.166 40.691 184.354 40.269C176.014 39.753 167.676 39.109 159.32 39.003C145.104 38.821 130.9 38.207 116.687 37.989C107.999 37.857 99.3067 37.929 90.6168 37.895C88.4208 37.887 86.2268 37.831 84.0308 37.783C82.7848 37.755 82.6748 37.843 82.6808 39.099C82.6848 39.831 82.6628 40.567 82.7268 41.295C83.6008 51.451 83.8868 61.627 83.7528 71.817C83.7488 72.149 83.7608 72.483 83.7848 72.815C84.5108 83.239 84.0708 93.711 85.1208 104.129C85.8288 111.155 85.1168 118.235 85.6048 125.281C85.8408 128.697 85.9868 132.119 86.2088 135.537C86.3388 137.525 86.5448 139.507 86.7068 141.493C86.7768 142.351 86.4548 142.749 85.4988 142.725C81.6688 142.629 77.8449 142.785 74.0349 143.213C73.4609 143.277 73.2729 143.391 73.2889 144.031C73.4509 150.721 74.1009 157.371 74.7729 164.023C74.8549 164.825 75.1489 164.979 75.8789 164.975C82.9048 164.951 89.9288 164.953 96.9547 164.967C98.1507 164.969 99.3487 165.047 100.545 165.115C104.531 165.343 108.513 165.745 112.499 165.785C123.584 165.893 134.67 165.783 145.756 166.003C151.282 166.113 156.804 166.341 162.324 166.571C167.182 166.773 172.036 166.971 176.898 166.761C184.08 166.451 191.25 165.757 197.256 166.027H197.258ZM214.374 164.619C214.56 164.619 214.634 164.641 214.686 164.615C217.65 163.195 220.152 161.079 222.806 159.195C222.978 159.073 223.062 158.927 223.074 158.699C223.11 158.035 223.204 157.375 223.234 156.713C223.506 150.761 223.71 144.809 223.67 138.849C223.64 134.553 223.788 130.257 224.136 125.979C224.96 115.891 225.488 105.789 225.552 95.669C225.616 85.217 225.718 74.767 225.924 64.317C226.106 55.133 226.136 45.945 225.83 36.761C225.808 36.127 225.706 35.905 225.062 36.193C222.42 37.375 219.786 38.567 217.328 40.113C216.518 40.623 216.184 41.299 216.204 42.259C216.338 48.677 216.25 55.097 216.352 61.519C216.496 70.697 216.61 79.885 216.244 89.067C216.05 93.949 216.118 98.837 215.884 103.727C215.58 110.101 215.66 116.501 215.638 122.887C215.61 130.541 215.34 138.191 215.366 145.845C215.372 147.705 215.184 149.565 215.084 151.425C214.848 155.807 214.612 160.187 214.374 164.617V164.619ZM85.2428 36.715C87.4028 36.807 89.5488 36.903 91.6928 36.923C99.8147 36.995 107.939 36.881 116.061 37.015C126.076 37.179 136.09 37.535 146.106 37.783C151.13 37.907 156.156 37.943 161.18 38.085C168.434 38.289 175.672 38.793 182.916 39.203C187.634 39.469 192.35 39.797 197.072 39.911C202.828 40.049 208.57 40.599 214.332 40.503C214.692 40.497 215.018 40.475 215.362 40.251C217.868 38.613 220.442 37.093 223.234 35.979C223.68 35.801 224.146 35.623 224.45 35.231C224.362 35.039 224.228 35.037 224.096 35.037C220.202 35.025 216.312 34.893 212.42 34.785C206.566 34.623 200.712 34.447 194.872 34.033C189.728 33.667 184.586 33.127 179.432 33.055C166.918 32.879 154.402 33.193 141.888 32.833C139.432 32.763 136.968 33.001 134.508 33.015C121.63 33.087 108.753 33.041 95.8787 32.599C95.0947 32.573 94.3707 32.719 93.6507 33.015C90.8288 34.175 87.9108 35.119 85.2408 36.715H85.2428ZM74.1769 142.161C77.1409 141.941 80.0749 141.755 83.0208 141.723C83.8968 141.713 84.9948 142.135 85.5928 141.507C86.1308 140.939 85.5828 139.929 85.5228 139.113C85.5108 138.947 85.5188 138.781 85.5088 138.615C85.4948 138.381 85.3748 138.257 85.1308 138.261C83.7388 138.283 82.2528 137.999 80.9769 138.391C78.4849 139.159 76.3809 140.777 74.1789 142.161H74.1769Z" fill="#141714"/>
<path d="M197.258 166.027C191.252 165.757 184.082 166.451 176.9 166.761C172.036 166.971 167.184 166.773 162.326 166.571C156.806 166.343 151.284 166.113 145.758 166.003C134.672 165.783 123.587 165.893 112.501 165.785C108.515 165.745 104.531 165.343 100.547 165.115C99.3507 165.047 98.1547 164.969 96.9568 164.967C89.9308 164.953 82.9049 164.951 75.8809 164.975C75.151 164.977 74.855 164.825 74.775 164.023C74.103 157.371 73.455 150.721 73.291 144.031C73.275 143.389 73.463 143.277 74.037 143.213C77.8489 142.785 81.6709 142.631 85.5009 142.725C86.4549 142.749 86.7768 142.351 86.7088 141.493C86.5489 139.507 86.3409 137.525 86.2109 135.537C85.9889 132.119 85.8429 128.697 85.6069 125.281C85.1189 118.235 85.8309 111.155 85.1229 104.129C84.0729 93.7109 84.5129 83.2409 83.7869 72.8149C83.7629 72.4829 83.7509 72.1489 83.7549 71.8169C83.8889 61.6269 83.6029 51.4509 82.7289 41.2949C82.6669 40.5669 82.6869 39.8309 82.6829 39.0989C82.6769 37.8429 82.7869 37.7549 84.0329 37.7829C86.2269 37.8309 88.4228 37.8869 90.6188 37.8949C99.3087 37.9289 108.001 37.8549 116.689 37.9889C130.902 38.2069 145.106 38.8209 159.322 39.0029C167.676 39.1089 176.016 39.7549 184.356 40.2689C191.168 40.6909 197.992 40.8789 204.808 41.1749C208.068 41.3169 211.324 41.5429 214.586 41.4569C215.348 41.4369 215.258 41.8529 215.258 42.3169C215.258 47.9769 215.096 53.6409 215.296 59.2929C215.608 68.0789 215.462 76.8629 215.412 85.6449C215.388 90.1669 215.538 94.7109 215.186 99.2089C214.742 104.869 215.07 110.523 214.808 116.169C214.526 122.227 214.828 128.285 214.606 134.337C214.344 141.485 214.472 148.643 213.852 155.781C213.588 158.825 213.57 161.895 213.384 164.949C213.34 165.683 213.132 165.961 212.432 165.949C212.036 165.943 211.64 166.021 211.242 166.023C206.98 166.029 202.718 166.027 197.26 166.027H197.258ZM147.694 146.035C149.958 145.983 152.12 146.043 154.286 145.947C157.678 145.795 161.058 145.555 164.436 145.189C165.628 145.059 166.564 144.747 167.488 144.003C169.094 142.705 170.668 141.377 172.196 139.987C172.696 139.531 172.914 139.099 172.84 138.439C172.186 132.563 172.554 126.665 172.444 120.777C172.434 120.223 172.574 120.033 173.158 120.041C178.58 120.133 184.004 119.905 189.426 120.169C190.076 120.201 190.6 120.063 191.114 119.553C192.882 117.795 194.694 116.075 196.844 114.769C197.126 114.597 197.266 114.351 197.238 114.021C197.15 112.995 197.11 111.961 196.956 110.945C195.762 103.037 196.058 95.0789 196.138 87.1289C196.144 86.5869 196.028 86.4289 195.478 86.4649C191.866 86.6989 188.25 86.8949 184.636 87.1249C181.41 87.3309 178.19 87.3409 174.96 87.1829C172.996 87.0869 173.096 87.5149 172.904 85.2649C172.898 85.1989 172.894 85.1329 172.894 85.0649C172.884 76.8089 172.842 68.5549 172.474 60.3049C172.384 58.2809 172.478 58.2649 170.382 58.1669C169.916 58.1449 169.45 58.1389 168.984 58.1349C165.85 58.1089 162.734 58.4189 159.608 58.5849C153.318 58.9169 147.024 58.7069 140.732 58.7629C140.234 58.7669 139.758 58.8269 139.266 58.9629C136.718 59.6629 134.392 60.9169 131.928 61.8249C130.48 62.3589 130.26 62.5729 130.36 64.1549C130.828 71.6649 130.964 79.1849 131.196 86.7029C131.228 87.7169 130.944 87.9069 130.008 87.8889C127.08 87.8289 124.149 87.8549 121.219 87.8729C119.859 87.8809 118.429 87.6829 117.155 88.0309C114.131 88.8589 111.325 90.2589 108.653 91.9149C108.185 92.2049 108.071 92.5329 108.089 93.0609C108.155 94.8889 108.179 96.7209 108.185 98.5509C108.197 102.847 108.431 107.133 108.691 111.421C108.885 114.641 109.349 117.841 109.353 121.073C109.353 121.703 109.753 121.723 110.229 121.723C116.821 121.715 123.409 122.049 130.002 121.929C130.53 121.919 131.058 122.041 131.588 122.065C132.09 122.087 132.292 122.297 132.262 122.811C132.21 123.743 132.356 124.663 132.45 125.591C133.09 131.889 133.06 138.217 133.278 144.533C133.302 145.243 133.464 145.497 134.22 145.547C138.74 145.845 143.27 145.855 147.694 146.037V146.035Z" fill="#ABF0A4"/>
<path d="M214.368 164.617C214.606 160.187 214.844 155.807 215.078 151.425C215.178 149.565 215.366 147.705 215.36 145.845C215.332 138.191 215.604 130.541 215.632 122.887C215.656 116.501 215.574 110.101 215.878 103.727C216.112 98.8368 216.044 93.9488 216.238 89.0668C216.604 79.8828 216.49 70.6968 216.346 61.5188C216.246 55.0968 216.334 48.6768 216.198 42.2588C216.178 41.2988 216.512 40.6228 217.322 40.1128C219.78 38.5668 222.414 37.3748 225.056 36.1928C225.7 35.9048 225.802 36.1268 225.824 36.7608C226.128 45.9448 226.098 55.1328 225.918 64.3168C225.712 74.7668 225.612 85.2168 225.546 95.6688C225.484 105.789 224.954 115.889 224.13 125.979C223.78 130.255 223.634 134.553 223.664 138.849C223.704 144.809 223.502 150.761 223.228 156.713C223.198 157.377 223.104 158.037 223.068 158.699C223.056 158.927 222.972 159.071 222.8 159.195C220.146 161.079 217.644 163.193 214.68 164.615C214.628 164.641 214.552 164.619 214.368 164.619V164.617Z" fill="#64B361"/>
<path d="M85.2427 36.715C87.9127 35.119 90.8286 34.175 93.6526 33.015C94.3746 32.719 95.0986 32.571 95.8806 32.599C108.754 33.041 121.63 33.085 134.51 33.015C136.97 33.001 139.434 32.763 141.89 32.833C154.404 33.193 166.92 32.879 179.434 33.055C184.588 33.127 189.73 33.667 194.874 34.033C200.714 34.447 206.568 34.623 212.422 34.785C216.313 34.893 220.203 35.025 224.097 35.037C224.229 35.037 224.363 35.039 224.451 35.231C224.147 35.623 223.681 35.801 223.235 35.979C220.441 37.093 217.869 38.613 215.364 40.251C215.02 40.477 214.694 40.497 214.334 40.503C208.572 40.599 202.83 40.049 197.074 39.911C192.352 39.797 187.634 39.469 182.918 39.203C175.674 38.793 168.436 38.289 161.182 38.085C156.158 37.943 151.132 37.909 146.108 37.783C136.092 37.535 126.078 37.179 116.062 37.015C107.942 36.881 99.8165 36.997 91.6946 36.923C89.5526 36.903 87.4047 36.807 85.2447 36.715H85.2427Z" fill="#64B361"/>
<path d="M74.1768 142.161C76.3788 140.777 78.4828 139.159 80.9747 138.391C82.2527 137.997 83.7387 138.283 85.1287 138.261C85.3727 138.257 85.4927 138.381 85.5067 138.615C85.5167 138.781 85.5087 138.947 85.5207 139.113C85.5807 139.929 86.1287 140.939 85.5907 141.507C84.9927 142.137 83.8947 141.715 83.0187 141.723C80.0728 141.755 77.1388 141.941 74.1748 142.161H74.1768Z" fill="#64B361"/>
<path d="M147.694 146.035C143.27 145.853 138.74 145.843 134.22 145.545C133.464 145.495 133.302 145.241 133.278 144.531C133.06 138.215 133.088 131.885 132.45 125.589C132.356 124.661 132.21 123.741 132.262 122.809C132.29 122.295 132.088 122.085 131.588 122.063C131.058 122.041 130.53 121.917 130.002 121.927C123.408 122.047 116.82 121.713 110.228 121.721C109.752 121.721 109.352 121.701 109.352 121.071C109.348 117.839 108.886 114.639 108.69 111.419C108.43 107.131 108.196 102.847 108.184 98.549C108.18 96.719 108.154 94.889 108.088 93.059C108.07 92.533 108.184 92.203 108.652 91.913C111.324 90.257 114.13 88.855 117.154 88.029C118.428 87.681 119.858 87.879 121.218 87.871C124.148 87.855 127.08 87.829 130.008 87.887C130.944 87.905 131.228 87.717 131.196 86.701C130.964 79.183 130.828 71.663 130.36 64.153C130.262 62.571 130.482 62.357 131.928 61.823C134.392 60.915 136.718 59.661 139.266 58.961C139.76 58.825 140.234 58.767 140.732 58.761C147.024 58.705 153.318 58.915 159.608 58.583C162.732 58.417 165.85 58.109 168.984 58.133C169.45 58.137 169.916 58.143 170.382 58.165C172.478 58.263 172.384 58.277 172.474 60.303C172.842 68.553 172.886 76.807 172.894 85.063C172.894 85.129 172.898 85.197 172.904 85.263C173.096 87.513 172.996 87.085 174.96 87.181C178.19 87.339 181.412 87.329 184.636 87.123C188.25 86.893 191.864 86.699 195.478 86.463C196.028 86.427 196.142 86.585 196.138 87.127C196.058 95.077 195.762 103.035 196.956 110.943C197.11 111.959 197.148 112.993 197.238 114.019C197.266 114.349 197.126 114.595 196.844 114.767C194.694 116.073 192.882 117.793 191.114 119.551C190.6 120.061 190.078 120.199 189.426 120.167C184.006 119.903 178.58 120.131 173.158 120.039C172.576 120.029 172.434 120.221 172.444 120.775C172.554 126.663 172.184 132.561 172.84 138.437C172.914 139.097 172.696 139.531 172.196 139.985C170.668 141.375 169.096 142.703 167.488 144.001C166.566 144.747 165.628 145.059 164.436 145.187C161.058 145.553 157.678 145.793 154.286 145.945C152.12 146.041 149.958 145.981 147.694 146.033V146.035ZM164.15 136.065C163.91 131.283 163.658 126.501 163.652 121.709C163.741 120.004 164.622 119.121 166.294 119.061C170.814 119.053 175.332 119.043 179.852 119.035C182.504 119.051 185.156 119.067 187.808 119.081C188.404 119.083 189.142 119.283 189.562 119.007C190.094 118.659 189.334 117.989 189.488 117.419C189.554 117.175 189.484 116.893 189.468 116.627C189.324 114.181 189.178 111.737 189.032 109.291C189.026 105.343 189.024 101.395 189.01 97.445C189.008 96.717 189.092 95.983 188.908 95.263C188.914 94.301 188.888 93.335 188.938 92.375C188.972 91.713 188.742 91.517 188.082 91.547C184.172 91.735 180.26 91.965 176.346 92.029C171.964 92.103 167.58 92.019 163.204 92.321C162.638 92.361 162.396 92.127 162.366 91.609C162.33 90.981 162.314 90.351 162.29 89.721C162.3 89.323 162.33 88.923 162.314 88.527C162.094 83.241 162.116 77.957 162.28 72.671C162.332 71.011 162.32 69.349 162.336 67.687C162.336 66.689 162.368 65.691 162.332 64.695C162.304 63.917 162.028 63.469 161.058 63.515C157.67 63.677 154.28 63.833 150.884 63.737C148.292 63.663 145.702 63.441 143.104 63.557C139.51 63.549 135.916 63.567 132.322 63.511C131.474 63.497 131.258 63.749 131.292 64.569C131.47 68.821 131.926 73.059 131.95 77.319C131.962 78.647 131.94 79.977 131.99 81.305C132.122 84.789 132.322 88.269 132.416 91.755C132.45 93.011 132.034 93.327 130.786 93.295C126.23 93.177 121.684 93.577 117.128 93.525C114.97 93.407 112.814 93.209 110.648 93.303C110.15 93.325 109.552 93.147 109.178 93.365C108.69 93.653 109.178 94.247 109.17 94.711C109.13 97.039 109.176 99.369 109.194 101.697C109.386 103.843 109.336 105.999 109.47 108.149C109.716 112.051 110.03 115.947 110.336 119.843C110.388 120.515 110.666 120.755 111.342 120.729C112.668 120.681 113.996 120.705 115.324 120.701C116.414 120.769 117.506 120.887 118.598 120.897C122.412 120.931 126.224 120.949 130.038 120.925C130.99 120.919 131.936 121.361 132.89 120.965C133.098 121.185 133.286 121.413 133.278 121.743C133.204 125.067 133.658 128.361 133.906 131.663C134.204 135.607 133.924 139.561 134.254 143.503C134.33 144.401 134.644 144.639 135.424 144.659C138.046 144.723 140.668 144.807 143.288 144.883C147.55 145.123 151.812 145.183 156.074 144.823C158.2 144.897 160.304 144.657 162.408 144.401C163.194 144.305 164.214 144.415 164.696 143.967C165.286 143.417 164.722 142.397 164.67 141.585C164.554 139.741 164.326 137.905 164.144 136.065H164.15ZM163.562 90.817C164.416 90.429 165.24 90.011 166.096 89.673C167.794 89.003 169.508 88.371 171.222 87.739C171.69 87.567 171.86 87.303 171.864 86.781C171.914 78.135 171.846 69.489 171.464 60.849C171.438 60.275 171.31 60.173 170.776 60.373C168.816 61.105 166.838 61.785 164.876 62.513C163.424 63.053 163.432 63.073 163.488 64.639C163.498 64.939 163.502 65.239 163.488 65.537C163.236 71.755 163.284 77.975 163.286 84.195C163.286 86.385 163.25 88.579 163.56 90.819L163.562 90.817ZM165.974 143.841C168.028 142.293 169.922 140.801 171.604 139.053C171.846 138.803 171.83 138.533 171.802 138.225C171.68 136.873 171.494 135.519 171.48 134.165C171.434 129.775 171.44 125.385 171.464 120.995C171.468 120.297 171.27 120.081 170.57 120.099C168.874 120.147 167.176 120.141 165.482 120.099C164.85 120.085 164.684 120.307 164.704 120.905C164.784 123.295 164.77 125.685 164.844 128.077C165.006 133.287 165.462 138.469 165.976 143.841H165.974ZM190.888 118.285C192.474 116.809 194.03 115.463 195.688 114.243C195.962 114.041 196.056 113.787 196.05 113.471C196.034 112.739 196.096 111.995 195.988 111.277C195.228 106.271 194.966 101.239 195.03 96.181C195.064 93.497 195.036 90.811 195.036 88.009C193.288 89.003 191.98 90.435 190.252 91.231C189.966 91.363 190.072 91.707 190.072 91.961C190.072 99.315 189.964 106.671 190.338 114.017C190.408 115.385 190.298 116.809 190.888 118.285ZM133.37 62.439C139.774 62.559 146.182 62.401 152.586 62.723C155.182 62.853 157.766 62.465 160.358 62.531C161.442 62.559 162.43 62.363 163.44 61.947C165.756 60.993 168.12 60.157 170.702 59.185C169.352 59.185 168.26 59.149 167.17 59.191C161.762 59.403 156.366 59.921 150.942 59.799C147.65 59.725 144.354 59.783 141.06 59.787C140.63 59.787 140.214 59.829 139.784 59.925C137.526 60.435 135.498 61.521 133.372 62.439H133.37ZM109.934 92.321C113.866 92.147 117.482 92.671 121.102 92.463C123.692 92.313 126.282 92.265 128.874 92.271C131.32 92.277 131.284 92.271 131.288 89.845C131.288 89.073 131.036 88.911 130.314 88.917C126.256 88.951 122.196 88.933 118.138 88.939C117.842 88.939 117.526 88.933 117.25 89.021C114.782 89.815 112.444 90.897 109.934 92.319V92.321ZM193.45 87.641C192.814 87.819 192.176 87.743 191.548 87.765C185.454 87.975 179.372 88.639 173.26 88.167C172.292 88.093 171.564 88.851 170.692 89.145C169.012 89.709 167.356 90.345 165.69 90.949C167.66 91.241 169.566 90.855 171.486 90.911C176.442 91.055 181.392 90.699 186.346 90.681C187.266 90.677 188.196 90.545 189.106 90.377C190.894 90.049 192.048 88.659 193.45 87.641Z" fill="#141714"/>
<path d="M162.29 89.7249C162.314 90.3549 162.33 90.9849 162.366 91.6129C162.396 92.1309 162.638 92.3649 163.204 92.3249C167.58 92.0229 171.966 92.1049 176.346 92.0329C180.26 91.9669 184.172 91.7389 188.082 91.5509C188.742 91.5189 188.972 91.7169 188.938 92.3789C188.888 93.3389 188.914 94.3049 188.908 95.2669C188.432 95.5029 188.254 96.0089 187.912 96.3649C184.968 99.4329 182.05 102.525 179.086 105.573C175.356 109.413 171.58 113.209 167.856 117.053C167.27 117.657 166.614 118.239 166.292 119.063C164.62 119.123 163.739 120.006 163.65 121.711C163.334 122.003 162.99 122.271 162.706 122.591C159.284 126.461 155.868 130.333 152.456 134.213C150.05 136.949 147.61 139.655 145.286 142.457C144.62 143.261 143.65 143.831 143.29 144.885C140.668 144.809 138.048 144.723 135.426 144.661C134.644 144.641 134.33 144.403 134.256 143.505C133.926 139.563 134.204 135.607 133.908 131.665C133.658 128.361 133.206 125.069 133.28 121.745C133.288 121.415 133.1 121.187 132.892 120.967C133.002 120.805 133.092 120.623 133.228 120.485C135.208 118.429 137.204 116.387 139.178 114.327C140.394 113.059 141.622 111.797 142.842 110.533C146.254 107.003 149.624 103.437 152.932 99.8069C155.408 97.0889 157.914 94.3989 160.336 91.6309C160.928 90.9549 161.432 90.1489 162.29 89.7289V89.7249Z" fill="#4AB644"/>
<path d="M143.108 63.5589C145.706 63.4429 148.294 63.6649 150.888 63.7389C154.282 63.8349 157.674 63.6789 161.062 63.5169C162.034 63.4709 162.308 63.9169 162.336 64.6969C162.372 65.6929 162.342 66.6909 162.34 67.6909C160.058 69.8689 158.19 72.4149 156.062 74.7329C152.972 78.1009 149.994 81.5709 146.954 84.9849C145.542 86.5689 144.082 88.1089 142.672 89.6949C139.724 93.0129 136.79 96.3449 133.858 99.6769C131.91 101.891 129.942 104.085 128.041 106.339C125.415 109.453 122.739 112.525 119.997 115.539C118.437 117.255 116.885 118.979 115.331 120.699C114.003 120.705 112.675 120.679 111.349 120.727C110.673 120.751 110.395 120.511 110.343 119.841C110.037 115.943 109.723 112.049 109.477 108.147C109.341 105.997 109.391 103.841 109.201 101.695C109.589 101.691 109.773 101.379 109.995 101.147C111.095 99.9949 112.187 98.8369 113.275 97.6729C114.565 96.2929 115.849 94.9069 117.135 93.5229C121.689 93.5749 126.237 93.1749 130.792 93.2929C132.04 93.3249 132.454 93.0109 132.422 91.7529C132.33 88.2689 132.128 84.7869 131.996 81.3029C131.946 79.9749 131.966 78.6469 131.956 77.3169C132.084 77.2129 132.232 77.1269 132.334 77.0009C134.722 74.0889 137.152 71.2109 139.468 68.2449C140.686 66.6869 142.078 65.2609 143.108 63.5549V63.5589Z" fill="#4AB644"/>
<path d="M115.331 120.699C116.887 118.979 118.437 117.255 119.997 115.539C122.739 112.525 125.412 109.453 128.04 106.339C129.94 104.085 131.91 101.891 133.858 99.677C136.79 96.345 139.724 93.013 142.672 89.695C144.082 88.109 145.542 86.569 146.954 84.985C149.994 81.571 152.972 78.101 156.062 74.733C158.188 72.415 160.058 69.869 162.34 67.691C162.324 69.351 162.334 71.015 162.284 72.675C162.12 77.961 162.098 83.247 162.318 88.531C162.334 88.929 162.302 89.327 162.294 89.725C161.436 90.145 160.93 90.951 160.34 91.627C157.918 94.395 155.412 97.085 152.936 99.803C149.63 103.433 146.258 106.999 142.846 110.529C141.626 111.791 140.4 113.053 139.182 114.323C137.206 116.383 135.212 118.427 133.232 120.481C133.098 120.621 133.008 120.803 132.896 120.963C131.942 121.359 130.996 120.917 130.044 120.923C126.23 120.947 122.419 120.929 118.605 120.895C117.513 120.885 116.423 120.767 115.331 120.699Z" fill="#79CC75"/>
<path d="M163.562 90.817C163.252 88.577 163.288 86.383 163.288 84.193C163.288 77.973 163.238 71.753 163.49 65.535C163.502 65.237 163.498 64.935 163.49 64.637C163.434 63.073 163.424 63.051 164.878 62.511C166.838 61.781 168.818 61.101 170.778 60.371C171.312 60.171 171.442 60.273 171.466 60.847C171.848 69.487 171.916 78.131 171.866 86.779C171.864 87.301 171.692 87.565 171.224 87.737C169.51 88.367 167.798 89.001 166.098 89.671C165.242 90.009 164.418 90.427 163.564 90.815L163.562 90.817Z" fill="#22741D"/>
<path d="M166.296 119.061C166.618 118.237 167.274 117.655 167.86 117.051C171.586 113.207 175.36 109.411 179.09 105.571C182.052 102.521 184.972 99.431 187.916 96.363C188.258 96.007 188.436 95.501 188.912 95.265C189.096 95.985 189.012 96.719 189.014 97.445C189.028 101.393 189.03 105.341 189.036 109.291C188.782 109.299 188.61 109.451 188.448 109.621C186.232 111.979 183.968 114.293 181.832 116.719C181.166 117.475 180.284 118.069 179.856 119.033C175.336 119.041 170.818 119.051 166.298 119.059L166.296 119.061Z" fill="#79CC75"/>
<path d="M143.296 144.883C143.656 143.829 144.624 143.259 145.292 142.455C147.616 139.653 150.058 136.947 152.462 134.211C155.872 130.333 159.29 126.459 162.712 122.589C162.996 122.269 163.34 122.001 163.656 121.709C163.66 126.499 163.914 131.281 164.154 136.065C163.994 136.177 163.802 136.263 163.678 136.405C162.03 138.293 160.25 140.061 158.598 141.939C157.758 142.895 156.666 143.643 156.084 144.823C151.824 145.185 147.562 145.123 143.298 144.883H143.296Z" fill="#79CC75"/>
<path d="M165.974 143.841C165.458 138.469 165.002 133.289 164.842 128.077C164.768 125.685 164.782 123.295 164.702 120.905C164.682 120.309 164.848 120.085 165.48 120.099C167.176 120.139 168.874 120.145 170.568 120.099C171.27 120.079 171.466 120.295 171.462 120.995C171.438 125.385 171.432 129.775 171.478 134.165C171.492 135.519 171.678 136.873 171.8 138.225C171.828 138.533 171.844 138.803 171.602 139.053C169.92 140.801 168.026 142.295 165.972 143.841H165.974Z" fill="#22741D"/>
<path d="M190.888 118.285C190.298 116.809 190.406 115.383 190.338 114.017C189.966 106.671 190.074 99.315 190.072 91.961C190.072 91.707 189.966 91.363 190.252 91.231C191.982 90.435 193.288 89.003 195.036 88.009C195.036 90.811 195.064 93.497 195.03 96.181C194.966 101.239 195.226 106.271 195.988 111.277C196.098 111.995 196.034 112.739 196.05 113.471C196.058 113.789 195.962 114.043 195.688 114.243C194.03 115.463 192.474 116.807 190.888 118.285Z" fill="#22741D"/>
<path d="M133.365 62.4375C135.491 61.5195 137.519 60.4315 139.777 59.9235C140.207 59.8255 140.625 59.7855 141.053 59.7855C144.347 59.7835 147.643 59.7235 150.935 59.7975C156.359 59.9195 161.755 59.4015 167.163 59.1895C168.251 59.1475 169.343 59.1835 170.695 59.1835C168.113 60.1575 165.749 60.9935 163.433 61.9455C162.423 62.3615 161.435 62.5575 160.351 62.5295C157.759 62.4635 155.175 62.8535 152.579 62.7215C146.177 62.3995 139.769 62.5575 133.363 62.4375H133.365Z" fill="#22741D"/>
<path d="M143.108 63.559C142.078 65.263 140.686 66.689 139.468 68.249C137.152 71.215 134.722 74.095 132.334 77.005C132.232 77.129 132.082 77.217 131.956 77.321C131.932 73.061 131.478 68.823 131.298 64.571C131.264 63.751 131.48 63.501 132.328 63.513C135.922 63.569 139.516 63.551 143.11 63.559H143.108Z" fill="#79CC75"/>
<path d="M109.935 92.3209C112.445 90.8989 114.785 89.817 117.251 89.023C117.527 88.933 117.84 88.9409 118.138 88.9409C122.196 88.9349 126.256 88.953 130.314 88.919C131.036 88.913 131.29 89.0729 131.288 89.8469C131.284 92.2749 131.318 92.279 128.874 92.273C126.282 92.267 123.692 92.3149 121.102 92.4649C117.481 92.6729 113.865 92.149 109.935 92.323V92.3209Z" fill="#22741D"/>
<path d="M193.45 87.6409C192.048 88.6609 190.894 90.0489 189.106 90.3769C188.198 90.5429 187.268 90.6769 186.346 90.6809C181.392 90.7009 176.442 91.0569 171.486 90.9109C169.564 90.8549 167.658 91.2389 165.69 90.9489C167.356 90.3429 169.012 89.7069 170.692 89.1449C171.566 88.8509 172.294 88.0929 173.26 88.1669C179.37 88.6409 185.454 87.9769 191.548 87.7649C192.176 87.7429 192.814 87.8189 193.45 87.6409Z" fill="#22741D"/>
<path d="M179.852 119.035C180.28 118.071 181.162 117.477 181.828 116.721C183.966 114.295 186.23 111.981 188.444 109.623C188.606 109.451 188.778 109.299 189.032 109.293C189.178 111.739 189.322 114.183 189.468 116.629C189.484 116.893 189.554 117.177 189.488 117.421C189.334 117.991 190.096 118.663 189.562 119.009C189.14 119.285 188.404 119.085 187.808 119.083C185.156 119.071 182.504 119.053 179.852 119.037V119.035Z" fill="#4AB644"/>
<path d="M156.08 144.823C156.662 143.643 157.754 142.893 158.594 141.939C160.246 140.061 162.026 138.293 163.674 136.405C163.798 136.263 163.99 136.177 164.15 136.065C164.332 137.905 164.558 139.741 164.676 141.585C164.728 142.397 165.292 143.417 164.702 143.967C164.22 144.415 163.2 144.305 162.414 144.401C160.312 144.657 158.206 144.897 156.08 144.823Z" fill="#4AB644"/>
<path d="M117.132 93.523C115.846 94.907 114.562 96.293 113.272 97.673C112.184 98.837 111.092 99.995 109.993 101.147C109.771 101.379 109.587 101.691 109.199 101.695C109.183 99.367 109.135 97.037 109.175 94.709C109.183 94.245 108.695 93.651 109.183 93.363C109.555 93.143 110.155 93.323 110.653 93.301C112.818 93.207 114.974 93.407 117.132 93.523Z" fill="#79CC75"/>
</g>
<defs>
<clipPath id="clip0_2624_68333">
<rect width="154.783" height="136.22" fill="white" transform="translate(72.2029 31.611)"/>
</clipPath>
</defs>
</svg>
