<svg width="300" height="200" viewBox="0 0 300 200" fill="none" xmlns="http://www.w3.org/2000/svg">
<g clip-path="url(#clip0_2624_68391)">
<path d="M125.861 9.76905C126.333 9.80905 126.643 10.1891 126.921 10.3311C127.737 10.7471 128.363 11.0251 128.675 12.0631C128.849 12.6471 129.303 13.4171 128.661 13.8311C124.947 16.2291 121.813 19.3011 118.633 22.3291C117.871 23.055 117.821 23.6191 118.377 24.4631C122.163 30.2131 125.809 36.053 129.847 41.6371C130.319 42.2891 130.703 42.493 131.521 42.313C139.77 40.505 147.86 38.059 156.082 36.147C160.062 35.221 164.104 34.557 168.126 33.823C168.634 33.731 168.694 33.555 168.666 33.129C168.25 26.679 167.486 20.2811 165.886 14.0011C165.654 13.0871 165.174 12.7751 164.318 12.9911C159.362 14.2391 154.248 14.4191 149.228 15.2351C148.674 15.3251 148.076 15.6691 147.758 14.7691C147.456 13.9131 147.586 13.3631 148.482 13.0711C148.566 13.0431 148.634 12.9611 148.708 12.9051C147.732 11.6511 147.73 11.4831 148.698 10.7551C148.496 10.4611 148.242 10.1911 148.1 9.86905C147.794 9.17905 148.144 8.61705 148.88 8.65705C150.82 8.76305 152.71 8.34305 154.618 8.13705C159.382 7.62305 164.134 7.00705 168.89 6.43705C170.36 6.26105 171.536 7.03305 171.848 8.48105C173.682 16.9991 175.318 25.5511 175.998 34.253C176.046 34.857 176.304 35.009 176.784 35.173C179.874 36.217 183.154 36.581 186.196 37.771C189.878 39.211 193.528 40.733 197.184 42.237C200.142 43.453 201.66 45.7131 202.222 48.837C203.008 53.209 204.178 57.5091 205.108 61.8451C206.108 66.5071 206.966 71.2251 207.442 76.0011C207.882 80.397 208.684 84.755 209.338 89.127C210.106 94.257 210.96 99.371 211.794 104.489C212.774 110.497 213.626 116.523 214.432 122.551C215.298 129.035 215.114 135.563 214.398 142.067C214.272 143.211 213.794 144.235 213.246 145.233C212.67 146.285 211.666 146.603 210.594 146.781C209.216 147.011 207.832 147.203 206.452 147.411C205.664 147.53 205.402 147.981 205.666 148.765C206.124 150.123 206.464 151.505 206.618 152.937C207.284 159.077 202.182 162.601 198.328 163.197C195.814 163.587 193.614 162.849 191.552 161.507C191.078 161.199 190.622 160.867 190.158 160.545C188.468 159.365 187.55 157.747 187.398 155.693C187.322 154.661 187.294 153.625 187.45 152.603C187.56 151.875 187.408 151.681 186.642 151.861C183.05 152.703 179.448 153.507 175.844 154.299C167.176 156.207 158.548 158.273 149.99 160.639C147.816 161.241 145.556 161.457 143.368 162.065C141.974 162.453 140.462 162.065 139.05 161.665C137.902 161.339 136.792 160.873 135.64 160.563C133.799 160.067 132.447 158.793 131.021 157.679C127.429 154.873 123.925 151.959 120.715 148.709C119.007 146.981 117.291 145.263 115.675 143.447C114.575 142.209 114.025 140.785 113.707 139.177C112.533 133.201 111.931 127.139 110.935 121.137C108.831 108.443 106.775 95.739 105.105 82.977C104.535 78.625 103.573 74.3351 103.055 69.973C102.571 65.891 102.475 61.8091 102.803 57.717C102.891 56.625 102.887 55.531 103.007 54.435C103.281 51.925 105.023 50.893 107.075 50.219C112.029 48.593 117.079 47.2551 121.917 45.281C122.283 45.1311 122.819 45.103 122.323 44.441C117.737 38.317 113.529 31.909 108.637 26.0131C107.647 24.8191 107.007 23.6471 107.075 22.0911C107.113 21.2091 107.421 20.4831 108.017 19.8491C108.681 19.1431 109.457 18.5651 110.199 17.949C114.577 14.3131 119.017 10.7591 123.781 7.63105C124.027 7.46905 124.263 7.27105 124.451 7.04505C124.853 6.55705 125.193 6.52305 125.513 7.11105C125.559 7.19705 125.579 7.31705 125.649 7.36505C126.431 7.90105 126.555 8.59305 126.021 9.44105C125.971 9.52305 125.933 9.61305 125.853 9.76905H125.861ZM159.76 54.793L159.794 54.835L160.042 55.153C160.168 55.357 160.296 55.563 160.422 55.767C160.706 56.737 160.65 57.7331 160.656 58.723C160.658 59.139 160.616 59.583 161.334 59.635C161.17 58.4431 161.526 57.279 161.068 56.155C160.828 54.927 160.344 53.873 159.07 53.391C158.914 53.371 158.724 53.345 158.714 53.561C158.706 53.771 158.878 53.877 159.066 53.937C159.126 54.007 159.188 54.079 159.248 54.149C159.27 54.369 159.388 54.511 159.594 54.585L159.616 54.605C159.664 54.667 159.712 54.729 159.76 54.791V54.793ZM118.701 26.7791C118.703 26.487 118.587 26.2771 118.293 26.1891C117.969 25.7171 117.643 25.2451 117.319 24.7731C117.315 24.4871 117.217 24.2631 116.927 24.1631C116.799 23.4071 116.877 22.7031 117.483 22.1571C120.255 19.6571 122.703 16.7971 125.833 14.6951C126.373 14.3331 126.989 14.0291 127.317 13.4111C127.359 13.3711 127.443 13.3031 127.439 13.2991C127.359 13.1891 127.289 13.2451 127.225 13.3211C126.231 13.3271 126.457 12.7511 126.677 12.1771C126.747 12.1131 126.815 12.0471 126.885 11.9831C127.063 11.9711 127.155 11.8651 127.199 11.7051C127.093 11.6771 126.989 11.6491 126.883 11.6211C126.221 11.7471 125.741 11.2191 125.153 11.1391C124.733 11.0811 124.241 11.2551 124.055 10.7171C123.887 10.2331 124.369 10.0491 124.593 9.74105C124.763 9.50705 125.283 9.22905 124.937 8.98905C124.683 8.81305 124.301 8.44305 123.723 8.82705C119.283 11.7811 115.073 15.0231 111.119 18.595C110.417 18.8031 109.983 19.3851 109.449 19.8171C107.683 21.2491 107.489 22.9911 108.939 24.7751C112.859 29.601 116.437 34.6791 120.059 39.725C123.137 44.015 126.151 48.3531 129.407 52.515C130.099 53.401 130.869 53.671 131.893 53.359C133.293 53.5191 133.829 52.499 134.475 51.547C135.118 50.601 134.731 49.931 134.149 49.163C131.683 45.911 129.507 42.451 127.049 39.191C124.191 35.399 121.673 31.371 119.101 27.3831C119.105 27.0911 118.995 26.8771 118.701 26.7831V26.7791ZM159.474 51.823C159.802 51.671 159.948 51.367 160.092 51.069C160.242 50.759 160.582 50.395 160.088 50.135C159.548 49.853 159.29 50.175 159.204 50.695C158.93 50.907 158.786 51.225 158.724 51.531C158.672 51.787 158.192 52.135 158.712 52.339C159.096 52.489 159.414 52.287 159.474 51.8251V51.823ZM192.58 160.859C192.648 160.883 192.714 160.907 192.782 160.929C192.756 160.863 192.73 160.799 192.704 160.733C190.584 157.471 190.886 154.105 192.346 150.599C191.716 150.743 191.178 150.877 190.636 150.991C188.568 151.429 188.472 151.419 188.34 153.463C188.094 157.253 188.804 158.767 192.582 160.857L192.58 160.859ZM131.867 58.109C131.205 58.133 130.547 58.1931 129.887 58.2671C128.507 58.419 127.181 58.205 125.991 57.399C125.305 56.933 124.987 56.291 124.893 55.489C124.701 53.843 125.463 52.617 126.573 51.523C126.805 51.293 127.235 51.107 126.949 50.629C126.717 50.243 126.457 50.003 125.945 49.953C124.355 49.799 122.847 50.243 121.105 50.409C122.233 50.975 123.289 51.241 124.053 52.017C124.377 52.347 124.793 52.693 124.603 53.205C124.437 53.653 123.949 53.689 123.517 53.777C123.071 53.869 122.553 53.817 122.161 54.237C122.505 54.455 122.807 54.601 123.055 54.811C123.359 55.067 123.417 55.537 123.047 55.627C121.969 55.889 122.197 56.617 122.297 57.335C122.267 57.365 122.237 57.395 122.207 57.427C122.227 57.423 122.255 57.427 122.267 57.417C122.285 57.397 122.291 57.367 122.303 57.343C122.671 57.191 123.081 56.967 123.435 57.243C124.085 57.753 123.527 58.465 123.617 59.171C124.407 58.639 125.141 59.107 125.883 59.127C127.709 59.177 129.515 58.7551 131.341 58.9351C131.999 58.9991 131.901 58.549 131.915 58.159C131.939 58.121 131.965 58.0811 131.989 58.0431C131.949 58.0671 131.907 58.0891 131.867 58.1131V58.109ZM142.448 44.919C141.588 45.247 141.062 46.047 140.266 46.461C139.522 46.847 139.138 46.633 139.088 45.793C139.058 45.291 139.082 44.787 139.082 44.061C138.464 44.7771 138.07 45.311 137.594 45.761C137.124 46.203 137.38 46.329 137.794 46.4991C139.978 47.401 140.918 50.939 139.418 52.813C138.674 53.745 137.814 54.589 136.876 55.343C135.592 56.377 134.075 57.0191 132.633 57.799C133.043 58.1651 133.317 57.9551 133.657 57.779C134.597 57.2971 135.494 56.689 136.582 56.555C138.362 56.335 139.944 55.557 141.54 54.811C141.982 54.603 142.056 54.445 141.696 54.031C141.058 53.299 141.168 52.725 141.952 52.115C142.424 51.747 142.9 51.387 143.374 51.021C143.528 50.903 143.774 50.723 143.508 50.5751C142.46 49.989 143.03 49.1311 143.086 48.3591C143.118 48.329 143.148 48.301 143.18 48.271C143.146 48.297 143.11 48.323 143.076 48.349C142.792 48.519 142.512 48.695 142.222 48.857C141.966 48.999 141.714 49.197 141.4 48.959C141.09 48.723 141.018 48.389 141.122 48.065C141.274 47.595 141.506 47.149 141.71 46.695C141.968 46.125 142.484 45.681 142.532 45.007C142.592 44.955 142.678 44.905 142.566 44.829C142.554 44.821 142.49 44.891 142.45 44.923L142.448 44.919ZM125.909 54.531C125.777 56.167 126.287 56.869 127.893 57.173C129.639 57.503 131.333 57.293 132.945 56.545C134.921 55.629 136.666 54.421 138.168 52.799C139.108 51.783 139.258 50.759 138.922 49.537C139 47.563 137.664 46.627 134.515 48.035C135.146 48.979 136.038 49.833 135.712 51.1311C135.42 51.683 135.122 52.231 134.839 52.787C133.951 54.525 130.109 55.239 128.951 53.531C128.647 53.063 128.347 52.593 128.039 52.127C127.889 51.899 127.719 51.643 127.439 51.973C126.787 52.739 125.929 53.3871 125.913 54.531H125.909ZM169.442 42.5531C169.2 42.001 169.16 41.407 169.102 40.821C169.07 40.5051 168.98 40.307 168.622 40.417C167.694 40.705 166.666 40.763 165.948 41.547C165.398 41.845 164.714 42.107 164.732 42.833C164.748 43.523 165.34 43.903 165.918 44.1931C166.362 44.4151 166.812 44.6311 167.278 44.8031C169.374 45.5751 171.568 45.611 173.76 45.589C176.04 45.567 178.12 44.753 180.088 43.703C181.668 42.861 181.69 41.551 180.246 40.549C179.26 39.771 178.134 39.483 176.89 39.519C176.414 39.533 176.246 39.697 176.24 40.157C176.232 40.887 176.18 41.617 176.146 42.347C175.834 42.587 175.542 42.863 175.204 43.059C173.17 44.233 171.274 43.729 169.44 42.5531H169.442ZM161.806 61.299C161.81 61.1351 161.846 60.947 161.644 60.877C159.434 60.111 157.288 59.1571 154.832 59.3491C153.86 59.4251 153.55 59.821 153.466 60.635C153.348 61.757 153.258 62.8811 153.132 64.003C152.948 65.635 153.234 66.2891 154.684 67.043C156.272 67.869 157.962 68.0191 159.7 67.5671C160.346 67.5331 161.062 67.439 161.24 66.743C161.694 64.965 162.194 63.173 161.806 61.299ZM148.868 14.1851C150.112 14.3091 151.304 13.9391 152.518 13.7911C156.076 13.3591 159.654 13.0911 163.16 12.2491C166.094 11.5451 166.31 11.7491 167.028 14.6651C169.106 23.1051 169.652 31.717 169.88 40.361C169.9 41.133 170.104 41.717 170.788 42.097C171.718 42.835 172.736 42.971 173.836 42.539C174.82 42.399 175.342 41.975 175.282 40.841C175.176 38.883 175.28 36.915 175.19 34.957C175.13 33.619 175.054 32.2631 174.624 30.9691C174.438 27.0111 173.714 23.1251 173.004 19.2411C172.356 15.6891 171.77 12.1251 170.868 8.62105C170.624 7.67305 170.098 7.28505 169.148 7.40305C168.818 7.44505 168.486 7.45305 168.156 7.49305C163.378 8.07305 158.626 8.84305 153.828 9.27105C152.412 9.39705 150.962 9.45905 149.55 9.90305C150.464 11.2711 150.438 11.4551 149.312 11.9671C149.58 12.4091 150.396 12.5291 150.106 13.2951C149.782 13.7131 149.084 13.6171 148.876 14.1931C148.852 14.2031 148.826 14.2071 148.808 14.2231C148.798 14.2311 148.804 14.2571 148.804 14.2751C148.826 14.2451 148.846 14.2151 148.868 14.1851ZM120.305 56.731H120.309C119.383 55.4711 120.833 55.629 121.331 55.119C120.479 54.577 120.605 54.043 121.307 53.491C121.877 53.043 122.643 53.067 123.329 52.653C122.023 51.669 120.555 51.331 119.169 50.817C118.813 50.685 118.443 50.545 118.525 50.073C118.603 49.621 118.985 49.561 119.367 49.539C121.353 49.419 123.323 49.165 125.275 48.773C125.317 48.805 125.381 48.875 125.395 48.865C125.515 48.787 125.423 48.737 125.359 48.685C125.037 47.905 124.365 47.361 123.963 46.643C123.529 45.865 123.019 45.831 122.249 46.157C117.403 48.203 112.319 49.549 107.315 51.127C105.241 51.781 104.091 53.051 103.893 55.239C103.821 56.033 103.831 56.833 103.773 57.627C103.595 60.115 103.471 62.6031 103.615 65.1011C103.863 69.4211 104.571 73.673 105.277 77.9351C106.063 82.683 106.685 87.457 107.337 92.227C108.285 99.169 109.549 106.059 110.571 112.989C111.763 121.065 113.133 129.115 114.333 137.193C114.623 139.137 114.877 141.121 116.319 142.725C120.355 147.213 124.691 151.383 129.407 155.139C130.697 156.167 131.869 157.381 133.377 158.127C133.447 158.223 133.511 158.403 133.651 158.277C133.761 158.179 133.657 158.043 133.553 157.953C133.235 157.117 132.881 156.297 132.683 155.415C132.165 153.113 131.823 150.785 131.459 148.455C129.987 139.009 128.741 129.531 127.543 120.049C126.561 112.275 125.211 104.559 123.985 96.823C123.101 91.243 122.531 85.6291 121.937 80.0191C121.489 75.7931 121.171 71.553 120.749 67.3251C120.527 65.1031 121.017 63.9351 122.787 63.0671C123.919 62.5111 125.055 61.9631 126.245 61.523C127.501 61.0591 128.795 60.665 129.957 59.915C128.329 60.029 126.713 60.0811 125.095 60.1191C123.941 59.7671 123.329 60.4291 122.839 61.3231C122.557 61.669 122.303 62.0731 121.747 61.8891C121.379 61.4411 121.645 61.025 121.805 60.597C121.987 60.107 122.363 59.665 122.253 58.971C121.879 59.289 121.591 59.5531 121.281 59.7871C120.967 60.0251 120.617 60.3131 120.217 60.0071C119.799 59.6891 120.025 59.2971 120.199 58.9391C120.459 58.4071 120.725 57.881 120.989 57.351C121.297 56.551 120.671 56.785 120.305 56.733V56.731ZM160.94 52.061C164.768 50.829 168.68 49.899 172.536 48.771C176.91 47.493 181.394 46.683 185.806 45.563C189.666 44.583 193.536 43.589 197.576 43.729C197.596 43.729 197.62 43.633 197.668 43.519C194.82 42.323 191.938 41.1991 189.132 39.9151C185.44 38.225 181.464 37.523 177.612 36.389C176.152 35.959 176.212 35.963 176.196 37.519C176.188 38.413 176.484 38.651 177.34 38.591C178.81 38.491 180.04 39.169 181.2 39.989C181.94 40.5131 182.256 41.223 182.234 42.1311C182.202 43.409 181.408 44.101 180.402 44.651C176.764 46.643 172.89 46.923 168.88 46.233C167.35 45.971 165.912 45.463 164.664 44.529C163.376 43.563 163.394 42.139 164.674 41.185C165.286 40.729 165.924 40.317 166.62 39.977C167.344 39.6231 168.492 39.921 168.794 39.083C169.07 38.319 168.846 37.375 168.84 36.5091C168.84 36.3431 168.836 36.175 168.824 36.011C168.756 35.1017 168.261 34.737 167.338 34.917C166.914 34.999 166.492 35.091 166.064 35.157C157.568 36.445 149.344 38.909 141.026 40.963C140.75 41.031 140.386 41.023 140.3 41.385C139.994 42.667 139.988 43.9571 140.118 45.3591C141.23 44.521 142.208 43.775 143.196 43.043C143.49 42.8251 143.822 42.587 144.198 42.839C144.608 43.115 144.386 43.481 144.272 43.8251C143.884 45.001 143.152 46.009 142.658 47.1311C142.618 47.169 142.54 47.237 142.544 47.243C142.636 47.369 142.68 47.275 142.724 47.197C143.53 46.741 144.344 46.299 145.14 45.827C145.464 45.635 145.794 45.379 146.13 45.679C146.496 46.009 146.192 46.337 146.002 46.649C145.564 47.3671 144.918 47.907 144.384 48.543C143.67 49.3951 143.698 49.479 144.702 49.815C145.008 49.917 145.37 49.991 145.452 50.391C145.538 50.811 145.206 50.969 144.938 51.161C144.316 51.605 143.708 52.073 143.062 52.479C142.372 52.913 142.106 53.287 142.874 53.943C143.252 54.267 143.662 54.9431 142.932 55.259C140.928 56.127 139.004 57.241 136.784 57.519C136.1 57.605 135.508 57.865 134.938 58.271C135.104 58.435 135.192 58.4571 135.348 58.4191C137.124 57.9911 138.892 57.517 140.684 57.177C145.256 56.313 149.822 55.447 154.276 54.063C155.036 53.827 155.138 53.577 154.858 52.905C154.592 52.265 154.364 51.591 154.252 50.911C154.11 50.051 154.96 49.379 156.126 49.329C157.156 49.285 157.366 49.497 157.394 50.613C157.402 50.943 157.394 51.273 157.394 51.6031C157.894 50.979 158.184 50.351 158.514 49.743C158.872 49.085 159.868 48.853 160.598 49.289C161.278 49.695 161.55 50.293 161.182 51.069C161.054 51.339 160.908 51.601 160.772 51.867C160.746 51.943 160.722 52.019 160.696 52.095L160.934 52.063L160.94 52.061ZM172.856 137.829C172.898 139.197 172.864 140.575 173.422 141.871C173.412 141.925 173.422 141.975 173.444 142.025C173.314 143.953 173.502 145.869 173.668 147.785C173.704 148.199 174.038 148.723 173.35 148.781C172.81 148.827 172.716 148.297 172.674 147.849C172.426 145.215 172.48 142.561 172.062 139.933C171.682 137.543 171.574 135.111 171.132 132.727C170.254 127.995 169.3 123.277 168.494 118.533C166.934 109.371 165.388 100.207 163.564 91.093C162.168 84.121 161.184 77.0891 160.306 70.0391C160.126 68.5991 160.152 68.595 158.638 68.785C158.208 68.767 157.776 68.751 157.346 68.729C155.698 68.6451 154.248 68.087 152.992 66.997C152.31 66.405 151.982 65.731 152.092 64.815C152.222 63.729 152.286 62.633 152.38 61.5431C152.418 61.181 152.388 60.797 152.506 60.465C152.802 59.639 152.414 58.463 153.712 58.115C153.982 58.043 154.022 57.603 153.964 57.315C153.904 57.017 153.58 57.127 153.374 57.093C152.974 57.0271 152.588 57.157 152.2 57.255C144.312 59.229 136.436 61.2491 128.593 63.397C128.163 63.515 127.763 63.6691 127.385 63.305C127.411 62.6931 127.863 62.6091 128.335 62.4811C137.982 59.8391 147.678 57.3871 157.384 54.975C157.676 54.903 158.168 54.935 158.072 54.483C157.998 54.137 157.602 53.9151 157.198 53.959C156.904 53.991 156.616 54.091 156.334 54.187C155.202 54.567 154.076 54.959 152.946 55.345C148.392 56.897 143.62 57.4891 138.946 58.5171C133.493 59.7191 128.279 61.565 123.233 63.923C122.081 64.461 121.543 65.3571 121.675 66.6451C121.853 68.3991 122.011 70.155 122.179 71.909C122.553 75.843 122.899 79.7811 123.309 83.7131C123.677 87.2491 124.037 90.785 124.591 94.299C125.559 100.435 126.507 106.573 127.497 112.705C128.237 117.299 128.743 121.923 129.353 126.535C130.033 131.671 130.731 136.807 131.493 141.931C132.161 146.431 132.563 150.981 133.703 155.395C134.309 157.741 135.142 160.057 138.126 160.377C138.286 160.395 138.436 160.497 138.594 160.549C140.122 161.053 141.764 161.519 143.284 161.123C147.27 160.083 151.336 159.429 155.304 158.279C163.86 155.799 172.604 154.061 181.294 152.123C191.148 149.925 200.948 147.473 210.892 145.687C211.716 145.539 212.224 145.137 212.586 144.469C213 143.707 213.298 142.901 213.444 142.035C213.776 140.063 213.858 138.067 213.96 136.077C214.332 128.799 213.532 121.609 212.332 114.445C211.712 110.745 211.156 107.033 210.624 103.317C209.966 98.715 209.12 94.1431 208.428 89.5451C207.762 85.1111 206.938 80.691 206.502 76.2371C206.042 71.5271 205.21 66.8751 204.216 62.2891C203.186 57.5311 202.074 52.779 201.008 48.023C200.756 46.899 200.366 45.779 199.196 45.205C198.704 44.807 198.136 44.733 197.516 44.707C194.832 44.593 192.216 45.047 189.624 45.651C181.822 47.467 174.02 49.2831 166.308 51.453C164.428 51.983 162.566 52.581 160.692 53.149C160.948 53.819 161.362 53.663 161.8 53.559C167.52 52.185 173.254 50.867 178.96 49.439C183.344 48.341 187.688 47.077 192.066 45.955C192.892 45.743 193.768 45.349 194.668 45.753C194.73 46.257 194.46 46.4851 194.002 46.565C193.352 46.6791 192.69 46.753 192.052 46.923C185.666 48.625 179.322 50.477 172.848 51.849C169.342 52.593 165.886 53.569 162.412 54.467C162.148 54.535 161.5 54.405 161.778 55.047C162.33 56.313 162.186 57.659 162.298 58.9751C162.292 59.3711 162.114 59.913 162.306 60.141C163.24 61.2411 162.9 62.499 162.79 63.677C162.662 65.053 162.654 66.549 161.812 67.6931C161.364 68.3031 161.208 68.831 161.292 69.483C161.842 73.731 162.306 77.993 163.004 82.217C163.852 87.355 164.946 92.451 165.86 97.579C167.078 104.413 168.252 111.255 169.4 118.103C170.416 124.165 171.762 130.165 172.658 136.247C172.63 136.671 172.584 137.099 172.82 137.487C172.832 137.605 172.842 137.723 172.854 137.841L172.856 137.829ZM192.178 155.855C192.078 157.011 192.382 158.245 193.046 159.341C193.962 160.853 195.132 162.239 197.026 162.333C200.612 162.513 204.482 159.599 205.436 156.129C206.19 153.383 205.39 150.807 204.478 148.249C204.288 147.713 203.94 147.983 203.674 148.041C201.11 148.601 198.552 149.193 195.988 149.759C193.316 150.349 192.906 150.781 192.38 153.529C192.242 154.253 192.176 154.977 192.178 155.857V155.855ZM139.138 41.455C136.642 42.187 134.311 42.639 131.993 43.155C131.709 43.219 131.125 43.185 131.253 43.549C131.445 44.095 131.851 45.079 132.339 44.883C133.295 44.4991 133.613 45.163 134.115 45.533C135.366 46.459 135.742 46.431 136.658 45.229C136.756 45.101 136.894 45.003 137.016 44.891C137.988 43.997 138.606 42.885 139.138 41.455ZM159.698 57.923C159.698 57.857 159.698 57.7891 159.698 57.723C159.694 56.8391 159.64 55.845 158.656 55.599C157.622 55.341 157.424 56.409 157.072 57.077C156.438 58.279 156.464 58.2911 157.818 58.5891C158.044 58.6391 158.268 58.709 158.49 58.777C159.302 59.0237 159.705 58.739 159.698 57.923ZM155.996 53.319C156.098 53.311 156.2 53.301 156.302 53.293C156.518 52.543 156.442 51.759 156.46 50.987C156.468 50.663 156.592 50.153 155.984 50.265C155.56 50.343 155.11 50.555 155.268 51.123C155.474 51.865 155.75 52.589 155.996 53.319ZM154.916 57.677C154.86 58.097 154.85 58.349 155.184 58.465C155.566 58.595 155.622 58.317 155.716 58.071C155.834 57.765 155.978 57.467 156.068 57.153C156.142 56.8951 156.49 56.541 156.144 56.3811C155.844 56.241 155.424 56.443 155.244 56.805C155.086 57.125 154.988 57.4771 154.914 57.6791L154.916 57.677ZM122.369 58.7971C122.359 58.817 122.335 58.843 122.341 58.859C122.373 58.945 122.415 58.9471 122.451 58.8631C122.457 58.8491 122.439 58.817 122.425 58.803C122.415 58.793 122.389 58.8031 122.369 58.799V58.7971Z" fill="#110D0B"/>
<path d="M84.2248 162.521C84.2768 160.579 84.3688 159.257 84.6408 157.945C85.7048 152.813 89.1528 150.253 94.0187 149.253C96.3327 148.777 98.6727 148.877 100.695 150.157C105.033 152.905 107.877 156.917 107.029 163.521C106.327 168.995 101.769 171.795 96.8287 171.793C94.1267 171.793 91.5387 171.293 89.0068 170.439C87.1528 169.815 85.8448 168.533 85.0188 166.781C84.2928 165.241 84.1368 163.593 84.2248 162.523V162.521ZM89.4228 162.729C89.0828 165.221 90.7088 167.171 92.7647 169.081C96.7487 172.785 104.199 170.081 105.643 165.243C106.865 161.149 106.251 157.355 103.689 153.899C102.135 151.803 99.9107 151.101 97.5187 151.475C93.4327 152.117 90.7268 154.461 89.8428 158.657C89.5948 159.837 89.4708 161.021 89.4228 162.727V162.729ZM98.3827 150.301C96.6107 149.791 94.8707 149.933 93.1627 150.435C89.8588 151.409 87.1728 153.127 86.0188 156.609C85.1868 159.117 85.0408 161.693 85.3428 164.287C85.7488 167.767 89.2768 170.615 92.8027 170.239C87.5128 166.739 87.7668 161.875 89.4168 156.799C90.7867 152.587 94.2067 150.947 98.3807 150.301H98.3827Z" fill="#101011"/>
<path d="M119.907 164.751C119.887 165.025 119.971 165.637 119.773 166.139C119.439 166.987 119.845 167.337 120.483 167.687C121.317 168.145 122.197 168.491 123.143 168.399C126.093 168.113 128.729 167.211 130.297 164.421C130.467 164.119 130.649 163.781 131.051 163.993C131.449 164.201 131.287 164.553 131.135 164.859C131.061 165.007 130.979 165.153 130.899 165.297C128.845 168.961 122.943 170.427 119.453 168.131C119.165 167.941 118.957 167.759 118.585 168.005C117.665 168.611 116.677 168.499 115.717 168.111C114.505 167.621 113.385 166.961 112.499 165.985C112.155 165.605 111.935 165.385 111.401 165.767C110.897 166.129 110.251 166.011 109.661 165.833C109.385 165.751 109.155 165.607 109.231 165.273C109.307 164.941 109.585 164.895 109.863 164.941C110.463 165.039 110.993 165.197 111.203 164.297C111.331 163.753 112.059 163.861 112.519 164.523C113.405 165.801 114.627 166.623 116.029 167.217C116.531 167.429 117.051 167.517 117.589 167.415C118.105 167.315 118.285 167.113 117.875 166.629C116.889 165.465 116.225 164.143 116.029 162.609C115.941 161.931 116.019 161.277 116.317 160.665C116.611 160.061 117.085 159.659 117.789 159.631C118.525 159.601 118.967 160.057 119.241 160.659C119.791 161.863 119.887 163.157 119.909 164.753L119.907 164.751ZM118.747 166.059C119.017 164.501 119.019 162.975 118.543 161.473C118.415 161.071 118.317 160.563 117.755 160.611C117.241 160.655 117.075 161.117 117.017 161.551C116.767 163.361 117.609 164.761 118.749 166.059H118.747Z" fill="#101011"/>
<path d="M162.3 58.961C162.188 57.645 162.33 56.301 161.78 55.033C161.5 54.389 162.15 54.521 162.414 54.453C165.886 53.557 169.344 52.579 172.85 51.835C179.324 50.463 185.668 48.611 192.054 46.909C192.69 46.739 193.352 46.665 194.004 46.551C194.462 46.471 194.732 46.243 194.67 45.739C196.18 45.557 197.688 45.375 199.198 45.193C200.368 45.767 200.758 46.887 201.01 48.011C202.076 52.767 203.188 57.519 204.218 62.277C205.21 66.863 206.044 71.517 206.504 76.225C206.94 80.681 207.764 85.101 208.43 89.533C209.122 94.131 209.968 98.701 210.626 103.305C211.158 107.019 211.714 110.731 212.334 114.433C213.534 121.597 214.334 128.789 213.962 136.065C213.86 138.055 213.778 140.049 213.446 142.023C213.3 142.889 213.002 143.695 212.588 144.457C212.226 145.125 211.718 145.527 210.894 145.675C200.95 147.459 191.15 149.913 181.296 152.111C172.606 154.049 163.862 155.787 155.306 158.267C151.338 159.417 147.272 160.071 143.286 161.111C141.766 161.507 140.124 161.041 138.596 160.537C138.438 160.485 138.288 160.383 138.128 160.365C135.144 160.045 134.31 157.729 133.704 155.383C132.562 150.969 132.162 146.419 131.494 141.919C130.732 136.795 130.034 131.659 129.354 126.523C128.744 121.913 128.238 117.287 127.498 112.693C126.51 106.561 125.56 100.423 124.592 94.287C124.038 90.773 123.68 87.237 123.31 83.701C122.9 79.769 122.554 75.831 122.18 71.897C122.816 71.829 122.788 70.891 123.484 70.899C123.504 72.495 123.53 74.091 123.544 75.687C123.578 79.451 124.046 83.181 124.402 86.921C124.89 92.025 126.28 96.971 127.076 102.027C127.824 106.779 128.928 111.479 129.964 116.181C130.816 120.049 131.298 123.965 131.876 127.875C132.59 132.703 133.508 137.507 133.976 142.365C134.32 145.935 134.648 149.505 135.134 153.057C135.272 154.069 135.188 155.123 135.582 156.099C135.7 156.391 135.844 156.677 136.228 156.557C136.556 156.455 136.584 156.131 136.494 155.891C136.194 155.091 136.298 154.247 136.176 153.429C135.894 151.563 135.73 149.679 135.518 147.801C135.968 147.901 136.012 148.279 136.1 148.635C136.274 149.341 136.408 150.063 136.648 150.747C137.27 152.519 139.188 153.693 140.866 153.381C142.846 153.013 144.222 151.463 144.06 149.443C143.902 147.471 143.656 145.471 143.122 143.575C142.446 141.181 141.91 138.785 141.696 136.311C141.42 133.143 140.852 130.017 140.33 126.883C139.922 124.433 139.428 121.987 139.488 119.491C139.56 116.529 139.282 113.603 138.918 110.667C138.226 105.073 137.246 99.541 135.736 94.103C135.064 91.681 134.326 89.277 134.076 86.747C133.772 83.687 133.27 80.645 132.992 77.583C132.868 76.209 132.498 74.829 132.802 73.429C133.326 76.103 133.606 78.813 133.994 81.507C134.96 88.235 136.758 94.773 138.698 101.267C140.398 106.963 141.684 112.711 141.718 118.687C141.742 122.913 141.814 127.137 142.31 131.339C142.688 134.539 142.89 137.761 143.524 140.927C144.194 144.275 145.238 147.563 145.13 151.037C145.116 151.493 145.24 151.957 145.328 152.411C145.382 152.691 145.556 152.915 145.868 152.903C146.202 152.889 146.3 152.625 146.306 152.339C146.312 152.107 146.282 151.875 146.26 151.643C146.066 149.699 145.87 147.755 145.674 145.813C146.282 146.607 146.468 147.617 147.07 148.427C148.178 149.917 150.062 150.835 151.52 150.493C153.622 150.001 154.976 148.223 155.104 146.043C155.304 142.629 154.224 139.497 153.136 136.359C152.458 134.405 151.32 132.619 151.34 130.415C151.362 128.271 150.758 126.149 150.934 123.983C150.968 124.039 151.026 124.093 151.034 124.153C151.712 129.625 153.734 134.681 155.802 139.733C156.758 142.069 157.582 144.475 157.116 147.091C157.07 147.345 157.106 147.625 157.152 147.883C157.196 148.127 157.366 148.317 157.626 148.325C157.908 148.333 158.054 148.119 158.05 147.869C158.034 146.807 158.338 145.771 158.178 144.691C157.872 142.601 157.182 140.641 156.426 138.681C155.41 136.047 154.214 133.479 153.44 130.755C152.182 126.325 151.718 121.767 151.188 117.209C150.294 109.515 149.832 101.787 149.094 94.081C148.59 88.821 147.916 83.585 147.162 78.357C146.56 74.183 145.792 70.033 145.46 65.823C145.43 65.431 145.378 65.015 144.906 65.039C144.388 65.065 144.47 65.543 144.484 65.895C144.572 67.923 144.93 69.921 145.214 71.927C145.912 76.859 146.702 81.777 147.324 86.721C147.79 90.415 148.122 94.121 148.444 97.827C148.694 100.705 149.088 103.575 149.088 106.471C148.388 104.061 148.024 101.579 147.704 99.103C147.218 95.319 146.948 91.507 146.448 87.725C145.96 84.023 145.252 80.351 144.73 76.651C144.394 74.263 143.816 71.903 143.866 69.463C143.88 68.807 143.638 68.163 143.31 67.573C142.188 65.547 139.854 64.461 137.758 64.999C135.618 65.547 134.104 67.555 134.096 69.883C134.09 71.613 134.424 73.305 134.688 75.005C135.338 79.219 136.022 83.429 136.62 87.651C136.786 88.817 137.256 89.963 137.002 91.177C136.89 90.831 136.76 90.491 136.67 90.139C135.38 85.143 134.842 80.017 134.06 74.931C133.702 72.603 133.218 70.295 132.774 67.981C132.702 67.603 132.6 67.085 132.062 67.211C131.486 67.347 131.772 67.805 131.82 68.193C131.932 69.113 132.312 69.987 132.28 70.931C131.94 70.927 131.77 70.655 131.544 70.467C130.312 69.449 128.918 69.197 127.444 69.777C126.028 70.333 125.33 71.455 125.068 72.955C124.886 73.997 125.074 75.003 125.14 76.009C125.294 78.349 125.574 80.681 125.85 83.009C126.102 85.141 126.44 87.265 126.694 89.397C127.062 92.483 127.526 95.557 127.742 98.659C127.766 99.007 128.044 99.349 127.712 99.683C127.474 98.413 127.28 97.133 126.988 95.877C125.226 88.273 124.528 80.557 124.518 72.767C124.518 71.571 124.522 70.373 124.514 69.177C124.51 68.519 124.286 68.191 123.608 68.625C123.642 65.889 123.632 64.891 126.196 63.773C126.59 63.601 126.992 63.453 127.392 63.293C127.77 63.657 128.17 63.503 128.6 63.385C136.444 61.237 144.32 59.219 152.208 57.243C152.596 57.145 152.98 57.015 153.382 57.081C153.59 57.115 153.914 57.007 153.972 57.303C154.03 57.591 153.99 58.029 153.72 58.103C152.422 58.451 152.81 59.627 152.514 60.453C152.394 60.785 152.424 61.171 152.386 61.533C149.312 61.291 146.318 64.473 146.732 68.179C147.026 70.807 147.598 73.401 148.012 76.015C148.582 79.611 149.136 83.211 149.664 86.813C150.142 90.087 150.58 93.367 151.028 96.645C151.252 98.285 151.572 99.921 151.646 101.569C151.81 105.253 151.614 108.943 151.828 112.635C152.06 116.643 152.35 120.637 153.084 124.585C154.026 129.647 155.576 134.495 158.38 138.873C158.562 139.155 158.622 139.479 158.694 139.807C159.066 141.489 158.952 143.235 159.462 144.905C160.214 147.365 163.214 149.155 165.746 148.707C168.782 148.171 170.734 145.563 170.666 142.615C170.594 139.419 170.074 136.273 169.318 133.189C168.364 129.293 167.518 125.391 167.046 121.401C166.646 118.017 166.092 114.651 165.57 111.281C164.952 107.289 164.326 103.299 163.644 99.319C163.332 97.493 163.344 95.591 162.72 93.845C161.96 91.721 161.796 89.515 161.474 87.325C161.016 84.215 160.604 81.097 160.13 77.989C159.662 74.913 159.142 71.843 158.646 68.771C160.16 68.581 160.136 68.585 160.314 70.025C161.19 77.075 162.174 84.109 163.572 91.079C165.398 100.193 166.944 109.357 168.502 118.519C169.31 123.263 170.264 127.981 171.14 132.713C171.582 135.099 171.69 137.529 172.07 139.919C172.488 142.547 172.434 145.201 172.682 147.835C172.724 148.283 172.818 148.811 173.358 148.767C174.046 148.709 173.712 148.185 173.676 147.771C173.512 145.855 173.322 143.939 173.452 142.011C173.83 142.483 173.626 143.037 173.654 143.551C173.788 146.003 175.042 147.431 177.144 147.191C179.54 146.917 181.158 145.363 180.824 142.463C180.384 138.653 179.772 134.861 178.966 131.107C177.868 125.995 176.366 120.971 175.782 115.751C175.44 112.695 174.782 109.673 174.864 106.577C174.952 103.245 174.518 99.941 173.962 96.689C173.162 92.027 172.426 87.351 171.496 82.709C170.796 79.209 170.29 75.659 169.922 72.109C169.722 70.175 169.364 68.233 169.492 66.269C169.554 66.453 169.632 66.635 169.672 66.823C170.968 72.929 171.884 79.101 172.94 85.249C173.72 89.795 174.6 94.325 175.252 98.893C176 104.129 175.856 109.435 176.464 114.683C176.792 117.517 176.936 120.375 177.616 123.159C178.868 128.281 180.45 133.331 180.978 138.613C181.21 140.925 181.516 143.231 181.556 145.557C181.564 146.005 181.444 146.531 182.044 146.541C182.646 146.551 182.608 145.991 182.574 145.561C182.432 143.773 182.266 141.989 182.122 140.201C181.916 137.653 181.442 135.141 181.046 132.621C181.95 133.693 181.808 135.051 182.028 136.303C182.36 138.201 182.604 140.101 183.872 141.689C185.636 143.901 188.818 144.693 191.122 142.885C192.946 141.453 193.554 139.305 193.312 137.277C192.928 134.065 192.616 130.819 191.958 127.651C190.874 122.435 191.046 117.103 190.254 111.863C189.854 109.215 189.742 106.523 189.382 103.867C188.822 99.733 188.06 95.631 187.23 91.543C186.63 88.583 185.89 85.661 184.862 82.815C184.554 81.965 183.848 81.341 183.656 80.429C182.598 75.403 181.854 70.327 181.24 65.231C181.026 63.459 180.914 61.667 180.456 59.929C179.802 57.459 177.212 55.901 174.748 56.503C172.182 57.129 170.706 59.421 171.076 62.307C171.586 66.279 172.058 70.257 172.698 74.209C173.748 80.685 174.91 87.155 176.784 93.445C178.204 98.209 178.898 102.987 178.676 107.945C178.528 111.261 178.906 114.575 179.076 117.889C179.176 119.871 179.442 121.843 179.626 123.821C179.764 125.303 179.892 126.785 180.026 128.267C179.974 128.183 179.9 128.107 179.872 128.017C177.958 122.045 177.458 115.855 177.03 109.651C176.808 106.435 176.804 103.203 176.382 100.005C175.404 92.597 173.794 85.293 172.726 77.899C171.996 72.837 170.632 67.885 170.08 62.793C170.008 62.121 169.718 62.001 169.156 62.229C169.05 61.747 168.966 61.261 168.834 60.787C168.316 58.921 166.634 57.761 164.74 57.931C163.818 58.015 163.106 58.583 162.306 58.949L162.3 58.961ZM188.608 85.739C188.152 84.919 188.046 83.979 187.71 83.115C185.286 76.861 183.612 70.417 182.758 63.757C182.546 62.109 182.3 60.469 182.268 58.803C182.262 58.499 182.248 58.157 181.83 58.151C181.44 58.147 181.338 58.471 181.324 58.773C181.302 59.269 181.3 59.773 181.354 60.267C181.504 61.619 181.662 62.973 181.864 64.319C182.678 69.713 183.684 75.059 185.648 80.183C187.04 83.817 188.164 87.543 188.974 91.351C190.826 100.073 192.278 108.847 192.264 117.805C192.26 120.131 192.366 122.471 192.794 124.757C193.496 128.509 194.364 132.231 195.108 135.975C195.49 137.895 195.738 139.841 196.084 141.767C196.152 142.141 196.154 142.771 196.796 142.621C197.37 142.487 197.088 142.005 197.038 141.625C196.618 138.461 196.018 135.333 195.296 132.225C194.16 127.333 193.16 122.421 193.21 117.361C193.28 110.113 192.178 102.991 190.89 95.891C190.464 93.543 189.938 91.213 189.46 88.875C190.152 89.171 190.2 89.869 190.36 90.445C191.106 93.129 191.512 95.885 192.034 98.619C192.542 101.275 192.614 104.035 193.914 106.509C194.044 106.755 194.026 107.091 194.032 107.387C194.098 111.541 193.882 115.697 194.21 119.849C194.424 122.557 194.702 125.251 195.136 127.935C195.422 129.703 196.038 131.387 196.264 133.175C196.542 135.371 196.98 137.553 197.45 139.719C197.816 141.401 199.176 142.185 200.736 141.773C202.652 141.267 203.526 139.993 203.134 138.277C203.024 137.793 202.884 137.311 202.82 136.821C202.272 132.679 202.104 128.505 201.864 124.341C201.644 120.529 201.706 116.701 201.626 112.879C201.596 111.415 201.784 109.961 201.798 108.505C201.832 104.911 200.896 101.421 200.512 97.867C200.228 95.225 199.518 92.663 198.948 90.079C198.592 88.467 198.788 86.835 198.496 85.239C197.378 79.107 195.19 73.227 194.278 67.043C193.82 63.933 192.792 60.945 192.342 57.809C191.816 54.157 187.67 52.609 184.934 54.669C182.956 56.159 182.618 58.221 182.924 60.461C183.318 63.355 184.28 66.133 184.822 68.995C185.598 73.099 186.4 77.191 187.632 81.191C188.088 82.675 188.556 84.165 188.604 85.741L188.608 85.739ZM211.602 126.383C211.906 123.699 211.434 120.369 210.976 117.053C210.412 112.973 210.37 108.859 210.11 104.767C209.932 101.971 209.626 99.229 209.05 96.505C208.322 93.071 207.492 89.661 207.176 86.151C206.998 84.175 206.8 82.195 206.476 80.239C205.984 77.267 205.342 74.321 204.82 71.355C204.316 68.487 203.89 65.607 203.42 62.733C202.966 59.951 201.952 57.297 201.558 54.497C201.364 53.121 200.278 52.177 199.104 52.129C196.808 52.035 195.424 53.753 195.954 56.029C196.652 59.031 197.536 61.991 198.03 65.039C198.62 68.665 199.06 72.317 199.86 75.905C200.466 78.623 200.968 81.361 201.192 84.133C201.522 88.171 202.212 92.141 203.102 96.087C203.634 98.443 204.312 100.799 204.366 103.213C204.422 105.705 204.58 108.191 204.672 110.679C204.74 112.519 204.92 114.375 205.116 116.219C205.374 118.653 205.826 121.069 205.832 123.535C205.842 127.485 205.658 131.439 206.188 135.381C206.404 136.989 207.528 138.483 208.774 138.657C210.914 138.957 212.292 136.905 211.998 135.317C211.49 132.585 211.62 129.827 211.6 126.385L211.602 126.383ZM202.006 110.461C201.946 114.353 202.06 118.233 202.598 122.103C203.056 125.391 203.496 128.685 203.686 132.007C203.852 134.921 204.048 137.837 204.404 140.737C204.444 141.061 204.464 141.363 204.856 141.379C205.228 141.393 205.38 141.129 205.39 140.793C205.398 140.529 205.396 140.257 205.352 139.997C205.154 138.817 205.068 137.627 204.97 136.435C204.724 133.489 204.648 130.531 204.258 127.595C203.86 124.599 203.518 121.595 203.198 118.591C202.772 114.577 203.05 110.545 202.996 106.521C202.932 101.759 202.652 97.003 201.724 92.339C199.726 82.275 197.912 72.173 195.58 62.177C195 59.687 194.412 57.199 193.842 54.705C193.77 54.387 193.712 54.089 193.302 54.159C192.93 54.223 192.852 54.535 192.88 54.847C192.91 55.177 192.984 55.503 193.06 55.825C193.518 57.765 193.984 59.701 194.446 61.641C196.096 68.589 197.346 75.621 198.826 82.605C200.776 91.801 202.408 101.007 202.004 110.461H202.006Z" fill="#C54F1E"/>
<path d="M125.095 60.119C126.713 60.083 128.329 60.031 129.957 59.915C128.795 60.665 127.501 61.057 126.245 61.523C125.055 61.963 123.919 62.511 122.787 63.067C121.017 63.935 120.527 65.103 120.749 67.325C121.171 71.553 121.489 75.793 121.937 80.019C122.531 85.631 123.103 91.245 123.985 96.823C125.209 104.559 126.561 112.275 127.543 120.049C128.741 129.533 129.987 139.009 131.459 148.455C131.823 150.785 132.165 153.113 132.683 155.415C132.881 156.299 133.237 157.117 133.553 157.953C133.495 158.011 133.435 158.069 133.377 158.129C131.869 157.381 130.699 156.167 129.407 155.139C124.691 151.383 120.355 147.213 116.319 142.725C114.877 141.121 114.621 139.137 114.333 137.193C113.131 129.117 111.761 121.065 110.571 112.989C109.549 106.059 108.285 99.167 107.337 92.227C106.687 87.457 106.063 82.683 105.277 77.935C104.571 73.673 103.863 69.419 103.615 65.101C103.471 62.603 103.595 60.117 103.773 57.627C103.829 56.831 103.821 56.031 103.893 55.239C104.091 53.051 105.241 51.781 107.315 51.127C112.319 49.549 117.403 48.203 122.249 46.157C123.019 45.831 123.529 45.865 123.963 46.643C124.363 47.361 125.037 47.905 125.359 48.685C125.331 48.713 125.303 48.743 125.275 48.773C123.323 49.165 121.353 49.419 119.367 49.539C118.985 49.561 118.603 49.621 118.525 50.073C118.445 50.545 118.815 50.685 119.169 50.817C120.557 51.331 122.025 51.669 123.329 52.653C122.643 53.065 121.875 53.043 121.307 53.491C120.605 54.043 120.481 54.577 121.331 55.119C120.833 55.627 119.383 55.471 120.309 56.733C119.937 56.821 119.685 56.591 119.411 56.405C117.167 54.885 114.921 53.369 112.675 51.853C112.181 51.519 111.677 51.115 111.061 51.169C108.955 51.355 107.233 52.265 106.013 54.035C105.751 53.959 105.475 53.873 105.301 54.171C105.139 54.451 105.301 54.699 105.487 54.887C105.697 55.095 105.955 55.257 106.195 55.435C108.891 57.449 111.867 59.037 114.619 60.963C116.143 62.031 117.577 63.227 119.067 64.343C119.729 64.839 120.115 64.695 120.073 63.807C120.077 63.345 120.425 63.153 120.733 62.899C121.101 62.597 121.605 62.417 121.749 61.887C122.305 62.071 122.559 61.667 122.841 61.321C123.621 60.973 124.577 60.955 125.097 60.117L125.095 60.119ZM105.753 56.233C105.459 56.201 105.287 56.299 105.203 56.499C105.073 56.809 105.279 56.993 105.497 57.163C108.857 59.785 112.705 61.663 116.149 64.157C116.379 64.323 116.667 64.379 116.847 64.091C117.007 63.837 116.933 63.573 116.699 63.381C116.521 63.233 116.327 63.103 116.135 62.969C112.905 60.693 109.363 58.893 106.213 56.493C106.057 56.375 105.869 56.299 105.751 56.233H105.753Z" fill="#C54F1E"/>
<path d="M158.638 68.7831C159.134 71.8551 159.654 74.9231 160.122 78.0011C160.596 81.1091 161.008 84.2271 161.466 87.3371C161.788 89.5251 161.954 91.7311 162.712 93.8571C163.336 95.6031 163.322 97.5051 163.636 99.3311C164.316 103.311 164.944 107.301 165.562 111.293C166.084 114.661 166.638 118.029 167.038 121.413C167.51 125.403 168.354 129.305 169.31 133.201C170.066 136.287 170.586 139.431 170.658 142.627C170.726 145.575 168.774 148.183 165.738 148.719C163.206 149.165 160.206 147.375 159.454 144.917C158.944 143.247 159.058 141.501 158.686 139.819C158.614 139.489 158.554 139.167 158.372 138.885C155.568 134.507 154.018 129.659 153.076 124.597C152.342 120.649 152.052 116.657 151.82 112.647C151.606 108.955 151.802 105.265 151.638 101.581C151.564 99.9331 151.244 98.2971 151.02 96.6571C150.572 93.3791 150.136 90.0991 149.656 86.8251C149.128 83.2231 148.574 79.6231 148.004 76.0271C147.59 73.4131 147.018 70.8171 146.724 68.1911C146.31 64.4831 149.304 61.3031 152.378 61.5451C152.286 62.6371 152.222 63.7311 152.09 64.8171C151.98 65.7331 152.306 66.4071 152.99 66.9991C154.246 68.0891 155.696 68.6491 157.344 68.7311C157.774 68.7531 158.206 68.7691 158.636 68.7871L158.638 68.7831Z" fill="#FA8C61"/>
<path d="M162.3 58.961C163.1 58.595 163.812 58.027 164.734 57.943C166.628 57.773 168.312 58.933 168.828 60.799C168.96 61.273 169.044 61.761 169.15 62.241C168.926 63.139 169.298 64.009 169.274 64.897C169.262 65.319 169.118 65.761 169.46 66.131C169.486 66.179 169.494 66.229 169.486 66.283C169.358 68.249 169.716 70.189 169.916 72.125C170.284 75.675 170.79 79.225 171.49 82.725C172.418 87.367 173.156 92.043 173.956 96.705C174.514 99.957 174.946 103.261 174.858 106.593C174.776 109.689 175.434 112.713 175.776 115.767C176.36 120.987 177.862 126.013 178.96 131.123C179.766 134.877 180.378 138.669 180.818 142.479C181.152 145.377 179.536 146.933 177.138 147.207C175.036 147.447 173.782 146.019 173.648 143.567C173.62 143.053 173.822 142.499 173.446 142.027C173.422 141.979 173.414 141.927 173.424 141.873C173.516 140.485 173.214 139.155 172.858 137.831C172.846 137.713 172.836 137.595 172.824 137.477C172.854 137.053 172.962 136.617 172.66 136.237C171.764 130.155 170.418 124.153 169.402 118.093C168.254 111.247 167.08 104.403 165.862 97.569C164.948 92.441 163.856 87.345 163.006 82.207C162.308 77.983 161.844 73.721 161.294 69.473C161.21 68.821 161.364 68.291 161.814 67.683C162.656 66.537 162.664 65.041 162.792 63.667C162.902 62.489 163.24 61.229 162.308 60.131C162.116 59.903 162.292 59.361 162.3 58.965V58.961Z" fill="#FA8C61"/>
<path d="M142.661 47.1249C143.155 46.0009 143.887 44.9949 144.275 43.8189C144.389 43.4749 144.611 43.1089 144.201 42.8329C143.827 42.5809 143.495 42.8189 143.199 43.0369C142.211 43.7689 141.233 44.5149 140.121 45.3529C139.991 43.9509 139.995 42.6609 140.303 41.3789C140.389 41.0169 140.753 41.0249 141.029 40.9569C149.347 38.9029 157.571 36.4409 166.067 35.1509C166.493 35.0869 166.917 34.9949 167.341 34.9109C168.264 34.7309 168.759 35.0955 168.827 36.0049C168.839 36.1709 168.843 36.3369 168.843 36.5029C168.849 37.3689 169.073 38.3129 168.797 39.0769C168.495 39.9149 167.347 39.6169 166.623 39.9709C165.929 40.3109 165.291 40.7229 164.677 41.1789C163.397 42.1349 163.379 43.5589 164.667 44.5229C165.915 45.4589 167.351 45.9649 168.883 46.2269C172.891 46.9149 176.765 46.6369 180.405 44.6449C181.411 44.0949 182.205 43.4029 182.237 42.1249C182.259 41.2169 181.945 40.5069 181.203 39.9829C180.043 39.1609 178.813 38.4829 177.343 38.5849C176.485 38.6429 176.189 38.4069 176.199 37.5129C176.215 35.9569 176.155 35.9529 177.615 36.3829C181.467 37.5169 185.443 38.2189 189.135 39.9089C191.943 41.1949 194.823 42.3169 197.671 43.5129C197.623 43.6269 197.599 43.7229 197.579 43.7229C193.539 43.5829 189.669 44.5769 185.809 45.5569C181.397 46.6769 176.913 47.4889 172.539 48.7649C168.683 49.8909 164.769 50.8209 160.943 52.0549C160.889 51.9889 160.833 51.9229 160.779 51.8569C160.917 51.5909 161.061 51.3289 161.189 51.0609C161.557 50.2849 161.285 49.6889 160.605 49.2809C159.877 48.8449 158.879 49.0769 158.521 49.7349C158.191 50.3429 157.901 50.9709 157.401 51.5949C157.401 51.2649 157.407 50.9349 157.401 50.6049C157.373 49.4889 157.163 49.2769 156.133 49.3209C154.967 49.3709 154.117 50.0429 154.259 50.9029C154.371 51.5829 154.599 52.2569 154.865 52.8969C155.143 53.5689 155.043 53.8189 154.283 54.0549C149.829 55.4389 145.261 56.3049 140.691 57.1689C138.899 57.5089 137.131 57.9829 135.355 58.4109C135.199 58.4489 135.109 58.4269 134.945 58.2629C135.515 57.8569 136.107 57.5969 136.791 57.5109C139.011 57.2309 140.935 56.1169 142.939 55.2509C143.669 54.9349 143.259 54.2589 142.881 53.9349C142.113 53.2789 142.379 52.9029 143.069 52.4709C143.715 52.0649 144.323 51.5969 144.945 51.1529C145.213 50.9629 145.543 50.8029 145.459 50.3829C145.377 49.9829 145.017 49.9109 144.709 49.8069C143.705 49.4709 143.677 49.3869 144.391 48.5349C144.925 47.8989 145.569 47.3589 146.009 46.6409C146.199 46.3289 146.503 46.0009 146.137 45.6709C145.803 45.3689 145.471 45.6249 145.147 45.8189C144.351 46.2909 143.537 46.7349 142.731 47.1889L142.663 47.1229L142.661 47.1249Z" fill="#C54F1E"/>
<path d="M111.119 18.591C115.075 15.017 119.285 11.777 123.723 8.82302C124.301 8.43902 124.683 8.80902 124.937 8.98502C125.283 9.22502 124.763 9.50502 124.593 9.73702C124.369 10.045 123.887 10.231 124.055 10.713C124.241 11.251 124.731 11.077 125.153 11.135C125.741 11.215 126.221 11.743 126.883 11.617C126.883 11.737 126.883 11.859 126.883 11.979C126.813 12.043 126.745 12.109 126.675 12.173C126.003 12.111 125.707 12.701 125.275 13.021C122.161 15.325 119.051 17.631 116.327 20.417C115.177 21.593 115.195 22.857 116.925 24.157C116.867 24.483 116.893 24.753 117.317 24.767C117.641 25.239 117.967 25.711 118.291 26.183C118.271 26.489 118.297 26.761 118.699 26.773C118.667 27.083 118.699 27.351 119.099 27.373C121.671 31.361 124.189 35.389 127.047 39.181C129.505 42.443 131.68 45.901 134.146 49.153C134.728 49.921 135.116 50.591 134.472 51.537C133.826 52.489 133.29 53.507 131.89 53.349C131.782 52.619 131.258 52.117 130.883 51.541C125.021 42.559 119.357 33.441 112.839 24.905C111.373 22.985 110.395 21.047 111.117 18.585L111.119 18.591ZM123.299 11.615C123.303 11.307 123.299 10.985 122.957 10.859C122.637 10.741 122.309 10.751 122.017 10.985C121.503 11.399 120.987 11.813 120.461 12.211C119.013 13.307 117.547 14.381 116.113 15.497C115.705 15.815 115.213 16.225 115.683 16.823C116.171 17.445 116.719 17.215 117.247 16.821C118.967 15.535 120.705 14.275 122.403 12.961C122.823 12.635 123.357 12.297 123.299 11.615ZM115.101 18.443C115.159 17.921 114.857 17.467 114.411 17.403C113.917 17.333 113.007 18.245 112.925 18.925C112.857 19.499 113.093 19.895 113.703 19.975C114.327 20.055 115.003 19.305 115.101 18.443Z" fill="#A5ACB7"/>
<path d="M150.106 13.295C150.396 12.531 149.58 12.409 149.312 11.967C150.438 11.455 150.464 11.271 149.55 9.90297C150.962 9.45897 152.412 9.39697 153.828 9.27097C158.626 8.84297 163.38 8.07297 168.156 7.49297C168.486 7.45297 168.818 7.44497 169.148 7.40297C170.096 7.28497 170.624 7.67297 170.868 8.62097C171.77 12.123 172.354 15.689 173.004 19.241C173.714 23.125 174.436 27.011 174.624 30.969C174.292 31.219 174.272 31.587 174.272 31.951C174.26 35.485 174.206 39.019 173.836 42.539C172.736 42.971 171.718 42.835 170.79 42.097C171.024 41.901 171.056 41.635 171.002 41.369C170.63 39.533 170.846 37.665 170.716 35.813C170.558 33.559 170.18 31.345 169.932 29.109C169.638 26.445 169.25 23.787 169.088 21.115C168.908 18.163 168.562 15.249 167.852 12.379C167.472 10.841 166.702 10.399 165.158 10.657C160.134 11.495 155.166 12.663 150.106 13.297V13.295ZM172.45 21.269C172.438 21.169 172.428 21.069 172.414 20.971C171.806 17.191 170.96 13.449 170.64 9.62297C170.59 9.03697 170.212 8.59897 169.598 8.63097C168.972 8.66297 168.868 9.16697 168.844 9.72097C168.796 10.829 169.084 11.889 169.258 12.963C169.71 15.767 170.192 18.565 170.654 21.367C170.754 21.975 171.116 22.239 171.7 22.167C172.202 22.105 172.438 21.767 172.452 21.269H172.45ZM173.248 26.569C173.366 26.063 173.086 25.535 173.04 24.975C173.004 24.525 172.742 24.223 172.282 24.199C171.78 24.171 171.296 24.597 171.35 24.921C171.498 25.797 171.248 26.721 171.648 27.551C171.822 27.913 172.068 28.267 172.57 28.097C172.97 27.961 173.284 27.735 173.248 27.239C173.234 27.041 173.246 26.841 173.246 26.569H173.248Z" fill="#A5ACB7"/>
<path d="M111.119 18.591C110.395 21.053 111.375 22.991 112.841 24.911C119.356 33.447 125.022 42.565 130.884 51.547C131.26 52.123 131.786 52.625 131.892 53.355C130.87 53.667 130.1 53.397 129.406 52.511C126.152 48.349 123.136 44.013 120.058 39.721C116.439 34.675 112.859 29.597 108.939 24.771C107.489 22.987 107.683 21.245 109.449 19.813C109.983 19.381 110.417 18.799 111.119 18.591Z" fill="#667182"/>
<path d="M192.178 155.855C192.178 154.975 192.242 154.251 192.38 153.527C192.906 150.779 193.316 150.349 195.988 149.757C198.552 149.191 201.11 148.599 203.674 148.039C203.94 147.981 204.288 147.713 204.478 148.247C205.39 150.805 206.19 153.383 205.436 156.127C204.482 159.597 200.612 162.511 197.026 162.331C195.132 162.235 193.962 160.849 193.046 159.339C192.382 158.243 192.078 157.011 192.178 155.853V155.855ZM196.04 155.247C196.024 156.791 196.824 157.655 198.382 157.773C200.726 157.951 202.59 155.077 201.612 152.791C201.11 151.619 200.262 150.889 198.946 150.883C197.698 150.877 197.058 151.689 196.608 152.735C196.262 153.541 196.046 154.367 196.04 155.245V155.247ZM196.38 160.833C196.732 160.833 197.068 160.793 197.192 160.403C197.326 159.983 197.248 159.549 196.848 159.359C195.552 158.743 194.8 157.775 194.536 156.351C194.458 155.931 194.074 155.499 193.49 155.697C192.924 155.889 192.756 156.375 192.864 156.901C193.058 157.845 193.382 158.759 194.046 159.487C194.674 160.175 195.372 160.789 196.38 160.833ZM204.562 152.425C204.33 151.499 204.214 150.559 203.422 149.913C203.136 149.679 202.872 149.507 202.552 149.805C202.268 150.069 201.86 150.323 202.124 150.799C202.468 151.417 202.626 152.093 202.836 152.757C202.968 153.175 203.252 153.469 203.72 153.393C204.256 153.305 204.438 152.863 204.562 152.427V152.425Z" fill="#A5ACB7"/>
<path d="M106.013 54.033C107.233 52.263 108.955 51.353 111.061 51.167C111.677 51.113 112.181 51.519 112.675 51.851C114.921 53.367 117.167 54.883 119.411 56.403C119.685 56.589 119.937 56.819 120.309 56.731H120.305C120.321 57.173 120.685 57.227 120.989 57.349C120.725 57.879 120.457 58.405 120.199 58.937C120.025 59.295 119.799 59.687 120.217 60.005C120.619 60.311 120.967 60.023 121.281 59.785C121.591 59.551 121.877 59.287 122.253 58.969C122.365 59.661 121.989 60.105 121.805 60.595C121.645 61.023 121.381 61.439 121.747 61.887C121.603 62.417 121.099 62.595 120.731 62.899C120.425 63.151 120.075 63.345 120.071 63.807C119.659 63.529 119.219 63.287 118.841 62.969C116.473 60.967 113.897 59.265 111.257 57.649C109.443 56.539 107.635 55.417 106.009 54.033H106.013Z" fill="#FA8C61"/>
<path d="M150.106 13.295C155.166 12.661 160.132 11.493 165.158 10.655C166.704 10.397 167.472 10.839 167.852 12.377C168.562 15.247 168.908 18.161 169.088 21.113C169.25 23.785 169.638 26.443 169.932 29.107C170.18 31.343 170.558 33.557 170.716 35.811C170.846 37.663 170.628 39.531 171.002 41.367C171.056 41.635 171.026 41.901 170.79 42.095C170.104 41.715 169.9 41.131 169.88 40.361C169.652 31.717 169.106 23.105 167.028 14.665C166.31 11.749 166.094 11.545 163.16 12.249C159.654 13.091 156.076 13.361 152.518 13.791C151.304 13.939 150.112 14.309 148.868 14.185L148.876 14.193C149.082 13.615 149.782 13.713 150.106 13.295Z" fill="#667182"/>
<path d="M159.7 67.567C157.962 68.019 156.274 67.869 154.684 67.043C153.234 66.289 152.948 65.635 153.132 64.003C153.258 62.883 153.348 61.757 153.466 60.635C153.552 59.821 153.86 59.425 154.832 59.349C157.288 59.157 159.434 60.111 161.644 60.877C161.848 60.947 161.81 61.135 161.806 61.299C160.916 61.367 160.544 61.813 160.676 62.723C160.736 63.141 160.67 63.573 160.556 64.003C160.242 65.183 159.98 66.377 159.698 67.565L159.7 67.567ZM157.164 65.987C157.984 66.043 158.44 65.963 158.088 65.137C157.822 64.509 158.074 64.047 158.556 63.569C159.112 63.017 159.062 62.291 158.55 61.709C157.97 61.047 157.206 61.241 156.534 61.527C155.894 61.799 155.774 62.461 156.118 62.951C156.586 63.619 156.39 64.091 156.016 64.653C155.63 65.229 155.764 65.651 156.48 65.817C156.77 65.885 157.056 65.961 157.162 65.987H157.164Z" fill="#E9C866"/>
<path d="M127.384 63.2989C126.986 63.4589 126.582 63.6069 126.189 63.7789C123.623 64.8989 123.635 65.8969 123.601 68.6309C123.561 69.3889 123.521 70.1449 123.483 70.9029C122.787 70.8949 122.815 71.8309 122.179 71.9009C122.013 70.1469 121.853 68.3909 121.675 66.6369C121.545 65.3489 122.083 64.4529 123.233 63.9149C128.278 61.5569 133.494 59.7109 138.946 58.5089C143.618 57.4789 148.392 56.8869 152.946 55.3369C154.076 54.9529 155.204 54.5609 156.334 54.1789C156.616 54.0849 156.906 53.9829 157.198 53.9509C157.602 53.9069 157.998 54.1289 158.072 54.4749C158.168 54.9269 157.676 54.8929 157.384 54.9669C147.678 57.3789 137.98 59.8309 128.334 62.4729C127.864 62.6029 127.41 62.6869 127.384 63.2969V63.2989Z" fill="#FA8C61"/>
<path d="M199.201 45.1934C197.691 45.3754 196.181 45.5574 194.673 45.7394C193.773 45.3354 192.897 45.7294 192.071 45.9414C187.693 47.0634 183.349 48.3274 178.965 49.4254C173.259 50.8554 167.525 52.1714 161.805 53.5454C161.367 53.6514 160.953 53.8054 160.697 53.1354C162.573 52.5674 164.433 51.9674 166.313 51.4394C174.025 49.2694 181.829 47.4534 189.629 45.6374C192.221 45.0334 194.835 44.5794 197.521 44.6934C198.141 44.7194 198.709 44.7954 199.201 45.1914V45.1934Z" fill="#FA8C61"/>
<path d="M180.246 40.551C181.69 41.553 181.668 42.863 180.088 43.705C178.118 44.755 176.04 45.569 173.76 45.591C171.57 45.613 169.374 45.575 167.278 44.805C166.812 44.633 166.362 44.417 165.918 44.195C165.338 43.905 164.748 43.525 164.732 42.835C164.714 42.109 165.398 41.847 165.948 41.549C166.34 41.727 166.738 41.891 167.122 42.085C167.854 42.457 168.552 42.975 169.444 42.557C171.278 43.733 173.174 44.237 175.208 43.063C175.546 42.867 175.836 42.591 176.15 42.351C176.824 42.553 177.514 42.571 178.21 42.567C179.722 42.559 180.22 42.073 180.248 40.553L180.246 40.551Z" fill="#667182"/>
<path d="M128.947 53.531C130.105 55.237 133.949 54.525 134.835 52.787C135.119 52.231 135.417 51.683 135.709 51.131C136.927 50.899 138.108 50.591 138.918 49.537C139.254 50.759 139.106 51.783 138.164 52.799C136.663 54.419 134.917 55.627 132.941 56.545C131.331 57.293 129.635 57.503 127.889 57.173C126.285 56.869 125.773 56.167 125.905 54.531C127.083 54.697 128.097 54.369 128.943 53.529L128.947 53.531Z" fill="#667182"/>
<path d="M143.086 48.353C143.03 49.127 142.458 49.983 143.508 50.569C143.774 50.717 143.528 50.897 143.374 51.015C142.9 51.381 142.424 51.741 141.952 52.109C141.168 52.719 141.058 53.293 141.696 54.025C142.056 54.439 141.982 54.597 141.54 54.805C139.945 55.551 138.365 56.331 136.583 56.549C135.495 56.683 134.599 57.291 133.657 57.773C133.315 57.949 133.043 58.159 132.633 57.793C134.075 57.013 135.593 56.371 136.877 55.337C137.815 54.583 138.673 53.739 139.419 52.807C140.916 50.933 139.979 47.395 137.795 46.493C137.383 46.323 137.127 46.199 137.595 45.755C138.071 45.305 138.465 44.771 139.083 44.055C139.083 44.781 139.057 45.285 139.089 45.787C139.141 46.627 139.523 46.841 140.267 46.455C141.062 46.043 141.59 45.241 142.448 44.913C142.476 44.941 142.502 44.969 142.532 44.997C142.484 45.669 141.968 46.113 141.71 46.683C141.506 47.137 141.274 47.583 141.122 48.053C141.018 48.377 141.09 48.711 141.4 48.947C141.712 49.185 141.966 48.989 142.222 48.845C142.512 48.683 142.792 48.507 143.076 48.337L143.086 48.347V48.353Z" fill="#7C321D"/>
<path d="M116.924 24.1611C115.194 22.8611 115.176 21.5971 116.326 20.4211C119.05 17.6351 122.16 15.3271 125.274 13.0251C125.706 12.7051 126.002 12.1151 126.674 12.1771C126.454 12.7511 126.226 13.3291 127.222 13.3211C127.252 13.3511 127.284 13.3811 127.314 13.4111C126.986 14.0291 126.37 14.3331 125.83 14.6951C122.698 16.7951 120.252 19.6571 117.48 22.1571C116.874 22.7031 116.796 23.4071 116.924 24.1631V24.1611Z" fill="#667182"/>
<path d="M122.296 57.333C122.196 56.615 121.968 55.889 123.046 55.625C123.416 55.535 123.358 55.065 123.054 54.809C122.806 54.599 122.506 54.453 122.16 54.235C122.552 53.815 123.072 53.867 123.516 53.775C123.948 53.685 124.436 53.651 124.602 53.203C124.792 52.691 124.376 52.345 124.052 52.015C123.288 51.239 122.232 50.973 121.104 50.407C122.846 50.241 124.354 49.795 125.944 49.951C126.456 50.001 126.716 50.241 126.948 50.627C127.236 51.105 126.804 51.291 126.572 51.521C125.462 52.615 124.7 53.841 124.892 55.487C124.986 56.289 125.304 56.931 125.99 57.397C127.178 58.203 128.506 58.417 129.886 58.265C130.546 58.193 131.204 58.131 131.866 58.107L131.914 58.155C131.9 58.545 131.998 58.995 131.34 58.931C129.514 58.751 127.706 59.173 125.882 59.123C125.14 59.103 124.408 58.633 123.616 59.167C123.526 58.461 124.084 57.749 123.434 57.239C123.08 56.961 122.672 57.187 122.302 57.339L122.296 57.333Z" fill="#7C321D"/>
<path d="M192.58 160.859C188.804 158.767 188.094 157.253 188.34 153.465C188.472 151.421 188.566 151.429 190.636 150.993C191.178 150.879 191.716 150.747 192.346 150.601C190.886 154.107 190.586 157.473 192.704 160.735C192.662 160.777 192.622 160.819 192.58 160.861V160.859Z" fill="#667182"/>
<path d="M139.138 41.455C138.606 42.885 137.988 43.997 137.016 44.891C136.896 45.003 136.756 45.101 136.658 45.229C135.742 46.431 135.366 46.461 134.114 45.533C133.612 45.161 133.294 44.497 132.338 44.883C131.85 45.079 131.444 44.097 131.252 43.549C131.124 43.185 131.708 43.217 131.992 43.155C134.31 42.639 136.642 42.187 139.138 41.455Z" fill="#C54F1E"/>
<path d="M173.842 42.5349C174.21 39.0149 174.266 35.4829 174.278 31.9469C174.278 31.5829 174.298 31.2149 174.63 30.9649C175.06 32.2589 175.136 33.6149 175.196 34.9529C175.284 36.9109 175.182 38.8789 175.288 40.8369C175.348 41.9709 174.826 42.3969 173.842 42.5349Z" fill="#667182"/>
<path d="M138.924 49.5375C138.114 50.5915 136.932 50.8975 135.714 51.1315C136.04 49.8335 135.146 48.9795 134.516 48.0355C137.666 46.6295 139.002 47.5635 138.924 49.5375Z" fill="#A5ACB7"/>
<path d="M180.246 40.551C180.216 42.069 179.72 42.555 178.208 42.565C177.512 42.569 176.822 42.551 176.148 42.349C176.182 41.619 176.234 40.889 176.242 40.159C176.248 39.699 176.416 39.535 176.892 39.521C178.136 39.485 179.262 39.773 180.248 40.551H180.246Z" fill="#A5ACB7"/>
<path d="M159.7 67.567C159.982 66.379 160.242 65.185 160.558 64.005C160.672 63.575 160.74 63.143 160.678 62.725C160.546 61.813 160.918 61.367 161.808 61.301C162.196 63.175 161.696 64.965 161.242 66.745C161.064 67.443 160.348 67.537 159.702 67.569L159.7 67.567Z" fill="#B35A35"/>
<path d="M159.698 57.923C159.705 58.739 159.302 59.0236 158.49 58.777C158.268 58.709 158.044 58.639 157.818 58.589C156.462 58.291 156.436 58.279 157.072 57.077C157.424 56.409 157.622 55.341 158.656 55.599C159.642 55.845 159.696 56.839 159.698 57.723C159.698 57.789 159.698 57.857 159.698 57.923Z" fill="#C54F1E"/>
<path d="M128.946 53.5312C128.1 54.3692 127.084 54.6972 125.908 54.5332C125.924 53.3872 126.782 52.7392 127.434 51.9752C127.714 51.6452 127.884 51.9012 128.034 52.1292C128.342 52.5952 128.642 53.0652 128.946 53.5332V53.5312Z" fill="#A5ACB7"/>
<path d="M169.442 42.553C168.55 42.971 167.854 42.453 167.12 42.081C166.736 41.887 166.338 41.723 165.946 41.545C166.666 40.763 167.692 40.703 168.62 40.415C168.978 40.305 169.068 40.503 169.1 40.819C169.16 41.405 169.2 41.999 169.44 42.551L169.442 42.553Z" fill="#A5ACB7"/>
<path d="M155.996 53.319C155.75 52.587 155.474 51.865 155.268 51.123C155.11 50.555 155.56 50.343 155.984 50.265C156.592 50.155 156.466 50.663 156.46 50.987C156.442 51.757 156.516 52.541 156.302 53.293C156.2 53.301 156.098 53.311 155.996 53.319Z" fill="#667182"/>
<path d="M161.068 56.155C161.526 57.279 161.17 58.443 161.334 59.635C160.614 59.583 160.658 59.137 160.656 58.723C160.65 57.731 160.706 56.735 160.422 55.767C160.638 55.897 160.852 56.027 161.068 56.157V56.155Z" fill="#B35A35"/>
<path d="M154.916 57.677C154.99 57.475 155.088 57.125 155.246 56.803C155.426 56.439 155.846 56.239 156.146 56.379C156.492 56.539 156.144 56.893 156.07 57.151C155.98 57.465 155.836 57.763 155.718 58.069C155.624 58.315 155.566 58.595 155.186 58.463C154.852 58.349 154.862 58.095 154.918 57.675L154.916 57.677Z" fill="#C54F1E"/>
<path d="M161.068 56.155C160.852 56.025 160.638 55.895 160.422 55.765C160.296 55.561 160.168 55.355 160.042 55.151C160.052 54.973 160.022 54.827 159.794 54.833L159.76 54.791C159.796 54.663 159.752 54.599 159.614 54.605C159.614 54.605 159.592 54.585 159.594 54.585C159.648 54.305 159.526 54.165 159.248 54.149C159.188 54.079 159.126 54.007 159.066 53.937C159.066 53.755 159.068 53.573 159.07 53.391C160.344 53.873 160.828 54.925 161.068 56.155Z" fill="#E9C866"/>
<path d="M125.094 60.119C124.576 60.957 123.618 60.973 122.838 61.323C123.328 60.431 123.938 59.767 125.094 60.119Z" fill="#FA8C61"/>
<path d="M159.204 50.693C159.29 50.175 159.55 49.851 160.088 50.133C160.582 50.393 160.242 50.757 160.092 51.067C159.948 51.365 159.802 51.671 159.472 51.821C159.512 51.413 159.342 51.057 159.202 50.691L159.204 50.693Z" fill="#A5ACB7"/>
<path d="M172.856 137.829C173.212 139.153 173.516 140.485 173.422 141.871C172.864 140.575 172.898 139.197 172.856 137.829Z" fill="#C54F1E"/>
<path d="M159.204 50.693C159.344 51.057 159.514 51.415 159.474 51.823C159.414 52.285 159.096 52.487 158.712 52.337C158.192 52.133 158.672 51.785 158.724 51.529C158.786 51.223 158.93 50.907 159.204 50.693Z" fill="#667182"/>
<path d="M120.99 57.349C120.686 57.227 120.322 57.171 120.306 56.731C120.674 56.783 121.3 56.549 120.99 57.349Z" fill="#B35A35"/>
<path d="M172.66 136.233C172.96 136.615 172.854 137.049 172.824 137.473C172.588 137.083 172.634 136.657 172.66 136.233Z" fill="#C54F1E"/>
<path d="M159.07 53.393C159.07 53.575 159.068 53.757 159.066 53.939C158.878 53.877 158.706 53.771 158.714 53.563C158.724 53.347 158.912 53.373 159.07 53.393Z" fill="#C54F1E"/>
<path d="M119.1 27.379C118.7 27.357 118.668 27.089 118.7 26.779C118.994 26.873 119.104 27.087 119.1 27.379Z" fill="#667182"/>
<path d="M118.7 26.779C118.296 26.767 118.272 26.493 118.292 26.189C118.586 26.277 118.702 26.487 118.7 26.779Z" fill="#667182"/>
<path d="M117.317 24.771C116.893 24.757 116.867 24.487 116.925 24.161C117.215 24.261 117.313 24.485 117.317 24.771Z" fill="#667182"/>
<path d="M159.248 54.151C159.526 54.167 159.65 54.307 159.594 54.587C159.388 54.513 159.268 54.371 159.248 54.151Z" fill="#C54F1E"/>
<path d="M126.883 11.981C126.883 11.861 126.883 11.739 126.883 11.619C126.989 11.647 127.093 11.675 127.199 11.703C127.153 11.863 127.061 11.971 126.885 11.981H126.883Z" fill="#667182"/>
<path d="M159.794 54.835C160.022 54.827 160.052 54.975 160.042 55.153C159.96 55.047 159.876 54.941 159.794 54.835Z" fill="#C54F1E"/>
<path d="M133.55 157.955C133.654 158.043 133.758 158.181 133.648 158.279C133.508 158.405 133.444 158.225 133.374 158.129C133.432 158.071 133.492 158.013 133.55 157.955Z" fill="#B35A35"/>
<path d="M122.369 58.7969C122.389 58.7969 122.415 58.7909 122.425 58.7989C122.441 58.8129 122.457 58.8449 122.451 58.8589C122.415 58.9429 122.371 58.9429 122.341 58.8549C122.335 58.8389 122.359 58.8149 122.369 58.7949V58.7969Z" fill="#FA8C61"/>
<path d="M131.866 58.109C131.906 58.085 131.948 58.063 131.988 58.039C131.964 58.077 131.938 58.117 131.914 58.155L131.866 58.107V58.109Z" fill="#7C321D"/>
<path d="M159.616 54.607C159.752 54.599 159.798 54.665 159.762 54.793C159.714 54.731 159.666 54.669 159.616 54.607Z" fill="#C54F1E"/>
<path d="M160.94 52.0611L160.702 52.0931C160.728 52.0171 160.752 51.9411 160.776 51.8651C160.83 51.9311 160.884 51.9971 160.94 52.0611Z" fill="#C54F1E"/>
<path d="M125.362 48.6846C125.426 48.7366 125.518 48.7846 125.398 48.8646C125.384 48.8746 125.32 48.8046 125.278 48.7726C125.306 48.7426 125.334 48.7146 125.362 48.6846Z" fill="#B35A35"/>
<path d="M143.076 48.343C143.11 48.317 143.146 48.291 143.18 48.265C143.148 48.295 143.118 48.323 143.086 48.353L143.076 48.343Z" fill="#7C321D"/>
<path d="M142.724 47.195C142.678 47.273 142.636 47.367 142.544 47.241C142.54 47.235 142.618 47.167 142.658 47.129L142.726 47.195H142.724Z" fill="#C54F1E"/>
<path d="M142.448 44.9189C142.488 44.8849 142.552 44.8169 142.564 44.8249C142.676 44.9009 142.59 44.9509 142.532 45.0029C142.504 44.9769 142.476 44.9489 142.448 44.9189Z" fill="#7C321D"/>
<path d="M148.868 14.185C148.846 14.215 148.826 14.245 148.804 14.275C148.804 14.257 148.8 14.231 148.808 14.223C148.826 14.207 148.852 14.203 148.876 14.193L148.868 14.185Z" fill="#667182"/>
<path d="M192.704 160.735C192.73 160.801 192.756 160.865 192.782 160.931C192.714 160.907 192.648 160.883 192.58 160.861C192.62 160.819 192.662 160.777 192.704 160.735Z" fill="#667182"/>
<path d="M127.222 13.321C127.288 13.245 127.356 13.189 127.436 13.299C127.44 13.305 127.356 13.373 127.314 13.411C127.282 13.381 127.252 13.351 127.222 13.321Z" fill="#667182"/>
<path d="M122.303 57.3389C122.291 57.3649 122.285 57.3949 122.267 57.4129C122.257 57.4249 122.227 57.4209 122.207 57.4229C122.237 57.3929 122.267 57.3629 122.297 57.3309L122.303 57.3369V57.3389Z" fill="#7C321D"/>
<path d="M89.4228 162.729C89.4708 161.023 89.5948 159.839 89.8428 158.659C90.7268 154.463 93.4328 152.119 97.5188 151.477C99.9107 151.101 102.135 151.805 103.689 153.901C106.251 157.355 106.865 161.149 105.643 165.245C104.199 170.081 96.7468 172.785 92.7648 169.083C90.7088 167.171 89.0828 165.223 89.4228 162.731V162.729ZM95.1108 161.657C95.0628 163.561 95.5308 164.437 96.4968 164.863C97.6208 165.359 98.9227 165.123 99.7767 164.167C100.963 162.835 101.447 161.237 101.251 159.471C101.145 158.509 100.593 157.791 99.6267 157.529C98.6608 157.267 97.6028 157.273 96.9248 158.037C95.8848 159.209 95.1548 160.597 95.1088 161.655L95.1108 161.657ZM91.1208 163.017C91.4308 165.485 92.6548 167.407 94.6468 168.867C95.1028 169.201 95.5768 169.513 96.1508 169.599C96.6128 169.669 97.0528 169.579 97.2348 169.107C97.4168 168.633 97.1308 168.285 96.7508 168.027C96.6148 167.935 96.4548 167.877 96.3088 167.799C94.3328 166.737 93.1588 165.127 92.9128 162.871C92.8488 162.285 92.6768 161.647 91.9808 161.675C91.2168 161.705 91.1068 162.361 91.1208 163.019V163.017ZM101.123 154.905C101.111 155.397 102.537 157.897 102.963 158.107C103.277 158.261 103.607 158.277 103.907 158.081C104.163 157.913 104.391 157.677 104.265 157.341C103.833 156.199 103.315 155.101 102.423 154.227C102.185 153.993 101.893 153.949 101.603 154.103C101.293 154.269 101.105 154.531 101.125 154.905H101.123Z" fill="#A5ACB7"/>
<path d="M98.3829 150.301C94.209 150.947 90.787 152.587 89.419 156.799C87.769 161.875 87.513 166.741 92.805 170.239C89.281 170.615 85.751 167.767 85.3451 164.287C85.0431 161.693 85.1891 159.117 86.021 156.609C87.175 153.127 89.861 151.409 93.165 150.435C94.871 149.931 96.613 149.789 98.3849 150.301H98.3829Z" fill="#667182"/>
<path d="M118.747 166.059C117.607 164.763 116.765 163.363 117.015 161.551C117.075 161.117 117.239 160.655 117.753 160.611C118.315 160.563 118.415 161.071 118.541 161.473C119.017 162.973 119.015 164.499 118.745 166.059H118.747Z" fill="#FEFEFE"/>
<path d="M180.026 128.278C179.894 126.796 179.766 125.312 179.626 123.832C179.442 121.854 179.176 119.882 179.076 117.9C178.908 114.586 178.528 111.272 178.676 107.956C178.898 102.998 178.204 98.2202 176.784 93.4562C174.91 87.1662 173.748 80.6962 172.698 74.2202C172.058 70.2702 171.586 66.2902 171.076 62.3182C170.706 59.4322 172.182 57.1402 174.748 56.5142C177.212 55.9122 179.804 57.4702 180.456 59.9402C180.916 61.6782 181.028 63.4682 181.24 65.2422C181.854 70.3402 182.598 75.4142 183.656 80.4402C183.848 81.3522 184.556 81.9762 184.862 82.8262C185.892 85.6722 186.63 88.5962 187.23 91.5542C188.06 95.6422 188.822 99.7442 189.382 103.878C189.742 106.534 189.854 109.224 190.254 111.874C191.046 117.112 190.874 122.446 191.958 127.662C192.616 130.83 192.93 134.078 193.311 137.288C193.553 139.316 192.943 141.464 191.122 142.896C188.818 144.706 185.638 143.914 183.872 141.7C182.606 140.112 182.36 138.21 182.028 136.314C181.81 135.062 181.95 133.704 181.046 132.632C181.018 132.586 181.008 132.536 181.014 132.482C181.066 132.238 181.066 132.01 180.844 131.838C180.57 130.65 180.296 129.462 180.022 128.276L180.026 128.278Z" fill="#FA8C61"/>
<path d="M137.002 91.1812C137.256 89.9672 136.786 88.8212 136.62 87.6552C136.022 83.4332 135.338 79.2232 134.688 75.0092C134.426 73.3092 134.092 71.6172 134.096 69.8872C134.104 67.5592 135.618 65.5512 137.758 65.0032C139.854 64.4652 142.188 65.5512 143.31 67.5772C143.638 68.1692 143.88 68.8112 143.866 69.4672C143.816 71.9072 144.392 74.2672 144.73 76.6552C145.252 80.3532 145.96 84.0252 146.448 87.7292C146.948 91.5112 147.218 95.3232 147.704 99.1072C148.022 101.583 148.386 104.065 149.088 106.475C149.096 106.593 149.104 106.709 149.112 106.827C149.058 107.189 148.986 107.555 149.252 107.875C149.812 113.247 150.37 118.619 150.93 123.991C150.754 126.157 151.356 128.279 151.336 130.423C151.314 132.627 152.454 134.411 153.132 136.367C154.222 139.507 155.3 142.637 155.1 146.051C154.972 148.233 153.618 150.009 151.516 150.501C150.056 150.843 148.174 149.925 147.066 148.435C146.464 147.625 146.278 146.615 145.67 145.821C145.642 145.779 145.632 145.731 145.64 145.681C145.702 145.433 145.71 145.199 145.482 145.021C145.412 144.765 145.332 144.511 145.274 144.251C143.716 137.179 143.048 130.007 142.828 122.783C142.696 118.429 142.632 114.067 141.852 109.761C141.098 105.599 139.8 101.575 138.65 97.5152C138.144 95.7312 137.606 93.9532 137.264 92.1272C137.312 91.8852 137.332 91.6492 137.098 91.4792C137.066 91.3792 137.034 91.2772 137 91.1772L137.002 91.1812Z" fill="#FA8C61"/>
<path d="M188.606 85.739C188.558 84.163 188.09 82.673 187.634 81.189C186.404 77.189 185.602 73.097 184.824 68.993C184.282 66.131 183.32 63.353 182.926 60.459C182.622 58.219 182.958 56.159 184.936 54.667C187.67 52.607 191.818 54.155 192.344 57.807C192.796 60.943 193.822 63.931 194.28 67.041C195.192 73.225 197.382 79.107 198.498 85.237C198.788 86.833 198.594 88.465 198.95 90.077C199.52 92.661 200.23 95.223 200.514 97.865C200.898 101.417 201.834 104.909 201.8 108.503C201.786 109.959 201.598 111.413 201.628 112.877C201.708 116.697 201.646 120.527 201.866 124.339C202.106 128.503 202.272 132.677 202.822 136.819C202.886 137.309 203.026 137.791 203.136 138.275C203.528 139.991 202.656 141.265 200.738 141.771C199.176 142.183 197.816 141.397 197.452 139.717C196.98 137.551 196.544 135.371 196.266 133.173C196.04 131.385 195.424 129.701 195.138 127.933C194.702 125.251 194.426 122.555 194.212 119.847C193.884 115.695 194.1 111.539 194.034 107.385C194.03 107.089 194.046 106.753 193.916 106.507C192.616 104.035 192.544 101.273 192.036 98.617C191.514 95.885 191.108 93.129 190.362 90.443C190.202 89.867 190.154 89.169 189.462 88.873C189.416 88.711 189.372 88.549 189.326 88.389C189.388 88.265 189.348 88.169 189.244 88.089C188.946 87.551 188.946 86.933 188.784 86.359C188.84 86.171 188.818 86.009 188.642 85.891C188.616 85.843 188.604 85.791 188.606 85.737V85.739Z" fill="#FA8C61"/>
<path d="M132.798 73.4369C132.494 74.8369 132.862 76.2169 132.988 77.5909C133.266 80.6529 133.768 83.6949 134.072 86.7549C134.322 89.2829 135.058 91.6889 135.732 94.1109C137.242 99.5469 138.222 105.079 138.914 110.675C139.278 113.611 139.554 116.537 139.484 119.499C139.424 121.995 139.916 124.441 140.326 126.891C140.848 130.023 141.418 133.151 141.692 136.319C141.906 138.793 142.442 141.189 143.118 143.583C143.654 145.479 143.898 147.479 144.056 149.451C144.218 151.473 142.842 153.023 140.862 153.389C139.184 153.701 137.266 152.527 136.644 150.755C136.404 150.071 136.27 149.349 136.096 148.643C136.008 148.287 135.964 147.909 135.514 147.809C135.1 145.717 135.136 143.579 134.896 141.471C134.224 135.567 133.038 129.737 132.336 123.835C131.65 118.059 129.968 112.465 128.962 106.743C128.55 104.393 127.868 102.089 127.702 99.6949C128.036 99.3609 127.758 99.0169 127.732 98.6709C127.514 95.5689 127.05 92.4929 126.684 89.4089C126.43 87.2769 126.092 85.1529 125.84 83.0209C125.564 80.6909 125.284 78.3589 125.13 76.0209C125.064 75.0149 124.876 74.0089 125.058 72.9669C125.32 71.4649 126.018 70.3449 127.434 69.7889C128.908 69.2109 130.302 69.4609 131.534 70.4789C131.762 70.6669 131.93 70.9389 132.27 70.9429C132.318 71.1049 132.366 71.2689 132.414 71.4309C132.342 71.5509 132.38 71.6449 132.478 71.7269L132.796 73.4409L132.798 73.4369Z" fill="#FA8C61"/>
<path d="M211.602 126.383C211.622 129.823 211.494 132.583 212 135.315C212.294 136.903 210.916 138.955 208.776 138.655C207.53 138.481 206.406 136.987 206.19 135.379C205.66 131.439 205.844 127.485 205.834 123.533C205.828 121.069 205.378 118.651 205.118 116.217C204.922 114.373 204.742 112.517 204.674 110.677C204.582 108.189 204.422 105.703 204.368 103.211C204.314 100.797 203.636 98.441 203.104 96.085C202.214 92.139 201.522 88.169 201.194 84.131C200.968 81.359 200.468 78.621 199.862 75.903C199.062 72.313 198.62 68.663 198.032 65.037C197.536 61.989 196.654 59.029 195.956 56.027C195.426 53.751 196.81 52.033 199.106 52.127C200.28 52.175 201.368 53.119 201.56 54.495C201.954 57.295 202.968 59.949 203.422 62.731C203.892 65.605 204.318 68.485 204.822 71.353C205.344 74.319 205.984 77.265 206.478 80.237C206.802 82.193 207 84.173 207.178 86.149C207.494 89.659 208.326 93.069 209.052 96.503C209.628 99.227 209.934 101.969 210.112 104.765C210.372 108.859 210.414 112.971 210.978 117.051C211.436 120.367 211.908 123.697 211.604 126.381L211.602 126.383Z" fill="#FA8C61"/>
<path d="M132.417 71.425C132.369 71.261 132.321 71.099 132.273 70.937C132.305 69.995 131.925 69.121 131.813 68.199C131.767 67.811 131.479 67.353 132.055 67.217C132.595 67.091 132.695 67.607 132.767 67.987C133.213 70.301 133.696 72.609 134.052 74.937C134.834 80.021 135.37 85.147 136.662 90.145C136.752 90.497 136.882 90.837 136.994 91.183C137.026 91.283 137.058 91.385 137.092 91.485C137.044 91.727 137.058 91.953 137.258 92.133C137.602 93.959 138.14 95.737 138.644 97.521C139.794 101.581 141.09 105.605 141.846 109.767C142.626 114.071 142.69 118.433 142.822 122.789C143.042 130.013 143.712 137.185 145.268 144.257C145.326 144.517 145.406 144.771 145.476 145.027C145.434 145.269 145.442 145.499 145.634 145.687C145.626 145.737 145.636 145.785 145.664 145.827C145.86 147.771 146.056 149.713 146.25 151.657C146.274 151.889 146.302 152.121 146.296 152.353C146.29 152.639 146.192 152.903 145.858 152.917C145.546 152.929 145.372 152.705 145.318 152.425C145.23 151.971 145.106 151.507 145.12 151.051C145.228 147.577 144.184 144.289 143.514 140.941C142.882 137.775 142.68 134.553 142.3 131.353C141.802 127.151 141.73 122.927 141.708 118.701C141.676 112.725 140.388 106.977 138.688 101.281C136.75 94.787 134.95 88.249 133.984 81.521C133.598 78.827 133.316 76.117 132.793 73.443C132.687 72.871 132.581 72.299 132.475 71.727C132.453 71.629 132.431 71.529 132.411 71.431L132.417 71.425Z" fill="#110905"/>
<path d="M127.705 99.691C127.873 102.085 128.553 104.389 128.965 106.739C129.969 112.461 131.653 118.055 132.339 123.831C133.041 129.735 134.227 135.563 134.899 141.467C135.139 143.575 135.101 145.711 135.517 147.805C135.729 149.683 135.893 151.567 136.175 153.433C136.299 154.251 136.193 155.095 136.493 155.895C136.583 156.133 136.555 156.459 136.227 156.561C135.843 156.679 135.699 156.393 135.581 156.103C135.187 155.127 135.273 154.073 135.133 153.061C134.647 149.509 134.319 145.939 133.975 142.369C133.507 137.511 132.589 132.707 131.875 127.879C131.297 123.969 130.817 120.053 129.963 116.185C128.925 111.483 127.823 106.783 127.075 102.031C126.279 96.975 124.889 92.029 124.401 86.925C124.043 83.187 123.575 79.455 123.543 75.691C123.529 74.095 123.503 72.499 123.483 70.903C123.523 70.145 123.563 69.389 123.601 68.631C124.279 68.199 124.503 68.525 124.509 69.183C124.517 70.379 124.511 71.577 124.513 72.773C124.521 80.563 125.221 88.279 126.983 95.883C127.275 97.141 127.469 98.421 127.707 99.689L127.705 99.691Z" fill="#110905"/>
<path d="M202.006 110.461C202.41 101.007 200.778 91.801 198.828 82.605C197.348 75.623 196.098 68.591 194.448 61.641C193.988 59.703 193.522 57.765 193.062 55.825C192.986 55.503 192.912 55.175 192.882 54.847C192.854 54.533 192.932 54.223 193.304 54.159C193.712 54.089 193.77 54.385 193.844 54.705C194.414 57.197 195 59.687 195.582 62.177C197.914 72.173 199.728 82.275 201.726 92.339C202.652 97.003 202.932 101.759 202.998 106.521C203.052 110.545 202.774 114.575 203.2 118.591C203.518 121.597 203.86 124.601 204.26 127.595C204.652 130.531 204.728 133.489 204.972 136.435C205.072 137.627 205.158 138.817 205.354 139.997C205.398 140.257 205.4 140.527 205.392 140.793C205.382 141.129 205.23 141.393 204.858 141.379C204.466 141.363 204.444 141.059 204.406 140.737C204.05 137.837 203.854 134.923 203.688 132.007C203.498 128.685 203.056 125.391 202.6 122.103C202.062 118.233 201.946 114.353 202.008 110.461H202.006Z" fill="#110905"/>
<path d="M189.326 88.393C189.372 88.555 189.416 88.717 189.462 88.877C189.942 91.215 190.468 93.545 190.892 95.893C192.178 102.993 193.282 110.117 193.212 117.363C193.162 122.423 194.162 127.335 195.298 132.227C196.018 135.335 196.62 138.463 197.04 141.627C197.09 142.007 197.372 142.489 196.798 142.623C196.154 142.773 196.154 142.143 196.086 141.769C195.738 139.841 195.49 137.897 195.11 135.977C194.366 132.233 193.498 128.511 192.796 124.759C192.368 122.473 192.262 120.133 192.266 117.807C192.28 108.849 190.83 100.075 188.976 91.353C188.166 87.545 187.044 83.821 185.65 80.185C183.686 75.061 182.68 69.715 181.866 64.321C181.662 62.975 181.506 61.623 181.356 60.269C181.302 59.775 181.304 59.273 181.326 58.775C181.34 58.473 181.442 58.147 181.832 58.153C182.25 58.159 182.264 58.501 182.27 58.805C182.3 60.469 182.548 62.109 182.76 63.759C183.612 70.419 185.288 76.861 187.712 83.117C188.046 83.981 188.154 84.921 188.61 85.741C188.608 85.795 188.62 85.847 188.646 85.895C188.604 86.077 188.634 86.239 188.788 86.363C188.95 86.937 188.95 87.555 189.248 88.093C189.276 88.193 189.302 88.293 189.33 88.393H189.326Z" fill="#110905"/>
<path d="M181.012 132.485C181.006 132.539 181.016 132.587 181.044 132.635C181.44 135.157 181.912 137.667 182.12 140.215C182.264 142.003 182.43 143.787 182.572 145.575C182.606 146.007 182.644 146.565 182.042 146.555C181.44 146.545 181.56 146.019 181.554 145.571C181.514 143.245 181.206 140.939 180.976 138.627C180.448 133.347 178.868 128.295 177.614 123.173C176.932 120.387 176.79 117.529 176.462 114.697C175.852 109.449 175.998 104.143 175.25 98.907C174.598 94.339 173.718 89.809 172.938 85.263C171.884 79.115 170.966 72.943 169.67 66.837C169.63 66.647 169.55 66.467 169.49 66.283C169.498 66.229 169.49 66.179 169.464 66.131C169.492 65.707 169.532 65.279 169.278 64.897C169.302 64.009 168.928 63.137 169.154 62.241C169.716 62.015 170.006 62.133 170.078 62.807C170.63 67.899 171.994 72.849 172.724 77.913C173.79 85.307 175.402 92.611 176.38 100.019C176.802 103.217 176.806 106.451 177.028 109.665C177.456 115.867 177.956 122.059 179.87 128.031C179.898 128.121 179.972 128.197 180.024 128.281C180.298 129.469 180.572 130.657 180.846 131.843C180.806 132.083 180.82 132.309 181.016 132.487L181.012 132.485Z" fill="#110905"/>
<path d="M150.926 123.993C150.366 118.621 149.808 113.249 149.248 107.877C149.286 107.517 149.32 107.155 149.108 106.829C149.1 106.711 149.092 106.595 149.084 106.477C149.084 103.579 148.69 100.711 148.44 97.833C148.118 94.127 147.786 90.421 147.32 86.727C146.696 81.783 145.908 76.865 145.21 71.933C144.926 69.927 144.568 67.931 144.48 65.901C144.464 65.547 144.384 65.071 144.902 65.045C145.374 65.021 145.424 65.437 145.456 65.829C145.788 70.039 146.556 74.189 147.158 78.363C147.912 83.591 148.586 88.827 149.09 94.087C149.828 101.793 150.29 109.523 151.184 117.215C151.714 121.773 152.176 126.331 153.436 130.761C154.21 133.485 155.406 136.053 156.422 138.687C157.178 140.647 157.868 142.607 158.174 144.697C158.332 145.777 158.03 146.815 158.046 147.875C158.05 148.127 157.904 148.341 157.622 148.331C157.362 148.323 157.192 148.133 157.148 147.889C157.102 147.629 157.066 147.351 157.112 147.097C157.576 144.481 156.754 142.077 155.798 139.739C153.73 134.687 151.706 129.633 151.03 124.159C151.022 124.099 150.964 124.045 150.93 123.989L150.926 123.993Z" fill="#110905"/>
<path d="M106.013 54.033C107.639 55.417 109.447 56.539 111.261 57.649C113.901 59.263 116.477 60.965 118.845 62.969C119.221 63.287 119.663 63.531 120.075 63.807C120.117 64.695 119.731 64.839 119.069 64.343C117.579 63.227 116.145 62.031 114.621 60.963C111.869 59.037 108.893 57.447 106.197 55.435C105.957 55.257 105.699 55.095 105.489 54.887C105.301 54.701 105.141 54.453 105.303 54.171C105.475 53.873 105.753 53.959 106.015 54.035L106.013 54.033Z" fill="#110905"/>
<path d="M105.758 56.2291C105.876 56.2951 106.064 56.3711 106.22 56.4891C109.37 58.8891 112.91 60.6911 116.142 62.9651C116.332 63.0991 116.526 63.2291 116.706 63.3771C116.94 63.5691 117.014 63.8331 116.854 64.0871C116.672 64.3751 116.386 64.3211 116.156 64.1531C112.712 61.6591 108.864 59.7791 105.504 57.1591C105.286 56.9891 105.082 56.8051 105.21 56.4951C105.294 56.2951 105.466 56.1991 105.76 56.2291H105.758Z" fill="#110905"/>
<path d="M169.274 64.897C169.528 65.279 169.486 65.707 169.46 66.131C169.118 65.761 169.262 65.319 169.274 64.897Z" fill="#C54F1E"/>
<path d="M123.3 11.615C123.356 12.297 122.824 12.635 122.402 12.961C120.706 14.275 118.967 15.535 117.247 16.821C116.719 17.217 116.171 17.4451 115.683 16.8231C115.213 16.225 115.703 15.815 116.113 15.497C117.547 14.381 119.013 13.307 120.46 12.211C120.986 11.813 121.502 11.399 122.016 10.985C122.308 10.749 122.636 10.741 122.956 10.859C123.298 10.985 123.304 11.307 123.3 11.615Z" fill="#B2BCCA"/>
<path d="M115.101 18.443C115.005 19.305 114.329 20.055 113.703 19.975C113.093 19.895 112.857 19.499 112.925 18.925C113.005 18.243 113.917 17.333 114.411 17.403C114.859 17.467 115.161 17.921 115.101 18.443Z" fill="#B2BCCA"/>
<path d="M172.45 21.269C172.436 21.769 172.2 22.107 171.698 22.167C171.114 22.239 170.752 21.975 170.652 21.367C170.19 18.565 169.708 15.767 169.256 12.963C169.082 11.889 168.796 10.829 168.842 9.72104C168.866 9.16704 168.97 8.66304 169.596 8.63104C170.21 8.60104 170.588 9.03704 170.638 9.62304C170.958 13.449 171.806 17.191 172.412 20.971C172.428 21.069 172.436 21.169 172.448 21.269H172.45Z" fill="#B2BCCA"/>
<path d="M173.248 26.569C173.248 26.841 173.236 27.041 173.25 27.239C173.284 27.735 172.972 27.961 172.572 28.097C172.07 28.267 171.824 27.913 171.65 27.551C171.25 26.721 171.5 25.797 171.352 24.921C171.298 24.597 171.78 24.171 172.284 24.199C172.744 24.225 173.004 24.525 173.042 24.975C173.088 25.535 173.368 26.063 173.25 26.569H173.248Z" fill="#B2BCCA"/>
<path d="M196.04 155.245C196.048 154.367 196.264 153.541 196.61 152.735C197.06 151.689 197.7 150.877 198.948 150.883C200.266 150.889 201.114 151.619 201.614 152.791C202.592 155.077 200.726 157.949 198.384 157.773C196.826 157.655 196.024 156.791 196.04 155.245ZM200.852 153.609C200.83 153.103 200.504 152.347 199.582 151.979C198.516 151.555 197.926 152.061 197.206 153.987C196.718 155.293 196.964 156.325 197.842 156.663C199.426 157.271 200.874 156.009 200.85 153.609H200.852Z" fill="#101011"/>
<path d="M196.38 160.833C195.37 160.789 194.674 160.175 194.046 159.487C193.382 158.761 193.06 157.847 192.864 156.901C192.756 156.375 192.924 155.889 193.49 155.697C194.072 155.499 194.458 155.931 194.536 156.351C194.8 157.773 195.554 158.743 196.848 159.359C197.248 159.549 197.326 159.981 197.192 160.403C197.068 160.793 196.732 160.833 196.38 160.833Z" fill="#667182"/>
<path d="M204.562 152.425C204.436 152.861 204.256 153.303 203.72 153.391C203.252 153.467 202.968 153.173 202.836 152.755C202.626 152.093 202.468 151.417 202.124 150.797C201.86 150.321 202.268 150.067 202.552 149.803C202.872 149.505 203.136 149.677 203.422 149.911C204.214 150.557 204.33 151.497 204.562 152.423V152.425Z" fill="#B2BCCA"/>
<path d="M157.164 65.987C157.058 65.961 156.772 65.883 156.482 65.817C155.766 65.649 155.634 65.229 156.018 64.653C156.392 64.093 156.588 63.619 156.12 62.951C155.776 62.461 155.896 61.799 156.536 61.527C157.208 61.241 157.97 61.047 158.552 61.709C159.062 62.291 159.114 63.017 158.558 63.569C158.076 64.047 157.824 64.509 158.09 65.137C158.44 65.961 157.984 66.041 157.166 65.987H157.164Z" fill="#110905"/>
<path d="M95.1107 161.657C95.1567 160.599 95.8867 159.211 96.9267 158.039C97.6047 157.275 98.6627 157.269 99.6287 157.531C100.595 157.793 101.145 158.509 101.253 159.473C101.449 161.237 100.965 162.837 99.7787 164.169C98.9267 165.127 97.6227 165.363 96.4987 164.865C95.5307 164.437 95.0647 163.563 95.1127 161.659L95.1107 161.657ZM96.0927 161.897C96.0647 162.993 96.1567 163.677 96.9467 163.995C97.7867 164.333 98.5547 164.117 99.1167 163.469C100.049 162.395 100.447 161.091 100.303 159.683C100.191 158.573 98.8987 157.943 98.0567 158.545C96.7907 159.449 96.1987 160.735 96.0927 161.897Z" fill="#101011"/>
<path d="M91.1207 163.017C91.1067 162.359 91.2167 161.703 91.9807 161.673C92.6767 161.647 92.8487 162.285 92.9127 162.869C93.1587 165.125 94.3327 166.737 96.3087 167.797C96.4547 167.875 96.6147 167.931 96.7507 168.025C97.1307 168.285 97.4167 168.631 97.2347 169.105C97.0527 169.579 96.6127 169.667 96.1507 169.597C95.5767 169.511 95.1007 169.199 94.6467 168.865C92.6567 167.405 91.4307 165.483 91.1207 163.015V163.017Z" fill="#667182"/>
<path d="M101.123 154.907C101.103 154.533 101.289 154.269 101.601 154.105C101.891 153.951 102.183 153.997 102.421 154.229C103.311 155.101 103.829 156.199 104.263 157.343C104.391 157.681 104.163 157.915 103.905 158.083C103.607 158.279 103.275 158.263 102.961 158.109C102.535 157.899 101.109 155.399 101.123 154.907Z" fill="#B2BCCA"/>
<path d="M181.012 132.485C180.816 132.307 180.802 132.081 180.842 131.841C181.064 132.011 181.064 132.241 181.012 132.485Z" fill="#C54F1E"/>
<path d="M149.108 106.829C149.32 107.157 149.286 107.517 149.248 107.877C148.98 107.557 149.054 107.191 149.108 106.829Z" fill="#C54F1E"/>
<path d="M137.26 92.131C137.06 91.953 137.046 91.727 137.094 91.483C137.328 91.653 137.308 91.887 137.26 92.131Z" fill="#C54F1E"/>
<path d="M145.636 145.683C145.444 145.497 145.438 145.267 145.478 145.023C145.706 145.201 145.698 145.435 145.636 145.683Z" fill="#C54F1E"/>
<path d="M188.784 86.361C188.63 86.237 188.602 86.075 188.642 85.893C188.816 86.011 188.84 86.173 188.784 86.361Z" fill="#C54F1E"/>
<path d="M189.326 88.393C189.298 88.293 189.272 88.193 189.244 88.093C189.348 88.173 189.388 88.269 189.326 88.393Z" fill="#C54F1E"/>
<path d="M132.416 71.425C132.438 71.523 132.46 71.623 132.48 71.721C132.382 71.639 132.344 71.545 132.416 71.425Z" fill="#C54F1E"/>
<path d="M200.857 153.609C200.881 156.009 199.434 157.271 197.85 156.663C196.972 156.325 196.726 155.293 197.214 153.987C197.934 152.061 198.524 151.553 199.589 151.979C200.511 152.347 200.837 153.105 200.859 153.609H200.857ZM199.664 154.555C200.119 154.435 200.457 154.227 200.431 153.687C200.407 153.189 200.125 152.979 199.662 153.011C199.174 153.045 198.832 153.299 198.882 153.817C198.922 154.245 199.219 154.509 199.665 154.555H199.664Z" fill="#667182"/>
<path d="M96.0929 161.897C96.1969 160.735 96.7889 159.449 98.0568 158.545C98.9008 157.943 100.191 158.573 100.303 159.683C100.445 161.093 100.049 162.395 99.1168 163.469C98.5548 164.117 97.7868 164.333 96.9469 163.995C96.1569 163.677 96.0649 162.993 96.0929 161.897ZM99.7448 160.083C99.7948 159.517 99.5108 159.141 98.9868 159.101C98.4648 159.061 98.1228 159.381 98.1068 159.953C98.0908 160.521 98.2908 160.967 98.9108 160.987C99.4748 161.005 99.7108 160.607 99.7428 160.083H99.7448Z" fill="#667182"/>
<path d="M199.658 154.555C199.212 154.509 198.916 154.245 198.874 153.817C198.824 153.301 199.166 153.045 199.654 153.011C200.118 152.979 200.4 153.189 200.424 153.687C200.45 154.227 200.114 154.435 199.656 154.555H199.658Z" fill="#A5ACB7"/>
<path d="M99.7448 160.083C99.7128 160.607 99.4768 161.005 98.9128 160.987C98.2928 160.967 98.0928 160.519 98.1088 159.953C98.1248 159.381 98.4668 159.063 98.9888 159.101C99.5128 159.141 99.7948 159.519 99.7468 160.083H99.7448Z" fill="#B2BCCA"/>
</g>
<defs>
<clipPath id="clip0_2624_68391">
<rect width="130.813" height="165.38" fill="white" transform="translate(84.2029 6.41101)"/>
</clipPath>
</defs>
</svg>
