<svg width="300" height="200" viewBox="0 0 300 200" fill="none" xmlns="http://www.w3.org/2000/svg">
<g clip-path="url(#clip0_1448_78861)">
<path d="M94.1369 103.001C93.4949 103.153 93.2289 103.961 92.6869 103.555C92.1949 103.187 92.5129 102.565 92.5969 102.059C92.6889 101.501 92.8109 100.919 93.1629 100.475C94.6989 98.5349 94.1029 96.2929 94.0809 94.1389C94.0769 93.7849 93.9609 93.4269 94.0629 93.0649C94.3649 91.9989 94.2249 90.8929 94.3609 89.8089C94.4169 89.3649 94.6089 89.0949 95.0069 88.8909C96.5469 88.1089 98.1589 87.4749 99.6309 86.5489C100.259 86.1549 100.667 86.4249 100.795 87.1969C101.185 89.5529 101.203 89.5489 103.593 89.7269C104.355 89.7829 105.111 89.8709 105.883 89.8309C106.427 89.8029 106.565 89.5869 106.561 89.1049C106.549 87.5729 106.557 86.0429 106.557 84.5109C106.557 84.2749 106.505 84.0609 106.369 83.8529C106.111 83.4629 106.203 83.1529 106.657 82.9989C107.657 82.6569 107.169 82.3049 106.699 81.8829C102.245 77.8889 98.7969 73.1409 96.4909 67.6369C94.2969 62.4049 94.6389 57.0869 96.6729 51.8849C97.8549 48.8629 100.139 47.1969 103.479 47.0529C105.627 46.9589 107.747 47.0389 109.801 47.6729C110.601 47.9209 110.763 47.7009 110.921 46.9629C112.731 38.4229 115.881 30.4249 120.695 23.1129C123.227 19.2669 126.365 16.1669 130.885 14.7269C131.471 14.5409 132.045 14.2249 132.539 13.8549C135.689 11.5029 139.309 11.0769 143.068 11.2429C151.694 11.6209 159.622 14.2029 167.028 18.6229C168.858 19.7149 170.178 21.0669 171.202 22.8529C174.958 29.3989 177.984 36.2729 179.976 43.5429C181.592 49.4409 182.568 55.4909 183.384 61.5529C184.196 67.5869 184.94 73.6289 185.774 79.6589C185.904 80.6029 186.158 81.5309 186.152 82.4949C186.148 83.1729 186.486 83.3869 187.148 83.3869C191.876 83.3929 196.604 83.4309 201.33 83.4549C202.674 83.4629 202.676 83.4569 202.782 84.8369C203.15 89.6489 203.668 94.4429 204.394 99.2149C204.5 99.9109 204.732 100.385 205.422 100.749C208.048 102.135 209.95 104.315 211.634 106.703C212.002 107.225 212.026 107.689 211.66 108.337C211.014 109.485 210.598 110.761 210.066 111.975C209.928 112.291 210.208 112.355 210.298 112.541C210.984 113.963 212.122 115.193 212.204 116.879C212.252 117.855 211.102 118.863 210.13 118.703C209.724 118.637 209.626 118.305 209.54 117.981C209.388 117.403 209.222 116.825 209.122 116.237C209.024 115.655 208.998 115.063 208.94 114.465C207.696 115.457 207.352 116.287 207.578 117.705C209.746 131.271 212.574 144.705 215.818 158.049C217.438 164.713 216.482 170.731 212.402 176.353C210.652 178.763 208.688 180.677 206.08 182.091C201.934 184.341 197.886 186.769 193.546 188.653C191.792 189.415 190.038 189.435 188.194 189.133C184.738 188.567 181.234 188.523 177.744 188.345C169.464 187.921 161.214 187.171 152.976 186.215C141.472 184.879 130.081 182.787 118.615 181.213C111.265 180.203 103.897 179.317 96.5149 178.575C94.3349 178.355 92.1269 178.393 89.9549 178.127C88.039 177.893 86.693 176.843 85.827 174.983C82.535 167.917 82.935 160.543 83.855 153.125C84.715 146.197 86.899 139.579 88.819 132.905C90.9349 125.547 92.7829 118.133 93.6349 110.505C93.9109 108.037 94.1209 105.563 94.1369 102.997V103.001ZM190.222 186.359L190.208 186.375C190.338 186.267 190.6 186.233 190.432 185.963L190.418 185.985C190.892 186.111 191.03 185.669 191.232 185.437C194.834 181.331 197.416 176.719 198.228 171.233C199.144 165.061 198.876 158.883 198.354 152.703C197.698 144.923 196.108 137.307 194.294 129.733C192.294 121.385 190.52 112.993 189.362 104.481C188.994 101.781 188.628 99.0809 188.26 96.3809C188.17 95.4529 187.382 95.7009 186.894 95.6829C185.834 95.6469 184.77 95.7769 183.706 95.8369C180.608 96.0109 177.522 95.5809 174.428 95.6529C174.17 95.6589 173.768 95.4529 173.676 95.8909C173.58 96.3509 173.952 96.4289 174.296 96.4809C175.274 96.6229 175.568 97.2269 175.602 98.1609C175.658 99.7189 175.814 101.275 175.958 102.829C176.008 103.369 175.834 103.757 175.346 103.955C174.886 104.141 174.41 104.329 173.924 104.399C173.388 104.477 173.106 104.695 172.96 105.227C172.406 107.247 171.646 109.225 171.288 111.277C170.992 112.971 170.036 113.987 168.796 114.935C168.294 115.319 167.996 115.227 167.668 114.731C166.182 112.485 164.462 110.381 163.272 107.955C162.766 106.925 162.186 106.689 161.204 107.133C160.552 107.429 160.188 107.215 160.112 106.495C160.038 105.787 159.69 105.167 159.42 104.525C158.918 103.331 158.736 102.095 158.872 100.817C158.932 100.261 158.956 99.5569 159.54 99.3429C160.914 98.8409 161.26 97.8649 161.128 96.5449C161.092 96.1889 161.178 95.8149 161.236 95.4549C161.34 94.7949 161.112 94.5109 160.408 94.4409C152.592 93.6689 144.752 93.2529 136.913 92.8249C133.657 92.6469 130.401 92.4629 127.147 92.2729C124.723 92.1329 122.299 91.9749 119.873 91.8389C119.595 91.8229 119.261 91.6969 119.051 92.0109C118.839 92.3309 119.355 93.9629 119.727 93.9989C120.567 94.0809 120.651 94.6129 120.621 95.2649C120.513 97.6249 120.445 99.9869 120.281 102.341C120.175 103.865 119.819 104.175 118.321 103.971C117.525 103.863 117.121 104.131 116.707 104.723C115.445 106.523 114.241 108.355 113.219 110.303C112.709 111.277 112.407 111.217 111.389 111.019C109.549 110.663 108.909 109.561 108.445 107.855C107.801 105.495 106.731 103.253 105.865 100.951C105.755 100.659 105.563 100.675 105.339 100.615C104.765 100.463 104.087 101.201 103.659 100.583C103.277 100.031 103.915 99.4289 103.939 98.7929C104.007 96.9869 104.489 95.2549 105.177 93.5829C105.441 92.9369 105.717 92.3669 106.583 92.4389C107.305 92.4989 107.069 91.8829 107.155 91.5129C107.253 91.0809 107.013 90.9029 106.611 90.8789C103.057 90.6669 99.5029 90.4609 95.9489 90.2349C95.3729 90.1989 95.3549 90.4809 95.3089 90.9429C95.0669 93.4669 95.1129 95.9969 95.1309 98.5229C95.1629 103.053 95.0229 107.575 94.4289 112.071C93.4929 119.141 91.8049 126.045 89.823 132.885C87.519 140.833 84.991 148.725 84.379 157.061C83.935 163.099 84.075 169.019 86.755 174.643C87.523 176.257 88.697 177.037 90.3509 177.195C92.0049 177.353 93.6769 177.317 95.3289 177.483C99.2649 177.879 103.199 178.311 107.127 178.791C112.011 179.387 116.893 179.993 121.763 180.693C127.091 181.459 132.401 182.355 137.725 183.157C144.002 184.103 150.292 184.967 156.604 185.659C162.392 186.293 168.188 186.787 173.998 187.169C178.148 187.441 182.32 187.421 186.444 187.975C187.996 188.183 189.052 187.635 189.994 186.559C190.068 186.489 190.142 186.419 190.218 186.349L190.222 186.359ZM210.02 115.621C209.95 116.123 210.132 116.589 210.238 117.065C210.286 117.275 210.328 117.571 210.628 117.545C210.898 117.521 211.252 117.511 211.228 117.073C211.322 115.917 210.602 115.113 209.948 114.257C209.972 114.713 209.996 115.167 210.02 115.623V115.621ZM115.093 93.6449C114.057 93.3089 112.985 93.4569 111.927 93.4109C111.741 93.4029 111.485 93.3669 111.489 93.6589C111.493 93.9389 111.753 93.8969 111.937 93.9269C112.985 94.1029 114.033 94.2749 115.081 94.4469C115.609 94.5369 116.139 94.6269 116.667 94.7169C116.789 94.7609 116.909 94.8409 117.033 94.8469C118.631 94.9209 118.885 95.7749 118.815 97.1829C118.767 98.1389 118.767 99.0969 118.765 100.053C118.761 101.594 118.027 102.128 116.563 101.655C116.535 101.645 116.499 101.663 116.465 101.667C115.615 100.921 114.593 100.549 113.509 100.307C112.539 99.8969 111.531 99.6109 110.493 99.4389C110.099 99.3309 109.705 99.2229 109.311 99.1149C108.471 98.7729 107.591 98.6329 106.689 98.5869C106.355 98.5689 105.867 98.5489 105.907 98.1589C106.031 96.9649 105.933 95.6969 106.627 94.6349C107.035 94.0129 107.555 93.5889 108.459 93.7689C109.217 93.9209 110.029 93.8009 110.821 93.8009C110.783 93.5369 110.645 93.4249 110.413 93.4149C109.585 93.3769 108.749 93.2469 107.933 93.3209C107.263 93.3829 106.387 93.1809 106.035 94.0609C105.391 95.6749 105.029 97.3589 104.843 99.0869C104.795 99.5209 104.931 99.6449 105.369 99.6889C106.619 99.8169 107.863 100.013 109.111 100.181C109.497 100.291 109.883 100.401 110.269 100.511C111.243 100.895 112.207 101.303 113.237 101.523C114.251 101.837 115.267 102.151 116.281 102.465C116.895 102.837 117.625 102.745 118.285 102.981C119.133 103.285 119.459 103.011 119.463 102.101C119.471 100.571 119.511 99.0429 119.605 97.5149C119.757 95.0269 119.503 94.7069 117.061 93.9669C116.935 93.9289 116.803 93.9109 116.675 93.8829C116.157 93.7409 115.643 93.5749 115.093 93.6409V93.6449ZM173.524 92.2729C173.522 92.8649 173.52 93.4569 173.518 94.0489C173.496 94.4829 173.248 94.9829 174.088 94.9649C176.072 94.9209 178.058 94.9489 180.032 95.2269C180.164 95.2449 180.294 95.2169 180.33 94.9489C179.66 94.5529 178.946 94.1869 178.13 94.0449C176.754 93.2809 175.268 92.7889 173.794 92.2689C173.702 92.1949 173.608 92.0189 173.524 92.2749V92.2729ZM172.412 97.1229C170.95 96.9749 169.498 97.0389 168.058 97.3369C165.91 97.5629 163.866 98.1629 161.918 99.0849C161.302 99.3769 160.652 99.6409 160.25 100.251C159.434 101.349 159.744 102.455 160.226 103.563C160.396 104.195 160.546 104.833 160.746 105.455C160.91 105.965 161.29 106.269 161.806 105.981C163.562 104.999 165.478 104.567 167.432 104.241C168.842 104.249 170.228 104.037 171.616 103.821C172.612 103.803 173.556 103.509 174.508 103.267C174.836 103.183 174.986 103.031 174.944 102.637C174.836 101.621 174.824 100.597 174.72 99.5809C174.508 97.5229 174.494 97.5249 172.41 97.1249L172.412 97.1229ZM201.34 98.8949C202.01 99.1509 202.678 99.4069 203.512 99.7249C202.826 95.1789 202.32 90.7429 201.936 86.2929C201.904 86.0629 202.07 85.5749 201.578 85.8229C200.54 86.3469 199.78 88.0649 199.892 89.2529C200.144 91.9289 200.452 94.6169 200.138 97.2949C200.008 98.4009 200.378 98.7809 201.34 98.8929V98.8949ZM201.002 99.8509C200.29 99.4469 199.468 99.4489 198.704 99.3509C197.592 99.2069 196.452 99.2929 195.322 99.2969C195.104 99.2969 194.83 99.2929 194.776 99.6009C194.762 99.6869 194.8 99.8129 194.86 99.8729C195.058 100.069 195.21 99.8469 195.382 99.7929C195.728 99.6829 196.072 99.5209 196.426 99.4889C197.484 99.3929 198.71 99.3149 199.406 100.107C200.018 100.803 200.364 100.905 201.01 100.377C201.87 100.675 202.17 101.713 203.084 101.945C203.124 101.955 203.14 102.059 203.17 102.119C203.876 103.505 204.66 104.809 206.208 105.447C206.656 105.631 206.83 106.121 206.956 106.577C207.042 106.891 206.99 107.247 207.258 107.539C207.364 107.473 207.466 107.397 207.578 107.339C208.01 107.115 208.43 106.701 208.95 107.013C209.43 107.301 209.294 107.835 209.302 108.289C209.314 109.123 209.306 109.957 209.306 110.791C210.148 109.751 210.44 108.565 210.802 107.411C210.84 107.289 210.742 107.093 210.656 106.967C208.266 103.471 205.09 101.039 201 99.8469L201.002 99.8509ZM171.838 45.3089C171.794 44.0949 171.872 42.8689 171.45 41.6949C171.312 41.1869 171.192 40.6709 171.03 40.1689C169.988 36.9209 168.72 33.7729 166.908 30.8669C164.404 26.0149 161.214 21.6549 157.442 17.7149C157.148 17.4069 156.866 17.0989 156.428 16.9409C149.378 14.4049 142.15 13.5389 134.735 14.7389C129.817 15.5349 125.721 17.7789 122.741 21.8969C121.177 24.0589 119.755 26.3009 118.497 28.6509C112.759 39.3809 110.493 50.9829 109.877 62.9969C109.633 67.7829 109.523 72.5749 109.391 77.3649C109.325 79.7249 109.391 82.0949 109.207 84.4429C109.025 86.7869 108.611 89.1209 108.175 91.4349C107.997 92.3829 108.299 92.4729 109.099 92.4689C111.657 92.4569 114.227 92.2949 116.753 92.8869C117.969 93.1729 117.983 93.1669 117.947 91.8809C117.813 87.3229 117.617 82.7669 117.543 78.2089C117.441 71.9529 117.363 65.6949 117.661 59.4389C117.931 53.7829 118.439 48.1609 119.711 42.6329C121.071 36.7129 123.245 31.1289 126.871 26.1909C127.859 24.8449 128.919 23.4509 130.521 22.8789C136.515 20.7389 142.622 20.5629 148.778 22.1689C149.09 22.2509 149.384 22.4389 149.658 22.6209C154.398 25.7709 157.476 30.2929 159.818 35.3209C163.176 42.5289 164.204 50.2749 164.564 58.1209C164.866 64.7149 164.458 71.2969 163.752 77.8509C163.06 84.2649 162.628 90.7009 162.068 97.1249C162.022 97.6629 162.06 97.9629 162.736 97.6849C164.562 96.9349 166.49 96.5649 168.426 96.2449C169.432 96.1829 170.436 96.1229 171.442 96.0609C172.432 96.3489 172.802 96.0289 172.688 94.9669C172.592 94.0809 172.668 93.1729 172.692 92.2749C172.862 85.9629 173.2 79.6489 173.174 73.3369C173.14 64.9649 172.906 56.5909 172.178 48.2429C172.092 47.2609 172.15 46.2529 171.84 45.2949V45.3029L171.838 45.3089ZM127.805 26.6769C125.781 29.0249 124.493 31.8029 123.285 34.6089C121.045 39.8109 120.075 45.3289 119.239 50.8969C118.793 53.8649 119.031 56.5229 120.947 58.9229C121.335 59.4109 121.573 60.0169 121.899 60.5589C122.003 60.7329 122.037 61.0149 122.489 60.9829C122.489 60.2149 122.473 59.4589 122.491 58.7049C122.613 53.8789 123.189 49.0989 123.993 44.3469C124.995 38.4229 126.009 32.4989 127.921 26.7769C128.033 26.6949 128.121 26.5369 128.007 26.4709C127.853 26.3789 127.857 26.5889 127.803 26.6789L127.805 26.6769ZM118.737 86.8549C118.525 87.6969 118.903 88.1009 119.687 88.3949C122.273 89.3589 124.861 90.3149 127.483 91.1769C128.441 91.4929 129.413 91.6309 130.421 91.6649C132.647 91.7409 134.871 91.8709 137.097 91.9749C140.35 92.1269 143.604 92.2729 146.856 92.4229C148.298 92.5209 149.74 92.6209 151.182 92.7189C153.672 93.0589 156.18 93.1689 158.688 93.2729C159.386 93.5429 160.142 93.3829 160.854 93.5589C161.238 93.6549 161.406 93.4729 161.426 93.0929C161.524 91.1669 161.896 89.2609 161.82 87.3229C162 85.6409 162.132 83.9529 162.372 82.2809C162.776 79.4729 163.074 76.6869 161.694 74.0309C161.63 73.8269 161.566 73.6229 161.502 73.4189C160.07 68.2409 157.2 64.0709 152.896 60.8269C149.232 58.0649 145.238 56.3209 140.6 56.2689C137.687 56.2349 136.649 57.3729 136.863 60.2929C136.917 61.2849 137.209 62.2089 137.651 63.0909C137.859 63.8809 138.093 64.6589 138.637 65.2969C139.775 67.4369 141.68 68.8729 143.394 70.4869C146.486 73.3949 149.214 76.4749 148.726 81.1909C148.59 82.5129 148.22 82.8089 147.064 82.1209C142.66 79.5049 138.167 77.0389 133.955 74.1089C130.259 71.5369 126.667 68.8409 123.829 65.2909C122.055 63.0709 120.795 60.5249 119.377 58.0809C119.195 57.7689 119.089 57.3789 118.625 57.1269C118.189 64.6469 118.201 72.0569 118.507 79.4709C118.389 81.9369 118.631 84.3909 118.737 86.8489V86.8549ZM108.923 48.4609C107.179 47.9949 105.417 47.7829 103.617 48.0729C103.581 48.0389 103.547 48.0429 103.515 48.0809C100.463 48.0049 98.5889 49.6869 97.5049 52.3169C95.7909 56.4729 95.3569 60.8829 96.6469 65.1269C98.6869 71.8369 102.803 77.2969 108.141 81.8309C108.173 81.8589 108.259 81.8249 108.393 81.8129C108.481 80.2349 108.529 78.6509 108.451 77.0629C108.467 75.5889 108.483 74.1149 108.499 72.6389C108.545 72.1429 108.609 71.6489 108.633 71.1529C108.749 68.7949 108.831 66.4369 108.967 64.0809C109.213 59.7989 109.545 55.5249 110.131 51.2749C110.771 48.8269 110.731 48.7329 108.923 48.4609ZM183.83 73.2489C183.768 71.4189 183.458 69.6149 183.246 67.8009C182.256 59.3189 181.094 50.8429 178.72 42.6389C176.538 35.0989 173.404 27.8989 169.058 21.2929C168.854 20.9809 168.646 20.6889 168.274 20.5649C161.51 16.1549 154.186 13.2549 146.114 12.4229C143.068 12.1089 140.006 11.8769 136.997 12.7409C136.417 12.9069 135.783 12.9929 135.273 13.4749C135.663 13.6589 135.991 13.5609 136.307 13.5249C143.31 12.7089 150.096 13.6589 156.712 16.0209C157.196 16.1929 157.588 16.4769 157.948 16.8349C160.268 19.1449 162.242 21.7349 164.134 24.3969C169.65 32.1589 173.116 40.6369 173.41 50.2809C173.592 56.2669 173.976 62.2449 174.048 68.2349C174.102 72.8289 174.442 77.3989 175.168 81.9409C175.262 82.5249 175.462 82.7329 176.028 82.7649C178.85 82.9249 181.672 83.0989 184.492 83.2969C185.144 83.3429 185.3 83.0969 185.2 82.4949C184.984 81.1849 184.842 79.8629 184.606 78.5569C184.29 76.7969 184.266 74.9949 183.832 73.2529L183.83 73.2489ZM210.004 177.173V177.197C213.002 174.261 215.064 170.849 215.472 166.573C215.826 162.843 215.156 159.237 214.312 155.627C212.466 147.733 210.534 139.857 209.12 131.869C208.338 127.451 207.58 123.031 206.774 118.617C206.69 118.155 206.898 117.463 206.186 117.283C205.522 117.115 205.388 116.689 205.41 116.091C205.428 115.595 205.408 115.101 205.266 114.609C204.112 110.581 202.124 107.015 199.376 103.863C198.622 103.017 198.02 102.025 196.548 102.329C195.852 102.473 195.17 101.923 194.676 101.339C194.222 100.803 193.864 100.209 193.612 99.5469C193.022 98.0009 192.854 96.3889 192.824 94.7549C192.81 94.0169 192.822 93.2769 192.822 92.3209C191.492 93.5329 190.366 94.5569 189.248 95.5909C189.198 95.6369 189.238 95.7789 189.236 95.8769C189.11 96.4509 189.354 96.9849 189.424 97.5389C189.934 101.563 190.436 105.587 191.082 109.593C192.47 118.199 194.6 126.645 196.492 135.143C198.896 145.935 200.292 156.827 199.564 167.911C199.274 172.339 198.282 176.579 195.944 180.433C194.288 183.163 192.582 185.845 189.964 187.889C191.096 188.385 192.034 188.015 192.978 187.721C194.306 187.403 195.57 186.925 196.76 186.251C199.038 184.963 201.35 183.729 203.59 182.379C205.856 181.015 208.03 179.505 209.79 177.485C209.936 177.433 210.04 177.353 210.006 177.175L210.004 177.173ZM162.99 74.7209C163.084 74.1609 163.152 73.8729 163.176 73.5829C163.868 65.1329 163.978 56.6949 162.62 48.2909C161.486 41.2689 159.2 34.7189 154.914 28.9329C153.278 26.7229 151.162 25.0949 149.046 23.4369C148.744 23.2009 148.34 23.0569 147.96 22.9609C142.358 21.5489 136.817 21.8689 131.329 23.5709C130.581 23.8029 130.107 24.3049 129.781 25.0149C129.101 26.4989 128.465 28.0029 128.057 29.5789C125.277 40.3049 123.473 51.1749 123.313 62.2829C123.305 62.8249 123.499 63.2369 123.787 63.6589C125.073 65.5449 126.661 67.1509 128.375 68.6389C133.737 73.2889 139.816 76.8609 145.958 80.3389C146.24 80.4989 146.576 80.5829 146.896 80.6549C147.508 80.7909 147.784 80.5969 147.808 79.8949C147.866 78.2569 147.338 76.8429 146.462 75.4929C145.124 73.4329 143.458 71.6909 141.576 70.1289C138.753 67.7849 136.831 64.8829 136.011 61.2569C135.155 57.4669 136.885 55.2449 140.734 55.3169C142.644 55.3529 144.538 55.6029 146.32 56.2569C154.126 59.1149 159.544 64.3669 162.2 72.3289C162.438 73.0429 162.67 73.7589 162.986 74.7249L162.99 74.7209ZM173.846 87.3929C173.822 87.3929 173.798 87.3929 173.774 87.3929C173.774 88.3249 173.834 89.2629 173.756 90.1869C173.692 90.9329 174.012 91.2509 174.648 91.5089C177.176 92.5309 179.69 93.5889 182.202 94.6469C182.678 94.8489 183.162 94.8969 183.664 94.8729C184.926 94.8149 186.206 94.6049 187.444 94.7529C188.288 94.8549 188.86 94.6549 189.414 94.1529C190.276 93.3689 191.106 92.5509 191.968 91.7689C192.222 91.5389 192.516 91.1249 192.898 91.3969C193.28 91.6689 193.764 91.9369 193.772 92.5269C193.778 92.8929 193.782 93.2589 193.776 93.6249C193.754 95.0249 193.822 96.4169 194.1 97.7949C194.18 98.1869 194.228 98.3829 194.774 98.3229C195.86 98.2049 196.972 98.1989 198.064 98.2789C198.96 98.3429 199.194 98.0169 199.23 97.1709C199.358 94.1329 199.154 91.1169 198.754 88.1129C198.694 87.6629 198.766 87.3689 199.082 87.0509C199.714 86.4169 200.31 85.7449 200.908 85.0769C201.032 84.9389 201.236 84.7889 201.128 84.5669C201.02 84.3469 200.778 84.4309 200.594 84.4289C199.362 84.4209 198.13 84.4209 196.898 84.4249C191.738 84.4449 186.58 84.4309 181.428 84.0769C179.172 83.9209 176.912 83.8049 174.656 83.6409C174.06 83.5969 173.808 83.7589 173.834 84.3949C173.874 85.3929 173.844 86.3909 173.844 87.3909L173.846 87.3929ZM107.507 100.795C106.869 100.743 106.811 101.007 107.025 101.519C108.057 103.999 109.169 106.451 109.883 109.053C109.949 109.291 111.863 110.239 112.097 110.177C112.295 110.125 112.295 109.935 112.369 109.795C113.435 107.839 114.617 105.953 115.947 104.165C116.325 103.657 116.273 103.497 115.683 103.317C113.841 102.759 112.017 102.147 110.179 101.573C109.293 101.295 108.397 101.053 107.507 100.795ZM196.444 100.505C197.894 101.329 199.332 102.095 200.334 103.443C202.948 106.965 205.554 110.497 206.346 114.967C206.446 115.533 206.7 115.453 206.996 115.175C207.662 114.553 208.29 113.781 208.38 112.929C208.548 111.347 208.428 109.735 208.428 107.937C208.108 108.199 208.008 108.279 207.91 108.363C206.968 109.167 206.506 109.013 206.22 107.801C206.182 107.639 206.152 107.475 206.13 107.311C206.046 106.683 205.914 106.163 205.068 106.185C204.598 106.197 204.35 105.745 204.206 105.321C203.864 104.315 202.488 104.093 202.378 102.907C202.374 102.867 202.12 102.881 202.022 102.813C201.266 102.285 200.628 101.483 199.526 101.765C199.474 101.779 199.35 101.655 199.314 101.573C198.722 100.217 197.484 100.595 196.446 100.505H196.444ZM109.741 94.8049C108.878 94.7889 108.327 95.3829 108.087 96.5869C108.055 96.7489 108.041 96.9209 107.977 97.0709C107.729 97.6409 107.997 97.7949 108.521 97.9269C111.127 98.5809 113.775 99.1109 116.205 100.323C116.627 100.533 116.753 100.333 116.807 99.9969C116.993 98.8509 117.263 97.7189 117.323 96.5529C117.349 96.0629 117.191 95.8289 116.701 95.7429C114.577 95.3749 112.481 94.8209 109.741 94.8049ZM171.454 104.835C170.806 104.905 170.144 104.967 169.486 105.053C167.714 105.281 165.902 105.255 164.2 105.941C163.632 106.169 163.422 106.341 163.782 106.981C165.056 109.247 166.494 111.401 168.032 113.493C168.182 113.699 168.31 114.027 168.64 113.781C169.168 113.387 169.89 113.047 170.018 112.401C170.49 110.015 171.26 107.715 171.91 105.381C172.046 104.897 171.924 104.769 171.458 104.835H171.454ZM123.679 91.0929L123.719 90.9249C122.373 90.4149 121.031 89.8969 119.681 89.4049C119.425 89.3109 118.973 88.9529 118.929 89.5269C118.895 89.9589 118.519 90.7269 119.351 90.8189C120.787 90.9789 122.237 91.0089 123.681 91.0929H123.679ZM96.6069 89.2429C97.7549 89.3329 98.6649 89.4009 99.5749 89.4769C100.013 89.5129 100.187 89.3409 100.089 88.9029C100.019 88.5809 99.9569 88.2569 99.9069 87.9309C99.8629 87.6469 99.7149 87.6269 99.4969 87.7389C98.6029 88.2049 97.7089 88.6709 96.6069 89.2449V89.2429ZM107.951 83.3349C107.207 85.0229 107.669 86.8209 107.555 88.5689C107.891 86.8449 108.149 85.1149 107.951 83.3349ZM173.878 80.5989C174.036 81.2429 173.652 81.9649 174.166 82.7769C174.302 81.8749 174.112 81.2349 173.878 80.5989ZM93.6469 102.023C94.0176 101.786 94.1496 101.412 94.0429 100.901C93.7909 101.225 93.6469 101.529 93.6469 102.023Z" fill="#100C13"/>
<path d="M189.998 186.569C189.056 187.645 188 188.193 186.448 187.985C182.324 187.431 178.15 187.451 174.002 187.179C168.194 186.797 162.396 186.303 156.608 185.669C150.294 184.977 144.006 184.113 137.728 183.167C132.404 182.365 127.094 181.469 121.766 180.703C116.896 180.003 112.015 179.397 107.131 178.801C103.203 178.321 99.2706 177.889 95.3327 177.493C93.6807 177.327 92.0087 177.361 90.3547 177.205C88.7007 177.047 87.5267 176.267 86.7587 174.653C84.0788 169.027 83.9388 163.107 84.3828 157.071C84.9948 148.737 87.5227 140.843 89.8267 132.895C91.8087 126.057 93.4967 119.151 94.4327 112.081C95.0267 107.585 95.1667 103.065 95.1347 98.5329C95.1167 96.0049 95.0707 93.4769 95.3127 90.9529C95.3567 90.4909 95.3747 90.2069 95.9527 90.2449C99.5046 90.4729 103.061 90.6769 106.615 90.8889C107.017 90.9129 107.257 91.0909 107.159 91.5229C107.075 91.8909 107.309 92.5089 106.587 92.4489C105.723 92.3769 105.447 92.9469 105.181 93.5929C104.495 95.2669 104.011 96.9969 103.943 98.8029C103.919 99.4389 103.281 100.041 103.663 100.593C104.089 101.211 104.767 100.473 105.343 100.625C105.569 100.685 105.761 100.669 105.869 100.961C106.735 103.261 107.805 105.505 108.449 107.865C108.915 109.571 109.553 110.673 111.393 111.029C112.411 111.227 112.711 111.285 113.223 110.313C114.244 108.365 115.45 106.533 116.71 104.733C117.124 104.141 117.528 103.875 118.324 103.981C119.822 104.185 120.18 103.873 120.284 102.351C120.448 99.9949 120.516 97.6329 120.624 95.2749C120.654 94.6229 120.57 94.0929 119.73 94.0089C119.358 93.9729 118.84 92.3409 119.054 92.0209C119.264 91.7049 119.598 91.8329 119.876 91.8489C122.302 91.9849 124.724 92.1409 127.15 92.2829C130.406 92.4709 133.66 92.6569 136.916 92.8349C144.756 93.2629 152.596 93.6789 160.412 94.4509C161.116 94.5209 161.346 94.8049 161.24 95.4649C161.182 95.8249 161.096 96.1989 161.132 96.5549C161.262 97.8749 160.916 98.8509 159.544 99.3529C158.96 99.5669 158.934 100.271 158.876 100.827C158.74 102.105 158.922 103.341 159.424 104.535C159.694 105.175 160.042 105.795 160.116 106.505C160.192 107.225 160.556 107.437 161.208 107.143C162.19 106.699 162.77 106.935 163.276 107.965C164.466 110.391 166.186 112.495 167.672 114.741C168 115.237 168.298 115.329 168.8 114.945C170.04 113.997 170.998 112.981 171.292 111.287C171.65 109.235 172.41 107.257 172.964 105.237C173.11 104.705 173.392 104.487 173.928 104.409C174.414 104.337 174.89 104.151 175.35 103.965C175.838 103.767 176.012 103.379 175.962 102.839C175.818 101.285 175.664 99.7289 175.606 98.1709C175.572 97.2369 175.278 96.6329 174.3 96.4909C173.956 96.4409 173.584 96.3629 173.68 95.9009C173.772 95.4609 174.172 95.6689 174.432 95.6629C177.528 95.5909 180.612 96.0209 183.71 95.8469C184.772 95.7869 185.838 95.6569 186.898 95.6929C187.386 95.7089 188.174 95.4609 188.264 96.3909C186.828 96.6489 186.792 96.7009 187.036 98.1129C187.166 98.8649 187.306 99.6149 187.404 100.371C188.092 105.631 188.748 110.897 189.462 116.155C190.024 120.301 191.034 124.361 191.952 128.435C192.74 131.933 194.144 135.265 195.002 138.753C196.238 143.791 197.086 148.887 197.438 154.067C197.764 158.853 197.754 163.625 197.196 168.397C196.558 173.843 194.484 178.781 191.904 183.543C191.45 184.383 190.742 185.071 190.42 185.993L190.434 185.971C190.22 186.033 190.208 186.203 190.21 186.383L190.224 186.367C190.138 186.425 189.858 186.275 190 186.577L189.998 186.569ZM123.47 122.931C124.468 122.931 125.466 122.931 126.466 122.931C128.034 122.931 128.062 122.923 128.478 124.481C129.38 127.861 131.148 130.421 134.472 131.971C137.696 133.475 140.944 134.921 144.18 136.401C148.592 138.419 152.682 140.799 154.83 145.521C157.08 150.463 159.074 155.483 160.218 160.809C160.306 161.223 160.246 161.785 160.81 161.821C161.396 161.861 161.654 161.383 161.79 160.865C162.252 159.097 162.772 157.343 163.162 155.559C163.572 153.689 164.042 151.823 163.586 149.857C163.142 147.945 162.99 145.983 162.984 144.015C162.976 140.687 162.968 137.359 162.952 134.031C162.946 132.865 162.902 131.695 162.586 130.571C162.432 130.021 162.594 129.849 163.078 129.655C163.95 129.305 164.7 128.745 165.302 128.009C166.294 126.793 167.676 126.099 168.96 125.275C169.272 125.075 169.82 125.165 169.806 124.605C169.794 124.111 169.332 124.025 168.988 123.837C165.58 121.961 161.958 121.533 158.162 122.213C157.884 122.263 157.47 122.507 157.308 122.029C157.188 121.677 157.278 121.385 157.72 121.287C157.96 121.235 158.138 121.051 158.094 120.775C158.052 120.505 157.82 120.397 157.59 120.357C156.936 120.241 156.28 120.127 155.62 120.059C150.586 119.535 145.52 119.631 140.476 119.265C135.834 118.929 131.188 118.605 126.542 118.335C124.454 118.213 122.35 118.055 120.27 118.429C118.854 118.683 118.5 119.169 118.5 120.571C118.5 120.971 118.53 121.373 118.492 121.769C118.406 122.665 118.858 122.951 119.676 122.937C120.94 122.915 122.206 122.931 123.47 122.931Z" fill="#733EBE"/>
<path d="M168.426 96.2509C166.488 96.5709 164.56 96.9429 162.736 97.6909C162.06 97.9689 162.02 97.6689 162.068 97.1309C162.626 90.7049 163.06 84.2709 163.752 77.8569C164.458 71.3029 164.868 64.7209 164.564 58.1269C164.204 50.2809 163.176 42.5349 159.818 35.3269C157.476 30.2989 154.398 25.7749 149.658 22.6269C149.384 22.4449 149.09 22.2569 148.778 22.1749C142.622 20.5689 136.514 20.7429 130.52 22.8849C128.918 23.4569 127.858 24.8509 126.87 26.1969C123.245 31.1349 121.073 36.7169 119.711 42.6389C118.441 48.1669 117.931 53.7889 117.661 59.4449C117.363 65.7009 117.441 71.9589 117.543 78.2149C117.617 82.7729 117.815 87.3289 117.947 91.8869C117.985 93.1729 117.969 93.1789 116.753 92.8929C114.227 92.2989 111.657 92.4609 109.099 92.4749C108.299 92.4789 107.997 92.3889 108.175 91.4409C108.611 89.1269 109.025 86.7929 109.207 84.4489C109.389 82.1009 109.327 79.7309 109.391 77.3709C109.523 72.5809 109.633 67.7889 109.877 63.0029C110.491 50.9889 112.757 39.3869 118.497 28.6569C119.755 26.3049 121.177 24.0649 122.741 21.9029C125.72 17.7849 129.818 15.5409 134.734 14.7449C142.15 13.5429 149.378 14.4109 156.428 16.9469C156.866 17.1049 157.148 17.4129 157.442 17.7209C161.214 21.6609 164.404 26.0209 166.906 30.8729C165.934 31.0169 164.918 30.7529 163.988 31.3249C163.454 31.6529 163.318 31.9749 163.542 32.5429C165.672 37.9709 166.512 43.6849 167.192 49.4229C167.81 54.6389 167.788 59.8949 167.986 65.1349C168.134 69.0549 168.068 72.9789 168.156 76.9029C168.29 82.8849 168.518 88.8709 168.412 94.8569C168.404 95.3229 168.418 95.7889 168.422 96.2549L168.426 96.2509Z" fill="#733EBD"/>
<path d="M199.374 103.863C202.122 107.015 204.11 110.583 205.264 114.609C205.404 115.101 205.426 115.595 205.408 116.091C205.386 116.689 205.52 117.117 206.184 117.283C206.894 117.463 206.686 118.155 206.772 118.617C207.58 123.029 208.336 127.451 209.118 131.869C210.532 139.857 212.464 147.735 214.31 155.627C215.154 159.237 215.824 162.841 215.47 166.573C215.064 170.849 213 174.261 210 177.197C209.88 176.813 210.056 176.485 210.192 176.145C210.688 174.913 211.194 173.687 211.584 172.413C212.252 170.233 212.476 167.979 212.522 165.731C212.568 163.551 212.68 161.307 212.114 159.193C210.632 153.645 208.288 148.431 205.476 143.433C204.524 141.741 203.498 140.089 202.178 138.387C202.84 143.067 203.3 147.547 203.432 152.057C203.496 154.245 203.658 156.431 203.762 158.619C203.794 159.303 203.666 160.015 203.17 160.471C202.448 161.133 202.284 161.923 202.104 162.833C200.454 171.215 197.97 179.301 193.366 186.601C193.154 186.937 192.972 187.299 192.972 187.717C192.028 188.011 191.09 188.381 189.958 187.885C192.578 185.841 194.282 183.161 195.938 180.429C198.276 176.575 199.268 172.335 199.558 167.907C200.286 156.823 198.888 145.931 196.486 135.139C194.594 126.641 192.462 118.195 191.076 109.589C190.43 105.583 189.928 101.559 189.418 97.5349C189.348 96.9829 189.104 96.4489 189.23 95.8729C190.194 95.6069 190.814 94.7329 191.786 94.3709C191.816 96.8509 192.064 99.2209 193.274 101.359C194.252 103.085 195.548 104.369 197.756 104.267C198.34 104.241 198.77 103.741 199.37 103.861L199.374 103.863Z" fill="#BA91F1"/>
<path d="M118.509 79.4769C118.203 72.0629 118.191 64.6529 118.627 57.1329C119.091 57.3849 119.199 57.7749 119.379 58.0869C120.796 60.5309 122.054 63.0789 123.83 65.2969C126.668 68.8469 130.26 71.5429 133.956 74.1149C138.168 77.0449 142.662 79.5109 147.066 82.1269C148.222 82.8129 148.59 82.5169 148.728 81.1969C149.216 76.4809 146.486 73.4009 143.396 70.4929C141.68 68.8789 139.776 67.4429 138.638 65.3029C141.718 64.6549 144.638 65.3429 147.448 66.5149C149.708 67.4589 151.352 69.2389 152.336 71.3989C153.902 74.8329 155.242 78.3729 157.138 81.6509C158.382 83.8009 159.706 85.9009 161.682 87.4849C161.6 88.5689 161.494 89.6509 161.444 90.7369C161.324 93.2789 161.334 93.2789 158.79 93.2729C158.756 93.2729 158.724 93.2749 158.69 93.2769C156.182 93.1729 153.674 93.0629 151.182 92.7209C151.836 92.7029 152.108 92.5709 151.604 91.8889C150.858 90.8749 150.132 89.8289 149.22 88.9749C145.678 85.6609 141.586 83.6329 136.62 83.4429C133.224 83.3129 129.894 82.5509 126.55 81.9469C125.334 81.7269 124.396 80.9149 123.302 80.5869C121.744 80.1189 120.069 80.0269 118.505 79.4789L118.509 79.4769Z" fill="#E62C55"/>
<path d="M192.976 187.719C192.976 187.301 193.156 186.939 193.37 186.603C197.974 179.301 200.458 171.217 202.108 162.835C202.286 161.925 202.45 161.135 203.174 160.473C203.67 160.019 203.798 159.307 203.766 158.621C203.662 156.433 203.5 154.249 203.436 152.059C203.304 147.547 202.844 143.069 202.182 138.389C203.502 140.091 204.53 141.743 205.48 143.435C208.292 148.433 210.636 153.647 212.118 159.195C212.682 161.309 212.57 163.553 212.526 165.733C212.48 167.981 212.256 170.233 211.588 172.415C211.198 173.689 210.692 174.915 210.196 176.147C210.06 176.485 209.884 176.815 210.004 177.199V177.175C209.832 177.209 209.812 177.349 209.788 177.485C208.03 179.505 205.854 181.013 203.588 182.379C201.346 183.729 199.036 184.963 196.758 186.251C195.568 186.925 194.304 187.403 192.976 187.721V187.719Z" fill="#733EBE"/>
<path d="M168.276 20.5649C168.648 20.6889 168.856 20.9809 169.06 21.2929C173.406 27.8989 176.54 35.0989 178.722 42.6389C181.096 50.8429 182.256 59.3189 183.248 67.8009C183.46 69.6149 183.77 71.4189 183.832 73.2489C183.822 75.6449 183.82 78.0389 183.802 80.4349C183.794 81.6049 183.486 81.9629 182.378 82.0589C181.352 82.1489 180.322 82.1649 179.298 82.2609C178.598 82.3269 178.39 82.0669 178.382 81.3689C178.354 79.1749 178.27 76.9829 178.174 74.7909C177.99 70.5789 177.396 66.3909 177.44 62.1649C177.448 61.3989 177.508 60.6189 177.384 59.8709C176.716 55.8449 176.018 51.8249 175.098 47.8469C173.184 39.5709 170.306 31.6629 166.056 24.2849C165.828 23.8889 165.836 23.6229 166.164 23.3329C167.046 22.5469 167.64 21.5409 168.278 20.5669L168.276 20.5649Z" fill="#BA91F1"/>
<path d="M168.426 96.2509C168.422 95.7849 168.408 95.3189 168.416 94.8529C168.522 88.8649 168.294 82.8809 168.16 76.8989C168.072 72.9749 168.138 69.0509 167.99 65.1309C167.792 59.8909 167.814 54.6349 167.196 49.4189C166.516 43.6809 165.676 37.9669 163.546 32.5389C163.324 31.9709 163.46 31.6489 163.992 31.3209C164.922 30.7489 165.938 31.0109 166.91 30.8689C168.722 33.7749 169.99 36.9229 171.032 40.1709C171.192 40.6729 171.312 41.1869 171.452 41.6969C171.556 42.9049 171.492 44.1289 171.84 45.3109V45.3029C171.834 45.6329 171.81 45.9649 171.824 46.2949C172.018 50.6049 172.27 54.9129 172.402 59.2249C172.592 65.4369 172.176 71.6349 171.922 77.8389C171.674 83.9089 171.666 89.9929 171.444 96.0689C170.438 96.1309 169.434 96.1909 168.428 96.2529L168.426 96.2509Z" fill="#BA91F1"/>
<path d="M110.133 51.2729C109.547 55.5229 109.215 59.7989 108.969 64.0789C108.833 66.4349 108.751 68.7929 108.635 71.1509C108.611 71.6469 108.547 72.1429 108.501 72.6389C108.127 74.1089 108.227 75.5849 108.453 77.0609C108.531 78.6489 108.483 80.2329 108.395 81.8109C108.263 81.8229 108.177 81.8569 108.143 81.8289C102.807 77.2969 98.6907 71.8369 96.6487 65.1249C95.3587 60.8809 95.7927 56.4709 97.5067 52.3149C98.5907 49.6829 100.465 48.0009 103.517 48.0789C103.413 48.2849 103.197 48.2909 103.015 48.3609C101.467 48.9709 100.201 49.9749 99.1167 51.2149C98.5127 51.9049 98.5187 52.8469 99.0687 53.3769C99.6567 53.9409 100.457 53.8729 101.157 53.1349C102.245 51.9909 103.377 50.9669 105.041 50.7349C105.771 50.6329 106.161 50.0529 106.041 49.3629C105.917 48.6429 105.479 48.0909 104.609 48.1149C104.279 48.1249 103.947 48.0869 103.615 48.0709C105.415 47.7809 107.177 47.9929 108.921 48.4589C108.553 48.7349 108.201 49.0349 107.813 49.2809C104.917 51.1229 103.253 53.8189 102.415 57.0769C102.199 57.9129 102.135 58.7829 102.547 59.5989C102.943 60.3829 103.681 60.5029 104.349 59.9269C104.705 59.6209 104.801 59.1909 104.871 58.7749C105.175 56.9709 105.895 55.3389 107.023 53.9289C107.877 52.8629 108.679 51.6689 110.129 51.2749L110.133 51.2729Z" fill="#FC4870"/>
<path d="M173.846 87.3929C173.846 86.3949 173.876 85.3949 173.836 84.3969C173.81 83.7609 174.062 83.6009 174.658 83.6429C176.914 83.8069 179.174 83.9229 181.43 84.0789C186.582 84.4329 191.74 84.4449 196.9 84.4269C198.132 84.4229 199.364 84.4229 200.596 84.4309C200.78 84.4309 201.024 84.3489 201.13 84.5689C201.238 84.7889 201.034 84.9409 200.91 85.0789C200.312 85.7469 199.716 86.4189 199.084 87.0529C198.768 87.3689 198.698 87.6649 198.756 88.1149C199.156 91.1209 199.36 94.1369 199.232 97.1729C199.196 98.0209 198.962 98.3469 198.066 98.2809C196.974 98.2029 195.864 98.2069 194.776 98.3249C194.23 98.3849 194.182 98.1889 194.102 97.7969C193.822 96.4189 193.756 95.0269 193.778 93.6269C193.784 93.2609 193.778 92.8949 193.774 92.5289C193.764 91.9389 193.28 91.6709 192.9 91.3989C192.518 91.1269 192.224 91.5409 191.97 91.7709C191.106 92.5529 190.278 93.3729 189.416 94.1549C188.862 94.6569 188.29 94.8569 187.446 94.7549C186.208 94.6049 184.928 94.8169 183.666 94.8749C183.164 94.8989 182.68 94.8489 182.204 94.6489C179.692 93.5889 177.178 92.5329 174.65 91.5109C174.014 91.2529 173.694 90.9349 173.758 90.1889C173.836 89.2629 173.776 88.3269 173.776 87.3949C173.8 87.3949 173.824 87.3949 173.848 87.3949L173.846 87.3929Z" fill="#733EBD"/>
<path d="M161.682 87.4809C159.704 85.8969 158.38 83.7969 157.138 81.6469C155.242 78.3689 153.9 74.8309 152.336 71.3949C151.352 69.2369 149.708 67.4549 147.448 66.5109C144.638 65.3369 141.718 64.6509 138.638 65.2989C138.094 64.6589 137.86 63.8829 137.652 63.0929C140.128 62.7689 142.606 62.7709 145.082 63.0989C146.16 63.2409 147.164 63.7709 148.288 63.7009C148.694 63.6749 149.014 63.5409 149.176 63.1769C149.354 62.7849 149.024 62.5669 148.792 62.3429C148.602 62.1609 148.394 61.9869 148.166 61.8609C146.098 60.7329 143.936 60.0209 141.528 60.0689C139.968 60.0989 138.418 60.2069 136.864 60.2949C136.65 57.3749 137.688 56.2369 140.602 56.2709C145.24 56.3229 149.234 58.0669 152.898 60.8289C157.202 64.0749 160.072 68.2429 161.504 73.4209C161.472 73.4489 161.438 73.4769 161.404 73.5029C160.63 71.9269 159.878 70.3389 159.072 68.7789C158.508 67.6909 157.872 66.6349 157 65.7549C156.232 64.9789 155.39 64.8809 154.812 65.4589C154.262 66.0089 154.31 67.0029 154.976 67.6989C155.44 68.1849 155.806 68.7269 156.152 69.2949C157.192 71.0009 158.006 72.8129 158.742 74.6649C159.188 75.7869 159.726 76.1289 160.7 75.8589C161.586 75.6109 161.676 74.8809 161.606 74.1009C161.636 74.0789 161.666 74.0569 161.698 74.0329C163.078 76.6889 162.78 79.4729 162.376 82.2829C162.136 83.9549 162.004 85.6429 161.824 87.3249C161.778 87.3769 161.732 87.4289 161.686 87.4829L161.682 87.4809Z" fill="#FC4870"/>
<path d="M168.276 20.5649C167.64 21.5389 167.044 22.5449 166.162 23.3309C165.834 23.6229 165.826 23.8889 166.054 24.2829C170.304 31.6609 173.182 39.5689 175.096 47.8449C176.016 51.8229 176.712 55.8449 177.382 59.8689C177.506 60.6169 177.446 61.3969 177.438 62.1629C177.394 66.3889 177.988 70.5769 178.172 74.7889C178.268 76.9809 178.352 79.1749 178.38 81.3669C178.388 82.0649 178.596 82.3229 179.296 82.2589C180.32 82.1629 181.352 82.1469 182.376 82.0569C183.484 81.9609 183.792 81.6029 183.8 80.4329C183.818 78.0369 183.82 75.6429 183.83 73.2469C184.264 74.9889 184.288 76.7909 184.604 78.5509C184.84 79.8569 184.982 81.1789 185.198 82.4889C185.296 83.0909 185.142 83.3349 184.49 83.2909C181.67 83.0949 178.848 82.9189 176.026 82.7589C175.462 82.7269 175.26 82.5189 175.166 81.9349C174.44 77.3929 174.1 72.8229 174.046 68.2289C173.976 62.2389 173.59 56.2609 173.408 50.2749C173.114 40.6309 169.648 32.1509 164.132 24.3909C162.24 21.7289 160.266 19.1389 157.946 16.8289C157.586 16.4709 157.194 16.1889 156.71 16.0149C150.094 13.6549 143.308 12.7029 136.305 13.5189C135.989 13.5549 135.661 13.6529 135.271 13.4689C135.779 12.9889 136.412 12.9029 136.994 12.7349C140.004 11.8709 143.064 12.1029 146.112 12.4169C154.184 13.2489 161.51 16.1489 168.272 20.5589L168.276 20.5649Z" fill="#723DBB"/>
<path d="M118.508 79.4769C120.07 80.0249 121.746 80.1169 123.306 80.5849C124.4 80.9149 125.34 81.7269 126.554 81.9449C129.896 82.5489 133.228 83.3109 136.624 83.4409C141.59 83.6309 145.682 85.6589 149.224 88.9729C150.136 89.8269 150.862 90.8709 151.608 91.8869C152.11 92.5689 151.838 92.7029 151.186 92.7189C149.744 92.6209 148.302 92.5229 146.86 92.4229C146.304 90.5569 144.86 89.4309 143.38 88.3769C142.804 87.9669 141.51 88.4549 141.15 89.0929C140.73 89.8389 140.068 90.2449 139.282 90.4569C137.308 90.9869 135.31 90.6449 133.374 90.3509C131 89.9889 128.688 89.2389 126.334 88.7249C123.784 88.1669 121.314 87.2949 118.738 86.8549C118.632 84.3969 118.39 81.9429 118.508 79.4769Z" fill="#FC4870"/>
<path d="M190.416 185.985C190.736 185.063 191.444 184.375 191.9 183.535C194.48 178.773 196.554 173.835 197.192 168.389C197.752 163.619 197.76 158.845 197.434 154.059C197.08 148.879 196.234 143.783 194.998 138.745C194.142 135.257 192.738 131.925 191.948 128.427C191.03 124.353 190.02 120.293 189.458 116.147C188.744 110.889 188.09 105.625 187.4 100.363C187.302 99.6069 187.162 98.8569 187.032 98.1049C186.788 96.6929 186.822 96.6409 188.26 96.3829C188.628 99.0829 188.996 101.783 189.362 104.483C190.518 112.995 192.294 121.385 194.294 129.735C196.108 137.309 197.696 144.925 198.354 152.705C198.876 158.885 199.142 165.063 198.228 171.235C197.414 176.721 194.834 181.333 191.232 185.439C191.03 185.669 190.892 186.113 190.418 185.987L190.416 185.985Z" fill="#B68EED"/>
<path d="M127.921 26.7769C126.009 32.4989 124.995 38.4229 123.993 44.3469C123.189 49.0989 122.611 53.8789 122.491 58.7049C122.473 59.4589 122.489 60.2149 122.489 60.9829C122.037 61.0149 122.003 60.7329 121.899 60.5589C121.573 60.0169 121.337 59.4109 120.947 58.9229C119.031 56.5209 118.795 53.8629 119.239 50.8969C120.075 45.3289 121.043 39.8129 123.285 34.6089C124.493 31.8029 125.781 29.0249 127.805 26.6769C127.845 26.7089 127.883 26.7429 127.921 26.7769Z" fill="#723DBB"/>
<path d="M118.737 86.8549C121.313 87.2949 123.785 88.1669 126.333 88.7249C128.687 89.2389 130.998 89.9889 133.372 90.3509C135.308 90.6469 137.306 90.9889 139.28 90.4569C140.066 90.2449 140.728 89.8389 141.148 89.0929C141.508 88.4529 142.802 87.9669 143.378 88.3769C144.858 89.4309 146.302 90.5569 146.858 92.4229C143.604 92.2729 140.35 92.1269 137.098 91.9749C134.872 91.8709 132.648 91.7409 130.422 91.6649C129.415 91.6309 128.443 91.4909 127.485 91.1769C124.863 90.3129 122.275 89.3589 119.689 88.3949C118.903 88.1029 118.525 87.6969 118.739 86.8549H118.737Z" fill="#E62C55"/>
<path d="M107.507 100.795C108.399 101.053 109.295 101.297 110.179 101.573C112.015 102.149 113.841 102.759 115.683 103.317C116.271 103.495 116.325 103.657 115.947 104.165C114.617 105.951 113.435 107.837 112.369 109.795C112.293 109.933 112.293 110.123 112.097 110.177C111.861 110.239 109.947 109.291 109.883 109.053C109.169 106.451 108.057 103.999 107.025 101.519C106.813 101.007 106.869 100.743 107.507 100.795Z" fill="#723DBB"/>
<path d="M171.442 96.0669C171.664 89.9909 171.672 83.9069 171.92 77.8369C172.174 71.6329 172.59 65.4349 172.4 59.2229C172.268 54.9109 172.016 50.6029 171.822 46.2929C171.808 45.9629 171.832 45.6309 171.838 45.3009C172.148 46.2609 172.09 47.2669 172.176 48.2489C172.904 56.5969 173.138 64.9709 173.172 73.3429C173.198 79.6549 172.86 85.9689 172.69 92.2809C172.666 93.1789 172.59 94.0849 172.686 94.9729C172.802 96.0349 172.43 96.3549 171.44 96.0669H171.442Z" fill="#723DBB"/>
<path d="M196.444 100.505C197.482 100.595 198.72 100.217 199.312 101.573C199.348 101.655 199.472 101.779 199.524 101.765C200.628 101.483 201.264 102.285 202.02 102.813C202.118 102.881 202.372 102.867 202.376 102.907C202.486 104.093 203.862 104.315 204.204 105.321C204.348 105.745 204.596 106.197 205.066 106.185C205.91 106.163 206.042 106.683 206.128 107.311C206.15 107.475 206.18 107.639 206.218 107.801C206.504 109.013 206.966 109.167 207.908 108.363C208.006 108.279 208.106 108.201 208.426 107.937C208.426 109.737 208.546 111.349 208.378 112.929C208.288 113.779 207.66 114.553 206.994 115.175C206.698 115.451 206.444 115.533 206.344 114.967C205.552 110.495 202.946 106.965 200.332 103.443C199.332 102.095 197.892 101.329 196.442 100.505H196.444Z" fill="#723DBB"/>
<path d="M110.133 51.2729C108.683 51.6689 107.881 52.8609 107.027 53.9269C105.899 55.3369 105.177 56.9689 104.875 58.7729C104.805 59.1869 104.709 59.6189 104.353 59.9249C103.683 60.5009 102.947 60.3809 102.551 59.5969C102.139 58.7829 102.205 57.9109 102.419 57.0749C103.257 53.8189 104.921 51.1209 107.817 49.2789C108.203 49.0329 108.557 48.7329 108.925 48.4569C110.733 48.7269 110.775 48.8209 110.135 51.2709L110.133 51.2729Z" fill="#E62C55"/>
<path d="M109.74 94.8049C112.48 94.8209 114.576 95.3729 116.7 95.7429C117.192 95.8289 117.348 96.0629 117.322 96.5529C117.262 97.7189 116.992 98.8529 116.806 99.9969C116.752 100.333 116.626 100.533 116.204 100.323C113.774 99.1109 111.126 98.5809 108.52 97.9269C107.996 97.7949 107.728 97.6409 107.976 97.0709C108.04 96.9209 108.054 96.7489 108.086 96.5869C108.326 95.3829 108.878 94.7889 109.74 94.8049Z" fill="#723DBB"/>
<path d="M171.454 104.835C171.92 104.767 172.04 104.897 171.906 105.381C171.256 107.715 170.486 110.015 170.014 112.401C169.886 113.047 169.164 113.387 168.636 113.781C168.306 114.027 168.18 113.699 168.028 113.493C166.492 111.401 165.054 109.247 163.778 106.981C163.418 106.341 163.628 106.169 164.196 105.941C165.898 105.255 167.71 105.279 169.482 105.053C170.14 104.969 170.802 104.907 171.45 104.835H171.454ZM169.062 111.851C169.64 110.097 170.232 108.347 170.784 106.585C170.898 106.221 170.988 105.715 170.522 105.531C169.798 105.245 169.094 105.441 168.452 105.861C167.892 106.227 168.076 106.707 168.252 107.181C168.416 107.625 168.454 108.083 168.44 108.549C168.402 109.681 168.62 110.777 169.062 111.851Z" fill="#723DBB"/>
<path d="M136.863 60.2969C138.417 60.2109 139.967 60.1029 141.527 60.0709C143.932 60.0229 146.096 60.7349 148.164 61.8629C148.392 61.9869 148.602 62.1629 148.79 62.3449C149.022 62.5669 149.352 62.7849 149.174 63.1789C149.01 63.5429 148.692 63.6769 148.286 63.7029C147.162 63.7729 146.16 63.2449 145.08 63.1009C142.605 62.7729 140.127 62.7709 137.651 63.0949C137.209 62.2129 136.917 61.2869 136.863 60.2969Z" fill="#E62C55"/>
<path d="M201.002 99.8509C205.092 101.043 208.268 103.477 210.658 106.971C210.744 107.097 210.842 107.293 210.804 107.415C210.44 108.569 210.15 109.755 209.308 110.795C209.308 109.961 209.318 109.127 209.304 108.293C209.298 107.839 209.432 107.303 208.952 107.017C208.43 106.705 208.01 107.117 207.58 107.343C207.468 107.401 207.366 107.477 207.26 107.543C206.992 107.251 207.044 106.895 206.958 106.581C206.832 106.123 206.658 105.635 206.21 105.451C204.662 104.813 203.88 103.511 203.172 102.123C203.142 102.063 203.126 101.959 203.086 101.949C202.172 101.717 201.872 100.679 201.012 100.381C201.008 100.205 201.006 100.029 201.002 99.8529V99.8509Z" fill="#B68EED"/>
<path d="M103.618 48.0709C103.95 48.0869 104.28 48.1229 104.612 48.1149C105.48 48.0909 105.92 48.6429 106.044 49.3629C106.162 50.0529 105.772 50.6349 105.044 50.7349C103.38 50.9669 102.246 51.9909 101.16 53.1349C100.46 53.8729 99.6605 53.9409 99.0725 53.3769C98.5205 52.8469 98.5165 51.9049 99.1205 51.2149C100.204 49.9769 101.47 48.9709 103.018 48.3609C103.2 48.2889 103.416 48.2849 103.52 48.0789C103.552 48.0409 103.586 48.0369 103.622 48.0709H103.618Z" fill="#FE7392"/>
<path d="M201.936 86.2929C202.32 90.7429 202.826 95.1769 203.512 99.7249C202.68 99.4069 202.01 99.1509 201.34 98.8949C201.546 96.2369 201.182 93.6269 200.666 91.0329C200.308 89.2309 200.048 87.4809 201.936 86.2929Z" fill="#B68EED"/>
<path d="M199.374 103.863C198.776 103.743 198.344 104.243 197.76 104.269C195.552 104.371 194.254 103.087 193.278 101.361C192.068 99.2229 191.818 96.8529 191.79 94.3729C190.818 94.7369 190.198 95.6109 189.234 95.8749C189.236 95.7769 189.196 95.6349 189.246 95.5889C190.362 94.5549 191.49 93.5329 192.82 92.3189C192.82 93.2749 192.808 94.0149 192.822 94.7529C192.852 96.3869 193.02 98.0009 193.61 99.5449C193.862 100.205 194.22 100.799 194.674 101.337C195.166 101.921 195.85 102.471 196.546 102.327C198.018 102.023 198.62 103.015 199.374 103.861V103.863Z" fill="#723DBB"/>
<path d="M160.25 100.249C160.65 99.6389 161.302 99.3749 161.918 99.0829C163.866 98.1609 165.91 97.5609 168.058 97.3349C168.048 97.6269 168.038 97.9189 168.028 98.2109C166.048 98.4809 164.11 98.8689 162.33 99.8589C160.874 100.671 160.688 101.041 161.152 102.613C161.322 103.185 161.502 103.755 161.654 104.331C161.902 105.277 162.322 105.443 163.238 105.031C164.594 104.423 165.91 103.687 167.434 103.545C167.434 103.775 167.43 104.005 167.428 104.235C165.474 104.561 163.558 104.993 161.802 105.975C161.286 106.263 160.906 105.959 160.742 105.449C160.542 104.827 160.394 104.189 160.222 103.557C160.264 103.173 160.312 102.789 160.346 102.403C160.412 101.679 160.626 100.947 160.244 100.245L160.25 100.249Z" fill="#CB8F3A"/>
<path d="M109.111 100.183C107.865 100.013 106.621 99.8189 105.369 99.6909C104.931 99.6469 104.797 99.5229 104.843 99.0889C105.031 97.3629 105.391 95.6769 106.035 94.0629C106.387 93.1829 107.263 93.3829 107.933 93.3229C108.749 93.2489 109.585 93.3789 110.413 93.4169C110.645 93.4269 110.781 93.5389 110.821 93.8029C110.029 93.8029 109.217 93.9229 108.459 93.7709C107.555 93.5909 107.035 94.0149 106.627 94.6369C105.931 95.6989 106.031 96.9669 105.907 98.1609C105.867 98.5509 106.355 98.5709 106.689 98.5889C107.589 98.6349 108.471 98.7749 109.311 99.1169C109.269 99.4769 109.323 99.8529 109.111 100.181V100.183Z" fill="#CB8F3A"/>
<path d="M201.936 86.2929C200.048 87.4809 200.308 89.2309 200.666 91.0329C201.182 93.6269 201.546 96.2369 201.34 98.8949C200.378 98.7829 200.01 98.4029 200.138 97.2949C200.452 94.6169 200.144 91.9289 199.892 89.2529C199.78 88.0629 200.54 86.3469 201.578 85.8229C202.07 85.5749 201.904 86.0629 201.936 86.2929Z" fill="#723DBB"/>
<path d="M116.465 101.671C116.497 101.667 116.535 101.649 116.563 101.659C118.029 102.132 118.763 101.598 118.765 100.057C118.767 99.1009 118.769 98.1409 118.815 97.1869C118.885 95.7769 118.633 94.9249 117.033 94.8509C116.909 94.8449 116.789 94.7669 116.667 94.7209C116.669 94.4429 116.671 94.1669 116.673 93.8889C116.803 93.9169 116.933 93.9349 117.059 93.9729C119.501 94.7149 119.755 95.0329 119.603 97.5209C119.509 99.0489 119.469 100.577 119.461 102.107C119.457 103.017 119.131 103.291 118.283 102.987C117.623 102.751 116.893 102.843 116.279 102.471C116.341 102.205 116.403 101.939 116.463 101.673L116.465 101.671Z" fill="#CB8F3A"/>
<path d="M172.412 97.1229C174.496 97.5229 174.51 97.5209 174.722 99.5789C174.826 100.595 174.838 101.619 174.946 102.635C174.988 103.029 174.838 103.183 174.51 103.265C173.556 103.509 172.614 103.801 171.618 103.819C171.618 103.651 171.618 103.481 171.616 103.313C172.042 103.299 172.472 103.251 172.896 103.277C173.746 103.329 174.022 102.897 173.944 102.127C173.836 101.047 173.714 99.9669 173.62 98.8849C173.554 98.1249 173.18 97.7509 172.406 97.8129C172.406 97.5829 172.41 97.3529 172.412 97.1209V97.1229Z" fill="#CB8F3A"/>
<path d="M178.13 94.0429C178.946 94.1849 179.66 94.5509 180.33 94.9469C180.294 95.2149 180.164 95.2429 180.032 95.2249C178.06 94.9469 176.072 94.9189 174.088 94.9629C173.248 94.9809 173.496 94.4829 173.518 94.0469C175.056 94.2469 176.594 94.4529 178.13 94.0409V94.0429Z" fill="#E62C55"/>
<path d="M178.13 94.0429C176.594 94.4529 175.056 94.2469 173.518 94.0489C173.52 93.4569 173.522 92.8649 173.524 92.2729C173.614 92.2709 173.704 92.2689 173.794 92.2669C175.27 92.7869 176.754 93.2809 178.13 94.0429Z" fill="#FC4870"/>
<path d="M123.678 91.0929C122.234 91.0089 120.784 90.9789 119.348 90.8189C118.518 90.7249 118.894 89.9589 118.926 89.5269C118.97 88.9529 119.422 89.3109 119.678 89.4049C121.03 89.8969 122.372 90.4149 123.716 90.9249L123.676 91.0929H123.678Z" fill="#723DBB"/>
<path d="M110.495 99.4429C111.533 99.6169 112.541 99.9009 113.511 100.311C113.419 100.717 113.329 101.121 113.239 101.525C112.211 101.305 111.245 100.897 110.271 100.513C110.599 100.209 110.483 99.8129 110.495 99.4409V99.4429Z" fill="#CB8F3A"/>
<path d="M172.412 97.1229C172.412 97.3529 172.408 97.5829 172.406 97.8149C170.948 97.9489 169.488 98.0809 168.03 98.2149C168.04 97.9229 168.05 97.6309 168.06 97.3389C169.5 97.0409 170.952 96.9769 172.414 97.1249L172.412 97.1229Z" fill="#E9CA69"/>
<path d="M113.237 101.525C113.327 101.121 113.419 100.715 113.509 100.311C114.591 100.551 115.613 100.925 116.465 101.671C116.403 101.937 116.341 102.203 116.279 102.469C115.265 102.155 114.249 101.841 113.235 101.527L113.237 101.525Z" fill="#E9CA69"/>
<path d="M96.6067 89.2429C97.7087 88.6689 98.6027 88.2029 99.4967 87.7369C99.7147 87.6249 99.8627 87.6449 99.9067 87.9289C99.9567 88.2549 100.019 88.5789 100.089 88.9009C100.185 89.3409 100.011 89.5129 99.5747 89.4749C98.6647 89.3989 97.7547 89.3309 96.6067 89.2409V89.2429Z" fill="#723DBB"/>
<path d="M201.002 99.8509C201.006 100.027 201.008 100.203 201.012 100.379C200.364 100.907 200.02 100.805 199.408 100.109C198.71 99.3169 197.486 99.3949 196.428 99.4909C196.074 99.5229 195.73 99.6849 195.384 99.7949C195.212 99.8489 195.06 100.073 194.862 99.8749C194.802 99.8149 194.764 99.6889 194.778 99.6029C194.832 99.2949 195.106 99.2989 195.324 99.2989C196.452 99.2949 197.594 99.2089 198.706 99.3529C199.47 99.4509 200.292 99.4489 201.004 99.8529L201.002 99.8509Z" fill="#723DBB"/>
<path d="M171.614 103.315C171.614 103.483 171.614 103.653 171.616 103.821C170.23 104.037 168.842 104.249 167.432 104.241C167.432 104.011 167.436 103.781 167.438 103.551C168.82 103.305 170.212 103.215 171.614 103.315Z" fill="#E9CA69"/>
<path d="M107.951 83.3349C108.151 85.1169 107.891 86.8469 107.555 88.5689C107.669 86.8189 107.205 85.0229 107.951 83.3349Z" fill="#723DBB"/>
<path d="M115.082 94.4469C114.035 94.2729 112.987 94.1029 111.939 93.9269C111.755 93.8969 111.495 93.9389 111.491 93.6589C111.487 93.3669 111.743 93.4029 111.929 93.4109C112.987 93.4569 114.059 93.3089 115.094 93.6449C115.09 93.9129 115.088 94.1809 115.084 94.4469H115.082Z" fill="#CB8F3A"/>
<path d="M161.682 87.4809C161.728 87.4289 161.774 87.3749 161.82 87.3229C161.896 89.2609 161.526 91.1669 161.426 93.0929C161.406 93.4729 161.238 93.6529 160.854 93.5589C160.142 93.3829 159.388 93.5409 158.69 93.2729C158.724 93.2729 158.756 93.2689 158.79 93.2689C161.334 93.2749 161.324 93.2749 161.444 90.7329C161.496 89.6469 161.602 88.5649 161.682 87.4809Z" fill="#723DBB"/>
<path d="M160.25 100.249C160.632 100.951 160.418 101.683 160.352 102.407C160.316 102.791 160.27 103.175 160.228 103.561C159.746 102.453 159.434 101.347 160.252 100.249H160.25Z" fill="#E9CA69"/>
<path d="M210.02 115.621C209.996 115.165 209.972 114.711 209.948 114.255C210.6 115.111 211.322 115.915 211.228 117.071C210.764 116.637 210.596 115.959 210.02 115.621Z" fill="#E9CA69"/>
<path d="M115.083 94.4469C115.087 94.1789 115.089 93.9109 115.093 93.6449C115.643 93.5769 116.157 93.7449 116.675 93.8869C116.675 94.1649 116.671 94.4409 116.669 94.7189C116.141 94.6289 115.611 94.5389 115.083 94.4489V94.4469Z" fill="#E9CA69"/>
<path d="M210.02 115.621C210.596 115.959 210.764 116.639 211.228 117.071C211.254 117.509 210.9 117.519 210.628 117.543C210.328 117.571 210.284 117.273 210.238 117.063C210.132 116.589 209.95 116.121 210.02 115.619V115.621Z" fill="#CB8F3A"/>
<path d="M110.495 99.4429C110.483 99.8129 110.599 100.211 110.271 100.515C109.885 100.405 109.499 100.295 109.113 100.185C109.325 99.8569 109.271 99.4809 109.313 99.1209C109.707 99.2289 110.101 99.3369 110.495 99.4449V99.4429Z" fill="#E9CA69"/>
<path d="M108.452 77.0629C108.226 75.5869 108.126 74.1109 108.5 72.6409C108.484 74.1149 108.468 75.5889 108.452 77.0629Z" fill="#FE7392"/>
<path d="M173.878 80.5989C174.112 81.2329 174.304 81.8729 174.166 82.7769C173.652 81.9649 174.036 81.2449 173.878 80.5989Z" fill="#723DBB"/>
<path d="M171.838 45.3089C171.49 44.1269 171.554 42.9029 171.45 41.6949C171.87 42.8689 171.792 44.0949 171.838 45.3089Z" fill="#723DBB"/>
<path d="M93.6418 102.024C93.6418 101.53 93.7838 101.226 94.0378 100.902C94.1458 101.412 94.0138 101.786 93.6418 102.024Z" fill="#723DBB"/>
<path d="M161.504 73.4229C161.568 73.6269 161.632 73.8309 161.696 74.0349C161.666 74.0569 161.636 74.0809 161.606 74.1029C161.42 73.9449 161.438 73.7169 161.404 73.5049C161.438 73.4789 161.472 73.4509 161.504 73.4229Z" fill="#FC4870"/>
<path d="M173.794 92.2669C173.704 92.2689 173.614 92.2709 173.524 92.2729C173.608 92.0149 173.702 92.1929 173.794 92.2669Z" fill="#E62C55"/>
<path d="M127.804 26.6769C127.858 26.5869 127.854 26.3769 128.008 26.4689C128.12 26.5369 128.034 26.6929 127.922 26.7769C127.884 26.7429 127.844 26.7089 127.806 26.6769H127.804Z" fill="#723DBB"/>
<path d="M190.208 186.373C190.206 186.195 190.218 186.023 190.432 185.961C190.6 186.231 190.338 186.265 190.208 186.373Z" fill="#B68EED"/>
<path d="M189.998 186.569C189.856 186.267 190.136 186.417 190.222 186.359C190.148 186.429 190.074 186.499 189.998 186.569Z" fill="#B68EED"/>
<path d="M209.788 177.483C209.812 177.347 209.832 177.207 210.004 177.173C210.04 177.351 209.934 177.431 209.788 177.483Z" fill="#BA91F1"/>
<path d="M123.471 122.929C122.207 122.929 120.941 122.913 119.677 122.935C118.857 122.949 118.405 122.663 118.493 121.767C118.531 121.371 118.501 120.969 118.501 120.569C118.501 119.167 118.855 118.681 120.271 118.427C122.351 118.053 124.455 118.211 126.543 118.333C131.191 118.603 135.835 118.927 140.477 119.263C145.519 119.629 150.586 119.533 155.62 120.057C156.28 120.125 156.936 120.239 157.59 120.355C157.82 120.395 158.052 120.503 158.094 120.773C158.136 121.049 157.96 121.233 157.72 121.285C157.276 121.381 157.188 121.675 157.308 122.027C157.47 122.505 157.886 122.259 158.162 122.211C161.956 121.531 165.578 121.959 168.988 123.835C169.332 124.023 169.794 124.109 169.806 124.603C169.82 125.163 169.272 125.073 168.96 125.273C167.678 126.097 166.294 126.791 165.302 128.007C164.702 128.743 163.95 129.303 163.078 129.653C162.594 129.847 162.432 130.019 162.586 130.569C162.902 131.693 162.946 132.865 162.952 134.029C162.966 137.357 162.976 140.685 162.984 144.013C162.988 145.981 163.142 147.943 163.586 149.855C164.042 151.821 163.572 153.685 163.162 155.557C162.772 157.341 162.252 159.095 161.79 160.863C161.654 161.381 161.396 161.859 160.81 161.819C160.248 161.781 160.308 161.219 160.218 160.807C159.072 155.481 157.078 150.461 154.83 145.519C152.68 140.797 148.593 138.417 144.181 136.399C140.947 134.919 137.697 133.473 134.473 131.969C131.151 130.417 129.383 127.859 128.479 124.479C128.063 122.923 128.035 122.929 126.467 122.929C125.469 122.929 124.471 122.929 123.471 122.929ZM160.62 123.001H160.604C159.652 122.919 158.728 123.055 157.73 123.309C159.654 124.403 160.762 126.075 161.64 127.927C162.176 129.061 162.3 129.117 163.372 128.423C164.546 127.661 165.262 126.379 166.488 125.675C167.052 125.387 167.572 125.041 168.012 124.459C166.428 123.683 164.852 123.025 163.082 122.989C162.262 122.793 161.442 122.771 160.622 123.003L160.62 123.001ZM143.237 123.675C142.991 123.641 142.745 123.607 142.499 123.573C138.255 122.827 133.969 122.889 129.687 122.877C129.277 122.877 129.141 123.073 129.239 123.437C129.951 126.089 130.673 128.737 133.349 130.195C135.627 131.437 137.965 132.551 140.319 133.639C142.609 134.695 144.951 135.631 147.203 136.785C151.382 138.927 154.49 142.005 156.336 146.387C158.03 150.405 159.526 154.485 160.788 158.657C160.848 158.855 160.766 159.153 161.206 159.201C161.608 157.645 162.126 156.093 162.384 154.501C162.57 153.351 163.102 152.205 162.728 150.991C162.47 148.813 162.042 146.653 162.032 144.447C162.014 140.887 161.976 137.327 161.982 133.767C161.986 130.601 160.894 127.857 158.896 125.441C158.374 124.811 157.748 124.423 156.934 124.177C155.618 123.781 154.39 124.345 153.002 124.181C154.95 127.375 157.328 129.989 159.96 132.391C160.29 132.691 161.018 133.023 160.512 133.547C160.024 134.053 159.65 133.337 159.314 133.045C157.124 131.141 155.296 128.881 153.24 126.845C151.8 125.419 150.189 124.309 148.061 124.245C146.425 124.291 144.845 123.863 143.239 123.671L143.237 123.675ZM149.889 123.297C152.286 123.225 153.918 123.337 155.538 123.083C156.396 122.949 156.272 122.309 156.306 121.711C156.342 121.073 155.946 121.051 155.48 121.005C153.03 120.771 150.574 120.669 148.117 120.589C143.833 120.449 139.555 120.169 135.277 119.891C130.867 119.605 126.465 119.131 122.037 119.205C121.401 119.215 120.767 119.241 120.163 119.429C119.033 119.783 119.541 120.747 119.483 121.465C119.423 122.199 120.061 121.951 120.427 121.953C124.651 121.969 128.875 121.955 133.097 121.967C135.857 121.975 138.611 122.071 141.357 122.395C144.449 122.759 147.499 123.623 149.889 123.295V123.297Z" fill="#0B0910"/>
<path d="M161.404 73.5049C161.438 73.7149 161.418 73.9429 161.606 74.1029C161.676 74.8809 161.586 75.6129 160.7 75.8609C159.726 76.1329 159.188 75.7909 158.742 74.6669C158.006 72.8149 157.192 71.0029 156.152 69.2969C155.806 68.7289 155.442 68.1849 154.976 67.7009C154.308 67.0049 154.26 66.0129 154.812 65.4609C155.39 64.8829 156.232 64.9809 157 65.7569C157.872 66.6369 158.508 67.6909 159.072 68.7809C159.88 70.3409 160.63 71.9289 161.404 73.5049Z" fill="#FE7392"/>
<path d="M169.062 111.851C168.62 110.777 168.402 109.681 168.44 108.549C168.456 108.083 168.416 107.625 168.252 107.181C168.076 106.707 167.892 106.227 168.452 105.861C169.094 105.443 169.798 105.245 170.522 105.531C170.986 105.715 170.898 106.223 170.784 106.585C170.232 108.347 169.64 110.097 169.062 111.851Z" fill="#BA91F1"/>
<path d="M171.614 103.315C170.212 103.215 168.82 103.305 167.438 103.551C165.914 103.691 164.598 104.429 163.242 105.037C162.324 105.447 161.906 105.283 161.658 104.337C161.506 103.759 161.324 103.191 161.156 102.619C160.69 101.045 160.876 100.675 162.334 99.8649C164.112 98.8749 166.052 98.4869 168.032 98.2169C169.49 98.0829 170.95 97.9509 172.408 97.8169C173.182 97.7569 173.556 98.1309 173.622 98.8889C173.716 99.9709 173.838 101.051 173.946 102.131C174.022 102.901 173.746 103.333 172.898 103.281C172.474 103.255 172.044 103.303 171.618 103.317L171.614 103.315ZM169.986 98.9589C169.672 98.9989 169.358 99.0409 169.044 99.0809C167.552 99.1849 166.06 99.3569 164.656 99.8769C162.604 100.637 162.43 100.379 162.802 103.041C162.916 103.855 163.252 104.063 164.002 103.675C165.842 102.719 167.83 102.411 169.882 102.381C171.852 102.351 171.852 102.339 171.852 100.389C171.852 99.2209 171.259 98.7295 170.072 98.9149C170.04 98.9189 170.014 98.9449 169.984 98.9609L169.986 98.9589Z" fill="#0B0910"/>
<path d="M162.726 150.991C163.1 152.205 162.568 153.351 162.382 154.501C162.124 156.093 161.608 157.643 161.204 159.201C160.764 159.153 160.846 158.855 160.786 158.657C159.524 154.487 158.028 150.407 156.334 146.387C154.486 142.005 151.38 138.925 147.201 136.785C144.951 135.633 142.607 134.697 140.317 133.639C137.963 132.553 135.623 131.437 133.347 130.195C130.671 128.735 129.949 126.089 129.237 123.437C129.139 123.071 129.273 122.875 129.685 122.877C133.969 122.889 138.255 122.827 142.499 123.573C141.923 123.727 142.273 123.943 142.459 124.153C143.227 125.025 144.007 125.887 144.755 126.777C145.971 128.227 146.999 129.879 148.397 131.121C151.936 134.267 155.238 137.617 158.114 141.375C160.042 143.893 161.724 146.545 162.164 149.793C162.222 150.225 162.2 150.755 162.728 150.991H162.726Z" fill="#83A89A"/>
<path d="M162.726 150.991C162.198 150.755 162.22 150.225 162.162 149.793C161.722 146.545 160.042 143.895 158.112 141.375C155.234 137.617 151.932 134.267 148.394 131.121C146.998 129.879 145.968 128.227 144.752 126.777C144.006 125.887 143.224 125.025 142.456 124.153C142.272 123.943 141.92 123.727 142.496 123.573C142.742 123.607 142.988 123.641 143.234 123.675C143.924 125.023 145.08 125.885 146.324 126.663C148.632 128.109 150.944 129.549 153.226 131.031C154.388 131.785 155.492 132.631 156.622 133.435C156.662 133.461 156.702 133.489 156.742 133.515C156.716 133.475 156.688 133.435 156.662 133.395C155.208 130.835 153.22 128.741 151.038 126.793C150.062 125.921 148.834 125.347 148.058 124.247C150.188 124.313 151.8 125.421 153.238 126.847C155.294 128.883 157.122 131.143 159.312 133.047C159.648 133.339 160.022 134.053 160.51 133.549C161.016 133.025 160.286 132.693 159.958 132.393C157.326 129.991 154.948 127.377 153 124.183C154.388 124.347 155.616 123.783 156.932 124.179C157.746 124.423 158.374 124.811 158.894 125.443C160.892 127.859 161.984 130.603 161.98 133.769C161.976 137.329 162.014 140.889 162.03 144.449C162.04 146.653 162.468 148.813 162.726 150.993V150.991Z" fill="#B2E9D3"/>
<path d="M149.888 123.297C147.498 123.625 144.448 122.761 141.356 122.397C138.61 122.073 135.856 121.977 133.096 121.969C128.872 121.959 124.648 121.971 120.427 121.955C120.061 121.955 119.423 122.201 119.483 121.467C119.541 120.749 119.035 119.785 120.163 119.431C120.767 119.241 121.401 119.217 122.037 119.207C126.466 119.133 130.866 119.607 135.276 119.893C139.554 120.169 143.832 120.451 148.116 120.591C150.576 120.671 153.03 120.775 155.48 121.007C155.944 121.051 156.342 121.075 156.306 121.713C156.272 122.311 156.396 122.951 155.538 123.085C153.918 123.339 152.286 123.227 149.888 123.299V123.297Z" fill="#723DBB"/>
<path d="M148.058 124.247C148.834 125.347 150.062 125.923 151.038 126.793C153.22 128.741 155.208 130.835 156.662 133.395L156.622 133.435C155.492 132.631 154.388 131.787 153.226 131.031C150.942 129.547 148.63 128.109 146.324 126.663C145.08 125.883 143.924 125.021 143.234 123.675C144.842 123.867 146.42 124.295 148.056 124.249L148.058 124.247Z" fill="#83A89A"/>
<path d="M166.481 125.674C165.255 126.378 164.541 127.66 163.365 128.422C162.293 129.116 162.171 129.06 161.633 127.926C160.757 126.074 159.649 124.402 157.723 123.308C158.721 123.054 159.645 122.918 160.597 123.002C162.373 124.298 164.253 125.368 166.479 125.674H166.481Z" fill="#83A89A"/>
<path d="M166.486 125.673C164.26 125.367 162.38 124.299 160.604 123.001H160.618C161.438 123.075 162.258 123.085 163.078 122.987C164.848 123.023 166.424 123.681 168.008 124.457C167.568 125.039 167.05 125.385 166.484 125.673H166.486Z" fill="#B2E9D3"/>
<path d="M163.078 122.987C162.258 123.085 161.438 123.073 160.618 123.001C161.436 122.769 162.256 122.793 163.078 122.987Z" fill="#83A89A"/>
<path d="M169.986 98.9589C170.016 98.9429 170.044 98.9189 170.074 98.9129C171.261 98.7263 171.854 99.2176 171.854 100.387C171.854 102.337 171.854 102.351 169.884 102.379C167.832 102.409 165.844 102.719 164.004 103.673C163.254 104.063 162.918 103.855 162.804 103.039C162.43 100.377 162.606 100.635 164.658 99.8749C166.062 99.3549 167.554 99.1829 169.046 99.0789C168.584 99.6309 168.336 100.257 168.27 100.985C168.22 101.535 168.162 101.947 168.934 101.675C169.144 101.601 169.402 101.609 169.626 101.645C170.67 101.813 171.028 101.245 171.204 100.329C171.406 99.2809 170.492 99.3209 169.988 98.9549L169.986 98.9589Z" fill="#723DBB"/>
<path d="M169.986 98.9589C170.492 99.3249 171.404 99.2829 171.202 100.333C171.026 101.247 170.668 101.815 169.624 101.649C169.398 101.613 169.142 101.605 168.932 101.679C168.16 101.951 168.218 101.539 168.268 100.989C168.336 100.261 168.582 99.6349 169.044 99.0829C169.358 99.0429 169.672 99.0009 169.986 98.9609V98.9589Z" fill="#B68EED"/>
<path d="M156.664 133.395C156.69 133.435 156.718 133.475 156.744 133.515C156.704 133.489 156.664 133.461 156.624 133.435L156.664 133.395Z" fill="#83A89A"/>
</g>
<defs>
<clipPath id="clip0_1448_78861">
<rect width="133.363" height="178.106" fill="white" transform="translate(83.2029 11.2109)"/>
</clipPath>
</defs>
</svg>
