<svg width="300" height="200" viewBox="0 0 300 200" fill="none" xmlns="http://www.w3.org/2000/svg">
<g clip-path="url(#clip0_2624_68792)">
<path d="M159.465 90.4113C155.849 84.6493 155.695 78.5553 157.029 72.2773C159.683 59.7773 166.287 49.7373 176.187 41.8073C180.565 38.2993 185.639 36.7353 191.263 37.0493C193.787 37.1893 196.115 38.1273 198.513 38.8133C202.443 39.9393 206.123 41.5813 209.605 43.6993C210.111 44.0073 210.649 43.8753 211.165 43.8373C225.272 42.7593 237.568 53.6413 241.306 62.3773C242.164 64.3813 243.114 66.4493 242.756 68.6173C242.448 70.4913 243.174 71.8613 243.938 73.3553C246.136 77.6533 247.886 82.1313 248.194 86.9833C248.726 95.3753 247.56 103.527 244.048 111.243C243.038 113.463 241.654 115.413 239.312 116.437C238.794 116.663 238.976 116.965 239.074 117.321C239.624 119.305 240.438 121.215 240.762 123.263C242.346 133.275 239.516 141.681 231.66 148.249C227.79 151.485 223.501 153.847 218.427 154.607C214.155 155.247 209.921 154.975 205.703 154.193C198.157 152.797 190.791 150.789 183.741 147.709C181.995 146.947 180.309 146.085 178.847 144.847C178.505 144.557 178.183 144.485 177.757 144.605C171.639 146.341 165.371 146.181 159.105 146.073C154.951 146.003 150.867 145.555 146.965 144.021C145.009 143.253 143.111 142.379 141.387 141.155C140.505 140.529 139.407 140.625 138.753 141.411C137.203 143.277 135.139 144.285 132.839 144.649C131.639 144.839 130.345 144.449 129.093 144.311C127.575 144.143 127.655 144.159 127.307 145.605C126.413 149.331 124.647 152.395 120.841 153.891C118.545 154.795 116.277 155.765 113.751 155.759C113.317 155.759 113.239 156.023 113.055 156.311C111.612 158.567 110.13 160.875 107.3 161.505C105.494 161.907 103.61 162.043 101.754 162.121C91.1697 162.563 80.7338 161.555 70.4899 158.785C70.2659 158.725 70.0479 158.639 69.8219 158.583C67.4779 157.989 67.4099 156.675 68.0439 154.393C68.1759 153.921 68.3379 153.457 68.4599 152.975C68.7519 151.809 68.8619 150.599 69.7919 149.635C70.3059 149.101 70.0759 148.239 69.9559 147.525C69.8739 147.039 69.6779 146.571 69.5499 146.091C69.2139 144.831 69.2959 144.555 70.4859 144.111C71.0039 143.917 71.0259 143.645 71.0219 143.231C71.0119 142.031 71.0339 140.831 71.0139 139.633C71.0019 138.963 71.1639 138.531 71.9099 138.309C72.8219 138.039 72.8119 137.731 72.2699 136.835C72.0319 136.441 71.7939 136.059 71.5239 135.683C70.9919 134.945 71.7639 133.459 72.7279 133.443C73.4838 133.429 73.6818 133.183 73.6858 132.465C73.6978 130.897 74.0998 130.495 75.6458 130.443C76.4138 130.417 76.5658 129.919 76.6278 129.339C76.6738 128.911 76.6238 128.473 76.6518 128.041C76.6758 127.661 76.7878 127.227 77.2178 127.207C78.0118 127.171 78.2078 126.919 78.0258 126.107C77.8438 125.297 78.4798 125.083 79.1638 125.157C80.6538 125.317 82.1458 125.465 83.6258 125.693C87.2997 126.259 90.9997 126.097 94.6937 126.171C95.1977 126.181 95.1017 125.879 95.1717 125.615C96.0417 122.405 96.9536 119.213 98.4396 116.215C99.3076 114.465 100.426 112.909 101.808 111.535C102.336 111.009 102.924 110.483 103.634 110.361C104.92 110.141 105.576 109.313 106.334 108.357C108.082 106.147 110.362 104.937 113.315 104.965C117.249 105.003 121.145 105.311 125.055 105.739C128.557 106.121 132.107 106.097 135.637 106.221C139.309 106.351 142.939 106.801 146.529 107.561C147.247 107.713 147.401 107.487 147.581 106.859C149.371 100.615 152.731 95.3593 157.637 91.0973C158.131 90.6673 158.693 90.4113 159.463 90.4153L159.465 90.4113ZM142.765 117.445C143.153 117.387 143.585 117.191 143.923 117.297C144.831 117.583 144.947 117.093 144.963 116.411C145.431 115.735 145.651 114.897 146.333 114.355C146.549 114.183 146.561 113.895 146.587 113.621C146.711 112.365 146.763 111.091 147.019 109.859C147.209 108.947 146.867 108.761 146.095 108.607C141.183 107.629 136.209 107.333 131.217 107.173C129.123 107.105 127.027 107.025 124.939 106.859C120.533 106.509 116.141 105.939 111.706 106.159C111.31 106.179 110.902 106.121 110.54 106.347C109.296 107.127 108.072 107.931 107.156 109.109C107 109.309 106.696 109.495 106.826 109.779C106.948 110.045 107.284 110.011 107.544 110.029C110.398 110.227 113.249 110.485 116.107 110.597C122.335 110.841 128.523 111.391 134.593 112.851C137.005 113.431 139.611 113.693 141.335 115.863C141.585 116.313 141.815 116.775 142.093 117.207C142.233 117.425 142.397 117.775 142.763 117.443L142.765 117.445ZM215.333 47.2593C215.405 47.3253 215.473 47.3993 215.553 47.4573C221.405 51.6973 226.529 56.6693 230.748 62.5533C232.842 65.4733 234.596 68.5913 236.114 71.8453C236.226 72.1913 236.328 72.5413 236.454 72.8813C237.792 76.4933 238.442 80.2213 238.324 84.0733C238.242 86.6953 237.85 89.2733 237.102 91.7913C236.004 94.5713 234.458 97.0613 232.386 99.2273C228.902 102.869 224.559 104.985 219.805 106.381C219.073 106.597 218.345 106.817 217.651 107.147C217.033 107.441 216.815 107.799 217.107 108.481C217.887 110.313 218.619 112.165 219.371 114.009C219.731 115.355 220.135 116.691 220.439 118.049C221.143 121.181 221.335 124.341 220.979 127.547C220.701 130.043 220.009 132.421 219.285 134.801C219.099 135.189 218.901 135.571 218.729 135.965C216.575 140.921 213.191 144.599 207.981 146.427C202.873 148.217 197.707 147.815 192.535 146.871C189.241 146.269 186.147 145.063 183.183 143.511C182.803 143.311 182.399 143.143 181.989 143.017C181.659 142.917 180.017 143.715 180.029 143.965C180.061 144.575 180.657 144.701 181.047 144.949C183.595 146.563 186.415 147.595 189.231 148.599C195.185 150.721 201.289 152.275 207.537 153.273C211.275 153.869 215.017 154.049 218.731 153.357C225.557 152.085 230.852 148.251 235.144 142.975C237.688 139.847 239.116 136.157 239.718 132.171C240.09 129.697 240.086 127.209 239.788 124.719C239.454 121.921 238.41 119.323 237.56 116.671C237.354 116.029 237.374 115.529 238.06 115.471C239.892 115.317 240.862 113.999 241.78 112.725C243.658 110.121 244.556 107.083 245.33 104.009C246.444 100.025 246.968 95.9533 247.116 91.8273C247.61 84.2233 245.02 77.4733 241.354 71.0193C241.354 70.7533 241.304 70.4753 241.366 70.2233C242.06 67.3553 241.116 64.8053 239.922 62.2673C237.83 57.8213 234.562 54.3873 230.754 51.4073C228.55 49.6833 226.188 48.2173 223.553 47.2293C221.337 46.1693 219.035 45.4133 216.565 45.2573C215.105 44.9293 213.631 44.9993 211.907 45.0413C213.185 45.8673 214.259 46.5613 215.335 47.2553L215.333 47.2593ZM71.1759 149.809C70.6419 150.659 69.9419 151.373 69.8199 152.501C69.7419 153.213 69.5759 153.989 69.2259 154.693C68.5379 156.079 68.9859 157.105 70.4539 157.543C72.9059 158.275 75.3998 158.827 77.9238 159.281C85.5477 160.651 93.2237 161.275 100.964 160.989C103.018 160.913 105.072 160.703 107.088 160.213C109.57 159.609 111.014 157.783 111.942 155.679C112.904 153.497 113.11 151.059 113.407 148.681C113.617 147.005 113.679 145.305 114.201 143.671C114.517 142.681 115.071 142.259 116.159 142.229C121.169 142.093 126.113 142.897 131.071 143.345C134.165 143.625 137.153 141.899 138.795 139.521C139.059 139.137 138.865 138.899 138.663 138.639C138.381 138.277 138.215 138.623 138.031 138.771C137.307 139.357 136.595 139.959 135.785 140.431C132.639 142.273 129.883 141.467 128.205 138.241C127.213 136.335 127.113 134.291 127.173 132.213C127.407 131.937 127.389 131.593 127.423 131.265C127.845 127.389 128.859 123.697 130.789 120.281C131.507 119.011 132.381 117.875 133.683 117.189C136.111 115.909 137.973 116.271 139.145 118.735C139.273 119.005 139.393 119.281 139.521 119.551C139.575 119.663 139.603 119.803 139.783 119.795C140.147 119.781 141.279 118.161 141.075 117.861C140.371 116.827 139.939 115.665 138.485 115.175C133.431 113.471 128.217 112.679 122.949 112.219C118.011 111.787 113.033 111.751 108.118 111.171C104.376 110.729 101.998 112.213 100.284 115.289C99.9436 115.899 99.5976 116.507 99.3036 117.139C97.3276 121.385 96.1496 125.883 95.2597 130.453C95.0517 131.517 94.5857 132.207 93.6977 132.703C92.6417 133.097 91.5357 133.151 90.4557 132.971C88.7517 132.689 87.0377 132.529 85.3297 132.315C82.1998 131.925 79.0798 131.513 75.9118 131.581C75.1298 131.597 74.8498 131.799 74.9078 132.591C74.9698 133.427 74.9678 134.293 73.9578 134.665C73.7258 134.651 73.4938 134.641 73.2619 134.625C72.9739 134.605 72.7319 134.671 72.6159 134.969C72.4439 135.417 72.8579 135.273 73.0279 135.403C74.4438 136.479 74.3218 138.365 72.7699 139.237C72.3359 139.481 72.1599 139.753 72.1719 140.253C72.2039 141.481 72.1799 142.709 72.1799 143.939C72.1799 144.603 72.0079 145.115 71.2139 145.181C70.6119 145.231 70.5459 145.601 70.7559 146.087C71.2739 147.285 71.2119 148.547 71.1739 149.809H71.1759ZM219.817 122.633C219.765 120.011 219.121 117.501 218.353 115.015C217.695 112.955 216.819 110.981 215.949 109.009C215.543 108.087 215.373 107.241 216.161 106.445C217.215 106.041 218.229 105.545 219.321 105.233C222.899 104.211 226.26 102.741 229.208 100.415C232.562 97.7693 235.086 94.5393 236.19 90.3553C236.964 87.4213 237.198 84.4353 237.016 81.3813C236.75 76.9353 235.428 72.8413 233.324 68.9773C230.016 62.9013 225.66 57.6633 220.527 53.0313C216.099 49.0373 211.129 45.8693 205.941 42.9953C202.775 41.2413 199.293 40.3393 195.891 39.2293C189.779 37.2333 184.031 38.1293 178.637 41.5513C175.031 43.8393 172.015 46.7873 169.285 50.0293C167.315 52.3693 165.543 54.8613 164.135 57.5913C163.093 58.9413 162.299 60.4533 161.609 61.9853C158.865 68.0733 157.091 74.4073 157.587 81.1613C157.815 84.2653 158.641 87.2513 160.603 89.7893C161.089 90.4193 161.649 90.9913 162.137 91.6213C162.363 91.9133 162.507 92.2993 162.197 92.6273C161.903 92.9373 161.527 92.8693 161.185 92.6833C160.717 92.4313 160.231 92.1973 159.801 91.8873C159.305 91.5293 158.935 91.6013 158.469 91.9693C157.099 93.0473 155.915 94.3013 154.823 95.6453C152.047 99.0653 149.899 102.831 148.757 107.107C148.155 109.357 148.017 111.675 147.869 114.001C147.735 116.103 147.653 118.187 148.083 120.243C148.735 123.365 150.043 126.167 152.421 128.383C152.747 128.685 152.945 129.069 152.571 129.417C152.205 129.759 151.797 129.673 151.433 129.301C149.675 127.513 148.399 125.399 147.603 123.057C147.075 121.503 145.967 120.435 145.049 119.199C144.887 118.981 144.655 118.873 144.381 118.799C143.307 118.505 141.897 119.125 140.985 120.359C138.471 123.763 137.229 127.535 137.529 131.809C137.789 135.511 139.325 138.413 142.479 140.437C146.815 143.219 151.607 144.497 156.695 144.809C158.255 144.905 159.817 144.757 161.381 144.947C162.499 145.083 163.645 145.021 164.775 144.987C165.899 144.951 167.019 144.839 168.141 144.761C167.785 144.609 167.433 144.549 167.083 144.469C161.671 143.223 156.975 140.663 153.025 136.753C152.653 136.385 152.139 136.171 151.899 135.645C151.707 135.225 151.875 134.907 152.117 134.649C152.391 134.359 152.595 134.745 152.783 134.861C153.089 135.049 153.339 135.331 153.599 135.587C156.109 138.053 158.883 140.133 162.145 141.525C165.199 142.827 168.321 143.771 171.697 143.621C172.453 143.587 173.179 143.301 173.969 143.513C176.319 144.149 178.413 143.437 180.361 142.147C180.975 141.741 181.585 141.481 182.315 141.811C183.677 142.427 185.029 143.065 186.407 143.643C192.357 146.139 198.535 147.125 204.915 145.981C209.763 145.113 213.575 142.541 216.149 138.261C218.079 135.051 219.219 131.557 219.715 127.871C219.947 126.145 220.191 124.385 219.817 122.631V122.633ZM136.051 117.811C135.415 117.717 134.861 117.911 134.325 118.211C133.179 118.851 132.407 119.827 131.785 120.953C130.209 123.809 129.221 126.861 128.799 130.087C128.605 131.563 128.345 133.067 128.441 134.539C128.559 136.335 129.161 137.991 130.625 139.297C131.407 139.993 132.111 140.345 133.103 140.141C134.755 139.803 136.073 138.873 137.307 137.781C137.695 137.439 137.741 137.141 137.511 136.665C136.557 134.689 136.109 132.591 136.183 130.393C136.275 127.667 136.791 124.995 138.147 122.643C139.027 121.117 138.479 120.017 137.825 118.783C137.449 118.073 136.895 117.657 136.053 117.811H136.051ZM126.161 145.113C126.409 144.119 125.699 144.105 125.117 144.047C122.475 143.779 119.837 143.445 117.167 143.541C115.441 143.603 115.387 143.593 115.033 145.287C114.993 145.481 114.979 145.681 114.955 145.879C114.639 148.481 114.421 151.097 113.771 153.651C113.519 154.637 113.623 154.719 114.651 154.565C117.215 154.183 119.651 153.349 121.867 152.057C124.487 150.529 125.587 147.931 126.161 145.113ZM79.3898 126.417C80.0098 127.941 79.9398 128.073 78.4178 128.249C77.3898 128.367 77.9098 129.145 77.8078 129.641C77.7038 130.139 77.8538 130.437 78.4778 130.433C80.9118 130.417 83.2978 130.929 85.7117 131.141C87.6957 131.315 89.6617 131.731 91.6677 131.623C93.1557 131.543 93.7857 131.175 94.1437 130.011C94.9497 127.397 95.4537 127.473 92.2697 127.387C89.2757 127.305 86.2937 127.229 83.3158 126.849C82.0438 126.687 80.7778 126.357 79.3878 126.419L79.3898 126.417ZM146.503 118.899V116.117C145.421 117.469 145.421 118.063 146.503 118.899Z" fill="#09090A"/>
<path d="M59.158 138.011C59.158 136.667 59.72 136.071 61.0079 136.049C62.0899 136.031 62.5979 136.653 62.5919 137.989C62.5859 139.377 62.0599 140.065 61.0019 140.073C59.594 140.083 59.16 139.597 59.158 138.013V138.011ZM61.4239 138.021C61.3399 137.743 61.5959 137.199 60.9879 137.245C60.4719 137.283 60.3159 137.699 60.3239 138.193C60.3299 138.561 60.3679 138.851 60.8359 138.869C61.4659 138.893 61.3979 138.447 61.4219 138.021H61.4239Z" fill="#09090A"/>
<path d="M66.7278 130.085C66.7158 128.789 67.1258 128.129 67.9358 128.141C69.0358 128.157 69.8898 129.069 69.8978 130.237C69.9078 131.533 69.4038 132.217 68.4438 132.211C67.3638 132.203 66.7418 131.431 66.7278 130.085ZM68.7458 130.369C68.7338 130.019 68.7558 129.599 68.3198 129.593C67.9218 129.587 67.9838 130.003 67.9638 130.283C67.9418 130.581 67.9318 130.943 68.3218 130.983C68.7598 131.027 68.6978 130.629 68.7458 130.369Z" fill="#09090A"/>
<path d="M53.5378 120.579C53.5258 119.483 54.1978 118.595 55.0457 118.581C56.1237 118.565 56.9557 119.393 56.9437 120.469C56.9297 121.599 56.2757 122.373 55.3317 122.377C54.1978 122.381 53.5518 121.731 53.5378 120.579ZM55.2737 121.211C55.6837 121.169 55.7417 120.815 55.7637 120.501C55.7877 120.153 55.6397 119.817 55.2337 119.815C54.7977 119.813 54.7597 120.205 54.7257 120.525C54.6877 120.895 54.8317 121.165 55.2717 121.211H55.2737Z" fill="#09090A"/>
<path d="M54.8338 130.507C54.8658 129.183 55.8618 128.095 57.0238 128.115C57.8317 128.129 58.3277 128.603 58.2937 129.331C58.2277 130.741 57.1438 131.961 56.0078 131.907C55.1098 131.865 54.8038 131.327 54.8338 130.507ZM57.0978 129.289C56.5258 129.279 56.2538 129.567 56.0758 129.983C55.9718 130.229 55.8498 130.549 56.0978 130.703C56.3618 130.865 56.5798 130.597 56.7198 130.373C56.9098 130.069 57.0878 129.755 57.0958 129.289H57.0978Z" fill="#09090A"/>
<path d="M60.7878 148.497C60.7878 147.485 61.4718 146.683 62.3538 146.655C63.2938 146.625 64.1738 147.449 64.1818 148.369C64.1938 149.559 63.4118 150.419 62.3418 150.395C61.3338 150.373 60.7858 149.703 60.7878 148.497ZM62.9998 148.475C63.0238 148.101 62.7878 147.885 62.4818 147.861C62.0218 147.825 61.9918 148.209 61.9818 148.549C61.9738 148.871 62.0498 149.181 62.4478 149.165C62.8618 149.149 62.9738 148.831 62.9998 148.475Z" fill="#09090A"/>
<path d="M76.1418 124.433C76.1618 125.425 75.6838 125.935 74.7259 125.945C73.4759 125.957 72.7119 125.315 72.7139 124.251C72.7139 123.377 73.4159 122.481 74.1119 122.461C75.2898 122.425 76.1178 123.231 76.1418 124.433ZM74.4159 123.777C74.1499 123.783 73.9699 123.897 73.9479 124.177C73.9119 124.631 74.2479 124.719 74.5819 124.773C74.8919 124.823 74.9919 124.623 74.9739 124.353C74.9499 124.011 74.7699 123.807 74.4179 123.777H74.4159Z" fill="#09090A"/>
<path d="M63.7778 123.309C63.6318 122.555 63.9058 122.065 64.8438 122.039C66.4118 121.997 67.0278 122.311 67.0558 123.237C67.0918 124.409 66.2618 125.519 65.3218 125.551C64.4358 125.583 63.8118 124.713 63.7778 123.309ZM65.3098 123.237C64.9658 123.203 64.9518 123.435 64.9558 123.677C64.9618 123.985 65.1218 124.191 65.4258 124.179C65.7018 124.169 65.7698 123.913 65.7978 123.683C65.8458 123.313 65.5798 123.265 65.3078 123.237H65.3098Z" fill="#09090A"/>
<path d="M51.208 144.943C51.208 143.801 52.03 142.987 53.152 143.001C53.984 143.011 54.352 143.431 54.354 144.249C54.358 145.565 53.608 146.751 52.726 146.773C51.808 146.797 51.208 146.075 51.208 144.943ZM52.646 145.555C53.022 145.383 53.058 144.995 53.156 144.661C53.208 144.487 53.24 144.195 52.942 144.231C52.562 144.279 52.418 144.613 52.374 144.955C52.344 145.183 52.356 145.429 52.646 145.553V145.555Z" fill="#09090A"/>
<path d="M164.128 57.5936C165.538 54.8636 167.31 52.3716 169.278 50.0316C172.008 46.7896 175.024 43.8396 178.63 41.5536C184.026 38.1316 189.774 37.2356 195.884 39.2316C199.286 40.3436 202.77 41.2436 205.934 42.9976C211.12 45.8716 216.092 49.0396 220.52 53.0336C225.654 57.6656 230.01 62.9016 233.318 68.9796C235.422 72.8436 236.746 76.9396 237.01 81.3836C237.192 84.4376 236.958 87.4216 236.184 90.3576C235.08 94.5396 232.556 97.7715 229.202 100.418C226.254 102.744 222.892 104.214 219.314 105.236C218.22 105.548 217.206 106.044 216.154 106.448C215.94 106.136 215.614 106.174 215.342 106.266C213.638 106.848 211.95 106.564 210.252 106.246C209.128 106.036 209.076 106.058 208.634 106.326C213.124 107.208 215.616 110.034 216.536 114.37C216.644 114.88 216.89 115.034 217.35 115.022C217.682 115.014 218.016 115.022 218.348 115.022C219.116 117.508 219.758 120.018 219.81 122.64C219.558 122.512 219.568 122.278 219.542 122.042C219.384 120.644 219.012 119.31 218.286 118.092C218.1 117.78 217.984 117.328 217.588 117.312C217.084 117.292 217.04 117.836 216.892 118.174C216.492 119.094 215.946 119.92 215.35 120.714C213.642 122.984 211.436 124.704 208.978 126.044C205.114 128.15 201.154 129.916 196.56 129.86C191.714 129.802 187.606 128.202 184.218 124.766C183.684 124.226 183.318 124.172 182.884 124.786C182.342 125.556 181.714 125.5 180.992 125.04C179.394 124.024 177.836 122.968 176.462 121.646C174.242 119.512 172.44 117.066 170.776 114.492C167.838 109.948 166.534 104.964 166.548 99.5915C166.548 99.1195 166.7 98.8316 167.09 98.5196C168.406 97.4636 169.438 96.2175 169.812 94.4715C170.006 93.5715 169.858 92.9916 169.206 92.3556C167.234 90.4316 165.854 88.0896 164.726 85.5996C163.342 82.5496 162.634 79.3396 162.32 76.0036C161.94 71.9716 162.21 67.9896 162.87 64.0216C163.228 61.8716 163.704 59.7396 164.126 57.5996L164.128 57.5936ZM234.942 87.8696C235.076 83.8716 234.132 80.2376 232.908 76.6956C230.698 70.2896 227.06 64.7236 222.416 59.8176C219.42 56.6536 216.158 53.7736 212.714 51.1036C209.746 48.8056 206.748 46.5656 203.032 45.5496C201.868 45.2316 200.726 45.1356 199.528 45.2096C194.306 45.5296 191.3 52.0476 194.916 55.7736C195.45 56.3236 195.754 56.9616 195.856 57.7736C196.138 60.0176 197.318 61.6796 199.274 62.8696C201.752 64.3756 203.854 66.3736 205.962 68.3456C207.834 70.0976 209.474 72.0596 211.08 74.0516C214.218 77.9436 216.502 82.3176 218.378 86.9216C218.694 87.6976 217.92 87.9996 217.496 88.2636C217.056 88.5376 216.986 87.8856 216.864 87.6096C216.446 86.6696 216.14 85.6796 215.702 84.7496C212 76.8936 206.7 70.2916 199.902 64.9116C197.398 62.9296 194.736 61.1716 191.626 60.2096C190.242 59.7816 188.854 59.6816 187.426 59.8276C186.922 59.8796 186.65 60.1256 186.794 60.6076C187.076 61.5616 186.908 62.5276 186.944 63.4856C186.958 63.8656 187.01 64.1876 187.292 64.4816C188.05 65.2716 188.778 66.0936 189.522 66.8976C191.292 68.8076 192.804 70.9176 194.02 73.2076C196.882 78.5936 198.776 84.2656 199.198 90.4196C199.408 93.4636 199.15 96.2976 197.386 98.8576C197.056 99.3356 197.156 99.5175 197.676 99.7035C199.598 100.39 202.794 100.174 204.412 98.2715C205.606 96.8715 206.612 97.0256 207.608 98.4175C209.744 101.406 214.786 102.276 217.39 98.3316C217.732 97.8136 217.998 97.8316 218.488 98.2316C219.638 99.1756 221.04 99.5555 222.492 99.3675C224.012 99.1716 225.408 98.4896 226.726 97.7316C228.034 96.9796 229.186 96.0235 230.772 95.7335C231.87 95.5335 232.716 94.6776 233.412 93.7256C234.746 91.9036 235.068 89.8576 234.938 87.8696H234.942ZM200.896 106.784C199.412 106.97 197.878 107.21 196.614 108.264C196.174 108.632 195.908 108.99 196.614 109.406C197.67 110.028 198.432 110.944 199.018 112.01C199.964 113.732 200.856 115.46 200.956 117.494C201.108 120.542 200.068 123.08 197.884 125.188C197.098 125.946 197.204 126.278 198.254 126.554C200.23 127.072 202.054 126.674 203.79 125.668C204.38 125.326 204.89 124.844 205.654 124.808C208.698 124.666 211.028 123.29 212.284 120.488C213.568 117.624 213.332 114.72 211.532 112.162C208.996 108.558 205.192 107.226 200.896 106.784Z" fill="#49485E"/>
<path d="M164.135 57.5911C163.713 59.7311 163.237 61.8611 162.879 64.0131C162.217 67.9811 161.949 71.9631 162.329 75.9951C162.643 79.3311 163.353 82.5411 164.735 85.5911C165.865 88.0811 167.243 90.4231 169.215 92.3471C169.867 92.9831 170.013 93.5631 169.821 94.4631C169.445 96.2111 168.415 97.4551 167.099 98.5111C166.709 98.8231 166.559 99.1111 166.557 99.5831C166.543 104.955 167.847 109.941 170.785 114.483C172.451 117.057 174.253 119.505 176.471 121.637C177.847 122.959 179.403 124.017 181.001 125.031C181.723 125.489 182.351 125.547 182.893 124.777C183.325 124.161 183.693 124.215 184.227 124.757C187.615 128.193 191.723 129.791 196.569 129.851C201.161 129.907 205.123 128.141 208.987 126.035C211.445 124.695 213.649 122.973 215.359 120.705C215.957 119.911 216.501 119.085 216.901 118.165C217.049 117.827 217.093 117.283 217.597 117.303C217.993 117.319 218.109 117.771 218.295 118.083C219.023 119.303 219.393 120.635 219.551 122.033C219.577 122.269 219.567 122.503 219.819 122.631C220.193 124.385 219.949 126.145 219.717 127.871C219.221 131.557 218.081 135.051 216.151 138.261C213.577 142.541 209.763 145.111 204.917 145.981C198.537 147.123 192.359 146.139 186.409 143.643C185.031 143.065 183.679 142.425 182.317 141.811C181.587 141.481 180.977 141.741 180.363 142.147C178.415 143.437 176.321 144.149 173.971 143.513C173.181 143.299 172.455 143.587 171.699 143.621C168.323 143.771 165.201 142.827 162.147 141.525C158.885 140.135 156.111 138.053 153.601 135.587C153.341 135.331 153.089 135.049 152.785 134.861C152.597 134.745 152.393 134.359 152.119 134.649C151.875 134.907 151.709 135.225 151.901 135.645C152.141 136.171 152.653 136.385 153.027 136.753C156.975 140.661 161.671 143.221 167.085 144.469C167.433 144.549 167.787 144.609 168.143 144.761C167.021 144.839 165.901 144.953 164.777 144.987C163.645 145.023 162.499 145.083 161.383 144.947C159.819 144.757 158.257 144.905 156.697 144.809C151.607 144.497 146.815 143.219 142.481 140.437C139.327 138.413 137.791 135.511 137.531 131.809C137.231 127.535 138.473 123.763 140.987 120.359C141.899 119.125 143.309 118.505 144.383 118.799C144.657 118.873 144.889 118.983 145.051 119.199C145.971 120.437 147.077 121.503 147.605 123.057C148.401 125.399 149.677 127.513 151.435 129.301C151.799 129.671 152.209 129.759 152.573 129.417C152.945 129.067 152.747 128.685 152.423 128.383C150.043 126.167 148.737 123.365 148.085 120.243C147.655 118.185 147.737 116.103 147.871 114.001C148.019 111.675 148.157 109.359 148.759 107.107C149.903 102.831 152.049 99.0651 154.825 95.6451C155.917 94.2991 157.101 93.0471 158.471 91.9691C158.937 91.6031 159.307 91.5291 159.803 91.8871C160.231 92.1971 160.717 92.4311 161.187 92.6831C161.531 92.8691 161.905 92.9371 162.199 92.6271C162.511 92.2991 162.365 91.9131 162.139 91.6211C161.651 90.9911 161.091 90.4191 160.605 89.7891C158.643 87.2511 157.817 84.2651 157.589 81.1611C157.095 74.4071 158.867 68.0731 161.611 61.9851C162.301 60.4531 163.095 58.9411 164.137 57.5911H164.135Z" fill="#35344D"/>
<path d="M93.6915 132.706C94.5795 132.21 95.0455 131.52 95.2535 130.456C96.1455 125.884 97.3215 121.388 99.2975 117.142C99.5915 116.51 99.9395 115.902 100.277 115.292C101.991 112.218 104.369 110.734 108.111 111.174C113.027 111.754 118.005 111.79 122.943 112.222C128.211 112.682 133.425 113.474 138.479 115.178C139.933 115.668 140.365 116.83 141.069 117.864C141.273 118.164 140.139 119.782 139.777 119.798C139.597 119.806 139.569 119.666 139.515 119.554C139.387 119.284 139.267 119.008 139.139 118.738C137.967 116.274 136.105 115.912 133.677 117.192C132.373 117.88 131.499 119.014 130.783 120.284C128.853 123.7 127.837 127.392 127.417 131.268C127.381 131.596 127.401 131.94 127.167 132.216C126.619 132.354 126.071 132.5 125.499 132.36C124.365 132.08 123.215 131.996 122.047 131.998C120.119 132.004 118.197 132.056 116.273 132.192C114.309 132.33 112.391 132.162 110.419 132.922C107.541 134.03 105.805 135.96 105.759 139.104C105.735 140.796 105.847 142.496 105.557 144.176C105.007 147.356 103.687 150.066 100.501 151.3C96.8695 152.708 93.0756 152.83 89.2336 152.34C86.5016 151.992 83.8976 151.056 81.1537 150.73C77.8317 150.336 74.5037 150.052 71.1697 149.81C71.2077 148.55 71.2697 147.286 70.7517 146.088C70.5418 145.602 70.6098 145.232 71.2097 145.182C72.0037 145.116 72.1757 144.604 72.1757 143.94C72.1757 142.712 72.1997 141.482 72.1677 140.254C72.1557 139.756 72.3317 139.482 72.7657 139.238C74.3177 138.364 74.4397 136.48 73.0237 135.404C72.8537 135.274 72.4397 135.418 72.6117 134.97C72.7257 134.672 72.9697 134.608 73.2577 134.626C73.4897 134.642 73.7217 134.654 73.9537 134.666C74.0297 134.766 74.0917 134.94 74.1817 134.958C76.4177 135.374 78.5857 136.132 80.9177 136.046C82.7376 135.978 84.5596 135.858 86.3776 135.842C88.8696 135.82 91.0436 135.002 93.0556 133.624C93.3775 133.404 93.7555 133.202 93.6915 132.706Z" fill="#7B889D"/>
<path d="M71.1757 149.809C74.5097 150.051 77.8376 150.335 81.1596 150.729C83.9036 151.055 86.5076 151.991 89.2395 152.339C93.0815 152.829 96.8775 152.705 100.507 151.299C103.693 150.065 105.013 147.355 105.563 144.175C105.853 142.495 105.741 140.795 105.765 139.103C105.811 135.959 107.547 134.031 110.425 132.921C112.397 132.161 114.317 132.329 116.279 132.191C118.203 132.055 120.125 132.003 122.053 131.997C123.221 131.993 124.371 132.079 125.505 132.359C126.077 132.499 126.625 132.353 127.173 132.215C127.111 134.293 127.213 136.337 128.205 138.243C129.883 141.469 132.639 142.275 135.785 140.433C136.593 139.959 137.307 139.359 138.031 138.773C138.215 138.623 138.381 138.277 138.663 138.641C138.865 138.901 139.059 139.139 138.795 139.523C137.153 141.901 134.165 143.627 131.071 143.347C126.111 142.899 121.169 142.095 116.159 142.231C115.071 142.261 114.519 142.683 114.201 143.673C113.679 145.307 113.617 147.007 113.407 148.683C113.109 151.061 112.901 153.499 111.941 155.681C111.013 157.787 109.569 159.613 107.087 160.215C105.071 160.705 103.017 160.915 100.963 160.991C93.2235 161.275 85.5476 160.651 77.9236 159.283C75.3997 158.829 72.9057 158.279 70.4537 157.545C68.9857 157.107 68.5377 156.079 69.2257 154.695C69.5757 153.991 69.7417 153.215 69.8197 152.503C69.9417 151.375 70.6417 150.661 71.1757 149.811V149.809Z" fill="#5E5D75"/>
<path d="M247.111 91.8313C246.965 95.9573 246.441 100.029 245.325 104.013C245.213 104.075 245.035 104.111 245.001 104.203C244.263 106.163 243.055 107.825 241.655 109.343C240.271 110.845 238.699 112.077 236.663 112.651C235.665 112.931 234.633 112.635 233.417 112.991C234.773 113.541 235.803 114.187 236.235 115.429C237.307 118.509 237.455 121.669 236.815 124.845C235.849 129.645 232.999 133.085 228.791 135.429C227.099 136.371 225.279 136.835 223.277 136.651C221.679 136.505 220.511 135.629 219.275 134.805C219.997 132.423 220.691 130.045 220.969 127.551C221.325 124.343 221.133 121.185 220.429 118.053C220.123 116.695 219.719 115.359 219.361 114.013C221.519 114.755 223.707 114.757 225.927 114.329C230.651 113.417 234.555 111.041 237.953 107.713C240.747 104.979 242.501 101.661 243.251 97.8733C243.751 95.3473 242.855 93.0293 240.217 91.9553C239.179 91.5333 238.147 91.6093 237.095 91.7933C237.843 89.2753 238.237 86.6973 238.317 84.0753C238.437 80.2213 237.785 76.4953 236.447 72.8833C236.321 72.5433 236.219 72.1933 236.107 71.8473C236.303 71.8133 236.499 71.7833 236.693 71.7433C238.495 71.3713 239.417 69.7653 238.901 67.9073C238.215 65.4453 237.049 63.2433 235.719 61.1013C234.143 58.5633 232.227 56.2753 230.231 54.0753C228.747 52.4393 227.345 50.7113 225.591 49.3093C224.855 48.7213 223.833 48.3053 223.545 47.2353C226.181 48.2213 228.543 49.6893 230.747 51.4133C234.557 54.3933 237.825 57.8273 239.915 62.2733C241.109 64.8093 242.051 67.3593 241.359 70.2293C241.299 70.4813 241.349 70.7593 241.347 71.0253C240.485 71.8893 239.883 72.9813 238.927 73.7673C238.695 73.9573 238.783 74.1913 239.015 74.3473C239.291 74.5333 239.575 74.7033 239.857 74.8793C242.003 76.2173 243.621 77.9933 244.563 80.3773C245.929 83.8353 246.715 87.4013 246.743 91.1273C246.745 91.4233 246.693 91.7513 247.111 91.8333V91.8313Z" fill="#49485E"/>
<path d="M219.279 134.805C220.515 135.629 221.681 136.505 223.281 136.651C225.283 136.835 227.103 136.371 228.795 135.429C233.005 133.083 235.853 129.645 236.819 124.845C237.459 121.671 237.311 118.511 236.239 115.429C235.807 114.187 234.775 113.543 233.421 112.991C234.637 112.635 235.669 112.931 236.667 112.651C238.703 112.079 240.275 110.847 241.659 109.343C243.057 107.825 244.267 106.163 245.005 104.203C245.039 104.111 245.219 104.075 245.329 104.013C244.553 107.085 243.657 110.125 241.779 112.729C240.861 114.001 239.891 115.319 238.059 115.475C237.373 115.533 237.353 116.033 237.559 116.675C238.407 119.327 239.453 121.925 239.787 124.723C240.085 127.213 240.089 129.701 239.717 132.175C239.117 136.159 237.689 139.851 235.143 142.979C230.851 148.253 225.555 152.089 218.729 153.361C215.015 154.053 211.273 153.873 207.535 153.277C201.285 152.279 195.183 150.725 189.229 148.603C186.413 147.599 183.593 146.567 181.045 144.953C180.655 144.707 180.057 144.579 180.027 143.969C180.015 143.721 181.657 142.921 181.987 143.021C182.397 143.147 182.801 143.315 183.181 143.515C186.143 145.069 189.239 146.275 192.533 146.875C197.705 147.819 202.871 148.223 207.979 146.431C213.189 144.603 216.573 140.925 218.727 135.969C218.899 135.575 219.097 135.193 219.283 134.805H219.279Z" fill="#35344D"/>
<path d="M237.096 91.7919C238.148 91.6079 239.182 91.5319 240.218 91.9539C242.856 93.0279 243.752 95.3459 243.252 97.8719C242.502 101.66 240.748 104.976 237.954 107.712C234.556 111.038 230.652 113.416 225.928 114.328C223.708 114.756 221.521 114.754 219.363 114.012C218.611 112.168 217.879 110.316 217.099 108.484C216.807 107.8 217.025 107.444 217.643 107.15C218.337 106.818 219.063 106.6 219.797 106.384C224.55 104.986 228.894 102.872 232.378 99.2299C234.45 97.0639 235.998 94.5739 237.094 91.7939L237.096 91.7919Z" fill="#5E5D75"/>
<path d="M141.337 115.865C139.613 113.693 137.007 113.433 134.595 112.853C128.525 111.391 122.335 110.843 116.109 110.599C113.251 110.487 110.399 110.229 107.545 110.031C107.285 110.013 106.949 110.047 106.827 109.781C106.697 109.497 107.001 109.313 107.157 109.111C108.073 107.933 109.299 107.127 110.541 106.349C110.901 106.123 111.311 106.181 111.707 106.161C116.143 105.943 120.535 106.511 124.941 106.861C127.029 107.027 129.125 107.107 131.219 107.175C136.209 107.335 141.183 107.631 146.097 108.609C146.869 108.763 147.213 108.949 147.021 109.861C146.763 111.091 146.713 112.365 146.589 113.623C146.561 113.895 146.551 114.183 146.335 114.357C145.655 114.899 145.433 115.737 144.965 116.413C144.083 116.395 143.265 115.875 142.353 116.075C142.015 116.005 141.677 115.935 141.339 115.865H141.337Z" fill="#7B889D"/>
<path d="M223.55 47.231C223.838 48.301 224.86 48.715 225.596 49.305C227.35 50.709 228.752 52.435 230.236 54.071C232.23 56.271 234.146 58.557 235.724 61.097C237.054 63.239 238.222 65.443 238.906 67.903C239.424 69.761 238.5 71.367 236.698 71.739C236.504 71.779 236.308 71.809 236.112 71.843C234.594 68.589 232.84 65.471 230.746 62.551C226.526 56.669 221.402 51.697 215.551 47.455C215.471 47.397 215.405 47.323 215.331 47.257C215.273 46.303 216.287 46.009 216.561 45.259C219.03 45.415 221.332 46.171 223.548 47.231H223.55Z" fill="#5E5D75"/>
<path d="M136.051 117.811C136.893 117.657 137.447 118.073 137.823 118.783C138.479 120.017 139.025 121.117 138.145 122.643C136.789 124.993 136.273 127.665 136.181 130.393C136.107 132.591 136.555 134.689 137.509 136.665C137.739 137.141 137.693 137.439 137.305 137.781C136.071 138.871 134.753 139.801 133.101 140.141C132.107 140.345 131.403 139.993 130.623 139.297C129.159 137.991 128.557 136.337 128.439 134.539C128.343 133.069 128.603 131.565 128.797 130.087C129.221 126.861 130.209 123.809 131.783 120.953C132.405 119.825 133.177 118.851 134.323 118.211C134.861 117.911 135.413 117.715 136.049 117.811H136.051Z" fill="#35344D"/>
<path d="M126.161 145.113C125.587 147.931 124.487 150.527 121.867 152.057C119.651 153.351 117.215 154.183 114.651 154.565C113.621 154.719 113.519 154.637 113.771 153.651C114.421 151.099 114.641 148.481 114.955 145.879C114.979 145.681 114.993 145.481 115.033 145.287C115.387 143.593 115.441 143.603 117.167 143.541C119.837 143.445 122.473 143.779 125.117 144.047C125.699 144.105 126.409 144.121 126.161 145.113Z" fill="#5E5D75"/>
<path d="M79.3896 126.417C80.7796 126.355 82.0456 126.685 83.3176 126.847C86.2936 127.227 89.2776 127.303 92.2715 127.385C95.4555 127.471 94.9495 127.395 94.1455 130.009C93.7875 131.173 93.1595 131.541 91.6695 131.621C89.6615 131.729 87.6956 131.313 85.7136 131.139C83.3016 130.927 80.9136 130.415 78.4796 130.431C77.8557 130.435 77.7057 130.137 77.8097 129.639C77.9137 129.141 77.3917 128.365 78.4196 128.247C79.9396 128.073 80.0116 127.939 79.3916 126.415L79.3896 126.417Z" fill="#5E5D75"/>
<path d="M93.6919 132.707C93.7539 133.203 93.3779 133.405 93.0559 133.625C91.044 135.003 88.87 135.821 86.378 135.843C84.56 135.859 82.738 135.979 80.918 136.047C78.5861 136.135 76.4161 135.377 74.1821 134.959C74.0901 134.943 74.0281 134.769 73.9541 134.667C74.9641 134.295 74.9661 133.429 74.9041 132.593C74.8441 131.801 75.1261 131.599 75.9081 131.583C79.0761 131.517 82.196 131.927 85.326 132.317C87.036 132.531 88.75 132.691 90.452 132.973C91.5319 133.153 92.6379 133.099 93.6939 132.705L93.6919 132.707Z" fill="#5E5D75"/>
<path d="M247.116 91.8291C246.7 91.7471 246.75 91.4191 246.748 91.1231C246.722 87.3971 245.934 83.8311 244.568 80.3731C243.626 77.9911 242.01 76.2131 239.862 74.8751C239.58 74.6991 239.294 74.5291 239.02 74.3431C238.79 74.1871 238.7 73.9531 238.932 73.7631C239.886 72.9771 240.49 71.8851 241.352 71.0211C245.018 77.4731 247.61 84.2231 247.114 91.8291H247.116Z" fill="#35344D"/>
<path d="M218.355 115.015C218.023 115.015 217.689 115.009 217.357 115.015C216.899 115.025 216.651 114.871 216.543 114.363C215.623 110.029 213.133 107.203 208.641 106.319C209.083 106.051 209.135 106.029 210.259 106.239C211.957 106.557 213.647 106.843 215.349 106.259C215.621 106.165 215.947 106.129 216.161 106.441C215.373 107.239 215.543 108.083 215.949 109.007C216.819 110.981 217.695 112.955 218.353 115.013L218.355 115.015Z" fill="#35344D"/>
<path d="M216.563 45.2591C216.289 46.0091 215.275 46.3031 215.333 47.2571C214.257 46.5631 213.183 45.8691 211.905 45.0431C213.629 45.0011 215.103 44.9331 216.563 45.2591Z" fill="#49485E"/>
<path d="M142.351 116.075C143.263 115.875 144.081 116.395 144.963 116.413C144.947 117.093 144.831 117.585 143.923 117.299C143.585 117.193 143.155 117.389 142.765 117.445C142.901 116.905 142.503 116.527 142.351 116.075Z" fill="#49485E"/>
<path d="M146.503 118.899C145.421 118.063 145.421 117.471 146.503 116.117V118.899Z" fill="#35344D"/>
<path d="M142.351 116.075C142.505 116.527 142.901 116.905 142.765 117.445C142.399 117.777 142.235 117.425 142.095 117.209C141.817 116.779 141.587 116.315 141.337 115.865C141.675 115.935 142.013 116.005 142.351 116.075Z" fill="#35344D"/>
<path d="M61.4237 138.021C61.3997 138.447 61.4677 138.893 60.8377 138.869C60.3697 138.851 60.3317 138.561 60.3257 138.193C60.3177 137.701 60.4737 137.285 60.9897 137.245C61.5957 137.199 61.3417 137.745 61.4257 138.021H61.4237Z" fill="#7B889D"/>
<path d="M68.7457 130.369C68.6977 130.629 68.7597 131.027 68.3217 130.983C67.9338 130.943 67.9438 130.581 67.9638 130.283C67.9838 130.005 67.9218 129.587 68.3197 129.593C68.7557 129.599 68.7337 130.021 68.7457 130.369Z" fill="#7B889D"/>
<path d="M55.2684 121.209C54.8284 121.163 54.6824 120.893 54.7224 120.523C54.7564 120.203 54.7924 119.811 55.2304 119.813C55.6344 119.815 55.7844 120.151 55.7604 120.499C55.7384 120.811 55.6824 121.165 55.2704 121.209H55.2684Z" fill="#7B889D"/>
<path d="M57.0979 129.289C57.0879 129.755 56.9099 130.069 56.7219 130.373C56.5819 130.597 56.3639 130.865 56.0999 130.703C55.8519 130.549 55.9739 130.229 56.0779 129.983C56.2539 129.567 56.5279 129.279 57.0999 129.289H57.0979Z" fill="#5E5D75"/>
<path d="M62.9998 148.475C62.9758 148.833 62.8618 149.151 62.4478 149.165C62.0478 149.181 61.9738 148.871 61.9818 148.549C61.9898 148.209 62.0218 147.825 62.4818 147.861C62.7878 147.885 63.0258 148.101 62.9998 148.475Z" fill="#7B889D"/>
<path d="M74.4219 123.779C74.7739 123.811 74.9539 124.015 74.9779 124.357C74.9959 124.627 74.8959 124.827 74.5859 124.777C74.2539 124.723 73.9159 124.635 73.9519 124.181C73.9739 123.901 74.1539 123.785 74.4219 123.781V123.779Z" fill="#49485E"/>
<path d="M65.3029 123.235C65.5749 123.263 65.8409 123.311 65.7929 123.681C65.7629 123.911 65.6949 124.167 65.4209 124.177C65.1149 124.189 64.9549 123.983 64.9509 123.675C64.9469 123.433 64.9609 123.201 65.3049 123.235H65.3029Z" fill="#7B889D"/>
<path d="M52.646 145.555C52.358 145.431 52.344 145.183 52.374 144.957C52.418 144.615 52.564 144.281 52.942 144.233C53.24 144.195 53.206 144.489 53.156 144.663C53.058 144.997 53.022 145.385 52.646 145.557V145.555Z" fill="#7B889D"/>
<path d="M234.948 87.8674C235.076 89.8554 234.756 91.9014 233.422 93.7234C232.726 94.6754 231.878 95.5314 230.782 95.7314C229.196 96.0214 228.044 96.9774 226.736 97.7294C225.418 98.4854 224.02 99.1674 222.502 99.3654C221.05 99.5534 219.65 99.1734 218.498 98.2294C218.01 97.8274 217.744 97.8094 217.4 98.3294C214.797 102.273 209.755 101.403 207.619 98.4154C206.623 97.0234 205.617 96.8674 204.423 98.2694C202.803 100.169 199.609 100.385 197.687 99.7014C197.167 99.5154 197.067 99.3334 197.397 98.8554C199.161 96.2954 199.419 93.4614 199.209 90.4174C198.787 84.2634 196.891 78.5934 194.031 73.2054C192.815 70.9154 191.303 68.8074 189.533 66.8954C188.789 66.0914 188.061 65.2714 187.303 64.4794C187.021 64.1854 186.969 63.8634 186.955 63.4834C186.919 62.5254 187.087 61.5594 186.805 60.6054C186.663 60.1234 186.933 59.8754 187.437 59.8254C188.863 59.6814 190.253 59.7794 191.637 60.2074C194.745 61.1694 197.409 62.9274 199.913 64.9094C206.711 70.2914 212.011 76.8934 215.713 84.7474C216.151 85.6774 216.457 86.6674 216.875 87.6074C216.999 87.8854 217.066 88.5354 217.506 88.2614C217.93 87.9974 218.704 87.6954 218.388 86.9194C216.512 82.3154 214.229 77.9414 211.091 74.0494C209.485 72.0574 207.845 70.0954 205.973 68.3434C203.863 66.3714 201.763 64.3734 199.285 62.8674C197.327 61.6774 196.149 60.0154 195.867 57.7714C195.765 56.9594 195.461 56.3214 194.927 55.7714C191.311 52.0454 194.317 45.5274 199.539 45.2074C200.737 45.1334 201.881 45.2294 203.043 45.5474C206.759 46.5634 209.757 48.8014 212.725 51.1014C216.169 53.7694 219.43 56.6494 222.426 59.8154C227.07 64.7214 230.708 70.2874 232.918 76.6934C234.14 80.2354 235.086 83.8674 234.952 87.8674H234.948Z" fill="#5E5D75"/>
<path d="M200.898 106.781C205.196 107.223 208.998 108.555 211.534 112.159C213.334 114.717 213.57 117.619 212.286 120.485C211.03 123.287 208.7 124.661 205.656 124.805C204.892 124.841 204.384 125.323 203.792 125.665C202.056 126.671 200.232 127.069 198.256 126.551C197.204 126.275 197.1 125.943 197.886 125.185C200.07 123.079 201.11 120.539 200.958 117.491C200.856 115.457 199.966 113.729 199.02 112.007C198.434 110.941 197.672 110.023 196.616 109.403C195.91 108.987 196.174 108.631 196.616 108.261C197.878 107.207 199.414 106.967 200.898 106.781Z" fill="#5E5D75"/>
</g>
<defs>
<clipPath id="clip0_2624_68792">
<rect width="197.108" height="125.214" fill="white" transform="translate(51.2029 37.0111)"/>
</clipPath>
</defs>
</svg>
