<svg width="300" height="200" viewBox="0 0 300 200" fill="none" xmlns="http://www.w3.org/2000/svg">
<g clip-path="url(#clip0_2624_68449)">
<path d="M230.445 88.4028C230.473 93.6188 229.621 98.7428 228.843 103.875C228.745 104.525 228.385 105.087 227.705 105.257C220.497 107.045 213.642 109.917 206.56 112.097C196.688 115.135 186.604 117.243 176.458 119.063C159.994 122.019 143.548 125.067 127.128 128.257C116.596 130.303 106.182 132.855 95.7826 135.457C94.4786 135.783 93.3286 135.707 92.0966 135.443C85.9247 134.117 80.4487 131.193 75.0748 128.037C74.5908 127.753 74.2148 127.317 73.6688 127.111C73.3848 127.003 73.2668 126.707 73.1928 126.395C71.7308 120.247 70.5488 114.049 69.7308 107.783C69.2548 104.145 69.0148 100.497 69.3868 96.8308C69.5648 95.0708 70.2708 93.8488 72.0468 93.0748C82.1327 88.6848 92.5586 85.3288 103.199 82.5988C118.684 78.6248 134.168 74.6388 149.798 71.2508C159.398 69.1688 169.086 67.6588 178.842 66.5568C185.018 65.8588 191.138 64.7848 197.256 63.7108C198.628 63.4708 200.028 63.3868 201.412 63.2188C201.732 63.1808 201.996 63.3168 202.278 63.4108C209.154 65.7228 215.788 68.6308 222.411 71.5708C223.747 72.1628 225.111 72.6968 226.487 73.1888C227.753 73.6408 228.459 74.5248 228.819 75.7788C230.001 79.9068 230.411 84.1328 230.447 88.4048L230.445 88.4028ZM114.556 97.2588C111.83 97.9508 109.102 98.6428 106.376 99.3348C104.808 99.7288 103.235 100.101 101.673 100.521C98.6746 101.329 95.6706 102.125 92.8766 103.535C92.2906 103.831 91.9006 104.207 91.9966 104.915C91.6386 108.667 91.7806 112.429 91.7286 116.189C91.6866 119.325 92.0226 122.429 92.5266 125.519C92.9606 128.177 93.6086 130.785 94.2646 133.395C94.5886 134.683 94.5826 134.777 95.8806 134.459C99.9105 133.465 103.939 132.455 107.966 131.453C113.102 130.291 118.238 129.129 123.376 127.967C124.576 127.747 125.78 127.539 126.976 127.303C129.302 126.843 131.622 126.367 133.946 125.897C134.904 125.845 135.828 125.613 136.75 125.375C142.694 124.255 148.64 123.135 154.584 122.013C156.962 121.567 159.34 121.121 161.718 120.675C161.818 120.679 161.92 120.699 162.016 120.681C170.352 119.203 178.698 117.781 186.982 116.027C190.488 115.285 194.016 114.639 197.448 113.585C199.76 113.091 202.032 112.449 204.272 111.695C204.624 111.613 204.984 111.551 205.33 111.447C211.386 109.619 217.318 107.417 223.315 105.417C224.145 105.187 224.973 104.959 225.803 104.729C227.219 104.337 227.991 103.41 228.117 101.949C229.297 95.1888 229.981 88.4048 229.029 81.5508C228.745 79.5128 228.387 77.4888 227.707 75.5348C227.479 74.8788 227.209 74.5348 226.357 74.6788C221.875 75.4408 217.464 76.5208 213.02 77.4508C209.636 78.1568 206.252 78.8608 202.87 79.5668C197.346 80.5048 191.822 81.4428 186.296 82.3808C182.696 82.9768 179.096 83.5708 175.496 84.1668C170.096 85.0828 164.688 85.9448 159.302 86.9268C150.874 88.4628 142.468 90.1028 134.148 92.1608C131.614 92.8068 129.048 93.3228 126.552 94.1128C123.316 94.7688 120.166 95.7668 116.968 96.5668C116.164 96.7968 115.36 97.0268 114.554 97.2568L114.556 97.2588ZM86.5927 88.5968C84.2627 89.1728 82.0587 90.1008 79.8327 90.9728C76.9867 92.0528 74.1528 93.1568 71.2788 94.5608C72.4928 95.3508 73.5888 96.0028 74.8048 96.4528C78.5407 97.8308 82.2747 99.2148 86.0047 100.609C87.7446 101.259 89.5626 101.739 91.1646 102.695C91.6626 102.991 91.9806 102.983 92.4086 102.731C94.1646 101.695 96.0926 101.079 98.0326 100.513C100.607 99.7628 103.197 99.0748 105.778 98.3588C108.13 97.9608 110.412 97.2748 112.7 96.6228C113.594 96.4028 114.512 96.2588 115.356 95.8608C118.552 95.2628 121.656 94.3028 124.786 93.4528C127.37 92.8048 129.954 92.1588 132.54 91.5108C132.606 91.5108 132.676 91.5268 132.738 91.5108C141.212 89.3688 149.784 87.6988 158.374 86.1068C162.224 85.3928 166.08 84.7128 169.934 84.0168C175.052 83.1848 180.17 82.3528 185.288 81.5208C186.498 81.3348 187.71 81.1628 188.92 80.9628C193.658 80.1848 198.412 79.4868 203.102 78.4388C205.774 77.9648 208.438 77.4468 211.074 76.7908C212.148 76.5808 213.226 76.3868 214.298 76.1608C217.917 75.3988 221.537 74.6268 225.443 73.7968C223.967 73.2088 222.733 72.7588 221.533 72.2328C215.564 69.6188 209.636 66.9148 203.444 64.8388C201.968 64.3448 200.538 64.1608 199.042 64.4048C193.858 65.2488 188.676 66.1188 183.494 66.9788C179.96 67.4108 176.428 67.8448 172.894 68.2768C172.532 68.3028 172.164 68.3008 171.808 68.3568C167.998 68.9428 164.18 69.4968 160.38 70.1428C155.926 70.9008 151.494 71.7828 147.108 72.8788C142.95 73.6708 138.836 74.6528 134.74 75.7108C134.642 75.7108 134.538 75.6928 134.444 75.7168C126.85 77.6148 119.252 79.4908 111.668 81.4248C108.298 82.2848 104.898 83.0288 101.585 84.0948C99.8645 84.3988 98.2046 84.9348 96.5306 85.4228C93.7166 86.1388 90.9466 87.0028 88.1986 87.9368C87.6406 88.0988 87.0927 88.2808 86.5947 88.5908L86.5927 88.5968ZM70.1948 100.557C70.1488 102.577 70.3328 104.493 70.5628 106.409C71.3368 112.839 72.4388 119.209 74.0308 125.491C74.1468 125.947 74.3448 126.305 74.7548 126.621C76.4807 127.955 78.5087 128.751 80.3587 129.861C84.2167 132.175 88.4286 133.567 92.7766 134.609C93.3286 134.741 93.6146 134.747 93.3906 134.041C93.1806 133.379 93.0566 132.689 92.8806 132.015C91.4086 126.395 90.6166 120.673 90.7086 114.871C90.7626 111.451 90.6286 108.019 91.0126 104.609C91.0886 103.937 90.9366 103.541 90.2146 103.275C86.3507 101.849 82.5107 100.361 78.6627 98.8928C76.2807 97.9848 73.7788 97.3688 71.6008 95.9588C70.7128 95.3828 70.5568 95.4788 70.3988 96.5708C70.2028 97.9228 70.1548 99.2848 70.1948 100.561V100.557Z" fill="#101112"/>
<path d="M101.583 84.1009C104.896 83.0349 108.298 82.2909 111.666 81.4309C119.25 79.4949 126.85 77.6189 134.442 75.7229C134.536 75.6989 134.638 75.7189 134.738 75.7169C134.814 76.3529 135.402 76.2029 135.754 76.2989C139.48 77.3229 143.244 78.1849 147.018 79.0149C154.33 80.6249 161.676 82.0589 169.016 83.5329C169.384 83.6069 169.736 83.6569 169.938 84.0189C166.084 84.7149 162.228 85.3949 158.378 86.1089C149.79 87.7009 141.216 89.3709 132.742 91.5129C132.68 91.5289 132.61 91.5129 132.544 91.5129C132.518 91.1289 132.21 91.0229 131.926 90.9609C127.896 90.0769 123.864 89.1989 119.83 88.3329C113.892 87.0609 107.952 85.7969 102.013 84.5389C101.739 84.4809 101.593 84.3769 101.583 84.0989V84.1009Z" fill="#A7AEB9"/>
<path d="M70.1949 100.557C70.1549 99.2808 70.2009 97.9208 70.3989 96.5668C70.5569 95.4748 70.7129 95.3788 71.6008 95.9548C73.7768 97.3668 76.2808 97.9808 78.6628 98.8888C82.5107 100.357 86.3527 101.845 90.2147 103.271C90.9367 103.537 91.0887 103.933 91.0127 104.605C90.6307 108.017 90.7647 111.449 90.7087 114.867C90.6167 120.669 91.4087 126.391 92.8807 132.011C93.0567 132.685 93.1807 133.375 93.3907 134.037C93.6147 134.741 93.3287 134.737 92.7767 134.605C88.4287 133.563 84.2167 132.171 80.3588 129.857C78.5088 128.747 76.4808 127.951 74.7548 126.617C74.3468 126.301 74.1468 125.943 74.0308 125.487C72.4388 119.205 71.3368 112.835 70.5629 106.405C70.3329 104.489 70.1489 102.575 70.1949 100.553V100.557ZM77.0448 108.863C77.2328 108.929 77.4168 109.009 77.6088 109.055C79.0668 109.405 79.3728 109.155 79.4128 107.669C79.4508 106.269 79.7448 104.901 79.9768 103.527C80.0108 103.323 80.0528 103.147 80.2948 103.085C80.9028 102.931 82.2248 103.567 82.5287 104.157C83.3147 105.681 83.3587 107.361 83.5247 109.007C83.5807 109.573 83.7767 109.955 84.2387 110.217C85.4867 110.927 86.8427 111.387 88.1847 111.869C88.5087 111.985 88.9887 112.053 89.0987 111.567C89.1927 111.153 88.7887 111.061 88.4687 110.941C87.4127 110.543 86.3627 110.127 85.3127 109.715C84.8087 109.517 84.5667 109.185 84.4927 108.599C84.2647 106.793 84.1327 104.957 83.1987 103.311C82.9347 102.847 82.6487 102.475 82.1188 102.369C81.5688 102.259 81.0108 102.185 80.4548 102.099C79.5948 101.965 79.1348 102.331 79.0248 103.197C78.8948 104.217 78.7308 105.235 78.5748 106.251C78.4288 107.199 78.6768 108.457 77.0348 108.269C77.0108 108.267 76.9828 108.307 76.9568 108.327C76.3048 108.399 75.4888 107.671 75.1248 108.143C74.7808 108.587 75.0128 109.477 74.9948 110.171C74.9888 110.403 74.9668 110.639 74.9988 110.867C75.0688 111.369 74.7728 111.937 75.2588 112.365C75.0428 113.167 75.6268 113.331 76.1788 113.495C78.4368 114.169 80.7728 114.553 83.0067 115.319C82.6367 116.151 81.9148 115.929 81.3048 115.811C79.4328 115.451 77.5728 115.035 75.7128 114.623C75.3748 114.549 74.9388 114.399 75.0568 114.939C75.2168 115.679 75.0468 116.467 75.4168 117.165C75.4428 117.571 75.5908 117.857 76.0588 117.879C77.8808 117.963 79.6188 118.521 81.4028 118.821C81.9028 118.905 82.4668 119.113 82.8127 118.487C83.3367 118.651 83.4647 119.025 83.2787 119.493C83.0967 119.951 82.6987 120.119 82.2268 120.051C81.6408 119.967 81.0588 119.849 80.4748 119.747C79.2408 119.531 78.0088 119.301 76.7708 119.109C76.2788 119.033 75.6748 118.965 75.8048 119.769C75.8908 120.305 76.0488 120.855 76.3008 121.333C76.4868 121.689 76.9828 121.441 77.3188 121.567C77.4728 121.625 77.6388 121.651 77.7988 121.691C77.8748 122.443 78.4928 122.535 79.0348 122.619C79.5008 122.691 79.7708 122.829 79.7928 123.333C79.8548 124.797 80.1968 126.223 80.4008 127.667C80.4728 128.173 80.6448 128.443 81.1468 128.559C82.0828 128.775 83.0167 129.015 83.9387 129.285C84.6167 129.483 84.9047 129.267 85.0287 128.575C85.3027 127.041 85.6547 125.521 85.9527 123.989C86.0207 123.641 86.0927 123.431 86.5187 123.543C87.5127 123.803 88.5627 123.787 89.5367 124.157C89.8867 124.291 90.3127 124.427 90.4907 123.983C90.6887 123.487 90.2047 123.403 89.8767 123.271C88.7847 122.831 87.6027 122.821 86.4707 122.571C85.7147 122.403 85.2627 122.659 85.1027 123.451C84.8267 124.817 84.5127 126.175 84.2167 127.535C84.1687 127.755 84.1967 128.003 83.9307 128.127C83.2487 128.445 81.4068 127.603 81.2788 126.863C81.0168 125.361 80.8028 123.851 80.5808 122.341C80.5288 121.987 80.3908 121.529 80.0548 121.631C79.3028 121.859 78.6128 121.299 77.8948 121.579C77.8288 120.841 78.2868 120.571 78.9068 120.517C79.4348 120.471 79.9708 120.513 80.5028 120.505C81.3708 120.491 81.8168 120.903 82.0168 121.759C82.3088 123.015 82.1148 124.275 82.1928 125.529C82.2208 125.979 82.1288 126.593 82.7387 126.649C83.4287 126.715 83.3127 126.031 83.3687 125.625C83.4847 124.773 83.5207 123.909 83.5767 123.049C83.6387 122.071 84.1747 121.545 85.1467 121.503C85.5207 121.487 85.9147 121.585 86.2907 121.405C85.9727 120.501 85.7447 119.669 86.7087 119.075C86.8867 119.343 86.8167 119.649 86.8507 119.941C86.9067 120.395 87.1447 120.665 87.6227 120.673C88.1047 120.681 88.3527 120.431 88.3887 119.959C88.4067 119.729 88.4267 119.501 88.4447 119.271C88.7027 119.341 89.0467 119.789 89.0227 119.015C88.9667 117.325 88.9947 115.631 89.0127 113.939C89.0187 113.447 88.8867 113.259 88.3607 113.063C86.6227 112.415 84.7687 112.149 83.0687 111.373C82.4067 111.071 82.0948 110.679 81.9868 109.991C81.7908 108.759 81.5368 107.537 81.2508 106.023C81.1468 107.253 81.0588 108.199 80.9888 109.145C80.9028 110.299 80.5388 110.577 79.4328 110.315C78.8868 110.185 78.3448 110.017 77.7908 109.949C77.0888 109.863 76.8708 109.517 77.0428 108.865L77.0448 108.863ZM71.2248 100.105C71.2248 100.537 71.2248 100.969 71.2248 101.401C71.2302 103.49 72.1708 104.969 74.0468 105.839C74.2868 105.949 74.5368 106.047 74.7908 106.115C76.8468 106.665 78.1588 105.659 78.2188 103.517C78.2328 103.057 78.3308 102.599 78.3888 102.141C78.5688 100.709 78.2868 100.257 76.9428 99.7188C75.5568 99.1648 74.1888 98.5668 72.7968 98.0268C71.1688 97.3948 71.2188 97.0368 71.2228 99.1088C71.2228 99.4408 71.2228 99.7728 71.2228 100.107L71.2248 100.105ZM72.5928 111.671C72.6368 112.903 72.5288 114.461 72.8088 116.013C73.0548 117.377 73.7968 118.643 73.6468 120.081C73.5488 121.017 74.1088 121.381 74.8728 121.617C75.1828 121.713 75.4908 121.761 75.6528 121.429C75.8268 121.073 75.5628 120.841 75.2788 120.739C74.6948 120.527 74.5828 120.105 74.6128 119.557C74.6288 119.263 74.6408 118.935 74.5348 118.671C73.2788 115.515 73.5848 112.207 73.5568 108.931C73.5528 108.483 73.5328 108.117 74.1588 108.015C74.5968 107.943 74.7508 107.499 74.3008 107.227C73.9028 106.987 73.3888 107.039 72.9488 107.207C72.5708 107.351 72.5928 107.729 72.5908 108.063C72.5888 109.159 72.5908 110.255 72.5908 111.675L72.5928 111.671ZM89.1667 106.365C88.9967 105.957 89.5467 105.147 88.8427 104.959C87.8907 104.705 87.0967 104.167 86.2247 103.787C85.3187 103.393 85.3327 103.853 85.4147 104.447C85.5527 105.427 85.8487 106.383 85.8287 107.387C85.8227 107.673 86.0027 107.895 86.2567 108.013C87.0947 108.403 87.9887 108.617 88.8887 108.799C89.0707 108.027 89.2027 107.251 89.1667 106.363V106.365Z" fill="#667183"/>
<path d="M203.104 78.4428C198.414 79.4908 193.66 80.1888 188.922 80.9668C187.714 81.1648 186.502 81.3388 185.29 81.5248C185.196 80.9488 184.652 81.0848 184.328 81.0088C182.042 80.4708 179.738 80.0168 177.448 79.4968C168.196 77.3928 158.854 75.7268 149.584 73.7068C148.746 73.5248 147.762 73.6548 147.104 72.8848C151.49 71.7888 155.92 70.9048 160.376 70.1488C164.176 69.5028 167.994 68.9488 171.804 68.3628C172.162 68.3068 172.528 68.3088 172.89 68.2828C172.89 68.6108 173.098 68.7188 173.376 68.8128C173.972 69.0148 174.548 69.2728 175.144 69.4708C184.156 72.4628 193.292 75.0568 202.344 77.9188C202.674 78.0228 202.992 78.0608 203.102 78.4428H203.104Z" fill="#A7AEB9"/>
<path d="M183.492 66.9828C188.674 66.1228 193.856 65.2548 199.04 64.4088C200.538 64.1648 201.966 64.3468 203.442 64.8428C209.636 66.9188 215.563 69.6228 221.531 72.2368C222.731 72.7628 223.965 73.2128 225.441 73.8008C221.535 74.6308 217.917 75.4028 214.295 76.1648C213.223 76.3908 212.147 76.5848 211.071 76.7948C211.081 76.3808 210.74 76.3488 210.47 76.2528C209.442 75.8828 208.416 75.5008 207.378 75.1568C199.73 72.6228 192.08 70.1008 184.434 67.5608C184.09 67.4468 183.6 67.5068 183.49 66.9828H183.492Z" fill="#A6ADB8"/>
<path d="M147.106 72.8849C147.764 73.6549 148.748 73.5229 149.586 73.7069C158.854 75.7269 168.198 77.3929 177.45 79.4969C179.74 80.0169 182.044 80.4709 184.33 81.0089C184.652 81.0849 185.196 80.9469 185.292 81.5249C180.174 82.3569 175.056 83.1889 169.938 84.0209C169.734 83.6589 169.384 83.6089 169.016 83.5349C161.676 82.0609 154.33 80.6269 147.018 79.0169C143.244 78.1849 139.48 77.3249 135.754 76.3009C135.404 76.2049 134.816 76.3549 134.738 75.7189C138.834 74.6609 142.948 73.6789 147.106 72.8869V72.8849Z" fill="#B2BCCA"/>
<path d="M105.783 98.3588C103.199 99.0728 100.609 99.7628 98.0367 100.513C96.0967 101.077 94.1688 101.693 92.4128 102.731C91.9848 102.983 91.6668 102.991 91.1688 102.695C89.5668 101.741 87.7488 101.259 86.0088 100.609C82.2789 99.2168 78.5449 97.8308 74.8089 96.4528C73.5929 96.0048 72.4969 95.3528 71.283 94.5608C74.1569 93.1568 76.9909 92.0528 79.8369 90.9728C79.8909 91.0088 79.9409 91.0648 80.0009 91.0788C87.3468 92.8468 94.6468 94.7828 101.869 97.0068C103.185 97.4128 104.557 97.6848 105.785 98.3588H105.783Z" fill="#677284"/>
<path d="M134.15 92.1629C142.468 90.1029 150.876 88.4629 159.304 86.9289C164.692 85.9469 170.1 85.0849 175.498 84.1689C175.49 84.6669 175.75 85.0329 176.054 85.4009C176.574 86.0329 177.204 86.6029 177.364 87.4669C175.016 87.8989 172.664 88.3189 170.318 88.7649C163.314 90.0929 156.306 91.3929 149.426 93.2929C145.456 94.3889 141.4 95.0729 137.348 95.7729C137.342 95.3549 137.036 95.1689 136.758 94.9249C135.804 94.0869 134.772 93.3189 134.152 92.1649L134.15 92.1629Z" fill="#7A879B"/>
<path d="M197.452 113.585C194.018 114.639 190.49 115.285 186.984 116.027C178.7 117.781 170.354 119.205 162.018 120.681C161.922 120.699 161.82 120.677 161.72 120.675C161.712 120.293 161.364 120.135 161.196 119.861C160.518 118.755 159.286 118.119 158.722 116.921C159.078 116.841 159.434 116.759 159.792 116.679C166.476 115.183 173.258 114.209 179.968 112.863C184.82 111.889 189.644 110.779 194.48 109.729C195.34 111.115 196.228 112.479 197.452 113.587V113.585Z" fill="#7A879B"/>
<path d="M107.967 131.451C103.939 132.455 99.9106 133.463 95.8807 134.457C94.5847 134.777 94.5887 134.683 94.2647 133.393C93.6107 130.783 92.9607 128.175 92.5267 125.517C92.0207 122.427 91.6847 119.323 91.7287 116.187C91.7787 112.429 91.6387 108.665 91.9967 104.913C92.4207 104.931 92.6047 105.241 92.8127 105.549C93.7547 106.939 94.7147 108.317 95.6607 109.703C95.8447 109.973 95.9607 110.309 96.3707 110.305C96.4507 116.653 96.3527 123.005 96.9887 129.335C97.1107 130.555 97.3567 130.809 98.5167 130.523C101.257 129.853 103.983 129.117 106.769 128.647C107.053 129.629 107.895 130.373 107.967 131.447V131.451Z" fill="#7A879B"/>
<path d="M183.492 66.9829C183.602 67.5069 184.092 67.4469 184.436 67.5609C192.082 70.1009 199.732 72.6229 207.38 75.1569C208.418 75.5009 209.444 75.8829 210.472 76.2529C210.742 76.3509 211.086 76.3809 211.074 76.7949C208.44 77.4509 205.776 77.9689 203.102 78.4429C202.99 78.0609 202.674 78.0229 202.344 77.9189C193.292 75.0569 184.156 72.4649 175.144 69.4709C174.548 69.2729 173.972 69.0129 173.376 68.8129C173.098 68.7189 172.888 68.6109 172.89 68.2829C176.424 67.8509 179.956 67.4169 183.49 66.9849L183.492 66.9829Z" fill="#B2BCCA"/>
<path d="M124.79 93.4548C121.658 94.3048 118.556 95.2648 115.36 95.8608C115.268 95.4228 114.854 95.4508 114.568 95.3808C105.955 93.2848 97.5046 90.5908 88.9307 88.3568C88.6427 88.2808 88.3247 88.2928 88.1987 87.9428C90.9467 87.0088 93.7167 86.1448 96.5307 85.4288C96.9107 86.1368 97.6786 86.1588 98.3066 86.3928C101.985 87.7548 105.821 88.5388 109.621 89.4528C113.964 90.4988 118.316 91.5208 122.648 92.6148C123.378 92.7988 124.28 92.6728 124.794 93.4548H124.79Z" fill="#A6ADB8"/>
<path d="M213.022 77.4527C217.468 76.5247 221.879 75.4427 226.361 74.6807C227.213 74.5367 227.481 74.8787 227.711 75.5367C228.389 77.4907 228.749 79.5127 229.033 81.5527C229.985 88.4067 229.301 95.1907 228.121 101.951C227.605 101.887 227.493 101.413 227.233 101.087C226.661 100.371 226.357 99.4507 225.563 98.9047C226.035 95.7447 226.341 92.5727 226.175 89.3727C226.017 86.3167 225.873 83.2547 224.857 80.3267C224.343 78.8467 224.327 78.9907 222.779 78.9647C219.826 78.9167 216.962 79.5027 214.068 79.9107C213.87 79.0287 213.012 78.4247 213.022 77.4547V77.4527Z" fill="#7A879B"/>
<path d="M124.79 93.4548C124.276 92.6728 123.374 92.7988 122.644 92.6148C118.312 91.5208 113.96 90.4988 109.616 89.4528C105.817 88.5388 101.981 87.7528 98.3026 86.3928C97.6746 86.1608 96.9066 86.1388 96.5266 85.4288C98.1986 84.9408 99.8586 84.4068 101.579 84.1008C101.589 84.3788 101.735 84.4828 102.009 84.5408C107.951 85.7968 113.888 87.0608 119.826 88.3348C123.86 89.1988 127.892 90.0788 131.922 90.9628C132.206 91.0248 132.514 91.1308 132.54 91.5148C129.956 92.1628 127.372 92.8088 124.786 93.4568L124.79 93.4548Z" fill="#B2BCCA"/>
<path d="M105.782 98.3588C104.554 97.6848 103.183 97.4128 101.867 97.0068C94.6446 94.7848 87.3446 92.8468 79.9987 91.0788C79.9387 91.0648 79.8887 91.0088 79.8347 90.9728C82.0587 90.1008 84.2647 89.1728 86.5947 88.5968C86.6807 89.0048 87.0527 88.9308 87.3146 88.9968C95.1886 90.9928 102.955 93.3628 110.694 95.8148C111.38 96.0328 112.122 96.1348 112.704 96.6228C110.414 97.2748 108.134 97.9608 105.782 98.3588Z" fill="#A6ADB8"/>
<path d="M223.317 105.417C217.317 107.417 211.387 109.617 205.332 111.447C204.986 111.551 204.628 111.613 204.274 111.695C203.568 110.369 202.806 109.081 201.706 108.031C204.108 107.405 206.506 106.761 208.911 106.155C213.121 105.097 217.267 103.813 221.439 102.625C222.065 103.555 222.691 104.487 223.315 105.417H223.317Z" fill="#7A879B"/>
<path d="M154.586 122.013C148.642 123.133 142.696 124.253 136.752 125.373C136.71 124.803 136.246 124.463 136.012 123.999C135.658 123.305 134.94 122.795 134.948 121.917C140.478 120.439 146.088 119.327 151.724 118.335C151.75 118.747 152.132 118.911 152.326 119.205C152.994 120.211 154.126 120.843 154.586 122.013Z" fill="#7A879B"/>
<path d="M96.3707 110.309C95.9607 110.313 95.8447 109.975 95.6607 109.707C94.7147 108.321 93.7547 106.943 92.8127 105.553C92.6047 105.245 92.4207 104.935 91.9967 104.917C91.8987 104.207 92.2907 103.833 92.8767 103.537C95.6707 102.125 98.6746 101.331 101.673 100.523C103.233 100.103 104.809 99.7308 106.377 99.3368C106.255 99.9228 106.659 100.309 106.917 100.751C107.175 101.191 107.627 101.537 107.573 102.125C107.237 102.263 106.901 102.403 106.565 102.537C103.881 103.607 101.057 104.231 98.3106 105.103C96.8647 105.563 96.4407 106.209 96.4047 107.723C96.3847 108.585 96.3827 109.449 96.3727 110.313L96.3707 110.309Z" fill="#6C798D"/>
<path d="M186.3 82.3828C191.824 81.4448 197.348 80.5068 202.874 79.5688C202.884 79.9128 203.164 80.0208 203.378 80.2168C203.89 80.6828 204.552 81.0428 204.706 81.8128C204.588 81.8628 204.476 81.9328 204.352 81.9608C200.576 82.8008 196.808 83.6808 193.018 84.4548C191.318 84.8028 189.648 85.3608 187.886 85.3728C187.554 84.2728 186.594 83.5028 186.3 82.3828Z" fill="#7A879B"/>
<path d="M107.967 131.451C107.895 130.377 107.053 129.635 106.769 128.651C107.933 128.181 109.187 128.045 110.393 127.747C114.208 126.805 118.062 126.013 121.9 125.163C121.89 125.693 122.204 126.085 122.486 126.479C122.826 126.951 123.276 127.351 123.378 127.965C118.242 129.127 113.106 130.289 107.969 131.451H107.967Z" fill="#6C798D"/>
<path d="M186.3 82.3828C186.594 83.5048 187.552 84.2728 187.886 85.3728C187.612 85.4828 187.346 85.6408 187.06 85.6928C183.83 86.2928 180.598 86.8768 177.366 87.4668C177.206 86.6028 176.576 86.0328 176.056 85.4008C175.752 85.0308 175.492 84.6668 175.5 84.1688C179.1 83.5728 182.7 82.9788 186.3 82.3828Z" fill="#6C798D"/>
<path d="M123.376 127.965C123.276 127.351 122.824 126.951 122.484 126.479C122.202 126.087 121.888 125.693 121.898 125.163C125.314 124.279 128.728 123.395 132.144 122.511C132.318 122.901 132.464 123.307 132.67 123.681C133.082 124.425 133.762 125.017 133.946 125.895C131.622 126.365 129.302 126.841 126.976 127.301C125.778 127.537 124.576 127.745 123.376 127.965Z" fill="#7A879B"/>
<path d="M201.706 108.031C202.808 109.081 203.568 110.369 204.274 111.695C202.032 112.447 199.762 113.091 197.45 113.585C196.228 112.479 195.34 111.113 194.48 109.727C196.876 109.105 199.272 108.493 201.704 108.031H201.706Z" fill="#6C798D"/>
<path d="M112.704 96.6228C112.122 96.1368 111.381 96.0328 110.695 95.8148C102.953 93.3628 95.1886 90.9928 87.3147 88.9968C87.0507 88.9308 86.6787 89.0048 86.5947 88.5968C87.0927 88.2868 87.6407 88.1048 88.1987 87.9428C88.3247 88.2928 88.6427 88.2808 88.9307 88.3568C97.5066 90.5908 105.957 93.2828 114.568 95.3808C114.854 95.4508 115.268 95.4248 115.36 95.8608C114.516 96.2588 113.6 96.4028 112.704 96.6228Z" fill="#677284"/>
<path d="M116.968 96.5689C120.168 95.7669 123.316 94.7709 126.552 94.1149C126.562 94.5389 126.91 94.6929 127.162 94.9509C127.882 95.6909 128.908 96.1249 129.35 97.1369C125.688 97.7229 122.024 98.3089 118.362 98.8949C118.32 98.4829 118.002 98.2229 117.804 97.9009C117.532 97.4549 116.888 97.2429 116.966 96.5709L116.968 96.5689Z" fill="#7A879B"/>
<path d="M129.352 97.1348C128.908 96.1228 127.882 95.6888 127.164 94.9488C126.912 94.6908 126.564 94.5368 126.554 94.1128C129.05 93.3228 131.618 92.8068 134.15 92.1608C134.77 93.3148 135.804 94.0828 136.756 94.9208C137.034 95.1648 137.34 95.3508 137.346 95.7688C134.702 96.3448 132.03 96.7608 129.35 97.1348H129.352Z" fill="#6C798D"/>
<path d="M154.586 122.013C154.124 120.843 152.994 120.211 152.326 119.205C152.132 118.911 151.75 118.747 151.724 118.335C154.058 117.863 156.39 117.391 158.724 116.921C159.286 118.119 160.52 118.755 161.198 119.861C161.366 120.135 161.714 120.295 161.722 120.675C159.344 121.121 156.966 121.567 154.588 122.013H154.586Z" fill="#6C798D"/>
<path d="M204.704 81.8128C204.55 81.0428 203.89 80.6828 203.376 80.2168C203.162 80.0228 202.88 79.9128 202.872 79.5688C206.256 78.8648 209.64 78.1588 213.021 77.4528C213.011 78.4248 213.867 79.0268 214.067 79.9088C210.946 80.5428 207.826 81.1768 204.704 81.8108V81.8128Z" fill="#6C798D"/>
<path d="M107.57 102.123C107.624 101.535 107.17 101.189 106.914 100.749C106.656 100.307 106.252 99.9208 106.374 99.3348C109.1 98.6428 111.828 97.9508 114.554 97.2588C114.744 98.1788 115.738 98.5928 115.958 99.4928C113.162 100.369 110.366 101.247 107.57 102.123Z" fill="#7A879B"/>
<path d="M223.317 105.417C222.691 104.487 222.065 103.555 221.441 102.625C222.313 102.321 223.183 102.009 224.059 101.715C224.383 101.605 224.665 101.489 224.785 101.119C225.029 100.375 225.301 99.6408 225.563 98.9048C226.357 99.4508 226.661 100.371 227.233 101.087C227.493 101.413 227.607 101.887 228.121 101.951C227.995 103.412 227.223 104.339 225.807 104.731C224.977 104.961 224.149 105.189 223.319 105.419L223.317 105.417Z" fill="#6C798D"/>
<path d="M133.946 125.895C133.762 125.017 133.082 124.427 132.67 123.681C132.464 123.309 132.318 122.903 132.144 122.511C133.068 122.261 133.972 121.919 134.948 121.915C134.938 122.793 135.658 123.303 136.012 123.997C136.248 124.461 136.71 124.801 136.752 125.371C135.828 125.609 134.904 125.841 133.948 125.893L133.946 125.895Z" fill="#6C798D"/>
<path d="M115.958 99.4928C115.738 98.5928 114.744 98.1788 114.554 97.2588C115.358 97.0288 116.162 96.7988 116.968 96.5688C116.89 97.2408 117.532 97.4528 117.806 97.8988C118.004 98.2228 118.322 98.4828 118.364 98.8928C117.562 99.0928 116.76 99.2928 115.96 99.4928H115.958Z" fill="#6C798D"/>
<path d="M77.8007 121.691C77.6407 121.651 77.4747 121.625 77.3207 121.567C76.9847 121.441 76.4887 121.689 76.3027 121.333C76.0507 120.855 75.8927 120.305 75.8067 119.769C75.6767 118.965 76.2827 119.033 76.7727 119.109C78.0107 119.301 79.2427 119.531 80.4767 119.747C81.0607 119.849 81.6407 119.967 82.2287 120.051C82.7007 120.119 83.0987 119.951 83.2807 119.493C83.4667 119.025 83.3387 118.651 82.8147 118.487C82.6327 118.129 82.3287 117.987 81.9407 117.915C80.3767 117.621 78.8187 117.287 77.2527 116.997C76.6347 116.883 75.9987 116.791 75.4167 117.167C75.0487 116.469 75.2167 115.679 75.0567 114.941C74.9407 114.401 75.3747 114.551 75.7127 114.625C77.5747 115.035 79.4347 115.453 81.3047 115.813C81.9127 115.929 82.6347 116.153 83.0047 115.321C83.8087 114.647 83.2067 114.351 82.6407 114.173C80.3327 113.447 77.9227 113.093 75.6367 112.281C75.5327 112.245 75.3847 112.335 75.2587 112.367C74.7727 111.937 75.0687 111.371 74.9987 110.869C74.9667 110.641 74.9887 110.405 74.9947 110.173C75.0127 109.479 74.7807 108.589 75.1247 108.145C75.4887 107.673 76.3047 108.401 76.9567 108.329C76.9847 108.509 77.0147 108.687 77.0427 108.867C76.8707 109.519 77.0887 109.865 77.7907 109.951C78.3447 110.019 78.8867 110.187 79.4327 110.317C80.5387 110.579 80.9027 110.301 80.9887 109.147C81.0587 108.201 81.1467 107.255 81.2507 106.025C81.5347 107.539 81.7907 108.761 81.9867 109.993C82.0967 110.683 82.4067 111.073 83.0687 111.375C84.7687 112.151 86.6226 112.417 88.3606 113.065C88.8886 113.261 89.0186 113.449 89.0126 113.941C88.9946 115.633 88.9666 117.327 89.0226 119.017C89.0486 119.791 88.7026 119.343 88.4446 119.273C88.3006 118.893 87.9226 118.813 87.6346 118.605C86.9586 118.119 86.7586 118.415 86.7066 119.077C85.7426 119.671 85.9706 120.503 86.2886 121.407C85.9106 121.587 85.5167 121.489 85.1447 121.505C84.1727 121.545 83.6387 122.073 83.5747 123.051C83.5187 123.911 83.4827 124.775 83.3667 125.627C83.3127 126.033 83.4267 126.717 82.7367 126.651C82.1267 126.593 82.2187 125.981 82.1907 125.531C82.1127 124.277 82.3067 123.015 82.0147 121.761C81.8147 120.905 81.3687 120.493 80.5007 120.507C79.9687 120.515 79.4327 120.475 78.9047 120.519C78.2847 120.573 77.8247 120.843 77.8927 121.581C77.8687 121.627 77.8387 121.665 77.7987 121.695L77.8007 121.691ZM87.9446 114.545C87.4706 114.251 87.0606 113.517 86.4306 114.329C85.3927 114.773 85.2607 116.349 86.1766 117.181C86.6326 117.595 87.1866 117.631 87.6566 117.401C88.3346 117.071 88.8066 116.489 88.7706 115.667C88.7466 115.133 88.6846 114.577 87.9446 114.545Z" fill="#A6ADB8"/>
<path d="M71.2248 100.105C71.2248 99.7729 71.2248 99.4409 71.2248 99.1069C71.2208 97.0369 71.1708 97.3929 72.7988 98.0249C74.1888 98.5649 75.5588 99.1629 76.9448 99.7169C78.2888 100.255 78.5708 100.707 78.3908 102.139C78.3328 102.597 78.2328 103.055 78.2208 103.515C78.1608 105.657 76.8488 106.663 74.7928 106.113C74.5388 106.045 74.2888 105.949 74.0488 105.837C72.1715 104.969 71.2308 103.49 71.2268 101.399C71.2268 100.967 71.2268 100.535 71.2268 100.103L71.2248 100.105Z" fill="#A6ADB8"/>
<path d="M77.045 108.863C77.017 108.683 76.987 108.505 76.959 108.325C76.985 108.305 77.013 108.263 77.037 108.267C78.679 108.455 78.429 107.197 78.577 106.249C78.735 105.233 78.897 104.215 79.027 103.195C79.137 102.329 79.597 101.963 80.457 102.097C81.0129 102.183 81.5709 102.257 82.1209 102.367C82.6509 102.473 82.9369 102.843 83.2009 103.309C84.1369 104.955 84.2689 106.791 84.4949 108.597C84.5689 109.183 84.8089 109.513 85.3149 109.713C86.3649 110.127 87.4149 110.541 88.4709 110.939C88.7889 111.059 89.1929 111.151 89.1009 111.565C88.9909 112.053 88.5109 111.985 88.1869 111.867C86.8449 111.385 85.4889 110.925 84.2409 110.215C83.7789 109.953 83.5829 109.569 83.5269 109.005C83.3629 107.359 83.3169 105.679 82.5309 104.155C82.2269 103.567 80.9049 102.931 80.297 103.083C80.053 103.145 80.013 103.321 79.979 103.525C79.745 104.899 79.453 106.269 79.415 107.667C79.375 109.153 79.069 109.403 77.611 109.053C77.419 109.007 77.235 108.925 77.047 108.861L77.045 108.863Z" fill="#090A0C"/>
<path d="M77.8008 121.691C77.8408 121.659 77.8728 121.621 77.8948 121.577C78.6148 121.297 79.3048 121.857 80.0548 121.629C80.3928 121.527 80.5308 121.985 80.5808 122.339C80.8028 123.849 81.0168 125.359 81.2788 126.861C81.4068 127.601 83.2488 128.443 83.9308 128.125C84.1968 128.001 84.1688 127.753 84.2168 127.533C84.5128 126.171 84.8268 124.813 85.1028 123.449C85.2628 122.657 85.7148 122.403 86.4707 122.569C87.6027 122.819 88.7847 122.829 89.8767 123.269C90.2027 123.401 90.6867 123.485 90.4907 123.981C90.3147 124.425 89.8887 124.289 89.5367 124.155C88.5627 123.785 87.5127 123.801 86.5188 123.541C86.0948 123.429 86.0208 123.639 85.9528 123.987C85.6548 125.517 85.3028 127.039 85.0288 128.573C84.9048 129.265 84.6148 129.483 83.9388 129.283C83.0168 129.013 82.0828 128.775 81.1468 128.557C80.6448 128.441 80.4728 128.171 80.4008 127.665C80.1968 126.221 79.8548 124.795 79.7928 123.331C79.7708 122.825 79.5008 122.689 79.0348 122.617C78.4928 122.533 77.8748 122.441 77.7988 121.689L77.8008 121.691Z" fill="#090A0C"/>
<path d="M72.593 111.671C72.593 110.251 72.593 109.155 72.593 108.059C72.593 107.725 72.573 107.347 72.951 107.203C73.3929 107.035 73.9069 106.985 74.3029 107.223C74.7529 107.495 74.5989 107.939 74.1609 108.011C73.5329 108.113 73.5549 108.477 73.5589 108.927C73.5869 112.203 73.283 115.511 74.5369 118.667C74.6429 118.933 74.6309 119.259 74.6149 119.553C74.5849 120.101 74.6969 120.523 75.2809 120.735C75.5649 120.837 75.8289 121.069 75.6549 121.425C75.4909 121.759 75.1849 121.709 74.8749 121.613C74.1129 121.377 73.5529 121.013 73.6489 120.077C73.7989 118.639 73.057 117.375 72.811 116.009C72.531 114.457 72.637 112.899 72.595 111.667L72.593 111.671Z" fill="#090A0C"/>
<path d="M89.1667 106.365C89.2027 107.251 89.0727 108.029 88.8887 108.801C87.9867 108.619 87.0947 108.405 86.2568 108.015C86.0028 107.897 85.8248 107.675 85.8288 107.389C85.8468 106.385 85.5508 105.429 85.4148 104.449C85.3308 103.855 85.3188 103.395 86.2248 103.789C87.0967 104.169 87.8907 104.705 88.8427 104.961C89.5447 105.149 88.9947 105.959 89.1667 106.367V106.365Z" fill="#A6ADB8"/>
<path d="M75.259 112.363C75.387 112.331 75.535 112.239 75.637 112.277C77.923 113.089 80.3329 113.445 82.6409 114.169C83.2069 114.347 83.8109 114.643 83.0049 115.317C80.7709 114.551 78.4349 114.167 76.177 113.493C75.625 113.327 75.041 113.165 75.257 112.363H75.259Z" fill="#101112"/>
<path d="M75.4167 117.167C75.9987 116.793 76.6347 116.883 77.2527 116.997C78.8187 117.287 80.3767 117.621 81.9407 117.915C82.3267 117.987 82.6327 118.129 82.8147 118.487C82.4687 119.115 81.9067 118.905 81.4047 118.821C79.6207 118.523 77.8807 117.965 76.0607 117.879C75.5907 117.857 75.4447 117.571 75.4187 117.165L75.4167 117.167Z" fill="#101112"/>
<path d="M86.7087 119.075C86.7607 118.413 86.9627 118.119 87.6367 118.603C87.9247 118.811 88.3027 118.891 88.4467 119.271C88.4287 119.501 88.4087 119.729 88.3907 119.959C88.3547 120.433 88.1067 120.681 87.6247 120.673C87.1447 120.665 86.9067 120.395 86.8527 119.941C86.8167 119.651 86.8867 119.343 86.7107 119.075H86.7087Z" fill="#101112"/>
<path d="M115.959 99.4928C116.761 99.2928 117.563 99.0928 118.363 98.8928C122.024 98.3068 125.688 97.7208 129.35 97.1348C132.03 96.7608 134.702 96.3448 137.346 95.7708C141.398 95.0708 145.454 94.3868 149.424 93.2908C156.304 91.3908 163.312 90.0908 170.316 88.7628C172.662 88.3188 175.012 87.8968 177.362 87.4648C180.594 86.8768 183.826 86.2928 187.056 85.6928C187.342 85.6388 187.606 85.4808 187.882 85.3728C189.644 85.3608 191.314 84.8028 193.014 84.4548C196.804 83.6788 200.572 82.8008 204.348 81.9608C204.47 81.9328 204.584 81.8628 204.702 81.8128C207.824 81.1788 210.944 80.5448 214.066 79.9108C216.958 79.5048 219.824 78.9168 222.778 78.9648C224.326 78.9908 224.342 78.8468 224.856 80.3268C225.872 83.2568 226.016 86.3188 226.174 89.3728C226.34 92.5728 226.032 95.7448 225.562 98.9048C225.3 99.6428 225.028 100.377 224.784 101.119C224.662 101.489 224.382 101.607 224.058 101.715C223.182 102.011 222.312 102.321 221.44 102.625C217.266 103.811 213.122 105.097 208.912 106.155C206.504 106.759 204.108 107.405 201.706 108.031C199.272 108.493 196.876 109.105 194.48 109.727C189.644 110.777 184.82 111.887 179.968 112.861C173.258 114.207 166.474 115.183 159.792 116.677C159.436 116.757 159.078 116.839 158.722 116.919C156.388 117.391 154.056 117.863 151.722 118.333C146.086 119.325 140.478 120.437 134.946 121.915C133.97 121.921 133.066 122.261 132.142 122.511C128.726 123.395 125.312 124.279 121.896 125.163C118.059 126.013 114.205 126.803 110.389 127.747C109.183 128.045 107.929 128.181 106.765 128.651C103.979 129.119 101.253 129.855 98.5127 130.527C97.3507 130.811 97.1067 130.557 96.9847 129.339C96.3487 123.009 96.4467 116.657 96.3667 110.309C96.3767 109.445 96.3787 108.583 96.3987 107.719C96.4347 106.205 96.8587 105.559 98.3047 105.099C101.051 104.227 103.875 103.603 106.559 102.533C106.897 102.399 107.231 102.259 107.567 102.121C110.363 101.245 113.159 100.367 115.955 99.4908L115.959 99.4928ZM224.486 98.3308C224.536 98.2468 224.614 98.1668 224.632 98.0768C225.434 93.9668 225.318 89.8148 224.998 85.6828C224.866 83.9888 224.534 82.2688 223.938 80.6368C223.786 80.2208 223.62 79.9588 223.116 79.9468C220.25 79.8728 217.444 80.2908 214.658 80.9088C211.93 81.1988 209.264 81.7928 206.624 82.5208C205.296 82.6388 204.038 83.0868 202.74 83.3388C197.96 84.2668 193.232 85.4308 188.492 86.5448C185.364 87.0848 182.236 87.6228 179.108 88.1628C178.916 88.2128 178.726 88.2728 178.53 88.3088C173.91 89.1528 169.29 90.0048 164.668 90.8308C156.68 92.2588 148.91 94.6628 140.936 96.1528C138.342 96.6148 135.748 97.0768 133.152 97.5388C128.938 98.1968 124.714 98.7988 120.512 99.5288C115.859 100.337 111.401 101.867 106.969 103.467C106.659 103.579 106.429 103.755 106.747 104.003C108.195 105.139 107.975 106.419 107.147 107.781C107.131 107.807 107.141 107.847 107.139 107.881C107.047 107.959 106.937 108.093 107.053 108.157C107.201 108.241 107.181 108.039 107.227 107.955C108.035 107.731 108.265 106.977 108.643 106.373C109.277 105.357 109.915 104.375 110.909 103.633C114.007 101.317 117.471 101.103 121.072 101.831C122.692 102.159 124.404 102.567 125.432 104.001C128.298 107.995 129.316 112.337 127.308 117.023C126.538 118.823 125.544 120.605 123.724 121.563C120.05 123.495 116.297 123.575 112.569 121.663C111.865 121.301 111.215 120.825 110.569 120.361C110.185 120.085 109.843 119.967 109.389 120.295C110.483 122.065 110.547 123.959 110.103 125.883C109.937 126.607 110.037 126.789 110.789 126.619C113.859 125.921 116.949 125.313 120.006 124.575C126.71 122.959 133.392 121.253 140.098 119.649C143.156 118.917 146.252 118.337 149.332 117.689C151.528 117.285 153.722 116.883 155.918 116.479C156.046 116.441 156.17 116.395 156.3 116.365C165.962 114.223 175.776 112.865 185.436 110.713C188.532 110.023 191.652 109.439 194.702 108.553C196.722 108.191 198.736 107.799 200.686 107.137C201.364 106.997 202.05 106.881 202.722 106.711C208.884 105.153 215.06 103.645 221.086 101.601C221.906 101.357 222.73 101.123 223.544 100.863C223.786 100.787 224.028 100.695 224.084 100.361C224.194 99.6808 224.35 99.0088 224.486 98.3328V98.3308ZM118.025 121.903C118.457 121.903 118.958 121.941 119.454 121.897C121.806 121.683 123.744 120.751 125.188 118.789C127.666 115.419 127.768 111.759 126.518 107.993C125.922 106.201 125.042 104.419 123.178 103.569C120.858 102.511 118.343 102.179 115.857 102.575C110.033 103.499 106.713 109.531 108.103 114.869C109.021 118.395 113.461 122.435 118.027 121.905L118.025 121.903ZM108.745 121.227C108.459 120.593 108.091 120.467 107.501 120.617C105.461 121.133 103.397 121.413 101.281 121.191C100.851 121.145 100.571 120.983 100.253 120.701C98.7727 119.393 98.7967 117.655 99.0667 115.991C99.2127 115.081 99.6827 114.005 100.693 113.619C101.863 113.173 103.069 112.793 104.331 112.609C106.841 112.245 106.837 112.217 107.121 109.693C107.131 109.599 107.095 109.501 107.067 109.325C104.107 110.269 101.145 111.115 98.1407 111.797C97.7067 111.895 97.3627 112.127 97.3687 112.683C97.4047 116.007 97.3167 119.331 97.4827 122.655C97.5207 123.397 97.8487 123.481 98.4387 123.277C98.6247 123.213 98.8147 123.137 99.0087 123.117C102.289 122.783 105.489 122.039 108.743 121.225L108.745 121.227ZM109.371 123.879C109.385 122.199 109.329 122.069 108.579 122.261C105.135 123.145 101.631 123.713 98.1267 124.281C97.5967 124.367 97.5627 124.581 97.5987 124.993C97.7227 126.385 97.8567 127.775 97.9347 129.169C97.9647 129.703 98.1847 129.653 98.5627 129.545C99.6107 129.247 100.661 128.949 101.721 128.703C103.427 128.307 105.163 128.029 106.845 127.553C107.799 127.283 108.857 126.917 109.119 125.735C109.277 125.025 109.317 124.289 109.371 123.877V123.879ZM102.751 120.283C103.799 120.373 104.681 120.203 105.569 120.093C106.039 120.035 106.235 119.827 106.243 119.317C106.267 117.475 105.747 115.717 105.465 113.921C105.439 113.751 105.445 113.473 105.165 113.489C103.627 113.573 102.107 113.885 100.821 114.705C99.9187 115.281 99.6267 117.789 100.099 118.901C100.633 120.159 101.587 120.589 102.751 120.285V120.283ZM97.3747 108.811C97.3747 109.149 97.3747 109.449 97.3747 109.747C97.3787 110.923 97.4407 110.985 98.5487 110.715C100.097 110.335 101.627 109.871 103.185 109.553C104.839 109.215 106.195 108.625 106.471 106.725C106.485 106.631 106.545 106.539 106.601 106.457C107.197 105.589 106.357 105.229 105.983 104.707C105.623 104.205 105.223 103.947 104.547 104.245C103.093 104.889 101.533 105.183 99.9947 105.565C99.0627 105.797 97.9047 105.827 97.5007 107.075C97.3067 107.675 97.5107 108.265 97.3767 108.809L97.3747 108.811ZM106.551 113.363C106.411 113.455 106.403 113.603 106.435 113.771C106.761 115.527 107.085 117.285 107.411 119.041C107.457 119.289 107.589 119.499 107.865 119.485C108.291 119.461 108.755 119.417 109.061 119.125C109.255 118.939 108.911 118.737 108.799 118.551C107.925 117.097 107.045 115.649 106.951 113.883C106.939 113.657 106.901 113.411 106.549 113.363H106.551Z" fill="#090A0C"/>
<path d="M87.9446 114.545C88.6846 114.577 88.7466 115.133 88.7706 115.667C88.8066 116.491 88.3346 117.071 87.6566 117.401C87.1867 117.631 86.6307 117.595 86.1767 117.181C85.2607 116.349 85.3947 114.773 86.4307 114.329C86.4927 114.713 86.5747 115.097 86.6107 115.485C86.6607 116.033 87.0207 116.205 87.4826 116.221C88.3946 116.251 88.5526 115.665 87.9446 114.547V114.545Z" fill="#677284"/>
<path d="M87.9447 114.545C88.5526 115.665 88.3946 116.249 87.4827 116.219C87.0207 116.205 86.6607 116.031 86.6107 115.483C86.5747 115.095 86.4927 114.713 86.4307 114.327C87.0607 113.513 87.4727 114.249 87.9447 114.543V114.545Z" fill="#090A0C"/>
<path d="M140.932 96.1528C148.906 94.6628 156.676 92.2568 164.664 90.8308C169.288 90.0048 173.906 89.1508 178.526 88.3088C178.722 88.2728 178.912 88.2108 179.104 88.1628C179.02 88.6748 179.406 88.9288 179.698 89.2348C180.372 89.9448 181.068 90.6368 181.496 91.5368C181.416 91.5928 181.342 91.6828 181.254 91.6988C177.632 92.3808 174.15 93.6008 170.578 94.4708C166.816 95.3888 163.198 96.8508 159.3 97.2588C157.398 97.4568 155.588 98.2288 153.662 98.4048C153.242 98.4428 152.644 98.5528 152.764 99.2248C152.836 99.6288 153.214 99.5268 153.508 99.4808C156.78 98.9828 159.998 98.1788 163.228 97.4968C167.726 96.5468 172.098 95.0208 176.552 93.8408C178.566 93.3068 180.58 92.7248 182.658 92.4548C183.134 93.2948 184.112 93.7908 184.294 94.8348C183.744 94.9548 183.154 94.9908 182.654 95.2188C181.964 95.5348 181.006 95.6928 180.962 96.6848C180.916 97.7048 180.946 98.7228 181.086 99.7548C181.4 102.077 181.99 102.267 184.238 101.443C185.038 101.149 185.26 100.715 185.3 99.9048C185.384 98.1728 184.646 96.6128 184.43 94.9488C184.93 94.8528 184.958 95.5508 185.412 95.5308C185.518 96.4788 185.564 97.4388 185.742 98.3748C186.172 100.619 186.658 100.921 188.876 100.465C188.94 100.451 189.006 100.449 189.072 100.441C189.552 101.301 190.298 101.987 190.688 102.905C189.332 103.201 187.972 103.487 186.618 103.795C185.072 104.145 183.526 104.501 181.988 104.883C181.474 105.011 180.864 105.227 181.034 105.901C181.192 106.525 181.394 107.169 181.816 107.707C182.208 108.209 182.59 108.393 183.262 108.157C184.48 107.727 185.698 107.321 187.022 107.199C189.114 107.005 191.188 106.603 193.27 106.289C193.746 107.047 194.222 107.803 194.698 108.561C191.648 109.445 188.528 110.031 185.432 110.719C175.772 112.871 165.958 114.227 156.296 116.371C156.166 116.399 156.042 116.445 155.914 116.485C155.926 116.151 155.898 115.855 155.674 115.555C153.356 112.459 151.038 109.365 148.764 106.239C147.818 104.937 146.726 103.739 145.928 102.329C147.672 101.995 149.384 101.499 151.16 101.317C151.852 101.245 152.166 100.607 151.672 100.239C150.652 99.4828 149.872 98.5208 149.018 97.6148C148.874 97.4628 148.6 97.3548 148.386 97.3568C146.168 97.3788 143.942 97.0988 141.736 97.5408C141.744 96.9188 140.954 96.7648 140.93 96.1628L140.932 96.1528ZM156.046 111.805C156.026 112.747 156.568 113.437 157.4 113.295C159.494 112.939 161.612 112.867 163.716 112.617C165.506 112.405 167.156 111.635 168.946 111.441C171.552 111.161 173.762 110.153 175.244 107.867C175.562 107.377 175.902 106.897 175.568 106.317C175.25 105.767 174.74 105.937 174.234 106.043C170.798 106.759 167.356 107.441 163.92 108.161C161.884 108.587 159.838 108.995 157.832 109.535C156.204 109.973 156.08 110.247 156.048 111.805H156.046ZM164.348 101.193C164.248 102.499 165.022 103.411 164.932 104.511C164.898 104.913 164.886 105.417 165.45 105.393C166.018 105.369 165.944 104.845 165.906 104.461C165.724 102.621 164.888 100.881 165.078 98.9808C165.102 98.7328 164.88 98.5548 164.622 98.5368C164.36 98.5188 164.172 98.6668 164.128 98.9328C164.06 99.3668 163.904 99.7628 163.688 100.143C163.006 101.331 163.012 101.329 161.99 100.393C161.708 100.135 161.45 99.7308 160.974 99.9828C160.578 100.191 160.476 100.571 160.48 100.999C160.488 102.197 160.438 103.395 160.502 104.589C160.53 105.103 160.12 106.037 160.982 106.035C161.712 106.033 161.408 105.131 161.43 104.615C161.474 103.585 161.444 102.553 161.444 101.371C162.608 102.26 163.578 102.201 164.354 101.193H164.348ZM156.45 103.501C156.27 102.249 156.66 101.603 157.742 101.239C158.37 101.027 158.976 100.755 159.594 100.515C159.892 100.399 160.188 100.245 160.054 99.8768C159.906 99.4728 159.55 99.5128 159.212 99.6348C158.37 99.9388 157.504 100.191 156.698 100.567C155.854 100.961 155.272 101.545 155.354 102.645C155.448 103.899 155.378 105.167 155.362 106.429C155.356 106.847 155.338 107.329 155.864 107.345C156.446 107.363 156.358 106.843 156.346 106.451C156.324 105.731 156.222 105.025 156.938 104.487C157.396 104.143 157.94 104.163 158.406 103.921C158.716 103.759 159.026 103.559 158.884 103.163C158.72 102.707 158.382 102.897 158.058 103.011C157.53 103.197 156.988 103.341 156.45 103.503V103.501ZM169.538 100.983H169.532C169.532 100.187 169.536 99.3908 169.532 98.5928C169.528 97.9788 169.154 97.7628 168.614 97.8448C168.26 97.8988 167.912 98.0408 167.582 98.1928C167.254 98.3448 166.858 98.5408 167.058 99.0008C167.246 99.4348 167.614 99.2648 167.906 99.1008C168.456 98.7908 168.588 99.0068 168.58 99.5528C168.56 100.747 168.576 101.943 168.57 103.137C168.57 103.429 168.606 103.735 168.184 103.827C167.836 103.903 167.704 104.171 167.822 104.515C167.936 104.849 168.214 104.961 168.538 104.919C169.126 104.843 169.712 104.749 170.294 104.643C170.502 104.605 170.656 104.451 170.666 104.231C170.676 104.013 170.54 103.793 170.336 103.797C169.39 103.819 169.53 103.163 169.534 102.579C169.538 102.049 169.534 101.517 169.534 100.987L169.538 100.983ZM179.406 99.2708C179.406 99.0708 179.398 98.8728 179.406 98.6728C179.442 97.9028 179.364 97.1528 179.112 96.4188C178.928 95.8868 178.518 95.8448 178.066 95.9148C177.614 95.9848 177.346 96.2808 177.348 96.7308C177.348 97.2128 177.624 97.2988 178.09 97.2268C178.486 97.1648 178.396 97.5908 178.402 97.8148C178.432 99.0408 178.416 100.269 178.45 101.495C178.458 101.785 178.396 101.909 178.11 101.967C177.764 102.037 177.582 102.279 177.716 102.627C177.848 102.971 178.176 102.993 178.476 102.917C179.052 102.769 179.622 102.593 180.188 102.413C180.42 102.339 180.612 102.193 180.582 101.911C180.552 101.629 180.336 101.509 180.09 101.519C179.458 101.543 179.41 101.123 179.406 100.665C179.402 100.201 179.406 99.7368 179.406 99.2708Z" fill="#374459"/>
<path d="M149.332 117.685C146.254 118.333 143.158 118.913 140.098 119.645C133.392 121.249 126.71 122.955 120.006 124.571C116.946 125.309 113.856 125.917 110.788 126.615C110.036 126.785 109.936 126.605 110.102 125.879C110.544 123.955 110.482 122.061 109.388 120.291C109.842 119.961 110.184 120.081 110.568 120.357C111.214 120.821 111.864 121.299 112.568 121.659C116.296 123.571 120.05 123.491 123.724 121.559C125.544 120.601 126.536 118.819 127.308 117.019C129.316 112.333 128.298 107.991 125.432 103.997C124.404 102.563 122.69 102.153 121.072 101.827C117.47 101.099 114.006 101.313 110.908 103.629C109.914 104.373 109.276 105.353 108.642 106.369C108.266 106.973 108.036 107.727 107.226 107.951C107.196 107.927 107.166 107.901 107.138 107.877C107.14 107.843 107.132 107.803 107.146 107.779C107.976 106.419 108.194 105.139 106.746 104.001C106.428 103.751 106.658 103.577 106.968 103.465C111.4 101.865 115.856 100.333 120.512 99.5268C124.714 98.7988 128.938 98.1948 133.152 97.5368C133.318 98.6448 134.304 99.0748 134.992 99.7528C134.812 99.8328 134.636 99.9168 134.454 99.9908C133.162 100.509 132.856 101.121 133.26 102.489C133.37 102.865 133.616 103.201 133.728 103.575C134.104 104.835 134.434 105.037 135.704 104.735C136.702 104.497 137.702 104.271 138.702 104.039C139.324 104.975 140.32 105.625 140.738 106.717C140.038 106.871 139.226 106.931 138.854 107.615C138.29 108.653 139.508 110.505 140.688 110.519C141.662 110.531 142.064 110.095 142.362 108.701C143.402 109.415 144.034 110.479 144.742 111.477C143.84 111.689 142.94 111.905 142.038 112.111C139.294 112.735 136.54 113.301 133.926 114.411C132.726 114.921 131.96 115.421 132.306 116.987C132.586 118.255 133.274 118.913 134.56 118.503C135.034 118.353 135.504 118.179 135.988 118.079C140.036 117.231 144.118 116.549 148.11 115.449C148.256 116.337 149.222 116.775 149.334 117.681L149.332 117.685Z" fill="#364357"/>
<path d="M221.085 101.601C215.059 103.645 208.884 105.153 202.722 106.711C202.05 106.881 201.366 106.997 200.686 107.137C200.378 106.369 199.962 105.663 199.512 104.971C199.286 104.625 199.228 104.123 198.666 104.109C199.15 103.227 199.884 102.563 200.598 101.883C200.854 101.639 201.226 101.381 200.942 100.975C200.676 100.595 200.274 100.467 199.808 100.671C199.014 101.017 198.164 101.099 197.316 101.187C196.972 100.501 196.628 99.8128 196.284 99.1268C197.148 98.9008 198.02 98.7028 198.872 98.4428C199.644 98.2088 200.056 97.6628 199.824 96.8468C199.424 95.4408 199.172 94.0188 199.018 92.5668C198.914 91.6068 198.41 91.2248 197.43 91.3828C196.448 91.5428 195.552 91.9868 194.71 92.5208C194.498 92.6548 194.332 92.8528 194.46 93.1008C194.932 94.0168 194.646 94.9808 194.678 95.9248C194.326 95.9248 194.186 95.6788 194.026 95.4108C193.12 93.8928 192.2 92.3868 191.284 90.8768C194.258 90.1188 197.268 89.5328 200.292 89.0228C203.742 88.4428 207.194 87.8648 210.646 87.2868C210.994 88.3568 211.822 89.1048 212.49 89.9508C213.749 91.5508 214.883 93.2528 216.305 94.7208C216.489 94.9188 216.675 95.1168 216.859 95.3148C216.891 96.1288 217.805 96.4988 217.863 97.2988C216.951 97.7308 216.363 98.3648 216.467 99.4608C216.535 100.175 216.923 100.671 217.583 100.821C218.505 101.031 219.443 101.073 220.039 100.089C220.387 100.593 220.735 101.095 221.083 101.599L221.085 101.601ZM202.812 89.9708C202.118 90.1728 201.19 90.4068 200.286 90.7168C199.866 90.8608 199.666 91.1908 199.946 91.6648C200.296 92.2568 200.34 92.9168 200.314 93.5868C200.278 94.5268 200.502 95.4348 200.716 96.3328C200.898 97.0928 201.388 97.6068 202.252 97.2448C203.084 96.8968 203.956 96.7148 204.814 96.4648C205.674 96.2128 205.954 95.6968 205.686 94.8048C205.316 93.5708 204.84 92.3728 204.57 91.1028C204.412 90.3588 203.864 89.9348 202.81 89.9708H202.812ZM203.368 100.319C203.478 100.295 203.676 100.267 203.864 100.211C206.984 99.2988 210.104 98.3868 213.287 97.7128C213.635 97.6388 214.111 97.5868 213.995 97.0828C213.887 96.6128 213.431 96.6848 213.076 96.7608C211.942 97.0048 210.804 97.2388 209.684 97.5408C207.538 98.1208 205.404 98.7408 203.266 99.3528C202.978 99.4348 202.672 99.5488 202.696 99.9368C202.718 100.305 203.002 100.317 203.366 100.317L203.368 100.319ZM208.184 103.095C209.526 103.147 210.394 102.459 210.456 101.295C210.512 100.261 209.782 99.3968 208.796 99.3348C207.848 99.2728 206.73 100.441 206.672 101.553C206.61 102.721 206.932 103.049 208.184 103.097V103.095ZM213.271 98.5308C212.264 98.5088 211.988 98.8808 211.926 100.355C211.886 101.303 212.584 102.029 213.587 102.077C214.509 102.123 215.389 101.139 215.441 100.005C215.475 99.2788 214.409 98.5568 213.271 98.5308Z" fill="#374459"/>
<path d="M149.332 117.685C149.218 116.779 148.254 116.341 148.108 115.453C149.348 114.929 150.84 114.957 151.518 113.341C152.11 111.929 151.95 111.281 150.456 111.011C150.196 110.965 149.93 110.963 149.664 110.947C147.992 110.849 146.368 111.193 144.738 111.479C144.032 110.479 143.398 109.417 142.358 108.703C142.446 107.527 141.828 106.929 140.734 106.719C140.316 105.627 139.32 104.977 138.698 104.041C141.026 103.123 143.466 102.663 145.93 102.317C146.726 103.727 147.818 104.925 148.766 106.227C151.04 109.353 153.36 112.449 155.676 115.543C155.9 115.843 155.928 116.141 155.916 116.473C153.72 116.877 151.526 117.279 149.33 117.683L149.332 117.685Z" fill="#425064"/>
<path d="M118.024 121.903C113.456 122.433 109.016 118.391 108.1 114.867C106.713 109.529 110.032 103.499 115.854 102.573C118.342 102.177 120.856 102.511 123.176 103.567C125.04 104.417 125.92 106.197 126.516 107.991C127.766 111.757 127.664 115.419 125.186 118.787C123.742 120.749 121.804 121.681 119.452 121.895C118.956 121.941 118.454 121.901 118.022 121.901L118.024 121.903ZM109.972 113.017C109.86 113.897 110.038 114.757 110.218 115.589C110.59 117.293 111.298 118.829 113.072 119.519C113.838 119.817 114.652 119.997 115.452 120.207C117.672 120.791 119.958 121.109 122.072 120.073C124.89 118.693 126.464 116.311 126.746 113.147C127.052 109.713 125.306 107.439 122.552 105.717C121.168 104.853 119.606 104.751 118.066 104.567C115.438 104.249 113.238 105.023 111.574 107.181C110.232 108.923 110.116 110.969 109.97 113.017H109.972Z" fill="#364357"/>
<path d="M188.488 86.5428C193.228 85.4288 197.954 84.2628 202.736 83.3368C204.036 83.0848 205.294 82.6368 206.62 82.5188C207.548 83.8088 208.75 84.8968 209.466 86.3448C209.278 86.4068 209.096 86.4928 208.902 86.5268C206.364 86.9688 203.818 87.3748 201.286 87.8448C197.682 88.5148 194.084 89.2308 190.484 89.9248C190.452 89.5428 190.212 89.2628 190.03 88.9468C189.552 88.1208 188.858 87.4348 188.486 86.5408L188.488 86.5428Z" fill="#364357"/>
<path d="M209.466 86.3448C208.75 84.8968 207.548 83.8088 206.62 82.5188C209.26 81.7908 211.926 81.1968 214.654 80.9068C215.352 82.4668 216.278 83.9168 216.858 85.5308C216.32 85.9388 215.846 86.3748 215.89 87.1428C216.034 89.6688 216.166 92.1948 216.304 94.7208C214.88 93.2528 213.746 91.5508 212.488 89.9508C211.822 89.1048 210.992 88.3568 210.644 87.2868C210.762 87.2348 210.874 87.1568 210.996 87.1388C211.402 87.0788 211.748 86.9108 211.64 86.4568C211.518 85.9448 211.054 86.1228 210.732 86.1948C210.312 86.2868 209.9 86.3788 209.466 86.3468V86.3448Z" fill="#425064"/>
<path d="M216.859 85.5309C216.279 83.9169 215.354 82.4669 214.656 80.9069C217.441 80.2889 220.247 79.8709 223.113 79.9449C223.617 79.9569 223.783 80.2189 223.935 80.6349C224.531 82.2689 224.865 83.9869 224.995 85.6809C225.315 89.8129 225.431 93.9649 224.629 98.0749C224.611 98.1649 224.533 98.2449 224.483 98.3289C223.321 97.5369 222.919 96.2209 222.249 95.0889C222.531 94.7729 222.955 94.7389 223.309 94.5669C223.763 94.3489 224.031 94.0389 224.049 93.4949C224.147 90.7889 224.035 88.1229 222.913 85.5869C222.725 85.1609 222.537 84.8929 222.065 84.9349C220.323 85.0929 218.551 84.9709 216.855 85.5289L216.859 85.5309Z" fill="#364357"/>
<path d="M108.745 121.227C105.491 122.043 102.291 122.785 99.0107 123.119C98.8167 123.139 98.6267 123.213 98.4407 123.279C97.8507 123.483 97.5207 123.399 97.4847 122.657C97.3187 119.333 97.4067 116.009 97.3707 112.685C97.3647 112.129 97.7087 111.897 98.1427 111.799C101.149 111.117 104.111 110.271 107.069 109.327C107.095 109.503 107.133 109.601 107.123 109.695C106.839 112.219 106.841 112.247 104.333 112.611C103.071 112.793 101.865 113.173 100.695 113.621C99.6847 114.007 99.2167 115.083 99.0687 115.993C98.8007 117.659 98.7767 119.395 100.255 120.703C100.573 120.985 100.855 121.147 101.283 121.193C103.397 121.415 105.463 121.135 107.503 120.619C108.093 120.469 108.461 120.595 108.747 121.229L108.745 121.227Z" fill="#A2ACBC"/>
<path d="M109.37 123.879C109.316 124.291 109.276 125.027 109.118 125.737C108.854 126.921 107.796 127.285 106.844 127.555C105.163 128.031 103.427 128.309 101.721 128.705C100.661 128.951 99.6106 129.249 98.5626 129.547C98.1846 129.655 97.9646 129.705 97.9346 129.171C97.8566 127.777 97.7226 126.385 97.5986 124.995C97.5626 124.583 97.5966 124.369 98.1266 124.283C101.631 123.715 105.135 123.147 108.578 122.263C109.326 122.071 109.382 122.199 109.37 123.881V123.879ZM102.793 124.549C102.145 124.313 101.707 124.525 101.427 125.073C101.311 125.303 101.357 125.547 101.587 125.687C102.071 125.985 102.479 125.839 102.963 125.565C103.373 125.333 103.919 125.335 104.409 125.251C104.663 125.207 104.903 125.303 104.967 125.557C105.051 125.903 104.733 125.899 104.523 125.943C103.875 126.085 103.225 126.211 102.575 126.341C102.225 126.411 101.743 126.409 101.831 126.923C101.913 127.401 102.383 127.337 102.735 127.279C103.455 127.161 104.165 126.993 104.881 126.851C105.661 126.695 106.187 126.353 105.991 125.431C105.805 124.559 105.161 124.141 104.227 124.297C103.737 124.379 103.249 124.467 102.795 124.547L102.793 124.549Z" fill="#A2ACBC"/>
<path d="M188.488 86.5428C188.86 87.4348 189.554 88.1208 190.032 88.9488C190.214 89.2648 190.454 89.5448 190.486 89.9268C189.966 90.0288 189.448 90.1408 188.928 90.2328C186.452 90.6708 183.974 91.1028 181.498 91.5348C181.07 90.6348 180.372 89.9428 179.7 89.2328C179.408 88.9268 179.024 88.6728 179.106 88.1608C182.234 87.6208 185.362 87.0828 188.49 86.5428H188.488Z" fill="#425064"/>
<path d="M102.751 120.283C101.587 120.587 100.633 120.159 100.099 118.899C99.6267 117.789 99.9187 115.279 100.821 114.703C102.107 113.883 103.627 113.571 105.165 113.487C105.445 113.471 105.439 113.751 105.465 113.919C105.747 115.713 106.267 117.471 106.243 119.315C106.237 119.825 106.039 120.033 105.569 120.091C104.681 120.201 103.799 120.371 102.751 120.281V120.283ZM102.297 115.779C101.965 115.797 101.631 115.791 101.303 115.837C100.919 115.889 100.587 116.061 100.523 116.487C100.473 116.817 100.653 117.081 100.935 117.223C101.275 117.395 101.629 117.401 101.967 117.157C102.883 116.499 102.943 116.515 103.227 117.563C103.327 117.933 103.533 118.181 103.905 118.181C104.323 118.181 104.807 118.259 105.089 117.835C105.317 117.491 105.033 117.237 104.869 116.943C104.291 115.911 103.349 115.745 102.301 115.775L102.297 115.779Z" fill="#A2ACBC"/>
<path d="M97.3746 108.811C97.5106 108.267 97.3046 107.677 97.4986 107.077C97.9026 105.827 99.0625 105.797 99.9925 105.567C101.531 105.185 103.091 104.891 104.544 104.247C105.22 103.949 105.62 104.205 105.98 104.709C106.354 105.231 107.196 105.591 106.598 106.459C106.542 106.541 106.482 106.633 106.468 106.727C106.192 108.625 104.836 109.215 103.183 109.555C101.623 109.875 100.093 110.339 98.5465 110.717C97.4386 110.989 97.3766 110.925 97.3726 109.749C97.3726 109.449 97.3726 109.151 97.3726 108.813L97.3746 108.811ZM101.157 107.875C100.797 107.779 100.483 107.755 100.585 107.303C100.645 107.037 100.481 106.839 100.231 106.783C99.6985 106.663 99.2265 106.823 98.9065 107.263C98.6245 107.655 98.6225 108.071 99.0185 108.421C99.1345 108.525 99.2865 108.565 99.3245 108.769C99.4845 109.593 99.8545 109.763 100.591 109.397C101.035 109.177 101.253 108.343 101.999 108.887C102.091 108.955 102.245 108.707 102.301 108.547C102.355 108.391 102.469 108.151 102.613 108.343C103.323 109.293 104.108 108.231 104.852 108.449C105.136 108.533 105.41 108.249 105.402 107.887C105.396 107.607 105.212 107.481 104.938 107.485C104.69 107.489 104.366 107.633 104.298 107.237C104.24 106.903 104.242 106.593 104.69 106.457C105.046 106.349 105.096 106.029 104.912 105.727C104.74 105.447 104.464 105.345 104.134 105.433C103.861 105.507 103.649 105.669 103.553 105.933C103.377 106.411 103.297 106.685 102.739 106.145C102.157 105.581 101.237 106.071 101.163 106.893C101.137 107.187 101.159 107.487 101.159 107.875H101.157Z" fill="#A2ACBC"/>
<path d="M222.252 95.0907C222.922 96.2227 223.324 97.5387 224.486 98.3307C224.35 99.0067 224.194 99.6787 224.084 100.359C224.03 100.695 223.786 100.785 223.544 100.861C222.728 101.121 221.906 101.355 221.086 101.599C220.738 101.097 220.39 100.593 220.042 100.091C220.694 97.7547 219.938 97.1567 218.062 97.3187C217.998 97.3247 217.932 97.3067 217.866 97.2987C217.806 96.4967 216.894 96.1287 216.862 95.3147C218.694 96.0687 220.474 95.5627 222.254 95.0907H222.252Z" fill="#425064"/>
<path d="M198.664 104.107C199.226 104.121 199.286 104.623 199.51 104.969C199.96 105.659 200.376 106.367 200.684 107.135C198.734 107.797 196.72 108.189 194.7 108.551C194.224 107.795 193.748 107.037 193.272 106.281C194.256 106.037 195.228 105.707 196.228 105.573C197.29 105.431 198.088 104.989 198.664 104.107Z" fill="#425064"/>
<path d="M134.988 99.7548C134.302 99.0768 133.316 98.6488 133.148 97.5388C135.742 97.0768 138.336 96.6148 140.932 96.1528C140.956 96.7548 141.746 96.9088 141.738 97.5308C139.488 98.2708 137.238 99.0128 134.988 99.7528V99.7548Z" fill="#425064"/>
<path d="M106.551 113.363C106.903 113.411 106.941 113.657 106.953 113.883C107.045 115.647 107.925 117.097 108.801 118.551C108.913 118.737 109.259 118.941 109.063 119.125C108.757 119.417 108.291 119.461 107.867 119.485C107.591 119.499 107.459 119.289 107.413 119.041C107.085 117.285 106.763 115.527 106.437 113.771C106.405 113.601 106.415 113.455 106.553 113.363H106.551Z" fill="#364357"/>
<path d="M107.224 107.955C107.18 108.041 107.198 108.241 107.05 108.157C106.934 108.093 107.044 107.957 107.136 107.881C107.166 107.905 107.194 107.931 107.224 107.955Z" fill="#364357"/>
<path d="M196.282 99.1248C196.626 99.8108 196.97 100.499 197.314 101.185C195.14 101.889 192.976 102.627 190.69 102.901C190.298 101.983 189.552 101.297 189.074 100.439C189.864 100.369 190.316 100.017 190.042 99.1648C189.586 97.7428 189.482 96.2608 189.264 94.7988C189.212 94.4488 189.148 94.1568 188.8 93.9988C187.448 93.3828 185.844 94.1068 185.414 95.5308C184.96 95.5508 184.93 94.8528 184.432 94.9488C184.362 94.9408 184.316 94.9028 184.294 94.8348C184.112 93.7928 183.134 93.2968 182.658 92.4568C185.5 91.7508 188.386 91.2888 191.282 90.8788C192.198 92.3888 193.12 93.8968 194.024 95.4128C194.184 95.6788 194.324 95.9248 194.676 95.9268C194.774 96.5468 194.89 97.1648 194.964 97.7888C195.06 98.5888 195.442 99.0768 196.284 99.1288L196.282 99.1248ZM193.458 99.1148C193.444 98.7848 193.32 98.5048 192.984 98.4588C192.598 98.4068 192.494 98.7048 192.478 99.0208C192.462 99.3388 192.554 99.6328 192.92 99.6628C193.282 99.6928 193.424 99.4348 193.458 99.1148Z" fill="#425064"/>
<path d="M191.282 90.8747C188.386 91.2867 185.5 91.7467 182.658 92.4527C180.58 92.7227 178.566 93.3047 176.552 93.8387C172.1 95.0167 167.726 96.5447 163.228 97.4947C159.998 98.1767 156.78 98.9807 153.508 99.4787C153.214 99.5227 152.836 99.6247 152.764 99.2227C152.644 98.5507 153.242 98.4407 153.662 98.4027C155.588 98.2267 157.398 97.4567 159.3 97.2567C163.198 96.8487 166.818 95.3867 170.578 94.4687C174.15 93.5967 177.632 92.3787 181.254 91.6967C181.342 91.6807 181.416 91.5907 181.496 91.5347C183.972 91.1007 186.45 90.6687 188.926 90.2327C189.448 90.1407 189.964 90.0287 190.484 89.9267C194.084 89.2307 197.68 88.5147 201.286 87.8467C203.818 87.3767 206.364 86.9707 208.902 86.5287C209.094 86.4947 209.278 86.4087 209.466 86.3467C209.898 86.3787 210.31 86.2867 210.732 86.1947C211.054 86.1247 211.518 85.9447 211.64 86.4567C211.748 86.9127 211.402 87.0807 210.996 87.1387C210.874 87.1567 210.76 87.2367 210.644 87.2867C207.192 87.8647 203.74 88.4407 200.29 89.0227C197.264 89.5327 194.256 90.1187 191.282 90.8767V90.8747Z" fill="#090A0C"/>
<path d="M156.046 111.805C156.078 110.247 156.202 109.973 157.83 109.535C159.838 108.993 161.882 108.587 163.918 108.161C167.354 107.441 170.796 106.759 174.232 106.043C174.738 105.937 175.248 105.767 175.566 106.317C175.9 106.899 175.56 107.377 175.242 107.867C173.758 110.155 171.55 111.161 168.944 111.441C167.154 111.633 165.506 112.403 163.714 112.617C161.612 112.867 159.492 112.941 157.398 113.295C156.564 113.437 156.024 112.749 156.044 111.805H156.046ZM161.128 109.913C160.934 109.869 160.764 109.589 160.54 109.855C159.456 110.149 158.318 110.235 157.302 110.789C156.78 111.073 156.87 111.491 156.958 111.901C157.028 112.227 157.284 112.385 157.642 112.309C159.662 111.881 161.742 111.967 163.768 111.605C166.306 111.153 168.742 110.283 171.296 109.833C172.628 109.597 173.9 108.615 174.51 107.017C174.048 107.081 173.686 107.109 173.336 107.181C170.738 107.725 168.14 108.261 165.55 108.833C164.07 109.159 162.544 109.305 161.13 109.911L161.128 109.913Z" fill="#090A0C"/>
<path d="M190.69 102.901C192.976 102.627 195.14 101.889 197.314 101.185C198.162 101.099 199.012 101.015 199.806 100.669C200.272 100.465 200.674 100.593 200.94 100.973C201.224 101.379 200.852 101.637 200.596 101.881C199.88 102.563 199.146 103.225 198.664 104.107C198.088 104.987 197.29 105.431 196.228 105.573C195.23 105.707 194.256 106.037 193.272 106.281C191.19 106.595 189.116 106.997 187.024 107.191C185.7 107.315 184.482 107.719 183.264 108.149C182.592 108.387 182.21 108.201 181.818 107.699C181.396 107.159 181.194 106.517 181.036 105.893C180.866 105.219 181.476 105.003 181.99 104.875C183.528 104.493 185.074 104.137 186.62 103.787C187.974 103.479 189.334 103.193 190.69 102.897V102.901ZM194.894 104.703L194.87 104.709C196.83 104.865 197.992 103.841 198.688 102.127C198.766 102.097 198.844 102.069 198.922 102.039C198.902 102.015 198.884 101.977 198.86 101.973C198.75 101.951 198.678 101.989 198.676 102.113C197.298 102.115 196.056 102.775 194.708 102.927C194.488 102.933 194.234 102.833 194.102 103.119C191.55 103.971 188.846 104.131 186.264 104.845C185.982 104.585 185.798 104.935 185.562 104.959C184.672 105.187 183.782 105.417 182.89 105.643C182.49 105.745 181.968 105.715 182.23 106.409C182.44 106.961 182.656 107.327 183.378 107.053C184.168 106.753 185 106.557 185.854 106.499C186.086 106.509 186.326 106.559 186.486 106.319C187.1 106.203 187.708 106.039 188.326 105.979C190.424 105.773 192.486 105.373 194.542 104.933L194.57 104.927C194.696 104.879 194.858 104.887 194.89 104.707L194.894 104.703Z" fill="#090A0C"/>
<path d="M134.988 99.7549C137.238 99.0149 139.488 98.2729 141.738 97.5329C143.944 97.0889 146.17 97.3689 148.388 97.3489C148.6 97.3469 148.876 97.4528 149.02 97.6068C149.874 98.5128 150.654 99.4749 151.674 100.231C152.17 100.599 151.854 101.237 151.162 101.309C149.386 101.491 147.674 101.989 145.93 102.321C143.464 102.667 141.026 103.125 138.698 104.045C137.698 104.275 136.698 104.503 135.7 104.739C134.428 105.041 134.1 104.839 133.724 103.579C133.612 103.203 133.368 102.867 133.256 102.493C132.852 101.125 133.156 100.513 134.45 99.9948C134.632 99.9228 134.808 99.8368 134.988 99.7568V99.7549ZM141.968 98.7149C141.912 98.6809 141.848 98.6089 141.804 98.6209C139.356 99.2389 136.962 100.025 134.63 100.997C134.238 101.161 134.142 101.487 134.16 101.895C134.224 103.327 135.034 103.941 136.428 103.575C139.254 102.831 142.034 101.911 144.932 101.451C146.708 101.169 148.472 100.809 150.316 100.471C149.752 99.8289 149.298 99.3049 148.836 98.7889C148.588 98.5109 148.298 98.3049 147.902 98.3029C146.274 98.2929 144.646 98.2668 143.02 98.2788C142.626 98.2828 142.17 98.2649 141.948 98.7329L141.97 98.7168L141.968 98.7149Z" fill="#090A0C"/>
<path d="M185.414 95.5289C185.844 94.1049 187.448 93.3829 188.8 93.9969C189.15 94.1569 189.212 94.4469 189.264 94.7969C189.482 96.2589 189.586 97.7409 190.042 99.1629C190.316 100.015 189.864 100.367 189.074 100.437C189.008 100.445 188.942 100.447 188.878 100.461C186.66 100.917 186.174 100.617 185.744 98.3709C185.566 97.4369 185.52 96.4769 185.414 95.5269V95.5289ZM188.9 98.7969C188.59 98.5409 189.148 97.5529 188.234 97.7709C187.748 97.8869 186.778 97.4769 186.764 98.3889C186.756 98.8749 186.786 99.8149 187.718 99.7269C188.176 99.6829 188.932 99.7709 188.9 98.7969ZM186.47 96.1549C186.576 96.3549 186.21 97.0429 187.038 96.9549C187.65 96.8889 188.414 96.8609 188.43 96.0549C188.44 95.5909 188.534 94.8049 187.538 94.8649C186.744 94.9129 186.344 95.1669 186.47 96.1569V96.1549Z" fill="#C1D2EE"/>
<path d="M164.348 101.193C163.572 102.2 162.602 102.259 161.438 101.371C161.438 102.555 161.468 103.587 161.424 104.615C161.402 105.131 161.708 106.033 160.976 106.035C160.114 106.039 160.524 105.105 160.496 104.589C160.432 103.395 160.482 102.195 160.474 100.999C160.472 100.571 160.572 100.191 160.968 99.9828C161.444 99.7308 161.702 100.135 161.984 100.393C163.006 101.329 163 101.331 163.682 100.143C163.9 99.7648 164.054 99.3668 164.122 98.9328C164.164 98.6668 164.352 98.5208 164.616 98.5368C164.874 98.5548 165.098 98.7328 165.072 98.9808C164.882 100.881 165.718 102.621 165.9 104.461C165.938 104.845 166.014 105.369 165.444 105.393C164.88 105.417 164.892 104.913 164.926 104.511C165.016 103.411 164.242 102.499 164.342 101.193H164.348Z" fill="#C1D2EE"/>
<path d="M184.294 94.8328C184.316 94.8988 184.362 94.9368 184.432 94.9468C184.646 96.6088 185.386 98.1708 185.302 99.9028C185.262 100.713 185.04 101.149 184.24 101.441C181.99 102.267 181.4 102.075 181.088 99.7528C180.948 98.7208 180.918 97.7008 180.964 96.6828C181.008 95.6908 181.966 95.5328 182.656 95.2168C183.156 94.9888 183.746 94.9548 184.296 94.8328H184.294ZM181.904 97.9408C181.81 98.6528 181.984 99.3288 182.176 100.003C182.282 100.375 182.136 101.083 182.796 100.861C183.36 100.673 184.286 100.847 184.328 99.7828C184.368 98.7948 184.174 97.8628 183.832 96.9588C183.7 96.6128 183.928 95.9808 183.414 95.9588C182.906 95.9388 182.394 96.2788 182.042 96.6848C181.736 97.0368 181.956 97.5208 181.904 97.9408Z" fill="#C1D2EE"/>
<path d="M156.45 103.501C156.988 103.339 157.532 103.195 158.058 103.009C158.382 102.895 158.722 102.705 158.884 103.161C159.026 103.555 158.716 103.757 158.406 103.919C157.94 104.163 157.394 104.141 156.938 104.485C156.222 105.025 156.324 105.729 156.346 106.449C156.358 106.841 156.446 107.361 155.864 107.343C155.338 107.327 155.358 106.845 155.362 106.427C155.378 105.165 155.448 103.897 155.354 102.643C155.272 101.543 155.854 100.959 156.698 100.565C157.506 100.187 158.372 99.9368 159.212 99.6328C159.55 99.5108 159.906 99.4708 160.054 99.8748C160.188 100.241 159.89 100.397 159.594 100.513C158.976 100.753 158.368 101.027 157.742 101.237C156.66 101.601 156.27 102.247 156.45 103.499V103.501Z" fill="#C1D2EE"/>
<path d="M169.538 100.983C169.538 101.513 169.54 102.045 169.538 102.575C169.534 103.159 169.392 103.815 170.34 103.793C170.544 103.789 170.678 104.009 170.67 104.227C170.66 104.447 170.506 104.601 170.298 104.639C169.714 104.745 169.128 104.839 168.542 104.915C168.218 104.957 167.94 104.845 167.826 104.511C167.71 104.169 167.842 103.901 168.188 103.823C168.61 103.731 168.572 103.425 168.574 103.133C168.58 101.939 168.564 100.743 168.584 99.5488C168.594 99.0028 168.46 98.7868 167.91 99.0968C167.618 99.2608 167.25 99.4308 167.062 98.9968C166.862 98.5368 167.258 98.3408 167.586 98.1888C167.914 98.0368 168.264 97.8948 168.618 97.8408C169.158 97.7588 169.532 97.9748 169.536 98.5888C169.54 99.3848 169.536 100.181 169.536 100.979H169.542L169.538 100.983Z" fill="#C1D2EE"/>
<path d="M179.406 99.2709C179.406 99.7349 179.402 100.199 179.406 100.665C179.41 101.125 179.458 101.543 180.09 101.519C180.336 101.509 180.552 101.629 180.582 101.911C180.612 102.193 180.42 102.339 180.188 102.413C179.62 102.593 179.052 102.769 178.476 102.917C178.174 102.995 177.848 102.971 177.716 102.627C177.582 102.281 177.764 102.039 178.11 101.967C178.396 101.909 178.458 101.785 178.45 101.495C178.416 100.269 178.43 99.0409 178.402 97.8149C178.396 97.5909 178.488 97.1669 178.09 97.2269C177.624 97.2989 177.35 97.2129 177.348 96.7309C177.348 96.2809 177.614 95.9849 178.066 95.9149C178.518 95.8449 178.928 95.8849 179.112 96.4189C179.366 97.1529 179.442 97.9029 179.406 98.6729C179.396 98.8709 179.406 99.0709 179.406 99.2709Z" fill="#C1D2EE"/>
<path d="M144.74 111.481C146.37 111.193 147.994 110.851 149.666 110.949C149.93 110.965 150.198 110.967 150.458 111.013C151.952 111.283 152.112 111.931 151.52 113.343C150.842 114.957 149.35 114.931 148.11 115.455C144.118 116.555 140.034 117.237 135.988 118.085C135.504 118.187 135.034 118.359 134.56 118.509C133.274 118.919 132.586 118.261 132.306 116.993C131.96 115.425 132.726 114.925 133.926 114.417C136.538 113.307 139.294 112.741 142.038 112.117C142.94 111.911 143.842 111.695 144.742 111.483L144.74 111.481ZM134.334 115.511L134.358 115.503C134.066 115.345 133.822 115.533 133.628 115.675C133.016 116.119 133.292 116.785 133.4 117.305C133.528 117.919 134.042 117.657 134.454 117.511C134.89 117.357 135.336 117.209 135.788 117.117C140.178 116.225 144.6 115.479 148.904 114.183C149.68 113.949 150.146 113.533 150.574 112.915C151.014 112.277 150.948 111.957 150.13 111.965C149.266 111.971 148.388 111.903 147.544 112.041C143.212 112.755 138.948 113.767 134.764 115.107C134.694 115.141 134.624 115.177 134.556 115.211C134.472 115.303 134.304 115.335 134.334 115.511Z" fill="#090A0C"/>
<path d="M140.736 106.719C141.83 106.929 142.448 107.527 142.36 108.703C142.062 110.097 141.66 110.533 140.686 110.521C139.506 110.507 138.288 108.655 138.852 107.617C139.224 106.933 140.034 106.875 140.736 106.719ZM141.346 108.547C141.394 107.975 141.07 107.719 140.572 107.781C140.274 107.819 139.706 107.767 139.818 108.317C139.914 108.789 139.886 109.471 140.622 109.507C141.276 109.539 141.294 109.009 141.346 108.547Z" fill="#090A0C"/>
<path d="M222.251 95.0908C220.469 95.5628 218.691 96.0688 216.859 95.3148C216.673 95.1168 216.49 94.9188 216.306 94.7208C216.17 92.1948 216.036 89.6688 215.892 87.1428C215.848 86.3748 216.322 85.9388 216.859 85.5308C218.555 84.9728 220.327 85.0948 222.069 84.9368C222.539 84.8948 222.727 85.1628 222.917 85.5888C224.041 88.1248 224.153 90.7908 224.053 93.4968C224.033 94.0428 223.767 94.3508 223.313 94.5688C222.959 94.7388 222.535 94.7728 222.253 95.0908H222.251ZM217.02 89.4968C216.89 90.8348 217.299 92.3748 217.267 93.9388C217.259 94.2988 217.425 94.4728 217.771 94.5568C219.599 95.0028 221.245 94.4808 222.829 93.6288C223.019 93.5268 223.073 93.3288 223.079 93.1168C223.153 90.8128 223.103 88.5308 222.125 86.3688C221.953 85.9888 221.761 85.8548 221.389 85.8888C220.267 85.9908 219.143 86.0888 218.021 86.2008C217.325 86.2708 216.938 86.5908 217.004 87.3688C217.057 87.9968 217.013 88.6308 217.013 89.4968H217.02Z" fill="#090A0C"/>
<path d="M196.282 99.1248C195.44 99.0728 195.058 98.5848 194.962 97.7848C194.888 97.1608 194.772 96.5428 194.674 95.9228C194.642 94.9788 194.928 94.0148 194.456 93.0988C194.328 92.8508 194.494 92.6528 194.706 92.5188C195.548 91.9848 196.444 91.5408 197.426 91.3808C198.406 91.2208 198.912 91.6048 199.014 92.5648C199.17 94.0168 199.42 95.4408 199.82 96.8448C200.052 97.6588 199.64 98.2048 198.868 98.4408C198.014 98.7008 197.144 98.8988 196.28 99.1248H196.282ZM197.362 92.3388C196.91 92.7228 195.788 92.5248 195.706 93.4108C195.576 94.8168 195.552 96.2608 195.954 97.6608C196.038 97.9548 196.152 98.1828 196.484 98.0988C197.192 97.9208 197.894 97.7208 198.59 97.5048C198.914 97.4048 198.928 97.1348 198.836 96.8508C198.418 95.5508 198.204 94.2128 198.084 92.8568C198.052 92.5048 197.88 92.3048 197.362 92.3388Z" fill="#C1D2EE"/>
<path d="M202.812 89.9708C203.866 89.9368 204.414 90.3588 204.572 91.1028C204.84 92.3708 205.318 93.5708 205.688 94.8048C205.956 95.6968 205.676 96.2128 204.816 96.4648C203.96 96.7148 203.086 96.8968 202.254 97.2448C201.39 97.6048 200.9 97.0928 200.718 96.3328C200.504 95.4348 200.278 94.5268 200.316 93.5868C200.342 92.9168 200.298 92.2568 199.948 91.6648C199.668 91.1908 199.868 90.8608 200.288 90.7168C201.192 90.4068 202.12 90.1708 202.814 89.9708H202.812ZM204.714 95.0228C204.35 93.8188 203.974 92.5488 203.58 91.2828C203.49 90.9928 203.248 90.8648 202.948 90.9388C202.466 91.0588 201.986 91.1948 201.512 91.3428C201.298 91.4108 201.004 91.4908 201.078 91.7928C201.412 93.1508 201.174 94.5788 201.604 95.9268C201.704 96.2448 201.826 96.3548 202.172 96.2348C202.86 95.9968 203.564 95.7968 204.264 95.5928C204.528 95.5148 204.798 95.4668 204.714 95.0228Z" fill="#C1D2EE"/>
<path d="M203.368 100.319C203.002 100.319 202.72 100.307 202.698 99.9387C202.674 99.5507 202.982 99.4367 203.268 99.3547C205.404 98.7427 207.54 98.1207 209.686 97.5427C210.806 97.2407 211.944 97.0067 213.078 96.7627C213.434 96.6867 213.89 96.6127 213.998 97.0847C214.114 97.5907 213.638 97.6427 213.29 97.7147C210.106 98.3887 206.986 99.3007 203.866 100.213C203.676 100.269 203.478 100.297 203.37 100.321L203.368 100.319Z" fill="#090A0C"/>
<path d="M217.864 97.2988C217.93 97.3068 217.996 97.3248 218.06 97.3188C219.936 97.1548 220.694 97.7548 220.04 100.091C219.444 101.075 218.506 101.031 217.584 100.823C216.924 100.673 216.536 100.177 216.468 99.4628C216.362 98.3668 216.95 97.7328 217.864 97.3008V97.2988ZM219.294 98.9768C219.342 98.5168 219.172 98.2468 218.686 98.3328C218.168 98.4248 217.494 98.3028 217.44 99.1348C217.398 99.7648 217.76 99.9248 218.3 99.9308C218.962 99.9408 219.248 99.5848 219.294 98.9768Z" fill="#090A0C"/>
<path d="M208.184 103.095C206.932 103.047 206.61 102.719 206.672 101.551C206.732 100.439 207.85 99.2709 208.796 99.3329C209.78 99.3969 210.51 100.259 210.456 101.293C210.394 102.457 209.526 103.145 208.184 103.093V103.095ZM208.376 102.155C209.134 102.199 209.468 101.793 209.474 101.081C209.478 100.611 209.158 100.217 208.756 100.343C208.174 100.525 207.692 100.965 207.634 101.671C207.584 102.279 208.042 102.125 208.378 102.155H208.376Z" fill="#090A0C"/>
<path d="M213.271 98.5309C214.409 98.5569 215.473 99.2809 215.441 100.005C215.389 101.139 214.509 102.123 213.587 102.077C212.583 102.027 211.885 101.303 211.925 100.355C211.987 98.8809 212.263 98.5089 213.271 98.5309ZM214.275 100.291C214.375 99.7789 214.035 99.5729 213.611 99.5129C212.995 99.4269 213.057 99.9729 212.971 100.321C212.865 100.759 213.073 101.021 213.541 101.049C214.065 101.079 214.245 100.771 214.275 100.291Z" fill="#090A0C"/>
<path d="M109.973 113.017C110.119 110.969 110.235 108.923 111.577 107.181C113.241 105.023 115.441 104.249 118.068 104.567C119.608 104.753 121.17 104.853 122.554 105.717C125.31 107.439 127.054 109.713 126.748 113.147C126.466 116.311 124.892 118.695 122.074 120.073C119.96 121.109 117.674 120.789 115.455 120.207C114.657 119.997 113.841 119.819 113.075 119.519C111.301 118.829 110.593 117.293 110.221 115.589C110.039 114.757 109.863 113.895 109.975 113.017H109.973ZM115.669 119.203C115.767 119.267 115.869 119.321 115.963 119.207C115.969 119.201 115.863 119.105 115.811 119.049C113.775 117.189 113.395 114.783 113.617 112.213C113.839 109.637 114.759 107.355 116.954 105.471C115.495 105.581 114.405 105.867 113.467 106.641C110.855 108.795 110.053 114.693 112.007 117.467C112.277 117.849 112.581 118.333 113.019 118.387C113.965 118.501 114.737 119.099 115.669 119.203ZM114.537 113.565C114.537 115.589 114.649 115.949 115.957 117.743C117.046 119.239 119.76 120.111 121.328 119.307C122.662 118.621 123.9 117.733 124.716 116.399C127.038 112.599 125.596 108.017 121.45 106.289C119.784 105.595 117.266 105.789 116.075 107.751C115.043 109.447 114.503 111.251 114.537 113.565Z" fill="#090A0C"/>
<path d="M102.793 124.549C103.247 124.469 103.735 124.381 104.225 124.299C105.159 124.143 105.801 124.563 105.989 125.433C106.187 126.355 105.659 126.697 104.879 126.853C104.163 126.995 103.453 127.163 102.733 127.281C102.383 127.339 101.913 127.403 101.829 126.925C101.741 126.411 102.223 126.413 102.573 126.343C103.223 126.213 103.873 126.087 104.521 125.945C104.731 125.899 105.049 125.903 104.965 125.559C104.903 125.305 104.661 125.209 104.407 125.253C103.917 125.337 103.371 125.335 102.961 125.567C102.479 125.841 102.069 125.989 101.585 125.689C101.357 125.547 101.309 125.303 101.425 125.075C101.703 124.527 102.143 124.315 102.791 124.551L102.793 124.549Z" fill="#101112"/>
<path d="M102.296 115.779C103.344 115.749 104.286 115.913 104.864 116.947C105.028 117.239 105.314 117.493 105.084 117.839C104.802 118.261 104.318 118.185 103.9 118.185C103.53 118.185 103.322 117.937 103.222 117.567C102.938 116.519 102.876 116.501 101.962 117.161C101.625 117.405 101.271 117.397 100.931 117.227C100.651 117.085 100.469 116.821 100.519 116.491C100.585 116.065 100.915 115.893 101.299 115.841C101.627 115.797 101.962 115.801 102.292 115.783L102.296 115.779Z" fill="#090A0C"/>
<path d="M101.157 107.875C101.157 107.487 101.135 107.189 101.161 106.893C101.235 106.071 102.155 105.581 102.737 106.145C103.295 106.685 103.377 106.411 103.551 105.933C103.647 105.669 103.859 105.507 104.133 105.433C104.463 105.345 104.739 105.449 104.911 105.727C105.097 106.029 105.047 106.347 104.689 106.457C104.243 106.593 104.239 106.903 104.297 107.237C104.365 107.633 104.689 107.489 104.937 107.485C105.211 107.481 105.395 107.607 105.401 107.887C105.409 108.249 105.135 108.533 104.851 108.449C104.105 108.231 103.321 109.293 102.611 108.343C102.467 108.151 102.355 108.391 102.299 108.547C102.243 108.707 102.089 108.955 101.997 108.887C101.251 108.343 101.033 109.177 100.589 109.397C99.8526 109.761 99.4846 109.593 99.3226 108.769C99.2826 108.565 99.1326 108.523 99.0166 108.421C98.6226 108.071 98.6226 107.655 98.9046 107.263C99.2226 106.821 99.6946 106.663 100.229 106.783C100.479 106.839 100.643 107.037 100.583 107.303C100.481 107.753 100.795 107.779 101.155 107.875H101.157Z" fill="#101112"/>
<path d="M193.458 99.1148C193.424 99.4348 193.28 99.6928 192.92 99.6628C192.554 99.6328 192.462 99.3388 192.478 99.0208C192.494 98.7048 192.598 98.4068 192.984 98.4588C193.32 98.5048 193.442 98.7848 193.458 99.1148Z" fill="#B2BCCA"/>
<path d="M161.128 109.913C162.54 109.307 164.066 109.161 165.548 108.835C168.138 108.263 170.738 107.727 173.334 107.183C173.686 107.109 174.046 107.081 174.508 107.019C173.898 108.615 172.626 109.599 171.294 109.835C168.742 110.287 166.304 111.155 163.766 111.607C161.74 111.969 159.66 111.883 157.64 112.311C157.282 112.387 157.026 112.229 156.956 111.903C156.868 111.493 156.78 111.075 157.3 110.791C158.316 110.237 159.454 110.151 160.538 109.857C160.454 110.377 160.108 110.909 160.58 111.405C160.736 111.569 160.968 111.557 161.102 111.393C161.488 110.919 161.258 110.413 161.126 109.917L161.128 109.913ZM169.106 109.097C169.134 109.341 169.048 109.823 169.544 109.855C170.042 109.887 170.044 109.423 170.064 109.057C170.084 108.673 170.05 108.255 169.56 108.249C169.118 108.245 169.094 108.637 169.106 109.095V109.097Z" fill="#A2ACBC"/>
<path d="M161.128 109.913C161.26 110.409 161.49 110.915 161.104 111.389C160.97 111.553 160.738 111.565 160.582 111.401C160.11 110.905 160.456 110.373 160.54 109.853C160.764 109.587 160.934 109.867 161.128 109.911V109.913Z" fill="#101112"/>
<path d="M194.546 104.929C192.49 105.371 190.428 105.769 188.33 105.975C187.712 106.035 187.102 106.199 186.49 106.315C186.576 105.799 186.474 105.313 186.264 104.841C188.846 104.127 191.55 103.967 194.102 103.115C194.204 103.729 193.82 104.463 194.544 104.927L194.546 104.929Z" fill="#A2ACBC"/>
<path d="M194.708 102.925C196.054 102.773 197.298 102.115 198.676 102.111L198.69 102.127C197.992 103.839 196.83 104.863 194.87 104.709C195.24 104.075 194.886 103.509 194.708 102.925Z" fill="#A2ACBC"/>
<path d="M185.856 106.497C185.002 106.555 184.17 106.753 183.38 107.051C182.656 107.325 182.442 106.959 182.232 106.407C181.968 105.713 182.49 105.743 182.892 105.641C183.782 105.415 184.672 105.185 185.564 104.957C185.414 105.517 185.752 105.985 185.858 106.495L185.856 106.497Z" fill="#A2ACBC"/>
<path d="M194.708 102.925C194.886 103.509 195.24 104.077 194.87 104.709L194.894 104.703C194.788 104.777 194.68 104.849 194.574 104.923L194.546 104.929C193.822 104.467 194.206 103.733 194.104 103.117C194.236 102.831 194.49 102.929 194.71 102.925H194.708Z" fill="#101112"/>
<path d="M185.856 106.497C185.75 105.985 185.412 105.519 185.562 104.959C185.798 104.933 185.982 104.585 186.264 104.845C186.474 105.315 186.576 105.803 186.49 106.319C186.33 106.559 186.088 106.509 185.858 106.499L185.856 106.497Z" fill="#101112"/>
<path d="M198.676 102.113C198.68 101.989 198.752 101.951 198.86 101.973C198.884 101.979 198.902 102.017 198.922 102.039C198.844 102.069 198.766 102.097 198.688 102.127L198.674 102.111L198.676 102.113Z" fill="#A2ACBC"/>
<path d="M194.574 104.923C194.68 104.849 194.788 104.777 194.894 104.703C194.86 104.883 194.698 104.877 194.574 104.923Z" fill="#A2ACBC"/>
<path d="M141.946 98.7328C142.168 98.2648 142.624 98.2828 143.018 98.2788C144.646 98.2668 146.274 98.2928 147.9 98.3028C148.298 98.3048 148.586 98.5108 148.834 98.7888C149.296 99.3068 149.75 99.8288 150.314 100.471C148.468 100.809 146.706 101.169 144.93 101.451C142.032 101.911 139.25 102.829 136.426 103.575C135.032 103.943 134.222 103.329 134.158 101.895C134.14 101.487 134.236 101.161 134.628 100.997C136.96 100.025 139.354 99.2388 141.802 98.6208C141.846 98.6088 141.912 98.6828 141.966 98.7148C141.904 98.7848 141.854 98.8788 141.778 98.9228C141.066 99.3408 140.632 100.005 140.998 100.739C141.402 101.545 142.268 101.377 142.932 101.047C143.402 100.813 143.792 100.827 144.242 100.959C144.618 101.069 145.106 101.285 145.276 100.777C145.462 100.229 144.918 100.195 144.55 100.071C144.312 99.9908 143.956 100.023 143.892 99.7108C143.652 98.5428 142.78 98.6868 141.946 98.7308V98.7328Z" fill="#A2ACBC"/>
<path d="M188.9 98.7968C188.934 99.7708 188.176 99.6828 187.718 99.7268C186.786 99.8148 186.756 98.8748 186.764 98.3888C186.778 97.4768 187.748 97.8868 188.234 97.7708C189.148 97.5528 188.59 98.5408 188.9 98.7968Z" fill="#425064"/>
<path d="M186.47 96.1547C186.344 95.1667 186.744 94.9107 187.538 94.8627C188.534 94.8027 188.44 95.5887 188.43 96.0527C188.414 96.8587 187.65 96.8867 187.038 96.9527C186.21 97.0427 186.576 96.3527 186.47 96.1527V96.1547Z" fill="#425064"/>
<path d="M181.904 97.9408C181.956 97.5208 181.736 97.0368 182.042 96.6848C182.394 96.2808 182.906 95.9388 183.414 95.9588C183.928 95.9808 183.702 96.6108 183.832 96.9588C184.176 97.8628 184.368 98.7948 184.328 99.7828C184.286 100.847 183.358 100.673 182.796 100.861C182.136 101.083 182.282 100.373 182.176 100.003C181.984 99.3308 181.808 98.6528 181.904 97.9408Z" fill="#374459"/>
<path d="M134.764 115.107C138.948 113.767 143.212 112.755 147.544 112.041C148.388 111.901 149.266 111.971 150.13 111.965C150.948 111.959 151.014 112.279 150.574 112.915C150.146 113.533 149.68 113.951 148.904 114.183C144.6 115.477 140.18 116.223 135.788 117.117C135.336 117.209 134.89 117.357 134.454 117.511C134.042 117.657 133.528 117.919 133.4 117.305C133.292 116.785 133.016 116.119 133.628 115.675C133.822 115.533 134.066 115.345 134.358 115.503C134.214 115.937 134.006 116.395 134.566 116.693C134.822 116.831 135.162 116.793 135.228 116.509C135.33 116.065 135.522 115.525 134.882 115.251C134.832 115.229 134.802 115.157 134.764 115.107ZM137.388 115.787C137.054 115.609 137.076 114.967 136.532 114.921C136.132 114.887 135.972 115.237 135.988 115.599C136.014 116.143 136.436 116.293 136.876 116.355C137.18 116.397 137.378 116.235 137.388 115.789V115.787ZM147.732 112.511C147.388 112.505 147.08 112.591 147.128 112.975C147.178 113.379 147.416 113.737 147.856 113.785C148.206 113.823 148.522 113.629 148.51 113.227C148.496 112.751 148.124 112.595 147.734 112.511H147.732ZM145.404 114.279C145.772 114.183 145.916 113.937 145.872 113.611C145.818 113.211 145.578 112.941 145.158 112.933C144.818 112.927 144.542 113.125 144.644 113.479C144.75 113.849 144.996 114.175 145.404 114.281V114.279Z" fill="#A2ACBC"/>
<path d="M134.764 115.107C134.804 115.157 134.832 115.229 134.882 115.251C135.52 115.525 135.33 116.063 135.228 116.509C135.162 116.793 134.824 116.831 134.566 116.693C134.006 116.395 134.214 115.937 134.358 115.503L134.334 115.511C134.492 115.473 134.526 115.345 134.556 115.211C134.626 115.177 134.696 115.141 134.764 115.107Z" fill="#101112"/>
<path d="M134.556 115.211C134.528 115.345 134.492 115.473 134.334 115.511C134.304 115.335 134.472 115.303 134.556 115.211Z" fill="#A2ACBC"/>
<path d="M141.346 108.547C141.294 109.009 141.276 109.539 140.622 109.507C139.886 109.471 139.914 108.789 139.818 108.317C139.706 107.767 140.274 107.819 140.572 107.781C141.07 107.717 141.394 107.975 141.346 108.547Z" fill="#364357"/>
<path d="M217.02 89.4968C217.02 88.6328 217.062 87.9968 217.01 87.3688C216.944 86.5908 217.332 86.2688 218.028 86.2008C219.15 86.0888 220.272 85.9908 221.396 85.8888C221.768 85.8548 221.96 85.9888 222.132 86.3688C223.11 88.5328 223.157 90.8128 223.085 93.1168C223.079 93.3288 223.023 93.5268 222.835 93.6288C221.25 94.4808 219.606 95.0028 217.778 94.5568C217.432 94.4728 217.266 94.2988 217.274 93.9388C217.306 92.3748 216.896 90.8328 217.026 89.4968H217.02ZM218.92 88.5468C218.156 88.6168 218.204 89.1128 218.28 89.5208C218.444 90.4008 218.614 91.2748 218.678 92.1728C218.728 92.8628 219.36 93.0788 219.916 92.6248C220.458 92.1808 220.888 91.6248 221.234 91.0128C221.384 90.7468 221.488 90.4008 221.272 90.1628C220.598 89.4168 219.64 89.0848 218.92 88.5468Z" fill="#A2ACBC"/>
<path d="M197.362 92.3389C197.88 92.3049 198.052 92.5069 198.084 92.8569C198.204 94.2129 198.418 95.5509 198.836 96.8509C198.928 97.1349 198.912 97.4049 198.59 97.5049C197.894 97.7229 197.192 97.9209 196.484 98.0989C196.152 98.1829 196.038 97.9549 195.954 97.6609C195.55 96.2609 195.576 94.8169 195.706 93.4109C195.788 92.5249 196.91 92.7229 197.362 92.3389Z" fill="#374459"/>
<path d="M204.714 95.0229C204.798 95.4669 204.528 95.5169 204.264 95.5929C203.564 95.7969 202.862 95.9969 202.172 96.2349C201.826 96.3549 201.704 96.2429 201.604 95.9269C201.176 94.5809 201.412 93.1529 201.078 91.7929C201.004 91.4929 201.298 91.4109 201.512 91.3429C201.986 91.1929 202.466 91.0589 202.948 90.9389C203.248 90.8649 203.49 90.9949 203.58 91.2829C203.974 92.5469 204.35 93.8189 204.714 95.0229Z" fill="#374459"/>
<path d="M219.294 98.9768C219.248 99.5848 218.962 99.9408 218.3 99.9308C217.76 99.9228 217.398 99.7648 217.44 99.1348C217.496 98.3008 218.17 98.4248 218.686 98.3328C219.172 98.2468 219.342 98.5168 219.294 98.9768Z" fill="#A2ACBC"/>
<path d="M208.376 102.155C208.042 102.125 207.584 102.281 207.634 101.671C207.692 100.965 208.174 100.525 208.756 100.343C209.16 100.217 209.478 100.611 209.474 101.081C209.468 101.793 209.134 102.199 208.376 102.155Z" fill="#A2ACBC"/>
<path d="M214.276 100.291C214.246 100.771 214.066 101.081 213.542 101.049C213.074 101.021 212.866 100.757 212.972 100.321C213.056 99.9708 212.996 99.4248 213.612 99.5128C214.036 99.5728 214.376 99.7788 214.276 100.291Z" fill="#A2ACBC"/>
<path d="M114.536 113.565C114.502 111.251 115.042 109.449 116.074 107.751C117.266 105.789 119.784 105.595 121.45 106.289C125.596 108.017 127.038 112.599 124.716 116.399C123.9 117.733 122.662 118.621 121.328 119.307C119.76 120.111 117.046 119.239 115.956 117.743C114.648 115.949 114.534 115.589 114.536 113.565ZM120.444 113.319C120.838 113.243 120.982 112.981 120.95 112.601C120.92 112.265 120.746 112.013 120.4 112.015C120.002 112.017 119.81 112.303 119.826 112.679C119.842 113.045 120.024 113.307 120.444 113.319Z" fill="#A5B0C0"/>
<path d="M115.668 119.203C114.736 119.099 113.964 118.501 113.018 118.387C112.58 118.335 112.276 117.851 112.006 117.467C110.052 114.693 110.854 108.795 113.466 106.641C114.404 105.867 115.494 105.581 116.954 105.471C114.758 107.355 113.838 109.635 113.616 112.213C113.394 114.783 113.774 117.189 115.81 119.049C115.762 119.101 115.716 119.151 115.668 119.203Z" fill="#A2ACBC"/>
<path d="M115.81 119.049C115.864 119.103 115.968 119.199 115.962 119.207C115.868 119.321 115.766 119.267 115.668 119.203C115.716 119.153 115.762 119.101 115.81 119.049Z" fill="#A2ACBC"/>
<path d="M169.106 109.097C169.094 108.639 169.118 108.245 169.56 108.251C170.05 108.255 170.084 108.675 170.064 109.059C170.044 109.425 170.042 109.889 169.544 109.857C169.05 109.825 169.134 109.343 169.106 109.099V109.097Z" fill="#101112"/>
<path d="M141.946 98.7328C142.78 98.6888 143.652 98.5448 143.892 99.7128C143.956 100.025 144.312 99.9928 144.55 100.073C144.918 100.197 145.462 100.231 145.276 100.779C145.104 101.287 144.618 101.071 144.242 100.961C143.792 100.829 143.402 100.815 142.932 101.049C142.268 101.379 141.402 101.547 140.998 100.741C140.63 100.007 141.066 99.3428 141.778 98.9248C141.856 98.8788 141.904 98.7868 141.966 98.7168L141.946 98.7328Z" fill="#101112"/>
<path d="M137.388 115.787C137.378 116.235 137.18 116.395 136.876 116.353C136.436 116.293 136.012 116.141 135.988 115.597C135.972 115.237 136.132 114.887 136.532 114.919C137.076 114.965 137.054 115.605 137.388 115.785V115.787Z" fill="#101112"/>
<path d="M147.732 112.511C148.122 112.595 148.496 112.749 148.508 113.227C148.52 113.629 148.204 113.823 147.854 113.785C147.416 113.737 147.176 113.379 147.126 112.975C147.078 112.589 147.388 112.505 147.73 112.511H147.732Z" fill="#101112"/>
<path d="M145.404 114.279C144.998 114.173 144.75 113.847 144.644 113.477C144.542 113.123 144.818 112.925 145.158 112.931C145.578 112.939 145.818 113.207 145.872 113.609C145.916 113.937 145.772 114.181 145.404 114.277V114.279Z" fill="#101112"/>
<path d="M218.92 88.5468C219.64 89.0848 220.598 89.4188 221.272 90.1628C221.488 90.4028 221.384 90.7468 221.234 91.0128C220.888 91.6248 220.458 92.1808 219.916 92.6248C219.362 93.0788 218.728 92.8608 218.678 92.1728C218.614 91.2748 218.444 90.4008 218.28 89.5208C218.204 89.1128 218.156 88.6168 218.92 88.5468Z" fill="#090A0C"/>
<path d="M120.444 113.319C120.024 113.305 119.842 113.043 119.826 112.679C119.808 112.303 120 112.019 120.4 112.015C120.746 112.013 120.92 112.265 120.95 112.601C120.984 112.981 120.838 113.243 120.444 113.319Z" fill="#101112"/>
</g>
<defs>
<clipPath id="clip0_2624_68449">
<rect width="161.243" height="72.462" fill="white" transform="translate(69.2029 63.2108)"/>
</clipPath>
</defs>
</svg>
