<svg width="300" height="200" viewBox="0 0 300 200" fill="none" xmlns="http://www.w3.org/2000/svg">
<g clip-path="url(#clip0_2624_68141)">
<path d="M214.482 150.005C213.43 146.705 212.242 143.459 210.678 140.363C210.376 139.767 209.948 139.249 209.454 138.793C209.156 138.519 208.798 138.199 208.41 138.273C207.29 138.491 207.242 137.741 207.066 136.989C206.274 133.599 205.312 130.277 202.89 127.615C202.592 127.287 202.796 127.089 202.958 126.841C207.192 120.315 206.922 113.691 203.464 106.957C202.772 105.611 201.366 104.629 201.19 103.087C201.018 101.579 201.254 100.027 201.264 98.495C201.31 91.863 201.244 85.231 201.392 78.603C201.778 61.147 202.46 43.697 202.344 26.229C202.334 24.765 201.814 23.915 200.65 23.283C198.012 21.847 195.206 20.925 192.196 20.821C187.512 20.659 183.554 22.669 179.772 25.149C179.366 25.415 179.4 25.811 179.428 26.219C179.616 28.979 179.652 31.743 179.692 34.509C179.89 48.009 179.236 61.497 179.144 74.991C179.144 75.139 179.206 75.333 178.898 75.421C174.554 70.827 169.11 67.867 163.251 65.647C152.363 61.525 141.177 60.139 129.603 62.009C122.939 63.087 116.635 65.023 110.869 68.581C108.125 70.275 105.281 71.803 102.967 74.135C93.3171 83.851 87.1412 95.317 85.1012 108.945C83.5912 119.029 83.8792 128.991 86.7832 138.811C88.8492 145.799 91.5892 152.445 96.7751 157.787C98.1191 159.173 99.5011 160.529 100.939 161.819C107.653 167.843 115.011 172.875 123.411 176.293C127.067 177.781 130.933 178.219 134.793 178.693C140.447 179.391 146.093 179.365 151.707 178.291C159.979 176.709 167.438 173.211 174.388 168.557C179.556 165.095 184.234 161.053 188.45 156.255C188.71 156.841 188.91 157.335 189.144 157.811C189.918 159.391 190.502 161.061 191.506 162.531C191.896 163.101 192.334 163.261 193.008 163.237C195.502 163.149 197.852 162.369 200.228 161.757C204.356 160.693 208.498 159.603 211.916 156.851C214.194 155.017 215.408 152.893 214.488 150.003L214.482 150.005ZM204.378 131.653C205.26 133.697 205.922 135.801 206.258 138.003C206.334 138.787 204.906 140.195 204.198 140.027C203.912 139.959 203.91 139.687 203.838 139.475C202.76 136.263 201.084 133.347 199.21 130.559C198.306 129.215 197.042 128.141 195.688 127.205C195.48 127.061 195.282 126.987 195.09 126.969C195.058 126.965 195.026 126.965 194.994 126.965C194.962 126.965 194.93 126.965 194.898 126.969C194.646 126.991 194.398 127.099 194.148 127.257C193.416 127.729 192.652 128.121 191.84 128.381C191.514 128.485 191.182 128.567 190.84 128.625C190.668 128.655 190.496 128.677 190.32 128.693C189.344 128.983 188.348 128.727 187.364 128.805C186.954 128.837 186.92 128.603 187.13 128.305C187.206 128.197 187.292 128.093 187.388 128.003C189.738 125.813 192.418 124.347 195.722 124.403C195.928 124.407 196.128 124.431 196.324 124.471C196.454 124.497 196.584 124.531 196.71 124.571C196.838 124.611 196.962 124.657 197.086 124.707C197.646 124.931 198.18 125.243 198.72 125.511C199.818 126.155 200.814 126.891 201.684 127.743C201.686 127.745 201.688 127.747 201.69 127.749C202.06 128.113 202.408 128.497 202.732 128.903C203.384 129.721 203.936 130.633 204.374 131.651L204.378 131.653ZM202.128 141.161C201.084 141.707 201.024 141.673 200.996 140.507C200.956 138.861 200.986 137.213 200.986 135.395C201.864 136.981 202.49 138.499 203.032 140.057C203.35 140.969 202.542 140.943 202.128 141.159V141.161ZM180.686 134.515C180.682 133.997 180.79 133.735 181.362 133.995C181.572 134.091 181.81 134.125 182.022 134.217C182.686 134.503 183.898 134.287 183.996 134.843C184.202 136.009 184.552 137.233 184.146 138.477C183.39 140.797 182.094 142.817 180.692 144.841C180.692 143.361 180.692 141.883 180.692 140.403C180.692 138.441 180.702 136.477 180.686 134.515ZM184.092 133.655C180.946 133.199 178.418 131.649 176.358 129.313C174.358 127.047 173.638 124.309 173.442 121.331C173.158 117.007 173.514 112.775 174.752 108.621C174.772 108.551 174.798 108.481 174.824 108.413C174.906 108.207 175.008 108.009 175.096 107.805C175.614 106.229 176.36 104.825 177.602 103.781C177.888 103.541 178.202 103.319 178.544 103.119C179.142 102.771 179.348 102.897 179.336 103.599C179.312 104.959 179.35 106.317 179.49 107.679C179.722 109.941 179.316 112.121 178.712 114.323C177.95 117.095 177.866 119.973 178.57 122.787C179.262 125.553 181.004 127.425 183.586 128.741C185.528 129.733 187.486 129.575 189.49 129.649C191.036 129.707 192.434 129.303 193.798 128.615C194.298 128.363 194.692 127.651 195.368 127.977C196.22 128.391 196.816 129.145 197.392 129.871C197.674 130.225 197.526 130.655 197.064 130.847C195.048 131.687 193.09 132.691 190.888 132.997C188.644 133.413 186.424 133.995 184.096 133.657L184.092 133.655ZM179.686 144.973C179.514 144.917 179.414 144.909 179.346 144.857C171.844 139.089 163.937 133.905 156.073 128.657C154.273 127.455 152.523 126.179 150.735 124.959C150.213 124.603 149.991 124.213 150.119 123.551C150.309 122.569 150.383 121.557 150.177 120.569C150.059 120.005 150.243 119.729 150.723 119.469C153.061 118.195 155.369 116.867 157.711 115.599C163.337 112.551 168.714 109.095 174.13 105.701C174.418 105.521 174.666 105.201 175.098 105.273C175.098 105.385 175.132 105.493 175.094 105.565C172.492 110.495 172.242 115.819 172.448 121.225C172.642 126.339 174.824 130.291 179.232 132.959C179.5 133.121 179.694 133.285 179.692 133.649C179.68 137.403 179.686 141.155 179.686 144.969V144.973ZM141.935 75.983C141.881 75.293 142.147 75.067 142.681 75.209C151.129 75.951 158.735 78.767 165.726 83.293C168.02 84.777 170.16 86.471 172.182 88.321C172.914 88.991 172.832 89.399 172.23 90.067C168.548 94.159 164.667 98.045 160.645 101.799C156.285 105.869 151.937 109.951 147.619 114.067C147.091 114.571 146.785 114.565 146.219 114.179C145.137 113.439 143.917 112.945 142.601 112.861C141.855 112.815 141.733 112.547 141.675 111.843C140.739 100.479 141.533 89.131 141.913 77.777C141.933 77.177 141.981 76.573 141.935 75.979V75.983ZM180.69 119.629C180.618 119.629 180.548 119.629 180.476 119.629C180.476 115.013 180.484 110.399 180.468 105.783C180.464 104.821 180.382 103.861 180.316 102.901C180.288 102.483 180.4 102.177 180.838 102.073C181.344 101.953 181.346 102.405 181.468 102.673C183.574 107.337 184.816 112.241 185.546 117.293C185.954 120.125 186.146 122.969 186.106 125.827C186.1 126.289 186.05 126.753 185.986 127.213C185.788 128.619 185.78 128.623 184.448 128.017C183.994 127.811 183.54 127.597 183.112 127.345C181.546 126.423 180.364 125.319 180.662 123.219C180.828 122.045 180.692 120.827 180.692 119.629H180.69ZM180.228 101.211C175.922 103.121 172.12 105.895 168.104 108.301C168.076 108.317 168.046 108.331 168.016 108.345C167.926 108.383 167.826 108.407 167.734 108.441C166.534 109.369 165.241 110.155 163.933 110.911C163.497 111.163 163.059 111.413 162.623 111.663C158.565 113.987 154.463 116.231 150.395 118.533C149.977 118.769 149.837 118.801 149.621 118.313C149.247 117.467 148.759 116.671 148.317 115.853C147.777 115.567 147.697 115.285 148.195 114.821C152.117 111.175 156.033 107.521 159.927 103.847C164.309 99.713 168.7 95.589 172.638 91.017C173.586 89.917 173.604 89.867 174.526 90.931C177.004 93.793 178.904 97.021 180.476 100.455C180.646 100.829 180.642 101.029 180.224 101.215L180.228 101.211ZM146.117 115.055C146.319 115.157 146.513 115.307 146.663 115.479C149.305 118.535 150.133 121.919 148.493 125.813C148.395 126.047 148.271 126.263 148.131 126.467C147.897 126.807 147.617 127.113 147.327 127.411C146.359 128.987 145.061 130.091 143.383 130.581C142.995 130.695 142.589 130.775 142.161 130.821C138.151 131.253 136.017 128.269 135.231 125.067C134.465 121.945 135.335 119.117 136.669 116.353C136.703 116.281 136.743 116.217 136.791 116.165C136.871 116.077 136.975 116.021 137.119 116.019C137.173 115.497 137.391 115.133 137.739 114.895C137.947 114.753 138.203 114.657 138.501 114.601C138.703 114.467 138.905 114.331 139.109 114.197C139.157 113.899 139.317 113.833 139.509 113.841C139.545 113.841 139.581 113.845 139.617 113.851C139.673 113.859 139.729 113.869 139.785 113.879C142.055 113.421 144.125 114.053 146.121 115.055H146.117ZM140.919 76.573C140.737 82.715 140.585 88.857 140.303 94.995C140.135 98.653 140.261 102.301 140.363 105.951C140.417 107.905 140.583 109.859 140.745 111.809C140.753 111.909 140.757 112.001 140.753 112.085C140.751 112.165 140.743 112.237 140.731 112.303C140.651 112.735 140.357 112.897 139.749 112.775C138.845 112.789 138.107 113.133 137.501 113.745C137.415 113.833 137.331 113.925 137.249 114.023C136.855 114.501 136.659 114.465 136.397 113.851C134.857 110.237 133.863 106.445 132.731 102.699C131.521 98.697 130.643 94.617 129.995 90.493C129.289 85.997 128.981 81.465 129.101 76.907C129.117 76.301 129.385 76.067 129.937 76.043C132.309 75.519 134.705 75.213 137.135 75.195C137.867 75.189 138.603 75.223 139.327 75.143C140.807 74.977 140.963 75.053 140.919 76.571V76.573ZM132.425 105.225C133.371 108.345 134.279 111.477 135.575 114.475C135.907 115.243 136.013 115.915 135.445 116.587C135.023 117.087 135.191 118.067 134.509 118.223C133.915 118.359 133.211 118.043 132.561 117.909C126.009 116.545 119.415 115.429 112.753 114.765C110.433 114.533 108.103 114.419 105.769 114.445C103.071 114.397 100.377 114.401 97.6831 114.639C96.3671 114.755 96.3431 114.693 96.4831 113.377C97.2551 106.149 99.2451 99.291 102.811 92.931C104.581 89.775 106.821 87.055 109.811 84.905C114.773 81.335 119.997 78.369 125.993 76.937C126.651 76.779 127.323 76.681 127.989 76.555C128.013 77.215 128.057 77.875 128.057 78.535C128.057 87.671 129.785 96.523 132.425 105.227V105.225ZM97.3131 115.617C101.069 115.339 104.833 115.323 108.589 115.463C112.967 115.627 117.307 116.243 121.639 116.917C122.085 116.987 122.533 117.059 122.979 117.133C126.101 117.649 129.203 118.263 132.313 118.849C132.829 119.063 133.583 118.947 133.991 119.209C134.085 119.269 134.161 119.349 134.211 119.459C134.451 119.983 134.023 120.787 133.983 121.475C133.929 122.369 133.885 123.281 133.995 124.165C134.069 124.745 133.935 124.849 133.417 124.847C131.791 124.845 130.169 124.839 128.541 125.013C125.513 125.337 122.473 125.561 119.437 125.809C117.489 125.967 115.537 126.107 113.587 126.231C108.895 126.529 104.197 126.759 99.5531 127.585C98.7751 127.723 97.9651 127.641 97.1811 127.825C96.8011 127.913 96.5551 127.763 96.5331 127.307C96.4911 126.481 96.4091 125.657 96.3431 124.831C96.3351 122.099 96.3471 119.369 96.3071 116.637C96.2951 115.879 96.6351 115.673 97.3151 115.621L97.3131 115.617ZM97.5431 128.763C101.635 128.271 105.721 127.737 109.835 127.439C116.447 126.961 123.053 126.427 129.663 125.917C130.029 125.889 130.395 125.865 130.759 125.839C130.759 125.829 130.759 125.819 130.759 125.809C131.825 125.809 132.891 125.809 133.957 125.809C134.083 125.809 134.239 125.777 134.331 125.837C134.863 126.179 135.283 128.613 134.923 129.213C130.375 136.779 125.405 144.071 120.507 151.411C118.621 154.237 116.709 157.043 114.727 159.803C114.267 160.443 113.945 160.439 113.317 160.033C106.467 155.613 102.247 149.231 99.5311 141.707C98.1331 137.837 97.3471 133.827 96.7471 129.769C96.6431 129.065 96.8611 128.843 97.5371 128.761L97.5431 128.763ZM116.411 159.175C123.013 149.603 129.501 139.955 135.587 130.043C135.927 129.491 136.167 129.257 136.663 129.847C137.529 130.881 138.661 131.501 139.961 131.769C140.471 131.873 140.447 132.093 140.301 132.437C139.317 134.761 138.329 137.083 137.343 139.407C137.273 139.483 137.205 139.557 137.135 139.633C137.137 139.633 137.139 139.631 137.141 139.629C137.063 139.995 136.965 140.355 136.857 140.713C136.759 141.035 136.657 141.355 136.543 141.671C136.143 142.781 135.659 143.861 135.243 144.963C133.273 150.193 131.655 155.535 130.001 160.867C129.523 162.407 128.651 163.757 128.159 165.275C128.035 165.659 127.767 165.697 127.453 165.639C124.107 165.025 120.851 164.127 117.849 162.469C117.769 162.425 117.721 162.319 117.659 162.241C117.625 162.241 117.591 162.251 117.559 162.241C115.077 161.573 114.985 161.245 116.413 159.175H116.411ZM129.299 165.059C131.787 159.955 132.855 154.357 134.797 149.059C136.835 143.501 138.943 137.977 141.303 132.547C141.487 132.121 141.661 131.835 142.207 131.803C143.719 131.715 145.051 131.093 146.181 130.119C146.731 129.645 146.989 129.783 147.449 130.223C154.309 136.779 161.007 143.507 168.09 149.825C169.554 151.131 171.104 152.343 172.618 153.593C172.9 153.825 173.254 153.981 172.786 154.411C169.154 157.741 165.634 161.283 161.205 163.513C155.913 166.177 150.223 167.469 144.235 167.107C143.771 167.079 143.303 167.103 142.611 167.103C138.551 166.803 134.269 166.475 129.985 166.179C129.139 166.121 128.883 165.915 129.301 165.057L129.299 165.059ZM171.934 151.783C170.622 150.711 169.306 149.643 168.114 148.433C167.134 147.755 166.268 146.949 165.418 146.127C164.909 145.633 164.403 145.133 163.883 144.653C161.317 142.281 158.857 139.795 156.337 137.373C153.675 134.815 151.001 132.267 148.313 129.737C147.767 129.223 147.571 128.855 148.181 128.193C148.873 127.441 149.321 126.487 149.791 125.501C151.529 126.733 153.227 127.937 154.923 129.139C158.677 131.361 162.195 133.937 165.8 136.383C169.13 138.643 172.452 140.915 175.74 143.235C176.986 144.115 178.132 145.137 179.318 146.101C179.754 146.455 179.832 146.795 179.392 147.263C177.706 149.059 176.048 150.881 174.398 152.707C174.032 153.113 173.73 153.275 173.242 152.863C172.81 152.499 172.374 152.141 171.938 151.783H171.934ZM179.664 115.045V122.673C178.934 120.131 179.052 117.585 179.664 115.045ZM185.646 134.729C186.67 134.677 187.704 134.687 188.72 134.467C188.844 134.439 189.02 134.391 189.172 134.387C189.424 134.379 189.608 134.493 189.364 135.035C189.104 136.873 189.276 138.627 189.718 140.329C189.816 140.707 189.928 141.083 190.052 141.455C190.36 142.387 190.742 143.305 191.168 144.215C191.674 144.811 191.642 145.191 190.77 145.311C190.448 145.355 190.142 145.523 189.828 145.635C188.436 146.125 188.422 146.131 187.844 144.819C186.894 142.661 185.814 140.545 185.42 138.187C185.262 137.239 185.206 136.273 185.114 135.315C185.078 134.937 185.146 134.757 185.646 134.733V134.729ZM190.46 134.745C190.536 134.393 190.61 134.111 191.02 134.039C192.966 133.699 194.76 132.893 196.578 132.171C197.11 131.959 197.434 131.927 197.308 132.669C196.796 136.263 196.368 139.891 195.122 143.351C194.928 143.889 193.15 144.765 192.63 144.577C192.52 144.537 192.414 144.419 192.356 144.311C190.798 141.307 189.72 138.211 190.46 134.747V134.745ZM198.364 131.189C199.24 132.339 199.946 133.271 199.93 134.661C199.904 136.881 199.78 139.113 200.1 141.327C200.158 141.731 200.048 142.029 199.628 142.191C198.58 142.595 197.538 143.019 196.276 143.523C197.42 139.387 198.196 135.445 198.366 131.189H198.364ZM201.2 105.339C202.086 106.501 202.83 107.677 203.338 108.999C204.148 110.719 204.684 112.467 204.938 114.241C205.264 116.521 205.124 118.847 204.5 121.217C204.448 121.295 204.396 121.375 204.344 121.453C204.328 121.505 204.312 121.557 204.298 121.609C204.124 122.793 203.66 123.845 203.078 124.845C202.814 125.299 202.524 125.741 202.226 126.179C201.938 126.601 201.632 126.309 201.374 126.135C200.604 125.617 199.88 125.023 199.08 124.559C198.534 124.243 198.626 124.003 198.882 123.549C199.708 122.077 200.546 120.615 201 118.953C201.282 117.925 200.898 116.985 200.904 116.003C200.932 112.485 200.84 108.965 201.204 105.341L201.2 105.339ZM180.36 61.097C180.746 50.875 180.688 40.653 180.668 30.429C180.666 29.201 180.544 27.973 180.494 26.743C180.49 26.663 180.482 26.581 180.476 26.499C180.456 26.253 180.454 26.003 180.676 25.803C184.654 23.021 188.35 21.693 192.11 21.803C192.132 21.803 192.156 21.805 192.178 21.805C192.556 21.817 192.934 21.843 193.312 21.885C193.71 21.929 194.11 21.989 194.51 22.063C196.312 22.403 198.146 23.065 200.048 24.049C200.994 24.539 201.348 25.277 201.342 26.311C201.314 32.477 201.356 38.643 201.284 44.807C201.22 50.301 201.124 55.799 200.868 61.289C200.726 64.349 200.926 67.421 200.542 70.471C200.228 80.229 200.462 89.991 200.28 99.749C200.186 104.771 199.948 109.793 199.874 114.819C199.852 116.245 199.792 117.677 199.754 119.107C199.728 120.113 199.044 120.855 198.712 121.859C198.314 121.477 198.334 121.119 198.312 120.769C197.446 107.243 193.55 94.737 185.76 83.547C184.218 81.333 182.538 79.229 180.646 77.303C180.268 76.917 180.108 76.525 180.1 75.983C180.024 71.019 180.174 66.055 180.362 61.099L180.36 61.097ZM186.624 156.917C181.73 162.025 176.318 166.467 170.216 170.051C163.553 173.967 156.485 176.785 148.769 177.793C143.581 178.471 138.419 178.079 133.233 177.571C123.037 176.575 114.803 171.409 106.893 165.517C102.717 162.405 98.8231 158.949 95.5291 154.895C91.8392 150.351 89.6532 145.025 87.9832 139.485C85.8932 132.553 84.7572 125.469 85.1412 118.209C85.3972 113.389 85.9092 108.585 87.0552 103.881C89.6712 93.153 94.9331 83.883 102.533 75.905C106.203 72.053 110.705 69.449 115.427 67.149C118.713 65.549 122.215 64.675 125.733 63.775C132.369 62.081 139.081 61.909 145.851 62.441C145.925 62.447 145.997 62.457 146.071 62.471C146.289 62.513 146.507 62.581 146.725 62.631C147.485 62.665 148.241 62.735 148.989 62.833C151.237 63.127 153.443 63.667 155.645 64.219C161.361 65.649 166.826 67.747 171.816 70.887C177.734 74.611 182.09 79.911 185.968 85.625C187.5 87.883 188.912 90.221 189.992 92.741C190.112 92.959 190.23 93.179 190.344 93.399C191.152 94.941 191.858 96.529 192.38 98.197C193.494 100.807 194.352 103.495 195.026 106.237C195.25 107.151 195.454 108.071 195.64 108.997C196.586 112.575 197.68 121.641 197.41 123.743C193.426 122.517 190.372 124.691 187.088 126.665C187.088 125.865 187.094 125.185 187.088 124.505C186.968 113.475 183.946 103.275 178.06 93.979C173.704 87.101 167.318 82.533 160.099 79.043C154.499 76.335 148.609 74.675 142.387 74.229C142.293 74.223 142.197 74.213 142.103 74.203C141.915 74.181 141.725 74.151 141.537 74.119C141.325 74.081 141.113 74.037 140.901 73.995C140.643 73.941 140.387 73.889 140.129 73.843C139.965 74.033 139.765 74.057 139.559 74.051C139.435 74.047 139.311 74.031 139.191 74.035C131.913 74.191 124.921 75.619 118.271 78.649C114.127 80.537 110.367 83.037 106.941 85.985C103.573 88.885 101.569 92.803 99.7811 96.793C97.8011 101.207 96.6051 105.865 95.7931 110.617C95.5211 112.209 95.3411 113.831 95.3311 115.459C95.3171 117.551 95.1471 119.651 95.1851 121.729C95.2751 126.697 95.8511 131.631 96.9771 136.489C98.1791 141.677 100.127 146.571 102.989 151.059C104.017 152.671 105.343 154.099 106.583 155.565C110.385 160.059 115.361 162.879 120.759 164.845C124.153 166.081 127.687 167.067 131.385 167.257C134.327 167.409 137.267 167.663 140.207 167.877C142.125 168.015 144.045 167.999 145.963 168.185C149.365 168.517 152.549 167.255 155.817 166.593C156.881 166.377 157.901 165.989 158.981 165.857C160.117 165.167 161.431 164.835 162.529 164.065C166.128 161.537 169.546 158.789 172.72 155.737C175.092 153.455 177.33 151.053 179.496 148.573C181.498 146.281 182.84 143.621 184.162 140.933C184.294 140.665 184.412 140.389 184.546 140.121C184.57 140.075 184.646 140.057 184.784 139.973C185.56 141.995 186.338 143.997 187.3 145.919C187.35 146.019 187.34 146.189 187.29 146.295C186.152 148.709 186.554 151.157 187.438 153.467C188.014 154.973 187.66 155.833 186.62 156.917H186.624ZM212.928 154.291C212.6 154.783 212.234 155.227 211.838 155.627C210.648 156.831 209.176 157.657 207.568 158.301C206.168 159.093 204.628 159.515 203.102 159.973C202.116 160.265 201.13 160.559 200.138 160.821C199.978 160.863 199.816 160.905 199.656 160.945C198.678 161.193 197.692 161.409 196.69 161.561C196.684 161.563 196.676 161.567 196.67 161.569C196.57 161.603 196.474 161.649 196.38 161.697C196.328 161.723 196.276 161.747 196.224 161.771C196.146 161.805 196.068 161.837 195.984 161.857C195.9 161.877 195.816 161.887 195.724 161.881C195.446 161.939 195.17 162.007 194.892 162.067C194.24 162.209 193.586 162.311 192.906 162.145C192.482 162.195 192.25 161.955 192.06 161.657C192.032 161.615 192.006 161.571 191.98 161.527C191.474 160.671 191.044 159.777 190.702 158.841C189.334 155.913 187.818 153.033 187.666 149.703C187.658 149.523 187.666 149.343 187.678 149.161C187.69 148.981 187.706 148.799 187.716 148.619C187.702 148.503 187.694 148.395 187.696 148.293C187.698 148.191 187.704 148.099 187.72 148.011C187.752 147.837 187.814 147.687 187.91 147.557C188.104 147.297 188.432 147.111 188.92 146.947C193.826 145.281 198.824 143.851 203.514 141.599C204.648 141.055 205.694 140.329 206.806 139.733C207.316 139.459 207.82 138.881 208.49 139.447C208.81 139.509 209.034 139.667 209.21 139.869C209.26 139.927 209.306 139.989 209.352 140.053C209.506 140.277 209.628 140.531 209.772 140.767C210.86 142.833 211.792 144.963 212.558 147.153C213.018 148.467 213.418 149.803 213.758 151.161C214.038 152.281 213.856 153.421 212.93 154.291H212.928Z" fill="#0D0D0E"/>
<path d="M187.294 146.295C187.344 146.189 187.354 146.019 187.304 145.919C186.342 143.997 185.564 141.995 184.788 139.973C184.65 140.057 184.572 140.075 184.55 140.121C184.416 140.389 184.298 140.665 184.166 140.933C182.844 143.621 181.502 146.281 179.5 148.573C177.334 151.053 175.098 153.457 172.724 155.737C169.55 158.789 166.133 161.537 162.533 164.065C161.437 164.835 160.121 165.167 158.985 165.857C156.995 167.039 154.805 167.731 152.611 168.383C147.925 169.775 143.113 170.323 138.237 170.381C136.639 170.401 135.045 170.427 133.449 170.555C131.739 170.693 130.083 170.187 128.437 169.811C124.451 168.899 120.399 168.137 116.751 166.191C112.343 163.841 107.999 161.363 104.515 157.675C99.9851 152.881 96.5071 147.519 95.1491 140.923C94.1091 135.873 93.0492 130.819 92.6252 125.685C92.3192 121.983 92.2872 118.233 93.0672 114.545C93.7752 111.195 94.3631 107.815 95.3291 104.527C96.7831 99.577 98.2631 94.635 101.425 90.407C106.581 83.509 112.881 78.109 121.085 75.151C123.493 74.283 126.035 74.159 128.539 73.899C131.547 73.587 134.571 73.337 137.605 73.465C138.457 73.501 139.321 73.517 140.133 73.843C140.391 73.889 140.647 73.943 140.905 73.995C141.117 74.039 141.329 74.081 141.541 74.119C141.729 74.153 141.917 74.183 142.107 74.203C142.201 74.213 142.297 74.223 142.391 74.229C148.613 74.675 154.503 76.335 160.103 79.043C167.321 82.535 173.708 87.101 178.064 93.979C183.95 103.275 186.97 113.475 187.092 124.505C187.1 125.185 187.092 125.865 187.092 126.665C190.376 124.691 193.43 122.517 197.414 123.743C197.684 121.641 196.59 112.575 195.644 108.997C195.222 109.177 195.058 109.613 194.752 109.911C193.76 110.875 192.366 110.859 191.306 109.935C190.206 108.977 189.588 107.823 189.25 106.401C188.824 104.597 188.22 102.831 187.626 101.071C187.218 99.863 187.78 99.105 188.636 98.415C189.71 97.547 190.554 97.403 191.546 97.983C191.82 98.143 192.068 98.261 192.384 98.195C191.862 96.527 191.156 94.939 190.348 93.397C190.232 93.177 190.114 92.957 189.996 92.739C189.686 93.221 189.312 93.683 188.824 93.947C186.568 95.173 185.076 95.023 183.986 92.671C181.748 87.837 178.372 83.911 174.522 80.371C170.26 76.451 165.347 73.539 159.957 71.389C156.559 70.035 153.109 68.917 149.517 68.221C148.469 68.019 147.505 67.637 146.749 66.777C145.849 65.753 145.665 64.799 146.339 63.619C146.517 63.307 146.803 63.041 146.729 62.629C146.511 62.581 146.295 62.511 146.075 62.469C146.003 62.455 145.929 62.445 145.855 62.439C139.085 61.907 132.373 62.079 125.737 63.773C122.219 64.671 118.717 65.547 115.431 67.147C110.707 69.445 106.205 72.049 102.537 75.903C94.9371 83.881 89.6752 93.149 87.0592 103.879C85.9132 108.583 85.4012 113.385 85.1452 118.207C84.7612 125.467 85.8972 132.551 87.9872 139.483C89.6572 145.023 91.8432 150.349 95.5331 154.893C98.8271 158.947 102.719 162.403 106.897 165.515C114.807 171.407 123.041 176.573 133.237 177.569C138.423 178.077 143.585 178.467 148.773 177.791C156.487 176.783 163.555 173.965 170.22 170.049C176.322 166.465 181.734 162.023 186.628 156.915C187.668 155.831 188.022 154.971 187.446 153.465C186.562 151.155 186.16 148.707 187.298 146.293L187.294 146.295Z" fill="#737099"/>
<path d="M141.538 74.1209C141.326 74.0829 141.114 74.0389 140.902 73.9969C141.114 74.0409 141.326 74.0829 141.538 74.1209Z" fill="#737099"/>
<path d="M142.102 74.2049C141.914 74.1829 141.724 74.1529 141.536 74.1209C141.724 74.1549 141.912 74.1849 142.102 74.2049Z" fill="#737099"/>
<path d="M180.644 77.299C182.536 79.225 184.216 81.329 185.758 83.543C193.548 94.733 197.444 107.239 198.31 120.765C198.332 121.115 198.312 121.473 198.71 121.855C199.044 120.851 199.726 120.111 199.752 119.103C199.79 117.673 199.852 116.241 199.872 114.815C199.946 109.789 200.184 104.769 200.278 99.745C200.46 89.987 200.226 80.225 200.54 70.467C200.18 68.897 199.834 67.325 199.456 65.759C198.788 62.991 198.108 60.223 197.412 57.463C197.312 57.063 197.314 56.673 197.314 56.277C197.31 52.845 197.364 49.413 197.296 45.981C197.228 42.497 197.112 39.011 196.882 35.535C196.728 33.215 195.454 31.473 193.408 30.407C189.894 28.575 186.258 27.047 182.324 26.329C181.764 26.227 181.086 26.395 180.674 25.799C180.452 25.999 180.454 26.247 180.474 26.495C180.48 26.577 180.49 26.659 180.492 26.739C180.542 27.969 180.664 29.197 180.666 30.425C180.684 40.649 180.744 50.871 180.358 61.093C180.17 66.049 180.02 71.011 180.096 75.977C180.104 76.519 180.264 76.911 180.642 77.297L180.644 77.299Z" fill="#4D4C60"/>
<path d="M137.601 73.465C134.567 73.337 131.543 73.587 128.535 73.899C126.031 74.159 123.491 74.283 121.081 75.151C112.877 78.109 106.575 83.509 101.421 90.407C98.2609 94.637 96.7789 99.577 95.3249 104.527C94.3589 107.815 93.7709 111.195 93.0629 114.545C92.285 118.233 92.317 121.983 92.6209 125.685C93.0449 130.819 94.1049 135.873 95.1449 140.923C96.5029 147.519 99.9809 152.881 104.511 157.675C107.995 161.361 112.339 163.841 116.747 166.191C120.397 168.135 124.449 168.899 128.433 169.811C130.079 170.187 131.735 170.693 133.445 170.555C135.041 170.427 136.635 170.399 138.233 170.381C143.109 170.323 147.92 169.775 152.606 168.383C154.8 167.731 156.99 167.039 158.98 165.857C157.9 165.989 156.88 166.377 155.816 166.593C152.548 167.255 149.364 168.517 145.962 168.185C144.044 167.999 142.123 168.015 140.207 167.877C137.267 167.665 134.327 167.411 131.385 167.257C127.687 167.065 124.153 166.081 120.759 164.845C115.361 162.877 110.385 160.059 106.583 155.565C105.341 154.097 104.015 152.669 102.989 151.059C100.127 146.571 98.1809 141.677 96.9769 136.489C95.8509 131.633 95.2749 126.697 95.1849 121.729C95.1469 119.651 95.3189 117.551 95.3309 115.459C95.3409 113.831 95.5209 112.209 95.7929 110.617C96.6049 105.865 97.8009 101.207 99.7809 96.793C101.571 92.803 103.573 88.883 106.941 85.985C110.365 83.037 114.127 80.537 118.271 78.649C124.921 75.619 131.913 74.191 139.191 74.035C139.311 74.033 139.435 74.047 139.559 74.051C139.765 74.057 139.965 74.033 140.129 73.843C139.317 73.517 138.453 73.501 137.601 73.465Z" fill="#19173A"/>
<path d="M146.335 63.625C145.661 64.805 145.845 65.761 146.745 66.783C147.501 67.643 148.465 68.023 149.513 68.227C153.105 68.923 156.553 70.039 159.952 71.395C165.344 73.545 170.256 76.457 174.518 80.377C178.368 83.917 181.744 87.841 183.982 92.677C185.072 95.031 186.564 95.179 188.82 93.953C189.308 93.689 189.682 93.227 189.992 92.745C188.912 90.225 187.5 87.887 185.968 85.629C182.09 79.915 177.734 74.615 171.816 70.891C166.826 67.753 161.362 65.653 155.645 64.223C153.443 63.671 151.239 63.131 148.989 62.837C148.239 62.739 147.485 62.669 146.725 62.635C146.799 63.045 146.513 63.313 146.335 63.625Z" fill="#8885B0"/>
<path d="M174.53 90.9269C173.608 89.8629 173.59 89.9129 172.642 91.0129C168.702 95.5849 164.31 99.7089 159.93 103.843C156.034 107.519 152.12 111.173 148.198 114.817C147.698 115.281 147.78 115.565 148.32 115.849C149.604 114.917 151.158 114.621 152.594 114.055C157.274 112.209 161.986 110.445 166.682 108.639C167.032 108.505 167.364 108.391 167.74 108.439C167.832 108.405 167.932 108.381 168.022 108.343C168.052 108.331 168.082 108.317 168.11 108.299C172.126 105.891 175.928 103.119 180.234 101.209C180.65 101.025 180.656 100.823 180.486 100.449C178.914 97.0149 177.014 93.7869 174.536 90.9249L174.53 90.9269Z" fill="#4D4C60"/>
<path d="M180.676 25.801C181.09 26.395 181.766 26.227 182.326 26.331C186.26 27.049 189.896 28.575 193.41 30.409C195.456 31.475 196.73 33.219 196.884 35.537C197.114 39.013 197.23 42.499 197.298 45.983C197.366 49.413 197.312 52.847 197.316 56.279C197.316 56.675 197.314 57.067 197.414 57.465C198.11 60.227 198.79 62.993 199.458 65.761C199.836 67.327 200.182 68.899 200.542 70.469C200.926 67.419 200.726 64.349 200.868 61.287C201.124 55.799 201.218 50.301 201.284 44.805C201.356 38.641 201.314 32.475 201.342 26.309C201.346 25.275 200.994 24.537 200.048 24.047C198.148 23.063 196.314 22.401 194.51 22.061C194.11 21.985 193.71 21.925 193.312 21.883C192.932 21.841 192.554 21.815 192.178 21.803C192.156 21.803 192.132 21.801 192.11 21.801C188.35 21.691 184.654 23.019 180.676 25.801Z" fill="#62607C"/>
<path d="M139.327 75.145C138.603 75.225 137.865 75.191 137.135 75.197C134.703 75.215 132.307 75.521 129.937 76.045C131.597 83.275 133.227 90.513 134.931 97.733C136.105 102.711 137.443 107.643 139.647 112.291C139.715 112.437 139.717 112.613 139.749 112.775C140.357 112.897 140.653 112.735 140.731 112.303C140.743 112.237 140.751 112.163 140.753 112.085C140.755 112.001 140.753 111.907 140.745 111.809C140.585 109.859 140.417 107.905 140.363 105.951C140.261 102.301 140.135 98.653 140.303 94.995C140.585 88.857 140.737 82.715 140.919 76.573C140.963 75.055 140.807 74.979 139.327 75.145Z" fill="#4D4C60"/>
<path d="M139.747 112.777C140.355 112.899 140.651 112.735 140.729 112.305C140.649 112.737 140.355 112.899 139.747 112.777Z" fill="#4D4C60"/>
<path d="M96.3409 124.825C99.5569 124.875 102.745 124.499 105.945 124.251C112.423 123.749 118.745 122.413 125.039 120.889C127.095 120.391 129.157 119.919 131.209 119.407C131.605 119.309 132.091 119.313 132.313 118.845C129.205 118.259 126.101 117.647 122.979 117.129C122.533 117.055 122.087 116.983 121.639 116.913C117.307 116.239 112.967 115.621 108.589 115.459C104.833 115.319 101.069 115.335 97.3129 115.613C96.6329 115.663 96.2949 115.869 96.3049 116.629C96.3449 119.359 96.3329 122.091 96.3409 124.823V124.825Z" fill="#4D4C60"/>
<path d="M132.31 118.847C129.203 118.261 126.099 117.649 122.977 117.131C126.099 117.647 129.201 118.261 132.31 118.847Z" fill="#4D4C60"/>
<path d="M117.557 162.241C117.587 162.249 117.623 162.241 117.657 162.241C118.983 161.363 119.805 160.001 120.885 158.885C121.621 158.125 122.233 157.247 122.973 156.493C127.997 151.373 132.657 145.953 136.717 140.031C136.831 139.865 136.937 139.705 137.133 139.633C137.203 139.557 137.271 139.483 137.341 139.407C138.327 137.083 139.315 134.761 140.298 132.437C140.444 132.091 140.47 131.873 139.958 131.769C138.657 131.501 137.527 130.881 136.661 129.847C136.167 129.257 135.925 129.491 135.585 130.043C129.499 139.955 123.013 149.603 116.409 159.175C114.981 161.245 115.073 161.573 117.555 162.241H117.557Z" fill="#35334E"/>
<path d="M137.135 139.633C137.205 139.559 137.273 139.483 137.343 139.407C137.273 139.483 137.205 139.557 137.135 139.633Z" fill="#35334E"/>
<path d="M174.394 152.707C176.046 150.881 177.704 149.059 179.388 147.263C179.828 146.795 179.75 146.455 179.314 146.101C178.128 145.137 176.982 144.113 175.736 143.235C172.448 140.915 169.126 138.643 165.796 136.383C162.192 133.937 158.672 131.361 154.918 129.139C155.276 130.445 156.338 131.277 157.12 132.277C160.948 137.173 164.356 142.357 167.782 147.529C167.968 147.811 168.178 148.067 168.112 148.435C169.306 149.645 170.622 150.711 171.932 151.785C172.37 152.143 172.806 152.501 173.236 152.865C173.724 153.277 174.026 153.115 174.392 152.709L174.394 152.707Z" fill="#4D4C60"/>
<path d="M209.77 140.769C209.626 140.535 209.504 140.279 209.35 140.055C209.306 139.991 209.26 139.929 209.208 139.871C209.032 139.669 208.81 139.511 208.488 139.449C208.546 140.941 208.384 141.279 207.02 141.767C200.838 143.983 194.788 146.569 188.484 148.447C188.232 148.523 187.97 148.563 187.714 148.621C187.706 148.801 187.688 148.983 187.676 149.163C187.664 149.343 187.656 149.525 187.664 149.705C187.816 153.035 189.332 155.915 190.7 158.843C191.398 155.335 192.272 151.867 193.102 148.389C193.284 147.621 193.858 147.419 194.426 147.189C195.064 146.931 195.916 146.251 196.312 146.583C196.76 146.959 196.138 147.837 195.972 148.487C194.82 153.011 193.736 157.551 192.904 162.149C193.584 162.315 194.24 162.213 194.89 162.071C195.168 162.011 195.444 161.943 195.722 161.885C195.812 160.839 195.944 159.797 196.102 158.761C196.368 157.035 196.708 155.319 197.05 153.607C197.096 153.375 197.114 153.131 197.136 152.889C197.186 152.355 197.26 151.823 197.714 151.413C197.55 151.133 197.38 150.861 197.232 150.583C197.204 150.529 197.176 150.475 197.15 150.421C197.096 150.309 197.046 150.193 197.002 150.077C196.974 150.003 196.948 149.927 196.928 149.851C196.896 149.739 196.872 149.625 196.856 149.507C196.824 149.271 196.826 149.019 196.876 148.749C197.246 146.711 199.032 145.761 200.868 146.687C202.1 147.309 202.872 148.201 202.79 149.663C202.772 149.963 202.78 150.285 202.538 150.501C201.848 151.115 201.766 151.853 202.158 152.623C202.552 153.399 202.598 154.385 203.456 154.899C203.772 152.383 204.08 149.867 204.402 147.353C204.51 146.515 204.618 145.677 204.73 144.839C204.898 143.583 206.046 142.665 207.328 142.609C207.776 142.589 207.878 142.841 207.992 143.181C208.49 144.657 208.608 146.171 208.476 147.711C208.224 150.651 207.946 153.591 207.708 156.533C207.66 157.125 207.378 157.699 207.564 158.309C209.172 157.665 210.644 156.839 211.834 155.635C212.23 155.233 212.596 154.791 212.924 154.299C211.692 150.589 210.028 147.033 209.028 143.243C208.66 141.847 208.86 141.279 209.766 140.775L209.77 140.769Z" fill="#C38936"/>
<path d="M137.137 139.633H137.133C136.937 139.705 136.831 139.865 136.717 140.031C132.655 145.953 127.995 151.373 122.973 156.493C122.233 157.247 121.619 158.127 120.885 158.885C119.805 159.999 118.983 161.363 117.657 162.241C117.719 162.319 117.767 162.425 117.847 162.469C120.849 164.127 124.103 165.025 127.451 165.639C127.763 165.697 128.033 165.659 128.157 165.275C128.649 163.757 129.521 162.407 129.999 160.867C131.653 155.537 133.273 150.193 135.241 144.963C135.657 143.861 136.141 142.781 136.541 141.671C136.655 141.355 136.759 141.035 136.855 140.713C136.963 140.357 137.061 139.997 137.139 139.629C137.139 139.629 137.137 139.629 137.135 139.631L137.137 139.633Z" fill="#4D4C60"/>
<path d="M136.857 140.713C136.759 141.035 136.657 141.355 136.543 141.671C136.657 141.355 136.761 141.035 136.857 140.713Z" fill="#4D4C60"/>
<path d="M137.133 139.635L137.135 139.633L137.133 139.635Z" fill="#4D4C60"/>
<path d="M131.207 119.409C129.155 119.921 127.093 120.393 125.037 120.891C118.743 122.415 112.421 123.751 105.943 124.253C102.745 124.501 99.5548 124.877 96.3389 124.827C96.4049 125.653 96.4869 126.477 96.5289 127.303C96.5509 127.759 96.7989 127.909 97.1769 127.821C97.9609 127.639 98.7708 127.721 99.5488 127.581C104.193 126.755 108.889 126.525 113.583 126.227C115.535 126.103 117.485 125.963 119.433 125.805C122.469 125.557 125.509 125.335 128.537 125.009C130.165 124.835 131.787 124.841 133.413 124.843C133.931 124.843 134.065 124.741 133.991 124.161C133.879 123.277 133.925 122.367 133.979 121.471C134.019 120.785 134.449 119.979 134.207 119.455C134.157 119.345 134.081 119.265 133.987 119.205C133.579 118.945 132.825 119.059 132.309 118.845C132.085 119.313 131.601 119.309 131.205 119.407L131.207 119.409Z" fill="#35334E"/>
<path d="M133.991 119.207C133.583 118.947 132.829 119.061 132.313 118.847C132.829 119.061 133.583 118.945 133.991 119.207Z" fill="#35334E"/>
<path d="M190.884 132.995C190.954 131.113 190.312 130.529 188.47 130.403C186.736 130.283 184.956 130.489 183.276 129.817C180.414 128.669 178.754 126.437 177.702 123.661C176.336 120.053 176.252 116.367 177.012 112.617C177.214 111.627 177.486 110.633 177.158 109.579C176.778 108.355 176.378 107.945 175.094 107.807C175.006 108.011 174.904 108.211 174.822 108.415C174.794 108.483 174.77 108.553 174.75 108.623C173.512 112.777 173.158 117.009 173.44 121.333C173.636 124.311 174.358 127.049 176.356 129.315C178.416 131.651 180.942 133.201 184.09 133.657C186.418 133.995 188.638 133.413 190.882 132.997L190.884 132.995Z" fill="#545180"/>
<path d="M139.645 112.293C137.439 107.645 136.103 102.711 134.929 97.735C133.225 90.515 131.597 83.277 129.935 76.047C129.385 76.073 129.115 76.305 129.099 76.911C128.977 81.469 129.285 85.999 129.993 90.497C130.641 94.621 131.519 98.701 132.729 102.703C133.863 106.449 134.855 110.241 136.395 113.855C136.657 114.469 136.853 114.505 137.247 114.027C137.329 113.929 137.411 113.837 137.499 113.749C138.105 113.137 138.843 112.793 139.747 112.779C139.715 112.617 139.713 112.439 139.645 112.295V112.293Z" fill="#35334E"/>
<path d="M183.11 127.345C183.538 127.597 183.994 127.811 184.446 128.017C185.778 128.623 185.786 128.619 185.984 127.213C186.048 126.755 186.098 126.289 186.104 125.827C186.144 122.967 185.954 120.125 185.544 117.293C184.814 112.241 183.572 107.337 181.466 102.673C181.344 102.403 181.342 101.951 180.836 102.073C180.398 102.177 180.286 102.483 180.314 102.901C180.378 103.861 180.462 104.823 180.466 105.783C180.482 110.399 180.474 115.013 180.474 119.629C180.546 119.629 180.616 119.629 180.688 119.629C180.688 120.827 180.824 122.045 180.658 123.219C180.36 125.319 181.542 126.423 183.108 127.345H183.11Z" fill="#4D4C60"/>
<path d="M167.782 147.529C164.356 142.355 160.948 137.171 157.12 132.277C156.338 131.277 155.276 130.445 154.918 129.139C153.22 127.935 151.524 126.733 149.786 125.501C149.316 126.487 148.868 127.441 148.176 128.193C147.568 128.855 147.764 129.223 148.308 129.737C150.996 132.267 153.67 134.815 156.332 137.373C158.852 139.795 161.312 142.281 163.878 144.653C164.398 145.133 164.904 145.633 165.414 146.127C166.264 146.949 167.132 147.757 168.11 148.433C168.176 148.067 167.966 147.809 167.78 147.527L167.782 147.529Z" fill="#35334E"/>
<path d="M175.096 107.803C176.38 107.939 176.778 108.351 177.16 109.575C177.488 110.629 177.216 111.623 177.014 112.613C176.252 116.363 176.338 120.049 177.704 123.657C178.754 126.433 180.416 128.665 183.278 129.813C184.956 130.487 186.738 130.281 188.472 130.399C190.314 130.527 190.956 131.109 190.886 132.991C193.088 132.685 195.046 131.681 197.062 130.841C197.524 130.649 197.672 130.219 197.39 129.865C196.814 129.139 196.218 128.385 195.366 127.971C194.692 127.645 194.298 128.357 193.796 128.609C192.432 129.297 191.036 129.701 189.488 129.643C187.484 129.569 185.528 129.725 183.584 128.735C181.002 127.417 179.26 125.547 178.568 122.781C177.864 119.967 177.95 117.089 178.71 114.317C179.314 112.117 179.72 109.935 179.488 107.673C179.348 106.313 179.312 104.955 179.334 103.593C179.346 102.891 179.14 102.765 178.542 103.113C178.2 103.313 177.886 103.535 177.6 103.775C176.358 104.819 175.612 106.225 175.094 107.799L175.096 107.803Z" fill="#262452"/>
<path d="M139.103 114.197C138.901 114.331 138.699 114.467 138.495 114.601C138.135 115.171 137.641 115.611 137.115 116.019C137.125 116.165 137.085 116.303 137.041 116.441C137.011 116.533 136.981 116.625 136.961 116.721C136.931 116.863 136.923 117.011 136.983 117.173C137.331 118.103 138.017 118.395 138.933 117.951C139.155 117.845 139.375 117.731 139.597 117.627C140.209 117.343 140.833 117.135 141.539 117.365C141.567 117.373 141.595 117.387 141.623 117.397C141.659 117.411 141.697 117.423 141.735 117.439C141.993 117.447 142.251 117.453 142.511 117.461C142.605 117.497 142.699 117.531 142.793 117.567C142.969 117.653 143.147 117.739 143.323 117.825C143.599 117.855 143.799 117.959 143.877 118.181C143.903 118.255 143.915 118.341 143.913 118.443V118.447C144.793 118.563 144.967 119.335 145.153 119.957C145.677 121.709 145.675 123.483 145.049 125.227C144.825 125.849 144.491 126.437 145.039 127.085C145.623 127.773 146.293 127.709 147.027 127.439C147.117 127.407 147.225 127.421 147.323 127.415C147.613 127.117 147.893 126.811 148.127 126.471C148.267 126.267 148.391 126.051 148.489 125.817C150.131 121.923 149.301 118.541 146.659 115.483C146.511 115.311 146.317 115.161 146.113 115.059C144.115 114.057 142.047 113.425 139.777 113.883C139.599 114.089 139.399 114.251 139.101 114.201L139.103 114.197Z" fill="#737099"/>
<path d="M191.542 97.9889C190.552 97.4089 189.706 97.5529 188.632 98.4209C187.778 99.1109 187.216 99.8689 187.622 101.077C188.216 102.837 188.818 104.603 189.246 106.407C189.582 107.829 190.202 108.983 191.302 109.941C192.362 110.865 193.756 110.881 194.748 109.917C195.054 109.619 195.218 109.185 195.64 109.003C195.454 108.077 195.25 107.157 195.026 106.243C194.352 103.501 193.494 100.813 192.38 98.2029C192.066 98.2689 191.816 98.1509 191.542 97.9909V97.9889Z" fill="#8885B0"/>
<path d="M203.492 154.959C203.504 154.981 203.514 155.005 203.526 155.027C203.55 155.071 203.576 155.111 203.612 155.137C204.052 155.443 204.298 155.631 204.346 155.809C204.352 155.835 204.356 155.859 204.354 155.885C204.352 155.935 204.332 155.987 204.296 156.039C204.26 156.091 204.208 156.149 204.14 156.211C204.002 156.333 203.798 156.477 203.526 156.661C203.384 157.765 203.242 158.869 203.102 159.975C204.628 159.515 206.166 159.095 207.568 158.301C207.382 157.691 207.664 157.117 207.712 156.525C207.95 153.583 208.228 150.645 208.48 147.703C208.612 146.165 208.494 144.649 207.996 143.173C207.882 142.833 207.78 142.581 207.332 142.601C206.048 142.655 204.9 143.573 204.734 144.831C204.622 145.669 204.514 146.507 204.406 147.345C204.084 149.859 203.776 152.377 203.46 154.891C203.472 154.911 203.484 154.935 203.496 154.957L203.492 154.959Z" fill="#F2D16C"/>
<path d="M192.628 144.575C193.148 144.765 194.926 143.887 195.12 143.349C196.366 139.889 196.794 136.259 197.306 132.667C197.432 131.927 197.11 131.959 196.576 132.169C194.758 132.891 192.964 133.697 191.018 134.037C190.608 134.109 190.534 134.391 190.458 134.743C189.718 138.205 190.796 141.303 192.354 144.307C192.41 144.415 192.518 144.533 192.628 144.573V144.575Z" fill="#737099"/>
<path d="M147.323 127.411C147.223 127.417 147.117 127.403 147.027 127.435C146.293 127.705 145.625 127.769 145.039 127.081C144.489 126.433 144.825 125.845 145.049 125.223C145.675 123.481 145.677 121.705 145.153 119.953C144.967 119.331 144.791 118.561 143.913 118.443C144.505 119.703 145.055 120.941 144.951 122.423C144.789 124.749 142.833 126.179 140.637 125.437C139.513 125.057 138.877 124.123 138.969 122.785C139.039 121.765 139.189 120.741 139.403 119.741C139.669 118.495 140.779 118.027 141.733 117.437C141.695 117.421 141.659 117.409 141.621 117.395C141.593 117.385 141.565 117.373 141.537 117.363C140.831 117.135 140.207 117.341 139.595 117.625C139.373 117.729 139.153 117.843 138.931 117.949C138.013 118.391 137.329 118.099 136.981 117.171C136.921 117.009 136.927 116.863 136.959 116.719C136.979 116.625 137.011 116.533 137.039 116.439C137.083 116.301 137.121 116.163 137.113 116.017C136.969 116.017 136.865 116.075 136.785 116.163C136.737 116.215 136.697 116.281 136.663 116.351C135.331 119.115 134.459 121.943 135.225 125.065C136.011 128.267 138.145 131.253 142.155 130.819C142.583 130.773 142.991 130.693 143.377 130.579C145.055 130.089 146.351 128.985 147.321 127.409L147.323 127.411ZM142.729 127.895C142.675 128.803 141.985 129.251 140.649 129.253C138.299 129.237 137.129 127.617 136.183 125.817C135.631 124.765 135.219 123.613 135.841 122.385C136.023 122.025 136.077 121.631 136.609 121.617C137.135 121.603 137.633 121.629 137.885 122.173C138.065 122.561 138.223 122.971 138.311 123.389C138.493 124.255 138.859 125.021 139.395 125.715C139.735 126.155 140.143 126.429 140.737 126.449C142.255 126.499 142.789 126.907 142.731 127.897L142.729 127.895Z" fill="#262452"/>
<path d="M137.115 116.019C136.971 116.019 136.867 116.077 136.787 116.165C136.867 116.077 136.971 116.021 137.115 116.019Z" fill="#262452"/>
<path d="M137.04 116.441C137.01 116.533 136.98 116.625 136.96 116.721C136.98 116.627 137.012 116.535 137.04 116.441Z" fill="#262452"/>
<path d="M137.041 116.441C137.085 116.303 137.123 116.165 137.115 116.019C137.125 116.165 137.085 116.303 137.041 116.441Z" fill="#262452"/>
<path d="M141.734 117.437C141.696 117.421 141.66 117.409 141.622 117.395C141.658 117.409 141.696 117.421 141.734 117.437Z" fill="#262452"/>
<path d="M141.541 117.363C140.835 117.135 140.211 117.341 139.599 117.625C140.211 117.341 140.835 117.133 141.541 117.363Z" fill="#262452"/>
<path d="M204.194 136.995C203.518 135.205 202.894 133.373 201.532 131.939C201.33 131.727 201.322 131.461 201.276 131.203C200.942 129.273 200.222 127.525 198.876 126.069C198.73 125.911 198.706 125.715 198.722 125.511C198.182 125.241 197.648 124.929 197.088 124.705C196.964 124.655 196.838 124.609 196.712 124.569C196.584 124.529 196.456 124.495 196.326 124.469C196.13 124.429 195.93 124.405 195.724 124.401C192.42 124.347 189.74 125.811 187.39 128.001C187.294 128.091 187.206 128.195 187.132 128.303C186.924 128.601 186.958 128.835 187.366 128.803C188.35 128.725 189.348 128.983 190.322 128.691C191.23 127.293 192.822 126.695 194.15 127.255C194.402 127.097 194.648 126.989 194.9 126.967C194.932 126.965 194.964 126.963 194.996 126.963C195.028 126.963 195.06 126.963 195.092 126.967C195.284 126.985 195.482 127.059 195.69 127.203C197.044 128.139 198.308 129.211 199.212 130.557C201.086 133.345 202.762 136.261 203.84 139.473C203.91 139.683 203.912 139.957 204.2 140.025C204.906 140.193 206.336 138.785 206.26 138.001C204.768 138.623 204.806 138.609 204.196 136.993L204.194 136.995Z" fill="#8F5A25"/>
<path d="M166.678 108.641C161.985 110.449 157.271 112.213 152.591 114.057C151.157 114.623 149.601 114.919 148.317 115.851C148.757 116.669 149.245 117.465 149.621 118.311C149.837 118.801 149.977 118.769 150.395 118.531C154.465 116.229 158.567 113.985 162.623 111.661C163.059 111.411 163.497 111.161 163.933 110.909C165.24 110.153 166.534 109.367 167.734 108.439C167.36 108.391 167.026 108.503 166.676 108.639L166.678 108.641Z" fill="#35334E"/>
<path d="M192.904 162.147C193.736 157.551 194.82 153.011 195.972 148.485C196.138 147.835 196.76 146.959 196.312 146.581C195.916 146.249 195.064 146.929 194.426 147.187C193.858 147.417 193.284 147.621 193.102 148.387C192.272 151.865 191.398 155.333 190.7 158.841C191.04 159.777 191.47 160.671 191.978 161.527C192.004 161.571 192.03 161.615 192.058 161.657C192.25 161.955 192.48 162.195 192.904 162.143V162.147Z" fill="#F2D16C"/>
<path d="M201.942 111.249C201.842 112.303 201.894 113.377 201.922 114.439C201.974 116.401 201.936 118.345 201.224 120.217C201.132 120.457 201.126 120.735 201.106 120.999C201.062 121.585 201.11 122.119 201.73 122.443C202.362 122.773 202.888 122.533 203.406 122.217C203.712 122.031 203.89 121.657 204.294 121.609C204.308 121.557 204.324 121.505 204.34 121.453C204.392 121.375 204.444 121.295 204.496 121.217C205.122 118.847 205.26 116.521 204.934 114.241C204.68 112.467 204.144 110.721 203.334 108.999C202.148 109.299 202.028 110.317 201.938 111.249H201.942Z" fill="#545180"/>
<path d="M204.498 121.215C205.124 118.845 205.262 116.519 204.936 114.239C205.262 116.519 205.122 118.843 204.498 121.215Z" fill="#545180"/>
<path d="M203.528 156.661C202.568 156.909 201.61 157.161 200.648 157.405C200.326 157.487 199.892 157.427 200.152 157.031C200.706 156.187 200.238 155.437 200.108 154.661C200.016 154.111 199.742 153.589 199.662 153.037C199.544 152.235 199.152 151.875 198.346 151.973C197.71 155.155 197.136 158.349 196.69 161.565C197.692 161.415 198.678 161.197 199.656 160.949C199.816 160.909 199.978 160.867 200.138 160.825C201.13 160.561 202.116 160.269 203.102 159.977C203.244 158.873 203.386 157.767 203.526 156.663L203.528 156.661Z" fill="#C38936"/>
<path d="M200.994 118.951C200.54 120.611 199.702 122.073 198.876 123.547C198.622 124.001 198.53 124.241 199.074 124.557C199.874 125.021 200.598 125.613 201.368 126.133C201.626 126.307 201.934 126.599 202.22 126.177C202.518 125.739 202.808 125.297 203.072 124.843C203.654 123.845 204.118 122.791 204.292 121.607C203.888 121.655 203.708 122.027 203.404 122.215C202.886 122.531 202.36 122.773 201.728 122.441C201.108 122.117 201.06 121.583 201.104 120.997C201.124 120.735 201.13 120.457 201.222 120.215C201.934 118.345 201.972 116.399 201.92 114.437C201.892 113.373 201.84 112.301 201.94 111.247C202.028 110.313 202.15 109.297 203.336 108.997C202.828 107.675 202.084 106.499 201.198 105.337C200.836 108.961 200.926 112.481 200.898 115.999C200.89 116.981 201.274 117.921 200.994 118.949V118.951Z" fill="#262452"/>
<path d="M203.076 124.843C203.658 123.845 204.122 122.791 204.296 121.607C204.122 122.791 203.658 123.843 203.076 124.843Z" fill="#262452"/>
<path d="M188.484 148.449C194.788 146.571 200.838 143.985 207.02 141.769C208.384 141.281 208.546 140.943 208.488 139.451C207.818 138.885 207.314 139.463 206.804 139.737C205.692 140.333 204.646 141.059 203.512 141.603C198.822 143.853 193.824 145.285 188.918 146.951C188.43 147.117 188.102 147.301 187.908 147.561C187.812 147.691 187.748 147.841 187.718 148.015C187.702 148.103 187.694 148.197 187.694 148.297C187.694 148.397 187.7 148.507 187.714 148.623C187.972 148.565 188.232 148.525 188.484 148.449Z" fill="#F2D16C"/>
<path d="M187.692 148.297C187.692 148.399 187.698 148.507 187.712 148.623C187.698 148.507 187.69 148.399 187.692 148.297Z" fill="#F2D16C"/>
<path d="M180.69 144.843C182.092 142.819 183.388 140.799 184.144 138.479C184.55 137.235 184.2 136.011 183.994 134.845C183.896 134.291 182.684 134.507 182.02 134.219C181.808 134.127 181.57 134.093 181.36 133.997C180.79 133.737 180.68 133.999 180.684 134.517C180.7 136.479 180.69 138.443 180.69 140.405C180.69 141.885 180.69 143.363 180.69 144.843Z" fill="#4D4C60"/>
<path d="M201.692 127.751C201.692 127.751 201.688 127.747 201.686 127.745C200.816 126.893 199.82 126.157 198.722 125.513C198.708 125.717 198.73 125.913 198.876 126.071C200.222 127.527 200.942 129.275 201.276 131.205C201.32 131.463 201.33 131.729 201.532 131.941C202.894 133.375 203.516 135.207 204.194 136.997C204.804 138.613 204.766 138.627 206.258 138.005C205.922 135.803 205.26 133.701 204.378 131.655C203.938 130.637 203.386 129.725 202.736 128.907C202.412 128.501 202.064 128.117 201.694 127.753L201.692 127.751Z" fill="#C38936"/>
<path d="M201.686 127.743C201.686 127.743 201.69 127.747 201.692 127.749C201.69 127.747 201.688 127.745 201.686 127.743Z" fill="#C38936"/>
<path d="M212.556 147.155C211.79 144.965 210.858 142.835 209.77 140.769C208.862 141.273 208.662 141.841 209.032 143.237C210.032 147.027 211.698 150.583 212.928 154.293C213.856 153.423 214.038 152.283 213.756 151.163C213.416 149.805 213.016 148.469 212.556 147.155Z" fill="#F2D16C"/>
<path d="M200.098 141.327C199.778 139.113 199.902 136.881 199.928 134.661C199.944 133.269 199.238 132.339 198.362 131.189C198.19 135.445 197.414 139.385 196.272 143.523C197.536 143.019 198.576 142.595 199.624 142.191C200.044 142.029 200.156 141.731 200.096 141.327H200.098Z" fill="#4D4C60"/>
<path d="M185.42 138.183C185.814 140.541 186.892 142.657 187.844 144.815C188.422 146.127 188.436 146.121 189.828 145.631C190.142 145.521 190.448 145.353 190.77 145.307C191.642 145.187 191.674 144.809 191.168 144.211C189.742 144.763 189.748 144.759 188.986 143.381C187.744 141.133 187.004 138.773 187.078 136.159C187.104 135.239 187.35 134.883 188.264 135.011C188.624 135.061 188.996 135.027 189.362 135.033C189.606 134.491 189.422 134.377 189.17 134.385C189.018 134.389 188.842 134.439 188.718 134.465C187.702 134.687 186.668 134.675 185.644 134.727C185.144 134.753 185.076 134.931 185.112 135.309C185.206 136.267 185.26 137.233 185.418 138.181L185.42 138.183Z" fill="#8F5A25"/>
<path d="M189.362 135.033C188.996 135.029 188.624 135.063 188.264 135.011C187.35 134.881 187.104 135.239 187.078 136.159C187.004 138.771 187.744 141.133 188.986 143.381C189.748 144.759 189.742 144.763 191.168 144.211C190.742 143.301 190.36 142.383 190.052 141.451C189.928 141.079 189.816 140.703 189.718 140.325C189.276 138.625 189.104 136.871 189.364 135.031L189.362 135.033Z" fill="#C38936"/>
<path d="M198.344 151.973C198.134 151.785 197.924 151.599 197.714 151.411C197.26 151.821 197.186 152.353 197.136 152.887C197.114 153.129 197.096 153.373 197.05 153.605C196.708 155.319 196.368 157.033 196.102 158.759C195.942 159.795 195.81 160.835 195.722 161.883C195.814 161.889 195.9 161.879 195.982 161.859C196.064 161.839 196.144 161.807 196.222 161.773C196.274 161.749 196.326 161.725 196.378 161.699C196.474 161.653 196.57 161.607 196.668 161.571C196.674 161.569 196.682 161.565 196.688 161.563C197.134 158.347 197.708 155.155 198.344 151.971V151.973Z" fill="#F2D16C"/>
<path d="M196.668 161.573C196.568 161.607 196.472 161.653 196.378 161.701C196.474 161.655 196.57 161.609 196.668 161.573Z" fill="#F2D16C"/>
<path d="M196.222 161.773C196.144 161.807 196.066 161.839 195.982 161.859C196.064 161.839 196.144 161.807 196.222 161.773Z" fill="#F2D16C"/>
<path d="M200.996 140.507C201.024 141.673 201.084 141.707 202.128 141.161C202.542 140.945 203.35 140.971 203.032 140.059C202.488 138.501 201.864 136.983 200.986 135.397C200.986 137.215 200.956 138.863 200.996 140.509V140.507Z" fill="#FCFCFC"/>
<path d="M190.32 128.693C190.496 128.677 190.67 128.653 190.84 128.625C191.182 128.567 191.516 128.485 191.84 128.381C192.652 128.121 193.416 127.731 194.148 127.257C192.82 126.697 191.228 127.295 190.32 128.693Z" fill="#C38936"/>
<path d="M137.114 116.019C137.64 115.611 138.134 115.171 138.494 114.601C138.198 114.657 137.942 114.753 137.732 114.895C137.384 115.131 137.168 115.495 137.112 116.019H137.114Z" fill="#262452"/>
<path d="M139.103 114.197C139.401 114.247 139.601 114.085 139.779 113.879C139.723 113.869 139.665 113.857 139.611 113.851C139.575 113.845 139.539 113.843 139.503 113.841C139.311 113.835 139.151 113.899 139.103 114.197Z" fill="#262452"/>
<path d="M198.344 151.973C199.148 151.877 199.542 152.235 199.66 153.037C199.742 153.587 200.014 154.109 200.106 154.661C200.236 155.437 200.704 156.187 200.15 157.031C199.89 157.427 200.326 157.487 200.646 157.405C201.608 157.163 202.566 156.911 203.526 156.661C203.798 156.477 204.002 156.333 204.14 156.211C204.208 156.149 204.26 156.093 204.296 156.039C204.332 155.985 204.35 155.935 204.354 155.885C204.354 155.859 204.354 155.835 204.346 155.809C204.298 155.631 204.052 155.441 203.612 155.137C203.576 155.111 203.55 155.071 203.526 155.027C203.514 155.005 203.504 154.981 203.492 154.959C203.48 154.937 203.47 154.913 203.456 154.893C202.598 154.379 202.554 153.395 202.158 152.617C201.766 151.845 201.848 151.109 202.538 150.495C202.78 150.281 202.772 149.959 202.79 149.657C202.872 148.197 202.1 147.305 200.868 146.681C199.032 145.753 197.246 146.705 196.876 148.743C196.826 149.015 196.824 149.265 196.856 149.501C196.872 149.619 196.896 149.733 196.928 149.845C196.95 149.921 196.976 149.997 197.002 150.071C197.046 150.189 197.094 150.303 197.15 150.415C197.176 150.469 197.204 150.523 197.232 150.577C197.38 150.857 197.55 151.129 197.714 151.409C197.924 151.597 198.134 151.785 198.344 151.971V151.973Z" fill="#0D0D0E"/>
<path d="M197.004 150.073C196.976 149.999 196.95 149.923 196.93 149.847C196.952 149.923 196.978 149.999 197.004 150.073Z" fill="#0D0D0E"/>
<path d="M203.458 154.893C203.47 154.913 203.482 154.937 203.494 154.959C203.482 154.937 203.472 154.913 203.458 154.893Z" fill="#0D0D0E"/>
<path d="M204.346 155.809C204.352 155.835 204.356 155.859 204.354 155.885C204.354 155.859 204.354 155.835 204.346 155.809Z" fill="#0D0D0E"/>
<path d="M141.734 117.437C140.778 118.027 139.67 118.497 139.404 119.741C139.19 120.741 139.04 121.765 138.97 122.785C138.878 124.123 139.514 125.057 140.638 125.437C142.834 126.179 144.79 124.749 144.952 122.423C145.054 120.941 144.506 119.705 143.914 118.443V118.439C143.542 118.401 143.344 118.197 143.324 117.823C143.148 117.737 142.97 117.651 142.794 117.565C142.7 117.529 142.606 117.495 142.512 117.459C142.254 117.451 141.996 117.445 141.736 117.437H141.734ZM143.04 119.191C143.658 119.969 144.038 120.835 143.974 121.751C143.978 123.909 142.878 124.977 141.148 124.601C140.704 124.505 140.344 124.303 140.154 123.861C139.706 122.819 140.222 119.917 141 119.117C141.81 118.285 142.334 118.301 143.042 119.191H143.04Z" fill="#0D0D0E"/>
<path d="M141.734 117.437C141.992 117.445 142.25 117.451 142.51 117.459C142.604 117.495 142.698 117.529 142.792 117.565C142.698 117.529 142.604 117.493 142.51 117.459C142.252 117.451 141.994 117.445 141.734 117.437Z" fill="#0D0D0E"/>
<path d="M143.322 117.823C143.342 118.197 143.54 118.401 143.91 118.439C143.912 118.337 143.9 118.251 143.874 118.177C143.796 117.957 143.596 117.853 143.32 117.821L143.322 117.823Z" fill="#262452"/>
<path d="M140.735 126.447C140.141 126.427 139.733 126.153 139.393 125.713C138.857 125.019 138.491 124.251 138.309 123.387C138.221 122.969 138.063 122.559 137.883 122.171C137.631 121.629 137.133 121.603 136.607 121.615C136.075 121.629 136.023 122.023 135.839 122.383C135.215 123.613 135.627 124.765 136.181 125.815C137.127 127.617 138.299 129.235 140.647 129.251C141.985 129.249 142.673 128.801 142.727 127.893C142.785 126.903 142.253 126.495 140.733 126.445L140.735 126.447Z" fill="#737099"/>
</g>
<defs>
<clipPath id="clip0_2624_68141">
<rect width="130.589" height="158.358" fill="white" transform="translate(84.2029 20.8109)"/>
</clipPath>
</defs>
</svg>
