<svg fill="none" xmlns="http://www.w3.org/2000/svg" viewBox="0 0 301 201">
  <path d="M78.8 122c0-.2-.2-.2-.3-.3-.3-.6-.2-.9.4-.9h1.4c.7.1 1.3-.2 2-.4.4-.2.3-.6 0-1-.5-.7-1.3-1.3-2.4-1.3-.4-.4-1-.6-1.7-1-.4-.2-.8-.4-1-1 .9 0 1.4.5 2 .8.5.3 1 .5 1.6.4 1 0 1.6.4 2 1.5.2.4.6.3 1 .4h.6c.3 0 .7.2.8 0 .3-.4-.2-.6-.3-.9-.3-.5-.9-.8-1.4-1.2-.2-.2-.6-.4-.4-.8.3-.4.6-.1 1 0l.2.1c.2 0 .3 0 .1-.2-.9-1.1-1.6-2.3-3.1-2.8-.3-.1-.6-.4-.5-.7.1-.5.5-.5.9-.4.7 0 1.4.2 2 .8l3 3.5c1-1.2 2.1-1.7 3.8-1-.5-1-.3-1.3.5-1.6 1-.2 1-1 .4-1.8-.5-.5-1-1-1.8-1s-1.5-.5-2.1-1l-1.8-1c.3-.5.7-.5 1-.3.5.2 1 .3 1.4.6.8.6 1.7.8 2.6 1l.4.3s.1.2.2 0l-.1-.1-.2-.3c-.5-.6-1-1-1.7-1.2-.2-.1-.5-.2-.5-.6.2-.4.5-.2.8-.2 1.2.3 2 1 2.7 2l.2.3c.2-1 0-2-.2-2.8-.5-1.7-.2-1.6 1-2.4-1.5-1.5-2.3-3.4-3-5.3-.4-1-.5-1.7 0-2.7a16 16 0 0 0 2.2-6.8c0-.4.2-.8.5-1 .6-.5.6-1 0-1.4-.4-.4-.5-.7-.3-1.3.2-.7 0-1.4 0-2.1h-.3c-.4.2-.7.8-1.2.5-.6-.2-.2-.8-.2-1.3v-1.5c0-.4 0-.7.4-1 .4 0 .7 0 1 .3 0 .1.2.3.3.2.3-.2 0-.3 0-.5-.2-1-.2-1.8 0-2.7.2-.5.5-.8 1-.4.7.6.8-.3 1-.6.5-.4-.2-.3-.4-.5-.2-.3-.5-.6-.5-1 .1-1 0-2 .5-3s.5-1.8-.3-2.7l-.7-.9c-.3-.5-.6-1.1.1-1.6.3-.2.3-.4 0-.6l-.1-.2c-.5-.4-1.1-1-1-1.6.2-.4 1-.3 1.5-.4 2.6-.5 2.6-.8 2-3.3-.4-2.1-1.4-4-2.7-5.8-.8-1-2.2-1.4-3.5-1.8-.8-.3-1.7-.4-2.4-1-.1-.1-.5-.2-.3-.5.2-.4.5-.1.6 0 1.3.6 2.8.7 4 1.4a13 13 0 0 0-6.7-6.2c.7-.5 1.2-.4 1.8 0 .8.4 1.6 1.3 2.3 1.3.7 0 1.5-.7 2.4-1l4.4-1.8c.8-.2.3-1 .5-1.4.2-.4 0-.6-.4-.7-.8-.4-1.2-1-1.8-1.6-.6-.6-1.1-1.4-2-1.6-.2 0-.5-.2-.5-.5.6-.1 1.2 0 1.6.4.7.6 1.4 1 2 1.7 1.4 1.7 3.4 2 5.3.8 1.3-.9 2.7-1.4 4-2 .8-.4 1.3-1.4 1.1-2.2l-.2-.3c-.3-.1-.3.1-.3.3-.1.3-.3.3-.5 0-.7-.8-1.7-1-2.8-1.4-.4-.1-.9-.3-1.3-.7.7-.3 1.3-.1 2.2-.2a506.2 506.2 0 0 0-1.5-1.2c0-.2.2-.2.4-.2.3 0 .6.2.8.3 3 1.7 3 1.7 6 .3 1.1-.5 2.2-1 3-2.1.2-.3.4-.4.8-.4h2.4c1.2.1 2.4-.1 3.5-.5 0-.3-.3-.4-.5-.5a160 160 0 0 1-11-7.4c-.5-.3-.8-.4-1.3-.2l-3.4 1.1c-1.6.5-3 .3-4.5-.5-1-.5-.9-1-.9-1.9 0-1.5.3-3 .6-4.6.2-1.2 1-2 2.2-2.3l7.4-2.3 13.3-3.8c7.1-2 14.3-3.7 21.4-5.8 2.2-.6 4.4-1.4 6.7-1.6 1.7-.2 3.4-.3 5.1.4 1.2.5 2.5.5 3.5 1.2a10 10 0 0 1 4.2 6.1c.2.7-.1 1.1-.9 1.2-1.1.1-2.1 1-3.3 1-1 0-.9.3-.8 1l2.6 15.1.4 2.4c0 .5.2.8.7 1 1.6.5 3.2 1.2 4.3 2.5.2.2.3.2.6.2.6 0 1.3 0 1.6.7l.4.2c1.4-.2 2.7.4 4 1L177 40l23.5 9.1c1 .4 1.8 1 2.6 1.5.5.4.8 1 1 1.6 4.3 11.2 7.7 22.7 11 34.2 2.2 7.1 4.2 14.3 6.3 21.5 2 6.6 3.9 13.1 5.4 19.8 1 4.5 1.7 9 1.3 13.7l-.5 6.5c0 .7-.5 1.2-1 1.6-1.3 1.3-3 2-4.7 2.9-7.1 3.3-14.5 5.7-22 8.1-8.8 3-17.7 5.9-26.5 9.1-2.5 1-5 1.6-7.7 1.7-1.7 0-3.3-.6-4.9-1.2-5.4-1.8-10.5-4.5-15.6-7.3l-12-6.8c-7-3.9-13.6-8-20.2-12.5l-4.1-2.9c-.4-.2-1 0-1.3-.4-3-3-7-4.7-10.4-7a313 313 0 0 0-10.7-6.9c-2.1-1.3-4.2-2.7-6.5-3.7-.5-.2-.7-.7-1.2-.7Zm55.8-85.5.4.2a6005.4 6005.4 0 0 1 6.4 3.2c1-.3 2-.4 3-.8h.4c2.7-.7 5.5-1.2 8.2-1.6.7 0 .5-.5.4-.8l-1.1-4.5c-.1-.6-.4-.8-1-1-6.6-2.5-13.4-4.7-20.2-7l-4-1.3 1.3 1.7c.4.7.4 1.3-.3 1.9l-1 .8c-.4.5-1.1.7-1.3 1.4 0 1.3-.6 2-2 2l7.4 4c1 .6 2 1.2 3.2 1.6l.2.2Zm24 9.4c-.2-.1-.3 0-.4.1l-3.3 1.9a16882.5 16882.5 0 0 0-4.5 1.7c-1 0-1.4.5-1.3 1.2l1.2-.5c.7-.3 1.5-.3 2.1-.7 1-.1 1.7-.5 2.5-1 1.4-.4 2.8-.9 3.4-2.4l.3-.3v-.1.1Zm-36.7-16.2h.2v-.1l-.3-.2c-.5-.8-1-1.5-1.3-2.4 0-.3-.3-.7.1-.8.5-.3.6.2.7.5.6 1 1.3 2 2.3 2.7.6.4 1 .2 1-.5 0-.5.2-1 .6-1.3.3-.4.8-.6 1-1-.5-.3-.6-.8-.7-1.3a3 3 0 0 0-1.7-2.5c-.8-.4-1.5-1-2-1.7-.2-.1-.4-.3-.2-.5.2-.3.4 0 .5.1 1 .6 1.9 1.5 3.2 1.7 0-.7.2-1 1-.7.3.1.7.1 1 .3l16.4 5.3 8.1 2.8c-1.2-6.5-2.6-12.9-3.3-19.4-13.2 2.9-26.2 6.8-39.3 10.9l10 6.5c.2-.1 0-.3 0-.4.5-.1.6.3.8.5-.2 0-.4 0-.3.2 0 .2.2.3.5.2.3.5.9.7 1.4 1l.3.1ZM93.1 82.4s0-.2-.2-.1v.3c.2 0 .2.3.3.2.1-.1 0-.3 0-.4Zm54.4-32.3c.1.2.2.3.4.3 0 0 .1-.1 0-.1 0-.3-.2-.2-.4-.2.1-.5-.3-.6-.6-.8l-.2.2c0 .4.4.4.7.6h.1Zm-52 42h-.3c-.4-.2-.5-.4-.3-.8.3-.5.4-1 .6-1.6-1.4-.4-1.4-.4-2 .9-.4.6-.7 1.3-.4 1.9l1.3 2.3c1 1.1.9 2 0 2.9-.3.2-.5.3-.8 0-.2-.1-.1-.4 0-.6l.5-.5c.6-.5.1-1-.2-1-.5-.3-1.2-.2-1.7.1-.3.2-.4.8-.2 1.3l.5 2.1c0 .3.4.7 0 .8-.4.2-.4-.4-.5-.7l-.6-1.7c-.1.9-1.2 1.2-.7 2l1.5 3.3c.2.5.5 1.3 1.4 1v.4c.2.7.6 1.3 1.3 1.6.3.2.8.2.8.9l-1-.5c-.4-.2-1.8.5-1.7.8.3.7 0 1.6.9 2.2 1.4 1 1.5 1.4.8 3 0 .1 0 .3-.3.3-.2 0-.3-.2-.2-.4.1-.8-.5-.9-1-1-.3.6.3 1.5-.7 2 1.4.4 2.3 1.4 3.6 2-.3-5.8.3-11.5.6-17.2.2-6.3.7-12.6 1.1-19 .4-5 .7-10.3 2-15.3.1-.3.3-.6 0-.8l-3.6-2.6c.2 1 .6 1.6.4 2.2-.2 1 .3 1 1 1.3.6.1 1.3.1 1.8.7-1.2 0-1.9.6-2.2 1.8v.4c-.4 0-2 1-2 1.2v.2c.3.5.8.6 1.4.8.4 0 .3-.4.4-.7.2-.4.3-.7.6-1l.3.2c-.4 1.2-1 2.3-.2 3.6.4.5.1.8-.5.6h-1l.5 1 .4 1c0 .3.5.8 0 1-.4.2-.4-.5-.5-.8-.3-.6-1-.9-1.3-.3-.5.7-.6 1.6-.6 2.5 0 .7.5.8.9 1 .6.5.6 1 0 1.5-.3.2-.6.3-.4.8-.5.2-.8.6-1.5.3-.3-.2-.5.3-.4.6 0 .7 0 1.4.5 2l1 1.5c0 .5-.2.8-.7 1-.4.2-.8.4-.7 1 .1.6.2 1.1 1 1.3.7.2 1.4.6 1.8 1.4v.5c0 .9-.3 1.7-.8 2.5-.2.4 0 .6.1.8Zm57.6-41.8-3.4.8c-.8.1-1.2.5-1.3 1.4l5-1.9c.7 0 1.3-.2 2-.3.4 0 .5-.6.4-.8 0-.4-.5-.3-.8-.1-.6.3-1.3.4-1.9.9Zm-.5-5.3c-.6.2-1.2.5-1.9.6-.5.2-1 .3-1.5 0l-3.3-1.8c-4-2.4-8.3-4.3-12.3-6.8-1.2-.8-2.6-1.4-4-2l-5.3-3-6.6-4-4-2c0-.2-.3-.3-.5-.5l-4.6-3.1c-.5-.4-1-.2-1.5-.3-.5 0-.7.3-.8.7-.1.4 0 .6.4.8l1.6.8c1.4.8 2.7 1.8 4.1 2.4 1.7 1.4 3.6 2.5 5.4 3.6l7.5 4.2c1.8 1.2 3.8 2.2 5.8 3 2.8 1.5 5.6 3 8.4 4.3 2 1 4 2 5.7 3.4 1 .7 2 1.3 2.7 2.3.3.5 0 1.4.8 1.4.5 0 1-.3 1.6-.5l.8-.4c.6-.1 1.2-.3 1.7-.6.8-.2 1.5-.5 2.3-1 1.4-.3 2.7-1.1 4-1.7.2-.1.3-.2.3-.4 0-.8.3-1.8 0-2.5-1.1-4.3-1.5-8.7-2.2-13l-1.6-9-1-5.3c0-1-.2-2-.4-3.1-.3-1.5-1.1-2-2.5-1.6h-.1c-.4 0-.5.3-.4.7l.7 3.1.7 3.5 1.4 7.4c1 5.6 2 11.2 3.3 16.7.2.9 0 1.5-.9 2-.6.2-1.2.3-1.7.8-.7 0-1.3.5-2 .8l-.1.1Zm-2.2-5.1 2.8-.7c.3-.1.6-.3.5-.7 0-.3-.4-.1-.7 0-2.4.3-4.8.7-7.2 1.3-1 .3-2.1.4-3.2.8 1.1 1 2.2 1.3 3.5.7.8-.4 1.7-.5 2.5-.8.4-.1.8 0 1-.4h.3c.3 0 .4 0 .5-.2Zm-43 8.7v.3l-1.2-.4c-2-1.1-4.2-2-6.4-2.6-.1-.2-.3-.1-.4-.2l-.6-.3c-1.4-.6-2-.3-1.9 1.2 0 .6-.2.9-.7 1-2 .8-4 1.7-6 2.3-.5.1-.8.2-.3.7.6.5 1 1.2 1.6 1.8 1.5 1.9 2.6 4 3.9 6 .1.2.1.5.4.6 1.7.9 3 2.1 4.7 3 .6.3.8.7.5 1.4l-.2.5c-1.3 5.8-1.7 11.7-2.1 17.5l-.6 9-.8 10A187.5 187.5 0 0 0 97 116c-.1.4-.3.6-.7.3-1-.4-1.8-1-2.6-1.5-.6-.5-1.3-1-2 0l-.3.1c-.4.1-.4.2-.3.6.7 2.1.2 4-1 5.9-.1.2-.4.4-.7.4-.4 0-.5.2-.5.5 0 1.3-.5 1.7-1.7 2-.7.1-1.5 0-2.3.4l21 12.9a75 75 0 0 1-2.4-12.8c-.4-3.2-1-6.4-1.1-9.7-.3-6.3-.3-12.7 0-19 .1-2.2.2-4.5.5-6.7.2-2.4.2-4.8.5-7.1l.3-5.3c.2-2.5.7-4.9 1.2-7.3.7-3 1.3-5.8 2.3-8.6 1-3 2.3-6 3.8-8.7l1-1.5.9-1 1.9-1c3.8-2.1 7.9-3.7 12-4.8l6.7-2-4-2.2-10-5.7c-.5-.2-.7 0-1 0-1.8.4-3.4 1-5.2.6-.5 0-1.1-.3-1.5.2-.4.5-1 .8-1.4 1.2-.8.7-1.7 1.3-2.7 1.6l-1.5.6c-.2.1-.5.2-.2.6.5.8.4 1.7.2 2.6-.8 1-2 1.3-3.2 1.8-1.1.4-2.2.8-3.3 1.7 1.8.5 3.3 1.4 4.9 2l.2.1.4.2 2.2 1.3Zm42.4-5.4c1.6-.3 3-1 4.3-1.7.8-.4.2-.9.2-1.3 0-.5-.4-.3-.7-.3l-5.7 1.5-2.6.8c1.6.8 2.7 2.2 4.5 1Zm-8.3-35.1c4.4-1.3 8.8-1.7 13.4-2.5-1.8-.3-3.5-.5-5.1-1.1h-1l-7.1 1.7c-1.5.2-2.9.6-4.1 1.3-.8 0-1.4.2-2 .4l-6.4 1.8c-.8 0-1.6.3-2.4.5-2.7.6-5.3 1.5-8 2-1.5.4-3 1-4.5 1.7-.6 0-1.2.2-1.8.4l-7 2-.2.1-.3.1-5.2 1.6c-1.1.3-1.6 1-1.8 2.1l-.4 3.3c-.2 1.6-.3 1.6 1.2 2 .5.2.6 0 .6-.4 0-1.2 0-2.3.2-3.4.1-.9.4-1.6 1.3-2l3-1.1 5.3-2h.4l7-2.2c1.2-.4 2.5-.4 3.7-.7 3-1 6-1.8 9.1-2.6 1.6-.5 3.2-.7 4.7-1.3l1.5-.2 6-1.5Zm7.9 1.2h.8c1.4-.2 2.7-.9 4.2-.9 1 0 1.4.4 1.7 1.2l.5 2.2c0 .7.3.6.7.4.7-.3 1.8-.2 2.1-.8.3-.6-.4-1.4-.6-2.1-.4-1.2-1-2-2-2.9-.4-.4-.8-.5-1.3-.2-.7.4-1.4.4-2.2.5-2.5.5-5 .9-7.5 1.7-2.3.3-4.4 1-6.6 1.7h-.5c-4 1-8 1.8-12 3-2.5.8-5.2 1.2-7.7 2l-7.5 2-3.3 1c-2.3.8-4.4 2.1-6.9 2.6-.4 0-.4.3-.5.7-.4 1.5 0 3 0 4.5 1.1-.7 2.3-1 3.4-1.3.9-.3 1-.7.7-1.4a4 4 0 0 1-.2-.5c-.2-.7.1-1.2.8-1.4l5.6-1.7c2-.4 4-.8 5.8-1.6 1.7-.4 3.4-1 5-1.5l1.7-.5 11-3 8-2.2c2.3-.4 4.6-.9 6.8-1.5Zm-37.8 44.3c-.8.8-1.1 1.8-1.5 2.8-3.7 8.5-6 17.3-6 26.7l-.2 3.8-.6 6.8c-.2 7.6-.1 15.1.1 22.7 0 .9 0 1.8.3 2.7.5 2.6.8 5.2 1.1 7.8.5 3.7 1.1 7.4 2 11 .1.6.3 1.2 1 1.5.2 0 0 0 0 0l-.5-2c-.8-2.8-.6-5.6-.9-8.5l-.6-6.7-1.1-9.7c-.5-4.5-.4-9-.5-13.5a97.3 97.3 0 0 1 1.4-18c1-6.4 2.5-12.6 4.9-18.7 1-2.6 2-5.2 3.5-7.5a10 10 0 0 1 3.2-3.4c4.1-2.2 8.4-4 12.8-5.5 2-.8 4.2-1.5 6.4-2.2-1-.7-2.2-.8-3.4-.5l-.8.3c-.7.3-1.5.3-2 .7l-1.1.2a60 60 0 0 0-14 5 7.1 7.1 0 0 0-3.5 4.2Zm40.1 49.9-.3-1.8-2.2-13.8-1.7-12c-.2-1.1 0-2.3-.4-3.3a14.3 14.3 0 0 0-6.8-7.8c-6-3.1-12.4-5.8-18.5-9-.2 0-.5 0-.5-.3.3 0 .7 0 1 .2l3.2 1.3c5.6 2.3 11 4.8 16.3 7.8 2.6 1.4 4.4 3.4 5.6 6.1.4 1 1 2 1 3 .1 4.7 1.1 9.4 1.8 14l2.8 16.4 2.7 16.2c.6 4.1 1.3 8.3 1.8 12.5.3 2.7.5 5.5.9 8.2.4 2.6 1.2 5.1 3 7a14 14 0 0 1 3.6 7.9l1.7 13.6c0 .6.2.7.7.5l2.2-.5c4-1 7.7-2.6 11.6-3.9 11.1-3.6 22.1-7.5 33.2-11.4 3.5-1.3 7-2.7 10.3-4.7a3.7 3.7 0 0 0 1.8-3.2c0-1.1 0-2.2.2-3.4.4-4.6.2-9.2-.8-13.8-1.6-7.4-3.8-14.6-5.7-22-1-3.7-2.3-7.3-3.4-11-4.1-13.8-8-27.7-12.9-41.3a8.4 8.4 0 0 0-5.1-5.3c-9.8-3.9-19.8-7.4-29.6-11.5-.8-.4-1.6-.6-2.5-.5l-5.7.7c-1.2.2-1.2.3-1 1.5l.7 3.8c0 .5.1 1.1-.3 1.5-1 1-1.6 2.1-2.5 3.2-1 1.4-2.3 2.5-4 3.2a35 35 0 0 1-7.6 2.4c-.5-.5-1.5-.5-1.6-1.2-.2-.6.3-1.3.6-2 .6-1.8.8-1.2-.8-2.6l-.6-.5c-1.5-1-3.3-1.6-4.8-2.6-1.2-.7-2.2-.7-3.4-.1h-.4a90.4 90.4 0 0 0-16.9 6.6c-1 .6-1.9 1.3-2.6 2.2-1.2 1.6-2.7 3-3.4 5a111.6 111.6 0 0 0-6.5 27.2c-.5 4-1 7.9-1 11.8-.2 4.5.1 9 .6 13.6l1.1 10c.5 4 1 8 1 12 0 1.7.4 3.2.8 4.7.3 1.3 1.3 1.9 2.4 2.5l-.2-2-.6-19.4c-.3-7.5-.1-15-.4-22.5a182.8 182.8 0 0 1 .7-22.9c.3-3.4.9-6.7 1.7-10 .4-1.3 1.7-2 2.9-1.5l4 2.1 8.4 4.5c1 .6 1.4 1.1 1.4 2.2-.2 4.3 0 8.6.3 13 .3 4.8.7 9.6.9 14.5 0 2 .2 4.2.4 6.3l.8 10.9.6 8.8.8 10c0 3 .5 6.2.7 9.3.3 3.6.8 7.3.9 11 0 .4.2.7.6.9 7.4 4.5 15 8.6 23 12.1a28.8 28.8 0 0 0 8 2.3c-.1-2.1-.2-4.2-.5-6.2-.3-3.1-.2-6.3-1.3-9.4-.7-1.8-1.5-3.5-2.8-5-.5-.4-1-1-1.3-1.6-2-3-2.3-6.5-2.8-10-.4-2.7-.5-5.4-1-8.2l-2.7-17c-.3-1.6-.4-3.2-.9-4.8 0-.3.1-.5-.1-.8-.1-1-.2-2-.6-3v-.7ZM133.3 155l-.8-8.8-.8-9-1.2-13-.5-8.8-.8-10.7c-.3-3.4-.4-6.9-.6-10.3l-.6-11.5c-.2-3.9-.4-7.8 0-11.6 0-.6-.1-1-.7-1.3-3.5-1.8-7-3.8-10.4-5.8-.7-.5-1.4-.7-2.2-1-1-.1-1.4 0-1.6 1-.5 2.1-1 4.3-1.3 6.4a249 249 0 0 0-1.4 28.3c.2 8.1.2 16.3.5 24.5.2 5.8.8 11.6.7 17.4 0 .4.2.6.5.8 1.3 1 2.8 1.8 4.1 2.9 1 .8 2.3 1.5 3.5 2.3v-1c0-9.1-.6-18.2-.7-27.4 0-10.8-.3-21.5 0-32.3l.4-12.9.3-4.8c.7.1.9.4.9 1l-.2 4.9-.6 29.6c-.2 8.7 0 17.4.4 26 .2 5.5.4 11 .3 16.6 0 .6.2 1 .7 1.3l6.3 3.8 5.8 3.4Zm14.3-106.4c-.4-.7-.7-1.3-1.4-1.7-2.5-1.6-5.1-2.8-7.6-4.4-2.8-1.6-5.8-2.9-8.6-4.4l-13.3-7.5c-3.2-1.9-6.3-4-9.4-6-.2 0-.5-.4-.7 0-.1.2.1.4.3.5 3.7 2.3 7.2 4.8 11 6.9 6.9 3.9 13.7 7.9 20.7 11.5l4.4 2.6c1.5 1 3 1.9 4.6 2.5Zm-67.8 73v.2c2.2 1.6 4.6 2.7 7.4 1.3-.8-.6-1.5-1.2-2.7-1.1a1 1 0 0 1-.9-.4c-.1-.1-.3-.4 0-.4.6 0 1.2-.3 1.7 0a5 5 0 0 1 2.5 1.3c.1-.4 0-.6-.3-.8l-1.3-.8c-.2 0-.5 0-.5-.3 0-.4.3-.4.6-.4.5 0 1 .2 1.3.6l.3.3c.4-.7 1.5-.2 1.7-1.1 0-.2.3-.4.5-.5.7-.5 1-2.2.6-3-.4-.8-1.2-.6-1.8-.6-.4 0-.7.2-1 .4-.8.6-1.1 1.4-1.5 2.2-.6 1.3-1 1.5-2.5 1.3-.2 0-.5-.2-.6.2-.4 1.1-1.4 1.4-2.4 1.5h-1Zm76.5-79.8c-1.3-5-2.1-10-3-15l-3-16c0-.3 0-.6-.4-.5-.3.1-.6 0-.6.6l1.3 7.4 1.8 9.9c.8 4.3 1.9 8.6 3 12.9.1.4.3.7 1 .7Zm7-5.5c-1.2-1.4-2.7-1.6-4.2-2.2l.3 2c0 .3.1.5.4.4l3.5-.2Zm-7.6 6.3c-.6-.2-1-.5-1.4-.3-1.4.8-3 1.2-4.5 1.8-.2 0-.5.1-.4.4.2.3.4 0 .6 0 1.9-.5 3.6-1.3 5.7-1.9Zm-7.8 8.5-1.3-.4c-.5.1-.4.8-.7 1.2v.2c-.5.4-.4.6 0 1 .5.3.8 0 1-.3l1-1.7Zm17.7-13.9c-.7-.6-1.2-.3-1.7-.2l-3.8.4c-.2 0-.4 0-.4.3 0 .2.3.2.5.2 1.7-.3 3.5-.6 5.4-.7ZM95.6 89c.2-1-.4-1.5-2.3-2 .6 1.1 1 2 2.3 2ZM95 68.6l1 2c.3.4 1 .3 1 .1 0-.5-.3-1-.6-1.5-.3-.3-.8-.4-1.4-.6Zm-.5.3c-.6.3-.4.6 0 1 .6.6 1.1 1.4 1 2.4 0 .6.4.3.7.4a20 20 0 0 0-1.7-3.8Zm-.6-2.5c.2.4.6.9 1 .8.6 0 1-.5 1.4-1 .2-.2-.1-.4-.3-.3-.7.3-1.4.2-2.1.5Zm4.1-2.2c-.6-.1-1.3-.7-1.2.5l-.1.5c0 .2-.2.4 0 .5.2 0 .3 0 .4-.2l1-1.3Zm-6.2 20c1.3-.6 1.3-.7 0-1.8v1.9Zm63.5-75h-.3l.6 3.2h.2c0-1.2-.2-2.2-.5-3.2ZM93.6 94.8l-.8-1.7c-.2.6-.5 1.2-.3 1.7 0 .3.6-.1 1.1 0Zm1 16c-.3-.8-.8-1-1.4-1.4 0 .6.4 1 1.4 1.5ZM127 26c.8-.6.8-1.2-.1-1.6.1.5.1 1 0 1.6Z" fill="#000"/>
  <path d="M92 62.6v-1.2c0-.4.2-.9.7-1 .4-.1 1-.1 1.3.2l.8 1.1c.4.9.3 1.2-.6 1.6-.5.2-.9.4-1.2.7-.2.3-.4.5-.7.3-.3-.1-.3-.4-.3-.7v-1Zm.9.2c.5-.3 1.2 0 1.2-.7 0-.3-.4-.9-.8-.8-.8.2-.2 1-.4 1.5ZM78.7 122c-.3.4.3.4.3.7.1.2.2.5 0 .7-.3.4-.4-.1-.5-.2-.7-.4-1.5-.4-2.3-.6-1.2-.4-2.5-.7-3.5-2l1.5.2 1.4.4c1 .3 2 .5 2.8 1 .2 0 .3 0 .3-.2ZM83.5 67.6c0-1.3.7-2.2 1.7-2 .7 0 1 .5.7 1.2-.2.3-.2.6-.3 1 0 .4.1 1-.6 1s-1.5-.6-1.5-1.2Zm1.6-1.3c-.6.3-1 1.1-.7 1.7 0 .2.2.3.4.3.1 0 0-.3 0-.4 0-.5 0-1 .3-1.6ZM86 91.3v.5c-.1.6 0 1.4-1 1.2-.7 0-1.2-.8-1.1-1.5l.1-.5c.2-.6.5-1.2 1.2-1.1.7 0 .9.4.8 1.4Zm-.8-.6c-.4.6-.4 1 0 1.4v-1.4ZM89.3 42.4c.9 0 1.3.6.9 1.3l-.7 1.3c-.3.6-.8.9-1.3.6-.6-.3-1-.7-.7-1.5.4-.8.6-1.8 1.8-1.7Zm-1 2.2c0 .2-.2.5 0 .5.3 0 .5 0 .6-.3.2-.4.2-.9.5-1.3.1 0 .2-.2.1-.3 0-.2-.3-.1-.4 0-.8.2-.7 1-.9 1.4ZM83.4 104.7c0-1.1.4-2 1-1.7.7.3.9 1 .8 1.8l-.1.8c-.1.4-.2.9-.8.8-.5 0-.9-.4-.9-1v-.7Zm1.2 0c-.1-.3.1-.8-.3-.8s-.3.5-.3.9v.1c0 .3 0 .8.3.8s.2-.5.2-.7v-.3ZM80 118.1c.5.6.6 1.3 0 2-.4.5-1 .3-1.6.3-.3 0-.5 0-.6-.4-.2-.8.5-1.7 1.3-1.8.3 0 .6.3.8 0Zm-.1 1-.5-.2c-.4 0-.6.3-.7.7-.1.4.2.3.4.3.5 0 .6-.3.8-.7ZM109.7 31.2c0 .6-.2 1.1-.7 1.4-.4.3-.8.2-1.2 0-.4-.2-.4-.5-.4-.9l.3-1c.2-.5.6-1 1.2-.9.7.2.8.8.8 1.4Zm-1.8.2c0 .4 0 .8.4.7.8 0 .7-.7.8-1.2 0-.3 0-.6-.3-.6-.6.1-.8.7-.9 1.1Z" fill="#000"/>
  <path d="M115.8 53.8c.7-1 1.6-1.6 2.6-2.2 5.4-2.8 11-4.8 17-6.6h.3c2.3.3 4 1.7 5.7 2.9.9.6 1.3 1.4 1.3 2.5-.1 2.8 0 2.9 2.7 3.8h.3a35 35 0 0 0 8.2-2.7c1.7-.7 3-1.7 4-3.1l2.5-3.2c.4-.4.3-1 .3-1.5l-.7-3.9c-.2-1.1-.2-1.2 1-1.4l5.7-.7c.9 0 1.7.1 2.5.5 9.8 4.1 19.8 7.6 29.6 11.5 2.5 1 4.2 2.6 5.1 5.3 5 13.6 8.8 27.5 13 41.3 1 3.7 2.3 7.3 3.3 11 2 7.4 4.1 14.6 5.7 22 1 4.6 1.2 9.2.8 13.8l-.2 3.4c-.1 1.3-.6 2.4-1.8 3.1-3.2 2-6.8 3.5-10.4 4.8-11 4-22 7.8-33.1 11.4-3.9 1.3-7.6 2.9-11.6 3.9l-2.2.5c-.5.2-.6 0-.7-.5-.5-4.5-1-9-1.7-13.6a14 14 0 0 0-3.7-7.8c-1.7-2-2.5-4.5-3-7l-.8-8.3c-.5-4.2-1.2-8.4-1.8-12.5l-2.8-16.2-2.7-16.3c-.7-4.7-1.7-9.4-1.8-14.1 0-1-.6-2-1-3-1.2-2.7-3-4.7-5.6-6.1-5.3-3-10.7-5.5-16.3-7.8l-3.2-1.3c-.4-.2-.7-.2-1-.2-.9-.5-1.7-1-2.8-1-1 0-1.9 0-2.7-.7Zm84 2.4c0-1-1-1.6-1.5-2.4-.4-.7-1-.9-1.8-.6l-7.2 2.5c-4.6 1.7-9.3 3.4-14.2 4.3-2.6.5-5 1.6-7.6 2.1l-12.7 3c-.7.2-1.6.4-2 1a7.8 7.8 0 0 0-.7 4l-.2 1.2c-.2 0-.1.1 0 .2l.3 3 1.5 10.4c.5 4.1 1.1 8.3 1.8 12.4.6 3.2 1.2 6.3 1.5 9.6l1.1 10c.5 3.3 1 6.6 1.3 10 .4 4 .8 8 1.6 12 .6 2.7 1.3 5.3 2.5 7.7 2 3.7 5.1 5.8 8.9 7.3a8 8 0 0 0 3.6.6l5.8-.6c5.1-.9 10.4-1.4 15.4-3 4.5-1.3 9-2.3 13.2-4.1 4.7-2 7.9-5.5 9.3-10.5 1.6-6 .8-12 0-17.9-.4-2.6-1.5-5-2-7.5l-3.3-12c-1.4-5.3-3.3-10.5-4.7-15.8-1.8-6.8-3.8-13.6-6.5-20-1-2.4-1.7-4.8-3.3-6.9Zm-43.7 5.5c.5.2.8.1 1.1 0 8.4-2.3 16.9-4.5 25.2-7.3 3-1 6-2.4 9.3-3.2l1.8-.3c-1.5-.2-2.9 0-4.2.4a631 631 0 0 1-24.7 7.5 62 62 0 0 0-8.5 3Z" fill="#61A0FF"/>
  <path d="M115.8 53.8c.8.7 1.8.7 2.7.7 1.1 0 2 .5 2.8 1 0 .3.3.3.5.4 6.1 3.1 12.4 5.8 18.5 8.8 3.4 1.7 5.5 4.5 6.8 8 .5 1 .2 2 .4 3.1.6 4 1 8.1 1.7 12.1l2.2 13.8.3 1.8c-.2.3-.2.5 0 .7 0 1 0 2 .6 3 0 .3-.1.6.1.8.5 1.6.6 3.2.9 4.8l2.8 17 .9 8.3c.5 3.4.8 7 2.8 10l1.3 1.6c1.3 1.4 2.1 3 2.8 5 1 3 1 6.2 1.3 9.3a75.3 75.3 0 0 1 .3 6.2c-2.7-.3-5.3-1.2-7.8-2.2-8-3.6-15.6-7.7-23-12.2-.4-.2-.6-.5-.6-1-.1-3.6-.7-7.3-.9-11-.2-3-.6-6.1-.7-9.2l-.8-10-.6-8.8-.8-11-.4-6.2-1-14.6c-.2-4.3-.4-8.6-.3-13 0-1-.3-1.5-1.3-2-2.7-1.6-5.6-3-8.4-4.6l-4-2c-1.3-.7-2.6.1-2.9 1.5a59.8 59.8 0 0 0-2 15.3c-.4 5.8-.6 11.7-.4 17.5.3 7.5.1 15 .4 22.5l.6 19.4.2 2c-1.2-.6-2.1-1.2-2.5-2.5-.3-1.5-.7-3-.7-4.6 0-4.1-.5-8.1-1-12.1l-1.1-10a102.7 102.7 0 0 1 3-39.8c1-4.3 2.3-8.6 3.9-12.8.7-2 2.2-3.4 3.4-5Zm17.5 50v1.5l.9 15.2.9 15c0 .3 0 .6.3.8.5.2.9.6 1.3.9 4.2 3 8.8 5.5 13.2 8.1 1 .7 2.2 1.2 3.3 1.6 1 .4 1.7 0 1.5-1.1-.4-3-1.3-6-1.7-9l-2.3-13.4c-.8-5.2-1.7-10.5-2.2-15.8l-1.8-15.3a94 94 0 0 0-2.8-14.9c-.2-.6-.5-1-1-1.3l-3.7-2c-2-1.2-4-2.5-6.2-3.2-.8-.4-.9 0-.9.6l.1 4c0 4.3.6 8.4.6 12.6 0 2.8.3 5.6.3 8.3 0 2.5.4 5 .2 7.4Z" fill="#3E73C4"/>
  <path d="m133.3 155-5.8-3.4-6.3-3.8c-.5-.3-.7-.7-.7-1.3 0-5.5 0-11-.3-16.6a367 367 0 0 1-.4-26l.6-29.6.2-4.8c0-.7-.2-1-1-1l-.2 4.7-.4 12.9c-.4 10.8 0 21.5 0 32.3.1 9.2.8 18.3.7 27.4v1l-3.5-2.3c-1.3-1-2.8-1.9-4.1-3-.3-.1-.5-.3-.5-.7 0-5.8-.5-11.6-.7-17.4-.3-8.2-.3-16.4-.4-24.5-.1-7.3.3-14.5.8-21.8.1-2.2.2-4.3.5-6.5l1.3-6.4c.2-1 .6-1.1 1.6-1 .8.3 1.5.5 2.2 1 3.5 2 6.9 4 10.4 5.8.6.3.7.7.6 1.3-.3 3.8-.1 7.7 0 11.6l.7 11.5c.2 3.4.3 6.9.6 10.3l.8 10.7.5 8.7 1.2 13.2.7 9c.2 2.8.5 5.7 1 8.7ZM112.2 88l.4 2.5a63.2 63.2 0 0 0 4.2 12.4c.2.2.3.5.6.4.3 0 .3-.4.3-.6.3-1.1.2-2.2 0-3.3-.8-4-2.3-8-2.8-12 0-.8-.9-1.4-1.6-1.3-.7 0-1.1.6-1.1 1.9Zm16 14c.2-1.5-.3-2.8-.5-4.2-.7-3.1-1.6-6.3-2-9.5v-1.7c-.2-.7-.5-1.1-1.2-1-.7 0-1 .5-.9 1 .4 1.4.3 2.8.4 4.2.4 3.3 1 6.5 1.8 9.7a9 9 0 0 0 1.4 3.3c.2.2.3.4.6.4.2 0 .2-.3.3-.6.3-.5.1-1.1.2-1.7ZM122 100v.4c.7 1.3 1.1 2.7 1.7 4 .2.7.6 1.2 1.3 1.6.6.3 1 0 1.3-.5.2-.4.3-.8.2-1.3-.5-1.8-1.3-3.5-2.3-5-.3-.5-.8-.8-1.3-.7-.6.2-1 .6-1 1.5Zm-6 3.5c0-1.4-.8-2.3-1.3-3.3a1 1 0 0 0-1.3-.4c-.6.2-.8.6-.7 1.2.2 1.3.7 2.4 1.7 3.2.4.2.7.6 1.1.3.4-.3.6-.7.5-1Zm7.6 10v-.9c0-.5-.3-1-.8-1.2-.5-.1-1 0-1.4.4-.8.6-.9 2.4 0 3.2.4.4.9.7 1.5.5.7-.2.7-.8.7-1.4v-.5Zm-8.1-1.7v.8c.3.9 1 1.3 1.8 1.1.6 0 1-.7 1-1.6a5 5 0 0 0-.3-1c-.4-1.2-1.3-1.4-2.1-.5-.3.3-.4.7-.4 1.2Z" fill="#DEEAFE"/>
  <path d="M111 52.3a62.8 62.8 0 0 0-3.8 8.7c-1 2.8-1.6 5.7-2.3 8.5-.5 2.5-1 5-1.2 7.4l-.3 5.2c-.3 2.4-.2 4.8-.5 7.2-.3 2.2-.4 4.5-.5 6.7-.3 6.3-.3 12.7 0 19 .1 3.2.7 6.5 1 9.7a75 75 0 0 0 2.6 12.8l-21.1-13c.8-.3 1.6-.2 2.3-.4 1.2-.2 1.6-.6 1.7-1.9 0-.4 0-.6.5-.5.3 0 .6-.2.7-.4a6.8 6.8 0 0 0 1-6c-.1-.3 0-.4.3-.5l.4-.1c.6-1 1.3-.5 2 0 .7.6 1.6 1 2.5 1.5.4.3.6.1.7-.3l.1-1.3c0-4.7 0-9.5.2-14.2l.8-10 .6-9c.4-5.8.8-11.7 2.1-17.5 0-.2 0-.4.2-.5.3-.7.2-1.1-.5-1.4-1.6-.9-3-2.1-4.7-3-.3-.1-.3-.4-.4-.6-1.3-2-2.4-4.1-4-6-.4-.6-.9-1.3-1.5-1.8-.5-.5-.2-.6.3-.7 2-.6 4-1.5 6-2.2.5-.2.8-.5.7-1-.1-1.6.5-2 1.9-1.3l.6.3c0 .2.2.2.4.2 0 .3.2.3.4.5 1.1.8 2.5 1.2 3.8 1.7 1.8.6 3.3 1.9 5 2.4 1 .3 1.6.9 2 1.8Z" fill="#3E73C4"/>
  <path d="M130.2 44.2c.5-.4 1.3-.4 2-.7l.8-.3c1.2-.3 2.3-.2 3.4.5L130 46a80.4 80.4 0 0 0-12.8 5.5c-1.3.7-2.3 2-3.2 3.4-1.5 2.3-2.5 5-3.6 7.5-2.3 6-3.9 12.3-4.8 18.7a138.7 138.7 0 0 0-1.4 18c0 4.5 0 9 .5 13.5l1.1 9.7.6 6.7c.3 2.9.1 5.7.9 8.5l.5 2c-.7-.3-.9-.9-1-1.5-.9-3.6-1.5-7.3-2-11-.3-2.6-.6-5.2-1.1-7.8l-.3-2.7c-.3-7.6-.3-15.1 0-22.7 0-2.2.3-4.5.5-6.8l.2-3.8c0-9.4 2.3-18.2 6-26.7.4-1 .7-2 1.5-2.8.6 1 1.8 1.2 2.4.2 1-1.8 2.5-3 4.4-3.8 4.5-2 9-4 13.7-5.4.2 0 .2 0 .2-.2l-2.1-.2Z" fill="#344562"/>
  <path d="M131 24.3c6.9 2.2 13.7 4.4 20.4 6.9.5.2.8.4.9 1l1.1 4.5c.1.3.3.7-.4.8-2.7.4-5.5.9-8.2 1.6h-.4l-.2-.5c-2.2-2-4.7-3.9-6.6-6.2-1.5-1.9-3.3-3.4-4.7-5.4-.6-1-1.4-1.7-1.8-2.7Z" fill="#61A0FF"/>
  <path d="M93.6 103.9c-.9.2-1.2-.6-1.4-1.1-.6-1-1-2.2-1.5-3.3-.5-.8.6-1.1.7-2l.6 1.7c0 .3 0 .9.5.7.4 0 0-.5 0-.8L92 97c-.2-.5 0-1 .2-1.3.5-.3 1.2-.4 1.7-.2.3.1.8.6.2 1.1l-.5.5c-.1.2-.2.5 0 .7.3.2.5 0 .7-.1 1-.8 1-1.8.1-3-.5-.6-1-1.4-1.3-2.2-.3-.6 0-1.3.3-2 .7-1.2.7-1.2 2.1-.8l-.6 1.6c-.2.4 0 .6.3.8.3.8.3 1.7 1.2 2.4 0-1-.6-1.5-.7-2.2.4 0 .6-.2.7-.5l.4-2.4c0-.4-.2-.6-.5-.6v-.5c.2-.2.3-.4.3-.7-.2-1-.2-2-.5-3-.1-.7-.6-1-1.3-1l-1-1.5c-.5-.6-.5-1.3-.6-2 0-.3.1-.8.5-.6.6.3 1-.1 1.5-.3-.6 1-1 2-.4 3.2.1.2 0 .4.4.5.3 0 .4-.2.5-.4l1.2-1.8c.3-.7 0-1.2-.5-1.6-.5-.5-.8-.3-1.2 0-.2-.4.1-.5.4-.7.6-.5.6-1 0-1.4-.4-.3-1-.4-1-1 0-1 .2-1.9.7-2.6.3-.6 1-.3 1.3.3 0 .3 0 1 .5.8.5-.2 0-.7 0-1 0-.4-.2-.7-.4-1l-.5-1h1c.6.2.8-.1.5-.6-.9-1.3-.2-2.4.2-3.6.5-.9-.4-.8-.8-1.1.4-1.2 1.1-1.8 2.3-1.8-.5-.6-1.2-.6-1.8-.7-.7-.2-1.2-.4-1-1.3.2-.6-.2-1.3-.4-2.2l3.6 2.6c.3.1.1.5 0 .8-1.3 5-1.6 10.2-2 15.4-.4 6.3-.9 12.6-1.1 19-.3 5.6-.9 11.3-.6 17.1-1.3-.6-2.2-1.6-3.6-2 1-.5.4-1.4.7-2 .5.1 1.1.2 1 1 0 .2 0 .4.2.4s.2-.2.3-.4c.7-1.6.6-2-.8-3-1-.6-.6-1.4-.9-2.1 0-.3 1.3-1 1.6-.8l1.1.5c0-.7-.5-.7-.8-.9-.7-.3-1.1-.9-1.3-1.6.6 0 1-.5 1.6-.5.2 0 .4-.1.3-.3 0-.2-.2-.2-.4-.2l-1.5.7Z" fill="#D2E2F9"/>
  <path d="m129.5 39.8 4 2.2-6.6 2-.3-.2-9-1-8.9-1c-.8 0-1.7.1-2.5-.3.2-1 .3-1.8-.2-2.6-.2-.4 0-.5.2-.6l1.5-.6c1-.3 1.9-.9 2.7-1.6 0 .3.3.3.5.4l2.7.7c4.3 1.2 8.6 1.8 13 2.4.9.1 1.9.4 2.9.2Z" fill="#3E73C4"/>
  <path d="M106.2 41.5c.8.4 1.7.2 2.5.3l9 1 9 1 .2.2a53.9 53.9 0 0 0-12.1 4.8l-2 1c.2-.7-.4-.8-.8-.9l-5.4-1.4c-.4-.1-.9-.6-1.4-.2l-.4-.2s-.1-.1-.2 0c-1.6-.7-3.1-1.6-4.9-2.1 1-1 2.2-1.3 3.3-1.7 1.2-.5 2.4-.8 3.2-1.8Z" fill="#61A0FF"/>
  <path d="M131 24.3c.5 1 1.3 1.8 2 2.7 1.3 2 3 3.5 4.6 5.4 1.9 2.3 4.4 4.1 6.5 6.2.2.2.3.3.3.5-1 .4-2 .5-3 .8h-.5l-6-3.2c0-.2-.2-.2-.3-.2l-.2-.2c0-.4-.3-.6-.5-.8l-5.3-4.7c-.9-.7-1.7-1.6-2.8-2 .2-.8 1-1 1.3-1.5l1-.8c.7-.6.7-1.2.3-1.9l-1.4-1.7 4 1.4Z" fill="#3E73C4"/>
  <path d="M156.4 43.2c.8-.4 1.1-1 .9-2-1.4-5.4-2.3-11-3.3-16.6l-1.4-7.4c.6.2.9.7 1.2 1 .6.6 1 1.2 1.8 1.6l1.6 9.1c.7 4.3 1 8.7 2.3 13 .2.8 0 1.7 0 2.5 0 .2-.2.3-.3.4-1.4.6-2.7 1.4-4.2 1.8.1-.9 1-1.3 1.2-2.1.1-.4.6-.8.2-1.3Z" fill="#6C88AF"/>
  <path d="M129.5 39.8c-1 .2-2-.1-3-.2-4.3-.6-8.7-1.2-12.9-2.4l-2.7-.7c-.2 0-.5 0-.5-.4.5-.4 1-.7 1.4-1.2.4-.5 1-.3 1.5-.2 1.8.4 3.4-.2 5.1-.6.4 0 .6-.2 1 0l10 5.7Z" fill="#61A0FF"/>
  <path d="M129.7 35c1.3.6 2.6 1.2 3.9 2 4 2.5 8.2 4.4 12.3 6.8l3.3 1.8c.6.3 1 .2 1.5 0l1.9-.6c0 .4-.2.7-.3 1-.3.7-1 1.3-1.2 2l-.8.5c-.5.2-1 .5-1.6.5-.8 0-.5-.9-.8-1.4-.7-1-1.8-1.6-2.7-2.3a31.7 31.7 0 0 0-5.7-3.4l-8.4-4.2c-.3-1-1.2-1.6-1.4-2.7Z" fill="#6C88AF"/>
  <path d="M116.9 18c-1.9.8-3.8 1.2-5.8 1.6-2 .4-3.7 1.1-5.6 1.6-.7.2-1 .7-.8 1.5l.2.5c.3.7.1 1.1-.7 1.4-1.1.3-2.3.6-3.4 1.3 0-1.6-.4-3 0-4.5 0-.4 0-.6.5-.7 2.5-.5 4.6-1.8 7-2.6l3.2-1c1 .2 1.8 0 2.7.1 1 .1 2 0 2.7.7ZM142.7 10.8l-8 2.1-11 3.1-1.7.5c-.4-.3-.8-.2-1.2-.3-.7-.2-1.5-.3-1.8-1 2.5-1 5.2-1.3 7.8-2 4-1.3 8-2 12-3.1h.4c.6.2 1.2 0 1.8.1.6.2 1.3-.1 1.7.6Z" fill="#344562"/>
  <path d="m130.2 44.2 2.1.2c0 .1 0 .2-.2.2-4.7 1.5-9.2 3.5-13.7 5.4-1.9.8-3.4 2-4.4 3.8-.6 1-1.8.9-2.4-.2a7 7 0 0 1 3.4-4.2c4.5-2.3 9.2-3.9 14-5l1.2-.2Z" fill="#6C88AF"/>
  <path d="M147.6 48.6C146 48 144.5 47 143 46c-1.5-.9-2.9-1.9-4.4-2.6-7-3.6-13.8-7.6-20.8-11.5-3.7-2-7.2-4.6-10.9-7-.2 0-.4-.2-.3-.4.2-.4.5 0 .7 0 3.1 2 6.2 4.1 9.4 6L130 38c2.8 1.6 5.8 2.9 8.6 4.5 2.5 1.6 5.1 2.8 7.6 4.4.7.4 1 1 1.4 1.7Z" fill="#344562"/>
  <path d="M79.8 121.5h1c1.1-.1 2-.4 2.5-1.5.1-.4.4-.2.6-.2 1.5.2 1.9 0 2.5-1.3.4-.8.7-1.6 1.4-2.2.3-.2.6-.5 1-.4.7 0 1.5-.2 2 .5.4 1 0 2.6-.7 3-.2.2-.5.4-.5.6-.2 1-1.3.4-1.7 1 0 .2-.2 0-.3-.2-.4-.4-.8-.6-1.3-.6-.3 0-.5 0-.6.4 0 .2.3.3.4.3.6.2 1 .6 1.4.8.2.2.4.4.3.8a5 5 0 0 0-2.5-1.4c-.6-.2-1 .1-1.6 0-.4 0-.2.4-.1.5.2.3.6.4 1 .4 1-.1 1.8.5 2.6 1.1-2.8 1.4-5.2.3-7.4-1.3v-.3Z" fill="#E5C490"/>
  <path d="M156.3 41.8c-.6 0-.8-.3-.9-.7-1.1-4.3-2.2-8.6-3-12.9l-1.8-10-1.2-7.3c-.1-.5.2-.5.5-.6.5-.2.4.2.4.5l3 16c.9 5 1.7 10 3 15Z" fill="#344562"/>
  <path d="M145.8 8.4c2.4-.8 5-1.2 7.5-1.7.8-.1 1.5-.1 2.2-.5.5-.3 1-.2 1.3.2 1 .8 1.6 1.7 2 2.9.2.7 1 1.5.6 2-.3.7-1.3.6-2 1-.5.1-.8.2-.8-.5s-.3-1.5-.5-2.2c-.3-.8-.8-1.2-1.7-1.2-1.5 0-2.8.7-4.2.8l-.8.1c-.5-.2-1-.1-1.4-.2-.8 0-1.6 0-2.2-.7ZM105.3 16.4h.2c.3.3.6 0 1 0 .9-.1 1.8-.2 2.7.3l-5.3 1.9-3 1.2c-1 .3-1.2 1-1.3 1.9-.2 1.1-.3 2.2-.2 3.4 0 .5 0 .6-.6.5-1.5-.5-1.4-.5-1.2-2l.4-3.4c.2-1 .7-1.8 1.8-2.1l5.2-1.6c.2.2.3.1.3 0ZM134.1 9.8c-1.5.6-3.1.8-4.7 1.2l-9.2 2.7c-1.1.3-2.4.3-3.5.7-.5-.3-1-.1-1.4-.2-.4 0-.8.2-1-.3 1.4-.8 3-1.3 4.6-1.7l7.9-2c.8-.3 1.6-.5 2.4-.5.9.2 1.7 0 2.5-.1.8 0 1.6-.4 2.4.2ZM137.5 7.5c1.3-.7 2.7-1 4.1-1.3l7.3-1.7h.9c1.6.6 3.3.8 5.1 1-4.6.9-9 1.3-13.4 2.6-.3-.3-.7 0-1 0-1-.1-2 0-3-.6Z" fill="#344562"/>
  <path d="m113.8 26 4 2 6.5 4c0 .3.2.5.3.8.2.6.7 1 .7 1.8l-7.5-4.2a46 46 0 0 1-5.4-3.6c.4-.4 1-.4 1.4-.8Z" fill="#6C88AF"/>
  <path d="M146.3 54c-.1.2-.3.3-.6.3l-.3-.1c-2.7-1-2.8-1-2.7-3.8 0-1.1-.4-1.9-1.3-2.5-1.8-1.2-3.4-2.6-5.7-3 1.2-.5 2.2-.5 3.4.2 1.5 1 3.3 1.5 4.8 2.6l.6.5c1.6 1.4 1.4.8.8 2.7-.3.6-.8 1.3-.6 2 .1.6 1.1.6 1.6 1Z" fill="#3E73C4"/>
  <path d="M125.8 28.7c1 .5 2 1.4 2.8 2.1l5.3 4.7c.2.2.6.4.5.8-1.1-.4-2.2-1-3.2-1.5l-7.4-4c1.4-.2 2-.8 2-2Z" fill="#61A0FF"/>
  <path d="M113.8 26c-.4.4-1 .4-1.4.8-1.4-.6-2.7-1.6-4-2.4l-1.7-.8c-.3-.2-.5-.4-.4-.8.1-.4.3-.7.8-.7s1-.1 1.5.3l4.6 3.1c.2.2.5.3.6.6Z" fill="#344562"/>
  <path d="M119 15.2c.3.7 1 .8 1.8 1 .4 0 .8 0 1.2.3-1.8.4-3.4 1.1-5.1 1.5-.8-.7-1.8-.7-2.7-.8-.9-.1-1.8.1-2.7-.1l7.5-2Z" fill="#6C88AF"/>
  <path d="m151.9 13.7-.7-3.1c-.1-.4 0-.6.4-.7 1.5-.4 2.3.1 2.6 1.6l.5 3.1c-1-.3-1.8-.7-2.8-.9Z" fill="#344562"/>
  <path d="m147.9 41.4 5.7-1.5c.3 0 .7-.2.7.3 0 .4.6 1-.2 1.3-1.4.6-2.7 1.4-4.3 1.7 0-.4-.5-.5-.7-.7-.4-.4-1-.5-1.2-1.1Z" fill="#61A0FF"/>
  <path d="M125.3 34.6c0-.7-.5-1.2-.7-1.8-.1-.3-.4-.5-.3-.8l5.4 3c.2 1 1.1 1.7 1.4 2.7-2-1-4-1.9-5.8-3.1Z" fill="#98B3D9"/>
  <path d="M137.5 7.5c1 .7 2 .5 3 .5.3 0 .7-.2 1 0-2 .5-3.9 1.2-6 1.6l-1.4.2c-.8-.6-1.6-.3-2.4-.2-.8 0-1.6.3-2.5 0l6.3-1.7c.7-.2 1.3-.5 2-.4Z" fill="#6C88AF"/>
  <path d="M151.9 13.7c1 .2 1.8.6 2.8 1l.9 5.1c-.7-.4-1.2-1-1.8-1.6-.3-.3-.6-.8-1.2-1l-.7-3.5Z" fill="#98B3D9"/>
  <path d="M145.8 8.4c.6.7 1.4.6 2.2.7.4.1 1 0 1.4.2l-6.7 1.5c-.4-.7-1.1-.4-1.7-.6-.6-.1-1.2.1-1.8-.1 2.2-.6 4.3-1.4 6.6-1.7ZM114.3 14c.2.4.6.2 1 .2s1-.1 1.4.2l-7 2.2h-.5c-.9-.4-1.8-.3-2.8-.2-.3 0-.6.3-.9 0l7-2.1 1.8-.4Z" fill="#6C88AF"/>
  <path d="M111 52.3c-.4-1-1-1.5-2-1.8-1.7-.5-3.2-1.8-5-2.4-1.3-.5-2.7-1-3.8-1.7-.2-.2-.5-.2-.4-.5 2.2.7 4.3 1.5 6.4 2.6l1.3.4c.3.2.6.3 1 .3.1.2.3.2.5.2 0 .2.2.2.4.2l.5.2c.6.5 1.5.6 2.1 1l-1 1.5Z" fill="#61A0FF"/>
  <path d="M112 50.8c-.6-.4-1.5-.5-2.1-1-.1-.2-.3-.2-.5-.2 0-.2-.2-.2-.4-.2 0-.2-.3-.2-.5-.2-.2-.4-.7-.5-1-.6l-2.3-1.3c.5-.4 1 0 1.4.2l5.3 1.4c.5.1 1 .2 1 1l-.9 1Z" fill="#3E73C4"/>
  <path d="M94.8 83.6c.7 0 1.2.3 1.3 1 .3 1 .3 2 .5 3 0 .3 0 .5-.4.7a2.9 2.9 0 0 0-1.9-1.4c-.7-.2-.8-.7-.9-1.3 0-.6.3-.8.7-1 .5-.2.7-.5.7-1Z" fill="#D2E2F9"/>
  <path d="M145.8 39.8c2.4-.6 4.8-1 7.2-1.4.3 0 .6-.2.7.1.1.4-.2.6-.5.7l-2.8.7c-.2-.1-.4 0-.5.2h-.3c-.3-.3-.5-.1-.8 0-.7.2-1.4.2-2.1.2-.4 0-.8 0-.9-.5Z" fill="#6C88AF"/>
  <path d="M145.8 39.8c.1.5.5.5.9.5.7 0 1.4 0 2.1-.2.3-.1.5-.3.8 0-.2.3-.6.3-1 .4-.8.3-1.7.4-2.5.8-1.3.6-2.4.2-3.5-.7 1-.4 2.2-.5 3.2-.8Z" fill="#344562"/>
  <path d="M156.4 43.2c.4.5 0 .9-.2 1.3-.2.8-1 1.2-1.2 2-.7.5-1.4.8-2.2 1l.6-1.1c.4-.8 1.1-1.4 1.3-2.3.5-.5 1-.6 1.7-.9Z" fill="#98B3D9"/>
  <path d="m163.3 36.3-3.5.2c-.3 0-.3-.1-.4-.4l-.3-2c1.5.6 3 .8 4.2 2.2Z" fill="#61A0FF"/>
  <path d="M147.9 41.4c.2.6.8.7 1.1 1 .3.3.8.4.8.8-1.8 1.2-3-.2-4.5-1l2.6-.8Z" fill="#3E73C4"/>
  <path d="M154.7 44.1c-.2 1-.9 1.5-1.2 2.3l-.7 1c-.5.4-1.1.6-1.7.7.2-.8.9-1.4 1.2-2.1.1-.3.4-.6.3-1l.2-.1c.6-.3 1.2-.7 1.9-.8Z" fill="#344562"/>
  <path d="m153.5 50.6-5.1 1.9c.1-.9.5-1.3 1.3-1.4l3.4-.8c.2 0 .3.1.4.3Z" fill="#6C88AF"/>
  <path d="M155.7 42.6c-2 .6-3.8 1.4-5.7 1.9-.2 0-.4.3-.6 0-.1-.3.2-.4.4-.4 1.5-.6 3-1 4.5-1.8.5-.2.8.1 1.4.3Z" fill="#344562"/>
  <path d="m97.6 67-.6 1.1c0 .3 0 .8-.5.7-.5-.2-1-.3-1.4-.8v-.2c0-.3 1.7-1.2 2-1.2 0 .2.6 0 .5.4Z" fill="#D2E2F9"/>
  <path d="m147.9 51.1-1 1.7c-.2.3-.5.6-1 .2-.4-.3-.5-.5-.1-1l.1-.1c.3-.4.2-1 .7-1.2l1.3.4Z" fill="#344562"/>
  <path d="m154.9 47.9 3.3-1.9.1.2c-.6 1.5-2 2-3.4 2.5v-.8Z" fill="#6C88AF"/>
  <path d="M96.3 88.8c.3 0 .5.2.5.6l-.4 2.4c0 .3-.3.5-.7.5l-.2-.2c0-.2-.3-.4 0-.8.4-.8.7-1.6.8-2.5Z" fill="#D2E2F9"/>
  <path d="M165.6 37.2c-2 .1-3.7.4-5.5.7-.1 0-.3 0-.4-.2 0-.3.2-.3.4-.3l3.8-.4c.5 0 1-.4 1.7.2Z" fill="#6C88AF"/>
  <path d="M95.6 89c-1.3 0-1.7-.9-2.3-2 1.9.5 2.5 1 2.3 2ZM95 68.6c.5.2 1 .3 1.3.6.3.4.6 1 .6 1.5 0 .2-.7.3-1 0l-1-2Z" fill="#D2E2F9"/>
  <path d="M154.9 47.9v.8c-.8.4-1.6.8-2.5.9v-.7c.8-.5 1.6-.8 2.5-1ZM153.5 50.6c0-.2-.2-.3-.4-.3.6-.5 1.3-.6 2-1 .2-.1.6-.2.7.2.1.2 0 .7-.4.8-.7 0-1.3.4-2 .3Z" fill="#98B3D9"/>
  <path d="M94.4 68.9a20 20 0 0 1 1.7 3.8c-.3-.1-.7.2-.7-.4.1-1-.4-1.8-1-2.4-.4-.4-.6-.7 0-1ZM93.8 66.4c.7-.3 1.4-.2 2-.5.3 0 .6 0 .4.3-.4.5-.8 1-1.4 1-.4 0-.8-.4-1-.8Z" fill="#D2E2F9"/>
  <path d="M152.4 48.9v.7c-.6.4-1.4.4-2 .7v-.7l2-.7Z" fill="#344562"/>
  <path d="M150.3 49.6v.7l-1.2.5c-.1-.7.3-1.2 1.2-1.2Z" fill="#6C88AF"/>
  <path d="m98 64.2-1 1.3c-.1.1-.2.3-.4.2-.2-.1 0-.3 0-.5 0-.1.2-.3.1-.5-.1-1.2.6-.6 1.2-.5ZM91.7 84.3v-2c1.3 1.2 1.3 1.3 0 2Z" fill="#D2E2F9"/>
  <path d="M155.2 9.2c.3 1 .6 2 .5 3.1h-.2l-.6-3h.3ZM95.5 92.1l.2.2c.1.7.8 1.3.7 2.2-.9-.7-1-1.6-1.2-2.4h.3Z" fill="#344562"/>
  <path d="M93.6 94.8c-.5-.1-1 .3-1.1 0-.2-.5 0-1 .3-1.7l.8 1.7ZM94.6 110.9c-1-.5-1.4-1-1.4-1.5.5.4 1.1.6 1.4 1.5Z" fill="#D2E2F9"/>
  <path d="m93.6 103.9 1.5-.7c.2 0 .4 0 .4.2s-.1.2-.3.3c-.5 0-1 .5-1.6.5v-.3Z" fill="#344562"/>
  <path d="m126.9 26-.1-1.6c.9.4 1 1 0 1.6Z" fill="#D2E2F9"/>
  <path d="M152.3 107.2c-.5-1-.6-2-.6-3 .4 1 .5 2 .6 3Z" fill="#3E73C4"/>
  <path d="M97.6 67c0-.4-.4-.2-.5-.4v-.4c.4.3 1.3.2.8 1.1l-.3-.3ZM147.5 50.1h-.1c-.3-.2-.7-.2-.7-.6l.2-.2c.3.2.7.3.6.8ZM107.4 48.6c.4.1 1 .2 1 .6-.3 0-.6 0-1-.3v-.3ZM120 28.2c0 .1 0 .3.2.4-.3 0-.5 0-.5-.2s.1-.2.3-.2ZM147.5 50.1c.2 0 .4 0 .5.2-.3.1-.4 0-.5-.2ZM150 40c0-.2.2-.2.4-.1-.1.2-.3.3-.5.2Z" fill="#344562"/>
  <path d="M151.8 104.2c-.3-.2-.3-.4-.1-.7v.7ZM152.4 108c-.2-.2 0-.5-.1-.8.2.3.1.6.1.8Z" fill="#3E73C4"/>
  <path d="m91 110.4.2.2-.1.2-.4-.2.3-.2Z" fill="#fff"/>
  <path d="M119.1 28v-.3c.1.1.3.3 0 .4Z" fill="#344562"/>
  <path d="M93.1 82.4c.2.1.2.3.1.4l-.2-.2.1-.2Z" fill="#fff"/>
  <path d="M105.3 16.4c0 .2-.1.3-.3.1h.3Z" fill="#6C88AF"/>
  <path d="m121.9 29.7-.3-.2.2-.1.2.2-.1.1Z" fill="#fff"/>
  <path d="m158.6 45.9-.3.3-.1-.2s.2-.2.4 0v-.1Z" fill="#6C88AF"/>
  <path d="M134.6 36.5c.1 0 .3 0 .4.2l-.4-.2ZM99.8 45.9c-.2 0-.3 0-.4-.2.1 0 .3 0 .4.2Z" fill="#61A0FF"/>
  <path d="m152.8 44.9-.2.1.2-.1ZM158.6 46v-.2.1Z" fill="#6C88AF"/>
  <path d="m134.4 36.3.2.2c-.1 0-.2 0-.2-.2Z" fill="#61A0FF"/>
  <path d="M122 29.6c.1 0 .2 0 0 .2h-.1l.1-.2ZM84.4 116.2c.2.2 0 .3-.1.2l.1-.2Z" fill="#fff"/>
  <path d="M107.8 139.3s.2.1 0 .2v-.2Z" fill="#344562"/>
  <path d="m104.6 47 .2.1h-.2Z" fill="#3E73C4"/>
  <path d="M93 82.6c0-.1-.2-.2 0-.3l.1.1-.1.2ZM91.2 110.6l.1.2c0 .1-.1 0-.2 0v-.2Z" fill="#fff"/>
  <path d="M165.6 170.1v.1c0 .1 0 0-.1 0h.1Z" fill="#3E73C4"/>
  <path d="M92.9 62.8c.2-.6-.4-1.3.4-1.5.4 0 .8.5.8.8 0 .6-.7.4-1.2.7ZM85.1 66.3c-.3.5-.2 1-.2 1.6l-.1.4c-.2 0-.4-.1-.4-.3-.3-.6 0-1.4.7-1.7ZM85.2 90.7v1.4c-.4-.3-.4-.8 0-1.4Z" fill="#D2E2F9"/>
  <path d="M88.2 44.6c.3-.5.1-1.2.9-1.5.1 0 .3-.1.4 0 .1.2 0 .3 0 .4-.4.4-.4.9-.6 1.3 0 .2-.3.4-.5.3-.3 0-.2-.3-.2-.5Z" fill="#3E73C4"/>
  <path d="M84.6 104.7v.3c0 .2 0 .7-.3.7-.4 0-.3-.5-.3-.8v-.1c0-.4-.1-1 .3-1s.2.6.3.9Z" fill="#D2E2F9"/>
  <path d="M79.9 119.2c-.2.4-.3.8-.8.7-.2 0-.5 0-.4-.3 0-.4.3-.7.7-.7.2 0 .4.1.5.3Z" fill="#98B3D9"/>
  <path d="M107.9 31.5c0-.5.3-1 .9-1.2.3 0 .4.3.3.6 0 .5 0 1.2-.8 1.2-.4 0-.4-.3-.4-.6Z" fill="#61A0FF"/>
  <path d="M151.9 71.3c0-.4 0-.8.2-1.2.5-.8 1.3-1.2 2.2-1.5 9.4-2.6 18.6-5.8 28.1-8.2 4.7-1.1 9.2-3.1 14-4.2 1.1-.3 2.3-.7 3.5 0 1.6 2 2.3 4.5 3.3 6.8 2.7 6.5 4.7 13.3 6.5 20 1.4 5.4 3.4 10.6 4.7 16l3.2 11.9c.6 2.5 1.7 4.9 2.1 7.5.8 6 1.6 12 0 18-1.4 5-4.6 8.3-9.3 10.4-4.2 1.8-8.7 2.8-13.1 4.2-5.1 1.5-10.4 2-15.5 3l-5.8.5a8 8 0 0 1-3.6-.6c-3.8-1.5-7-3.6-8.8-7.3-1.3-2.4-2-5-2.6-7.6-.8-4-1.2-8-1.6-12.1-.3-3.4-.8-6.7-1.3-10l-1.1-10c-.3-3.3-1-6.4-1.5-9.6-.7-4.1-1.3-8.3-1.8-12.4l-1.5-10.4-.3-3v-.2Zm14.2 77-.1-.1v.1l1.2 1.2 1 1c2 1.3 3.9 2.5 6.2 2.8 2.1.3 4.4.1 6.6 0 2.6-.2 5.2-.9 7.7-1.3 4.8-.9 9.5-2.2 14.1-3.4l3-.9c2-.7 3.8-1.5 5.5-2.5 3.6-2 6.2-4.7 7.2-8.8.2-.5.3-1.1.3-1.8-.8.3-1.6.4-2.2 1-.9.7-1.7 1.4-2.7 2-2.7 1.8-5.8 3-8.2 5.4-.4.3-.7.2-.9 0-.3-.5-.7-.4-1.1-.3l-5 1.8c-.4.1-.9 0-1.2.5-1.7.2-3.4.6-5 1.2-.8 0-1.7-.2-1.9 1 0 .4-.4.4-.7.2-1-.5-2-.3-3.1 0-3.1.6-6.2 1.2-9.3 1.4-1.2.2-2.6 0-3.4 1.2l-1 .8c-.3.2-.6.2-.7-.2l-.2-.6c0-.5 0-1.1-.8-1-1.8.1-3.6-.2-5.3-.7Zm32.1-84.6c-1-.3-1.9 0-2.8.3-9.6 2.8-19.4 5-29 7.7-2.3.6-4.7.8-6.9 1.8-1.8.4-3.3 1.2-4.1 3.1-1.5 3.5-.6 7 2.8 8.7a3 3 0 0 0 2 .3l13.4-3c4.8-1 9.6-2.1 14.4-3.4 4.4-1.2 8.6-2.8 13-4.1 2-.7 3.3-3.3 2.8-5.5A9.5 9.5 0 0 0 201 65c-.7-.7-1.6-1.4-2.8-1.3ZM171.8 148c-.3-1.5-.1-3 .2-4.4.8-4.2 3.7-6.4 7.3-7.8 1.2-.4 2.4-.4 3.7-.1 4 1 7.5 5 7.8 9.2 0 .5 0 .6.5.4l3.6-1c1-.2 1.3-.7 1.3-1.6a25 25 0 0 0-.5-5.3l-2-12.1-2.4-13.8c-.7-4.2-1.2-8.4-2-12.5l-1-4.8c0-.2-.1-.5.1-.5.3-.1.4.1.4.3l2 8.6 2.4 13.8 2.1 12.4c.8 4.4 1.2 8.8 2.1 13.2.2.8.9 1.3 1.7 1 1.6-.4 3-1 4.6-1.7.3-.2.4-.4.3-.7-.4-1.1-.4-2.2-.6-3.4a9.5 9.5 0 0 1 6.8-10.2c2.9-.8 5.6-.7 8 1.6l.8 1 .3-1.2c0-3.4 0-6.7-.6-10-.6-3.2-1.6-6.3-2.4-9.4-3-11-6.3-21.9-9.5-32.8l-1.6-5-.2.1v.4c-.6 1.8-1.4 3.3-3.2 4-3.7 1.1-7.3 2.6-11 3.7-7.4 2.2-15 3.6-22.5 5.4l-7.5 1.6c-1.6.3-3.3.2-4.6-1.2-.6-.6-1.2-1.1-1.8-2l.2 1.5 1.8 12.3 2.2 15.2c.8 5.4 1.4 10.8 2 16.2.6 4.8 1.2 9.6 2.4 14.2.6 2.5 2 4.3 4.5 5.2 1.4.5 2.8.1 4.3.2Zm31.3-82.4a22 22 0 0 0-3.5-7.6c-1-1.5-1-1.5-2.8-1-4 .9-8 2.2-12 3.5-5 1.7-10.2 2.8-15.2 4.4-5 1.6-10 3.3-15.2 4.4-1.1.2-1.5.8-1.4 2l.3 3.3.5 3.2.3-.5a5.9 5.9 0 0 1 4.1-4.4l1.8-.7c2.9-1 5.9-1.5 8.8-2.4a655 655 0 0 1 27.5-7c2.4-.5 4.5-.2 6 2l.8.8Zm-13.4 79.5c-.2-3.3-2-5.7-4.7-7.4a6.5 6.5 0 0 0-7-.2 11 11 0 0 0-4.8 5.4 8 8 0 0 0-.5 5.7c.2.5.3.7.8.4l3.7-2c4-1.4 8-2.3 12-1 .5.1.5 0 .5-.3v-.6Zm15.4-3 3-2.2c3-2.6 6.5-4.6 10-6.2.3-.2.5-.2.5-.6-.1-1.8-.8-4-2.7-4.8-2.7-1.3-7-.4-8.9 1.9-1.8 2-2.5 4.4-2.5 7 0 1.7 0 3.3.6 5Zm-18.7 4.4c-2.8-.2-5.2.4-7.5 1.2 2.4-.5 4.9-.5 7.5-1.2Z" fill="#000"/>
  <path d="M199.9 56.2c-1.2-.7-2.4-.3-3.6 0-4.7 1-9.2 3-13.9 4.2-9.5 2.4-18.7 5.6-28.1 8.2-1 .3-1.7.7-2.2 1.5-.1-1.4.2-2.8.8-4 .3-.6 1.2-.8 2-1l12.6-3c2.5-.5 5-1.6 7.6-2 5-1 9.6-2.7 14.2-4.4l7.2-2.5c.8-.3 1.4-.1 1.8.6.5.8 1.4 1.4 1.6 2.4Z" fill="#3E73C4"/>
  <path d="M156.1 61.7a62 62 0 0 1 8.5-2.9 631 631 0 0 0 24.7-7.5c1.3-.5 2.7-.6 4.2-.4l-1.8.3c-3.2.8-6.2 2.2-9.3 3.2-8.3 2.8-16.8 5-25.2 7.4h-1Z" fill="#000"/>
  <path d="M151.9 71.3v.2c-.1-.1-.2-.2 0-.2Z" fill="#3E73C4"/>
  <path d="M133.3 103.8c.2-2.5-.1-5-.2-7.4l-.2-8.3c0-4.2-.7-8.3-.7-12.5v-4c0-.7 0-1 .9-.7 2.2.7 4.1 2 6.2 3.1l3.6 2c.5.4.8.8 1 1.4 1.4 4.9 2.2 9.9 2.8 14.9l1.8 15.3c.5 5.3 1.4 10.6 2.2 15.8l2.3 13.3c.5 3 1.3 6 1.7 9 .2 1.1-.5 1.7-1.5 1.3-1.1-.5-2.2-1-3.3-1.7-4.4-2.6-9-5-13.2-8-.4-.4-.8-.8-1.3-1-.3-.2-.3-.5-.3-.8l-1-15c-.1-5-.5-10.1-.7-15.2v-1.5Zm20.4 42.4v-.3c0-1.8-.8-3.4-1-5.1l-2.8-15.6c-.8-4.6-1.3-9.2-1.8-13.9l-1.3-10.8-1.5-11.7c-.5-3.8-1.2-7.5-2.3-11.2 0-.2-.2-.5-.5-.6-2.7-1.4-5.2-3-7.7-4.6-.4-.3-.9-.6-1.5-.6V73c0 4.8.2 9.6.5 14.5.4 7 .5 13.9.6 20.9 0 3 .4 6 .6 9.1l.5 7.3.5 9.3c0 1.3.5 2.2 1.8 3l15.2 8.8c.2.2.4.3.7.3Z" fill="#000"/>
  <path d="M112.2 87.9c0-1.3.4-1.9 1.1-2 .7 0 1.6.6 1.6 1.4.5 4.1 2 8 2.8 12 .2 1 .3 2.2 0 3.3 0 .2 0 .6-.3.6s-.4-.2-.6-.4a63.4 63.4 0 0 1-4.2-12.3l-.4-2.6ZM128.3 101.8c0 .6 0 1.2-.2 1.7 0 .3 0 .5-.3.6-.3 0-.4-.2-.5-.4a9 9 0 0 1-1.4-3.3c-.8-3.2-1.5-6.4-1.9-9.7-.1-1.4 0-2.8-.4-4.1-.1-.6.2-1 .9-1.1.7-.1 1 .3 1.1 1l.2 1.7c.3 3.2 1.2 6.3 1.9 9.5.3 1.4.7 2.7.6 4.1ZM122 100.1c0-.9.3-1.3.9-1.5.5-.1 1 .2 1.3.6a19 19 0 0 1 2.3 5c.1.6 0 1-.2 1.4-.3.5-.7.8-1.3.5-.7-.4-1-1-1.3-1.6l-1.6-4-.1-.4ZM116 103.6c.1.3 0 .7-.5 1-.4.3-.7 0-1-.3-1.1-.8-1.6-2-1.8-3.2 0-.6.1-1 .7-1.2.5-.2 1 0 1.3.4.5 1 1.3 2 1.3 3.3Z" fill="#D2E2F9"/>
  <path d="M123.6 113.7v.5c0 .6 0 1.2-.7 1.4-.6.2-1.1-.1-1.5-.5-.8-.8-.8-2.6 0-3.2.4-.4 1-.6 1.4-.4.5.2.7.7.8 1.2v1Zm-.7 0v-.8c0-.2-.1-.6-.4-.7a.8.8 0 0 0-1 .4c-.2.5-.3 1 0 1.5.3.4.5.9 1 .7.6-.1.3-.6.4-1ZM115.5 111.9c0-.5 0-.9.4-1.2.8-.9 1.7-.7 2.1.4l.2 1.1c.1 1-.3 1.5-1 1.6-.8.2-1.4-.2-1.6-1.1l-.1-.8Zm2 .5c-.2-.5.2-1.3-.7-1.4-.4 0-.6.4-.6 1 0 .5 0 1 .8 1.2.5 0 .6-.4.6-.8ZM121.8 23c0 1.3-.2 1.5-1 1.5s-1.2-.4-1.2-1.4c0-1 .5-1.8 1.1-1.8.8 0 1 .5 1 1.7Zm-.6 0c-.2-.4.2-.9-.3-.9-.6 0-.5.7-.5 1.1 0 .3-.1.7.3.6.7 0 .3-.6.5-.9ZM95.2 79.2c.3-.4.7-.6 1.2-.1.4.4.8 1 .5 1.6l-1.2 1.8c-.1.2-.3.4-.5.4-.3 0-.3-.3-.4-.5-.6-1.2-.2-2.2.4-3.2Zm.3 2.5c0-.8 1.5-1.1.4-2.3 0 .8-1 1.2-.4 2.3Z" fill="#000"/>
  <path d="M109.4 49.6c.2 0 .4 0 .5.2l-.5-.2ZM108.5 49.2c.2 0 .4 0 .5.2-.2 0-.4 0-.5-.2ZM109 49.4c.2 0 .3 0 .4.2-.2 0-.3 0-.4-.2Z" fill="#344562"/>
  <path d="M171.8 148.1c-1.5 0-3 .3-4.3-.2a6.9 6.9 0 0 1-4.5-5.2c-1.2-4.6-1.8-9.4-2.4-14.2-.6-5.4-1.2-10.8-2-16.2L156.4 97l-1.8-12.3c0-.4 0-.8-.2-1.5.6.9 1.2 1.4 1.8 2 1.3 1.4 3 1.5 4.7 1.2l7.5-1.6c7.4-1.8 15-3.2 22.4-5.4 3.7-1 7.3-2.6 11-3.8 1.8-.6 2.6-2.1 3.1-3.9l.1-.4h.2l1.6 4.9c3.3 10.9 6.6 21.8 9.5 32.8.8 3.1 1.8 6.2 2.4 9.4.5 3.3.7 6.6.6 10l-.3 1.2-.9-1c-2.3-2.3-5-2.4-8-1.6a9.5 9.5 0 0 0-6.7 10.2c.2 1.2.2 2.3.6 3.4.1.3 0 .5-.3.7-1.5.7-3 1.3-4.6 1.8-.8.2-1.5-.3-1.7-1.1-.9-4.4-1.3-8.8-2-13.2a3991.6 3991.6 0 0 0-4.6-26.2l-2-8.6c0-.2-.1-.4-.4-.3a866.3 866.3 0 0 0 .8 5.3c.9 4.1 1.4 8.3 2.1 12.5l2.3 13.8 2 12.1c.4 1.8.7 3.5.6 5.3 0 .9-.3 1.4-1.3 1.6l-3.6 1c-.4.2-.5 0-.5-.4-.3-4.2-3.8-8.3-7.8-9.2a6.2 6.2 0 0 0-3.7.1c-3.6 1.4-6.5 3.6-7.3 7.8-.3 1.4-.5 2.9-.2 4.4Zm12.1-25.4c0-1-.2-1.7-.6-2.2l-1.5-2c-5.2-6.8-9.8-14-14.5-21-.3-.6-.6-1.2-1-1.6-.9-.8-1.8-.8-2.5.2-.5.6-.5 1.3 0 2a192 192 0 0 0 15.6 23c.7 1 1.6 2 3 2.4.9.3 1.5-.2 1.5-.8Zm22-25.2v-5.8c0-.3 0-.7-.2-1-.4-.7-1-.7-1.4 0a5 5 0 0 0-.6 1.4c-.8 3.9-1.2 7.9-1.6 11.9-.2 2.3-.1 4.6-.1 7 0 1 .2 1.8.6 2.7.2.4.4 1 1 1 .7 0 1-.6 1.2-1 .6-1.1.8-2.3.8-3.5 0-2.9 0-5.8.2-8.6v-4.1Zm-23.4 14.4v-.5c-.4-2.4-1.2-4.6-2-6.8-.3-1-.6-2-1.3-2.8-.3-.4-.8-.5-1.3-.4-.4 0-.5.5-.6.9-.3.5 0 1 0 1.6.4 3 1.2 5.8 2.6 8.5.3.5.7 1 1.2 1.2.8.4 1.4-.3 1.4-1.7Zm16.7-10.2-.4-2.9c-.2-.7-.7-1-1.3-1.2-.7-.2-1.3.2-1.7.7-.3.5-.4 1-.3 1.5.2 2.2.7 4.2 1.9 6 .3.6.5.5.8 0 .6-1.3.9-2.7 1-4.1Z" fill="#DEEAFE"/>
  <path d="M159.6 73.5c2.1-1 4.5-1.2 6.8-1.8 9.6-2.8 19.4-5 29-7.7 1-.2 1.9-.6 2.8-.4l.3.3c2 1 3.2 2.6 3.8 4.7.3 1.2.2 2.2-.4 3.2-.8 1.3-2.2 1.9-3.5 2.4-2.7 1-5.4 1.7-8 2.6-3 .9-6 2-9 2.7a489 489 0 0 1-19.4 4.2c-2.2.4-4.3-.8-5-3-.6-2 0-3.8 1.2-5.5.4-.6 1-1 1.3-1.7Zm36-2.4-.7.1c-3.8 1-7.5 2.3-11.2 3.3-5 1.5-10.3 2.7-15.5 3.6-1.6.3-3.1.4-4.6 1-.5.3-1 .6-.7 1.3.2.6.8.6 1.3.5 3.4-1 6.9-1.8 10.4-2.6 5.4-1.2 10.8-2.7 16.2-4.3 1.5-.4 3-.8 4.7-.8.7 0 1.3-.6 1.2-1.2 0-.6-.5-.9-1.2-1Zm-1.8-3.2c-1 .3-2 .5-2.8.9-6 2-12 4-18.2 5.2-2.9.6-5.8 1.1-8.7 2-.6.2-1.1.4-1 1.1.3.8.9.7 1.5.4l2-.6 11-2.6c4.8-1.1 9.5-2.8 14.3-3.9l2.1-.4c.6-.2 1-.6.9-1.2 0-.6-.5-1-1.1-1Zm5.5 1.3c.7 0 1-.6.8-1.2a35 35 0 0 0-.8-2.3 2.4 2.4 0 0 0-3.1-1.4c-.6.2-1.2.5-1 1.2.1.7.6 1.1 1.3 1 .7 0 1.1.3 1.4.8l.5 1.2c.2.4.4.7 1 .7Zm-.5 1.7c0 .6.3 1 1 1 .6 0 1-.3 1-1 0-.6-.5-1-1-1-.6 0-1 .4-1 1Z" fill="#6C88AF"/>
  <path d="m203 65.7-.7-.8c-1.5-2.2-3.6-2.5-6-2a661 661 0 0 0-27.5 7c-3 .9-6 1.4-8.8 2.4l-1.8.7a5.9 5.9 0 0 0-4.1 4.4l-.3.4-.5-3-.3-3.4c-.1-1.2.3-1.8 1.4-2 5.2-1 10.2-2.9 15.2-4.4 5-1.6 10.2-2.7 15.3-4.4 4-1.3 7.8-2.6 11.9-3.6 1.8-.4 1.8-.4 2.8 1a22 22 0 0 1 3.5 7.7Z" fill="#DEEAFE"/>
  <path d="M189.7 145.2v.6c0 .3 0 .4-.4.3-4.2-1.3-8.2-.4-12 1-1.4.6-2.6 1.3-3.8 2-.5.3-.6.1-.8-.4a8 8 0 0 1 .5-5.7 11 11 0 0 1 4.8-5.4 6.5 6.5 0 0 1 7 .2 9.4 9.4 0 0 1 4.7 7.4Zm-6.8-3.5-.3-1.5c-.5-1.3-1.4-1.5-2.3-.5-.3.3-.7.7.1 1 .2 0 .4.2.4.5-.1.2-.3.3-.5.2-.9-.1-1 .4-1 1v1.4c.1.6.3 1.2 1 1.4.6.2 1.2-.1 1.6-.6.7-.8 1-1.8 1-3Z" fill="#fff"/>
  <path d="M159.5 73.5c-.2.7-.9 1.1-1.3 1.7-1.2 1.7-1.8 3.5-1.2 5.5a4.2 4.2 0 0 0 5 3 490 490 0 0 0 19.4-4.2c3-.7 6-1.8 8.9-2.7 2.7-.9 5.4-1.6 8-2.6 1.4-.5 2.8-1 3.6-2.4.6-1 .7-2 .4-3.2a6.7 6.7 0 0 0-3.8-4.6l-.3-.3c1.2-.1 2.1.6 2.8 1.3a9.5 9.5 0 0 1 2.8 4.6c.5 2.2-.8 4.8-2.8 5.5-4.4 1.3-8.6 2.9-13 4-4.8 1.4-9.5 2.5-14.4 3.6-4.4 1-8.9 1.8-13.3 2.9a3 3 0 0 1-2.1-.3c-3.4-1.8-4.3-5.2-2.8-8.7.8-2 2.3-2.7 4.1-3Z" fill="#344562"/>
  <path d="M205.1 142.3c-.6-1.7-.7-3.3-.6-5 0-2.6.7-5 2.5-7 2-2.3 6.2-3.2 9-2 1.8 1 2.5 3.1 2.6 5 0 .3-.2.3-.5.5-3.5 1.6-7 3.6-10 6.2l-3 2.3Zm3.8-10.1h.5c.3 0 .5.1.6.4 0 .4-.1.6-.5.6l-.7.2c-.3 0-.4.1-.4.3l.1 2.5c.2.7.6 1.1 1.2 1.2.6 0 1-.4 1.2-1 .6-1.2.7-2.5.7-3.8 0-1.2-.4-1.9-1.1-2-.7 0-1.2.5-1.6 1.6Z" fill="#fff"/>
  <path d="M202.8 148.6c-4.6 1.2-9.3 2.5-14 3.4-2.6.4-5.2 1-7.8 1.3a35 35 0 0 1-6.6 0c-2.3-.3-4.3-1.5-6.1-2.9-.4-.3-.8-.5-1-.9 1.6.3 3.2.5 5 .5l.1.6c.1.4.4.4.7.2l1-.8c1.2.1 2.4-.1 3.6-.1 2.7-.1 5.4-.4 8-.9l6.4-1c.6.7 1.3 1.1 2.4 1l1.8-.3c1.7-.4 3.4-.8 5-1 .7 0 1.5-.1 1.5.9ZM218.5 136.4c-1 4-3.6 6.8-7.2 8.8a39 39 0 0 1-5.5 2.5c0-.7-.3-1.1-1-1.4-.5-.2-1.2-.4-1.9-.3l-4.8.8c-.8.1-1.6.6-2.4.3.1-.3.4-.3.6-.3l8.2-2.9c4.8-1.7 9.3-4 13.3-7.3.2-.2.4-.5.7-.2Z" fill="#6C88AF"/>
  <path d="M218.5 136.4c-.3-.3-.5 0-.7.2-4 3.3-8.5 5.6-13.3 7.3l-8.2 2.9c-.2 0-.5 0-.6.3h-.6c.6-1 1.6-1.4 2.4-2.1.3-.5.8-.4 1.3-.5l4.9-1.8c.4-.1.8-.3 1.1.2.2.3.5.4 1 0 2.3-2.3 5.4-3.5 8.1-5.3 1-.6 1.8-1.3 2.7-2 .6-.6 1.4-.7 2.2-1 0 .7 0 1.3-.3 1.8Z" fill="#344562"/>
  <path d="m195.1 147.2.6-.1c.8.3 1.6-.2 2.4-.3l4.8-.8c.7 0 1.4.1 2 .3.6.3 1 .7.9 1.4l-3 .9c0-1-.8-1-1.4-.9-1.7.2-3.4.6-5 1-.7.2-1.3.3-2 .3-1 .1-1.7-.3-2.3-1 0-.7 0-1.3.4-1.8 1.6-.6 3.3-1 5-1.2-.8.7-1.8 1.2-2.5 2l.1.2Z" fill="#98B3D9"/>
  <path d="M192.5 146.2c-.3.5-.4 1.1-.3 1.7l-6.5 1.1c-2.6.5-5.3.8-8 .9-1.2 0-2.4.2-3.6.1.8-1.3 2.2-1 3.4-1.1 3.1-.3 6.2-1 9.3-1.5 1-.3 2-.5 3 0 .4.2.8.2.8-.2.2-1.2 1-1 1.9-1ZM172.2 150c-1.6 0-3.3-.2-5-.5-.4-.4-.8-.7-1.1-1.2 1.7.5 3.5.8 5.3.7.8-.1.7.5.8 1Z" fill="#344562"/>
  <path d="M186.4 146.6c-2.6.7-5.1.7-7.5 1.2 2.3-.8 4.7-1.4 7.5-1.2Z" fill="#D2E2F9"/>
  <path d="M166 148.3v-.1h.1v.1Z" fill="#344562"/>
  <path d="M153.7 146.2c-.3 0-.5-.1-.7-.3l-15.2-8.9a3.3 3.3 0 0 1-1.8-3l-.5-9.2-.5-7.3c-.2-3-.5-6-.6-9.1 0-7-.2-14-.6-21-.3-4.7-.4-9.6-.5-14.4v-1.2c.6 0 1 .3 1.5.6 2.5 1.6 5 3.2 7.7 4.6.3.1.4.4.5.7 1 3.6 1.8 7.3 2.3 11.1l1.4 11.7 1.4 10.8c.5 4.7 1 9.3 1.8 14 1 5.1 1.8 10.3 2.7 15.5.3 1.7 1 3.3 1.1 5.1v.3Zm-7.7-30.9c0-1-.3-2-.5-3a197.7 197.7 0 0 0-5.8-17.1c-.3-.7-.6-1-1.2-1.1-.5-.1-.9.2-1.1.6-.3.4-.2 1-.1 1.4 1.2 5 2.9 9.8 4.5 14.6.6 1.8 1.4 3.6 2.6 5 .3.5.7 1.1 1.2 1 .6-.2.3-1 .4-1.4Zm-2.7 4.1c0-.4 0-.8-.2-1.2-.7-2-2-4-3-5.9a7 7 0 0 0-1-1.6c-.6-.6-1.2-.8-1.8-.3-.7.4-.7 1-.4 1.8l2.2 4.2a9.6 9.6 0 0 0 3 3.7c.3.2.6.5 1 .3s.2-.6.2-1Z" fill="#DEEAFE"/>
  <path d="M122.9 113.7v.1c-.2.4.2.9-.3 1-.6.2-.9-.3-1.1-.7-.3-.5-.2-1 0-1.5.2-.3.6-.5 1-.4.3.1.3.5.3.7v.8ZM117.6 112.4c0 .4-.1.8-.6.8-.8-.1-.8-.7-.8-1.3 0-.5.2-1 .6-1 .9.2.5 1 .8 1.5Z" fill="#3E73C4"/>
  <path d="M121.2 23c-.2.2.2.8-.5.8-.4 0-.3-.3-.3-.6 0-.4-.1-1 .5-1 .5 0 .2.4.3.7Z" fill="#61A0FF"/>
  <path d="M95.5 81.7c-.6-1.1.4-1.5.4-2.3 1.1 1.2-.3 1.5-.4 2.3ZM184 122.7c0 .6-.7 1-1.6.8-1.4-.3-2.3-1.4-3-2.4-3.8-4.8-7.3-9.7-10.6-14.8-1.8-2.7-3.6-5.4-5-8.3-.5-.6-.5-1.3 0-2 .7-.9 1.6-1 2.5 0 .4.3.7.9 1 1.4a288.6 288.6 0 0 0 16 23c.4.6.7 1.3.6 2.3ZM205.8 97.5v4l-.2 8.7c0 1.2-.2 2.4-.8 3.5-.2.4-.5 1-1.2 1s-.8-.6-1-1c-.4-.9-.7-1.8-.6-2.7 0-2.3-.1-4.7.1-7 .4-4 .8-8 1.6-12 .1-.4.3-.9.6-1.3.4-.7 1-.7 1.4 0l.1 1v5.8ZM182.5 111.9c0 1.4-.6 2-1.4 1.7-.5-.3-1-.7-1.2-1.2a26.2 26.2 0 0 1-2.6-8.5c0-.6-.3-1 0-1.7.1-.3.1-.7.6-.8.5 0 1 0 1.3.4.7.9 1 1.8 1.3 2.8.8 2.2 1.6 4.4 2 6.8v.5ZM199.2 101.7c-.1 1.4-.4 2.8-1 4-.3.6-.5.7-.8.1a13.4 13.4 0 0 1-1.9-6c0-.5 0-1 .3-1.5.4-.5 1-1 1.7-.7.6.1 1.1.5 1.3 1.2l.4 2.9Z" fill="#D2E2F9"/>
  <path d="M195.5 71c.7.1 1.1.4 1.2 1 0 .6-.5 1.2-1.2 1.2a17 17 0 0 0-4.8.8c-5.3 1.6-10.7 3.1-16.1 4.3-3.5.8-7 1.6-10.4 2.6-.6.1-1.1.1-1.3-.5-.2-.7.2-1 .7-1.2 1.5-.6 3-.8 4.6-1 5.2-1 10.4-2.2 15.5-3.7l11.1-3.3.7-.1ZM193.8 67.9c.6 0 1 .4 1 1 .2.5-.2 1-.8 1l-2 .6c-5 1-9.6 2.7-14.5 3.8a1534.9 1534.9 0 0 0-12.9 3.3c-.6.2-1.2.3-1.4-.5-.2-.7.3-1 1-1.1 2.8-.9 5.7-1.4 8.6-2 6.2-1.3 12.2-3.2 18.1-5.2l2.9-1Z" fill="#344562"/>
  <path d="M199.3 69.2c-.5 0-.7-.3-.9-.7l-.5-1.2c-.3-.5-.7-.9-1.4-.8-.7.1-1.2-.3-1.3-1-.2-.7.4-1 1-1.2 1.3-.4 2.5.1 3 1.4l1 2.3c.2.6-.2 1.2-.9 1.2ZM198.8 71c0-.7.3-1.1 1-1 .5 0 1 .3 1 1 0 .6-.4 1-1 1-.7 0-1-.5-1-1Z" fill="#98B3D9"/>
  <path d="M182.9 141.7c0 1-.3 2-1 2.9-.4.5-1 .8-1.6.6-.7-.2-.9-.8-1-1.4v-1.4c0-.6 0-1.1 1-1 .1 0 .4 0 .5-.2 0-.3-.2-.5-.4-.5-.8-.3-.4-.7-.1-1 .9-1 1.8-.8 2.3.5.2.4.3 1 .3 1.5ZM208.9 132.2c.4-1.1 1-1.7 1.6-1.6.7.1 1 .8 1 2 .1 1.3 0 2.6-.6 3.8-.2.6-.6 1-1.2 1-.6-.1-1-.5-1.2-1.2-.2-.8-.1-1.6 0-2.5 0-.2 0-.3.3-.3l.7-.2c.4 0 .5-.2.5-.6 0-.3-.3-.4-.6-.4h-.5Z" fill="#000"/>
  <path d="M195.1 147.2s-.1 0 0-.1Z" fill="#6C88AF"/>
  <path d="M146 115.3c-.1.5.2 1.2-.4 1.4-.5.1-.9-.5-1.2-1-1.2-1.5-2-3.2-2.6-5-1.6-4.8-3.3-9.6-4.5-14.6-.1-.5-.2-1 0-1.4.3-.4.7-.7 1.2-.6.6 0 1 .4 1.2 1l2.9 7.7c1 3.1 2.2 6.2 2.9 9.4.2 1 .5 2 .5 3.1ZM143.3 119.4c0 .4.2.8-.2 1-.4.2-.7-.1-1-.3a9.6 9.6 0 0 1-3-3.7l-2.2-4.2c-.3-.7-.3-1.4.4-1.8.6-.5 1.2-.3 1.7.3.5.5.9 1 1.2 1.6 1 2 2.2 3.8 3 6 0 .3.2.7.1 1.1Z" fill="#D2E2F9"/>
</svg>
