<svg width="301" height="201" viewBox="0 0 301 201" fill="none" xmlns="http://www.w3.org/2000/svg">
<path d="M109.9 71.7804C109.138 70.9464 108.336 70.1464 107.624 69.2724C105.862 67.1084 106.372 63.9104 108.658 62.0824C110.066 60.9564 111.688 60.1484 113.366 59.4904C115.196 58.7724 117.032 59.0164 118.85 59.5804C120.838 60.1984 122.67 61.1224 124.35 62.3564C125.88 63.4784 127.438 64.5644 129.114 65.4664C130.872 66.4124 132.704 66.9964 134.746 66.9024C136.718 66.8104 138.676 66.9944 140.558 67.6624C141.78 68.0964 142.966 68.6204 143.226 70.0744C143.504 71.6324 142.89 72.8944 141.676 73.8464C139.276 75.7304 136.624 77.0944 133.53 77.3004C132.518 77.3684 131.48 77.1384 130.462 76.9804C129.91 76.8944 129.772 77.0664 129.782 77.5864C129.808 79.0184 129.81 80.4524 129.792 81.8844C129.784 82.4964 130.022 82.8164 130.646 82.8604C135.764 83.2104 140.79 84.3604 145.896 84.7424C150.663 85.0984 155.441 85.6544 160.245 84.9444C162.043 84.6784 163.025 83.6744 163.657 82.1404C164.485 80.1244 164.903 77.9984 165.209 75.8564C165.877 71.1684 166.225 66.4564 166.271 61.7164C166.291 59.5724 165.893 57.4864 165.669 55.3744C165.605 54.7684 165.215 54.9224 164.883 54.9164C162.953 54.8824 161.017 54.9984 159.099 54.6704C157.041 54.3164 155.131 53.5524 153.377 52.4524C151.007 50.9684 148.704 49.3824 146.354 47.8664C144.392 46.6004 142.226 46.0664 139.898 46.2104C135.84 46.4604 131.786 46.7664 127.716 46.6264C126.442 46.5824 125.204 46.3664 123.988 45.9924C123.334 45.7904 122.924 45.3784 122.644 44.7624C121.572 42.4004 121.866 38.5844 125.562 37.4684C128.14 36.6904 130.772 36.3864 133.424 36.1844C136.854 35.9224 140.28 35.9824 143.672 36.6684C144.334 36.8024 144.914 37.0624 145.476 37.4524C148.032 39.2304 150.237 41.4104 152.509 43.5144C153.849 44.7544 155.199 45.9824 156.805 47.0044C157.205 45.7204 157.657 44.5444 158.339 43.4684C160.519 40.0264 163.997 39.9264 166.357 43.2524C167.153 44.3744 167.761 45.5984 168.149 46.9144C168.299 47.4224 168.531 47.5644 169.001 47.4384C169.033 47.4304 169.067 47.4284 169.099 47.4204C169.879 47.2504 170.781 47.2644 171.403 46.8544C172.037 46.4384 171.737 45.4544 171.925 44.7324C172.511 42.4764 173.653 40.5624 175.317 38.9524C176.905 37.4164 178.771 37.4904 180.299 39.1384C181.117 40.0204 181.659 41.0904 182.259 42.2064C183.749 40.9184 184.847 39.4584 185.179 37.5924C185.537 35.5824 186.571 34.1644 188.239 33.0204C190.693 31.3404 193.283 29.9464 196.031 28.8364C196.969 28.4584 197.973 28.3924 198.979 28.4004C201.345 28.4204 202.809 30.5004 202.081 32.7904C201.807 33.6524 201.263 34.3024 200.563 34.8464C198.721 36.2804 196.627 37.2264 194.393 37.8024C192.665 38.2484 191.475 39.1284 190.941 40.8704C190.707 41.6304 190.295 42.3344 190.047 43.0904C188.833 46.7804 186.257 49.1964 182.859 50.8524C181.361 51.5824 179.805 52.1684 178.219 52.6784C177.789 52.8184 177.479 52.9684 177.433 53.5344C177.073 58.0484 176.379 62.5324 176.145 67.0604C175.921 71.3544 175.925 75.6524 175.923 79.9504C175.923 80.9424 176.095 81.9424 176.277 82.9224C176.545 84.3684 177.349 85.4084 178.789 85.8904C179.515 86.1324 180.231 86.4004 180.963 86.6224C183.165 87.2904 185.013 88.5124 186.421 90.3124C187.063 91.1344 187.753 91.4124 188.779 91.4164C192.303 91.4244 195.771 92.0324 199.055 93.2544C202.591 94.5684 205.859 96.4604 208.725 98.9584C215.861 105.182 220.969 112.752 223.809 121.818C224.743 124.798 225.967 127.696 226.481 130.796C227.629 137.736 228.239 144.726 226.707 151.654C224.987 159.428 220.123 165.036 213.545 169.244C211.049 170.84 208.435 172.236 205.419 172.628C200.977 173.206 196.645 172.652 192.407 171.306C185.459 169.098 180.183 164.714 176.163 158.71C172.039 152.552 169.105 145.82 166.671 138.864C164.023 131.298 163.251 123.52 164.219 115.55C164.477 113.436 165.229 111.5 165.891 109.524C166.207 108.578 166.285 107.686 166.059 106.698C165.341 103.586 164.615 100.474 164.207 97.2984C164.067 96.2124 163.541 95.5904 162.361 95.3724C159.667 94.8764 156.937 94.7564 154.227 94.4424C152.507 94.2424 150.775 94.1624 149.053 93.9804C148.54 93.9264 148.204 94.0804 147.818 94.4024C145.156 96.6204 142.422 98.7424 139.544 100.682C139.106 100.978 138.678 100.914 138.156 101.016C138.846 102.1 139.448 103.156 139.88 104.306C141.814 109.468 141.804 114.656 139.592 119.662C137.876 123.548 134.784 126.056 130.506 126.89C130.086 126.972 129.616 127.058 129.218 126.954C128.05 126.644 127.324 127.112 126.642 128.03C125.632 129.392 124.474 130.644 123.428 131.984C122.858 132.712 122.234 132.83 121.438 132.45C119.936 131.732 118.422 131.036 117.052 130.08C116.606 129.768 116.424 129.856 116.166 130.314C115.004 132.364 113.452 134.09 111.658 135.612C108.606 138.202 105.024 139.132 101.134 138.764C96.018 138.28 91.27 136.534 87.306 133.286C83.2681 129.98 80.0001 125.99 77.8301 121.102C73.8822 112.21 73.6062 103.15 75.9561 93.8584C76.9881 89.7804 78.6241 85.9944 81.0601 82.5544C82.1101 81.0724 83.4261 79.8384 84.7901 78.6804C85.7641 77.8544 87.03 77.5504 88.3 77.3604C88.532 77.3264 89.004 77.5204 88.99 77.0544C88.976 76.6104 88.642 76.5284 88.202 76.5524C85.4381 76.7124 82.6721 76.6584 79.9081 76.6164C78.2981 76.5924 76.7261 76.3184 75.2502 75.6324C74.3902 75.2324 73.6502 74.6904 73.1162 73.8824C72.6782 73.2204 72.6942 72.6724 73.3742 72.1724C73.8902 71.7924 74.4442 71.5004 75.0282 71.2544C76.8081 70.5084 78.5981 69.7904 80.3661 69.0164C81.1961 68.6524 81.9981 68.8084 82.8121 68.9724C85.5521 69.5204 88.258 70.2104 91.044 70.5544C92.804 70.7724 94.498 70.4084 96.218 70.3044C100.832 70.0244 105.314 70.6984 109.726 71.9824C109.82 72.0564 109.912 72.1284 110.006 72.2024C110.11 72.0344 110.076 71.8964 109.91 71.7904L109.9 71.7804ZM175.855 94.2624C175.945 94.2204 176.033 94.1784 176.123 94.1364C176.609 93.9304 177.097 93.7304 177.639 93.2324C176.881 93.3644 176.381 93.5624 175.987 93.9904C175.927 94.0644 175.867 94.1384 175.807 94.2124C175.737 94.2504 175.605 94.2664 175.743 94.3784C175.747 94.3804 175.817 94.3024 175.855 94.2604V94.2624ZM184.441 144.424L184.437 144.434C184.703 144.43 184.825 144.282 184.841 144.03H184.837C186.211 143 187.075 141.464 188.461 140.434C189.471 139.684 189.401 139.398 188.237 138.638C186.835 138.856 185.809 139.81 184.663 140.508C183.109 141.454 181.541 142.392 180.241 143.694C180.009 143.928 179.733 144.132 179.971 144.536C180.599 145.604 181.207 146.686 181.865 147.834C182.583 146.902 183.207 146.092 183.833 145.282C183.913 145.196 183.995 145.11 184.075 145.024C184.127 144.968 184.181 144.912 184.233 144.858C184.381 144.752 184.465 144.614 184.441 144.426V144.424ZM132.618 93.8104C132.174 93.9184 131.77 94.0784 131.544 94.5464C132.274 94.8124 132.536 94.4384 132.658 93.8524C132.682 93.8164 132.704 93.7784 132.728 93.7424C132.692 93.7664 132.654 93.7884 132.618 93.8124V93.8104ZM133.782 93.8224C133.472 94.0884 133.152 94.4264 133.322 94.8224C133.492 95.2184 133.972 94.9844 134.312 95.0424C134.538 95.0804 134.778 95.0644 134.994 95.1324C136.052 95.4644 136.778 95.1884 137.068 94.0564C137.31 93.8724 137.606 93.6304 137.492 93.3444C137.386 93.0784 136.984 93.1064 136.7 93.0624C136.308 93.0024 135.898 93.0364 135.52 92.9344C134.652 92.7044 134.112 93.0404 133.78 93.8204L133.782 93.8224ZM121.034 113.224C119.636 113.93 118.646 115.102 117.614 116.224C116.498 117.188 115.618 118.348 114.8 119.562C114.274 120.342 115.048 120.538 115.42 120.86C115.776 121.17 115.952 120.852 116.02 120.526C116.374 118.838 117.404 117.532 118.428 116.22C119.298 115.488 120.166 114.758 121.036 114.026C122.53 113.198 124.032 112.388 125.724 111.924C125.476 111.518 125.242 111.138 124.77 111.28C123.406 111.69 122.046 112.126 121.034 113.22V113.224ZM102.646 98.8244C103.148 98.8184 103.374 98.5204 103.566 98.0844C104.128 96.8124 104.294 95.4844 104.34 93.9784C103.7 94.4064 103.318 94.8724 103.018 95.4204C101.868 96.4424 101.24 97.8124 100.4 99.1424C101.294 99.3444 101.948 98.9444 102.646 98.8244ZM86.6441 110.426C86.6361 109.722 86.7301 109.004 86.3421 108.286C85.2921 109.172 84.5121 110.188 84.1481 111.438C84.0161 111.894 83.3741 112.27 83.8101 112.862C83.8621 113.568 83.9461 114.264 84.3361 114.938C84.7521 114.072 85.1481 113.282 85.5141 112.476C85.8401 111.762 86.5361 111.256 86.6441 110.424V110.426ZM89.452 94.0224L89.46 94.0304C88.932 91.9704 88.6 89.8764 88.474 87.6624C87.602 88.1144 87.0181 88.6624 86.6081 89.4004C86.1561 89.6924 86.1801 90.1164 86.3121 90.5484C87.028 92.8924 87.814 95.2104 89.1 97.3164C89.318 97.6724 89.504 98.3104 89.882 98.2564C90.342 98.1904 90.458 97.5324 90.708 97.1184C90.848 96.8844 90.788 96.6864 90.676 96.4684C90.33 95.7944 89.998 95.1144 89.662 94.4384C89.64 94.2764 89.63 94.1084 89.452 94.0264V94.0224ZM194.041 126.382C193.819 125.57 193.121 125.472 192.469 125.442C190.747 125.36 189.409 126.096 188.435 127.508C188.293 127.712 187.961 127.862 188.141 128.17C188.345 128.518 188.715 128.468 189.035 128.392C189.611 128.256 190.179 128.08 190.751 127.922C191.653 128.204 192.391 128.76 193.123 129.328C193.689 130.716 193.833 132.24 194.503 133.594C194.195 134.462 193.877 135.326 193.273 136.048C191.907 136.036 190.643 136.43 189.415 136.996C189.061 137.16 188.629 137.262 189.051 137.728C189.669 138.412 190.279 139.104 191.257 139.342C192.793 139.716 194.937 138.71 195.229 137.422C196.205 136.414 196.849 135.264 196.793 133.81C197.155 131.478 196.113 129.54 195.055 127.606C194.871 127.072 194.623 126.59 194.041 126.386V126.382ZM178.253 94.2664H178.265C174.459 95.4704 173.561 98.0824 174.627 101.436C174.607 102.706 174.711 103.964 174.999 105.204C175.221 106.216 175.443 107.228 175.693 108.372C176.535 106.456 177.645 104.956 179.181 103.716C180.049 103.014 181.079 102.538 181.849 101.716C184.899 100.76 187.941 100.282 190.949 101.876C191.029 101.918 191.145 101.89 191.243 101.896C191.455 102.226 191.799 102.336 192.145 102.446C192.261 102.562 192.359 102.706 192.495 102.79C197.615 105.956 201.825 110.152 205.861 114.552C207.571 116.416 209.015 118.486 210.619 120.43C210.723 120.866 210.933 121.226 211.347 121.44C211.369 121.58 211.391 121.718 211.413 121.858C211.685 122.248 211.957 122.64 212.229 123.03C215.063 128.174 217.061 133.594 217.491 139.498C217.741 142.916 217.731 146.322 217.105 149.724C216.719 151.828 216.083 153.836 215.357 155.83C214.959 156.124 214.871 156.614 214.617 156.998C214.601 157.204 214.585 157.41 214.569 157.616C214.107 157.816 213.907 158.258 213.629 158.63C212.697 160.028 211.409 161.082 210.181 162.194C209.895 162.21 209.613 162.232 209.633 162.632V162.628C209.201 162.558 208.881 162.804 208.531 163.002C204.451 165.304 200.293 165.648 195.945 163.694C191.633 161.756 188.341 158.648 185.521 154.968C181.169 149.288 177.705 143.092 174.979 136.486C173.803 133.636 172.603 130.758 172.409 127.632C172.221 124.628 170.905 122.044 169.649 119.422C168.739 116.534 167.697 113.686 166.943 110.578C166.773 110.862 166.705 110.97 166.643 111.082C165.199 113.74 164.953 116.666 164.823 119.594C164.543 125.906 165.365 132.088 167.417 138.066C169.835 145.106 172.759 151.92 176.939 158.128C180.681 163.686 185.461 167.96 191.923 170.136C196.405 171.646 200.985 172.264 205.693 171.636C208.657 171.24 211.137 169.672 213.543 168.084C219.585 164.098 223.953 158.774 225.725 151.638C226.727 147.604 226.685 143.462 226.467 139.322C226.207 134.378 225.419 129.564 223.857 124.838C222.283 120.076 220.421 115.456 217.843 111.168C215.239 106.838 212.041 102.966 208.133 99.7084C204.603 96.7644 200.649 94.6384 196.223 93.4104C192.591 92.4024 188.873 92.1584 185.135 92.4424C182.851 92.6164 180.593 93.0484 178.497 94.0664C178.365 94.0684 178.279 94.1284 178.247 94.2604L178.253 94.2664ZM145.248 93.8124C143.84 93.6244 142.382 93.1024 141.198 94.4164C140.376 94.8784 139.288 95.2044 139.092 96.1904C138.874 97.2764 139.038 98.4384 139.04 99.5664C139.04 99.9244 139.188 100.094 139.52 99.8304C140.502 99.0504 141.476 98.2564 142.452 97.4684C143.598 96.6784 144.714 95.8544 145.686 94.8504C146.21 94.7124 146.504 94.2764 146.872 93.8084H145.25L145.248 93.8124ZM124.688 116.046C126.142 115.308 127.556 114.448 129.408 114.644C127.358 112.534 126.986 112.352 124.24 113.576C122.486 114.276 120.856 115.162 119.6 116.62C118.142 117.798 117.386 119.396 116.896 121.15C116.808 121.466 116.744 121.806 117.086 122.052C117.882 122.628 118.674 123.21 119.576 123.868C119.848 122.076 120.562 120.634 121.448 119.266C122.416 118.08 123.544 117.054 124.69 116.046H124.688ZM124.442 122.068C125.638 120.966 126.748 119.786 127.664 118.434C128.47 117.866 128.942 117.008 129.55 116.268C129.896 115.846 129.84 115.634 129.256 115.624C127.804 115.602 126.524 116.042 125.432 117.01C124.176 117.676 123.212 118.648 122.438 119.826C121.436 120.994 120.906 122.372 120.648 123.868C120.55 124.434 120.802 124.808 121.306 125.08C121.662 125.27 121.858 125.134 122.07 124.882C122.858 123.942 123.65 123.006 124.442 122.068ZM100.086 107.462C100.002 108.118 99.9299 108.778 99.8339 109.432C99.7699 109.868 99.9439 110 100.324 109.828C100.776 109.624 101.216 109.39 101.652 109.15C103.664 108.04 104.826 106.18 105.918 104.268C106.222 103.736 106.908 103.122 106.534 102.592C106.156 102.056 105.324 102.472 104.69 102.512C104.076 102.594 103.276 102.294 102.964 103.072C102.536 104.144 101.804 104.938 100.858 105.494C100.018 105.988 99.6839 106.548 100.09 107.466L100.086 107.462ZM128.036 119.814C126.832 121.146 125.63 122.476 124.426 123.808C121.932 125.924 121.328 128.48 122.748 131.224C123.266 130.54 123.754 129.894 124.244 129.246C124.504 128.954 124.776 128.672 125.02 128.368C126.21 126.89 127.47 125.464 128.466 123.838C130.532 122.056 130.992 119.772 130.516 117.092C129.532 117.91 128.788 118.864 128.038 119.814H128.036ZM95.37 110.016C94.758 111.064 94.024 111.9 92.632 111.59C92.022 110.958 91.158 111.102 90.418 110.87C90.202 110.802 89.926 110.756 89.76 110.95C89.542 111.204 89.73 111.478 89.88 111.672C90.784 112.85 91.824 113.85 93.4 114.01C93.73 114.044 94.17 114.172 94.252 113.61C94.672 113.556 95.086 113.678 95.516 113.458C97.49 112.452 98.7319 110.928 99.0239 108.698C99.2099 107.266 98.9639 105.934 98.066 104.762C98.018 104.028 97.496 103.846 96.904 103.838C95.972 103.826 95.212 104.314 94.792 105.066C94.452 105.674 94.978 106.21 95.45 106.634C95.474 106.908 95.498 107.18 95.522 107.454C95.54 108.31 95.614 109.172 95.374 110.014L95.37 110.016ZM200.437 143.42C200.367 143.336 200.299 143.252 200.229 143.168C199.003 141.822 197.437 140.814 196.369 139.31C196.123 138.964 195.897 138.678 195.425 139.102C194.983 139.502 195.059 139.752 195.439 140.142C198.913 143.718 201.619 147.828 203.857 152.27C204.871 154.282 205.659 156.392 206.635 158.418C206.963 159.496 207.345 160.562 207.593 161.66C207.717 162.206 207.871 162.244 208.295 162.008C209.253 161.478 210.187 160.93 211.011 160.182C211.667 159.584 211.789 159.006 211.359 158.254C210.469 156.696 209.619 155.112 208.705 153.568C206.457 149.768 203.793 146.302 200.435 143.402V143.42H200.437ZM107.46 110.252C106.432 110.236 105.336 110.44 104.39 110.152C102.658 109.628 101.362 110.42 99.8359 111.188C103.058 112.276 106.142 113.382 109.402 113.808C111.334 114.06 111.624 113.614 111.072 111.656C111.064 111.324 111.036 110.992 111.056 110.662C111.086 110.116 110.822 109.934 110.33 110.058C109.384 110.3 108.416 110.158 107.46 110.25V110.252ZM203.229 127.834C200.985 128.752 199.471 130.542 197.865 132.228C198.553 132.02 199.145 131.662 199.783 131.424C203.969 129.856 208.353 129.186 212.763 128.658C213.921 128.52 213.935 128.548 213.233 127.424C213.129 127.146 213.005 126.874 212.927 126.588C212.651 125.57 211.979 125.306 210.977 125.388C209.999 125.468 209.079 125.738 208.173 126.04C206.509 126.592 204.757 126.908 203.229 127.836V127.834ZM102.854 129.258C103.188 128.928 104.444 129.32 103.78 128.222C102.166 125.556 100.404 122.98 98.9679 120.208C98.8099 119.902 98.6399 119.622 98.242 119.624C97.746 119.438 97.254 119.242 96.752 119.07C96.552 119.002 96.336 118.752 96.126 118.982C95.952 119.174 96.086 119.418 96.134 119.644C96.844 122.902 97.888 126.008 99.6699 128.878C100.278 129.856 100.836 129.996 101.752 129.682C102.124 129.554 102.488 129.4 102.854 129.258ZM94.038 117.072C94.428 117.208 94.818 117.342 95.208 117.478C96.6 118.192 98.1419 118.48 99.5979 119.018C103.554 120.478 107.546 121.826 111.674 122.724C112.936 122.998 112.942 122.974 112.636 121.63C112.682 120.86 112.958 120.032 111.666 119.952C108.748 119.77 105.87 119.372 103.078 118.396C100.948 117.652 98.7319 117.158 96.586 116.456C93.854 115.56 91.032 114.794 89.084 112.422C88.942 111.95 88.578 111.524 88.636 111.018C88.75 110.012 88.096 109.444 87.49 108.704C87.664 110.064 87.816 111.31 88.436 112.434C89.268 114.902 91.076 116.242 93.526 116.838C93.634 117.052 93.844 117.042 94.036 117.072H94.038ZM182.869 49.6904C185.617 48.4084 187.661 46.4384 188.815 43.5984C189.325 42.3424 189.817 41.0784 190.367 39.8404C190.607 39.3004 190.721 38.7824 190.579 38.2104C190.687 36.8324 190.293 35.5864 189.579 34.4284C189.251 33.8984 188.905 33.7444 188.283 34.1684C187.133 34.9524 186.481 35.9924 186.229 37.3324C185.821 39.5084 184.727 41.2924 183.075 42.7404C182.779 42.9984 182.595 43.2044 182.751 43.6604C183.155 44.8404 183.133 46.0824 183.155 47.3124C182.987 48.0504 183.101 48.8404 182.757 49.5484C181.213 49.6784 180.005 50.5284 178.795 51.3784C180.179 50.8704 181.633 50.5344 182.871 49.6884L182.869 49.6904ZM191.367 35.9064C191.498 37.0291 192.068 37.4391 193.077 37.1364C193.203 37.0984 193.335 37.0804 193.463 37.0464C195.593 36.4884 197.637 35.7164 199.439 34.4324C200.381 33.7604 201.333 33.0224 201.213 31.6424C201.035 29.9404 200.479 29.4184 198.861 29.4164C195.477 29.4084 192.935 31.5104 190.113 32.9064C189.809 33.0564 189.909 33.2464 190.087 33.4564C190.701 34.1744 190.993 35.0624 191.365 35.9084L191.367 35.9064ZM115.29 94.3784C113.964 92.0144 112.258 89.9404 110.31 88.0784C108.932 86.7624 106.714 86.8944 105.438 88.2304C104.868 88.8284 104.308 89.4404 103.722 90.0224C103.324 90.4164 103.37 90.7164 103.766 91.0964C105.628 92.8864 107.114 94.9604 108.32 97.2384C108.492 97.5624 108.684 97.7664 109.094 97.6964C109.94 97.5504 110.792 97.4364 111.642 97.3104C112.708 97.2924 113.76 97.1444 114.806 96.9504C116.186 96.8304 116.502 96.1811 115.756 95.0024C115.618 94.7844 115.444 94.5864 115.288 94.3804L115.29 94.3784ZM143.492 41.8064C143.54 42.9504 143.988 44.0884 143.59 45.2384C143.424 45.7184 143.784 45.7444 144.046 45.7964C145.01 45.9904 145.84 46.4624 146.678 46.9424C149.011 48.2824 151.159 49.9084 153.419 51.3604C154.339 51.9504 155.309 52.4344 156.411 52.7944C156.411 52.0104 156.411 51.3184 156.411 50.6284C156.437 50.1304 156.377 49.6104 156.509 49.1424C156.717 48.4044 156.421 47.9704 155.867 47.5684C154.225 46.3784 152.727 45.0164 151.251 43.6304C149.385 41.8824 147.542 40.1084 145.462 38.6064C144.39 37.8344 143.214 37.3844 141.682 37.3664C142.634 38.8164 143.072 40.3044 143.49 41.8024L143.492 41.8064ZM190.845 123.61C190.775 123.52 190.707 123.428 190.637 123.338C190.597 123.23 190.559 123.122 190.519 123.016C189.501 120.778 188.621 118.486 187.805 116.166C186.325 111.966 185.221 107.668 184.401 103.294C184.293 102.718 184.319 101.766 183.233 102.442C182.273 102.674 181.543 103.322 180.715 103.796C179.983 104.214 179.941 104.786 180.067 105.484C180.369 107.178 180.723 108.862 181.235 110.506C182.753 115.386 184.803 119.986 188.031 124.026C188.817 125.01 189.383 125.246 190.535 124.698C191.281 124.344 191.321 124.144 190.845 123.61ZM142.3 41.4344C142.134 40.6164 141.812 39.8564 141.504 39.0844C140.91 37.5884 139.862 36.9684 138.254 37.0224C136.232 37.0904 134.2 36.9584 132.188 37.2504C129.704 37.6104 127.164 37.7404 124.846 38.8664C123.608 39.6524 122.842 41.4944 123.082 42.9144C123.318 44.3164 123.974 45.2384 125.486 45.3744C126.31 45.4484 127.114 45.6604 127.954 45.6564C130.882 45.6424 133.814 45.7424 136.728 45.4224C138.358 45.2424 139.98 45.2524 141.608 45.2424C142.354 45.2384 142.702 44.9684 142.67 44.1744C142.634 43.2444 142.61 42.3224 142.3 41.4344ZM167.873 51.0884C167.859 50.3384 167.959 49.5784 167.655 48.8564C167.409 46.9004 166.695 45.1244 165.507 43.5624C163.639 41.1064 161.025 41.1764 159.237 43.7024C157.445 46.2364 157.271 49.1544 157.291 52.1024C157.295 52.7944 157.633 53.2164 158.513 53.1204C161.619 52.7764 164.715 52.9284 167.827 53.5984C167.853 53.2004 167.877 52.8384 167.899 52.4764C167.993 52.4004 168.005 52.3184 167.923 52.2264C167.907 51.8464 167.889 51.4684 167.873 51.0904V51.0884ZM111.388 105.804C111.442 106.132 111.482 106.462 111.554 106.784C112.368 110.456 112.528 114.15 111.948 117.874C111.886 118.27 111.456 118.856 112.136 119.034C112.788 119.204 113.552 119.598 114.126 118.768C115.576 116.672 117.382 114.91 119.352 113.31C119.644 113.074 119.87 112.906 119.706 112.42C118.964 110.24 119.044 108.02 119.724 105.854C120.032 104.872 119.892 104.058 119.43 103.222C119.278 102.574 119.288 101.684 118.432 101.642C117.022 101.572 115.594 101.488 114.188 101.77C113.19 101.794 112.192 101.816 111.194 101.844C110.626 101.86 110.308 102.024 110.572 102.7C110.788 103.254 110.892 103.852 111.048 104.43C111.164 104.888 111.278 105.346 111.394 105.804H111.388ZM101.448 71.4304C100.81 71.0544 100.112 71.3084 99.4459 71.2384C98.6499 71.2504 97.854 71.2624 97.058 71.2744C96.254 71.3284 95.45 71.3824 94.646 71.4364C93.048 71.7964 91.448 71.5424 89.85 71.4464C89.244 71.3204 88.64 71.1924 88.034 71.0664C87.174 70.9164 86.3161 70.7664 85.4561 70.6144C84.8261 70.3804 84.1841 70.2104 83.5041 70.2224C82.5481 69.7924 81.5561 69.6024 80.5541 69.9964C79.2381 70.5124 77.9481 71.0924 76.6481 71.6444C76.0081 71.9224 75.3562 72.1764 74.7342 72.4884C73.8402 72.9344 73.7802 73.4264 74.5582 74.0444C75.6002 74.8724 76.8321 75.2724 78.1321 75.4424C81.3481 75.8664 84.5781 75.5684 87.802 75.6304C88.5 75.6444 89.218 75.7024 89.894 75.5744C93.246 74.9444 96.578 75.3244 99.9059 75.7164C103.368 76.1244 106.602 77.3464 109.774 78.7224C110.954 79.2344 112.122 79.6044 113.428 79.4584C114.224 79.3704 114.646 78.9784 114.654 78.1824C114.668 76.7864 113.886 75.8264 112.872 75.0004C112.408 74.3864 111.81 73.9784 111.048 73.8284C110.678 73.4384 110.15 73.3924 109.688 73.2004C108.596 72.4524 107.328 72.3204 106.066 72.1564C105.432 71.8024 104.694 71.9004 104.028 71.6784C103.164 71.6424 102.324 71.3384 101.448 71.4304ZM190.457 102.772C189.657 102.34 188.839 101.972 187.831 101.936C188.349 102.89 188.875 103.732 189.281 104.63C190.797 107.988 192.297 111.352 193.759 114.734C194.731 116.984 195.813 119.2 196.321 121.624C196.549 122.714 196.447 123.744 195.701 124.628C194.847 125.642 194.843 125.654 195.851 126.634C196.099 127.82 196.859 128.79 197.225 129.928C197.561 130.974 197.599 130.966 198.431 130.18C199.545 129.128 200.493 127.916 201.577 126.846C203.469 124.978 203.707 122.73 203.397 120.306C203.267 119.286 203.055 118.274 202.817 117.274C202.053 114.052 200.711 111.026 198.489 108.622C196.237 106.186 193.443 104.302 190.461 102.772H190.457ZM129.616 101.522C129.752 101.614 129.878 101.728 130.026 101.796C137.412 105.186 137.256 117.004 131.896 120.554C131.738 120.658 131.572 120.824 131.518 120.996C131.17 122.084 130.508 123.004 129.97 123.99C129.652 124.374 129.318 124.744 129.026 125.146C128.864 125.37 128.496 125.57 128.678 125.89C128.816 126.134 129.166 126.024 129.42 126.02C131.392 125.992 133.11 125.24 134.69 124.124C138.188 121.652 139.702 118.048 140.132 113.986C140.812 107.536 138.858 102.03 133.756 97.8184C133.27 97.4184 132.718 97.1364 132.088 96.9624C130.05 96.3964 127.984 96.6044 125.934 96.7344C121.384 97.0204 116.882 97.7804 112.348 98.2104C106.918 98.7244 101.69 100.046 96.506 101.634C95.676 101.888 95.296 102.398 95.146 103.258C97.308 102.118 99.5999 101.858 101.872 101.646C105.776 101.282 109.69 100.964 113.608 100.792C118.962 100.554 124.322 100.46 129.622 101.526L129.616 101.522ZM110.028 62.4184C108.328 63.1064 106.794 66.2104 108.082 68.1704C109.558 70.4184 111.44 72.1384 114.164 72.6244C119.636 73.6024 124.944 75.3784 130.486 76.0044C131.862 76.1604 133.24 76.4184 134.642 76.1564C136.984 75.7204 139 74.6044 140.892 73.2204C142.916 71.7404 142.7 69.6684 140.43 68.6584C138.426 67.9624 136.348 67.7724 134.254 67.8784C133.62 67.9104 133.004 67.9604 132.396 67.7964C131.178 67.4684 130.002 67.0284 128.872 66.4504C126.584 65.2824 124.604 63.6464 122.444 62.2864C120.626 61.1424 118.66 60.3144 116.524 60.0744C114.012 59.7924 112.002 61.1024 110.03 62.4184H110.028ZM84.0541 90.6004C84.5041 90.4044 84.7401 90.0004 85.0221 89.6324C86.974 87.0804 89.336 85.1764 92.684 84.8544C93.724 84.7884 94.684 85.1944 95.688 85.3444C96.268 85.4324 96.772 86.1804 97.31 85.7884C97.784 85.4424 97.996 84.7504 98.3639 84.2424C98.7459 83.7164 98.4919 83.6544 98.01 83.6284C94.956 83.4664 92.642 81.9584 90.72 79.6764C90.306 79.1844 90.066 78.4684 89.372 78.2644C88.15 77.9024 85.6561 78.8524 84.8241 79.9544C83.6261 80.5284 82.9821 81.6684 82.2221 82.6424C79.0161 86.7464 77.3521 91.5204 76.3101 96.5664C74.3282 106.168 75.5002 115.286 80.3181 123.884C81.8021 126.532 83.8901 128.674 86.0061 130.804C90.312 135.142 95.644 137.284 101.602 137.802C107.884 138.348 112.074 134.932 115.276 129.942C115.618 129.41 115.57 129.07 115.006 128.734C114.6 128.49 114.114 128.31 113.978 127.724C113.714 126.592 113.372 125.48 113.086 124.352C113.016 124.074 112.976 123.832 112.618 123.828C111.944 123.82 111.304 123.63 110.664 123.454C110.332 123.364 110.112 123.446 109.922 123.762C109.306 124.788 108.66 125.794 108.026 126.808C107.374 127.446 106.722 128.086 106.07 128.724C104.394 129.842 102.578 130.654 100.64 131.2C99.7939 130.884 98.8919 130.978 98.02 130.84C96.94 130.67 95.83 130.584 94.898 129.966C92.434 128.328 90.134 126.498 88.266 124.162C86.7501 122.264 85.3181 120.31 84.3061 118.098C82.4641 114.074 82.1901 109.726 81.8681 105.408C81.7081 103.238 81.5101 101.062 81.8081 98.8664C82.0041 97.4244 82.1461 95.9924 82.5381 94.5784C82.9201 93.1944 83.7721 92.0084 84.0541 90.5984V90.6004ZM121.426 83.0264C120.518 83.4764 119.57 83.4764 118.596 83.3104C116.596 82.9704 114.682 82.2184 112.644 82.0604C111.864 81.6624 110.982 81.3864 110.774 80.3444C110.748 80.2104 110.48 80.1004 110.306 80.0224C109.606 79.7124 108.89 79.4424 108.198 79.1164C107.638 78.8524 107.29 78.8444 106.962 79.5104C106.298 80.8504 105.116 81.4164 103.652 81.2104C101.036 80.8424 98.8259 79.7744 97.404 77.4064C97.152 76.9864 97.008 76.4884 96.312 76.3824C94.308 76.0804 92.328 76.4384 90.336 76.4264C89.862 76.4244 89.844 76.6424 90.034 76.9844C91.42 79.4864 94.978 83.2724 98.8699 82.4704C99.2619 82.3904 99.7219 82.4904 99.9679 82.8104C100.258 83.1864 99.9619 83.5544 99.7379 83.8944C98.2519 86.1424 96.864 88.4464 95.562 90.8084C93.606 94.3624 91.296 97.7204 89.562 101.4C88.764 103.094 88.166 104.844 88.218 106.766C88.274 108.864 89.324 109.962 91.416 110.034C91.774 110.046 92.128 109.986 92.478 110.2C93.58 110.878 93.89 110.754 94.324 109.528C94.634 108.924 94.966 108.238 94.336 107.72C92.988 106.608 92.678 105.628 93.456 104.048C94.16 102.616 94.96 101.232 95.688 99.8104C98.016 95.2624 101.238 91.3724 104.636 87.6084C105.902 86.2064 107.374 85.8844 109.142 86.4484C112.184 87.4204 115.24 88.3424 118.29 89.2884C121.748 90.3624 121.902 89.6924 122.38 94.4204C122.552 96.1204 122.514 96.1244 124.22 95.8184C125.748 95.7624 127.274 95.6884 128.804 95.6624C129.41 95.6524 129.394 95.2904 129.402 94.8664C129.422 93.8444 129.242 92.7924 129.84 91.8544C134.31 91.6904 138.738 92.2544 143.182 92.5984C147.466 92.9284 151.753 93.2044 156.025 93.6644C158.471 93.9284 160.945 93.9824 163.337 94.6644C164.387 94.9644 164.929 95.5804 165.079 96.6904C165.325 98.5024 165.647 100.306 166.019 102.096C167.313 108.322 168.673 114.534 171.221 120.404C173.453 125.546 175.873 130.576 179.477 134.95C180.679 136.41 181.961 137.25 183.977 137.06C186.701 136.804 189.303 136.3 191.669 134.87C192.265 134.566 193.165 134.512 193.159 133.624C193.149 131.972 192.641 130.48 191.275 129.416C190.677 128.952 190.067 128.76 189.253 129.052C188.313 129.39 187.317 129.392 186.393 128.788C184.813 127.756 183.559 126.412 182.431 124.918C179.813 121.45 177.589 117.758 176.143 113.646C174.561 109.144 173.749 104.472 173.267 99.7384C173.057 97.6704 173.231 95.6844 174.663 94.0004C175.599 92.8984 176.797 92.0644 178.199 92.3584C179.485 92.6264 180.517 92.2604 181.629 91.8884C183.063 91.7144 184.499 91.5384 186.025 91.3524C185.549 90.6284 184.991 90.1164 184.437 89.5984C182.921 88.1824 181.013 87.5724 179.093 87.0124C176.645 86.2984 175.453 84.6644 175.197 82.1584C174.989 80.1264 175.139 78.0984 175.065 76.0684C174.831 69.5924 175.393 63.1584 176.171 56.7364C176.317 55.5384 176.583 54.3344 176.423 52.9804C175.595 53.4584 175.091 54.1224 174.501 54.6864C174.007 55.1564 173.621 55.1984 173.085 54.6364C171.847 53.3404 171.659 51.7544 171.623 50.1024C171.573 47.8344 171.585 47.8664 169.341 48.3104C168.685 48.4404 168.549 48.6804 168.667 49.2984C168.955 50.8164 168.903 52.3504 168.765 53.8804C168.725 54.3164 168.749 54.8724 168.059 54.8844C167.605 54.7584 167.149 54.6324 166.647 54.4944C167.005 57.4344 167.303 60.2704 167.223 63.1324C167.139 66.1244 166.935 69.1064 166.631 72.0844C166.299 75.3244 165.909 78.5524 164.853 81.6604C164.135 83.7744 163.085 85.5324 160.637 85.9224C157.557 86.2824 154.473 86.2804 151.381 86.0804C148.928 85.9224 146.47 85.8504 144.028 85.5084C140.014 84.9444 136.008 84.3124 131.98 83.8704C128.926 83.5364 128.914 83.6484 128.822 80.6484C128.826 79.5864 128.814 78.5224 128.84 77.4604C128.854 76.9244 128.65 76.6884 128.104 76.6344C126.286 76.4564 124.5 76.0864 122.748 75.5844C121.952 75.3564 121.786 75.6124 121.884 76.3064C122.102 77.8604 121.982 79.4224 122.042 80.9804C122.072 81.7424 121.878 82.4184 121.424 83.0264H121.426ZM212.569 158.438C213.733 157.046 214.677 155.524 215.169 153.85C217.469 146.014 217.183 138.214 214.599 130.478C214.399 129.88 214.109 129.664 213.463 129.672C210.575 129.704 207.787 130.364 204.987 130.942C202.999 131.352 201.011 131.78 199.213 132.782C198.609 133.12 197.937 133.452 197.807 134.23C197.629 135.296 197.283 136.296 196.743 137.222C196.415 137.784 196.553 138.118 197.009 138.558C199.257 140.73 201.497 142.912 203.669 145.16C207.405 149.026 210.019 153.66 212.569 158.436V158.438ZM201.547 164.02C203.059 163.984 204.515 163.674 205.935 163.16C206.455 162.972 206.717 162.676 206.599 162.118C206.471 161.504 206.393 160.87 206.185 160.282C203.793 153.5 200.475 147.24 195.711 141.802C195.253 141.278 194.767 140.466 194.217 140.396C192.767 140.212 190.947 139.822 189.869 140.626C187.069 142.716 184.843 145.46 182.781 148.302C182.459 148.746 182.563 149.042 182.825 149.438C184.053 151.304 185.327 153.132 186.717 154.882C189.423 158.286 192.527 161.192 196.611 162.904C198.195 163.568 199.823 163.986 201.547 164.02ZM87.162 111.724C85.9301 113.49 85.1441 115.134 85.0541 117.062C85.0401 117.35 85.1501 117.586 85.2661 117.818C87.566 122.372 90.788 126.114 95.098 128.878C96.24 129.61 97.53 129.822 99.0339 129.89C97.028 126.588 95.812 123.156 95.11 119.55C94.934 118.65 94.588 118.19 93.67 117.96C90.438 117.152 88.14 115.27 87.16 111.724H87.162ZM195.453 122.506C195.461 121.898 195.319 121.312 195.109 120.754C192.809 114.664 190.235 108.692 187.221 102.916C187.019 102.528 186.703 102.226 186.355 101.962C186.053 101.734 185.689 101.782 185.399 101.898C185.021 102.048 185.215 102.422 185.271 102.69C185.709 104.736 186.095 106.798 186.627 108.82C187.989 113.998 189.575 119.102 192.125 123.848C192.243 124.068 192.285 124.332 192.583 124.462C194.113 125.124 195.455 124.22 195.455 122.506H195.453ZM172.461 48.2504C172.455 49.8784 172.441 51.5164 173.049 53.0724C173.419 54.0204 173.603 54.0484 174.345 53.4284C176.543 51.5864 178.771 49.7924 181.525 48.8184C181.879 48.6924 182.033 48.4824 182.077 48.0944C182.403 45.1844 181.761 42.5324 179.973 40.1984C178.633 38.4504 177.159 38.3564 175.599 39.8964C173.271 42.1944 172.415 45.0544 172.463 48.2524L172.461 48.2504ZM179.039 105.284C176.869 107.004 175.987 109.906 176.749 112.496C177.117 113.748 177.713 114.894 178.235 116.076C179.561 119.07 181.323 121.792 183.235 124.446C184.323 125.956 185.893 126.186 187.451 126.596C187.905 126.716 188.117 126.352 188.331 126.074C188.547 125.794 188.213 125.674 188.077 125.526C184.909 122.088 182.889 117.988 181.257 113.67C180.235 110.966 179.521 108.172 179.041 105.284H179.039ZM85.3461 90.8444C81.4921 97.1284 82.6821 103.738 83.3941 110.32C84.2801 108.764 85.5961 107.63 86.8161 106.414C87.052 106.178 87.248 105.948 87.29 105.576C87.498 103.768 88.1 102.072 88.954 100.482C89.37 99.7084 89.422 99.1524 88.75 98.5044C88.356 98.1244 88.126 97.5684 87.844 97.0784C86.7441 95.1724 86.0941 93.0784 85.3461 90.8444ZM111.268 115.522C111.372 115.074 111.192 114.864 110.646 114.86C109.984 114.854 109.314 114.8 108.66 114.686C105.504 114.142 102.472 113.148 99.4619 112.08C99.1919 111.984 98.9219 111.638 98.5859 112.048C98.0719 112.678 97.372 113.196 97.94 114.184C98.1639 114.572 98.202 115.072 98.308 115.526C98.4059 115.946 98.6099 116.196 99.0619 116.332C101.924 117.202 104.776 118.11 107.74 118.592C110.958 119.114 111.038 119.06 111.25 115.784C111.254 115.718 111.258 115.652 111.266 115.522H111.268ZM202.043 112.478C203.239 114.702 203.861 117.074 204.211 119.516C204.563 121.98 204.877 124.46 202.759 126.756C203.439 126.526 203.803 126.39 204.175 126.278C206.365 125.618 208.491 124.688 210.787 124.454C211.677 124.364 211.753 124.198 211.303 123.448C208.963 119.544 206.087 116.068 202.937 112.806C202.719 112.58 202.539 112.232 202.043 112.48V112.478ZM112.644 80.8224C114.968 81.4884 117.238 82.2284 119.626 82.4444C120.762 82.5464 121.08 82.2064 121.076 81.0804C121.068 79.2844 120.988 77.4884 120.99 75.6924C120.99 75.1544 120.738 75.0184 120.3 74.9304C118.508 74.5704 116.724 74.1724 114.928 73.8364C114.198 73.7004 113.504 73.2884 112.664 73.4884C114.194 74.5764 115.406 75.8564 115.65 77.7664C115.854 79.3564 115.03 80.3164 113.434 80.4404C113.176 80.4604 112.892 80.3684 112.644 80.8204V80.8224ZM179.205 143.26C181.747 140.972 184.601 139.372 187.643 137.558C185.687 137.86 184.005 138.072 182.307 137.992C181.533 137.956 180.805 137.792 180.231 137.188C177.743 134.564 175.721 131.612 174.013 128.434C173.873 128.172 173.809 127.826 173.303 127.614C174.311 133.28 176.709 138.252 179.205 143.26ZM91.53 95.7844C93.216 92.9244 94.856 90.1264 96.518 87.3404C96.738 86.9704 96.62 86.8044 96.294 86.6604C94.23 85.7564 92.154 85.5204 90.036 86.4924C89.604 86.6904 89.49 86.9824 89.496 87.4324C89.52 89.6384 89.774 91.8044 90.55 93.8824C90.79 94.5224 91 95.1844 91.53 95.7824V95.7844ZM113.982 121.084C113.738 121.354 113.642 121.588 113.688 121.872C113.922 123.34 114.12 124.82 114.626 126.226C114.832 126.798 114.892 127.456 115.476 127.854C117.148 128.996 118.822 130.134 120.682 130.96C120.886 131.05 121.11 131.274 121.322 131.12C121.532 130.968 121.426 130.696 121.362 130.47C121.004 129.22 120.946 127.928 120.854 126.644C120.83 126.296 120.786 125.986 120.484 125.768C118.316 124.206 116.148 122.642 113.984 121.084H113.982ZM112.242 88.7104C113.808 90.4024 115.136 92.2484 116.372 94.1664C116.888 94.9684 117.132 96.2004 117.944 96.4864C118.788 96.7844 119.886 96.3384 120.876 96.2604C121.334 96.2244 121.512 96.0704 121.488 95.5924C121.43 94.3984 121.344 93.2104 121.1 92.0364C120.958 91.3504 120.63 90.9544 119.916 90.7524C117.652 90.1124 115.408 89.4004 113.158 88.7124C112.874 88.6264 112.598 88.5264 112.242 88.7124V88.7104ZM100.296 120.39C101.568 122.922 102.972 125.324 104.712 127.518C105.086 127.99 105.35 128.03 105.81 127.61C107.076 126.45 108.08 125.1 108.924 123.618C109.118 123.276 109.21 123.056 108.696 122.926C105.87 122.22 103.106 121.304 100.298 120.39H100.296ZM103.478 109.04C105.944 109.408 108.216 109.302 110.492 109.086C111.076 109.032 110.86 108.636 110.822 108.354C110.552 106.412 110.094 104.508 109.544 102.628C109.454 102.318 109.41 101.882 108.948 102.014C108.49 102.146 107.906 101.884 107.61 102.596C106.644 104.926 105.57 107.208 103.478 109.038V109.04ZM131.544 119.41C134.326 117.656 135.48 112.772 134.342 108.414C133.58 105.492 130.998 102.902 128.536 102.46C130.128 103.502 130.972 104.874 131.616 106.39C132.126 107.594 132.44 108.864 132.554 110.15C132.756 112.436 132.988 114.77 131.92 116.918C131.522 117.72 131.412 118.462 131.544 119.408V119.41ZM126.366 102.14C125.494 101.708 124.654 101.886 123.846 101.804C122.93 101.71 122.326 102.116 121.906 102.898C121.224 104.168 120.73 105.504 120.44 106.912C120.122 108.456 120.088 110.008 120.432 111.56C120.562 112.146 120.774 112.176 121.312 111.892C122.114 111.47 122.438 110.918 122.218 110.054C121.74 108.178 122.44 106.504 123.176 104.874C123.78 103.536 124.74 102.484 126.364 102.14H126.366ZM96.406 100.562C97.894 100.44 98.9659 99.8544 99.6759 98.5084C100.73 96.5044 101.986 94.6204 103.766 93.1584C104.088 92.8944 104.042 92.6924 103.768 92.4384C103.5 92.1904 103.242 91.9284 103.004 91.6524C102.728 91.3304 102.538 91.4184 102.298 91.7064C100.022 94.4384 97.978 97.3224 96.406 100.562ZM98.074 76.5004C99.1439 78.7764 101.97 80.4304 104.362 80.2664C105.132 80.2124 105.636 79.7904 106.056 79.1924C106.412 78.6824 106.426 78.4144 105.726 78.1584C103.278 77.2624 100.756 76.7704 98.074 76.5004ZM131.568 95.4584C131.55 95.5384 131.532 95.6204 131.512 95.7004C132.696 95.9504 133.728 96.4984 134.648 97.2504C135.47 97.9224 136.236 98.6544 136.882 99.5044C137.112 99.8064 137.424 100.058 137.806 99.9724C138.2 99.8844 137.994 99.4664 138.084 99.2044C138.352 98.4284 138.204 97.6244 138.214 96.8324C138.22 96.2804 137.944 96.0024 137.34 96.0184C136.314 96.0484 135.29 96.0424 134.27 95.8464C133.376 95.6764 132.468 95.5824 131.566 95.4564L131.568 95.4584ZM131.518 115.154C131.92 113.334 131.806 111.602 131.554 109.87C131.528 109.686 131.482 109.424 131.214 109.47C130.452 109.604 129.594 109.79 129.282 110.518C128.944 111.306 128.796 112.322 129.32 113.058C129.878 113.838 130.722 114.416 131.518 115.154ZM126.236 110.336C126.154 111.21 126.948 111.234 127.37 111.58C127.798 111.932 128.088 111.804 128.06 111.188C128.006 110.054 128.756 109.456 129.618 108.974C129.988 108.768 130.422 108.678 130.826 108.532C131.464 108.302 131.04 107.882 130.98 107.55C130.914 107.188 130.704 107.098 130.33 107.258C129.48 107.622 128.618 107.958 127.748 108.268C126.474 108.722 126.244 109.022 126.238 110.336H126.236ZM123.71 105.984C123.19 107.362 123.034 108.726 123.18 110.126C123.198 110.306 123.15 110.648 123.358 110.62C123.938 110.538 124.49 110.328 125.09 110.27C125.44 110.236 125.458 109.628 125.41 109.34C125.312 108.762 126.048 108.238 125.498 107.684C124.944 107.126 124.36 106.6 123.708 105.986L123.71 105.984ZM126.416 103.126C126.814 104.012 127.156 104.802 127.522 105.58C128.28 107.194 128.446 107.24 130.012 106.332C130.04 106.316 130.07 106.3 130.102 106.288C130.328 106.202 130.366 106.072 130.304 105.826C129.946 104.424 128.04 103.034 126.416 103.126ZM105.43 94.5884C105.12 95.8004 104.846 96.9024 104.55 98.0004C104.466 98.3124 104.54 98.4484 104.864 98.4064C105.452 98.3304 106.064 98.3204 106.616 98.1344C106.938 98.0264 107.628 97.8964 107.232 97.2404C106.698 96.3544 106.236 95.4144 105.432 94.5904L105.43 94.5884ZM102.074 102.65C101.158 102.912 100.332 102.782 99.5179 102.988C98.4939 103.246 98.3719 103.364 98.9939 104.228C99.2039 104.52 99.2199 105.318 99.7679 105.018C100.702 104.508 101.64 103.898 102.076 102.652L102.074 102.65ZM125.38 103.688C125.04 103.834 124.818 104.128 124.594 104.41C124.392 104.664 124.344 104.95 124.55 105.236C125.114 106.022 125.78 106.706 126.566 107.272C126.734 107.394 126.918 107.498 127.102 107.342C127.268 107.2 127.128 107.038 127.064 106.896C126.638 105.962 126.212 105.026 125.774 104.098C125.696 103.932 125.65 103.704 125.38 103.688ZM140.922 93.5364C139.564 93.2604 138.484 93.1184 137.872 94.3804C137.752 94.6284 137.4 94.9004 137.642 95.1584C137.83 95.3584 138.254 95.3204 138.494 95.1724C139.27 94.6944 140.01 94.1584 140.922 93.5364ZM130.502 95.5684C130.32 94.1064 131.466 93.5884 132.47 92.8804C130.23 92.6244 130.068 92.8444 130.502 95.5684ZM97.238 115.126C96.964 114.816 97.274 114.002 96.696 113.988C96.236 113.978 95.358 114.354 95.37 114.772C95.392 115.516 96.334 115.33 96.856 115.588C97.134 115.726 97.25 115.472 97.238 115.126ZM119.974 101.646C120.196 102.222 120.374 102.686 120.606 103.29C120.946 102.666 121.206 102.192 121.504 101.646H119.974Z" fill="black"/>
<path d="M215.359 155.832C216.085 153.838 216.721 151.83 217.107 149.726C217.731 146.324 217.741 142.918 217.493 139.5C217.063 133.594 215.065 128.176 212.231 123.032C212.459 123.012 212.687 122.978 212.915 122.974C213.361 122.968 213.737 122.814 213.749 122.334C213.761 121.864 213.297 121.846 212.965 121.734C212.431 121.556 211.945 121.972 211.415 121.858C211.393 121.718 211.371 121.58 211.349 121.44C211.653 121.052 211.963 120.666 212.261 120.272C212.439 120.036 212.471 119.784 212.233 119.564C212.009 119.358 211.733 119.354 211.503 119.51C211.151 119.752 210.841 120.052 210.623 120.428C209.019 118.484 207.575 116.412 205.865 114.55C201.827 110.15 197.617 105.956 192.499 102.788C192.363 102.704 192.265 102.56 192.149 102.444C192.343 102.066 192.557 101.696 192.727 101.306C192.853 101.014 192.827 100.704 192.513 100.534C192.161 100.342 191.859 100.476 191.689 100.81C191.513 101.156 191.393 101.532 191.247 101.894C191.147 101.888 191.031 101.916 190.953 101.874C187.945 100.28 184.905 100.758 181.853 101.714C181.471 101.658 181.143 101.846 180.801 101.962C178.669 102.684 176.706 103.71 175.004 105.202C174.718 103.962 174.612 102.704 174.632 101.434C174.91 100.7 175.014 99.9205 175.318 99.1825C176.056 97.3885 177.126 95.8085 178.269 94.2665L178.257 94.2645C178.341 94.2005 178.423 94.1345 178.507 94.0705C180.603 93.0525 182.863 92.6205 185.145 92.4465C188.883 92.1625 192.601 92.4065 196.233 93.4145C200.659 94.6425 204.613 96.7685 208.143 99.7125C212.051 102.97 215.249 106.842 217.853 111.172C220.431 115.46 222.293 120.08 223.867 124.842C225.429 129.568 226.217 134.382 226.477 139.326C226.695 143.466 226.737 147.608 225.735 151.642C223.961 158.778 219.595 164.102 213.553 168.088C211.147 169.676 208.667 171.244 205.703 171.64C200.995 172.268 196.415 171.648 191.933 170.14C185.471 167.964 180.693 163.69 176.95 158.132C172.77 151.924 169.844 145.11 167.428 138.07C165.376 132.092 164.554 125.91 164.834 119.598C164.964 116.67 165.208 113.744 166.654 111.086C166.714 110.974 166.784 110.866 166.954 110.582C167.708 113.692 168.75 116.538 169.66 119.426C169.648 119.558 169.63 119.69 169.626 119.824C169.526 124.376 170.564 128.784 171.364 133.218C172.106 137.328 173.612 141.204 175.29 145.008C175.586 145.68 175.608 146.068 174.84 146.346C174.468 146.48 174.112 146.788 174.408 147.274C174.668 147.702 175.054 147.568 175.362 147.344C176.014 146.868 176.276 147.164 176.622 147.772C178.857 151.714 181.229 155.554 184.619 158.664C187.441 161.254 190.457 163.506 194.133 164.734C194.637 164.902 194.975 165.082 194.849 165.698C194.785 166.008 194.875 166.306 195.241 166.404C195.609 166.502 195.855 166.29 195.921 165.982C196.077 165.248 196.591 165.374 197.081 165.45C199.785 165.874 202.463 165.706 205.081 164.954C206.735 164.48 208.369 163.89 209.645 162.636L209.643 162.64C209.917 162.608 210.111 162.476 210.191 162.202C211.419 161.09 212.705 160.034 213.639 158.638C213.873 158.602 213.987 158.756 214.111 158.916C214.339 159.212 214.649 159.336 214.963 159.1C215.327 158.828 215.225 158.47 215.003 158.146C214.877 157.962 214.723 157.796 214.581 157.622C214.597 157.416 214.613 157.21 214.629 157.004C215.085 156.938 215.341 157.31 215.689 157.482C216.021 157.646 216.351 157.674 216.557 157.308C216.729 157.004 216.617 156.722 216.345 156.52C216.025 156.284 215.695 156.064 215.369 155.836L215.359 155.832ZM214.033 108.858C214.033 108.27 213.947 107.814 213.621 107.342C211.637 104.468 209.181 102.04 206.399 99.9545C205.333 99.1565 203.935 99.4225 203.187 100.38C202.435 101.344 202.519 102.716 203.533 103.608C204.985 104.884 206.333 106.266 207.729 107.598C208.653 108.478 209.271 109.6 210.169 110.494C210.873 111.194 211.669 111.432 212.619 111.044C213.601 110.64 214.043 109.898 214.033 108.86V108.858ZM215.557 116.84C216.881 116.83 217.813 115.842 217.813 114.448C217.813 112.798 216.459 111.394 214.879 111.414C213.629 111.43 212.597 112.392 212.663 113.62C212.759 115.4 214.191 117.086 215.555 116.84H215.557Z" fill="#737099"/>
<path d="M168.06 54.8844C168.75 54.8724 168.726 54.3164 168.766 53.8804C168.904 52.3504 168.956 50.8144 168.668 49.2984C168.55 48.6804 168.686 48.4404 169.342 48.3104C171.586 47.8644 171.572 47.8344 171.624 50.1024C171.66 51.7544 171.848 53.3424 173.086 54.6364C173.622 55.1964 174.008 55.1564 174.502 54.6864C175.092 54.1244 175.596 53.4584 176.424 52.9804C176.584 54.3364 176.318 55.5404 176.172 56.7364C175.392 63.1584 174.83 69.5924 175.066 76.0684C175.14 78.0964 174.988 80.1244 175.198 82.1584C175.456 84.6644 176.646 86.2984 179.093 87.0124C181.015 87.5724 182.921 88.1844 184.437 89.5984C184.991 90.1164 185.549 90.6284 186.025 91.3524C184.499 91.5384 183.063 91.7124 181.629 91.8884C181.395 91.3724 180.873 91.1524 180.469 90.8304C178.07 88.9144 175.212 88.7084 173.112 90.3204C171.368 91.6584 170.762 93.5984 170.66 95.6764C170.532 98.2984 170.668 100.906 171.204 103.504C172.612 110.33 174.48 116.99 177.806 123.166C179.243 125.836 181.019 128.222 183.687 129.79C185.027 130.578 186.389 131.35 188.065 131.052C188.443 130.984 188.867 131.05 189.247 131.146C190.979 131.588 191.509 132.422 191.671 134.868C189.305 136.296 186.703 136.8 183.979 137.058C181.963 137.248 180.681 136.408 179.48 134.948C175.876 130.574 173.456 125.544 171.224 120.402C168.676 114.532 167.316 108.32 166.022 102.094C165.65 100.304 165.326 98.5004 165.082 96.6884C164.932 95.5764 164.39 94.9604 163.34 94.6624C160.948 93.9804 158.474 93.9264 156.028 93.6624C151.756 93.2004 147.468 92.9264 143.184 92.5964C138.74 92.2524 134.314 91.6884 129.842 91.8524C129.318 91.0064 128.51 90.9464 127.674 91.1464C125.712 91.6164 124.376 93.4564 124.224 95.8164C122.516 96.1224 122.556 96.1184 122.384 94.4184C121.906 89.6904 121.752 90.3604 118.294 89.2864C115.244 88.3384 112.188 87.4184 109.146 86.4464C107.378 85.8804 105.904 86.2044 104.64 87.6064C101.242 91.3724 98.0202 95.2604 95.6923 99.8084C94.9643 101.23 94.1643 102.614 93.4603 104.046C92.6823 105.628 92.9903 106.606 94.3403 107.718C94.9703 108.238 94.6383 108.922 94.3283 109.526C93.8423 109.426 93.3423 109.372 92.8723 109.22C92.0203 108.944 90.9943 108.648 90.8863 107.65C90.7243 106.138 90.8083 104.6 91.5583 103.184C94.9623 96.7604 98.9722 90.7384 103.496 85.0504C103.794 84.6764 104.11 84.6244 104.524 84.6144C105.52 84.5924 106.5 84.4324 107.484 84.2744C109.394 83.9644 111.028 83.0384 112.646 82.0624C114.684 82.2204 116.598 82.9704 118.598 83.3124C119.572 83.4784 120.52 83.4764 121.428 83.0284C122.624 83.1584 123.71 82.6764 124.836 82.4144C126.28 82.0784 127.482 81.2084 128.824 80.6504C128.916 83.6504 128.928 83.5384 131.982 83.8724C136.01 84.3124 140.016 84.9464 144.03 85.5104C146.47 85.8524 148.93 85.9244 151.384 86.0824C154.476 86.2824 157.56 86.2864 160.64 85.9244C160.692 86.1684 160.892 86.1884 161.086 86.2464C163.692 87.0084 166.692 85.2784 167.814 82.4084C168.726 80.0764 168.938 77.6224 168.982 75.1744C169.038 72.1524 168.878 69.1264 168.81 66.1024C168.808 65.9704 168.798 65.8364 168.788 65.7044C168.546 62.0984 168.304 58.4924 168.06 54.8864V54.8844Z" fill="#5FDF66"/>
<path d="M92.6848 84.8544C89.3388 85.1744 86.9768 87.0784 85.0228 89.6324C84.7408 90.0004 84.5028 90.4044 84.0548 90.6004C83.7448 90.0544 83.2168 89.7724 82.6848 89.5164C82.4008 89.3804 82.0829 89.4224 81.9129 89.7404C81.7469 90.0524 81.8509 90.3144 82.1528 90.4924C82.4908 90.6924 82.8708 90.8364 83.0708 91.2104L83.0008 91.2784C82.7688 91.2544 82.5388 91.2224 82.3068 91.2124C82.0349 91.2004 81.7469 91.2064 81.6569 91.5364C81.5789 91.8264 81.6889 92.1064 81.9689 92.1944C82.8688 92.4744 82.6048 92.9544 82.3088 93.5564C80.4609 97.3144 79.7149 101.348 79.4749 105.486C79.3349 107.884 79.7309 110.25 80.1629 112.6C80.2649 113.152 80.2189 113.44 79.5929 113.42C79.4289 113.414 79.2569 113.428 79.0969 113.47C78.7269 113.564 78.3629 113.704 78.4529 114.19C78.5309 114.622 78.8849 114.602 79.2309 114.624C79.6049 114.648 79.9749 114.354 80.3709 114.568C80.2749 114.932 79.9449 114.912 79.7509 115.068C79.5549 115.226 79.4129 115.398 79.4809 115.66C79.5469 115.922 79.7789 116.106 79.9969 116.028C81.0209 115.66 81.0349 116.46 81.2309 117.05C81.4609 117.744 81.6989 118.434 81.8989 119.138C82.7748 122.222 84.3448 124.882 86.7808 126.98C87.3108 127.436 87.4528 127.784 87.0908 128.384C86.8748 128.742 86.6268 129.244 87.1588 129.518C87.6988 129.796 87.9268 129.304 88.0948 128.906C88.2868 128.446 88.4888 128.386 88.8948 128.704C90.5368 129.996 92.4508 130.782 94.3867 131.484C96.4927 132.248 98.6007 132.216 100.645 131.2C102.583 130.654 104.397 129.84 106.075 128.724C106.099 129.096 106.233 129.404 106.663 129.34C107.037 129.284 107.175 128.98 107.219 128.618C107.257 128.31 107.001 127.858 107.637 127.822C108.445 127.776 108.337 127.316 108.031 126.808C108.665 125.794 109.313 124.788 109.927 123.762C110.117 123.446 110.335 123.364 110.669 123.454C111.311 123.628 111.951 123.82 112.623 123.828C112.979 123.832 113.019 124.074 113.091 124.352C113.377 125.478 113.719 126.592 113.983 127.724C114.121 128.31 114.605 128.492 115.011 128.734C115.575 129.072 115.623 129.41 115.281 129.942C112.079 134.932 107.889 138.348 101.607 137.802C95.6487 137.284 90.3168 135.144 86.0108 130.804C83.8948 128.672 81.8089 126.532 80.3229 123.884C75.5049 115.288 74.3329 106.168 76.3149 96.5664C77.3569 91.5204 79.0209 86.7464 82.2268 82.6424C82.9868 81.6704 83.6308 80.5284 84.8288 79.9544C87.0888 80.2484 89.1728 81.0104 91.0788 82.2644C92.0228 82.8844 93.0188 83.4524 92.6888 84.8544H92.6848Z" fill="#737099"/>
<path d="M110.029 62.4184C112.003 61.1004 114.011 59.7904 116.522 60.0744C118.656 60.3144 120.622 61.1424 122.442 62.2864C124.604 63.6444 126.582 65.2824 128.87 66.4504C130 67.0264 131.176 67.4664 132.394 67.7964C133.002 67.9604 133.618 67.9104 134.252 67.8784C136.348 67.7724 138.426 67.9624 140.428 68.6584C140.686 70.1624 139.196 71.5684 137.46 72.0044C135.126 72.5884 132.73 72.5784 130.352 72.6124C129.206 72.6284 128.046 72.4284 126.91 72.2304C124.644 71.8364 122.3 71.7604 120.254 70.4644C119.22 69.8084 118.12 69.2304 116.994 68.7484C115.277 68.0144 113.695 67.0484 112.057 66.1724C110.485 65.3324 109.715 64.2084 110.031 62.4204L110.029 62.4184Z" fill="#4E4D61"/>
<path d="M129.616 101.522C124.316 100.454 118.956 100.55 113.602 100.788C109.684 100.962 105.773 101.278 101.867 101.642C99.5946 101.854 97.3026 102.114 95.1406 103.254C95.2906 102.394 95.6706 101.882 96.5006 101.63C101.687 100.044 106.915 98.7205 112.342 98.2065C116.876 97.7765 121.378 97.0165 125.928 96.7305C127.978 96.6025 130.044 96.3925 132.082 96.9585C132.712 97.1345 133.266 97.4145 133.75 97.8145C138.85 102.026 140.806 107.532 140.126 113.982C139.698 118.046 138.182 121.648 134.684 124.12C133.104 125.236 131.386 125.988 129.414 126.016C129.16 126.02 128.81 126.13 128.672 125.886C128.49 125.566 128.858 125.366 129.02 125.142C129.312 124.74 129.648 124.37 129.964 123.986C130.412 124.112 130.83 123.962 131.22 123.794C133.8 122.692 135.86 120.982 137.194 118.486C138.536 115.976 138.57 113.234 138.656 110.468C138.796 106.024 135.268 102.448 131.444 101.498C130.896 101.362 130.204 100.846 129.61 101.516L129.616 101.522Z" fill="#AAA7D5"/>
<path d="M112.643 82.0625C111.025 83.0385 109.391 83.9645 107.481 84.2745C106.497 84.4345 105.517 84.5925 104.521 84.6145C104.107 84.6245 103.791 84.6765 103.493 85.0505C98.9686 90.7385 94.9567 96.7605 91.5547 103.184C90.8047 104.6 90.7207 106.138 90.8827 107.65C90.9907 108.648 92.0167 108.942 92.8687 109.22C93.3367 109.372 93.8387 109.428 94.3247 109.526C93.8927 110.752 93.5807 110.878 92.4787 110.2C92.1287 109.984 91.7747 110.046 91.4167 110.034C89.3247 109.962 88.2747 108.864 88.2187 106.766C88.1667 104.844 88.7647 103.094 89.5627 101.4C91.2947 97.7185 93.6047 94.3625 95.5627 90.8085C96.8626 88.4445 98.2526 86.1425 99.7386 83.8945C99.9626 83.5545 100.259 83.1865 99.9686 82.8105C99.7226 82.4905 99.2626 82.3905 98.8706 82.4705C94.9787 83.2725 91.4207 79.4865 90.0347 76.9845C89.8447 76.6425 89.8627 76.4225 90.3367 76.4265C92.3267 76.4385 94.3087 76.0805 96.3127 76.3825C97.0086 76.4885 97.1506 76.9845 97.4046 77.4065C98.8266 79.7745 101.037 80.8445 103.653 81.2105C105.117 81.4165 106.299 80.8525 106.963 79.5105C107.293 78.8445 107.641 78.8545 108.199 79.1165C108.891 79.4425 109.607 79.7145 110.307 80.0225C110.481 80.1005 110.749 80.2105 110.775 80.3445C110.983 81.3865 111.865 81.6645 112.645 82.0605L112.643 82.0625Z" fill="#318F37"/>
<path d="M209.637 162.63C208.361 163.884 206.727 164.474 205.073 164.948C202.455 165.7 199.777 165.868 197.073 165.444C196.583 165.368 196.069 165.242 195.913 165.976C195.847 166.284 195.601 166.496 195.233 166.398C194.867 166.302 194.777 166.002 194.841 165.692C194.965 165.078 194.629 164.896 194.125 164.728C190.449 163.5 187.433 161.248 184.611 158.658C181.221 155.548 178.849 151.71 176.614 147.766C176.27 147.158 176.008 146.862 175.354 147.338C175.046 147.562 174.66 147.696 174.4 147.268C174.104 146.782 174.46 146.474 174.832 146.34C175.6 146.064 175.578 145.676 175.282 145.002C173.604 141.198 172.098 137.322 171.356 133.212C170.554 128.778 169.518 124.37 169.618 119.818C169.62 119.686 169.64 119.554 169.652 119.42C170.908 122.042 172.224 124.628 172.412 127.63C172.608 130.756 173.806 133.632 174.982 136.484C177.707 143.09 181.171 149.286 185.523 154.966C188.341 158.646 191.635 161.754 195.947 163.692C200.295 165.646 204.453 165.302 208.533 163C208.883 162.802 209.203 162.556 209.637 162.626V162.63Z" fill="#181639"/>
<path d="M191.671 134.868C191.509 132.422 190.979 131.586 189.247 131.146C188.867 131.05 188.443 130.984 188.065 131.052C186.389 131.35 185.027 130.578 183.687 129.79C181.019 128.222 179.243 125.836 177.805 123.166C174.479 116.99 172.609 110.33 171.204 103.504C170.668 100.904 170.532 98.2984 170.66 95.6764C170.762 93.5964 171.368 91.6584 173.111 90.3204C175.211 88.7084 178.069 88.9164 180.469 90.8304C180.873 91.1524 181.395 91.3724 181.629 91.8884C180.519 92.2624 179.485 92.6284 178.199 92.3584C176.797 92.0644 175.597 92.8984 174.663 94.0004C173.233 95.6844 173.057 97.6704 173.267 99.7384C173.749 104.472 174.561 109.144 176.143 113.646C177.587 117.758 179.813 121.45 182.431 124.918C183.559 126.412 184.813 127.756 186.393 128.788C187.317 129.39 188.313 129.39 189.253 129.052C190.067 128.76 190.677 128.95 191.275 129.416C192.643 130.48 193.149 131.972 193.159 133.624C193.165 134.51 192.265 134.566 191.669 134.87L191.671 134.868Z" fill="#318F37"/>
<path d="M110.028 62.4184C109.714 64.2044 110.482 65.3284 112.054 66.1704C113.692 67.0464 115.276 68.0124 116.992 68.7464C118.118 69.2284 119.218 69.8064 120.252 70.4624C122.296 71.7584 124.642 71.8324 126.908 72.2284C128.044 72.4264 129.204 72.6264 130.35 72.6104C132.728 72.5784 135.124 72.5884 137.458 72.0024C139.194 71.5684 140.684 70.1624 140.426 68.6564C142.696 69.6684 142.912 71.7404 140.888 73.2184C138.996 74.6024 136.98 75.7164 134.638 76.1544C133.236 76.4164 131.858 76.1564 130.482 76.0024C124.94 75.3764 119.634 73.6004 114.16 72.6224C111.438 72.1364 109.554 70.4164 108.078 68.1684C106.792 66.2084 108.324 63.1044 110.024 62.4164L110.028 62.4184Z" fill="#343355"/>
<path d="M190.457 102.772C193.441 104.302 196.235 106.186 198.485 108.622C200.707 111.026 202.049 114.054 202.813 117.274C203.051 118.274 203.263 119.288 203.393 120.306C203.703 122.73 203.465 124.978 201.573 126.846C200.489 127.916 199.541 129.128 198.427 130.18C197.595 130.966 197.557 130.974 197.221 129.928C196.855 128.788 196.095 127.818 195.847 126.632C196.877 126.172 197.469 125.32 197.881 124.322C198.855 121.962 198.295 119.698 197.435 117.452C195.587 112.622 193.055 108.132 190.557 103.626C190.419 103.376 190.037 103.108 190.455 102.772H190.457Z" fill="#5FDF66"/>
<path d="M100.64 131.202C98.5965 132.22 96.4885 132.25 94.3825 131.486C92.4445 130.782 90.5325 129.998 88.8906 128.706C88.4846 128.386 88.2826 128.448 88.0906 128.908C87.9246 129.306 87.6966 129.8 87.1546 129.52C86.6246 129.246 86.8706 128.746 87.0866 128.386C87.4486 127.786 87.3066 127.438 86.7766 126.982C84.3406 124.884 82.7706 122.224 81.8946 119.14C81.6946 118.438 81.4566 117.746 81.2266 117.052C81.0306 116.462 81.0166 115.662 79.9926 116.03C79.7746 116.108 79.5426 115.924 79.4766 115.662C79.4106 115.4 79.5526 115.228 79.7466 115.07C79.9406 114.914 80.2706 114.934 80.3666 114.57C79.9706 114.358 79.6006 114.652 79.2266 114.626C78.8807 114.602 78.5267 114.624 78.4487 114.192C78.3607 113.706 78.7227 113.566 79.0926 113.472C79.2526 113.432 79.4226 113.418 79.5886 113.422C80.2146 113.442 80.2606 113.154 80.1586 112.602C79.7266 110.252 79.3306 107.886 79.4706 105.488C79.7126 101.35 80.4566 97.3164 82.3046 93.5584C82.6006 92.9544 82.8646 92.4744 81.9646 92.1964C81.6846 92.1104 81.5726 91.8284 81.6526 91.5384C81.7406 91.2104 82.0306 91.2024 82.3026 91.2144C82.5346 91.2244 82.7666 91.2584 82.9986 91.2804C83.0466 91.3644 83.0966 91.4504 83.1906 91.3264C83.1946 91.3224 83.1106 91.2524 83.0666 91.2124C82.8666 90.8384 82.4846 90.6944 82.1486 90.4944C81.8466 90.3144 81.7446 90.0524 81.9086 89.7424C82.0786 89.4244 82.3966 89.3804 82.6806 89.5184C83.2126 89.7744 83.7406 90.0564 84.0506 90.6024C83.7686 92.0124 82.9166 93.2004 82.5346 94.5824C82.1446 95.9984 82.0006 97.4284 81.8046 98.8704C81.5066 101.066 81.7046 103.242 81.8646 105.412C82.1846 109.728 82.4606 114.078 84.3026 118.102C85.3146 120.314 86.7466 122.268 88.2626 124.166C90.1286 126.502 92.4285 128.33 94.8945 129.97C95.8245 130.588 96.9365 130.674 98.0165 130.844C98.8885 130.982 99.7905 130.888 100.636 131.204L100.64 131.202Z" fill="#181639"/>
<path d="M88.0346 71.0664C88.6406 71.1924 89.2446 71.3204 89.8506 71.4464C89.8146 72.0324 89.2646 72.1284 88.9126 72.3904C87.9786 73.0864 86.8526 73.5084 86.0026 74.3884C86.9626 74.2204 87.8986 74.9484 88.7626 74.5404C90.7666 73.5944 92.8826 72.8404 94.6465 71.4364C95.4505 71.3824 96.2545 71.3284 97.0585 71.2744C97.0345 71.7284 96.6245 71.8304 96.3405 72.0364C95.0365 72.9804 93.6226 73.7464 92.2266 74.5684C92.8846 74.6464 93.5666 74.4844 94.1265 74.6764C95.7325 75.2244 96.7705 74.5584 97.6625 73.3304C98.2025 72.5884 99.1285 72.1704 99.4465 71.2364C100.112 71.3064 100.81 71.0544 101.448 71.4284C101.416 71.8784 100.998 71.9724 100.724 72.1844C99.8785 72.8404 99.1105 73.5664 98.5085 74.4564C98.3865 74.6364 98.1345 74.9384 98.5125 74.9844C99.3525 75.0884 100.498 75.4304 100.996 75.0284C102.148 74.0944 103.232 72.9864 104.03 71.6764C104.694 71.8984 105.434 71.8004 106.068 72.1544C105.034 72.9344 104.12 73.8464 103.208 74.7624C102.764 75.2084 102.89 75.4024 103.434 75.5344C104.526 75.8024 105.624 76.0584 106.704 76.3744C107.218 76.5244 107.448 76.2604 107.666 75.9064C108.26 74.9424 108.972 74.0684 109.688 73.1964C110.15 73.3884 110.678 73.4344 111.048 73.8244C110.576 74.5484 109.786 75.0064 109.396 75.7964C109.296 75.9964 108.984 76.2024 109.352 76.4364C110.032 76.8704 110.748 76.9904 111.518 76.6924C112.302 76.3884 112.974 76.0024 112.872 74.9964C113.886 75.8224 114.67 76.7804 114.654 78.1784C114.646 78.9744 114.224 79.3664 113.428 79.4544C112.122 79.6004 110.954 79.2304 109.774 78.7184C106.602 77.3424 103.368 76.1204 99.9065 75.7124C96.5785 75.3204 93.2466 74.9404 89.8946 75.5704C89.2166 75.6984 88.5006 75.6384 87.8026 75.6264C84.5786 75.5644 81.3467 75.8624 78.1327 75.4384C76.8327 75.2664 75.6007 74.8684 74.5587 74.0404C73.7807 73.4224 73.8407 72.9304 74.7347 72.4844C75.3587 72.1744 76.0107 71.9204 76.6487 71.6404C76.7927 72.3204 77.3927 72.6064 77.8327 73.0404C78.4387 73.6384 78.9127 73.6124 79.5867 73.0484C80.8187 72.0144 81.9607 70.8304 83.5066 70.2204C84.1866 70.2084 84.8286 70.3784 85.4586 70.6144C83.8386 71.6224 82.0967 72.4664 80.7327 73.9204C82.5026 74.3484 83.9986 73.8924 85.3426 72.9644C86.2466 72.3404 87.4126 72.0804 88.0386 71.0664H88.0346Z" fill="#343355"/>
<path d="M119.426 103.222C119.89 104.058 120.03 104.872 119.72 105.854C119.04 108.018 118.962 110.238 119.702 112.42C119.866 112.904 119.64 113.072 119.348 113.31C117.376 114.91 115.572 116.672 114.122 118.768C113.548 119.598 112.785 119.206 112.133 119.034C111.453 118.856 111.883 118.27 111.945 117.874C112.525 114.15 112.365 110.458 111.551 106.784C111.479 106.46 111.441 106.13 111.385 105.804C111.753 105.916 112.183 106.158 112.381 105.618C112.569 105.106 112.191 104.834 111.785 104.65C111.551 104.544 111.289 104.502 111.039 104.43C110.885 103.852 110.779 103.254 110.563 102.7C110.301 102.024 110.617 101.86 111.185 101.844C112.183 101.816 113.18 101.794 114.178 101.77C114.254 102.06 114.316 102.352 114.408 102.636C114.738 103.662 115.406 104.368 116.468 104.602C117.522 104.836 118.362 104.44 118.966 103.55C119.082 103.38 119.184 103.214 119.42 103.22L119.426 103.222Z" fill="#737099"/>
<path d="M172.468 48.2489C172.422 45.0509 173.276 42.1889 175.604 39.8929C177.164 38.3529 178.638 38.4469 179.978 40.1949C181.766 42.5289 182.408 45.1809 182.082 48.0909C182.038 48.4789 181.886 48.6889 181.53 48.8149C178.776 49.7889 176.546 51.5849 174.35 53.4249C173.608 54.0469 173.424 54.0169 173.054 53.0689C172.448 51.5149 172.46 49.8769 172.466 48.2469L172.468 48.2489ZM174.29 46.6469C174.674 46.7449 175.294 46.4689 175.37 47.0589C175.446 47.6309 174.82 47.4869 174.508 47.6629C174.258 47.8029 173.942 47.8569 173.932 48.2549C173.912 48.9269 173.916 49.5909 174.234 50.2029C174.492 50.6989 174.872 51.0669 175.464 51.1009C176.08 51.1369 176.458 50.7529 176.716 50.2629C177.598 48.5949 177.488 46.8349 176.99 45.1189C176.686 44.0709 175.708 43.9789 174.976 44.7989C174.518 45.3129 174.374 45.9409 174.29 46.6469Z" fill="white"/>
<path d="M167.901 52.4744C167.877 52.8364 167.853 53.1984 167.829 53.5964C164.717 52.9264 161.621 52.7764 158.515 53.1184C157.635 53.2164 157.297 52.7924 157.293 52.1004C157.275 49.1524 157.447 46.2324 159.239 43.7004C161.027 41.1744 163.641 41.1044 165.509 43.5604C166.697 45.1244 167.413 46.8984 167.657 48.8544C167.599 48.9804 167.541 49.1064 167.481 49.2324C167.183 47.7544 166.385 46.6104 165.137 45.7864C164.727 45.5164 164.235 45.3884 163.859 45.8044C163.309 46.4124 163.253 47.2144 163.311 47.9684C163.357 48.5704 163.877 48.1484 164.179 48.1804C164.527 48.2184 164.885 48.2564 164.959 48.6524C165.047 49.1144 164.701 49.1944 164.337 49.2124C163.491 49.2584 163.425 49.6844 163.685 50.3904C163.875 50.9024 164.177 51.3204 164.495 51.7364C164.879 52.2404 165.393 52.5984 166.043 52.4064C166.757 52.1964 167.577 52.0304 167.651 51.0384C167.725 51.0524 167.799 51.0684 167.873 51.0824C167.889 51.4624 167.907 51.8404 167.923 52.2184C167.899 52.2404 167.853 52.2664 167.855 52.2864C167.859 52.3484 167.883 52.4064 167.899 52.4684L167.901 52.4744Z" fill="white"/>
<path d="M142.3 41.4344C142.61 42.3224 142.634 43.2464 142.67 44.1744C142.702 44.9684 142.354 45.2384 141.608 45.2424C139.98 45.2524 138.358 45.2424 136.728 45.4224C133.816 45.7424 130.882 45.6424 127.954 45.6564C127.114 45.6604 126.31 45.4484 125.486 45.3744C123.974 45.2404 123.32 44.3184 123.082 42.9144C122.842 41.4944 123.608 39.6504 124.846 38.8644C125.306 39.9244 125.976 40.8904 126.27 42.0284C126.376 42.4404 126.74 42.4644 127.08 42.4384C128.268 42.3484 129.458 42.2724 130.64 42.1364C133.466 41.8084 136.272 41.3304 139.124 41.2304C140.198 41.1924 141.232 41.5004 142.298 41.4344H142.3Z" fill="#343355"/>
<path d="M142.3 41.4344C141.234 41.4984 140.2 41.1924 139.126 41.2304C136.274 41.3304 133.468 41.8084 130.642 42.1364C129.46 42.2744 128.27 42.3484 127.082 42.4384C126.74 42.4644 126.378 42.4404 126.272 42.0284C125.978 40.8904 125.308 39.9244 124.848 38.8644C127.166 37.7384 129.706 37.6084 132.19 37.2484C134.202 36.9564 136.234 37.0904 138.256 37.0204C139.864 36.9664 140.912 37.5864 141.506 39.0824C141.812 39.8544 142.136 40.6144 142.302 41.4324L142.3 41.4344Z" fill="#4E4D61"/>
<path d="M168.06 54.8844C168.302 58.4904 168.546 62.0964 168.788 65.7024C168.796 65.8344 168.806 65.9684 168.81 66.1004C168.878 69.1244 169.038 72.1504 168.982 75.1724C168.936 77.6204 168.724 80.0744 167.814 82.4064C166.692 85.2764 163.692 87.0064 161.086 86.2444C160.89 86.1884 160.692 86.1664 160.64 85.9224C163.088 85.5324 164.138 83.7724 164.856 81.6604C165.912 78.5524 166.302 75.3244 166.634 72.0844C166.938 69.1084 167.142 66.1244 167.226 63.1324C167.306 60.2684 167.01 57.4344 166.65 54.4944C167.152 54.6324 167.606 54.7584 168.062 54.8844H168.06Z" fill="#318F37"/>
<path d="M129.616 101.522C130.212 100.852 130.902 101.368 131.45 101.504C135.274 102.452 138.802 106.028 138.662 110.474C138.574 113.24 138.54 115.982 137.2 118.492C135.866 120.988 133.806 122.696 131.226 123.8C130.834 123.968 130.416 124.118 129.97 123.992C130.508 123.006 131.17 122.086 131.518 120.998C131.572 120.826 131.738 120.66 131.896 120.556C137.256 117.006 137.412 105.188 130.026 101.798C129.878 101.73 129.752 101.616 129.616 101.524V101.522Z" fill="#8986B3"/>
<path d="M190.519 123.016C190.559 123.124 190.597 123.232 190.637 123.34C190.689 123.444 190.485 123.744 190.845 123.612C191.319 124.146 191.281 124.346 190.535 124.7C189.383 125.248 188.817 125.012 188.031 124.028C184.803 119.988 182.753 115.388 181.235 110.508C180.723 108.864 180.371 107.18 180.067 105.486C179.943 104.788 179.983 104.218 180.715 103.798C181.543 103.324 182.275 102.676 183.233 102.444C183.589 103.838 183.377 105.276 183.597 106.694C184.489 112.462 186.539 117.76 189.801 122.596C189.987 122.872 190.175 123.054 190.519 123.018V123.016Z" fill="#343355"/>
<path d="M143.492 41.8064C143.076 40.3084 142.636 38.8204 141.684 37.3704C143.214 37.3884 144.392 37.8364 145.464 38.6104C147.544 40.1104 149.388 41.8864 151.254 43.6344C152.732 45.0204 154.228 46.3804 155.87 47.5724C156.424 47.9724 156.72 48.4084 156.512 49.1464C156.38 49.6144 156.44 50.1364 156.414 50.6324C155.15 50.5944 154.164 49.8544 153.168 49.2344C150.418 47.5224 148.176 45.1844 145.752 43.0684C145.092 42.4924 144.534 41.7104 143.492 41.8064Z" fill="#5FDF66"/>
<path d="M190.464 102.769C190.044 103.105 190.426 103.373 190.566 103.623C193.064 108.129 195.596 112.619 197.444 117.449C198.304 119.697 198.864 121.959 197.89 124.319C197.478 125.317 196.886 126.169 195.856 126.629C194.848 125.649 194.854 125.637 195.706 124.623C196.45 123.737 196.554 122.709 196.326 121.619C195.818 119.193 194.736 116.979 193.764 114.729C192.302 111.347 190.802 107.983 189.286 104.625C188.88 103.729 188.354 102.885 187.836 101.931C188.844 101.969 189.664 102.337 190.462 102.767L190.464 102.769Z" fill="#318F37"/>
<path d="M200.443 143.4C203.801 146.3 206.465 149.766 208.713 153.566C209.627 155.11 210.477 156.694 211.367 158.252C211.797 159.004 211.675 159.582 211.019 160.18C210.195 160.928 209.261 161.476 208.303 162.006C207.879 162.24 207.723 162.204 207.601 161.658C207.353 160.562 206.969 159.496 206.643 158.416C206.857 158.254 206.737 158.076 206.687 157.884C205.545 153.61 203.769 149.602 201.657 145.728C201.239 144.96 200.507 144.35 200.445 143.396L200.443 143.4Z" fill="#4E4D61"/>
<path d="M105.439 88.2305C106.715 86.8945 108.933 86.7625 110.311 88.0785C112.259 89.9385 113.965 92.0145 115.291 94.3785C115.249 95.2585 115.349 96.1645 114.809 96.9485C113.763 97.1425 112.711 97.2905 111.645 97.3085C111.389 96.9665 111.077 96.6545 110.887 96.2785C109.727 94.0065 108.013 92.1565 106.379 90.2405C105.887 89.6625 105.367 89.0785 105.439 88.2285V88.2305Z" fill="#AAA7D5"/>
<path d="M128.822 80.6484C127.48 81.2064 126.276 82.0764 124.834 82.4124C123.708 82.6744 122.624 83.1584 121.426 83.0264C121.88 82.4184 122.074 81.7424 122.044 80.9804C121.982 79.4224 122.104 77.8584 121.886 76.3064C121.788 75.6124 121.956 75.3564 122.75 75.5844C124.5 76.0864 126.288 76.4564 128.106 76.6344C128.652 76.6884 128.856 76.9244 128.842 77.4604C128.816 78.5224 128.828 79.5844 128.824 80.6484H128.822Z" fill="#318F37"/>
<path d="M113.982 121.084C116.146 122.644 118.314 124.206 120.482 125.768C120.784 125.986 120.826 126.296 120.852 126.644C120.944 127.93 121.004 129.22 121.36 130.47C121.424 130.696 121.53 130.966 121.32 131.12C121.108 131.274 120.886 131.052 120.68 130.96C118.82 130.134 117.146 128.996 115.474 127.854C114.89 127.456 114.83 126.798 114.624 126.226C114.118 124.82 113.922 123.34 113.686 121.872C113.64 121.586 113.736 121.354 113.98 121.084H113.982Z" fill="#343355"/>
<path d="M183.16 47.3169C183.14 46.0869 183.16 44.8449 182.756 43.6649C182.6 43.2089 182.786 43.0029 183.08 42.7449C184.734 41.2969 185.826 39.5109 186.234 37.3369C186.486 35.9969 187.138 34.9569 188.288 34.1729C188.91 33.7489 189.256 33.9029 189.584 34.4329C190.3 35.5889 190.692 36.8369 190.584 38.2149C189.214 38.7569 187.96 39.4529 187.234 40.8189C186.612 41.9869 186.038 43.1829 185.376 44.3269C184.752 45.4029 184.276 46.6049 183.158 47.3189L183.16 47.3169Z" fill="#5FDF66"/>
<path d="M143.492 41.8064C144.532 41.7104 145.092 42.4924 145.752 43.0684C148.176 45.1844 150.418 47.5224 153.168 49.2344C154.164 49.8544 155.15 50.5944 156.414 50.6324C156.414 51.3244 156.414 52.0144 156.414 52.7984C155.31 52.4364 154.34 51.9544 153.422 51.3644C151.162 49.9124 149.014 48.2864 146.68 46.9464C145.842 46.4644 145.012 45.9924 144.048 45.8004C143.784 45.7484 143.426 45.7224 143.592 45.2424C143.988 44.0904 143.542 42.9544 143.494 41.8104L143.492 41.8064Z" fill="#318F37"/>
<path d="M191.373 35.904C191.001 35.058 190.709 34.17 190.095 33.452C189.915 33.242 189.817 33.052 190.121 32.902C192.945 31.506 195.485 29.404 198.869 29.412C200.487 29.416 201.043 29.938 201.221 31.638C200.893 31.672 200.565 31.694 200.239 31.742C196.873 32.25 194.019 33.852 191.375 35.9L191.373 35.904Z" fill="#4E4D61"/>
<path d="M131.544 119.41C131.412 118.466 131.522 117.722 131.92 116.92C132.988 114.772 132.756 112.438 132.554 110.152C132.44 108.866 132.126 107.596 131.616 106.392C130.972 104.874 130.128 103.504 128.536 102.462C130.998 102.902 133.58 105.492 134.342 108.416C135.478 112.772 134.324 117.658 131.544 119.412V119.41Z" fill="#318F37"/>
<path d="M183.154 47.3164C184.274 46.6024 184.75 45.4004 185.372 44.3244C186.034 43.1804 186.608 41.9844 187.23 40.8164C187.956 39.4504 189.21 38.7544 190.58 38.2124C190.724 38.7844 190.608 39.3024 190.368 39.8424C189.818 41.0804 189.326 42.3444 188.816 43.6004C187.662 46.4384 185.618 48.4104 182.87 49.6924C182.83 49.6464 182.792 49.6004 182.754 49.5504C183.1 48.8444 182.986 48.0544 183.154 47.3164Z" fill="#318F37"/>
<path d="M92.6841 84.8545C93.0161 83.4505 92.0182 82.8825 91.0742 82.2645C89.1662 81.0125 87.0822 80.2505 84.8242 79.9545C85.6562 78.8525 88.1502 77.9045 89.3722 78.2645C90.0662 78.4705 90.3062 79.1845 90.7202 79.6765C92.6421 81.9565 94.9561 83.4665 98.0101 83.6285C98.4921 83.6545 98.7481 83.7165 98.3641 84.2425C97.9941 84.7505 97.7841 85.4425 97.3101 85.7885C96.7721 86.1805 96.2681 85.4305 95.6881 85.3445C94.6861 85.1945 93.7241 84.7885 92.6841 84.8545Z" fill="#181639"/>
<path d="M93.5321 116.836C91.0821 116.24 89.2741 114.898 88.4421 112.432C88.6581 112.428 88.8741 112.424 89.0901 112.42C91.0381 114.792 93.8601 115.558 96.5921 116.454C98.738 117.156 100.954 117.65 103.084 118.394C105.876 119.37 108.754 119.768 111.672 119.95C112.964 120.03 112.688 120.86 112.642 121.628C111.418 121.524 110.232 121.22 109.042 120.932C104.726 119.886 100.478 118.594 96.1941 117.432C95.8861 117.348 95.5161 117.008 95.2121 117.476C94.8221 117.34 94.4321 117.206 94.0421 117.07C93.9461 116.828 93.7341 116.844 93.5321 116.836Z" fill="#8986B3"/>
<path d="M102.854 129.258C102.486 129.4 102.124 129.554 101.752 129.682C100.836 129.994 100.276 129.856 99.6701 128.878C97.8881 126.008 96.8421 122.902 96.1341 119.644C96.0841 119.418 95.9501 119.172 96.1261 118.982C96.3361 118.752 96.5521 119.002 96.7521 119.07C97.2541 119.24 97.7461 119.438 98.2421 119.624C98.3781 120.03 98.4921 120.444 98.6521 120.838C99.8401 123.752 101.458 126.45 102.856 129.26L102.854 129.258Z" fill="#343355"/>
<path d="M190.519 123.016C190.175 123.052 189.987 122.868 189.801 122.594C186.539 117.758 184.491 112.46 183.597 106.692C183.377 105.276 183.589 103.838 183.233 102.442C184.317 101.766 184.293 102.718 184.401 103.294C185.221 107.67 186.327 111.966 187.805 116.166C188.621 118.484 189.501 120.778 190.519 123.016Z" fill="#4E4D61"/>
<path d="M213.233 127.422C213.935 128.548 213.921 128.518 212.763 128.656C208.353 129.184 203.969 129.854 199.783 131.422C199.145 131.66 198.551 132.018 197.865 132.226C199.471 130.54 200.985 128.75 203.229 127.832C203.545 128.156 203.893 127.97 204.251 127.922C207.231 127.526 210.201 126.904 213.233 127.422Z" fill="#343355"/>
<path d="M111.073 111.658C111.623 113.616 111.335 114.062 109.403 113.81C106.145 113.384 103.061 112.278 99.8367 111.19C101.363 110.422 102.659 109.632 104.391 110.154C105.337 110.44 106.433 110.236 107.461 110.252C108.621 110.836 109.795 111.378 111.073 111.658Z" fill="#343355"/>
<path d="M184.233 144.858C184.181 144.914 184.127 144.97 184.075 145.024C183.993 145.11 183.913 145.196 183.833 145.282C183.209 146.092 182.585 146.902 181.865 147.834C181.207 146.686 180.599 145.606 179.971 144.536C179.733 144.13 180.007 143.926 180.241 143.694C181.541 142.39 183.111 141.454 184.663 140.508C185.811 139.81 186.835 138.856 188.237 138.638C187.965 139.886 186.903 140.626 186.303 141.66C185.837 142.466 184.925 142.996 184.837 144.032L184.841 144.03C184.565 144.024 184.433 144.162 184.437 144.434L184.441 144.424C184.249 144.51 184.231 144.678 184.233 144.856V144.858Z" fill="#343355"/>
<path d="M191.368 35.9064C194.012 33.8584 196.866 32.2564 200.232 31.7484C200.558 31.6984 200.886 31.6784 201.214 31.6444C201.334 33.0244 200.382 33.7624 199.44 34.4344C197.638 35.7184 195.594 36.4904 193.464 37.0484C193.336 37.0824 193.204 37.1004 193.078 37.1384C192.067 37.4411 191.497 37.0311 191.368 35.9084V35.9064Z" fill="#343355"/>
<path d="M105.438 88.2305C105.366 89.0805 105.884 89.6665 106.378 90.2425C108.012 92.1565 109.726 94.0085 110.886 96.2805C111.078 96.6545 111.388 96.9685 111.644 97.3105C110.794 97.4385 109.942 97.5525 109.096 97.6965C108.684 97.7665 108.492 97.5625 108.322 97.2385C107.116 94.9605 105.628 92.8865 103.768 91.0965C103.372 90.7165 103.326 90.4165 103.724 90.0225C104.31 89.4405 104.87 88.8285 105.44 88.2305H105.438Z" fill="#737099"/>
<path d="M200.437 143.4C200.499 144.354 201.231 144.964 201.649 145.732C203.761 149.606 205.537 153.614 206.679 157.888C206.731 158.08 206.849 158.258 206.635 158.42C205.659 156.394 204.871 154.284 203.857 152.272C201.619 147.83 198.913 143.72 195.439 140.144C195.059 139.754 194.983 139.504 195.425 139.104C195.897 138.678 196.123 138.966 196.369 139.312C197.437 140.818 199.003 141.824 200.229 143.172C200.299 143.256 200.367 143.34 200.437 143.422V143.404V143.4Z" fill="#343355"/>
<path d="M126.366 102.14C124.742 102.486 123.782 103.536 123.178 104.874C122.442 106.506 121.742 108.18 122.22 110.054C122.44 110.916 122.116 111.47 121.314 111.892C120.776 112.176 120.564 112.146 120.434 111.56C120.09 110.008 120.124 108.456 120.442 106.912C120.732 105.506 121.226 104.168 121.908 102.898C122.328 102.116 122.93 101.71 123.848 101.804C124.656 101.886 125.496 101.708 126.368 102.14H126.366Z" fill="#318F37"/>
<path d="M98.0696 104.761C98.9676 105.933 99.2136 107.265 99.0276 108.697C98.7356 110.927 97.4956 112.451 95.5196 113.457C95.0896 113.675 94.6756 113.555 94.2556 113.609C92.9969 113.227 92.4569 112.553 92.6356 111.589C94.0276 111.899 94.7616 111.063 95.3736 110.015C96.7176 110.931 97.6536 110.881 98.2436 109.859C98.7316 109.015 98.6676 107.693 98.0436 107.185C97.2236 106.517 96.4396 106.789 95.7076 107.397C95.6616 107.435 95.5836 107.437 95.5196 107.457C95.4956 107.183 95.4716 106.911 95.4476 106.637C96.0016 105.567 96.5176 104.445 98.0656 104.765L98.0696 104.761Z" fill="#737099"/>
<path d="M124.222 95.8164C124.374 93.4544 125.71 91.6164 127.672 91.1464C128.508 90.9464 129.316 91.0084 129.84 91.8524C129.242 92.7904 129.422 93.8444 129.402 94.8644C129.394 95.2884 129.41 95.6504 128.804 95.6604C127.276 95.6864 125.748 95.7604 124.22 95.8164H124.222Z" fill="#318F37"/>
<path d="M121.452 119.266C120.564 120.632 119.852 122.074 119.58 123.868C118.68 123.21 117.888 122.628 117.09 122.052C116.748 121.804 116.812 121.466 116.9 121.15C117.39 119.398 118.146 117.798 119.606 116.62C120.14 116.556 120.52 116.794 120.9 117.16C121.532 117.768 121.438 118.522 121.452 119.266Z" fill="#343355"/>
<path d="M124.424 123.806C125.628 122.474 126.83 121.144 128.034 119.812C128.338 120.67 128.192 121.56 128.246 122.438C128.276 122.906 128.04 123.426 128.462 123.836C127.464 125.46 126.204 126.886 125.016 128.366C124.772 128.67 124.5 128.952 124.24 129.244C124.394 127.434 124.508 125.624 124.422 123.806H124.424Z" fill="#4E4D61"/>
<path d="M104.686 102.51C105.32 102.472 106.152 102.054 106.53 102.59C106.906 103.122 106.218 103.734 105.914 104.266C104.824 106.178 103.662 108.04 101.648 109.148C101.214 109.388 100.774 109.622 100.32 109.826C99.9401 109.998 99.7661 109.866 99.8301 109.43C99.9261 108.776 100 108.116 100.082 107.46C100.682 107.402 101.1 107.012 101.506 106.636C102.796 105.442 103.854 104.062 104.68 102.508L104.686 102.51Z" fill="#5FDF66"/>
<path d="M109.686 73.2004C108.97 74.0724 108.258 74.9464 107.664 75.9104C107.446 76.2644 107.216 76.5284 106.702 76.3784C105.622 76.0624 104.526 75.8064 103.432 75.5384C102.888 75.4044 102.762 75.2104 103.206 74.7664C104.118 73.8504 105.03 72.9384 106.066 72.1584C107.326 72.3224 108.596 72.4544 109.688 73.2024L109.686 73.2004Z" fill="#4E4D61"/>
<path d="M194.505 133.594C193.835 132.24 193.689 130.716 193.125 129.328C193.435 127.836 193.637 127.656 195.057 127.604C196.115 129.538 197.157 131.476 196.795 133.808C196.007 133.998 195.219 134.204 194.507 133.594H194.505Z" fill="#AAA7D5"/>
<path d="M95.2085 117.478C95.5105 117.01 95.8825 117.35 96.1905 117.434C100.474 118.596 104.722 119.888 109.038 120.934C110.228 121.222 111.412 121.526 112.638 121.63C112.944 122.974 112.94 122.998 111.676 122.724C107.548 121.828 103.556 120.478 99.6005 119.018C98.1445 118.48 96.6025 118.192 95.2105 117.478H95.2085Z" fill="#AAA7D5"/>
<path d="M122.438 119.824C123.212 118.646 124.176 117.674 125.432 117.008C125.924 117.878 126.902 117.984 127.664 118.432C126.748 119.784 125.638 120.964 124.442 122.066C124.394 121.664 124.612 121.152 124.058 120.946C123.418 120.706 122.974 120.204 122.438 119.824Z" fill="#4E4D61"/>
<path d="M89.6621 94.4344C90.0001 95.1124 90.332 95.7924 90.676 96.4644C90.788 96.6844 90.848 96.8804 90.708 97.1144C90.46 97.5284 90.342 98.1864 89.8821 98.2524C89.5041 98.3064 89.3181 97.6684 89.1001 97.3124C87.8141 95.2064 87.0281 92.8884 86.3121 90.5444C86.1801 90.1124 86.1541 89.6884 86.6081 89.3964C86.9641 90.0964 87.2721 90.8264 87.6861 91.4904C88.2321 92.3644 88.5561 93.4004 89.4581 94.0264L89.4501 94.0184C89.4481 94.1924 89.4841 94.3464 89.6601 94.4304L89.6621 94.4344Z" fill="#343355"/>
<path d="M119.426 103.222C119.19 103.218 119.088 103.382 118.972 103.552C118.368 104.442 117.528 104.836 116.474 104.604C115.412 104.37 114.744 103.664 114.414 102.638C114.322 102.354 114.26 102.06 114.184 101.772C115.59 101.49 117.018 101.574 118.428 101.644C119.282 101.686 119.274 102.574 119.426 103.224V103.222Z" fill="#AAA7D5"/>
<path d="M213.233 127.422C210.201 126.904 207.231 127.526 204.251 127.922C203.893 127.97 203.545 128.156 203.229 127.832C204.757 126.904 206.509 126.588 208.173 126.036C209.079 125.736 210.001 125.464 210.977 125.384C211.979 125.302 212.651 125.566 212.927 126.584C213.005 126.87 213.129 127.142 213.233 127.42V127.422Z" fill="#4E4D61"/>
<path d="M131.568 95.4584C132.47 95.5864 133.378 95.6784 134.272 95.8484C135.292 96.0424 136.316 96.0504 137.342 96.0204C137.944 96.0024 138.222 96.2804 138.216 96.8344C138.206 97.6264 138.354 98.4304 138.086 99.2064C137.996 99.4684 138.202 99.8884 137.808 99.9744C137.426 100.058 137.114 99.8084 136.884 99.5064C136.238 98.6564 135.47 97.9244 134.65 97.2524C133.732 96.5004 132.698 95.9524 131.514 95.7024C131.532 95.6224 131.55 95.5404 131.57 95.4604L131.568 95.4584Z" fill="#343355"/>
<path d="M142.448 97.4724C141.472 98.2604 140.5 99.0544 139.516 99.8344C139.186 100.096 139.038 99.9284 139.036 99.5704C139.032 98.4424 138.87 97.2804 139.088 96.1944C139.286 95.2064 140.374 94.8824 141.194 94.4204C141.862 95.3364 141.986 96.4744 142.446 97.4744L142.448 97.4724Z" fill="#343355"/>
<path d="M121.447 119.268C121.435 118.522 121.527 117.77 120.895 117.162C120.515 116.796 120.135 116.558 119.601 116.622C120.857 115.164 122.487 114.278 124.241 113.578C124.069 114.46 123.691 115.378 124.689 116.048C123.543 117.056 122.417 118.082 121.447 119.268Z" fill="#4E4D61"/>
<path d="M94.6464 71.4345C92.8824 72.8385 90.7664 73.5925 88.7624 74.5385C87.8984 74.9465 86.9624 74.2185 86.0024 74.3865C86.8524 73.5065 87.9784 73.0845 88.9124 72.3885C89.2644 72.1265 89.8144 72.0305 89.8504 71.4445C91.4504 71.5405 93.0484 71.7945 94.6464 71.4345Z" fill="#4E4D61"/>
<path d="M124.424 123.806C124.51 125.624 124.394 127.434 124.242 129.244C123.754 129.89 123.264 130.538 122.746 131.222C121.326 128.48 121.93 125.924 124.424 123.806Z" fill="#343355"/>
<path d="M122.438 119.824C122.974 120.204 123.418 120.706 124.058 120.946C124.612 121.152 124.394 121.664 124.442 122.066C123.65 123.004 122.858 123.94 122.07 124.88C121.858 125.132 121.662 125.268 121.306 125.078C120.802 124.808 120.55 124.434 120.648 123.866C120.906 122.37 121.436 120.992 122.438 119.824Z" fill="#343355"/>
<path d="M83.5049 70.2224C81.9589 70.8324 80.8189 72.0164 79.5849 73.0504C78.911 73.6144 78.437 73.6404 77.831 73.0424C77.393 72.6084 76.793 72.3224 76.647 71.6424C77.947 71.0904 79.2389 70.5104 80.5529 69.9944C81.5549 69.6004 82.5469 69.7904 83.5029 70.2204L83.5049 70.2224Z" fill="#4E4D61"/>
<path d="M195.23 137.42C194.938 138.708 192.794 139.716 191.258 139.34C190.28 139.102 189.672 138.408 189.052 137.726C188.63 137.26 189.062 137.156 189.416 136.994C190.644 136.43 191.908 136.034 193.274 136.046C193.194 136.494 192.888 136.806 192.616 137.14C192.416 137.386 192.302 137.68 192.448 137.968C192.606 138.282 192.908 138.1 193.16 138.084C193.908 138.04 194.56 137.706 195.23 137.418V137.42Z" fill="#181639"/>
<path d="M99.4465 71.2364C99.1265 72.1704 98.2005 72.5884 97.6625 73.3304C96.7705 74.5584 95.7325 75.2244 94.1265 74.6764C93.5646 74.4844 92.8846 74.6464 92.2266 74.5684C93.6225 73.7464 95.0385 72.9804 96.3405 72.0364C96.6245 71.8304 97.0345 71.7284 97.0585 71.2744C97.8545 71.2624 98.6505 71.2504 99.4465 71.2384V71.2364Z" fill="#4E4D61"/>
<path d="M88.0342 71.0664C87.4062 72.0804 86.2422 72.3404 85.3382 72.9644C83.9942 73.8924 82.4983 74.3504 80.7283 73.9204C82.0943 72.4664 83.8342 71.6224 85.4542 70.6144C86.3142 70.7644 87.1742 70.9144 88.0322 71.0644L88.0342 71.0664Z" fill="#4E4D61"/>
<path d="M195.23 137.42C194.562 137.706 193.91 138.042 193.16 138.086C192.908 138.102 192.606 138.284 192.448 137.97C192.302 137.682 192.416 137.386 192.616 137.142C192.888 136.808 193.194 136.496 193.274 136.048C193.878 135.328 194.194 134.462 194.504 133.594C195.216 134.206 196.004 133.998 196.792 133.808C196.85 135.262 196.206 136.414 195.228 137.42H195.23Z" fill="#737099"/>
<path d="M104.029 71.6785C103.233 72.9885 102.149 74.0965 100.995 75.0305C100.497 75.4325 99.3507 75.0925 98.5107 74.9865C98.1327 74.9385 98.3847 74.6385 98.5067 74.4585C99.1087 73.5685 99.8767 72.8425 100.723 72.1865C100.997 71.9745 101.415 71.8805 101.447 71.4305C102.325 71.3365 103.163 71.6405 104.027 71.6785H104.029Z" fill="#4E4D61"/>
<path d="M128.47 123.839C128.048 123.429 128.284 122.909 128.254 122.441C128.198 121.565 128.344 120.673 128.042 119.815C128.791 118.865 129.535 117.909 130.519 117.093C130.995 119.773 130.535 122.057 128.47 123.839Z" fill="#343355"/>
<path d="M175.004 105.205C176.706 103.713 178.67 102.687 180.802 101.965C181.142 101.849 181.47 101.661 181.854 101.717C181.084 102.539 180.054 103.015 179.186 103.717C177.65 104.959 176.54 106.457 175.698 108.373C175.448 107.229 175.226 106.217 175.004 105.205Z" fill="#181639"/>
<path d="M142.448 97.4724C141.988 96.4724 141.864 95.3324 141.196 94.4184C142.38 93.1044 143.838 93.6264 145.246 93.8144C145.318 94.1924 145.352 94.5864 145.682 94.8564C144.71 95.8604 143.594 96.6844 142.448 97.4744V97.4724Z" fill="#4E4D61"/>
<path d="M124.688 116.046C123.69 115.376 124.068 114.458 124.24 113.576C126.986 112.352 127.358 112.536 129.408 114.644C127.556 114.448 126.142 115.308 124.688 116.046Z" fill="#343355"/>
<path d="M95.5186 107.456C95.5826 107.438 95.6586 107.436 95.7066 107.396C96.4385 106.788 97.2225 106.516 98.0425 107.184C98.6665 107.692 98.7305 109.014 98.2425 109.858C97.6525 110.878 96.7165 110.93 95.3726 110.014C95.6126 109.172 95.5386 108.312 95.5206 107.454L95.5186 107.456Z" fill="#AAA7D5"/>
<path d="M126.243 110.335C126.249 109.019 126.479 108.721 127.753 108.267C128.623 107.957 129.487 107.621 130.335 107.257C130.707 107.097 130.919 107.187 130.985 107.549C131.047 107.881 131.469 108.301 130.831 108.531C130.427 108.677 129.993 108.767 129.623 108.973C128.761 109.455 128.011 110.053 128.065 111.187C128.095 111.803 127.805 111.929 127.375 111.579C126.953 111.235 126.159 111.209 126.241 110.335H126.243Z" fill="#343355"/>
<path d="M102.861 129.258C101.463 126.45 99.8448 123.75 98.6568 120.836C98.4948 120.442 98.3828 120.026 98.2468 119.622C98.6468 119.622 98.8148 119.9 98.9728 120.206C100.409 122.978 102.173 125.554 103.785 128.22C104.451 129.32 103.193 128.928 102.859 129.256L102.861 129.258Z" fill="#4E4D61"/>
<path d="M178.266 94.2685C177.122 95.8105 176.052 97.3885 175.314 99.1845C175.01 99.9225 174.906 100.702 174.628 101.436C173.562 98.0825 174.46 95.4705 178.266 94.2685Z" fill="#181639"/>
<path d="M195.055 127.604C193.637 127.656 193.435 127.836 193.123 129.328C192.391 128.76 191.653 128.204 190.751 127.924C190.331 127.132 190.857 126.762 191.439 126.464C192.283 126.034 193.167 126.226 194.039 126.384C194.621 126.588 194.869 127.07 195.053 127.604H195.055Z" fill="#737099"/>
<path d="M112.87 74.9985C112.974 76.0065 112.3 76.3905 111.516 76.6945C110.746 76.9925 110.03 76.8725 109.35 76.4385C108.98 76.2025 109.294 75.9985 109.394 75.7985C109.786 75.0085 110.576 74.5505 111.046 73.8265C111.808 73.9765 112.404 74.3845 112.87 74.9985Z" fill="#4E4D61"/>
<path d="M89.4659 94.027C88.5659 93.399 88.24 92.365 87.694 91.491C87.28 90.827 86.972 90.097 86.616 89.397C87.024 88.659 87.608 88.111 88.48 87.659C88.6059 89.873 88.9379 91.967 89.4659 94.027Z" fill="#4E4D61"/>
<path d="M104.686 102.51C103.86 104.064 102.802 105.444 101.512 106.638C101.106 107.014 100.688 107.404 100.088 107.462C99.6821 106.546 100.014 105.984 100.856 105.492C101.802 104.936 102.534 104.144 102.962 103.07C103.272 102.292 104.074 102.592 104.688 102.51H104.686Z" fill="#318F37"/>
<path d="M127.664 118.434C126.904 117.986 125.924 117.878 125.432 117.01C126.524 116.042 127.804 115.602 129.256 115.624C129.84 115.632 129.896 115.846 129.55 116.268C128.944 117.01 128.47 117.868 127.664 118.434Z" fill="#343355"/>
<path d="M194.048 126.379C193.174 126.221 192.292 126.029 191.448 126.459C190.864 126.757 190.34 127.127 190.76 127.919C190.19 128.077 189.622 128.253 189.046 128.389C188.724 128.465 188.354 128.515 188.152 128.167C187.972 127.859 188.304 127.709 188.446 127.505C189.42 126.093 190.758 125.357 192.48 125.439C193.13 125.469 193.828 125.567 194.052 126.379H194.048Z" fill="#181639"/>
<path d="M92.6308 111.59C92.4508 112.554 92.9908 113.228 94.2508 113.61C94.1708 114.17 93.7288 114.042 93.3988 114.01C91.8228 113.85 90.7829 112.852 89.8789 111.672C89.7309 111.478 89.5409 111.204 89.7589 110.95C89.9249 110.756 90.2009 110.802 90.4169 110.87C91.1569 111.102 92.0228 110.958 92.6308 111.59Z" fill="#181639"/>
<path d="M105.431 94.5884C106.233 95.4124 106.697 96.3544 107.231 97.2384C107.627 97.8964 106.937 98.0244 106.615 98.1324C106.063 98.3184 105.451 98.3284 104.863 98.4044C104.541 98.4464 104.465 98.3104 104.549 97.9984C104.845 96.9004 105.119 95.7964 105.429 94.5864L105.431 94.5884Z" fill="#318F37"/>
<path d="M118.43 116.222C117.406 117.534 116.378 118.84 116.022 120.528C115.954 120.854 115.778 121.17 115.422 120.862C115.05 120.538 114.276 120.344 114.802 119.564C115.62 118.35 116.5 117.19 117.616 116.226C117.888 116.226 118.158 116.226 118.43 116.226V116.222Z" fill="#343355"/>
<path d="M83.8101 112.862C83.3741 112.27 84.0141 111.894 84.1481 111.438C84.5121 110.186 85.2941 109.17 86.3421 108.286C86.7301 109.004 86.6361 109.724 86.6441 110.426C86.4681 110.5 86.2881 110.564 86.1181 110.652C85.1281 111.158 84.6441 112.194 83.8101 112.864V112.862Z" fill="#4E4D61"/>
<path d="M102.074 102.65C101.64 103.896 100.702 104.506 99.7663 105.016C99.2183 105.316 99.2023 104.516 98.9923 104.226C98.3723 103.362 98.4923 103.244 99.5163 102.986C100.332 102.782 101.158 102.91 102.072 102.648L102.074 102.65Z" fill="#343355"/>
<path d="M102.647 98.8245C101.949 98.9445 101.295 99.3444 100.401 99.1424C101.241 97.8144 101.869 96.4445 103.019 95.4225C103.321 95.6205 103.171 95.8605 103.117 96.1205C102.933 97.0165 102.607 97.8905 102.645 98.8245H102.647Z" fill="#343355"/>
<path d="M125.381 103.688C125.651 103.704 125.697 103.932 125.775 104.098C126.213 105.026 126.639 105.962 127.065 106.896C127.129 107.038 127.269 107.2 127.103 107.342C126.919 107.498 126.735 107.394 126.567 107.272C125.781 106.706 125.115 106.022 124.551 105.236C124.347 104.95 124.393 104.664 124.595 104.41C124.819 104.128 125.041 103.834 125.381 103.688Z" fill="#343355"/>
<path d="M121.04 113.223C122.052 112.127 123.412 111.693 124.776 111.283C125.248 111.141 125.48 111.521 125.73 111.927C124.04 112.393 122.536 113.201 121.042 114.029C121.042 113.761 121.042 113.491 121.04 113.223Z" fill="#343355"/>
<path d="M184.837 144.034C184.925 142.998 185.837 142.466 186.303 141.662C186.903 140.628 187.965 139.888 188.237 138.64C189.403 139.4 189.471 139.686 188.461 140.436C187.073 141.466 186.209 143.004 184.837 144.036V144.034Z" fill="#4E4D61"/>
<path d="M98.0646 104.764C96.5166 104.446 96.0006 105.566 95.4466 106.636C94.9766 106.212 94.4506 105.676 94.7886 105.068C95.2086 104.316 95.9686 103.828 96.9006 103.84C97.4926 103.848 98.0146 104.03 98.0626 104.764H98.0646Z" fill="#181639"/>
<path d="M102.647 98.8245C102.609 97.8885 102.935 97.0165 103.119 96.1205C103.173 95.8605 103.323 95.6185 103.021 95.4225C103.319 94.8745 103.701 94.4065 104.343 93.9805C104.297 95.4865 104.131 96.8165 103.569 98.0865C103.377 98.5225 103.151 98.8205 102.649 98.8265L102.647 98.8245Z" fill="#4E4D61"/>
<path d="M83.8103 112.862C84.6443 112.192 85.1283 111.156 86.1183 110.65C86.2883 110.564 86.4683 110.5 86.6443 110.424C86.5363 111.256 85.8403 111.762 85.5143 112.476C85.1463 113.28 84.7523 114.072 84.3363 114.938C83.9463 114.264 83.8623 113.566 83.8103 112.862Z" fill="#343355"/>
<path d="M137.07 94.0564C136.78 95.1884 136.054 95.4644 134.996 95.1324C134.78 95.0644 134.54 95.0804 134.314 95.0424C133.974 94.9844 133.494 95.2184 133.324 94.8224C133.154 94.4264 133.472 94.0864 133.784 93.8224C134.854 94.2624 135.96 94.1804 137.07 94.0584V94.0564Z" fill="#343355"/>
<path d="M137.07 94.0564C135.96 94.1804 134.854 94.2604 133.784 93.8204C134.116 93.0404 134.656 92.7044 135.524 92.9344C135.902 93.0344 136.312 93.0024 136.704 93.0624C136.988 93.1064 137.39 93.0784 137.496 93.3444C137.61 93.6304 137.314 93.8724 137.072 94.0564H137.07Z" fill="#4E4D61"/>
<path d="M140.922 93.5364C140.01 94.1584 139.27 94.6964 138.494 95.1724C138.254 95.3204 137.83 95.3604 137.642 95.1584C137.4 94.8984 137.752 94.6284 137.872 94.3804C138.484 93.1184 139.566 93.2584 140.922 93.5364Z" fill="#343355"/>
<path d="M111.077 111.656C109.799 111.376 108.623 110.834 107.465 110.25C108.419 110.158 109.387 110.3 110.335 110.06C110.829 109.934 111.091 110.116 111.061 110.664C111.043 110.994 111.071 111.326 111.077 111.658V111.656Z" fill="#4E4D61"/>
<path d="M121.034 113.224C121.034 113.492 121.034 113.762 121.036 114.03C120.166 114.762 119.298 115.492 118.428 116.224C118.156 116.224 117.886 116.224 117.615 116.224C118.646 115.102 119.636 113.93 121.034 113.224Z" fill="#4E4D61"/>
<path d="M89.0847 112.42C88.8687 112.424 88.6527 112.428 88.4367 112.432C87.8167 111.308 87.6647 110.062 87.4907 108.702C88.0967 109.44 88.7527 110.01 88.6367 111.016C88.5787 111.522 88.9427 111.948 89.0847 112.42Z" fill="#AAA7D5"/>
<path d="M211.415 121.86C211.943 121.974 212.431 121.558 212.965 121.736C213.299 121.848 213.761 121.866 213.749 122.336C213.737 122.814 213.361 122.97 212.915 122.976C212.687 122.978 212.459 123.014 212.231 123.034C211.959 122.644 211.687 122.252 211.415 121.862V121.86Z" fill="#181639"/>
<path d="M114.808 96.9484C115.348 96.1624 115.248 95.2564 115.29 94.3784C115.446 94.5844 115.62 94.7824 115.758 95.0004C116.506 96.1791 116.19 96.8284 114.808 96.9484Z" fill="#737099"/>
<path d="M210.621 120.432C210.839 120.054 211.149 119.754 211.501 119.514C211.731 119.356 212.009 119.362 212.231 119.568C212.469 119.788 212.437 120.04 212.259 120.276C211.961 120.67 211.651 121.056 211.347 121.444C210.933 121.23 210.723 120.87 210.619 120.434L210.621 120.432Z" fill="#181639"/>
<path d="M191.244 101.896C191.388 101.534 191.508 101.158 191.686 100.812C191.856 100.478 192.158 100.344 192.51 100.536C192.824 100.708 192.85 101.016 192.724 101.308C192.556 101.698 192.342 102.068 192.146 102.446C191.8 102.336 191.456 102.226 191.244 101.896Z" fill="#181639"/>
<path d="M215.359 155.832C215.685 156.06 216.015 156.28 216.335 156.516C216.607 156.718 216.719 157 216.547 157.304C216.341 157.67 216.011 157.642 215.679 157.478C215.331 157.306 215.073 156.934 214.619 157C214.873 156.616 214.961 156.126 215.359 155.832Z" fill="#181639"/>
<path d="M97.2438 115.125C97.2578 115.471 97.1418 115.723 96.8618 115.587C96.3378 115.329 95.3959 115.515 95.3759 114.771C95.3639 114.353 96.2398 113.977 96.7018 113.987C97.2818 114.001 96.9698 114.815 97.2438 115.125Z" fill="#343355"/>
<path d="M108.026 126.808C108.332 127.316 108.442 127.776 107.632 127.822C106.996 127.858 107.252 128.312 107.214 128.618C107.17 128.98 107.032 129.284 106.658 129.34C106.228 129.404 106.094 129.096 106.07 128.724C106.722 128.084 107.374 127.446 108.026 126.808Z" fill="#181639"/>
<path d="M182.87 49.6904C181.632 50.5364 180.178 50.8724 178.794 51.3804C180.004 50.5304 181.212 49.6804 182.756 49.5484C182.792 49.5964 182.83 49.6424 182.87 49.6884V49.6904Z" fill="#318F37"/>
<path d="M214.571 157.618C214.713 157.792 214.867 157.958 214.993 158.142C215.215 158.466 215.317 158.822 214.953 159.096C214.639 159.33 214.329 159.206 214.101 158.912C213.977 158.752 213.863 158.598 213.629 158.634C213.905 158.262 214.107 157.82 214.569 157.62L214.571 157.618Z" fill="#181639"/>
<path d="M111.042 104.43C111.292 104.502 111.554 104.544 111.788 104.65C112.194 104.834 112.572 105.106 112.384 105.618C112.186 106.158 111.756 105.916 111.388 105.804C111.272 105.346 111.158 104.888 111.042 104.43Z" fill="#181639"/>
<path d="M145.682 94.8544C145.352 94.5844 145.318 94.1904 145.246 93.8124C145.786 93.8124 146.328 93.8124 146.868 93.8124C146.5 94.2804 146.206 94.7144 145.682 94.8544Z" fill="#343355"/>
<path d="M132.658 93.8525C132.536 94.4385 132.274 94.8125 131.544 94.5465C131.77 94.0805 132.174 93.9185 132.618 93.8105L132.66 93.8525H132.658Z" fill="#181639"/>
<path d="M167.482 49.2344C167.54 49.1084 167.598 48.9824 167.658 48.8564C167.962 49.5784 167.862 50.3384 167.876 51.0884C167.802 51.0724 167.728 51.0584 167.654 51.0444C167.596 50.4424 167.54 49.8384 167.482 49.2364V49.2344Z" fill="white"/>
<path d="M175.986 93.9904C176.38 93.5644 176.88 93.3644 177.638 93.2324C177.096 93.7304 176.606 93.9304 176.122 94.1344C176.08 94.0824 176.034 94.0344 175.986 93.9884V93.9904Z" fill="#737099"/>
<path d="M210.183 162.196C210.103 162.47 209.907 162.602 209.635 162.634C209.615 162.234 209.897 162.212 210.183 162.196Z" fill="#181639"/>
<path d="M184.438 144.436C184.436 144.164 184.566 144.024 184.842 144.032C184.824 144.284 184.702 144.432 184.438 144.436Z" fill="#4E4D61"/>
<path d="M93.5266 116.838C93.7286 116.848 93.9426 116.832 94.0366 117.072C93.8446 117.04 93.6346 117.052 93.5266 116.838Z" fill="#AAA7D5"/>
<path d="M89.6678 94.4333C89.4918 94.3493 89.4558 94.1953 89.4578 94.0213C89.6358 94.1033 89.6458 94.2713 89.6678 94.4333Z" fill="#4E4D61"/>
<path d="M190.846 123.61C190.486 123.742 190.69 123.442 190.638 123.338C190.708 123.428 190.776 123.518 190.846 123.61Z" fill="#4E4D61"/>
<path d="M184.234 144.858C184.232 144.68 184.25 144.51 184.442 144.426C184.466 144.616 184.382 144.752 184.234 144.858Z" fill="#4E4D61"/>
<path d="M132.618 93.8104C132.654 93.7864 132.692 93.7644 132.728 93.7404C132.704 93.7764 132.682 93.8144 132.658 93.8504L132.618 93.8104Z" fill="#181639"/>
<path d="M175.805 94.2124C175.865 94.1384 175.925 94.0644 175.985 93.9904C176.033 94.0364 176.079 94.0844 176.121 94.1364C176.033 94.1784 175.943 94.2204 175.855 94.2624L175.805 94.2124Z" fill="#737099"/>
<path d="M178.501 94.0724C178.417 94.1364 178.335 94.2024 178.251 94.2664C178.281 94.1344 178.369 94.0744 178.501 94.0724Z" fill="#181639"/>
<path d="M175.856 94.2624C175.816 94.3044 175.746 94.3824 175.744 94.3804C175.606 94.2684 175.738 94.2524 175.808 94.2144L175.858 94.2644L175.856 94.2624Z" fill="#737099"/>
<path d="M167.902 52.4744C167.886 52.4144 167.862 52.3544 167.858 52.2924C167.858 52.2704 167.902 52.2464 167.926 52.2244C168.01 52.3164 167.998 52.3984 167.902 52.4744Z" fill="#8986B3"/>
<path d="M214.034 108.858C214.042 109.896 213.602 110.64 212.62 111.042C211.67 111.432 210.874 111.192 210.17 110.492C209.272 109.6 208.652 108.478 207.73 107.596C206.334 106.264 204.986 104.882 203.534 103.606C202.52 102.714 202.438 101.342 203.188 100.378C203.936 99.4185 205.334 99.1525 206.4 99.9525C209.184 102.038 211.638 104.466 213.622 107.34C213.948 107.812 214.034 108.268 214.034 108.856V108.858Z" fill="#AAA7D5"/>
<path d="M215.557 116.84C214.193 117.084 212.761 115.4 212.665 113.62C212.599 112.392 213.631 111.43 214.881 111.414C216.459 111.394 217.817 112.798 217.815 114.448C217.815 115.842 216.881 116.828 215.559 116.84H215.557Z" fill="#AAA7D5"/>
<path d="M83.0704 91.2124C83.1144 91.2524 83.1964 91.3204 83.1944 91.3264C83.1004 91.4504 83.0524 91.3644 83.0024 91.2804L83.0704 91.2124Z" fill="#737099"/>
<path d="M174.284 46.6484C174.368 45.9424 174.51 45.3144 174.97 44.8004C175.701 43.9804 176.679 44.0724 176.983 45.1204C177.481 46.8364 177.593 48.5964 176.709 50.2644C176.449 50.7544 176.073 51.1384 175.457 51.1024C174.866 51.0684 174.486 50.7004 174.228 50.2044C173.91 49.5924 173.906 48.9264 173.926 48.2564C173.938 47.8584 174.252 47.8044 174.502 47.6644C174.816 47.4884 175.44 47.6324 175.364 47.0604C175.286 46.4704 174.666 46.7464 174.284 46.6484Z" fill="black"/>
<path d="M167.482 49.2344C167.54 49.8364 167.596 50.4404 167.654 51.0424C167.578 52.0364 166.76 52.2024 166.046 52.4104C165.396 52.6004 164.882 52.2444 164.498 51.7404C164.18 51.3244 163.878 50.9064 163.688 50.3944C163.426 49.6884 163.494 49.2624 164.34 49.2164C164.704 49.1964 165.05 49.1164 164.962 48.6564C164.886 48.2604 164.528 48.2224 164.182 48.1844C163.88 48.1504 163.358 48.5744 163.314 47.9724C163.258 47.2184 163.314 46.4164 163.862 45.8084C164.238 45.3924 164.73 45.5184 165.14 45.7904C166.388 46.6144 167.188 47.7584 167.484 49.2364L167.482 49.2344Z" fill="black"/>
</svg>
