<svg fill="none" xmlns="http://www.w3.org/2000/svg" viewBox="0 0 300 201">
  <path d="m109.3 71.8-2.3-2.5c-1.7-2.2-1.2-5.4 1-7.2 1.5-1.1 3-2 4.8-2.6a8 8 0 0 1 5.4 0c2 .7 3.9 1.6 5.5 2.9a41 41 0 0 0 4.8 3c1.8 1 3.6 1.6 5.6 1.5 2 0 4 0 5.9.8 1.2.4 2.4 1 2.6 2.4.3 1.5-.3 2.8-1.5 3.7-2.4 2-5 3.3-8.2 3.5l-3-.3c-.6-.1-.7 0-.7.6v4.3c0 .6.2 1 .8 1 5.2.3 10.2 1.5 15.3 1.8 4.8.4 9.5 1 14.3.2 1.8-.2 2.8-1.2 3.5-2.8.8-2 1.2-4.1 1.5-6.2.7-4.7 1-9.4 1-14.2 0-2.1-.3-4.2-.5-6.3 0-.6-.5-.5-.8-.5-2 0-3.9.1-5.8-.2-2-.4-4-1.1-5.7-2.2l-7-4.6c-2-1.3-4.2-1.8-6.5-1.7-4 .3-8.1.6-12.2.4-1.3 0-2.5-.2-3.7-.6a2 2 0 0 1-1.4-1.2c-1-2.4-.7-6.2 3-7.3 2.5-.8 5.2-1.1 7.8-1.3 3.5-.3 6.9-.2 10.3.5.6.1 1.2.4 1.8.8 2.5 1.7 4.7 4 7 6 1.3 1.3 2.7 2.5 4.3 3.5.4-1.3.9-2.5 1.5-3.5 2.2-3.5 5.7-3.6 8-.2.9 1 1.5 2.3 1.8 3.6.2.5.4.7.9.5h.1c.8-.1 1.7-.1 2.3-.5.6-.5.3-1.4.5-2.2.6-2.2 1.8-4.1 3.4-5.7 1.6-1.6 3.5-1.5 5 .1.8 1 1.4 2 2 3.1a8 8 0 0 0 2.9-4.6c.3-2 1.4-3.4 3-4.6 2.5-1.7 5-3 7.8-4.2 1-.3 2-.4 3-.4 2.3 0 3.8 2.1 3 4.4-.2.9-.7 1.5-1.4 2-1.9 1.5-4 2.4-6.2 3-1.7.4-3 1.3-3.5 3-.2.8-.6 1.5-.9 2.3a13 13 0 0 1-7.1 7.8 35 35 0 0 1-4.7 1.8c-.4.1-.7.3-.8.8-.3 4.5-1 9-1.3 13.6-.2 4.3-.2 8.6-.2 12.9 0 1 .2 2 .4 3 .2 1.4 1 2.4 2.5 2.9l2.2.7c2.2.7 4 2 5.4 3.7.7.8 1.4 1.1 2.4 1.1a29.6 29.6 0 0 1 20 7.6 49.5 49.5 0 0 1 15 22.8c1 3 2.2 5.9 2.7 9 1.1 7 1.7 14 .2 20.9a27.8 27.8 0 0 1-13.2 17.5 20 20 0 0 1-8 3.4 30.3 30.3 0 0 1-29.3-14c-4.2-6-7.1-12.8-9.5-19.7a51 51 0 0 1-2.5-23.3c.3-2.2 1-4.1 1.7-6a5 5 0 0 0 .2-2.9c-.8-3.1-1.5-6.2-1.9-9.4-.1-1-.7-1.7-1.8-2-2.7-.4-5.5-.5-8.2-.9l-5.1-.4c-.6 0-.9 0-1.3.4-2.6 2.2-5.4 4.3-8.3 6.3-.4.3-.8.2-1.3.3l1.7 3.3c2 5.2 1.9 10.4-.3 15.4a12 12 0 0 1-9 7.2 3 3 0 0 1-1.4 0c-1.2-.3-1.9.2-2.6 1.1l-3.2 4c-.5.7-1.2.8-2 .5-1.5-.8-3-1.5-4.3-2.4-.5-.3-.7-.2-1 .2-1.1 2-2.6 3.8-4.4 5.3-3 2.6-6.7 3.5-10.6 3.2-5-.5-9.8-2.3-13.8-5.5a33 33 0 0 1-9.5-12.2 40.6 40.6 0 0 1 3.3-38.5c1-1.5 2.3-2.8 3.7-4 1-.7 2.2-1 3.5-1.2.2 0 .7.1.7-.3 0-.5-.4-.6-.8-.5h-8.3c-1.6 0-3.2-.3-4.7-1a5 5 0 0 1-2-1.7c-.5-.7-.5-1.2.2-1.7a8 8 0 0 1 1.6-1l5.4-2.2c.8-.3 1.6-.2 2.4 0 2.8.5 5.5 1.2 8.2 1.6 1.8.2 3.5-.2 5.2-.3 4.6-.3 9.1.4 13.5 1.7l.3.2c.1-.2 0-.3 0-.4h-.1Zm66 22.5.2-.2c.5-.2 1-.4 1.5-.9-.7.2-1.2.4-1.6.8l-.2.2s-.2 0 0 .2v-.1Zm8.5 50.1c.3 0 .4-.1.4-.4 1.4-1 2.3-2.5 3.7-3.6 1-.7.9-1-.3-1.8-1.4.3-2.4 1.2-3.5 2-1.6.9-3.2 1.8-4.5 3-.2.3-.5.5-.2 1l1.9 3.2 2-2.5c0-.1 0-.2.2-.3l.1-.1c.2-.1.3-.3.2-.5ZM132 93.8c-.4.1-.8.3-1 .7.7.3 1 0 1-.6l.1-.2v.1Zm1.2 0c-.3.3-.6.6-.5 1 .2.4.7.2 1 .2l.7.1c1 .4 1.8 0 2-1 .3-.2.6-.5.5-.8-.1-.2-.5-.2-.8-.2-.4-.1-.8 0-1.2-.2-.8-.2-1.4.1-1.7 1Zm-12.8 19.4c-1.4.7-2.4 1.9-3.4 3-1.1 1-2 2.1-2.8 3.4-.5.7.2 1 .6 1.3.4.3.6 0 .6-.4.4-1.7 1.4-3 2.4-4.3l2.6-2.2c1.5-.8 3-1.6 4.7-2-.2-.5-.5-.9-1-.7-1.3.4-2.7.8-3.7 2ZM102 98.8c.5 0 .8-.3 1-.7.5-1.3.7-2.6.7-4.1-.6.4-1 .9-1.3 1.4-1.1 1-1.8 2.4-2.6 3.7.9.2 1.5-.2 2.2-.3Zm-16 11.6c0-.7.1-1.4-.3-2.1-1 .9-1.8 1.9-2.2 3.1 0 .5-.7.9-.3 1.5 0 .7.1 1.4.5 2l1.2-2.4c.3-.7 1-1.2 1.1-2ZM89 94a33 33 0 0 1-1-6.3c-.9.4-1.5 1-1.9 1.7-.4.3-.4.7-.3 1.1a29 29 0 0 0 2.8 6.8c.2.4.4 1 .8 1 .4-.1.6-.8.8-1.2v-.6l-1-2c0-.2 0-.4-.2-.5Zm104.5 32.4c-.2-.8-.9-1-1.5-1-1.8 0-3 .7-4 2.1-.2.2-.5.4-.4.7.2.3.6.3 1 .2l1.7-.5c.9.3 1.6.9 2.3 1.4.6 1.4.7 3 1.4 4.3-.3.9-.6 1.7-1.2 2.4a9 9 0 0 0-3.9 1c-.3.2-.8.3-.4.7.7.7 1.3 1.4 2.3 1.6 1.5.4 3.6-.6 4-1.9.9-1 1.5-2.1 1.5-3.6.4-2.3-.7-4.3-1.7-6.2-.2-.5-.5-1-1-1.2Zm-15.7-32.1c-3.8 1.2-4.7 3.8-3.7 7.1 0 1.3.1 2.6.4 3.8l.7 3.2c.8-2 2-3.4 3.5-4.7.8-.7 1.9-1.2 2.6-2 3.1-1 6.1-1.4 9.1.2h.3c.3.3.6.4 1 .5 0 .2.2.3.3.4 5.1 3.2 9.3 7.4 13.4 11.8 1.7 1.8 3.1 3.9 4.7 5.8.1.5.3.8.7 1l.1.5.8 1.1a40 40 0 0 1 4.9 26.7c-.4 2.1-1 4.1-1.7 6.1-.4.3-.5.8-.8 1.2v.6c-.5.2-.7.7-1 1-.9 1.4-2.2 2.5-3.4 3.6-.3 0-.6 0-.6.4-.4 0-.7.2-1 .4-4.2 2.3-8.3 2.6-12.7.7-4.3-2-7.6-5-10.4-8.7a81 81 0 0 1-10.5-18.5c-1.2-2.9-2.4-5.7-2.6-8.9-.2-3-1.5-5.6-2.8-8.2-.9-2.9-1.9-5.7-2.7-8.8l-.3.5a19 19 0 0 0-1.8 8.5c-.3 6.3.6 12.5 2.6 18.5 2.4 7 5.4 13.8 9.5 20a29.1 29.1 0 0 0 28.8 13.5c3-.4 5.4-2 7.8-3.5 6-4 10.5-9.3 12.2-16.5a55 55 0 0 0-1.9-26.8 67.2 67.2 0 0 0-6-13.6 44.9 44.9 0 0 0-9.7-11.5 31.6 31.6 0 0 0-23-7.3 18.2 18.2 0 0 0-6.9 1.9Zm-33-.5c-1.5-.2-3-.7-4.1.6-.8.5-2 .8-2.1 1.8-.2 1 0 2.2 0 3.4 0 .3 0 .5.4.2l3-2.3a21 21 0 0 0 3.2-2.6c.5-.2.8-.6 1.2-1h-1.7ZM124 116c1.4-.7 2.9-1.6 4.7-1.4-2-2-2.4-2.2-5.2-1-1.7.7-3.3 1.6-4.6 3a8.4 8.4 0 0 0-2.7 4.6c0 .3-.2.6.2.9l2.5 1.8c.2-1.8 1-3.3 1.8-4.6 1-1.2 2.1-2.2 3.3-3.3Zm-.3 6a21 21 0 0 0 3.3-3.6c.8-.5 1.2-1.4 1.8-2.1.4-.5.3-.7-.2-.7-1.5 0-2.8.4-3.9 1.4a8.1 8.1 0 0 0-3 2.8 8.2 8.2 0 0 0-1.8 4c0 .6.2 1 .7 1.3.4.2.6 0 .8-.2l2.3-2.8Zm-24.3-14.5-.3 2c0 .4.1.5.5.3l1.4-.6c2-1.2 3.1-3 4.2-5 .3-.5 1-1 .6-1.6-.3-.5-1.2-.1-1.8 0-.6 0-1.4-.3-1.7.5-.5 1-1.2 1.8-2.1 2.4-.9.5-1.2 1-.8 2Zm28 12.3-3.7 4c-2.5 2.1-3 4.7-1.7 7.4l1.5-2 .8-.8c1.2-1.5 2.5-3 3.5-4.6 2-1.7 2.5-4 2-6.7-1 .8-1.7 1.8-2.5 2.7ZM94.7 110c-.6 1-1.4 1.9-2.8 1.6-.6-.6-1.4-.5-2.2-.7h-.6c-.3.3 0 .6 0 .8 1 1.2 2 2.2 3.6 2.3.3 0 .8.2.9-.4l1.2-.1a6 6 0 0 0 3.5-4.8c.2-1.4 0-2.8-1-4 0-.7-.5-.9-1.1-.9-1 0-1.7.5-2.1 1.3-.3.6.2 1.1.6 1.5l.1.9c0 .8.1 1.7-.1 2.5Zm105 33.4-.2-.2c-1.2-1.4-2.8-2.4-3.8-3.9-.3-.3-.5-.6-1-.2-.4.4-.3.7 0 1 3.5 3.6 6.2 7.7 8.5 12.2 1 2 1.8 4 2.7 6.1l1 3.3c.1.5.3.5.7.3 1-.5 1.9-1 2.7-1.8.7-.6.8-1.2.4-2-1-1.5-1.8-3-2.7-4.6-2.2-3.8-5-7.3-8.3-10.2Zm-93-33.1c-1 0-2 .1-3-.1-1.7-.6-3 .2-4.6 1 3.3 1 6.3 2.2 9.6 2.6 2 .3 2.2-.2 1.7-2.1v-1c0-.6-.3-.8-.8-.6-1 .2-1.9 0-2.8.2Zm95.8 17.5c-2.2 1-3.7 2.7-5.3 4.4l1.9-.8c4.2-1.5 8.6-2.2 13-2.7 1.1-.2 1.1-.2.4-1.3 0-.3-.2-.5-.3-.8-.3-1-1-1.3-2-1.2-.9 0-1.8.3-2.7.6-1.7.6-3.4 1-5 1.8Zm-100.3 1.5c.3-.4 1.5 0 .9-1-1.6-2.7-3.4-5.3-4.8-8-.2-.4-.4-.7-.8-.7l-1.4-.5c-.2-.1-.5-.3-.7-.1v.6c.7 3.3 1.8 6.4 3.6 9.3.6 1 1.1 1.1 2 .8l1.2-.4ZM93.4 117l1.2.4c1.4.7 3 1 4.4 1.5 4 1.5 8 2.8 12 3.7 1.3.3 1.3.3 1-1 0-.8.4-1.7-1-1.7-2.9-.2-5.7-.6-8.5-1.6-2.2-.7-4.4-1.2-6.5-2-2.7-.8-5.6-1.6-7.5-4-.2-.4-.5-.9-.5-1.4.1-1-.5-1.6-1.1-2.3.2 1.4.3 2.6 1 3.7.8 2.5 2.6 3.8 5 4.4.1.3.3.2.5.3Zm88.9-67.4c2.7-1.3 4.8-3.3 6-6.1.4-1.3 1-2.5 1.5-3.8.2-.5.3-1 .2-1.6 0-1.4-.3-2.6-1-3.8-.3-.5-.7-.7-1.3-.2a4.7 4.7 0 0 0-2 3.1c-.5 2.2-1.6 4-3.2 5.4-.3.3-.5.5-.3 1 .4 1.1.3 2.4.4 3.6-.2.8-.1 1.5-.4 2.2-1.6.2-2.8 1-4 1.9 1.4-.5 2.8-.9 4-1.7Zm8.5-13.8c.1 1.1.7 1.5 1.7 1.2h.4a18 18 0 0 0 6-2.7c.9-.6 1.8-1.4 1.7-2.8-.2-1.7-.7-2.2-2.3-2.2-3.4 0-6 2.1-8.8 3.5-.3.2-.2.3 0 .6.6.7.9 1.6 1.3 2.4Zm-76.1 58.5a27 27 0 0 0-5-6.3 3.5 3.5 0 0 0-4.9.1l-1.7 1.8c-.4.4-.3.7 0 1.1a24 24 0 0 1 4.6 6.1c.2.4.4.6.8.5l2.5-.4c1.1 0 2.2-.2 3.2-.3 1.4-.2 1.7-.8 1-2l-.5-.6Zm28.2-52.6c0 1.2.5 2.3 0 3.4 0 .5.3.5.5.6 1 .2 1.8.7 2.7 1.1 2.3 1.4 4.5 3 6.7 4.5 1 .6 2 1 3 1.4v-2.2l.1-1.5c.2-.7 0-1.1-.6-1.5a47.8 47.8 0 0 1-4.6-4c-2-1.7-3.8-3.5-5.8-5-1.1-.8-2.3-1.2-3.8-1.2 1 1.4 1.4 3 1.8 4.4Zm47.3 81.8s0-.2-.2-.3v-.3a83 83 0 0 1-6.2-19.7c-.1-.6 0-1.5-1.2-.9-1 .3-1.7 1-2.5 1.4-.7.4-.8 1-.6 1.7a41 41 0 0 0 8 18.5c.7 1 1.3 1.2 2.4.7.8-.4.8-.6.3-1Zm-48.5-82.2-.8-2.3c-.6-1.5-1.6-2.1-3.2-2-2 0-4.1-.1-6.1.2-2.5.3-5 .4-7.4 1.6-1.2.8-2 2.6-1.7 4 .2 1.4.9 2.3 2.4 2.5.8 0 1.6.3 2.5.3 2.9 0 5.8 0 8.7-.3 1.7-.2 3.3-.1 5-.2.7 0 1-.2 1-1 0-1 0-1.9-.4-2.8Zm25.6 9.7c0-.8 0-1.5-.2-2.2-.3-2-1-3.8-2.2-5.3-1.9-2.5-4.5-2.4-6.3.1-1.8 2.5-2 5.5-2 8.4 0 .7.4 1.1 1.3 1 3.1-.3 6.2-.2 9.3.5l.1-1.1V51Zm-56.5 54.7a29.7 29.7 0 0 1 .6 12c-.1.5-.5 1 .1 1.2.7.2 1.5.6 2-.2 1.5-2.1 3.3-3.9 5.3-5.5.2-.2.5-.4.3-.9-.7-2.2-.7-4.4 0-6.5.3-1 .2-1.8-.3-2.7-.1-.6-.1-1.5-1-1.6-1.4 0-2.8-.1-4.2.2h-3c-.6 0-.9.2-.6.9l.4 1.7.4 1.4Zm-10-34.4c-.6-.3-1.3 0-2-.2h-2.3l-2.5.2c-1.6.4-3.2.1-4.8 0l-1.8-.3a1159.1 1159.1 0 0 1-4.5-.9c-1-.4-2-.6-3-.2L76 71.6l-1.9.9c-.9.4-1 1-.1 1.5a7 7 0 0 0 3.5 1.4c3.2.5 6.5.2 9.7.2h2a35.3 35.3 0 0 1 19.9 3.1 7 7 0 0 0 3.7.8c.8-.1 1.2-.5 1.3-1.3 0-1.4-.8-2.4-1.8-3.2a3 3 0 0 0-1.9-1.2c-.3-.4-.9-.4-1.3-.6-1.1-.7-2.4-.9-3.6-1-.7-.4-1.4-.3-2-.5-1 0-1.8-.4-2.7-.3Zm89 31.4c-.7-.5-1.6-.8-2.6-.9l1.5 2.7 4.5 10.1c1 2.3 2 4.5 2.5 7 .2 1 .1 2-.6 3-.9 1-.9 1 .2 2 .2 1.1 1 2 1.3 3.2.4 1 .4 1 1.2.3 1.1-1 2-2.3 3.2-3.4 1.9-1.8 2.1-4 1.8-6.5l-.6-3a19 19 0 0 0-4.3-8.7c-2.3-2.4-5-4.3-8-5.8Zm-60.8-1.3.4.3c7.4 3.4 7.3 15.2 1.9 18.8a1 1 0 0 0-.4.4c-.3 1-1 2-1.5 3l-1 1.1c-.1.3-.5.5-.3.8.1.2.5.1.7.1 2 0 3.7-.8 5.3-1.9 3.5-2.4 5-6 5.4-10.1.7-6.5-1.2-12-6.3-16.2-.5-.4-1-.7-1.7-.8-2-.6-4.1-.4-6.2-.3-4.5.3-9 1-13.6 1.5-5.4.5-10.6 1.8-15.8 3.4-.8.3-1.2.8-1.4 1.7 2.2-1.2 4.5-1.4 6.8-1.7l11.7-.8c5.4-.2 10.7-.3 16 .7Zm-19.6-39c-1.7.6-3.2 3.7-2 5.7 1.6 2.2 3.4 4 6.2 4.4 5.4 1 10.7 2.8 16.3 3.4 1.4.2 2.7.4 4.1.2 2.4-.5 4.4-1.6 6.3-3 2-1.5 1.8-3.5-.5-4.5-2-.7-4-1-6.1-.8l-2-.1a18 18 0 0 1-3.4-1.3c-2.3-1.2-4.3-2.9-6.5-4.2A14 14 0 0 0 116 60c-2.5-.3-4.5 1-6.5 2.3Zm-26 28.1c.5-.2.7-.6 1-1 2-2.5 4.3-4.4 7.7-4.7 1-.1 2 .3 3 .4.6.1 1 .9 1.6.5.5-.4.7-1 1-1.6.4-.5.2-.5-.3-.6a10 10 0 0 1-7.3-4c-.4-.4-.6-1.1-1.3-1.3-1.3-.4-3.7.6-4.6 1.7-1.2.5-1.8 1.7-2.6 2.6a32.8 32.8 0 0 0-5.9 14c-2 9.6-.8 18.7 4 27.3 1.5 2.6 3.6 4.8 5.7 7 4.3 4.2 9.6 6.4 15.6 6.9 6.3.5 10.5-2.9 13.7-7.9.3-.5.3-.8-.3-1.2-.4-.2-.9-.4-1-1l-1-3.3c0-.3 0-.6-.4-.6-.7 0-1.3-.2-2-.3-.3-.1-.5 0-.7.3l-1.9 3-2 2a19 19 0 0 1-5.4 2.4c-.8-.3-1.7-.2-2.6-.4-1-.1-2.2-.2-3.1-.8A28.4 28.4 0 0 1 83.7 118c-1.8-4-2.1-8.4-2.4-12.7-.2-2.2-.4-4.3 0-6.5.1-1.5.2-3 .6-4.3.4-1.4 1.3-2.6 1.6-4Zm37.4-7.6c-.9.5-1.8.5-2.8.3-2-.3-4-1-6-1.2-.7-.4-1.6-.7-1.8-1.8l-.5-.3-2.1-.9c-.6-.2-1-.3-1.2.4-.7 1.4-1.9 2-3.3 1.7a8 8 0 0 1-6.3-3.8c-.2-.4-.4-1-1-1-2-.3-4 0-6 0-.5 0-.6.2-.4.6 1.4 2.5 5 6.3 8.9 5.5.4-.1.8 0 1 .3.4.4 0 .8-.2 1l-4.1 7c-2 3.6-4.3 7-6 10.6-.8 1.7-1.4 3.4-1.4 5.4 0 2 1.1 3.2 3.2 3.2.4 0 .7 0 1 .2 1.2.7 1.5.6 2-.7.2-.6.6-1.3 0-1.8-1.4-1-1.7-2-1-3.7l2.3-4.2c2.3-4.5 5.5-8.4 9-12.2 1.2-1.4 2.7-1.7 4.4-1.2l9.2 2.9c3.4 1 3.6.4 4 5.1.3 1.7.2 1.7 2 1.4l4.5-.1c.6 0 .6-.4.6-.8 0-1-.2-2.1.4-3 4.5-.2 9 .4 13.4.7l12.8 1c2.5.3 5 .4 7.3 1 1 .4 1.6 1 1.8 2a92.9 92.9 0 0 0 6.1 23.7 59.6 59.6 0 0 0 8.3 14.7c1.2 1.4 2.5 2.3 4.5 2 2.7-.2 5.3-.7 7.7-2.1.6-.3 1.5-.4 1.5-1.3a5 5 0 0 0-2-4.2c-.5-.4-1.1-.6-2-.3-.9.3-1.9.3-2.8-.3a16 16 0 0 1-4-3.9 41.8 41.8 0 0 1-6.3-11.3 60 60 0 0 1-2.8-13.9c-.2-2 0-4 1.4-5.7.9-1.1 2.1-2 3.5-1.6 1.3.2 2.3-.1 3.4-.5l4.4-.5c-.5-.8-1-1.3-1.6-1.8-1.5-1.4-3.4-2-5.3-2.6-2.5-.7-3.6-2.3-3.9-4.8-.2-2 0-4.1-.1-6.1-.3-6.5.3-13 1-19.4.2-1.2.5-2.4.3-3.7-.8.5-1.3 1.1-1.9 1.7-.5.5-.9.5-1.4 0-1.3-1.4-1.4-3-1.5-4.6 0-2.3 0-2.2-2.3-1.8-.6.1-.8.4-.6 1 .3 1.5.2 3 0 4.6 0 .4 0 1-.6 1l-1.5-.4a58 58 0 0 1 0 17.6c-.3 3.2-.7 6.5-1.7 9.6-.8 2-1.8 3.8-4.3 4.2-3 .4-6.1.4-9.2.2-2.5-.2-5-.2-7.4-.6-4-.6-8-1.2-12-1.6-3-.4-3-.3-3.2-3.3v-3.1c0-.6-.2-.8-.7-.9a30 30 0 0 1-5.4-1c-.7-.2-1 0-.8.7.2 1.6 0 3.1.1 4.7a3 3 0 0 1-.6 2Zm91.2 75.4a13 13 0 0 0 2.6-4.5c2.3-7.9 2-15.7-.6-23.4-.2-.6-.5-.8-1.1-.8-3 0-5.7.7-8.5 1.2-2 .5-4 .9-5.8 1.9-.6.3-1.3.7-1.4 1.4-.2 1.1-.5 2.1-1 3-.4.6-.2 1 .2 1.4a57.4 57.4 0 0 1 15.6 19.9Zm-11 5.6c1.5 0 3-.3 4.3-.8.6-.2.8-.5.7-1l-.4-2c-2.4-6.7-5.7-13-10.5-18.4-.4-.5-1-1.3-1.5-1.4-1.4-.2-3.3-.6-4.3.2-2.8 2.1-5 4.9-7.1 7.7-.3.4-.2.7 0 1.1a75 75 0 0 0 4 5.5c2.6 3.4 5.7 6.3 9.8 8 1.6.7 3.2 1 5 1.1ZM86.5 111.7a10 10 0 0 0-2.1 5.4 27.6 27.6 0 0 0 10 11.8c1.1.7 2.4 1 4 1a31 31 0 0 1-4-10.3c-.2-1-.5-1.4-1.4-1.6a8.3 8.3 0 0 1-6.5-6.3Zm108.3 10.8a162.7 162.7 0 0 0-8.2-19.6 3 3 0 0 0-1-1c-.2-.2-.6-.1-.9 0-.4.1-.2.5-.1.8l1.3 6.1c1.4 5.2 3 10.3 5.5 15 .1.3.2.5.5.7 1.5.6 2.9-.3 2.9-2Zm-23-74.2c0 1.6 0 3.2.5 4.8.4 1 .6 1 1.3.3 2.2-1.8 4.5-3.6 7.2-4.6.4-.1.5-.3.6-.7.3-3-.3-5.6-2.1-7.9-1.4-1.7-2.8-1.8-4.4-.3a11 11 0 0 0-3.1 8.4Zm6.5 57a6.8 6.8 0 0 0-2.3 7.2l1.5 3.6c1.4 3 3.1 5.7 5 8.3 1.1 1.6 2.7 1.8 4.3 2.2.4.1.6-.2.8-.5.2-.3 0-.4-.2-.6a44 44 0 0 1-9-20.2ZM84.7 90.8c-3.8 6.3-2.6 13-2 19.5 1-1.5 2.3-2.7 3.5-3.9.3-.2.4-.5.5-.8.2-1.8.8-3.5 1.7-5.1.4-.8.4-1.3-.3-2l-.9-1.4c-1-2-1.7-4-2.5-6.3Zm26 24.7c0-.4-.1-.6-.7-.6l-2-.2C105 114 102 113 99 112c-.3-.1-.6-.5-1 0-.4.6-1.1 1.1-.6 2 .3.5.3 1 .4 1.4.1.4.3.7.8.8 2.8.9 5.7 1.8 8.6 2.3 3.3.5 3.3.5 3.5-2.8v-.3Zm90.7-3c1.2 2.2 1.9 4.6 2.2 7 .4 2.5.7 5-1.4 7.3l1.4-.5c2.2-.7 4.3-1.6 6.6-1.8.9-.1 1-.3.5-1a59.3 59.3 0 0 0-8.4-10.7c-.2-.2-.4-.6-.9-.3ZM112 80.8c2.4.7 4.6 1.4 7 1.6 1.2.1 1.5-.2 1.5-1.3l-.1-5.4c0-.5-.3-.7-.7-.8l-5.4-1c-.7-.2-1.4-.6-2.2-.4 1.5 1 2.7 2.4 3 4.3.2 1.6-.7 2.5-2.3 2.6-.2 0-.5 0-.8.4Zm66.6 62.5c2.5-2.3 5.4-4 8.4-5.7-2 .3-3.6.5-5.3.4-.8 0-1.5-.2-2-.8a40.3 40.3 0 0 1-6.3-8.8c-.1-.2-.2-.6-.7-.8 1 5.7 3.4 10.7 5.9 15.7ZM90.9 95.8l5-8.5c.2-.3.1-.5-.2-.6-2-1-4.1-1.2-6.3-.2-.4.2-.5.5-.5 1 0 2.1.3 4.3 1 6.4.3.6.5 1.3 1 1.9Zm22.5 25.3c-.3.3-.4.5-.3.8.2 1.4.4 3 1 4.3.1.6.2 1.3.8 1.7 1.6 1.1 3.3 2.2 5.2 3 .2.2.4.4.6.2.2-.1.1-.4 0-.6-.3-1.3-.4-2.6-.4-3.9 0-.3-.1-.6-.4-.8l-6.5-4.7Zm-1.8-32.4c1.6 1.7 3 3.5 4.2 5.5.5.8.7 2 1.5 2.3.9.3 2-.2 3-.2.4 0 .6-.2.6-.7 0-1.2-.2-2.4-.4-3.6-.1-.6-.5-1-1.2-1.2l-6.7-2c-.3-.2-.6-.3-1 0Zm-11.9 31.7c1.3 2.5 2.7 5 4.4 7.1.4.5.6.5 1.1.1 1.3-1.1 2.3-2.5 3.1-4 .2-.3.3-.5-.2-.7-2.8-.7-5.6-1.6-8.4-2.5Zm3.2-11.4c2.4.4 4.7.3 7 0 .6 0 .4-.4.3-.6a40 40 0 0 0-1.3-5.8c0-.3 0-.7-.6-.6-.4.1-1-.1-1.3.6-1 2.3-2 4.6-4.1 6.4Zm28 10.4c2.8-1.7 4-6.6 2.8-11-.7-3-3.3-5.5-5.8-6 1.6 1.1 2.5 2.5 3.1 4 .5 1.2.8 2.5 1 3.8.2 2.2.4 4.6-.7 6.7a4 4 0 0 0-.4 2.5Zm-5.1-17.3c-1-.4-1.7-.2-2.6-.3-.9 0-1.5.3-1.9 1.1-.7 1.3-1.2 2.6-1.5 4a11 11 0 0 0 0 4.7c.2.5.4.6 1 .3.7-.4 1-1 .8-1.8-.5-2 .2-3.6 1-5.2a4.4 4.4 0 0 1 3.2-2.8Zm-30-1.5c1.5-.2 2.6-.7 3.3-2 1-2 2.3-4 4-5.4.4-.3.3-.5 0-.8l-.7-.7c-.3-.4-.5-.3-.7 0a43.6 43.6 0 0 0-5.9 8.9Zm1.7-24.1a7 7 0 0 0 6.3 3.8c.7 0 1.2-.5 1.7-1.1.3-.5.3-.8-.4-1a31 31 0 0 0-7.6-1.7Zm33.5 19v.2c1 .3 2.1.8 3 1.6.9.6 1.6 1.4 2.3 2.2.2.3.5.6 1 .5.3-.1 0-.5.2-.8.3-.8.1-1.6.1-2.4 0-.5-.3-.8-.9-.8-1 0-2 0-3-.2l-2.7-.3Zm0 19.7c.3-1.9.2-3.6 0-5.3 0-.2-.1-.5-.4-.4-.7.1-1.6.3-2 1-.3.8-.4 1.8.1 2.6.6.7 1.4 1.3 2.2 2Zm-5.4-4.9c0 1 .7 1 1.2 1.3.4.3.7.2.7-.4 0-1.1.7-1.7 1.5-2.2l1.2-.5c.7-.2.2-.6.2-1 0-.3-.3-.4-.7-.2l-2.6 1c-1.2.4-1.5.7-1.5 2Zm-2.5-4.3a8.9 8.9 0 0 0-.5 4.1c0 .2 0 .5.2.5.5 0 1-.3 1.7-.3.3 0 .4-.7.3-1 0-.5.6-1 .1-1.6l-1.8-1.7Zm2.7-2.9 1.1 2.5c.8 1.6 1 1.6 2.5.7h.1c.2-.1.3-.2.2-.5-.4-1.4-2.3-2.8-3.9-2.7Zm-21-8.5L104 98c0 .3 0 .4.4.4.6 0 1.2 0 1.7-.3.3 0 1-.2.6-.9-.5-.8-1-1.8-1.8-2.6Zm-3.3 8c-1 .3-1.8.2-2.6.4-1 .2-1.1.4-.5 1.2.2.3.2 1.1.8.8.9-.5 1.8-1.1 2.3-2.3Zm23.3 1c-.4.2-.6.5-.8.8-.2.3-.3.6 0 .8.5.8 1.2 1.5 2 2 .1.2.3.3.5.1.2-.1 0-.3 0-.4l-1.3-2.8c-.1-.2-.2-.4-.4-.4Zm15.5-10c-1.3-.3-2.4-.5-3 .8-.1.2-.5.5-.3.8.2.2.7.1.9 0l2.4-1.7Zm-10.4 2c-.2-1.5 1-2 2-2.7-2.3-.3-2.4 0-2 2.7ZM96.6 115c-.2-.3 0-1.1-.5-1.1s-1.3.4-1.3.8c0 .7 1 .5 1.5.8.2.1.3-.1.3-.5Zm22.8-13.5.6 1.7.9-1.7h-1.5Z" fill="#000"/>
  <path d="M214.8 155.8c.7-2 1.3-4 1.7-6a40.2 40.2 0 0 0-4.9-26.8h.7c.5 0 .8-.2.8-.7 0-.4-.4-.5-.7-.6-.6-.1-1 .3-1.6.2v-.5l.9-1.1c.1-.3.2-.5 0-.7a.6.6 0 0 0-.8 0l-.9.8c-1.6-2-3-4-4.7-5.8-4-4.4-8.3-8.6-13.4-11.8l-.4-.4.6-1c.2-.4.1-.7-.2-.9-.3-.2-.6 0-.8.3l-.5 1s-.2.1-.2 0c-3-1.5-6-1-9.1 0-.4-.1-.8 0-1.1.2-2.1.7-4 1.7-5.8 3.2-.3-1.2-.4-2.5-.4-3.8l.7-2.2a23 23 0 0 1 3-5l.2-.1c2.1-1 4.4-1.5 6.6-1.7a31.6 31.6 0 0 1 23 7.3c4 3.3 7.1 7.1 9.8 11.5a67.2 67.2 0 0 1 8.6 28.1c.2 4.2.2 8.3-.8 12.3a27.3 27.3 0 0 1-12.1 16.5 19 19 0 0 1-7.9 3.5 29.1 29.1 0 0 1-28.8-13.5c-4.1-6.2-7-13-9.5-20-2-6-2.8-12.2-2.6-18.5.2-3 .4-5.9 1.9-8.5 0-.1 0-.2.3-.5.7 3 1.7 6 2.7 8.8v.4c-.2 4.6.9 9 1.7 13.4.7 4.1 2.2 8 3.9 11.8.3.7.3 1-.5 1.3-.3.2-.7.5-.4 1 .3.4.7.3 1 0 .6-.4.9-.1 1.2.5a43 43 0 0 0 8 10.9c2.8 2.6 5.9 4.8 9.5 6 .5.2.9.4.7 1 0 .3 0 .6.4.7.4.1.7-.1.7-.4.2-.8.7-.6 1.2-.5 2.7.4 5.4.2 8-.5 1.6-.5 3.3-1.1 4.5-2.4.3 0 .5-.1.6-.4 1.2-1.1 2.5-2.2 3.4-3.6.3 0 .4.2.5.3.2.3.5.4.9.2.3-.3.2-.6 0-1l-.4-.5v-.6c.5 0 .7.3 1 .5.4.1.8.2 1-.2.1-.3 0-.6-.3-.8l-1-.7Zm-1.4-47c0-.5 0-1-.4-1.5a32 32 0 0 0-7.2-7.3c-1-.8-2.5-.6-3.2.4-.8 1-.7 2.3.3 3.2l4.2 4c1 .9 1.6 2 2.5 2.9.7.7 1.5 1 2.4.5 1-.4 1.4-1.1 1.4-2.1Zm1.6 8c1.3 0 2.2-1 2.2-2.4 0-1.6-1.3-3-3-3-1.2 0-2.2 1-2.1 2.2 0 1.8 1.5 3.5 2.9 3.2Z" fill="#737099"/>
  <path d="M167.5 54.9c.7 0 .6-.6.7-1 .1-1.5.2-3-.1-4.6-.1-.6 0-.9.6-1 2.3-.4 2.3-.5 2.3 1.8 0 1.7.2 3.2 1.5 4.5.5.6 1 .6 1.4 0 .6-.5 1.1-1.1 2-1.6 0 1.3-.2 2.5-.3 3.7a123 123 0 0 0-1.1 19.4c0 2-.1 4 .1 6 .3 2.6 1.4 4.2 3.9 5 2 .5 3.8 1 5.3 2.5.6.5 1.2 1 1.6 1.8l-4.4.5c-.2-.5-.7-.7-1.1-1-2.4-2-5.3-2.2-7.4-.6-1.7 1.4-2.3 3.3-2.4 5.4a31 31 0 0 0 .5 7.8 71.2 71.2 0 0 0 6.6 19.7c1.4 2.6 3.2 5 5.9 6.6 1.3.8 2.7 1.6 4.4 1.3h1.1c1.8.5 2.3 1.3 2.5 3.8-2.4 1.4-5 1.9-7.7 2.2-2 .1-3.3-.7-4.5-2.2-3.6-4.3-6-9.4-8.3-14.5a92.9 92.9 0 0 1-6.1-23.7c-.2-1.1-.7-1.7-1.8-2-2.4-.7-4.8-.8-7.3-1-4.2-.5-8.5-.8-12.8-1.1-4.5-.3-8.9-1-13.4-.7-.5-.9-1.3-1-2.1-.8-2 .5-3.3 2.4-3.5 4.7-1.7.3-1.6.3-1.8-1.4-.5-4.7-.6-4-4.1-5.1l-9.2-2.9c-1.7-.5-3.2-.2-4.5 1.2a57.8 57.8 0 0 0-9 12.2L93 104c-.8 1.6-.5 2.6.8 3.7.7.5.3 1.2 0 1.8-.5 0-1-.1-1.4-.3-.9-.3-1.9-.6-2-1.5-.2-1.6 0-3.1.7-4.5 3.4-6.4 7.4-12.5 11.9-18.1.3-.4.6-.5 1-.5l3-.3c1.9-.3 3.5-1.3 5.1-2.2 2 .1 4 .9 6 1.2 1 .2 2 .2 2.8-.3 1.2.2 2.3-.3 3.4-.6 1.5-.3 2.7-1.2 4-1.7.1 3 .1 2.8 3.2 3.2 4 .4 8 1 12 1.6 2.5.4 5 .4 7.4.6 3 .2 6.2.2 9.2-.2 0 .3.3.3.5.3 2.6.8 5.6-1 6.7-3.8 1-2.3 1.1-4.8 1.2-7.2l-.2-9.1v-.4l-.7-10.8Z" fill="#5FDF66"/>
  <path d="M92 84.9c-3.3.3-5.6 2.2-7.6 4.7-.3.4-.5.8-1 1-.3-.5-.8-.8-1.3-1-.3-.2-.6-.2-.8.1-.2.4 0 .6.3.8.3.2.7.3.9.7H81.7c-.3 0-.6 0-.6.3-.1.3 0 .6.3.7.9.3.6.8.3 1.4a30.6 30.6 0 0 0-2.1 19c0 .6 0 .8-.6.8h-.5c-.4.2-.7.3-.6.8 0 .4.4.4.7.4.4 0 .8-.2 1.2 0-.1.3-.5.3-.6.5-.2.1-.4.3-.3.6 0 .2.3.4.5.3 1-.3 1 .5 1.2 1l.7 2.1c.9 3.1 2.4 5.8 4.9 7.9.5.4.7.8.3 1.4-.2.3-.5.8 0 1.1.6.3.8-.2 1-.6.2-.5.4-.5.8-.2 1.6 1.3 3.6 2 5.5 2.8 2 .7 4.2.7 6.2-.3a19 19 0 0 0 5.5-2.5c0 .4.1.7.6.6.3 0 .5-.3.5-.7 0-.3-.2-.7.4-.8.8 0 .7-.5.4-1l2-3c.1-.4.3-.4.7-.3.6.1 1.3.3 2 .3.3 0 .3.3.4.6l.9 3.3c.1.6.6.8 1 1 .6.4.6.7.3 1.2-3.2 5-7.4 8.4-13.7 7.9-6-.5-11.3-2.7-15.6-7a33 33 0 0 1-5.7-7c-4.8-8.5-6-17.6-4-27.2 1-5 2.7-9.9 6-14 .7-1 1.3-2 2.5-2.6 2.3.2 4.4 1 6.3 2.3 1 .6 2 1.2 1.6 2.6Z" fill="#737099"/>
  <path d="M109.4 62.4c2-1.3 4-2.6 6.5-2.3 2.2.2 4.1 1 6 2.2 2.1 1.3 4 3 6.4 4.2 1.1.5 2.3 1 3.5 1.3.6.2 1.2.1 1.9 0 2 0 4.1.2 6.1.9.3 1.5-1.2 2.9-3 3.3-2.3.6-4.7.6-7 .6-1.2 0-2.4-.2-3.5-.4-2.3-.4-4.6-.4-6.6-1.7a23 23 0 0 0-3.3-1.8c-1.7-.7-3.3-1.7-5-2.5-1.5-.9-2.3-2-2-3.8Z" fill="#4E4D61"/>
  <path d="M129 101.5c-5.3-1-10.6-1-16-.7l-11.7.8c-2.3.3-4.6.5-6.8 1.7.2-1 .6-1.4 1.4-1.7 5.2-1.6 10.4-2.9 15.8-3.4 4.6-.4 9-1.2 13.6-1.5 2-.1 4.1-.3 6.2.3.6.1 1.2.4 1.6.8 5.1 4.2 7.1 9.7 6.4 16.2-.4 4-2 7.6-5.4 10.1a9.3 9.3 0 0 1-5.3 2c-.2 0-.6 0-.7-.2-.2-.3.2-.5.3-.8l1-1.1c.4.1.8 0 1.2-.2 2.6-1.1 4.7-2.8 6-5.3 1.3-2.5 1.4-5.3 1.5-8 0-4.5-3.4-8-7.3-9-.5-.1-1.2-.7-1.8 0Z" fill="#AAA7D5"/>
  <path d="M112 82a14.6 14.6 0 0 1-8 2.6c-.5 0-.8 0-1.1.5-4.5 5.6-8.5 11.7-12 18-.7 1.5-.8 3-.6 4.6 0 1 1.1 1.2 2 1.5.4.2 1 .2 1.4.3-.4 1.3-.7 1.4-1.8.7-.4-.2-.7-.2-1-.2-2.2 0-3.2-1.1-3.3-3.2 0-2 .6-3.7 1.4-5.4 1.7-3.7 4-7 6-10.6 1.3-2.4 2.7-4.7 4.1-6.9.3-.3.6-.7.3-1-.3-.4-.7-.5-1.1-.4-4 .8-7.5-3-8.9-5.5-.2-.4-.1-.6.3-.6 2 0 4-.3 6 0 .7 0 .9.6 1.1 1a8 8 0 0 0 6.3 3.8c1.4.2 2.6-.3 3.3-1.7.3-.7.6-.6 1.2-.4l2.1 1 .5.2c.2 1 1 1.4 1.8 1.8Z" fill="#318F37"/>
  <path d="M209 162.6c-1.2 1.3-2.9 1.9-4.5 2.3-2.6.8-5.3 1-8 .5-.5 0-1-.2-1.2.6 0 .3-.3.5-.7.4-.3-.1-.4-.4-.4-.7.2-.6-.2-.8-.7-1a26.7 26.7 0 0 1-9.5-6 43 43 0 0 1-8-11c-.3-.5-.6-.8-1.3-.4-.3.3-.6.4-.9 0-.3-.5 0-.8.4-1 .8-.2.8-.6.5-1.3a52.5 52.5 0 0 1-4-11.8c-.7-4.4-1.8-8.8-1.7-13.4v-.4c1.3 2.6 2.6 5.2 2.8 8.2.2 3.2 1.4 6 2.6 8.9a81 81 0 0 0 10.5 18.5c2.8 3.6 6.1 6.8 10.4 8.7 4.4 2 8.5 1.6 12.6-.7.4-.2.7-.4 1.1-.4Z" fill="#181639"/>
  <path d="M191 134.9c0-2.5-.6-3.3-2.4-3.8h-1.1c-1.7.3-3-.5-4.4-1.3-2.7-1.6-4.5-4-5.9-6.6a71.1 71.1 0 0 1-6.6-19.7 31 31 0 0 1-.5-7.8c0-2.1.7-4 2.4-5.4 2.1-1.6 5-1.4 7.4.5.4.4.9.6 1.1 1-1 .5-2.1.8-3.4.6-1.4-.3-2.6.5-3.5 1.6-1.5 1.7-1.6 3.7-1.4 5.7a60 60 0 0 0 2.8 14c1.5 4 3.7 7.8 6.3 11.2a16 16 0 0 0 4 3.9c1 .6 2 .6 2.9.3.8-.3 1.4-.1 2 .3a5 5 0 0 1 1.9 4.2c0 1-1 1-1.5 1.3Z" fill="#318F37"/>
  <path d="M109.4 62.4c-.3 1.8.5 3 2 3.8 1.7.8 3.3 1.8 5 2.5l3.3 1.8c2 1.3 4.3 1.3 6.6 1.7 1.1.2 2.3.4 3.5.4 2.3 0 4.7 0 7-.6 1.8-.4 3.3-1.8 3-3.3 2.3 1 2.5 3 .5 4.5-1.9 1.4-4 2.5-6.3 3-1.4.2-2.7 0-4.1-.2-5.6-.6-10.9-2.4-16.3-3.4a9.2 9.2 0 0 1-6.1-4.4c-1.3-2 .2-5.1 2-5.8Z" fill="#343355"/>
  <path d="M189.9 102.8c3 1.5 5.7 3.4 8 5.8a19 19 0 0 1 4.3 8.7l.6 3c.3 2.4 0 4.7-1.8 6.5-1.1 1.1-2 2.3-3.2 3.4-.8.8-.8.8-1.2-.3-.3-1.1-1.1-2-1.4-3.3a4 4 0 0 0 2-2.3c1-2.3.5-4.6-.4-6.8-1.8-4.9-4.3-9.4-6.8-13.9-.2-.2-.6-.5-.1-.8Z" fill="#5FDF66"/>
  <path d="M100 131.2c-2 1-4.1 1-6.2.3-2-.7-3.9-1.5-5.5-2.8-.4-.3-.6-.3-.8.2-.2.4-.4.9-1 .6-.5-.3-.2-.8 0-1.1.3-.6.2-1-.3-1.4-2.5-2.1-4-4.8-4.9-7.9l-.7-2c-.2-.6-.2-1.4-1.2-1-.2 0-.5-.2-.5-.4 0-.3 0-.5.2-.6.2-.2.6-.2.7-.5-.4-.2-.8 0-1.2 0-.3 0-.7 0-.8-.4 0-.5.3-.6.7-.7h.5c.6 0 .7-.3.6-.9a29.8 29.8 0 0 1 2.1-19c.3-.6.6-1.1-.3-1.4-.3 0-.4-.4-.3-.7 0-.3.3-.3.6-.3h.7c0 .2.1.3.2.1h-.1c-.2-.5-.6-.6-1-.8-.3-.2-.4-.4-.2-.8.2-.3.5-.3.8-.2.5.3 1 .6 1.4 1.1-.3 1.4-1.2 2.6-1.6 4-.4 1.4-.5 2.8-.7 4.3-.3 2.2 0 4.3 0 6.5.4 4.3.7 8.7 2.5 12.7A29.6 29.6 0 0 0 94.3 130c1 .6 2 .7 3.1.8.9.2 1.8 0 2.6.4Z" fill="#181639"/>
  <path d="m87.4 71 1.8.4c0 .6-.5.7-.9 1-1 .7-2 1.1-2.9 2 1-.2 1.9.5 2.8.1 2-1 4-1.7 5.8-3l2.5-.2c0 .4-.5.5-.8.7-1.3 1-2.7 1.7-4 2.6h1.8c1.6.6 2.7 0 3.6-1.3.5-.7 1.4-1.1 1.7-2 .7 0 1.4-.2 2 .1 0 .5-.4.6-.7.8a10 10 0 0 0-2.2 2.3c-.1.1-.4.4 0 .5.8 0 2 .4 2.5 0 1.1-1 2.2-2 3-3.3.7.2 1.4.1 2 .5-1 .7-1.9 1.6-2.8 2.6-.4.4-.3.6.2.7l3.3.9c.5.1.7-.1 1-.5a25 25 0 0 1 2-2.7c.4.2 1 .2 1.3.6-.4.7-1.2 1.2-1.6 2-.1.2-.4.4 0 .6.6.5 1.3.6 2.1.3s1.5-.7 1.4-1.7c1 .8 1.8 1.8 1.8 3.2 0 .8-.5 1.2-1.3 1.3a7 7 0 0 1-3.6-.8 35.3 35.3 0 0 0-20-3.1h-2c-3.2 0-6.5.3-9.7-.2A7.1 7.1 0 0 1 74 74c-.8-.6-.8-1 .1-1.5l2-.9c0 .7.7 1 1.1 1.4.6.6 1.1.6 1.8 0 1.2-1 2.4-2.2 3.9-2.8.7 0 1.3.2 2 .4-1.7 1-3.4 1.9-4.8 3.3 1.8.4 3.3 0 4.6-1 1-.6 2.1-.8 2.7-1.8Z" fill="#343355"/>
  <path d="M118.8 103.2c.5.9.6 1.7.3 2.7-.7 2.1-.7 4.3 0 6.5.2.5 0 .7-.4 1-2 1.5-3.7 3.3-5.2 5.4-.6.8-1.3.4-2 .2-.7-.1-.2-.7-.2-1.1.6-3.7.5-7.4-.4-11.1l-.1-1c.4.1.8.4 1-.2.2-.5-.2-.8-.6-1l-.8-.2-.4-1.7c-.3-.7 0-.8.6-.9h3l.2.8c.3 1 1 1.8 2 2 1.1.2 2-.2 2.6-1 0-.2.2-.4.4-.4Z" fill="#737099"/>
  <path d="M171.9 48.2c0-3.1.8-6 3.1-8.3 1.6-1.5 3-1.5 4.4.3 1.8 2.3 2.4 5 2 7.9 0 .4-.1.6-.5.7-2.7 1-5 2.8-7.1 4.6-.8.6-1 .6-1.3-.3-.6-1.6-.6-3.2-.6-4.9Zm1.8-1.6c.4.1 1-.1 1 .5.1.5-.5.4-.8.6-.2.1-.6.2-.6.6 0 .6 0 1.3.3 1.9.3.5.7.9 1.3.9.6 0 1-.3 1.2-.8.9-1.7.8-3.5.3-5.2-.3-1-1.3-1.1-2-.3-.5.5-.6 1.1-.7 1.8ZM167.3 52.5v1.1c-3.2-.7-6.3-.8-9.4-.5-.9.1-1.2-.3-1.2-1 0-3 .2-5.9 2-8.4 1.7-2.5 4.3-2.6 6.2-.1 1.2 1.5 2 3.3 2.2 5.3l-.2.3a5.2 5.2 0 0 0-2.4-3.4c-.4-.3-.9-.4-1.2 0-.6.6-.6 1.4-.6 2.2 0 .6.6.1.9.2.3 0 .7 0 .8.5 0 .4-.3.5-.7.5-.8 0-.9.5-.6 1.2l.8 1.3c.4.5.9.9 1.5.7.8-.2 1.6-.4 1.7-1.4h.2v1.5Z" fill="#fff"/>
  <path d="M141.7 41.4c.3 1 .3 1.8.4 2.8 0 .8-.3 1-1 1-1.7 0-3.3 0-5 .2-2.9.3-5.8.2-8.7.3-.9 0-1.7-.3-2.5-.3-1.5-.2-2.2-1-2.4-2.5-.3-1.4.5-3.2 1.7-4 .5 1 1.2 2 1.5 3.1 0 .4.4.5.8.4 1.2 0 2.4-.1 3.5-.3 2.9-.3 5.7-.8 8.5-.9 1.1 0 2.1.3 3.2.2Z" fill="#343355"/>
  <path d="M141.7 41.4c-1 .1-2.1-.2-3.2-.2-2.8.1-5.6.6-8.5 1l-3.5.2c-.4 0-.7 0-.8-.4-.3-1.1-1-2-1.5-3.1 2.4-1.2 5-1.3 7.4-1.7 2-.2 4-.1 6-.2 1.7 0 2.7.6 3.3 2l.8 2.4Z" fill="#4E4D61"/>
  <path d="m167.5 54.9.7 10.8v.4l.2 9c0 2.5-.3 5-1.2 7.3-1.1 2.9-4.1 4.6-6.7 3.8-.2 0-.4 0-.5-.3 2.5-.4 3.5-2.1 4.3-4.2 1-3.1 1.4-6.4 1.7-9.6l.6-9c.1-2.8-.2-5.7-.6-8.6l1.5.4Z" fill="#318F37"/>
  <path d="M129 101.5c.6-.6 1.3-.1 1.8 0 3.9 1 7.4 4.5 7.3 9-.1 2.7-.2 5.5-1.5 8a11.7 11.7 0 0 1-6 5.3c-.4.2-.8.3-1.2.2.5-1 1.2-2 1.5-3 0-.2.2-.3.4-.4 5.4-3.6 5.5-15.4-1.9-18.8l-.4-.3Z" fill="#8986B3"/>
  <path d="M190 123v.3c0 .1-.1.4.2.3.5.5.5.7-.3 1.1-1.1.5-1.7.3-2.5-.7a40.4 40.4 0 0 1-8-18.5c0-.7 0-1.3.7-1.7.8-.5 1.6-1.1 2.5-1.4.4 1.4.2 2.9.4 4.3.9 5.8 3 11 6.2 15.9.2.3.4.5.7.4Z" fill="#343355"/>
  <path d="M142.9 41.8a15 15 0 0 0-1.8-4.4c1.5 0 2.7.4 3.8 1.2 2 1.5 3.9 3.3 5.8 5 1.4 1.4 3 2.8 4.6 4 .5.4.8.8.6 1.5v1.5c-1.3 0-2.3-.7-3.3-1.4-2.8-1.7-5-4-7.4-6.1-.7-.6-1.3-1.4-2.3-1.3Z" fill="#5FDF66"/>
  <path d="M189.9 102.8c-.5.3 0 .6 0 .8 2.6 4.5 5 9 7 13.9.8 2.2 1.4 4.5.4 6.8a4 4 0 0 1-2 2.3c-1-1-1-1-.2-2 .7-.9.9-1.9.6-3-.5-2.4-1.6-4.6-2.5-6.9a689 689 0 0 0-4.5-10c-.4-1-1-1.8-1.5-2.8 1 0 1.9.4 2.7.9Z" fill="#318F37"/>
  <path d="M199.8 143.4c3.4 2.9 6 6.4 8.3 10.2 1 1.5 1.8 3 2.7 4.7.4.7.3 1.3-.4 1.9a14 14 0 0 1-2.7 1.8c-.4.2-.6.2-.7-.3-.2-1.1-.6-2.2-1-3.3.3-.1.1-.3 0-.5-1-4.3-2.8-8.3-5-12.2-.4-.7-1-1.3-1.2-2.3Z" fill="#4E4D61"/>
  <path d="M104.8 88.2a3.5 3.5 0 0 1 5-.1c1.9 1.8 3.6 4 4.9 6.3 0 .9 0 1.8-.5 2.5-1 .2-2 .4-3.2.4l-.7-1c-1.2-2.3-2.9-4.1-4.5-6-.5-.6-1-1.2-1-2Z" fill="#AAA7D5"/>
  <path d="M128.2 80.6c-1.3.6-2.5 1.5-4 1.8-1 .3-2.2.8-3.4.6a3 3 0 0 0 .6-2c0-1.6.1-3.1-.1-4.7-.1-.7 0-1 .9-.7 1.7.5 3.5.9 5.3 1 .6 0 .8.3.7.9v3.1Z" fill="#318F37"/>
  <path d="m113.4 121 6.5 4.8c.3.2.3.5.4.8 0 1.3.1 2.6.5 3.9v.6c-.3.2-.5 0-.7-.1-1.9-.9-3.6-2-5.2-3.1-.6-.4-.7-1.1-.9-1.7-.5-1.4-.7-2.9-1-4.3 0-.3.1-.5.4-.8Z" fill="#343355"/>
  <path d="M182.6 47.3c0-1.2 0-2.5-.4-3.6-.2-.5 0-.7.3-1a9.3 9.3 0 0 0 3.1-5.4c.3-1.3 1-2.3 2-3.1.7-.5 1-.3 1.4.2a6.1 6.1 0 0 1 1 3.8c-1.4.6-2.6 1.3-3.4 2.6l-1.8 3.5c-.6 1.1-1.1 2.3-2.2 3Z" fill="#5FDF66"/>
  <path d="M142.9 41.8c1 0 1.6.7 2.3 1.3 2.4 2 4.6 4.4 7.4 6.1 1 .7 2 1.4 3.2 1.4v2.2c-1-.4-2-.8-3-1.4-2.2-1.5-4.4-3.1-6.7-4.5-.9-.4-1.7-1-2.7-1.1-.2 0-.6 0-.4-.6.4-1.1 0-2.2-.1-3.4Z" fill="#318F37"/>
  <path d="M190.8 35.9c-.4-.8-.7-1.7-1.3-2.4-.2-.3-.3-.4 0-.6 2.8-1.4 5.4-3.5 8.8-3.5 1.6 0 2.1.5 2.3 2.2l-1 .1c-3.3.6-6.2 2.2-8.8 4.2Z" fill="#4E4D61"/>
  <path d="M131 119.4a4 4 0 0 1 .3-2.5c1-2.1.9-4.5.7-6.7-.2-1.3-.5-2.6-1-3.8a8.2 8.2 0 0 0-3-4c2.4.5 5 3 5.7 6 1.2 4.4 0 9.3-2.8 11ZM182.6 47.3c1-.7 1.6-1.9 2.2-3l1.8-3.5c.8-1.3 2-2 3.4-2.6.1.6 0 1.1-.2 1.6l-1.6 3.8a11.3 11.3 0 0 1-6 6c.3-.8.2-1.5.4-2.3Z" fill="#318F37"/>
  <path d="M92 84.9c.4-1.4-.6-2-1.5-2.6-2-1.3-4-2-6.3-2.3.9-1.1 3.4-2 4.6-1.7.7.2 1 .9 1.3 1.4a10 10 0 0 0 7.3 4c.5 0 .8 0 .4.5-.4.6-.6 1.2-1 1.6-.6.4-1.1-.4-1.7-.5-1-.1-2-.5-3-.4Z" fill="#181639"/>
  <path d="M93 116.8c-2.5-.6-4.3-1.9-5.2-4.4h.7c2 2.4 4.8 3.2 7.5 4 2.1.8 4.4 1.3 6.5 2 2.8 1 5.7 1.4 8.6 1.5 1.3.1 1 1 1 1.7-1.3 0-2.5-.4-3.7-.7-4.3-1-8.5-2.3-12.8-3.5-.3 0-.7-.4-1 0l-1.2-.3c0-.3-.3-.3-.5-.3Z" fill="#8986B3"/>
  <path d="m102.3 129.3-1.1.4c-1 .3-1.5.2-2.1-.8-1.8-2.9-2.9-6-3.6-9.3 0-.2-.2-.4 0-.6.2-.2.5 0 .7 0l1.4.6.5 1.2c1.1 3 2.8 5.7 4.2 8.5Z" fill="#343355"/>
  <path d="M190 123c-.4 0-.6-.1-.8-.4a38.6 38.6 0 0 1-6.2-16c-.2-1.3 0-2.8-.4-4.2 1.1-.6 1 .3 1.2.9a86.9 86.9 0 0 0 6.1 19.7Z" fill="#4E4D61"/>
  <path d="M212.6 127.4c.7 1.1.7 1.1-.4 1.3-4.4.5-8.8 1.2-13 2.7-.7.3-1.2.6-2 .8 1.7-1.7 3.2-3.4 5.4-4.4.3.4.7.2 1 .1 3-.4 6-1 9-.5ZM110.5 111.7c.5 2 .2 2.4-1.7 2.1-3.3-.4-6.3-1.5-9.6-2.6 1.6-.8 2.9-1.6 4.6-1 1 .2 2 0 3 0 1.2.6 2.4 1.2 3.7 1.5ZM183.6 144.9l-.1.1-.3.3-2 2.5-1.8-3.3c-.3-.4 0-.6.2-.8 1.3-1.3 3-2.2 4.5-3.2 1.1-.7 2.1-1.6 3.5-1.9-.2 1.3-1.3 2-1.9 3-.5.9-1.4 1.4-1.5 2.4-.2 0-.4.2-.4.4l-.2.5ZM190.8 36c2.6-2.1 5.5-3.7 8.8-4.3h1c.1 1.3-.8 2-1.8 2.7a18 18 0 0 1-6 2.6l-.3.1c-1 .3-1.6 0-1.7-1.2Z" fill="#343355"/>
  <path d="M104.8 88.2c0 .9.5 1.5 1 2 1.6 2 3.3 3.8 4.5 6l.7 1.1-2.5.4c-.4 0-.6-.1-.8-.5a24 24 0 0 0-4.5-6.1c-.4-.4-.5-.7 0-1l1.6-1.9Z" fill="#737099"/>
  <path d="M199.8 143.4c.1 1 .8 1.6 1.3 2.3 2 4 3.8 8 5 12.2 0 .2.2.4 0 .5l-2.8-6.1c-2.3-4.5-5-8.6-8.5-12.2-.3-.3-.4-.6 0-1 .5-.4.7-.1 1 .2 1 1.5 2.6 2.5 3.8 3.9l.2.2Z" fill="#343355"/>
  <path d="M125.8 102.1a4.4 4.4 0 0 0-3.2 2.8c-.8 1.6-1.5 3.3-1 5.2.2.8 0 1.4-.9 1.8-.5.3-.7.2-.9-.3a11 11 0 0 1 0-4.7c.3-1.4.8-2.7 1.5-4 .4-.8 1-1.2 2-1.1.8 0 1.6 0 2.5.3Z" fill="#318F37"/>
  <path d="M97.5 104.8a5.1 5.1 0 0 1 1 3.9 6 6 0 0 1-3.6 4.8c-.4.2-.8 0-1.2.1-1.3-.4-1.8-1-1.7-2 1.4.3 2.2-.5 2.8-1.6 1.3 1 2.3.9 2.8-.1.5-.9.5-2.2-.2-2.7-.8-.7-1.6-.4-2.3.2H95v-.8c.5-1 1-2.2 2.6-1.8Z" fill="#737099"/>
  <path d="M123.6 95.8c.2-2.3 1.5-4.2 3.5-4.7.8-.2 1.6 0 2.1.8-.6.9-.4 2-.4 3 0 .4 0 .8-.6.8l-4.6.1Z" fill="#318F37"/>
  <path d="M120.9 119.3c-1 1.3-1.6 2.8-2 4.6l-2.4-1.8c-.3-.3-.3-.6-.2-1a8.4 8.4 0 0 1 2.7-4.5c.5 0 1 .2 1.3.6.6.6.5 1.3.6 2Z" fill="#343355"/>
  <path d="m123.8 123.8 3.6-4c.3.9.2 1.8.2 2.6 0 .5-.2 1 .3 1.4-1 1.7-2.3 3-3.5 4.6l-.8.8c.2-1.8.3-3.6.2-5.4Z" fill="#4E4D61"/>
  <path d="M104 102.5c.7 0 1.6-.4 2 0 .3.6-.4 1.2-.7 1.8a11.7 11.7 0 0 1-5.6 5.5c-.4.2-.5 0-.5-.4l.3-2c.6 0 1-.4 1.4-.8 1.3-1.2 2.4-2.5 3.2-4Z" fill="#5FDF66"/>
  <path d="M109 73.2a25 25 0 0 0-2 2.7c-.2.4-.4.6-.9.5l-3.3-.9c-.5 0-.6-.3-.2-.7 1-1 1.8-1.9 2.9-2.6 1.2.1 2.5.3 3.6 1Z" fill="#4E4D61"/>
  <path d="M193.9 133.6c-.7-1.4-.8-2.9-1.4-4.3.3-1.5.5-1.6 2-1.7 1 2 2 3.9 1.7 6.2-.8.2-1.6.4-2.3-.2ZM94.6 117.5c.3-.5.7-.2 1 0 4.3 1.1 8.5 2.4 12.8 3.4 1.2.3 2.4.6 3.6.7.3 1.4.3 1.4-1 1.1-4-.9-8-2.2-12-3.7-1.5-.5-3-.8-4.4-1.5Z" fill="#AAA7D5"/>
  <path d="M121.8 119.8a8.1 8.1 0 0 1 3-2.8c.5.9 1.5 1 2.3 1.4a21 21 0 0 1-3.3 3.7c0-.4.2-1-.3-1.2-.7-.2-1.1-.7-1.7-1Z" fill="#4E4D61"/>
  <path d="m89 94.4 1 2c.2.3.2.5.1.7-.2.4-.4 1-.8 1.2-.4 0-.6-.6-.8-1a29 29 0 0 1-2.8-6.8c-.1-.4-.1-.8.3-1.1l1 2c.6 1 1 2 1.9 2.6 0 .2 0 .3.2.4Z" fill="#343355"/>
  <path d="M118.8 103.2c-.2 0-.3.2-.4.4-.6.8-1.5 1.2-2.5 1-1-.2-1.8-1-2-2-.2-.2-.2-.5-.3-.8 1.4-.3 2.8-.2 4.2-.2.9 0 .9 1 1 1.6Z" fill="#AAA7D5"/>
  <path d="M212.6 127.4c-3-.5-6 .1-9 .5-.3 0-.7.3-1 0 1.6-1 3.3-1.3 5-1.9.9-.3 1.8-.5 2.8-.6 1-.1 1.7.2 2 1.2l.2.8Z" fill="#4E4D61"/>
  <path d="m131 95.5 2.7.3c1 .2 2 .3 3 .2.6 0 1 .3 1 .8 0 .8 0 1.6-.2 2.4-.1.3.1.7-.3.8-.4 0-.7-.2-1-.5-.6-.8-1.3-1.6-2.1-2.2-1-.8-2-1.3-3.2-1.6v-.2ZM141.8 97.5l-2.9 2.3c-.3.3-.5.1-.5-.2v-3.4c.3-1 1.4-1.3 2.2-1.8.7 1 .8 2 1.2 3Z" fill="#343355"/>
  <path d="M120.8 119.3c0-.8.1-1.5-.5-2.1-.4-.4-.8-.6-1.3-.6 1.3-1.4 2.9-2.3 4.6-3-.1.9-.5 1.8.5 2.4-1.2 1-2.3 2-3.3 3.3ZM94 71.4c-1.7 1.4-3.8 2.2-5.8 3.1-.9.4-1.8-.3-2.8-.1.9-.9 2-1.3 3-2 .3-.3.8-.4.9-1 1.6.1 3.2.4 4.8 0Z" fill="#4E4D61"/>
  <path d="M123.8 123.8c.1 1.8 0 3.6-.2 5.4l-1.5 2c-1.4-2.7-.8-5.3 1.7-7.4ZM121.8 119.8c.6.4 1 1 1.7 1.1.5.3.3.8.3 1.2l-2.3 2.8c-.2.2-.4.4-.8.2-.5-.3-.7-.7-.6-1.2.2-1.5.7-3 1.7-4Z" fill="#343355"/>
  <path d="M82.9 70.2c-1.5.6-2.7 1.8-4 2.9-.6.5-1 .5-1.7 0-.4-.5-1-.8-1.2-1.5l4-1.6c1-.4 2-.2 2.9.2Z" fill="#4E4D61"/>
  <path d="M194.6 137.4c-.3 1.3-2.4 2.3-4 2-1-.3-1.5-1-2.1-1.7-.5-.4 0-.5.3-.7a9 9 0 0 1 3.9-1c-.1.5-.4.8-.7 1.1-.2.3-.3.6-.1.9.1.3.4.1.7 0 .7 0 1.4-.3 2-.6Z" fill="#181639"/>
  <path d="M98.8 71.2c-.3 1-1.2 1.4-1.7 2.1-1 1.3-2 2-3.6 1.4-.5-.2-1.2 0-1.9-.1 1.4-.9 2.8-1.6 4.1-2.6.3-.2.7-.3.8-.7h2.3ZM87.4 71c-.6 1-1.8 1.3-2.7 2a5.5 5.5 0 0 1-4.6 1c1.4-1.5 3.1-2.4 4.8-3.4l2.5.5Z" fill="#4E4D61"/>
  <path d="M194.6 137.4c-.6.3-1.3.6-2 .7-.3 0-.6.2-.8-.1-.1-.3 0-.6.2-.9.3-.3.6-.6.7-1 .6-.8.9-1.6 1.2-2.5.7.6 1.5.4 2.3.2 0 1.5-.6 2.6-1.6 3.6Z" fill="#737099"/>
  <path d="M103.4 71.7c-.8 1.3-1.9 2.4-3 3.3-.5.4-1.6 0-2.5 0-.4 0-.1-.4 0-.5a10 10 0 0 1 2.2-2.3c.3-.2.7-.3.7-.8 1 0 1.8.2 2.6.3Z" fill="#4E4D61"/>
  <path d="M127.9 123.8c-.4-.4-.2-.9-.2-1.4-.1-.8 0-1.7-.3-2.6.8-1 1.5-1.9 2.5-2.7.5 2.7 0 5-2 6.7Z" fill="#343355"/>
  <path d="M174.4 105.2c1.7-1.5 3.7-2.5 5.8-3.2.3-.2.7-.3 1-.3-.7.8-1.7 1.3-2.6 2a12 12 0 0 0-3.5 4.7l-.7-3.2Z" fill="#181639"/>
  <path d="M141.8 97.5c-.4-1-.5-2.2-1.2-3 1.2-1.4 2.6-.9 4-.7.1.4.2.8.5 1-1 1-2.1 1.9-3.3 2.7Z" fill="#4E4D61"/>
  <path d="M124 116c-1-.6-.5-1.5-.4-2.4 2.8-1.2 3.2-1 5.2 1-1.8-.2-3.3.7-4.7 1.4Z" fill="#343355"/>
  <path d="m95 107.5.1-.1c.7-.6 1.5-.9 2.3-.2.7.5.7 1.8.2 2.7-.5 1-1.5 1-2.8.1.2-.8.1-1.7.1-2.5Z" fill="#AAA7D5"/>
  <path d="M125.6 110.3c0-1.3.3-1.6 1.6-2a44 44 0 0 0 2.5-1c.4-.2.6-.1.7.2 0 .4.5.8-.2 1l-1.2.5c-.8.5-1.6 1-1.5 2.2 0 .6-.3.7-.7.4-.4-.4-1.2-.4-1.2-1.3Z" fill="#343355"/>
  <path d="M102.3 129.3c-1.4-2.9-3-5.6-4.2-8.5l-.5-1.2c.4 0 .6.3.8.6 1.4 2.8 3.2 5.4 4.8 8 .7 1.1-.6.7-1 1Z" fill="#4E4D61"/>
  <path d="M177.7 94.3a23 23 0 0 0-3 4.9l-.7 2.2c-1-3.3-.1-6 3.7-7.1Z" fill="#181639"/>
  <path d="M194.5 127.6c-1.5 0-1.7.2-2 1.7a7.6 7.6 0 0 0-2.3-1.4c-.5-.8 0-1.1.6-1.4.9-.5 1.8-.3 2.6-.1.6.2.9.7 1 1.2Z" fill="#737099"/>
  <path d="M112.3 75c0 1-.6 1.4-1.4 1.7-.8.3-1.5.2-2.1-.3-.4-.2-.1-.4 0-.6.4-.8 1.2-1.2 1.7-2a3 3 0 0 1 1.8 1.2ZM88.9 94c-1-.6-1.3-1.6-1.8-2.5l-1-2.1c.3-.7 1-1.3 1.8-1.7a33 33 0 0 0 1 6.3Z" fill="#4E4D61"/>
  <path d="M104 102.5c-.7 1.6-1.8 3-3 4.1-.5.4-1 .8-1.5.9-.4-1 0-1.5.8-2 .9-.6 1.6-1.4 2-2.4.4-.8 1.2-.5 1.8-.6Z" fill="#318F37"/>
  <path d="M127 118.4c-.7-.4-1.7-.5-2.2-1.4 1.1-1 2.4-1.4 3.9-1.4.5 0 .6.2.3.7-.7.7-1.1 1.6-2 2.1Z" fill="#343355"/>
  <path d="M193.4 126.4c-.8-.2-1.7-.4-2.6 0-.5.4-1 .7-.6 1.5l-1.8.5c-.3 0-.6.1-.8-.2-.2-.3.1-.5.2-.7 1-1.4 2.4-2.1 4-2 .7 0 1.4 0 1.7.9ZM92 111.6c-.1 1 .4 1.6 1.7 2-.1.6-.6.4-.9.4-1.6-.1-2.6-1.1-3.5-2.3-.2-.2-.4-.5-.1-.7.1-.2.4-.2.6-.1.8.2 1.6 0 2.2.7Z" fill="#181639"/>
  <path d="M104.8 94.6c.8.8 1.3 1.8 1.8 2.6.4.7-.3.8-.6 1l-1.7.2c-.4 0-.4 0-.4-.4l1-3.4Z" fill="#318F37"/>
  <path d="M117.8 116.2c-1 1.3-2 2.6-2.4 4.3 0 .4-.2.7-.6.4-.4-.4-1.1-.6-.6-1.3.8-1.2 1.7-2.4 2.8-3.4h.8Z" fill="#343355"/>
  <path d="M83.2 112.9c-.4-.6.2-1 .4-1.5a6.5 6.5 0 0 1 2.1-3.1c.4.7.3 1.4.3 2.1l-.5.3c-1 .5-1.5 1.5-2.3 2.2Z" fill="#4E4D61"/>
  <path d="M101.5 102.7c-.5 1.2-1.4 1.8-2.3 2.3-.6.3-.6-.5-.8-.8-.6-.8-.5-1 .5-1.2.8-.2 1.7 0 2.6-.4ZM102 98.8c-.6.1-1.3.5-2.2.3.8-1.3 1.5-2.7 2.6-3.7.3.2.2.5.1.7-.2 1-.5 1.8-.5 2.7ZM124.8 103.7c.3 0 .3.2.4.4l1.3 2.8c0 .1.2.3 0 .4-.2.2-.4 0-.5 0a8.8 8.8 0 0 1-2-2c-.3-.3-.2-.6 0-.9.2-.3.4-.6.8-.7ZM120.4 113.2c1-1 2.4-1.5 3.8-2 .4 0 .7.3 1 .7-1.8.5-3.3 1.3-4.8 2.1v-.8Z" fill="#343355"/>
  <path d="M184.2 144c.1-1 1-1.5 1.5-2.3.6-1 1.7-1.8 2-3 1.1.7 1.2 1 .2 1.7-1.4 1-2.3 2.6-3.7 3.6Z" fill="#4E4D61"/>
  <path d="M97.5 104.8c-1.6-.4-2.1.8-2.7 1.8-.4-.4-1-1-.6-1.5.4-.8 1.2-1.3 2.1-1.3.6 0 1.1.2 1.2 1Z" fill="#181639"/>
  <path d="M102 98.8c0-1 .3-1.8.5-2.7 0-.2.2-.5 0-.7.2-.5.6-1 1.2-1.4 0 1.5-.2 2.8-.7 4-.2.5-.4.8-1 .8Z" fill="#4E4D61"/>
  <path d="M83.2 112.9c.8-.7 1.3-1.7 2.3-2.2l.5-.3c0 .9-.8 1.4-1 2l-1.3 2.5c-.4-.6-.4-1.3-.5-2ZM136.5 94c-.3 1.2-1 1.5-2.1 1.1h-.7c-.3-.1-.8.1-1-.3-.1-.4.2-.7.5-1 1 .5 2.2.4 3.3.3Z" fill="#343355"/>
  <path d="M136.5 94c-1.1.2-2.2.3-3.3-.2.3-.8.9-1.1 1.7-.9l1.2.2c.3 0 .7 0 .8.2.1.3-.2.6-.4.8Z" fill="#4E4D61"/>
  <path d="m140.3 93.5-2.4 1.7c-.2.1-.7.2-.9 0-.2-.3.2-.6.3-.8.6-1.3 1.7-1.1 3-.9Z" fill="#343355"/>
  <path d="M110.5 111.7c-1.3-.3-2.5-.9-3.6-1.4 1-.1 1.9 0 2.8-.2.5-.2.8 0 .8.6v1ZM120.4 113.2v.8l-2.6 2.2h-.8c1-1.1 2-2.3 3.4-3Z" fill="#4E4D61"/>
  <path d="M88.5 112.4h-.7c-.6-1-.7-2.3-1-3.7.7.7 1.4 1.3 1.2 2.3 0 .5.3 1 .5 1.4Z" fill="#AAA7D5"/>
  <path d="M210.8 121.9c.5 0 1-.3 1.6-.2.3.1.8.2.7.6 0 .5-.3.7-.8.7h-.7l-.8-1.1Z" fill="#181639"/>
  <path d="M114.2 97c.6-.8.5-1.7.5-2.6l.5.6c.7 1.2.4 1.8-1 2Z" fill="#737099"/>
  <path d="m210 120.4 1-.9h.6c.3.3.2.5 0 .8l-.8 1.1c-.5-.2-.7-.5-.8-1ZM190.6 101.9l.5-1c.2-.4.5-.6.8-.4.3.2.3.5.2.8-.1.4-.4.8-.6 1.1-.3 0-.6-.2-.9-.5ZM214.8 155.8l1 .7c.2.2.3.5.2.8-.3.4-.6.3-1 .2-.3-.2-.5-.6-1-.5.3-.4.4-.9.8-1.2Z" fill="#181639"/>
  <path d="M96.6 115.1c0 .4 0 .6-.3.5-.6-.3-1.5 0-1.5-.8 0-.4.8-.8 1.3-.8.6 0 .3.8.5 1.1Z" fill="#343355"/>
  <path d="M107.4 126.8c.3.5.4 1-.4 1-.6 0-.3.5-.4.8 0 .4-.2.7-.5.7-.5.1-.6-.2-.6-.6l2-1.9Z" fill="#181639"/>
  <path d="M182.3 49.7c-1.3.8-2.7 1.2-4.1 1.7 1.2-.9 2.4-1.7 4-1.9v.2Z" fill="#318F37"/>
  <path d="m214 157.6.4.5c.2.4.3.7 0 1-.4.2-.7.1-.9-.2-.1-.1-.2-.3-.5-.3.3-.3.5-.8 1-1ZM110.4 104.4c.3.1.6.1.8.3.4.1.8.4.6 1-.2.5-.6.2-1 .1l-.4-1.4Z" fill="#181639"/>
  <path d="m145 94.9-.4-1h1.7c-.4.4-.7.8-1.2 1Z" fill="#343355"/>
  <path d="M132 93.9c0 .5-.3 1-1 .6.2-.4.6-.6 1-.7Z" fill="#181639"/>
  <path d="m166.9 49.2.2-.3c.3.7.2 1.4.2 2.2h-.2l-.2-1.9Z" fill="#fff"/>
  <path d="M175.4 94c.4-.4.9-.6 1.6-.8-.5.5-1 .7-1.5 1l-.1-.2Z" fill="#737099"/>
  <path d="M209.6 162.2c-.1.3-.3.4-.6.4 0-.4.3-.4.6-.4Z" fill="#181639"/>
  <path d="M183.8 144.4c0-.2.2-.4.4-.4 0 .3-.1.4-.4.4Z" fill="#4E4D61"/>
  <path d="M93 116.8c.1 0 .3 0 .4.3-.2 0-.4 0-.5-.3Z" fill="#AAA7D5"/>
  <path d="M89 94.4 89 94l.2.4ZM190.2 123.6c-.3.1-.1-.2-.2-.3l.2.3ZM183.6 144.9c0-.2 0-.4.2-.5 0 .2 0 .4-.2.5Z" fill="#4E4D61"/>
  <path d="M132 93.8h.1Z" fill="#181639"/>
  <path d="m175.2 94.2.2-.2.1.1-.2.2h-.1Z" fill="#737099"/>
  <path d="m177.9 94-.3.3c0-.2.2-.2.3-.2Z" fill="#181639"/>
  <path d="M175.3 94.3h-.2.1Z" fill="#737099"/>
  <path d="M167.3 52.5v-.2c.1 0 .1.1 0 .2Z" fill="#8986B3"/>
  <path d="M213.4 108.9c0 1-.4 1.7-1.4 2.1-1 .4-1.7.2-2.4-.5-1-.9-1.5-2-2.5-2.9l-4.2-4a2.3 2.3 0 0 1 2.9-3.6 32 32 0 0 1 7.2 7.3c.4.5.4 1 .4 1.6ZM215 116.8c-1.4.3-2.8-1.4-3-3.2 0-1.2 1-2.2 2.3-2.2 1.6 0 3 1.4 3 3 0 1.4-1 2.4-2.3 2.4Z" fill="#AAA7D5"/>
  <path d="m82.5 91.2.1.1c-.1.2-.1 0-.2 0Z" fill="#737099"/>
  <path d="M173.7 46.6c0-.7.2-1.3.7-1.8.7-.8 1.7-.7 2 .3.5 1.7.6 3.5-.3 5.2-.2.5-.6.8-1.2.8s-1-.4-1.3-.9c-.3-.6-.3-1.3-.3-2 0-.3.4-.4.6-.5.3-.2 1 0 .9-.6-.1-.6-.7-.4-1.1-.5ZM166.9 49.2c0 .6 0 1.2.2 1.8-.1 1-1 1.2-1.7 1.4-.6.2-1.1-.2-1.5-.7l-.8-1.3c-.3-.7-.2-1.1.6-1.2.4 0 .7 0 .7-.5-.1-.4-.5-.5-.8-.5-.3 0-.8.4-.9-.2 0-.8 0-1.6.6-2.2.3-.4.8-.3 1.2 0 1.3.8 2 2 2.4 3.4Z" fill="#000"/>
</svg>
