<svg width="300" height="201" viewBox="0 0 300 201" fill="none" xmlns="http://www.w3.org/2000/svg">
<path d="M116.47 142.987C115.461 143.249 114.73 142.99 113.92 142.572C111.111 141.12 108.362 139.532 105.368 138.464C105.021 138.339 104.8 138.307 104.509 138.631C103.973 139.234 103.169 139.431 102.455 139.74C97.9999 141.661 93.3402 142.518 88.4915 142.371C87.3169 142.336 86.1355 142.444 84.9794 142.111C84.3145 141.92 83.7711 141.588 83.2513 141.129C79.7274 138.013 78.0903 133.941 77.2279 129.455C76.7183 126.809 76.6508 124.151 76.941 121.479C76.99 121.034 77.049 120.725 76.4246 121.032C75.8879 121.295 75.3597 121.196 74.8331 120.861C73.4492 119.982 72.1497 119.013 71.1084 117.729C70.5616 117.054 70.2561 116.32 70.2291 115.424C70.0722 110.003 69.9456 104.58 69.9152 99.156C69.9102 98.2295 69.9102 97.308 70.1633 96.3966C70.4047 95.5224 70.916 94.9351 71.7177 94.5233C74.1867 93.2525 76.6457 91.9648 79.0962 90.6585C80.556 89.8805 81.9771 89.0316 83.2445 87.9531C84.8984 86.5456 85.6899 84.6875 85.938 82.5947C86.4376 78.3772 87.2865 74.2271 88.2333 70.0957C88.9353 67.0325 89.6459 63.9727 90.5285 60.9518C91.0348 59.2185 91.9546 57.9055 93.4954 56.9469C96.0016 55.3858 98.6547 54.0997 101.239 52.6871C105.957 50.1067 111.181 48.8898 116.201 47.1245C117.919 46.5203 119.659 46.0005 121.401 45.4807C121.869 45.3406 121.956 45.187 121.761 44.7314C120.102 40.8784 118.142 37.184 115.835 33.6854C115.044 32.4838 113.81 31.6771 112.585 30.9294C112.224 30.7083 111.846 30.5261 112.043 30.0468C112.24 29.5675 112.656 29.6012 113.116 29.6907C114.436 29.9506 115.266 30.8687 116.055 31.8239C118.752 35.0947 120.951 38.6709 122.577 42.5914C122.728 42.9542 122.883 43.3154 123.026 43.6816C123.491 44.8579 123.533 44.9035 124.766 44.5575C126.869 43.9702 128.967 43.3694 131.121 42.9897C132.744 42.7045 134.368 42.4057 135.976 42.0463C137.427 41.7222 138.698 42.3298 139.976 42.772C146.104 44.8917 152.368 46.5524 158.586 48.3683C166.995 50.8256 175.422 53.2272 183.975 55.1495C187.204 55.8752 190.506 56.265 193.678 57.2591C194.314 57.4582 194.959 57.649 195.571 57.9089C196.444 58.2802 196.666 59.1645 196.948 59.9358C197.87 62.469 197.698 65.0377 197.252 67.6536C196.837 70.0872 196.724 72.5715 196.368 75.0187C195.691 79.6615 194.925 84.2908 194.214 88.9269C193.86 91.2357 193.588 93.5579 193.644 95.8954C193.698 98.1653 193.576 97.8261 195.612 98.3392C198.052 98.9535 200.481 99.6573 202.983 100.034C209.732 101.048 216.471 102.133 223.23 103.083C224.181 103.217 225.229 102.945 226.235 102.96C228.962 103.002 230.425 104.317 230.779 107.029C231.102 109.486 230.759 111.908 230.417 114.33C229.699 119.393 228.928 124.444 227.883 129.453C227.467 131.455 227.2 133.492 226.727 135.48C226.182 137.767 224.798 139.407 222.537 140.228C222.353 140.293 222.172 140.368 221.99 140.44C220.957 140.854 220.302 141.468 219.875 142.628C217.411 149.292 212.321 153.034 205.682 154.914C202.759 155.741 199.767 155.743 196.749 155.675C195.007 155.636 193.359 155.403 191.752 154.776C191.387 154.632 190.969 154.519 190.701 154.263C189.874 153.471 189.067 153.694 188.095 154.004C181.85 155.999 175.992 158.956 169.876 161.265C167.569 162.136 165.233 162.925 162.921 163.776C160.26 164.755 157.693 164.453 155.153 163.401C154.527 163.141 154.064 163.071 153.589 163.725C153.111 164.382 152.389 164.814 151.7 165.256C145.476 169.256 138.632 171.158 131.267 171.224C128.179 171.251 125.541 170.115 123.325 167.924C119.887 164.529 117.432 160.581 116.284 155.864C115.683 153.393 115.337 150.874 115.535 148.342C115.672 146.592 115.936 144.833 116.475 142.984L116.47 142.987ZM120.063 39.0287L119.999 38.9882C120.022 39 120.044 39.0118 120.068 39.0236C120.073 39.162 120.097 39.2903 120.237 39.3611C120.24 39.4995 120.26 39.6295 120.404 39.6987C120.405 39.8388 120.426 39.9687 120.571 40.0362C120.571 40.1763 120.593 40.3062 120.738 40.3738C120.738 40.5138 120.76 40.6438 120.905 40.713C120.927 40.7906 120.947 40.8666 120.969 40.9442C120.991 40.929 121.015 40.9155 121.037 40.9003C120.994 40.8362 120.952 40.7737 120.91 40.7096C120.905 40.5712 120.878 40.4446 120.74 40.3738C120.735 40.2354 120.708 40.1088 120.569 40.0379C120.566 39.8995 120.537 39.7729 120.399 39.7021C120.395 39.5637 120.365 39.4371 120.228 39.3662C120.221 39.2295 120.193 39.1029 120.059 39.0287H120.063ZM121.583 42.2319C121.543 42.1695 121.666 41.9956 121.457 42.0446C121.499 42.107 121.541 42.1678 121.585 42.2302C121.59 42.3686 121.612 42.4969 121.754 42.5678C121.757 42.7061 121.781 42.8361 121.924 42.9053C121.967 42.9644 121.847 43.1314 122.046 43.0859C122.004 43.0268 121.963 42.9677 121.921 42.9087C121.918 42.7703 121.894 42.6403 121.754 42.5694C121.751 42.431 121.727 42.3011 121.585 42.2319H121.583ZM203.436 154.288C203.662 154.278 203.89 154.268 204.116 154.257C204.514 154.317 204.904 154.257 205.275 154.129C209.574 152.652 213.508 150.617 216.311 146.869C216.586 146.413 216.859 145.957 217.135 145.503C217.686 144.501 218.275 143.512 218.652 142.192C215.001 143.956 211.462 145.36 207.928 146.769C207.636 146.886 207.495 147.027 207.432 147.35C207.321 147.924 207.13 148.482 206.973 149.048C205.999 150.931 205.049 152.831 203.412 154.261C203.338 154.286 203.264 154.313 203.189 154.338C203.206 154.359 203.233 154.399 203.24 154.398C203.307 154.365 203.372 154.327 203.437 154.29L203.436 154.288ZM88.3413 115.97C87.6341 114.502 86.7987 113.14 85.4672 112.124C84.6993 111.539 83.95 111.299 82.9795 111.559C82.1036 111.793 81.594 112.418 81.1231 113.052C79.0675 115.824 78.0752 118.997 77.7444 122.399C77.6802 123.433 77.5148 124.475 77.5739 125.503C77.6937 127.57 77.9705 129.622 78.5578 131.624C79.5687 135.075 81.1163 138.167 84.0208 140.469C85.1212 141.342 86.2503 141.519 87.5312 141.195C90.1505 140.531 91.369 138.618 91.8888 136.159C92.7022 132.309 92.3731 128.471 91.6086 124.655C91.0348 121.788 90.0948 119.045 88.6704 116.48C88.6822 116.23 88.5742 116.06 88.3413 115.969V115.97ZM194.997 154.428C196.818 154.446 198.631 154.911 200.464 154.295C202.58 153.582 204.094 152.3 204.926 150.224C205.419 149.427 205.834 148.605 205.977 147.529C200.978 149.469 196.101 151.324 190.942 153.103C192.415 153.827 193.588 154.487 194.997 154.43V154.428ZM143.165 146.173C143.194 146.339 143.213 146.506 143.255 146.668C144.352 150.95 144.693 155.268 143.846 159.634C143.211 162.909 141.886 165.816 139.287 168.041C138.482 168.729 137.591 169.285 136.464 169.924C137.586 170.02 138.399 169.702 139.237 169.622C141.1 169.205 142.924 168.659 144.696 167.95C147.447 166.851 150.022 165.442 152.259 163.472C153.045 162.779 153.003 162.694 152.06 162.318C149.931 161.469 147.72 160.814 145.721 159.656C145.555 159.558 145.402 159.422 145.224 159.368C144.5 159.143 144.141 158.809 144.652 158.033C144.829 157.764 144.932 157.402 144.944 157.078C145.049 154.122 145.246 151.164 144.841 148.216C144.706 146.097 144.111 144.087 143.37 142.12C141.906 138.238 139.689 134.947 135.996 132.824C133.801 131.561 131.561 130.955 129.197 132.289C129.666 132.645 130.29 132.446 130.85 132.586C134.676 133.548 137.556 135.835 139.829 138.97C141.41 141.153 142.381 143.62 143.165 146.17V146.173ZM94.9063 130.829C95.0785 128.041 94.8135 125.283 94.2363 122.563C93.3554 118.416 91.8905 114.546 88.7244 111.525C87.5025 110.359 87.03 110.192 85.2326 110.509C85.7524 110.815 86.3296 110.901 86.6907 111.377C88.4797 113.739 89.9345 116.276 90.9302 119.083C91.5293 120.772 91.9107 122.514 92.3731 124.237C92.5706 125.643 92.8221 127.043 92.9554 128.456C93.1664 130.712 93.1394 132.974 92.9689 135.235C92.8524 136.781 92.3478 138.213 91.7538 139.623C91.6829 140.03 91.2778 140.169 91.0753 140.469C90.5994 140.645 90.3479 141.06 89.9311 141.439H90.7142C95.2709 141.369 99.5154 140.261 103.566 137.743C102.187 137.102 101.053 136.567 99.9103 136.047C98.7154 135.504 97.5999 134.783 96.3274 134.409C95.9881 134.176 95.6506 133.941 95.308 133.711C94.4507 133.134 94.3292 132.726 94.7916 131.804C94.9536 131.482 94.9148 131.16 94.9063 130.831V130.829ZM137.105 137.402C136.842 136.874 136.33 136.606 135.89 136.27C133.851 134.711 131.62 133.641 128.997 133.504C125.237 133.31 122.517 135.308 120.272 137.921C117.388 141.277 116.318 145.316 116.709 149.731C116.581 152.868 117.175 155.913 118.414 158.747C119.909 162.163 121.614 165.519 124.836 167.739C125.939 168.5 126.979 169.406 128.354 169.646C130.11 169.951 131.89 169.987 133.627 169.605C136.688 168.935 139.269 167.518 140.97 164.719C142.701 161.872 143.392 158.752 143.498 155.498C143.621 151.711 143.024 148.013 141.69 144.447C140.685 141.757 139.264 139.34 137.105 137.401V137.402ZM71.0004 108.027C70.9211 110.106 70.9903 112.173 71.1574 114.251C71.3633 116.828 73.1353 118.23 74.8888 119.688C75.2027 119.95 75.3901 119.872 75.3884 119.439C75.385 118.649 75.4373 117.859 75.6263 117.096C76.4533 113.736 78.4178 111.134 81.1028 109.031C81.5518 108.68 82.0986 108.526 82.6471 108.389C84.8782 107.831 86.7903 108.499 88.5455 109.866C90.2652 111.206 91.5107 112.919 92.5537 114.804C94.4726 118.276 95.389 122.05 95.9291 125.94C96.1957 127.865 96.4286 129.804 96.1721 131.73C96.0708 132.486 96.2565 132.753 96.837 133.087C102.465 136.341 108.58 138.586 114.359 141.527C114.809 141.757 114.959 141.654 115.059 141.139C115.3 139.875 115.45 138.521 116.159 137.45C118.426 134.02 121.487 131.45 125.426 130.231C130.675 128.61 135.287 130.302 139.208 133.786C142.934 137.097 144.644 141.666 145.827 146.347C146.728 149.918 146.84 153.625 146.564 157.317C146.467 158.627 146.509 158.726 147.756 159.261C149.921 160.19 152.085 161.125 154.328 161.857C154.686 162.012 155.035 162.195 155.404 162.32C157.104 162.893 158.79 163.584 160.648 163.084C163.573 162.298 166.498 161.491 169.323 160.404C176.6 157.602 183.788 154.575 191.209 152.146C196.599 150.382 201.864 148.258 207.16 146.227C212.652 144.121 217.994 141.716 223.043 138.682C224.071 138.064 224.844 137.269 225.327 136.179C225.836 135.03 225.821 133.769 226.094 132.572C227.532 126.274 228.764 119.938 229.499 113.515C229.763 111.198 229.983 108.87 229.434 106.557C229.109 105.184 228.471 104.624 227.048 104.484C226.125 104.393 225.202 104.315 224.279 104.228C221.143 103.931 218.061 103.281 214.954 102.801C210.958 102.187 206.948 101.64 202.933 101.156C199.922 100.793 197.034 99.7636 193.99 99.5982C193.315 99.5611 192.732 99.1037 192.648 98.3932C192.542 97.5071 192.488 96.6093 192.56 95.703C192.935 90.9893 193.91 86.365 194.591 81.6985C195.178 77.67 195.949 73.6635 196.02 69.5725C196.412 66.965 196.614 64.3828 195.946 61.7585C195.342 59.3839 193.811 58.3088 191.543 57.8903C190.284 57.6574 189.021 57.4329 187.776 57.087C185.727 56.5182 183.631 56.1216 181.565 55.6085C178.716 54.8997 175.879 54.1487 173.037 53.4145C168.189 52.0458 163.331 50.7024 158.493 49.3016C152.321 47.5161 146.034 46.1473 139.934 44.1069C138.435 43.6057 136.901 43.1095 135.26 43.4318C134.546 43.5719 133.822 43.6664 133.102 43.7677C130.241 44.166 127.44 44.8309 124.657 45.5972C123.987 45.7811 123.84 46.0326 124.081 46.7043C124.876 48.9287 125.312 51.2543 125.895 53.5377C126.036 54.0846 125.853 54.5487 125.317 54.6719C124.728 54.8086 124.689 54.2871 124.609 53.8618C124.157 51.4534 123.401 49.1346 122.586 46.8292C122.434 46.4005 122.25 46.2925 121.799 46.4258C120.081 46.9355 118.336 47.3642 116.622 47.8772C113.402 48.8409 110.19 49.8316 107.073 51.1328C102.896 52.8762 98.8741 54.9048 94.93 57.1156C93.2305 58.0692 92.2736 59.4885 91.6711 61.264C90.8593 63.6588 90.1944 66.0942 89.5716 68.5413C88.5033 72.7302 87.3371 76.8988 86.9186 81.2243C86.7498 81.5112 86.8443 81.8234 86.8274 82.1255C86.7852 82.9019 86.9101 83.6883 86.6857 84.4562C85.9904 86.8325 84.6166 88.6772 82.4344 89.8872C79.5063 91.6154 76.5073 93.2154 73.4661 94.7326C71.9185 95.5039 71.1658 96.7156 71.1422 98.4168C71.0966 101.622 71.0527 104.827 71.0072 108.032L71.0004 108.027ZM115.889 142.05C116.755 141.753 117.199 141.21 117.513 140.43C118.446 138.113 120.017 136.272 121.956 134.712C124.042 133.036 126.39 131.884 129.063 131.074C128.427 130.777 127.911 130.8 127.384 130.888C124.166 131.431 121.555 133.131 119.157 135.227C117.108 137.018 116.097 139.315 115.889 142.05ZM76.4972 119.737C77.0744 119.358 77.3933 118.932 77.5317 118.318C77.9131 116.608 78.6186 115.019 79.4506 113.486C80.3383 111.854 81.4201 110.421 83.2867 109.795C83.6242 109.682 83.9314 109.481 84.2909 109.302C81.064 108.656 75.8845 116.067 76.4972 119.737ZM122.164 43.6479C122.179 43.5956 122.188 43.5652 122.196 43.5331C122.176 43.5399 122.14 43.5449 122.14 43.5517C122.14 43.5753 122.151 43.5989 122.164 43.6479ZM76.9984 120.804C76.9799 120.77 76.9613 120.735 76.9427 120.699C76.9258 120.718 76.8921 120.74 76.8938 120.753C76.9022 120.791 76.9258 120.826 76.9427 120.861C76.9596 120.843 76.9765 120.826 76.9967 120.804H76.9984Z" fill="black"/>
<path d="M86.9174 81.2209C87.336 76.8954 88.5022 72.7268 89.5705 68.5379C90.1949 66.0908 90.8582 63.6554 91.6699 61.2606C92.2724 59.4851 93.2293 58.0658 94.9288 57.1122C98.8729 54.9014 102.895 52.8728 107.072 51.1294C110.189 49.8282 113.4 48.8358 116.621 47.8738C118.335 47.3608 120.08 46.9321 121.798 46.4224C122.249 46.2891 122.435 46.3971 122.585 46.8258C123.4 49.1295 124.156 51.45 124.608 53.8584C124.688 54.2837 124.726 54.8052 125.315 54.6685C125.852 54.5453 126.033 54.0811 125.894 53.5343C125.31 51.2509 124.875 48.9252 124.08 46.7009C123.84 46.0292 123.986 45.7777 124.656 45.5937C127.439 44.8275 130.24 44.1626 133.101 43.7643C133.821 43.6647 134.545 43.5702 135.259 43.4284C136.9 43.1044 138.432 43.6023 139.932 44.1035C146.033 46.1439 152.322 47.5127 158.492 49.2982C163.332 50.699 168.187 52.0424 173.036 53.4111C173.051 53.6744 173.259 53.7689 173.44 53.9056C174.665 54.8355 175.907 55.7385 176.979 56.8557C178.467 58.405 178.659 60.0623 177.456 61.8546C176.484 63.3027 175.11 64.3136 173.649 65.2165C173.397 65.3718 173.048 65.4359 173.045 65.8359C172.523 66.0401 172.012 66.2696 171.482 66.4469C164.24 68.8653 157 71.2922 149.68 73.4744C146.641 74.3807 143.628 75.3697 140.602 76.3232C140.213 76.4464 139.774 76.6084 139.961 77.1164C140.153 77.6379 140.575 77.4337 140.957 77.2818C141.634 77.0101 142.304 76.7013 143.004 76.5173C146.509 75.5992 149.949 74.4651 153.388 73.3394C162.137 70.4737 170.832 67.4358 179.642 64.7575C181.917 64.0655 184.193 63.3348 186.592 63.1255C187.314 63.063 187.344 62.5736 187.089 62.0133C188.868 61.5492 190.65 61.0969 192.424 60.6159C192.885 60.491 193.163 60.5315 193.452 60.9838C194.814 63.1255 195.656 65.4191 195.671 67.9827C195.675 68.5362 195.668 69.0915 196.019 69.5691C195.95 73.6584 195.177 77.6666 194.589 81.6951C193.909 86.3633 192.934 90.9876 192.559 95.6996C192.487 96.6059 192.542 97.5037 192.647 98.3898C192.731 99.1003 193.314 99.5577 193.989 99.5948C197.035 99.7602 199.921 100.79 202.932 101.153C206.947 101.637 210.955 102.184 214.953 102.798C218.06 103.276 221.142 103.927 224.277 104.224C225.201 104.312 226.124 104.39 227.047 104.481C228.47 104.622 229.107 105.181 229.433 106.553C229.982 108.867 229.762 111.196 229.497 113.511C228.762 119.935 227.531 126.27 226.093 132.569C225.82 133.767 225.835 135.026 225.325 136.175C224.843 137.266 224.068 138.061 223.042 138.678C217.992 141.711 212.651 144.118 207.159 146.224C201.863 148.256 196.599 150.379 191.207 152.143C183.787 154.571 176.597 157.599 169.322 160.401C166.496 161.487 163.572 162.294 160.647 163.081C158.789 163.58 157.103 162.89 155.403 162.316C155.034 162.191 154.686 162.009 154.327 161.854C154.229 159.931 154.688 158.043 154.527 156.097C154.328 153.668 154.495 151.216 154.669 148.779C154.777 147.243 154.87 145.706 155.039 144.177C155.341 141.446 155.594 138.714 155.506 135.961C155.484 135.252 155.216 134.586 154.681 134.176C151.893 132.032 149.415 129.543 146.887 127.119C143.988 124.34 141.075 121.563 138.437 118.527C137.961 117.98 137.281 117.511 137.283 116.637C137.283 115.601 137.193 114.566 137.146 113.532C137.025 110.845 136.91 108.156 136.805 105.468C136.695 102.639 136.552 99.8108 136.476 96.9822C136.392 93.8415 136.14 90.7108 136.078 87.57C136.044 85.8654 135.885 84.1609 135.759 82.458C135.696 81.6276 135.072 80.8175 134.25 80.7585C133.278 80.6893 132.594 80.1172 131.815 79.6969C131.347 79.4438 130.907 79.14 130.382 79.005C130.394 78.6472 130.301 78.389 129.943 78.1847C127.508 76.7941 124.991 75.5536 122.532 74.2085C114.263 69.6855 105.804 65.5102 97.6376 60.7948C97.1903 60.5366 96.7617 60.145 96.1642 60.3391C93.9348 59.3248 92.3956 60.3155 91.9146 62.285C90.5713 67.8038 89.2026 73.3158 87.7917 78.8159C87.5824 79.6311 87.5351 80.5391 86.9141 81.2175L86.9174 81.2209ZM205.286 132.002C205.136 131.796 204.957 131.88 204.759 131.924C199.705 133.043 194.78 134.611 189.884 136.272C189.118 136.532 188.392 136.943 188.232 137.88C188.119 137.954 188.013 138.04 187.893 138.101C187.574 138.263 187.179 138.4 187.287 138.854C187.41 139.377 187.867 139.242 188.24 139.24C188.247 139.988 188.684 140.457 189.324 140.693C189.8 140.867 190.045 141.136 190.198 141.606C190.485 142.481 191.121 143.029 192.034 143.137C193.314 143.287 194.591 143.217 195.83 142.813C197.163 142.379 198.48 141.882 199.83 141.507C200.945 141.198 201.625 140.545 201.919 139.45C202.57 139.306 202.992 139.036 202.547 138.295C202.488 137.615 202.819 137.316 203.48 137.215C204.275 137.095 205.068 136.921 205.841 136.702C206.597 136.488 207.254 136.152 207.669 135.372C208.197 134.381 207.782 133.543 207.468 132.658C207.861 132.508 208.464 132.493 208.3 131.863C208.131 131.217 207.564 131.418 207.119 131.516C206.501 131.652 205.895 131.836 205.284 132L205.286 132.002ZM185.272 125.302C184.16 125.472 183.118 125.899 182.058 126.243C181.502 126.424 180.799 126.318 180.421 126.935C180.268 126.669 180.104 126.409 179.964 126.135C179.782 125.779 179.522 125.546 179.103 125.587C177.959 125.697 176.871 125.4 175.79 125.109C171.821 124.041 168.01 122.573 164.424 120.547C163.751 120.168 163.283 120.379 163.167 121.136C163.133 121.354 163.173 121.584 163.189 121.806C163.384 124.87 163.808 127.894 164.768 130.82C164.937 131.337 164.721 131.517 164.264 131.639C163.57 131.823 162.866 131.988 162.222 132.324C161.312 132.817 160.976 133.438 161.292 134.192C161.567 134.851 162.188 135.111 162.8 134.9C163.783 134.56 164.707 134.056 165.656 133.62C166.382 135.041 166.967 136.53 167.818 137.89C168.82 139.492 170.039 140.866 171.742 141.735C174.153 142.967 176.886 142.427 178.19 140.084C178.882 138.844 179.407 137.563 179.642 136.159C180.011 133.944 180.405 131.733 180.521 129.485C180.661 129.475 180.808 129.489 180.94 129.45C185.209 128.191 189.459 126.866 193.668 125.413C198.301 123.813 202.908 122.147 207.472 120.362C207.534 121.116 207.576 121.872 207.666 122.622C207.904 124.63 208.439 126.527 209.858 128.059C211.405 129.73 213.937 129.783 215.559 128.22C217.533 126.314 218.752 124.002 219.442 121.364C220.026 119.135 220.303 116.86 220.58 114.583C221.275 114.563 221.866 114.229 222.414 113.871C223.192 113.363 223.795 112.56 222.809 111.626C222.721 111.544 222.711 111.378 222.666 111.252C222.887 111.13 223.118 111.022 223.327 110.884C223.693 110.641 224.066 110.337 223.727 109.866C223.412 109.427 223.04 109.701 222.699 109.922C222.075 110.327 221.415 110.654 220.659 110.865C220.659 110.143 220.657 109.498 220.659 108.852C220.664 107.67 220.637 106.492 220.396 105.331C220.267 104.71 219.861 104.228 219.305 104.047C218.754 103.868 218.524 104.471 218.225 104.823C218.063 105.016 217.915 105.222 217.768 105.427C215.294 108.875 212.673 112.205 209.719 115.262C208.8 116.213 207.775 117.024 206.515 117.498C205.517 117.874 204.537 118.291 203.534 118.656C203.166 118.789 202.876 118.956 202.753 119.344C201.997 119.339 201.357 119.677 200.724 120.038C200.385 119.957 200.081 120.009 199.752 120.161C195.415 122.178 190.887 123.656 186.284 124.927C185.933 125.023 185.569 125.072 185.268 125.303L185.272 125.302ZM188.926 74.2085C188.926 71.65 188.943 69.0932 188.919 66.5346C188.907 65.257 188.391 64.8857 187.137 65.1693C186.863 65.2317 186.598 65.3279 186.332 65.4174C181.198 67.1456 176.066 68.8805 170.93 70.602C161.985 73.5993 152.769 75.7123 143.873 78.8699C142.58 79.329 141.237 79.6767 140.108 80.5053C139.126 81.2277 138.677 82.1576 138.879 83.425C139.423 86.8105 139.737 90.2247 140.003 93.6423C140.429 99.1037 140.71 104.582 141.691 109.986C142.042 111.918 142.435 113.844 143.068 115.711C143.333 116.492 143.969 116.843 144.533 116.568C145.851 115.925 147.216 115.398 148.604 114.924C154.873 112.784 161.217 110.87 167.425 108.54C173.792 106.148 180.023 103.448 186.188 100.585C187.093 100.165 187.403 99.5526 187.38 98.6058C187.348 97.3704 187.334 96.1266 187.432 94.8963C187.982 88.0054 188.802 81.1348 188.924 74.2069L188.926 74.2085ZM153.503 114.6C150.335 115.876 147.085 116.462 144.17 118.011C143.35 118.446 143.338 118.536 143.974 119.213C146.091 121.471 148.467 123.437 150.909 125.325C151.157 125.516 151.351 126.011 151.692 125.8C151.895 125.675 151.881 125.19 151.947 124.865C151.974 124.73 151.959 124.584 151.959 124.444C151.959 123.012 152.185 121.602 152.441 120.2C152.772 118.394 153.125 116.592 153.503 114.602V114.6ZM111.333 50.5876C110.948 50.4661 110.785 50.5927 110.611 50.6686C107.716 51.9479 104.834 53.2592 101.921 54.498C100.107 55.2693 98.4054 56.2313 96.738 57.2692C96.3279 57.524 96.2148 57.7468 96.6992 58.0472C99.9581 60.0724 103.123 62.2597 106.628 63.8647C106.807 63.9457 106.977 64.0453 107.159 64.1178C107.489 64.2478 107.833 64.1583 107.986 63.8934C108.15 63.6115 107.794 63.4917 107.612 63.3381C106.753 62.6209 105.894 61.9036 105.036 61.1846C104.032 60.3442 103.943 59.2218 104.15 58.0557C104.479 56.2076 105.784 54.9739 107.04 53.7402C108.278 52.5234 109.765 51.6188 111.331 50.5876H111.333ZM156.382 147.118C156.352 147.696 156.316 148.172 156.303 148.649C156.218 151.908 156.137 155.167 156.056 158.426C156.046 158.819 156.114 159.214 156.593 159.224C157.074 159.234 157.16 158.845 157.152 158.448C157.14 157.942 157.116 157.437 157.101 156.932C156.929 151.253 157.364 145.583 157.348 139.905C157.344 138.672 157.305 137.402 157.565 136.213C157.776 135.249 157.427 134.662 156.897 134.027C155.687 132.577 154.315 131.291 152.951 129.992C149.191 126.405 145.051 123.224 141.59 119.321C141.355 119.057 141.065 118.802 140.731 119.113C140.358 119.461 140.607 119.769 140.901 120.031C145.073 123.757 149.002 127.74 153.088 131.558C154.097 132.5 154.99 133.546 155.852 134.623C156.197 135.053 156.391 135.521 156.389 136.089C156.377 139.799 156.382 143.509 156.382 147.118ZM198.203 103.141C198.962 103.141 199.72 103.149 200.479 103.139C201.215 103.129 201.355 102.879 201.099 102.189C200.739 101.218 199.86 101.136 199.048 100.964C197.055 100.543 194.993 100.454 193.047 99.8074C192.188 99.5222 191.396 99.5323 190.608 99.9323C187.981 101.267 185.356 102.606 182.582 103.623C182.345 103.709 181.95 103.772 182.064 104.153C182.155 104.464 182.499 104.329 182.732 104.332C185.23 104.361 187.704 104.027 190.18 103.782C192.851 103.519 195.509 103.124 198.203 103.141Z" fill="#63A0FD"/>
<path d="M86.9234 81.2224C87.5428 80.544 87.5917 79.636 87.801 78.8208C89.2119 73.319 90.5806 67.807 91.924 62.2899C92.4033 60.3204 93.9425 59.3314 96.1736 60.344C95.7787 60.8284 95.8732 61.1726 96.4217 61.4882C98.4452 62.6477 100.506 63.7362 102.572 64.8181C108.644 67.9977 114.831 70.9562 120.831 74.2792C123.534 75.7779 126.219 77.307 128.864 78.9086C129.345 79.2006 129.846 79.5229 130.391 79.0115C130.914 79.1466 131.355 79.4503 131.824 79.7035C132.602 80.1237 133.286 80.6959 134.259 80.765C135.08 80.8241 135.706 81.6342 135.768 82.4646C135.895 84.1674 136.053 85.8703 136.087 87.5766C136.15 90.7174 136.401 93.848 136.485 96.9888C136.561 99.8174 136.705 102.646 136.814 105.475C136.919 108.163 137.032 110.852 137.155 113.538C137.203 114.573 137.294 115.607 137.292 116.644C137.292 117.516 137.971 117.985 138.446 118.534C141.084 121.57 143.997 124.346 146.897 127.126C149.425 129.549 151.902 132.039 154.69 134.182C155.224 134.592 155.492 135.259 155.516 135.968C155.603 138.72 155.352 141.451 155.048 144.183C154.879 145.712 154.787 147.25 154.679 148.786C154.506 151.223 154.338 153.675 154.537 156.104C154.697 158.049 154.238 159.938 154.336 161.86C152.093 161.126 149.929 160.193 147.764 159.265C146.517 158.73 146.475 158.63 146.573 157.32C146.848 153.628 146.736 149.922 145.835 146.35C144.652 141.669 142.942 137.1 139.216 133.789C135.296 130.306 130.683 128.611 125.434 130.235C121.494 131.453 118.434 134.024 116.167 137.453C115.459 138.525 115.308 139.876 115.067 141.142C114.969 141.659 114.817 141.76 114.367 141.53C108.588 138.589 102.474 136.344 96.8453 133.09C96.2664 132.756 96.0791 132.488 96.1803 131.733C96.4385 129.808 96.2056 127.868 95.9373 125.943C95.3972 122.053 94.4808 118.279 92.5619 114.807C91.5206 112.922 90.2751 111.209 88.5537 109.869C86.7985 108.502 84.8881 107.834 82.6553 108.393C82.1051 108.531 81.5583 108.683 81.1111 109.034C78.426 111.137 76.4615 113.739 75.6346 117.099C75.4472 117.862 75.3932 118.654 75.3966 119.442C75.3983 119.877 75.211 119.953 74.897 119.692C73.1435 118.233 71.3732 116.831 71.1656 114.254C70.9985 112.176 70.931 110.107 71.0086 108.03C71.1538 107.996 71.2466 107.928 71.2972 107.77C72.1411 105.142 72.5917 102.449 72.6406 99.6925C72.6507 99.1035 72.8026 98.6208 73.1165 98.1229C73.9047 96.8791 75.0118 95.9981 76.2117 95.2032C78.2673 93.8413 80.4022 92.5806 82.0275 90.6667C82.2249 90.4338 82.5051 90.2549 82.4359 89.887C84.6197 88.6769 85.9935 86.8323 86.6871 84.456C86.9116 83.6898 86.7867 82.9034 86.8289 82.1253C86.8458 81.8232 86.7496 81.511 86.92 81.2241L86.9234 81.2224ZM89.4667 105.729C89.5764 105.714 89.6878 105.691 89.7975 105.687C90.989 105.64 91.2186 105.412 91.227 104.253C91.2321 103.583 91.2 102.909 91.2354 102.241C91.2726 101.562 91.1224 100.982 90.4304 100.757C89.7604 100.541 89.3385 100.97 89.0026 101.492C88.1723 101.343 87.8398 101.613 87.8601 102.423C87.877 103.125 87.877 103.829 87.9175 104.531C87.9698 105.431 88.0592 106.328 88.5436 107.125C88.8946 107.702 89.3824 108.025 90.0878 107.901C90.3511 107.856 90.584 107.755 90.6515 107.468C90.7291 107.139 90.562 106.904 90.2751 106.799C89.7604 106.612 89.5258 106.244 89.4667 105.728V105.729ZM110.583 112.662C110.019 112.718 109.834 113.071 109.832 113.591C109.825 115.194 109.82 116.797 109.795 118.399C109.786 118.995 110.045 119.428 110.515 119.747C111.182 120.196 111.962 120.346 112.726 120.525C113.013 120.593 113.305 120.517 113.428 120.201C113.567 119.847 113.363 119.611 113.093 119.423C112.669 119.128 112.168 119.023 111.692 118.856C111.278 118.711 110.981 118.498 111.15 117.99C111.277 118.041 111.427 118.063 111.526 118.144C111.996 118.524 112.48 118.625 112.979 118.232C113.484 117.833 113.59 117.329 113.334 116.733C113.022 116.009 113.192 115.24 113.155 114.488C113.125 113.878 113.228 113.256 112.99 112.661C112.762 112.092 112.505 111.574 111.771 111.582C111.054 111.591 110.725 112.021 110.585 112.661L110.583 112.662ZM132.162 95.2269C131.956 91.8987 132.001 88.8322 132.241 85.7809C132.354 84.348 131.736 83.6375 130.589 83.0434C124.682 79.982 118.802 76.8699 112.782 74.0312C112.087 73.7037 111.531 73.4017 110.816 73.9687C110.279 74.394 110.218 74.9628 110.132 75.5332C109.872 77.2817 109.653 79.0352 109.402 80.7853C108.36 88.0474 108.006 95.3113 109.326 102.584C109.388 102.924 109.537 103.135 109.813 103.314C111.157 104.185 112.485 105.078 113.832 105.942C119.084 109.314 124.66 112.116 130.077 115.199C130.617 115.506 131.188 115.737 131.794 115.877C132.989 116.151 133.728 115.447 133.483 114.266C132.951 111.704 132.686 109.111 132.521 106.502C132.278 102.658 132.265 98.8082 132.16 95.2269H132.162ZM107.77 75.0978C107.754 75.0978 107.739 75.0978 107.724 75.0978C107.724 74.367 107.743 73.6362 107.716 72.9072C107.702 72.5409 107.572 72.2388 107.204 72.0076C104.469 70.2946 101.594 68.8094 98.9734 66.9057C97.8123 66.0619 96.5432 65.3868 95.2487 64.7674C94.3475 64.3371 94.096 64.4687 93.7332 65.3851C92.8505 67.6179 92.329 69.9385 91.9915 72.308C91.4278 76.2809 90.6684 80.2267 90.4996 84.2535C90.422 86.1117 90.665 87.9833 90.449 89.8111C90.2768 91.2794 90.8422 92.0051 91.9527 92.7274C96.4082 95.6269 101.083 98.1449 105.704 100.759C106.462 101.188 106.76 100.979 106.764 100.109C106.779 95.9222 106.674 91.735 107.002 87.5496C107.326 83.4046 107.516 79.2478 107.765 75.0978H107.77ZM105.965 121.724C105.891 125.921 106.43 130.078 106.801 134.245C106.841 134.709 106.961 135.296 107.619 135.2C108.293 135.102 108.075 134.542 108.008 134.118C107.28 129.561 106.855 124.981 106.916 120.36C106.98 115.413 107.292 110.477 107.491 105.535C107.51 105.073 107.533 104.523 106.909 104.529C106.288 104.538 106.338 105.08 106.35 105.547C106.387 106.867 106.458 108.19 106.416 109.508C106.29 113.581 106.117 117.653 105.962 121.724H105.965Z" fill="#4074C4"/>
<path d="M137.109 137.402C139.268 139.341 140.689 141.757 141.695 144.448C143.028 148.012 143.627 151.71 143.502 155.499C143.396 158.753 142.706 161.873 140.974 164.72C139.273 167.518 136.692 168.936 133.631 169.606C131.894 169.986 130.114 169.95 128.359 169.647C126.982 169.407 125.944 168.501 124.84 167.739C121.618 165.52 119.914 162.163 118.418 158.747C117.18 155.914 116.585 152.868 116.712 149.732C117.223 149.658 117.178 149.271 117.201 148.9C117.257 148.036 117.245 147.155 117.421 146.314C118.315 142.017 120.703 138.929 124.813 137.204C126.993 136.289 129.219 135.953 131.579 136.008C133.481 136.051 135.238 136.389 136.858 137.388C136.92 137.427 137.023 137.398 137.108 137.402H137.109ZM124.794 150.601C124.811 153.316 125.247 155.487 127.02 157.33C128.448 158.813 131.424 158.741 132.411 156.106C133.601 152.928 133.032 149.924 131.437 147.064C130.796 145.914 129.803 145.077 128.536 144.615C127.066 144.078 125.815 144.468 125.528 145.632C125.1 147.371 124.843 149.139 124.794 150.603V150.601Z" fill="#3E4654"/>
<path d="M88.6715 116.483C90.0959 119.048 91.0359 121.791 91.6097 124.658C92.3726 128.474 92.7034 132.312 91.8899 136.161C91.3701 138.62 90.1533 140.534 87.5323 141.198C86.2514 141.522 85.1223 141.344 84.022 140.472C81.1175 138.17 79.5699 135.078 78.5589 131.627C77.9716 129.625 77.6949 127.573 77.575 125.505C77.516 124.478 77.6814 123.436 77.7455 122.402C78.0408 122.349 78.0054 122.095 78.0796 121.889C78.8307 119.813 79.4011 117.669 80.7951 115.867C82.7106 113.389 85.259 113.167 87.4783 115.356C87.7298 115.604 87.9137 115.963 88.3424 115.973C88.3323 116.221 88.339 116.458 88.6715 116.485V116.483ZM81.271 126.879C81.1546 128.688 81.4162 130.334 82.5064 131.733C83.1764 132.594 84.0979 133.144 85.2118 132.962C86.3088 132.781 86.5872 131.797 86.7492 130.874C87.08 128.996 87.2775 127.094 87.1256 125.188C87.0176 123.833 86.6092 122.544 85.6624 121.502C84.27 119.971 82.6499 120.294 82.0204 122.267C81.536 123.786 81.0888 125.328 81.271 126.879Z" fill="#3E4654"/>
<path d="M173.04 65.8369C173.043 65.4386 173.392 65.3728 173.644 65.2175C175.105 64.3129 176.479 63.302 177.451 61.8556C178.655 60.0633 178.462 58.406 176.974 56.8567C175.9 55.7394 174.658 54.8348 173.435 53.9066C173.254 53.7699 173.046 53.6754 173.031 53.4121C175.873 54.1446 178.71 54.8973 181.559 55.6061C183.625 56.1209 185.721 56.5158 187.77 57.0845C189.014 57.4305 190.278 57.655 191.537 57.8879C193.805 58.3064 195.336 59.3815 195.94 61.7561C196.608 64.3804 196.404 66.9626 196.014 69.5701C195.663 69.0924 195.67 68.5355 195.666 67.9836C195.649 65.42 194.809 63.1265 193.447 60.9848C193.158 60.5325 192.88 60.492 192.419 60.6169C190.646 61.0995 188.863 61.5518 187.085 62.0143C186.344 61.7797 185.637 62.0025 184.943 62.2117C182.766 62.8649 180.6 63.5568 178.423 64.2066C176.628 64.7433 174.874 65.4234 173.041 65.8352L173.04 65.8369Z" fill="#4074C4"/>
<path d="M145.726 159.66C147.724 160.818 149.937 161.471 152.065 162.321C153.01 162.699 153.051 162.784 152.264 163.476C150.03 165.445 147.454 166.855 144.702 167.953C142.93 168.662 141.105 169.209 139.242 169.626C139.384 169.133 139.821 168.88 140.138 168.53C141.954 166.527 143.429 164.309 143.991 161.634C144.219 160.551 144.555 159.802 145.726 159.658V159.66Z" fill="#7A879C"/>
<path d="M96.3327 134.406C97.6053 134.781 98.7191 135.501 99.9157 136.045C101.058 136.565 102.192 137.1 103.571 137.741C99.5208 140.259 95.2763 141.366 90.7195 141.437C90.6976 141.061 91.1431 140.858 91.0807 140.466C91.2832 140.166 91.6883 140.028 91.7591 139.621C91.9431 139.609 92.0646 139.498 92.1625 139.356C92.8798 138.325 93.5076 137.245 93.9177 136.05C94.127 135.439 94.5101 135.012 95.1649 134.838C95.5649 134.732 95.9446 134.551 96.3344 134.404L96.3327 134.406Z" fill="#7A879C"/>
<path d="M137.106 137.402C137.022 137.399 136.919 137.427 136.856 137.389C135.236 136.389 133.479 136.052 131.577 136.008C129.22 135.954 126.992 136.29 124.811 137.205C120.7 138.929 118.314 142.018 117.419 146.315C117.244 147.155 117.256 148.036 117.2 148.9C117.176 149.272 117.22 149.658 116.711 149.732C116.319 145.319 117.389 141.28 120.273 137.922C122.518 135.309 125.238 133.311 128.999 133.505C131.621 133.64 133.851 134.712 135.891 136.271C136.33 136.607 136.843 136.876 137.106 137.404V137.402Z" fill="#262B37"/>
<path d="M92.3749 124.236C91.9125 122.513 91.5328 120.771 90.932 119.082C89.9362 116.277 88.4815 113.74 86.6925 111.376C86.3331 110.9 85.7542 110.814 85.2344 110.509C87.0317 110.191 87.5043 110.358 88.7262 111.525C91.8906 114.544 93.3555 118.415 94.2381 122.562C94.817 125.283 95.082 128.04 94.9081 130.828C94.5588 130.776 94.4997 130.486 94.417 130.221C94.0137 128.914 93.6424 127.6 93.2053 126.305C92.969 125.603 92.8964 124.827 92.3732 124.236H92.3749Z" fill="#262B37"/>
<path d="M143.164 146.173C142.378 143.621 141.409 141.153 139.828 138.973C137.554 135.835 134.677 133.549 130.849 132.588C130.289 132.448 129.664 132.647 129.195 132.291C131.56 130.958 133.799 131.564 135.995 132.826C139.688 134.948 141.905 138.24 143.368 142.122C144.109 144.09 144.705 146.1 144.84 148.216C144.509 148.189 144.418 147.916 144.265 147.686C143.919 147.167 143.689 146.562 143.163 146.173H143.164Z" fill="#262B37"/>
<path d="M216.314 146.868C213.509 150.617 209.577 152.652 205.277 154.129C204.905 154.255 204.515 154.316 204.117 154.257C205.761 152.625 207.028 150.718 208.152 148.706C208.471 148.534 208.784 148.347 209.111 148.195C210.951 147.338 212.881 146.789 214.896 146.534C215.317 146.863 215.917 146.431 216.312 146.868H216.314Z" fill="#7A879C"/>
<path d="M82.4273 89.8835C82.4964 90.2514 82.2163 90.4303 82.0188 90.6632C80.3936 92.5771 78.2587 93.8378 76.2031 95.1997C75.0032 95.9946 73.8961 96.8773 73.1079 98.1195C72.7923 98.6156 72.6421 99.1 72.632 99.689C72.583 102.445 72.1307 105.139 71.2886 107.766C71.238 107.925 71.1451 107.994 71 108.026C71.0456 104.821 71.0894 101.616 71.135 98.4114C71.1586 96.7102 71.9113 95.4985 73.4589 94.7272C76.5001 93.2116 79.4991 91.6117 82.4273 89.8818V89.8835Z" fill="#63A0FD"/>
<path d="M195.001 154.427C193.592 154.486 192.419 153.827 190.945 153.101C196.106 151.322 200.982 149.467 205.981 147.526C205.837 148.603 205.422 149.427 204.929 150.222C204.118 149.936 203.351 150.051 202.567 150.387C200.039 151.474 197.757 153.045 195.208 154.09C195.062 154.151 195.008 154.275 195.001 154.426V154.427Z" fill="#262B37"/>
<path d="M214.9 146.535C212.887 146.789 210.956 147.338 209.115 148.195C208.787 148.349 208.475 148.536 208.156 148.707C207.694 148.578 207.383 148.977 206.977 149.046C207.134 148.48 207.324 147.922 207.436 147.348C207.498 147.026 207.642 146.884 207.932 146.767C211.467 145.358 215.005 143.954 218.655 142.19C218.279 143.512 217.69 144.499 217.138 145.502C216.347 145.75 215.596 146.084 214.899 146.533L214.9 146.535Z" fill="#262B37"/>
<path d="M115.891 142.05C116.098 139.314 117.111 137.017 119.158 135.227C121.556 133.13 124.167 131.431 127.385 130.888C127.912 130.798 128.427 130.774 129.065 131.073C126.391 131.883 124.044 133.036 121.958 134.712C120.017 136.27 118.447 138.111 117.514 140.43C117.2 141.209 116.756 141.753 115.891 142.05Z" fill="#4074C4"/>
<path d="M88.3469 115.97C87.9199 115.962 87.7343 115.6 87.4828 115.352C85.2635 113.162 82.7151 113.386 80.7996 115.864C79.4056 117.666 78.8352 119.81 78.0842 121.885C78.0099 122.091 78.0453 122.346 77.75 122.398C78.0808 118.994 79.0731 115.823 81.1287 113.052C81.5996 112.416 82.111 111.793 82.9852 111.558C83.9556 111.298 84.7066 111.538 85.4728 112.124C86.8044 113.14 87.6398 114.502 88.3469 115.97Z" fill="#262B37"/>
<path d="M143.169 146.173C143.694 146.561 143.925 147.167 144.271 147.687C144.424 147.916 144.516 148.19 144.846 148.217C145.253 151.167 145.054 154.124 144.949 157.079C144.938 157.403 144.835 157.766 144.657 158.034C144.146 158.81 144.505 159.143 145.229 159.369C145.408 159.425 145.56 159.56 145.726 159.657C144.554 159.799 144.219 160.55 143.991 161.634C143.429 164.309 141.952 166.525 140.138 168.53C139.822 168.879 139.385 169.132 139.242 169.625C138.403 169.704 137.589 170.022 136.469 169.927C137.596 169.286 138.487 168.732 139.292 168.044C141.89 165.819 143.216 162.911 143.851 159.637C144.696 155.271 144.357 150.952 143.26 146.671C143.218 146.509 143.199 146.342 143.171 146.176L143.169 146.173Z" fill="#3E4654"/>
<path d="M195.002 154.428C195.008 154.277 195.062 154.153 195.209 154.092C197.758 153.047 200.039 151.476 202.568 150.389C203.352 150.051 204.119 149.937 204.93 150.224C204.098 152.299 202.584 153.584 200.466 154.294C198.634 154.91 196.823 154.446 195 154.428H195.002Z" fill="#3E4654"/>
<path d="M92.3755 124.236C92.8987 124.825 92.9713 125.603 93.2075 126.305C93.6446 127.6 94.0159 128.916 94.4193 130.221C94.5003 130.486 94.5594 130.776 94.9104 130.828C94.9188 131.157 94.956 131.481 94.7956 131.802C94.3332 132.723 94.4547 133.132 95.3121 133.709C95.653 133.939 95.9905 134.175 96.3314 134.406C95.9432 134.553 95.5618 134.732 95.1635 134.838C94.5087 135.012 94.1256 135.439 93.9164 136.05C93.5046 137.245 92.8784 138.325 92.1612 139.356C92.0633 139.498 91.9435 139.609 91.7578 139.621C92.3519 138.21 92.8582 136.779 92.9729 135.233C93.1434 132.972 93.1704 130.71 92.9594 128.454C92.8278 127.041 92.5763 125.64 92.3772 124.234L92.3755 124.236Z" fill="#3E4654"/>
<path d="M76.5029 119.737C75.8903 116.067 81.0698 108.656 84.2966 109.302C83.9371 109.481 83.63 109.682 83.2925 109.795C81.4259 110.421 80.3424 111.854 79.4564 113.486C78.6243 115.019 77.9189 116.608 77.5375 118.318C77.4008 118.932 77.0801 119.358 76.5029 119.737Z" fill="#4074C4"/>
<path d="M206.975 149.045C207.38 148.976 207.692 148.578 208.155 148.706C207.031 150.718 205.763 152.623 204.12 154.257C203.893 154.267 203.666 154.277 203.439 154.287L203.414 154.258C205.053 152.829 206.001 150.929 206.975 149.045Z" fill="#3E4654"/>
<path d="M214.898 146.534C215.595 146.085 216.346 145.751 217.138 145.503C216.865 145.959 216.589 146.414 216.314 146.868C215.919 146.431 215.319 146.862 214.898 146.534Z" fill="#3E4654"/>
<path d="M91.0739 140.469C91.1364 140.86 90.6925 141.063 90.7128 141.439C90.49 141.439 90.2672 141.439 89.9297 141.439C90.3449 141.059 90.598 140.643 91.0739 140.469Z" fill="#3E4654"/>
<path d="M88.6753 116.483C88.3428 116.454 88.336 116.218 88.3462 115.972C88.5791 116.063 88.6871 116.235 88.6753 116.483Z" fill="#262B37"/>
<path d="M122.164 43.647C122.151 43.598 122.139 43.5744 122.141 43.5508C122.141 43.544 122.178 43.539 122.196 43.5322C122.188 43.5626 122.18 43.5947 122.164 43.647Z" fill="#262B37"/>
<path d="M121.922 42.9086C121.964 42.9677 122.005 43.0268 122.047 43.0859C121.849 43.1314 121.967 42.9643 121.925 42.9053L121.922 42.9086Z" fill="#262B37"/>
<path d="M121.752 42.5691C121.893 42.64 121.915 42.7682 121.919 42.9083L121.922 42.9049C121.78 42.8357 121.757 42.7075 121.752 42.5674H121.75L121.752 42.5691Z" fill="#262B37"/>
<path d="M121.586 42.2314C121.728 42.3006 121.751 42.4306 121.755 42.569H121.756C121.615 42.4998 121.593 42.3698 121.588 42.2314H121.586Z" fill="#262B37"/>
<path d="M121.589 42.2319C121.547 42.1694 121.505 42.1087 121.461 42.0462C121.669 41.9956 121.547 42.1694 121.588 42.2336L121.589 42.2319Z" fill="#262B37"/>
<path d="M120.919 40.7129C120.961 40.777 121.004 40.8395 121.046 40.9036C121.024 40.9188 121 40.9323 120.978 40.9475C120.956 40.8698 120.936 40.7939 120.914 40.7163L120.919 40.7129Z" fill="#262B37"/>
<path d="M120.744 40.375C120.882 40.4459 120.909 40.5725 120.914 40.7109L120.909 40.7142C120.764 40.645 120.742 40.5168 120.742 40.375H120.744Z" fill="#262B37"/>
<path d="M120.745 40.3766C120.6 40.3074 120.578 40.1791 120.578 40.0391C120.717 40.1099 120.744 40.2365 120.749 40.3749L120.747 40.3766H120.745Z" fill="#262B37"/>
<path d="M120.577 40.0377C120.432 39.9685 120.411 39.8386 120.41 39.7002L120.406 39.7036C120.545 39.7745 120.572 39.901 120.577 40.0394V40.0377Z" fill="#262B37"/>
<path d="M120.234 39.3654C120.371 39.4363 120.4 39.5629 120.405 39.7013L120.408 39.6979C120.265 39.6287 120.243 39.4987 120.241 39.3604L120.236 39.3654H120.234Z" fill="#262B37"/>
<path d="M120.062 39.0285C120.194 39.1028 120.225 39.2293 120.231 39.366L120.236 39.361C120.096 39.2901 120.073 39.1601 120.068 39.0234L120.062 39.0285Z" fill="#262B37"/>
<path d="M203.436 154.287C203.37 154.325 203.306 154.363 203.238 154.395C203.231 154.399 203.204 154.358 203.188 154.336C203.262 154.311 203.336 154.284 203.41 154.259L203.436 154.287Z" fill="#3E4654"/>
<path d="M77.0016 120.804C76.9814 120.826 76.9645 120.843 76.9476 120.861C76.9307 120.826 76.9071 120.79 76.8987 120.753C76.8953 120.74 76.9291 120.718 76.9476 120.699C76.9662 120.735 76.9847 120.77 77.0033 120.804H77.0016Z" fill="white"/>
<path d="M120.077 39.0247C120.053 39.0129 120.031 39.0011 120.008 38.9893C120.03 39.0028 120.052 39.0163 120.072 39.0298L120.077 39.0247Z" fill="#262B37"/>
<path d="M188.92 74.2081C188.799 81.1361 187.979 88.0084 187.429 94.8975C187.331 96.1279 187.344 97.3717 187.376 98.6071C187.4 99.5522 187.089 100.167 186.185 100.587C180.02 103.451 173.789 106.149 167.421 108.541C161.216 110.872 154.87 112.785 148.6 114.925C147.213 115.4 145.848 115.926 144.53 116.569C143.966 116.844 143.33 116.493 143.065 115.712C142.432 113.847 142.039 111.92 141.687 109.987C140.707 104.583 140.423 99.105 140 93.6436C139.735 90.2243 139.419 86.8118 138.876 83.4263C138.673 82.1589 139.122 81.2289 140.104 80.5066C141.232 79.6779 142.575 79.3303 143.87 78.8712C152.765 75.7136 161.982 73.6006 170.926 70.6032C176.062 68.8818 181.194 67.1468 186.328 65.4186C186.595 65.3292 186.86 65.233 187.133 65.1706C188.387 64.887 188.904 65.26 188.915 66.5359C188.939 69.0927 188.922 71.6513 188.922 74.2098L188.92 74.2081ZM187.38 66.4988C185.96 66.8819 184.598 67.216 183.258 67.6177C174.44 70.2606 165.723 73.2462 156.846 75.6899C151.991 77.0266 147.331 78.8915 142.611 80.5944C140.56 81.3336 140.202 81.9108 140.288 84.0102C140.543 90.1906 141.001 96.3574 141.517 102.521C141.849 106.477 142.509 110.377 143.826 114.141C144.162 115.099 144.464 115.246 145.439 114.829C146.342 114.441 147.248 114.07 148.2 113.817C154.713 112.08 161.138 110.07 167.441 107.673C173.534 105.358 179.549 102.874 185.251 99.6855C185.861 99.3446 186.141 98.9716 186.119 98.2425C186.09 97.2637 186.168 96.273 186.289 95.2992C186.993 89.6927 187.775 84.0929 187.818 78.4307C187.849 74.463 188.291 70.4716 187.381 66.5005L187.38 66.4988Z" fill="black"/>
<path d="M202.75 119.342C202.872 118.954 203.162 118.789 203.531 118.654C204.532 118.289 205.514 117.872 206.512 117.496C207.773 117.022 208.795 116.212 209.717 115.26C212.67 112.205 215.291 108.875 217.765 105.426C217.912 105.22 218.061 105.014 218.223 104.822C218.521 104.467 218.751 103.866 219.303 104.045C219.858 104.224 220.265 104.709 220.393 105.33C220.634 106.491 220.661 107.67 220.656 108.85C220.655 109.495 220.656 110.141 220.656 110.864C221.412 110.653 222.072 110.325 222.697 109.92C223.038 109.699 223.409 109.426 223.724 109.864C224.064 110.337 223.691 110.639 223.324 110.882C223.115 111.022 222.884 111.128 222.663 111.25C221.345 111.726 220.652 112.643 220.584 114.003C220.574 114.195 220.577 114.389 220.575 114.581C220.297 116.858 220.022 119.133 219.438 121.363C218.747 124 217.529 126.313 215.554 128.218C213.933 129.783 211.401 129.729 209.853 128.058C208.434 126.525 207.899 124.628 207.661 122.62C207.572 121.869 207.531 121.113 207.467 120.36C207.455 119.53 207.724 118.715 207.624 117.764C206.348 118.364 205.138 118.926 203.935 119.499C203.496 119.709 203.089 119.817 202.75 119.341V119.342ZM219.23 105.384C219.083 105.608 219.041 105.677 218.994 105.745C216.229 109.653 213.205 113.341 209.74 116.656C209.134 117.235 208.805 117.901 208.719 118.77C208.584 120.158 208.652 121.521 208.873 122.883C209.129 124.454 209.6 125.941 210.733 127.136C211.995 128.469 213.862 128.49 215.134 127.17C216.521 125.732 217.522 124.065 218.137 122.158C219.492 117.955 219.802 113.635 219.667 109.257C219.63 108.02 219.547 106.789 219.23 105.382V105.384Z" fill="black"/>
<path d="M162.217 132.324C162.862 131.988 163.566 131.823 164.259 131.639C164.717 131.517 164.933 131.337 164.764 130.82C163.802 127.892 163.38 124.869 163.184 121.806C163.171 121.583 163.13 121.354 163.162 121.136C163.277 120.377 163.746 120.168 164.42 120.547C168.006 122.571 171.817 124.041 175.786 125.109C176.866 125.399 177.955 125.696 179.099 125.587C179.518 125.546 179.778 125.779 179.96 126.135C180.1 126.409 180.264 126.668 180.417 126.935C180.451 127.786 180.483 128.635 180.517 129.485C180.402 131.733 180.009 133.944 179.638 136.158C179.403 137.563 178.878 138.845 178.186 140.084C176.88 142.426 174.149 142.967 171.738 141.735C170.035 140.865 168.816 139.49 167.814 137.89C166.963 136.53 166.378 135.041 165.652 133.62C165.438 132.645 164.876 132.328 163.966 132.67C163.704 132.768 163.441 132.861 163.186 132.97C162.526 133.254 162.15 133.124 162.219 132.324H162.217ZM164.4 121.658C164.207 121.891 164.281 122.09 164.281 122.275C164.308 127.403 165.849 132.108 168.312 136.545C168.995 137.775 169.842 138.899 170.862 139.883C171.679 140.67 172.691 141.11 173.773 141.27C175.429 141.517 176.981 140.457 177.693 138.57C179.047 134.982 179.486 131.281 178.824 127.475C178.775 127.192 178.708 127.021 178.392 126.969C175.238 126.449 172.338 125.143 169.378 124.026C167.652 123.374 166.03 122.488 164.4 121.659V121.658Z" fill="black"/>
<path d="M207.464 132.66C207.778 133.544 208.193 134.383 207.665 135.373C207.249 136.153 206.593 136.491 205.837 136.703C205.062 136.923 204.271 137.097 203.476 137.216C202.813 137.316 202.483 137.615 202.542 138.297C202.095 138.183 201.656 138.221 201.214 138.344C198.301 139.161 195.422 140.079 192.614 141.213C192.232 141.366 191.794 141.498 192.015 142.014C192.217 142.487 192.692 142.403 193.041 142.224C194.904 141.275 196.958 140.88 198.902 140.168C199.873 139.814 200.875 139.542 201.913 139.449C201.619 140.545 200.939 141.198 199.824 141.507C198.474 141.881 197.159 142.379 195.824 142.813C194.585 143.214 193.309 143.287 192.028 143.137C191.115 143.029 190.479 142.48 190.192 141.606C190.037 141.137 189.792 140.869 189.318 140.693C188.677 140.458 188.241 139.988 188.234 139.24C188.445 138.985 188.764 138.94 189.05 138.838C193.497 137.274 197.94 135.699 202.396 134.162C204.061 133.586 205.705 132.923 207.465 132.656L207.464 132.66ZM206.267 135.311C206.1 134.714 205.719 134.661 205.167 134.83C200.981 136.109 196.789 137.362 192.605 138.648C191.885 138.869 191.195 139.194 190.498 139.493C190.15 139.642 189.784 139.869 190 140.312C190.234 140.791 190.643 140.627 191.016 140.44C191.341 140.276 191.66 140.089 192.003 139.972C196.467 138.464 200.973 137.093 205.567 136.032C205.974 135.937 206.235 135.768 206.265 135.311H206.267Z" fill="#4074C4"/>
<path d="M180.514 129.485C180.48 128.634 180.448 127.784 180.414 126.935C180.792 126.317 181.494 126.425 182.051 126.245C183.111 125.9 184.152 125.473 185.264 125.303C185.324 126.098 185.511 126.238 186.258 125.937C188.319 125.11 190.478 124.591 192.581 123.894C195.109 123.055 197.664 122.294 200.116 121.242C200.673 121.003 201.054 120.707 200.72 120.036C201.351 119.676 201.991 119.339 202.749 119.342C203.088 119.818 203.493 119.71 203.934 119.501C205.137 118.925 206.347 118.363 207.623 117.766C207.722 118.716 207.454 119.531 207.466 120.361C202.902 122.149 198.295 123.814 193.662 125.413C189.453 126.866 185.204 128.19 180.934 129.45C180.802 129.488 180.655 129.475 180.515 129.485H180.514Z" fill="#4074C4"/>
<path d="M153.502 114.599C153.124 116.587 152.771 118.39 152.44 120.197C152.184 121.6 151.958 123.009 151.958 124.442C151.958 124.582 151.975 124.727 151.946 124.862C151.88 125.188 151.894 125.672 151.691 125.797C151.35 126.008 151.154 125.515 150.908 125.323C148.466 123.436 146.09 121.47 143.973 119.21C143.339 118.533 143.35 118.444 144.169 118.008C147.082 116.459 150.332 115.874 153.502 114.598V114.599Z" fill="#4074C4"/>
<path d="M111.326 50.5876C109.759 51.6187 108.271 52.525 107.034 53.7402C105.78 54.9722 104.475 56.2076 104.145 58.0556C103.937 59.2218 104.026 60.3424 105.031 61.1846C105.888 61.9035 106.747 62.6208 107.606 63.3381C107.788 63.4916 108.146 63.6115 107.981 63.8933C107.827 64.1583 107.483 64.2494 107.154 64.1178C106.971 64.0452 106.801 63.9456 106.622 63.8646C103.117 62.2596 99.9523 60.0724 96.6934 58.0471C96.209 57.7451 96.3221 57.524 96.7322 57.2691C98.398 56.2312 100.101 55.2692 101.915 54.4979C104.828 53.2592 107.709 51.9478 110.605 50.6686C110.777 50.5926 110.942 50.466 111.327 50.5876H111.326Z" fill="#4074C4"/>
<path d="M173.052 65.835C174.886 65.4232 176.638 64.7431 178.434 64.2064C180.611 63.5567 182.776 62.8647 184.953 62.2116C185.647 62.004 186.354 61.7795 187.095 62.0141C187.35 62.5744 187.319 63.0622 186.597 63.1263C184.199 63.3356 181.922 64.0663 179.647 64.7583C170.837 67.4367 162.144 70.4745 153.394 73.3402C149.954 74.4659 146.515 75.6 143.009 76.5181C142.307 76.7021 141.639 77.0109 140.962 77.2826C140.582 77.4345 140.159 77.6387 139.966 77.1173C139.779 76.6093 140.218 76.4472 140.608 76.324C143.632 75.3705 146.646 74.3815 149.686 73.4752C157.005 71.293 164.244 68.8661 171.487 66.4477C172.017 66.2705 172.53 66.0409 173.05 65.8367L173.052 65.835Z" fill="black"/>
<path d="M156.379 147.118C156.379 143.508 156.374 139.799 156.386 136.089C156.387 135.521 156.195 135.053 155.849 134.623C154.988 133.546 154.094 132.5 153.085 131.558C148.999 127.74 145.07 123.757 140.898 120.031C140.604 119.768 140.353 119.459 140.728 119.113C141.062 118.802 141.354 119.055 141.587 119.32C145.048 123.224 149.188 126.405 152.948 129.992C154.312 131.293 155.684 132.579 156.894 134.027C157.424 134.662 157.771 135.249 157.562 136.213C157.302 137.404 157.341 138.671 157.344 139.905C157.361 145.583 156.926 151.253 157.098 156.932C157.113 157.439 157.138 157.943 157.149 158.448C157.157 158.844 157.071 159.233 156.59 159.224C156.111 159.214 156.043 158.819 156.053 158.426C156.134 155.167 156.215 151.908 156.3 148.649C156.312 148.171 156.349 147.696 156.379 147.118Z" fill="black"/>
<path d="M198.198 103.141C195.504 103.124 192.846 103.519 190.174 103.782C187.699 104.027 185.225 104.359 182.727 104.332C182.492 104.329 182.15 104.465 182.058 104.153C181.947 103.772 182.342 103.711 182.577 103.623C185.351 102.606 187.975 101.267 190.603 99.9323C191.391 99.5323 192.183 99.5221 193.042 99.8074C194.986 100.454 197.048 100.543 199.043 100.963C199.855 101.134 200.734 101.218 201.094 102.189C201.349 102.877 201.208 103.127 200.474 103.139C199.715 103.151 198.957 103.141 198.198 103.141Z" fill="#4074C4"/>
<path d="M130.381 79.0117C129.836 79.5247 129.335 79.2007 128.854 78.9087C126.209 77.3071 123.526 75.7764 120.82 74.2794C114.821 70.9563 108.633 67.9978 102.561 64.8182C100.496 63.7364 98.4349 62.6478 96.4113 61.4884C95.8628 61.1745 95.7683 60.8302 96.1632 60.3441C96.7607 60.1501 97.1894 60.5416 97.6366 60.7998C105.803 65.5169 114.26 69.6906 122.531 74.2136C124.99 75.5587 127.507 76.7991 129.942 78.1898C130.3 78.394 130.394 78.6522 130.381 79.01V79.0117Z" fill="black"/>
<path d="M207.468 132.659C205.708 132.926 204.064 133.589 202.399 134.165C197.943 135.702 193.5 137.277 189.053 138.841C188.767 138.941 188.45 138.988 188.237 139.243C187.864 139.243 187.407 139.378 187.284 138.856C187.176 138.401 187.571 138.266 187.89 138.104C188.01 138.043 188.116 137.957 188.229 137.883C188.47 137.974 188.664 137.817 188.87 137.748C191.611 136.84 194.353 135.94 197.088 135.008C199.842 134.068 202.598 133.133 205.283 132.004C205.894 131.841 206.501 131.657 207.117 131.52C207.563 131.42 208.13 131.221 208.299 131.868C208.462 132.497 207.86 132.514 207.467 132.662L207.468 132.659Z" fill="black"/>
<path d="M200.721 120.035C201.057 120.707 200.676 121.002 200.117 121.242C197.663 122.293 195.108 123.055 192.582 123.893C190.481 124.59 188.322 125.11 186.26 125.937C185.512 126.238 185.325 126.096 185.266 125.303C185.566 125.071 185.931 125.024 186.282 124.926C190.882 123.654 195.412 122.175 199.749 120.16C200.077 120.008 200.382 119.956 200.721 120.037V120.035Z" fill="black"/>
<path d="M205.281 132.002C202.595 133.131 199.839 134.066 197.085 135.006C194.353 135.937 191.609 136.837 188.868 137.745C188.662 137.812 188.468 137.971 188.227 137.88C188.387 136.943 189.113 136.531 189.879 136.271C194.775 134.611 199.699 133.043 204.754 131.924C204.951 131.88 205.13 131.796 205.281 132.002Z" fill="#4074C4"/>
<path d="M201.919 139.451C200.881 139.545 199.878 139.815 198.908 140.17C196.964 140.882 194.91 141.277 193.047 142.225C192.697 142.402 192.223 142.489 192.02 142.016C191.799 141.5 192.238 141.368 192.62 141.214C195.428 140.08 198.307 139.162 201.22 138.345C201.66 138.222 202.101 138.183 202.548 138.298C202.994 139.039 202.572 139.309 201.92 139.452L201.919 139.451Z" fill="black"/>
<path d="M162.219 132.324C162.15 133.126 162.526 133.254 163.186 132.971C163.443 132.861 163.706 132.768 163.966 132.67C164.877 132.328 165.439 132.645 165.652 133.62C164.704 134.056 163.779 134.56 162.796 134.9C162.184 135.111 161.563 134.851 161.288 134.192C160.972 133.436 161.308 132.817 162.218 132.324H162.219Z" fill="#4074C4"/>
<path d="M220.578 114.582C220.582 114.389 220.578 114.195 220.587 114.003C220.654 112.643 221.347 111.726 222.666 111.25C222.711 111.377 222.721 111.542 222.809 111.625C223.795 112.558 223.192 113.363 222.414 113.869C221.864 114.227 221.275 114.561 220.58 114.582H220.578Z" fill="#4074C4"/>
<path d="M132.15 95.2249C132.256 98.8062 132.268 102.656 132.511 106.5C132.676 109.11 132.941 111.702 133.473 114.264C133.719 115.445 132.979 116.151 131.784 115.876C131.178 115.737 130.607 115.504 130.067 115.197C124.652 112.114 119.074 109.312 113.822 105.94C112.475 105.076 111.147 104.181 109.803 103.312C109.527 103.133 109.378 102.922 109.316 102.582C107.996 95.3093 108.35 88.0455 109.392 80.7833C109.643 79.0332 109.862 77.2797 110.122 75.5313C110.207 74.9608 110.269 74.3921 110.806 73.9668C111.521 73.3997 112.075 73.7018 112.772 74.0292C118.792 76.8662 124.672 79.98 130.579 83.0415C131.726 83.6355 132.344 84.3461 132.231 85.7789C131.99 88.8303 131.944 91.8968 132.152 95.2249H132.15ZM132.238 114.681C132.168 114.213 132.101 113.887 132.076 113.558C131.747 109.268 131.537 104.973 131.394 100.674C131.232 95.8409 131.053 91.0091 130.974 86.1738C130.955 85.011 130.479 84.4659 129.517 83.936C123.936 80.8627 118.269 77.9548 112.558 75.1346C111.908 74.814 111.351 74.9979 111.312 75.6241C111.201 77.3725 110.588 79.0163 110.321 80.7344C109.263 87.5881 109.081 94.4317 110.266 101.289C110.409 102.124 110.738 102.72 111.503 103.214C117.805 107.295 124.442 110.774 131.085 114.249C131.404 114.416 131.762 114.503 132.239 114.679L132.238 114.681Z" fill="black"/>
<path d="M107.761 75.0963C107.511 79.248 107.322 83.4031 106.998 87.5481C106.67 91.7336 106.777 95.9207 106.76 100.108C106.756 100.977 106.459 101.188 105.7 100.758C101.081 98.1417 96.4042 95.6254 91.9487 92.7259C90.8382 92.0036 90.2711 91.2779 90.445 89.8096C90.661 87.9818 90.418 86.1102 90.4956 84.252C90.6644 80.2269 91.4221 76.2794 91.9875 72.3065C92.3234 69.937 92.8449 67.6165 93.7292 65.3836C94.092 64.4672 94.3418 64.3339 95.2447 64.7659C96.5392 65.3853 97.8083 66.0604 98.9694 66.9042C101.589 68.8063 104.465 70.2931 107.2 72.0061C107.568 72.2374 107.698 72.5378 107.712 72.9057C107.739 73.6348 107.72 74.3655 107.72 75.0963C107.735 75.0963 107.75 75.0963 107.766 75.0963H107.761ZM105.568 99.2742C105.585 99.1071 105.605 99.0008 105.605 98.8927C105.58 94.6431 106.017 90.4155 106.171 86.176C106.321 82.0479 106.669 77.9249 106.556 73.7883C106.542 73.304 106.441 72.9732 105.987 72.6947C102.451 70.5176 98.9289 68.3168 95.4118 66.1093C94.9831 65.841 94.8363 65.922 94.654 66.3912C93.6144 69.0814 93.152 71.9066 92.6271 74.7183C91.6888 79.7358 91.3648 84.8056 91.385 89.9024C91.385 90.1691 91.3715 90.4104 91.6382 90.6484C92.6052 91.5125 93.7123 92.1774 94.7418 92.9487C98.0834 95.4532 101.914 97.1089 105.568 99.2759V99.2742Z" fill="black"/>
<path d="M105.957 121.722C106.112 117.649 106.284 113.579 106.411 109.506C106.451 108.188 106.38 106.865 106.345 105.545C106.331 105.078 106.282 104.536 106.903 104.527C107.528 104.519 107.504 105.071 107.486 105.533C107.287 110.475 106.974 115.411 106.91 120.358C106.849 124.981 107.273 129.559 108.002 134.116C108.07 134.541 108.287 135.102 107.614 135.198C106.956 135.292 106.836 134.707 106.795 134.243C106.424 130.076 105.886 125.919 105.96 121.722H105.957Z" fill="black"/>
<path d="M110.572 112.661C110.712 112.021 111.041 111.589 111.758 111.582C112.493 111.574 112.749 112.092 112.977 112.661C113.215 113.256 113.112 113.877 113.142 114.488C113.179 115.238 113.009 116.007 113.321 116.733C113.578 117.329 113.473 117.833 112.967 118.232C112.467 118.625 111.983 118.524 111.514 118.144C111.412 118.063 111.264 118.039 111.137 117.99C110.877 116.596 111.016 115.187 110.992 113.785C110.985 113.349 110.98 112.937 110.57 112.664L110.572 112.661Z" fill="#63A0FD"/>
<path d="M110.57 112.661C110.98 112.934 110.983 113.346 110.992 113.781C111.015 115.184 110.877 116.593 111.137 117.987C110.97 118.494 111.265 118.708 111.678 118.853C112.154 119.02 112.656 119.125 113.079 119.42C113.349 119.607 113.553 119.845 113.415 120.198C113.292 120.514 113 120.59 112.713 120.522C111.95 120.343 111.169 120.195 110.502 119.744C110.031 119.427 109.773 118.991 109.781 118.396C109.805 116.792 109.812 115.191 109.819 113.587C109.82 113.068 110.006 112.715 110.57 112.659V112.661Z" fill="black"/>
<path d="M89.4591 105.727C89.5199 106.242 89.7528 106.611 90.2675 106.799C90.5544 106.903 90.7215 107.138 90.6438 107.467C90.5763 107.754 90.3434 107.855 90.0802 107.901C89.3747 108.024 88.8853 107.701 88.5359 107.124C88.0516 106.328 87.9621 105.43 87.9098 104.53C87.8693 103.828 87.8693 103.126 87.8524 102.422C87.8322 101.611 88.1647 101.341 88.995 101.491C89.3106 101.925 89.2903 102.424 89.3005 102.927C89.3207 103.862 89.103 104.812 89.4591 105.729V105.727Z" fill="black"/>
<path d="M89.4563 105.727C89.1002 104.811 89.3179 103.861 89.2977 102.926C89.2875 102.423 89.3078 101.923 88.9922 101.49C89.328 100.968 89.75 100.539 90.42 100.755C91.1119 100.98 91.2621 101.56 91.225 102.239C91.1879 102.907 91.2199 103.579 91.2165 104.251C91.2081 105.41 90.9786 105.638 89.7871 105.685C89.6757 105.69 89.566 105.712 89.4563 105.727Z" fill="#63A0FD"/>
<path d="M124.789 150.602C124.838 149.138 125.095 147.368 125.523 145.631C125.81 144.468 127.061 144.077 128.531 144.614C129.798 145.076 130.79 145.913 131.432 147.062C133.027 149.923 133.595 152.929 132.406 156.105C131.418 158.74 128.445 158.812 127.015 157.329C125.241 155.487 124.806 153.315 124.789 150.6V150.602ZM132.247 152.58C132.228 150.895 131.842 149.294 131.044 147.819C130.336 146.511 129.263 145.606 127.778 145.24C127.437 145.155 127.255 145.198 127.017 145.505C126.647 145.981 126.369 146.479 126.185 147.044C125.611 148.808 125.51 150.618 125.673 152.448C125.82 154.085 126.342 155.552 127.582 156.721C128.939 157.999 130.826 157.659 131.585 155.943C132.058 154.876 132.235 153.746 132.245 152.581L132.247 152.58Z" fill="black"/>
<path d="M81.2682 126.879C81.0859 125.328 81.5331 123.786 82.0175 122.267C82.647 120.294 84.2672 119.971 85.6595 121.502C86.6063 122.543 87.0164 123.833 87.1227 125.188C87.2729 127.093 87.0771 128.996 86.7464 130.874C86.5843 131.795 86.3059 132.781 85.2089 132.962C84.0967 133.144 83.1735 132.594 82.5035 131.733C81.4133 130.334 81.1517 128.688 81.2682 126.879ZM86.2856 126.25C86.3514 125.127 86.2721 124.034 85.6629 123.043C85.5346 122.461 85.1363 122.061 84.7076 121.701C83.8672 120.999 83.1145 121.249 82.8158 122.316C82.6335 122.964 82.4428 123.612 82.3162 124.27C81.9601 126.106 81.8403 127.949 82.4225 129.762C82.7297 130.719 83.2242 131.566 84.2486 131.937C85.0671 132.234 85.484 132.07 85.7236 131.228C86.186 129.605 86.4223 127.944 86.2873 126.248L86.2856 126.25Z" fill="black"/>
<path d="M187.378 66.4988C188.288 70.4699 187.845 74.4613 187.815 78.429C187.773 84.0912 186.991 89.6927 186.286 95.2975C186.164 96.2713 186.087 97.262 186.116 98.2408C186.137 98.9699 185.857 99.3446 185.248 99.6838C179.545 102.872 173.531 105.354 167.438 107.672C161.135 110.068 154.71 112.077 148.197 113.815C147.245 114.068 146.34 114.439 145.436 114.827C144.46 115.246 144.158 115.099 143.822 114.139C142.506 110.375 141.846 106.475 141.514 102.519C140.997 96.3557 140.54 90.1889 140.285 84.0085C140.199 81.9091 140.557 81.3319 142.607 80.5927C147.328 78.8898 151.987 77.0249 156.843 75.6882C165.72 73.2445 174.435 70.2589 183.255 67.616C184.597 67.2143 185.959 66.8802 187.376 66.4971L187.378 66.4988ZM179.115 98.6459C179.245 98.1396 178.948 97.7413 178.648 97.3784C175.144 93.1491 172.035 88.6311 168.95 84.098C168.162 82.9402 167.435 81.7352 166.42 80.7581C165.84 80.1994 164.881 80.2197 164.346 80.726C163.872 81.1749 163.739 82.2989 164.139 82.8322C166.446 85.8988 168.478 89.156 170.732 92.258C172.508 94.7001 174.285 97.1422 176.224 99.461C176.683 100.011 177.287 100.474 178.055 100.194C178.707 99.9555 179.231 99.5083 179.115 98.6476V98.6459ZM165.318 101.961C165.998 102.011 166.517 101.802 166.802 101.199C167.111 100.548 167.009 99.9133 166.517 99.4121C164.75 97.613 163.096 95.7127 161.445 93.809C160.036 92.1837 158.709 90.4876 157.287 88.8758C156.249 87.7012 155.255 86.476 154.065 85.4448C153.152 84.6532 152.104 84.7444 151.51 85.6085C151.061 86.2616 151.179 87.1308 151.886 87.794C153.832 89.6201 155.538 91.6656 157.243 93.706C159.486 96.3928 161.732 99.0729 164.24 101.522C164.566 101.841 164.891 102.045 165.317 101.961H165.318ZM146.556 95.0629C146.516 95.5675 146.649 96.0806 147.142 96.3304C149.363 97.4561 151.564 98.6223 153.756 99.802C154.566 100.237 155.589 99.8678 155.958 99.159C156.311 98.4805 156.028 97.3666 155.256 96.9768C153.089 95.8798 151.039 94.5583 148.782 93.6385C147.721 93.2065 146.565 93.9423 146.556 95.0612V95.0629ZM180.305 87.87C180.19 86.2532 180.092 84.6347 179.95 83.0212C179.89 82.3242 179.152 81.7065 178.504 81.7184C177.745 81.7319 176.992 82.2905 176.953 83.0077C176.848 84.9688 176.93 86.9316 177.329 88.859C177.456 89.4682 177.945 89.8463 178.58 89.9779C179.262 90.118 179.701 89.7585 180.069 89.2556C180.376 88.8337 180.3 88.3442 180.305 87.87Z" fill="#DFEBFD"/>
<path d="M219.229 105.383C219.547 106.79 219.629 108.021 219.667 109.258C219.802 113.636 219.489 117.956 218.136 122.158C217.522 124.066 216.521 125.733 215.133 127.171C213.861 128.491 211.996 128.47 210.732 127.137C209.601 125.942 209.129 124.455 208.872 122.884C208.651 121.522 208.582 120.159 208.719 118.771C208.803 117.9 209.134 117.235 209.74 116.657C213.204 113.342 216.229 109.653 218.993 105.746C219.04 105.678 219.084 105.607 219.229 105.385V105.383ZM214.701 119.799C214.771 119.045 214.696 118.348 214.553 117.659C214.389 116.869 214.077 116.172 213.287 115.794C212.732 115.529 212.242 115.656 211.809 116.032C211.228 116.535 210.891 117.244 210.908 117.953C210.918 118.368 211.615 118.089 211.979 118.219C212.032 118.238 212.087 118.248 212.141 118.265C212.426 118.359 212.659 118.515 212.648 118.851C212.636 119.185 212.394 119.348 212.102 119.401C211.773 119.46 211.436 119.483 211.102 119.502C210.867 119.516 210.656 119.5 210.654 119.838C210.651 120.881 210.622 121.956 211.161 122.872C212.016 124.331 212.617 124.445 213.768 123.414C213.945 123.255 214.06 123.001 214.144 122.769C214.499 121.796 214.874 120.822 214.701 119.799Z" fill="white"/>
<path d="M164.406 121.657C166.037 122.486 167.658 123.372 169.385 124.023C172.345 125.141 175.245 126.445 178.399 126.967C178.716 127.019 178.782 127.189 178.831 127.473C179.492 131.279 179.055 134.98 177.7 138.568C176.988 140.455 175.435 141.515 173.78 141.268C172.698 141.108 171.685 140.667 170.868 139.881C169.847 138.899 169.002 137.775 168.318 136.543C165.856 132.106 164.315 127.402 164.288 122.273C164.288 122.089 164.212 121.888 164.406 121.656V121.657ZM173.734 132.016C173.678 133.027 174.013 133.868 174.331 134.693C174.586 135.351 175.214 135.636 175.881 135.665C176.554 135.694 176.936 135.235 177.165 134.639C177.54 133.662 177.778 132.641 177.727 131.606C177.675 130.521 177.526 129.416 176.684 128.583C175.818 127.728 175.11 127.789 174.394 128.771C174.058 129.232 173.675 129.679 174.725 129.709C175.162 129.723 175.518 130.07 175.455 130.573C175.398 131.048 175.013 131.063 174.618 131.041C173.862 130.999 173.538 131.343 173.734 132.015V132.016Z" fill="white"/>
<path d="M206.268 135.311C206.238 135.768 205.976 135.937 205.569 136.031C200.975 137.093 196.469 138.463 192.005 139.972C191.663 140.089 191.344 140.276 191.018 140.44C190.645 140.627 190.237 140.791 190.002 140.311C189.786 139.869 190.152 139.641 190.5 139.493C191.195 139.194 191.886 138.87 192.608 138.647C196.792 137.363 200.984 136.109 205.169 134.83C205.721 134.661 206.103 134.713 206.27 135.311H206.268Z" fill="black"/>
<path d="M132.242 114.681C131.764 114.505 131.405 114.416 131.087 114.25C124.446 110.777 117.809 107.297 111.505 103.216C110.741 102.722 110.413 102.126 110.268 101.29C109.085 94.4351 109.266 87.5898 110.324 80.7361C110.589 79.0163 111.203 77.3742 111.314 75.6258C111.355 74.9996 111.912 74.8157 112.56 75.1363C118.271 77.9582 123.938 80.8644 129.519 83.9376C130.481 84.4676 130.957 85.0127 130.976 86.1755C131.055 91.0108 131.234 95.8426 131.396 100.676C131.54 104.975 131.749 109.272 132.078 113.56C132.103 113.889 132.171 114.215 132.24 114.682L132.242 114.681ZM128.168 104.605C128.223 104.268 128.08 103.918 127.845 103.581C125.007 99.4998 122.748 95.0815 120.352 90.7424C119.461 89.129 118.57 87.4987 117.213 86.1975C116.494 85.5089 115.699 85.4296 115.041 85.9899C114.398 86.5367 114.291 87.4109 114.828 88.1856C115.368 88.967 116.016 89.6775 116.511 90.4842C118.806 94.2359 120.647 98.2459 123.02 101.955C123.849 103.25 124.583 104.607 125.626 105.758C126.129 106.311 126.725 106.274 127.32 106.078C127.962 105.868 128.198 105.338 128.168 104.603V104.605ZM118.445 100.438C119.071 100.556 119.515 100.261 119.761 99.6855C120.055 99.0037 119.977 98.3421 119.397 97.8459C117.807 96.4873 116.334 94.9853 114.582 93.8191C113.579 93.1524 112.685 93.2115 112.126 93.971C111.583 94.7085 111.706 95.6232 112.661 96.2966C114.29 97.4442 115.642 98.9125 117.247 100.079C117.608 100.34 117.974 100.489 118.443 100.438H118.445Z" fill="#DFEBFD"/>
<path d="M105.567 99.2736C101.913 97.1049 98.082 95.451 94.7404 92.9464C93.7109 92.1752 92.6038 91.5102 91.6367 90.6461C91.3701 90.4082 91.3853 90.1668 91.3836 89.9002C91.365 84.8033 91.6873 79.7335 92.6257 74.716C93.1522 71.906 93.6147 69.0791 94.6526 66.3889C94.8332 65.9214 94.9817 65.8387 95.4104 66.1071C98.9275 68.3146 102.448 70.5153 105.985 72.6925C106.439 72.9709 106.541 73.3017 106.554 73.7861C106.667 77.9226 106.319 82.0456 106.169 86.1737C106.016 90.4132 105.579 94.6426 105.604 98.8905C105.604 98.9968 105.584 99.1048 105.567 99.2719V99.2736ZM95.1842 74.797C94.0332 74.7768 93.2754 75.7674 93.6619 76.9522C94.8095 80.4626 95.8373 84.0135 97.1267 87.4766C97.6651 88.9213 98.2035 90.366 98.9292 91.7296C99.2701 92.3709 99.7527 92.8823 100.568 92.8486C101.194 92.8232 101.601 92.4553 101.876 91.9271C102.186 91.3313 101.937 90.7778 101.707 90.236C101.366 89.4377 100.98 88.658 100.661 87.8513C99.1435 84.0202 97.9959 80.0643 96.7487 76.1421C96.509 75.386 96.1124 74.7413 95.1859 74.7987L95.1842 74.797ZM103.194 80.9908C103.137 80.1622 103.086 79.1833 102.993 78.2095C102.961 77.8804 102.834 77.5581 102.728 77.2408C102.46 76.4239 101.82 76.0324 100.978 76.1522C100.298 76.2484 99.6633 76.9032 99.7156 77.6323C99.8219 79.1057 99.984 80.5774 100.195 82.0389C100.279 82.6262 100.735 83.0329 101.316 83.1899C101.859 83.3367 102.313 83.1916 102.762 82.7714C103.288 82.2785 103.175 81.7115 103.194 80.9891V80.9908Z" fill="#DFEBFD"/>
<path d="M132.253 152.579C132.241 153.742 132.065 154.875 131.593 155.941C130.833 157.658 128.946 157.997 127.59 156.719C126.349 155.551 125.828 154.083 125.681 152.446C125.515 150.615 125.618 148.806 126.192 147.042C126.376 146.477 126.655 145.979 127.024 145.503C127.262 145.198 127.444 145.154 127.785 145.238C129.27 145.604 130.344 146.509 131.051 147.817C131.849 149.292 132.236 150.895 132.254 152.578L132.253 152.579ZM128.17 149.189C128.281 149.736 128.364 150.497 128.599 151.207C128.813 151.854 129.299 152.32 130.067 152.203C130.678 152.11 131.259 151.341 131.174 150.694C131.075 149.948 130.923 149.202 130.698 148.485C130.482 147.793 129.93 147.413 129.201 147.559C128.474 147.704 128.145 148.247 128.17 149.187V149.189Z" fill="#7A879C"/>
<path d="M86.2926 126.25C86.4277 127.946 86.1914 129.607 85.729 131.23C85.4893 132.072 85.0724 132.236 84.2539 131.939C83.2312 131.566 82.735 130.72 82.4279 129.763C81.8473 127.951 81.9654 126.106 82.3215 124.272C82.4498 123.612 82.6405 122.965 82.8211 122.317C83.1215 121.251 83.8725 121.001 84.713 121.703C85.1416 122.061 85.5399 122.463 85.6682 123.045C84.3451 122.871 83.5924 123.22 83.4827 124.147C83.405 124.807 83.4101 125.489 83.4793 126.15C83.5485 126.82 84.0008 127.279 84.6539 127.409C85.248 127.527 85.6446 127.127 85.9399 126.66C86.0395 126.501 86.0344 126.272 86.291 126.251L86.2926 126.25Z" fill="#7A879C"/>
<path d="M86.2876 126.25C86.0327 126.27 86.0378 126.499 85.9365 126.658C85.6412 127.126 85.2446 127.526 84.6505 127.407C83.9974 127.277 83.5451 126.82 83.4759 126.148C83.4067 125.487 83.3999 124.805 83.4793 124.145C83.589 123.219 84.3417 122.869 85.6648 123.043C86.2741 124.034 86.3517 125.129 86.2876 126.25Z" fill="#B0B9C9"/>
<path d="M179.12 98.6457C179.235 99.5048 178.711 99.9537 178.06 100.192C177.292 100.472 176.688 100.009 176.229 99.4592C174.291 97.142 172.514 94.6982 170.737 92.2561C168.482 89.1542 166.45 85.8969 164.143 82.8304C163.742 82.2971 163.877 81.1731 164.351 80.7241C164.886 80.2178 165.844 80.1976 166.425 80.7562C167.441 81.7334 168.168 82.9384 168.955 84.0962C172.04 88.631 175.149 93.1472 178.652 97.3766C178.953 97.7395 179.25 98.1394 179.12 98.644V98.6457Z" fill="#D7E2F2"/>
<path d="M165.323 101.961C164.897 102.045 164.572 101.839 164.246 101.522C161.738 99.0731 159.492 96.3931 157.249 93.7063C155.544 91.6659 153.84 89.6204 151.892 87.7943C151.183 87.1293 151.067 86.2602 151.516 85.6087C152.11 84.7446 153.158 84.6535 154.071 85.445C155.261 86.4762 156.255 87.7015 157.293 88.8761C158.715 90.4878 160.042 92.184 161.451 93.8092C163.102 95.7112 164.755 97.6133 166.522 99.4124C167.015 99.9136 167.117 100.548 166.808 101.2C166.522 101.804 166.003 102.011 165.324 101.961H165.323Z" fill="#D7E2F2"/>
<path d="M146.569 95.0639C146.578 93.9433 147.734 93.2091 148.795 93.6412C151.052 94.5593 153.102 95.8824 155.269 96.9794C156.041 97.3693 156.324 98.4831 155.971 99.1616C155.602 99.8704 154.579 100.24 153.769 99.8046C151.577 98.6232 149.376 97.4587 147.155 96.333C146.662 96.0832 146.529 95.5702 146.569 95.0656V95.0639Z" fill="#D7E2F2"/>
<path d="M180.314 87.8706C180.311 88.3448 180.387 88.8342 180.08 89.2561C179.712 89.7591 179.275 90.1202 178.591 89.9785C177.955 89.8468 177.467 89.4688 177.341 88.8595C176.941 86.9322 176.858 84.9694 176.964 83.0083C177.003 82.291 177.754 81.7341 178.515 81.7189C179.163 81.7071 179.901 82.3248 179.962 83.0218C180.103 84.6352 180.201 86.2537 180.316 87.8706H180.314Z" fill="#D7E2F2"/>
<path d="M214.704 119.8C214.875 120.822 214.502 121.796 214.147 122.77C214.063 123.001 213.948 123.256 213.771 123.415C212.618 124.446 212.019 124.331 211.163 122.873C210.625 121.958 210.655 120.882 210.657 119.839C210.657 119.501 210.87 119.516 211.104 119.503C211.438 119.484 211.776 119.462 212.105 119.401C212.397 119.349 212.637 119.184 212.65 118.851C212.662 118.515 212.429 118.36 212.144 118.266C212.092 118.249 212.034 118.239 211.982 118.22C211.617 118.088 210.92 118.369 210.91 117.953C210.893 117.246 211.231 116.536 211.811 116.033C212.245 115.656 212.735 115.53 213.29 115.795C214.08 116.171 214.392 116.868 214.556 117.66C214.699 118.348 214.773 119.044 214.704 119.8Z" fill="black"/>
<path d="M173.735 132.018C173.54 131.346 173.865 131.002 174.62 131.044C175.015 131.066 175.399 131.051 175.457 130.577C175.519 130.072 175.163 129.724 174.726 129.713C173.676 129.682 174.061 129.235 174.395 128.774C175.111 127.792 175.82 127.731 176.686 128.587C177.528 129.419 177.674 130.524 177.728 131.61C177.779 132.644 177.541 133.665 177.166 134.642C176.939 135.236 176.556 135.696 175.882 135.669C175.214 135.64 174.588 135.356 174.333 134.696C174.014 133.871 173.68 133.031 173.735 132.02V132.018Z" fill="black"/>
<path d="M128.168 104.605C128.198 105.339 127.962 105.869 127.321 106.08C126.725 106.276 126.129 106.315 125.626 105.76C124.582 104.609 123.849 103.252 123.02 101.957C120.648 98.2478 118.806 94.2379 116.511 90.4861C116.017 89.6794 115.369 88.9689 114.828 88.1875C114.292 87.4128 114.398 86.5386 115.041 85.9918C115.699 85.4315 116.494 85.5108 117.213 86.1994C118.57 87.4989 119.461 89.1309 120.352 90.7443C122.75 95.0834 125.007 99.5018 127.846 103.583C128.08 103.918 128.224 104.27 128.168 104.607V104.605Z" fill="#D7E2F2"/>
<path d="M118.443 100.438C117.974 100.489 117.608 100.34 117.247 100.079C115.642 98.9126 114.288 97.4443 112.662 96.2967C111.706 95.6233 111.583 94.7086 112.127 93.9711C112.685 93.2116 113.58 93.1525 114.582 93.8192C116.334 94.9854 117.807 96.4857 119.397 97.846C119.976 98.3422 120.055 99.0038 119.762 99.6856C119.513 100.261 119.071 100.556 118.445 100.438H118.443Z" fill="#D7E2F2"/>
<path d="M95.1883 74.7975C96.1149 74.7401 96.5115 75.3848 96.7511 76.1409C98 80.0631 99.1459 84.019 100.663 87.8501C100.982 88.6568 101.37 89.4365 101.71 90.2348C101.941 90.7766 102.19 91.3301 101.878 91.9259C101.603 92.4541 101.196 92.822 100.57 92.8474C99.7552 92.8811 99.2725 92.3697 98.9316 91.7284C98.2076 90.3648 97.6675 88.9201 97.1292 87.4754C95.8398 84.0123 94.812 80.4614 93.6644 76.951C93.2779 75.7662 94.0356 74.7773 95.1866 74.7958L95.1883 74.7975Z" fill="#D7E2F2"/>
<path d="M103.192 80.9909C103.174 81.7149 103.285 82.282 102.76 82.7731C102.311 83.1933 101.857 83.3384 101.314 83.1916C100.733 83.0347 100.278 82.6279 100.193 82.0406C99.9823 80.5791 99.8203 79.1074 99.714 77.6341C99.6616 76.905 100.296 76.2501 100.976 76.1539C101.818 76.0341 102.458 76.4274 102.726 77.2425C102.831 77.5615 102.959 77.8838 102.991 78.2112C103.084 79.185 103.135 80.1622 103.192 80.9926V80.9909Z" fill="#D7E2F2"/>
<path d="M128.165 149.189C128.14 148.247 128.469 147.706 129.197 147.561C129.926 147.414 130.478 147.795 130.694 148.487C130.918 149.204 131.07 149.952 131.169 150.696C131.256 151.343 130.673 152.112 130.062 152.205C129.296 152.321 128.808 151.856 128.594 151.209C128.36 150.499 128.275 149.738 128.165 149.191V149.189Z" fill="#B0B9C9"/>
</svg>
